<?xml version="1.0" encoding="UTF-8" standalone="no"?>
<!-- This is a Stata 16.1 generated SVG file (http://www.stata.com) -->

<svg version="1.1" width="5.50in" height="4.00in" viewBox="0 0 3960 2880" xmlns="http://www.w3.org/2000/svg" xmlns:xlink="http://www.w3.org/1999/xlink">
	<desc>Stata Graph - Graph</desc>
	<rect x="0" y="0" width="3960" height="2880" style="fill:#EAF2F3;stroke:none"/>
	<rect x="0.00" y="0.00" width="3959.88" height="2880.00" style="fill:#EAF2F3"/>
	<rect x="2.88" y="2.88" width="3954.12" height="2874.24" style="fill:none;stroke:#EAF2F3;stroke-width:5.76"/>
	<rect x="524.08" y="100.86" width="3334.94" height="2388.33" style="fill:#FFFFFF"/>
	<rect x="526.96" y="103.74" width="3329.18" height="2382.57" style="fill:none;stroke:#FFFFFF;stroke-width:5.76"/>
	<line x1="524.08" y1="2425.82" x2="3859.02" y2="2425.82" style="stroke:#EAF2F3;stroke-width:8.64"/>
	<line x1="524.08" y1="1294.96" x2="3859.02" y2="1294.96" style="stroke:#EAF2F3;stroke-width:8.64"/>
	<defs>
		<path id="path_lhpkgxwx" d="M618.01 2425.82 L618.01 2425.82 L648.57 2425.82 L679.14 2425.82 L709.71 2425.82 L740.27 2425.82 L770.84 2425.82 L801.40 2425.82 L831.85 2425.82 L862.41 2425.82 L892.98 2425.82 L923.55 2425.82 L954.11 2425.82 L984.68 2425.70 L1015.25 2425.70 L1045.81 2425.58 L1076.38 2425.33 L1106.94 2424.96 L1137.51 2424.34 L1167.95 2423.47 L1198.52 2422.23 L1229.09 2420.63 L1259.65 2418.27 L1290.22 2415.30 L1320.78 2411.47 L1351.35 2406.77 L1381.92 2400.95 L1412.48 2394.02 L1443.05 2385.85 L1473.62 2376.45 L1504.06 2365.68 L1534.62 2353.67 L1565.19 2340.56 L1595.76 2326.33 L1626.32 2310.98 L1656.89 2294.77 L1687.45 2277.81 L1718.02 2260.24 L1748.59 2242.17 L1779.15 2223.73 L1809.72 2205.17 L1840.16 2186.48 L1870.73 2167.92 L1901.30 2149.36 L1931.86 2131.17 L1962.43 2113.22 L1992.99 2095.52 L2023.56 2078.32 L2054.13 2061.49 L2084.69 2045.16 L2115.26 2029.32 L2145.70 2013.97 L2176.27 1999.24 L2206.83 1984.89 L2237.40 1971.15 L2267.97 1958.03 L2298.53 1945.29 L2329.10 1933.16 L2359.66 1921.40 L2390.23 1910.14 L2420.80 1899.37 L2451.36 1888.98 L2481.81 1879.08 L2512.37 1869.67 L2542.94 1860.52 L2573.51 1851.85 L2604.07 1843.56 L2634.64 1835.64 L2665.20 1828.09 L2695.77 1820.91 L2726.34 1813.98 L2756.90 1807.30 L2787.47 1800.99 L2817.91 1795.05 L2848.48 1789.23 L2879.04 1783.66 L2909.61 1778.47 L2940.18 1773.39 L2970.74 1768.57 L3001.31 1763.99 L3031.88 1759.66 L3062.44 1755.45 L3093.01 1751.36 L3123.57 1747.53 L3154.02 1743.82 L3184.58 1740.23 L3215.15 1736.76 L3245.72 1733.54 L3276.28 1730.33 L3306.85 1727.23 L3337.41 1724.26 L3367.98 1721.42 L3398.55 1718.69 L3429.11 1715.97 L3459.68 1713.37 L3490.12 1710.90 L3520.69 1708.42 L3551.25 1706.07 L3581.82 1703.72 L3612.39 1701.37 L3642.95 1699.14 L3673.52 1696.91 L3704.09 1694.81 L3734.65 1692.71 L3765.22 1690.60 L3795.66 1688.50 L3795.66 1557.32 L3765.22 1559.79 L3734.65 1562.27 L3704.09 1564.74 L3673.52 1567.34 L3642.95 1569.82 L3612.39 1572.42 L3581.82 1575.02 L3551.25 1577.74 L3520.69 1580.46 L3490.12 1583.18 L3459.68 1586.03 L3429.11 1589.00 L3398.55 1591.97 L3367.98 1595.06 L3337.41 1598.28 L3306.85 1601.62 L3276.28 1605.09 L3245.72 1608.55 L3215.15 1612.27 L3184.58 1616.10 L3154.02 1620.06 L3123.57 1624.27 L3093.01 1628.60 L3062.44 1633.06 L3031.88 1637.76 L3001.31 1642.71 L2970.74 1647.91 L2940.18 1653.35 L2909.61 1659.04 L2879.04 1664.98 L2848.48 1671.17 L2817.91 1677.73 L2787.47 1684.54 L2756.90 1691.72 L2726.34 1699.26 L2695.77 1707.18 L2665.20 1715.35 L2634.64 1724.02 L2604.07 1733.17 L2573.51 1742.58 L2542.94 1752.60 L2512.37 1763.00 L2481.81 1773.76 L2451.36 1785.15 L2420.80 1796.91 L2390.23 1809.16 L2359.66 1821.90 L2329.10 1835.27 L2298.53 1849.01 L2267.97 1863.36 L2237.40 1878.09 L2206.83 1893.43 L2176.27 1909.40 L2145.70 1925.86 L2115.26 1943.06 L2084.69 1960.76 L2054.13 1979.07 L2023.56 1997.88 L1992.99 2017.44 L1962.43 2037.61 L1931.86 2058.15 L1901.30 2079.31 L1870.73 2100.85 L1840.16 2122.75 L1809.72 2144.90 L1779.15 2167.05 L1748.59 2189.08 L1718.02 2210.74 L1687.45 2231.78 L1656.89 2252.07 L1626.32 2271.38 L1595.76 2289.69 L1565.19 2306.77 L1534.62 2322.61 L1504.06 2337.22 L1473.62 2350.33 L1443.05 2362.34 L1412.48 2372.86 L1381.92 2382.26 L1351.35 2390.43 L1320.78 2397.36 L1290.22 2403.42 L1259.65 2408.37 L1229.09 2412.46 L1198.52 2415.80 L1167.95 2418.52 L1137.51 2420.50 L1106.94 2422.11 L1076.38 2423.35 L1045.81 2424.21 L1015.25 2424.83 L984.68 2425.20 L954.11 2425.45 L923.55 2425.58 L892.98 2425.70 L862.41 2425.82 L831.85 2425.82 L801.40 2425.82 L770.84 2425.82 L740.27 2425.82 L709.71 2425.82 L679.14 2425.82 L648.57 2425.82 L618.01 2425.82 L618.01 2425.82 Z" stroke-linejoin="round"/>
	</defs>
	<defs>
		<clipPath id="clipPath_McxTuMWl">
			<use xlink:href="#path_lhpkgxwx"/>
		</clipPath>
	</defs>
	<use xlink:href="#path_lhpkgxwx" style="stroke:none;fill:#FF3333;fill-opacity:0.25"/>
	<use xlink:href="#path_lhpkgxwx" style="fill:none;stroke:#FF0000;stroke-opacity:0.25;stroke-width:17.28" clip-path="url(#clipPath_McxTuMWl)"/>
	<defs>
		<path id="path_AVFuwjMY" d="M618.01 2425.82 L618.01 2425.82 L648.57 2425.82 L679.14 2425.82 L709.71 2425.82 L740.27 2425.82 L770.84 2425.82 L801.40 2425.82 L831.85 2425.82 L862.41 2425.82 L892.98 2425.82 L923.55 2425.82 L954.11 2425.82 L984.68 2425.82 L1015.25 2425.70 L1045.81 2425.58 L1076.38 2425.33 L1106.94 2424.96 L1137.51 2424.46 L1167.95 2423.72 L1198.52 2422.61 L1229.09 2421.00 L1259.65 2418.89 L1290.22 2416.17 L1320.78 2412.83 L1351.35 2408.50 L1381.92 2403.30 L1412.48 2396.99 L1443.05 2389.69 L1473.62 2381.27 L1504.06 2371.74 L1534.62 2361.10 L1565.19 2349.47 L1595.76 2336.84 L1626.32 2323.36 L1656.89 2309.12 L1687.45 2294.15 L1718.02 2278.68 L1748.59 2262.72 L1779.15 2246.50 L1809.72 2230.17 L1840.16 2213.83 L1870.73 2197.50 L1901.30 2181.41 L1931.86 2165.45 L1962.43 2149.73 L1992.99 2134.38 L2023.56 2119.28 L2054.13 2104.68 L2084.69 2090.57 L2115.26 2076.84 L2145.70 2063.47 L2176.27 2050.73 L2206.83 2038.35 L2237.40 2026.47 L2267.97 2014.96 L2298.53 2003.95 L2329.10 1993.43 L2359.66 1983.16 L2390.23 1973.38 L2420.80 1963.97 L2451.36 1955.06 L2481.81 1946.40 L2512.37 1938.23 L2542.94 1930.31 L2573.51 1922.76 L2604.07 1915.46 L2634.64 1908.66 L2665.20 1901.97 L2695.77 1895.79 L2726.34 1889.72 L2756.90 1884.03 L2787.47 1878.46 L2817.91 1873.26 L2848.48 1868.19 L2879.04 1863.49 L2909.61 1858.91 L2940.18 1854.58 L2970.74 1850.37 L3001.31 1846.41 L3031.88 1842.57 L3062.44 1838.86 L3093.01 1835.39 L3123.57 1832.05 L3154.02 1828.83 L3184.58 1825.74 L3215.15 1822.77 L3245.72 1819.92 L3276.28 1817.20 L3306.85 1814.48 L3337.41 1812.00 L3367.98 1809.53 L3398.55 1807.05 L3429.11 1804.83 L3459.68 1802.48 L3490.12 1800.37 L3520.69 1798.14 L3551.25 1796.16 L3581.82 1794.06 L3612.39 1792.08 L3642.95 1790.10 L3673.52 1788.24 L3704.09 1786.26 L3734.65 1784.41 L3765.22 1782.55 L3795.66 1780.82 L3795.66 1567.10 L3765.22 1569.45 L3734.65 1571.92 L3704.09 1574.40 L3673.52 1576.87 L3642.95 1579.47 L3612.39 1581.95 L3581.82 1584.54 L3551.25 1587.27 L3520.69 1589.99 L3490.12 1592.71 L3459.68 1595.56 L3429.11 1598.53 L3398.55 1601.50 L3367.98 1604.59 L3337.41 1607.81 L3306.85 1611.03 L3276.28 1614.49 L3245.72 1618.08 L3215.15 1621.67 L3184.58 1625.51 L3154.02 1629.59 L3123.57 1633.67 L3093.01 1638.01 L3062.44 1642.59 L3031.88 1647.29 L3001.31 1652.24 L2970.74 1657.31 L2940.18 1662.76 L2909.61 1668.45 L2879.04 1674.27 L2848.48 1680.58 L2817.91 1687.01 L2787.47 1693.82 L2756.90 1701.00 L2726.34 1708.55 L2695.77 1716.34 L2665.20 1724.63 L2634.64 1733.17 L2604.07 1742.21 L2573.51 1751.61 L2542.94 1761.51 L2512.37 1771.91 L2481.81 1782.67 L2451.36 1793.94 L2420.80 1805.69 L2390.23 1817.82 L2359.66 1830.57 L2329.10 1843.81 L2298.53 1857.55 L2267.97 1871.78 L2237.40 1886.63 L2206.83 1901.97 L2176.27 1917.81 L2145.70 1934.27 L2115.26 1951.35 L2084.69 1969.05 L2054.13 1987.36 L2023.56 2006.17 L1992.99 2025.60 L1962.43 2045.53 L1931.86 2066.07 L1901.30 2086.99 L1870.73 2108.27 L1840.16 2129.93 L1809.72 2151.71 L1779.15 2173.49 L1748.59 2195.15 L1718.02 2216.43 L1687.45 2237.22 L1656.89 2257.15 L1626.32 2276.20 L1595.76 2294.15 L1565.19 2310.86 L1534.62 2326.45 L1504.06 2340.56 L1473.62 2353.43 L1443.05 2365.06 L1412.48 2375.33 L1381.92 2384.37 L1351.35 2392.16 L1320.78 2398.84 L1290.22 2404.54 L1259.65 2409.36 L1229.09 2413.20 L1198.52 2416.42 L1167.95 2418.89 L1137.51 2420.87 L1106.94 2422.36 L1076.38 2423.47 L1045.81 2424.21 L1015.25 2424.83 L984.68 2425.20 L954.11 2425.45 L923.55 2425.70 L892.98 2425.70 L862.41 2425.82 L831.85 2425.82 L801.40 2425.82 L770.84 2425.82 L740.27 2425.82 L709.71 2425.82 L679.14 2425.82 L648.57 2425.82 L618.01 2425.82 L618.01 2425.82 Z" stroke-linejoin="round"/>
	</defs>
	<defs>
		<clipPath id="clipPath_sHjnwemR">
			<use xlink:href="#path_AVFuwjMY"/>
		</clipPath>
	</defs>
	<use xlink:href="#path_AVFuwjMY" style="stroke:none;fill:#3333FF;fill-opacity:0.25"/>
	<use xlink:href="#path_AVFuwjMY" style="fill:none;stroke:#0000FF;stroke-opacity:0.25;stroke-width:17.28" clip-path="url(#clipPath_sHjnwemR)"/>
	<path d=" M587.44 2425.95 L618.01 2425.95 L648.57 2425.95 L679.02 2425.95 L709.58 2425.95 L740.15 2425.95 L770.72 2425.95 L801.28 2425.95 L831.85 2425.95 L862.41 2425.95 L892.98 2425.82 L923.55 2425.82 L954.11 2425.82 L984.68 2425.70 L1015.12 2425.45 L1045.69 2425.20 L1076.25 2424.71 L1106.82 2424.09 L1137.39 2423.10 L1167.95 2421.74 L1198.52 2419.88 L1229.09 2417.53 L1259.65 2414.44 L1290.22 2410.48 L1320.66 2405.78 L1351.23 2399.83 L1381.79 2392.90 L1412.36 2384.86 L1442.92 2375.46 L1473.49 2364.81 L1504.06 2352.81 L1534.62 2339.69 L1565.19 2325.09 L1595.76 2309.49 L1626.32 2292.79 L1656.77 2274.97 L1687.33 2256.40 L1717.90 2237.10 L1748.46 2217.30 L1779.03 2197.13 L1809.60 2176.83 L1840.16 2156.53 L1870.73 2136.36 L1901.30 2116.44 L1931.86 2096.76 L1962.43 2077.46 L1992.87 2058.65 L2023.44 2040.21 L2054.00 2022.39 L2084.57 2005.06 L2115.14 1988.35 L2145.70 1972.14 L2176.27 1956.55 L2206.83 1941.45 L2237.40 1926.85 L2267.97 1912.86 L2298.53 1899.37 L2328.97 1886.50 L2359.54 1874.00 L2390.11 1862.00 L2420.67 1850.49 L2451.24 1839.35 L2481.81 1828.83 L2512.37 1818.69 L2542.94 1809.03 L2573.51 1799.75 L2604.07 1790.84 L2634.64 1782.30 L2665.08 1774.26 L2695.65 1766.46 L2726.21 1759.16 L2756.78 1752.11 L2787.34 1745.30 L2817.91 1738.87 L2848.48 1732.80 L2879.04 1726.86 L2909.61 1721.29 L2940.18 1715.97 L2970.62 1710.90 L3001.18 1705.95 L3031.75 1701.37 L3062.32 1696.91 L3092.88 1692.58 L3123.45 1688.50 L3154.02 1684.54 L3184.58 1680.83 L3215.15 1677.11 L3245.72 1673.65 L3276.28 1670.31 L3306.72 1667.09 L3337.29 1663.99 L3367.86 1660.90 L3398.42 1658.05 L3428.99 1655.21 L3459.55 1652.49 L3490.12 1649.76 L3520.69 1647.16 L3551.25 1644.57 L3581.82 1642.09 L3612.39 1639.61 L3642.83 1637.26 L3673.39 1634.79 L3703.96 1632.56 L3734.53 1630.21 L3765.09 1627.86 L3795.66 1625.63" stroke-linejoin="round" style="fill:none;stroke:#FF0000;stroke-width:8.64"/>
	<path d=" M587.44 2425.95 L618.01 2425.95 L648.57 2425.95 L679.02 2425.95 L709.58 2425.95 L740.15 2425.95 L770.72 2425.95 L801.28 2425.95 L831.85 2425.95 L862.41 2425.95 L892.98 2425.82 L923.55 2425.82 L954.11 2425.82 L984.68 2425.70 L1015.12 2425.45 L1045.69 2425.20 L1076.25 2424.83 L1106.82 2424.21 L1137.39 2423.22 L1167.95 2421.99 L1198.52 2420.38 L1229.09 2418.15 L1259.65 2415.18 L1290.22 2411.59 L1320.66 2407.14 L1351.23 2401.69 L1381.79 2395.26 L1412.36 2387.71 L1442.92 2379.04 L1473.49 2369.14 L1504.06 2358.01 L1534.62 2345.63 L1565.19 2332.27 L1595.76 2317.66 L1626.32 2302.07 L1656.77 2285.61 L1687.33 2268.28 L1717.90 2250.34 L1748.46 2231.90 L1779.03 2213.21 L1809.60 2194.28 L1840.16 2175.47 L1870.73 2156.66 L1901.30 2138.10 L1931.86 2119.78 L1962.43 2101.84 L1992.87 2084.39 L2023.44 2067.31 L2054.00 2050.60 L2084.57 2034.51 L2115.14 2018.92 L2145.70 2003.95 L2176.27 1989.34 L2206.83 1975.36 L2237.40 1961.87 L2267.97 1948.75 L2298.53 1936.25 L2328.97 1924.25 L2359.54 1912.62 L2390.11 1901.48 L2420.67 1890.71 L2451.24 1880.44 L2481.81 1870.54 L2512.37 1861.13 L2542.94 1852.10 L2573.51 1843.56 L2604.07 1835.27 L2634.64 1827.35 L2665.08 1819.80 L2695.65 1812.62 L2726.21 1805.82 L2756.78 1799.13 L2787.34 1792.95 L2817.91 1787.01 L2848.48 1781.19 L2879.04 1775.74 L2909.61 1770.55 L2940.18 1765.60 L2970.62 1760.89 L3001.18 1756.31 L3031.75 1751.98 L3062.32 1747.90 L3092.88 1743.82 L3123.45 1740.10 L3154.02 1736.39 L3184.58 1732.93 L3215.15 1729.58 L3245.72 1726.24 L3276.28 1723.15 L3306.72 1720.18 L3337.29 1717.21 L3367.86 1714.49 L3398.42 1711.76 L3428.99 1709.04 L3459.55 1706.57 L3490.12 1703.97 L3520.69 1701.62 L3551.25 1699.26 L3581.82 1696.91 L3612.39 1694.56 L3642.83 1692.33 L3673.39 1690.11 L3703.96 1688.00 L3734.53 1685.78 L3765.09 1683.67 L3795.66 1681.57" stroke-linejoin="round" style="fill:none;stroke:#0000FF;stroke-width:8.64"/>
	<line x1="524.08" y1="2489.19" x2="524.08" y2="100.86" style="stroke:#000000;stroke-width:5.76"/>
	<line x1="524.08" y1="2425.82" x2="484.11" y2="2425.82" style="stroke:#000000;stroke-width:5.76"/>
	<text x="464.06" y="2460.85" style="font-family:'Helvetica';font-size:99.99px;fill:#000000" text-anchor="end">0.00</text>
	<line x1="524.08" y1="1294.96" x2="484.11" y2="1294.96" style="stroke:#000000;stroke-width:5.76"/>
	<text x="464.06" y="1329.99" style="font-family:'Helvetica';font-size:99.99px;fill:#000000" text-anchor="end">0.05</text>
	<line x1="524.08" y1="164.22" x2="484.11" y2="164.22" style="stroke:#000000;stroke-width:5.76"/>
	<text x="464.06" y="199.25" style="font-family:'Helvetica';font-size:99.99px;fill:#000000" text-anchor="end">0.10</text>
	<text x="190.71" y="1294.96" style="font-family:'Helvetica';font-size:99.99px;fill:#000000" transform="rotate(-90 190.71,1294.96)" text-anchor="middle">Cumulative mortality (%)</text>
	<line x1="524.08" y1="2489.19" x2="3859.02" y2="2489.19" style="stroke:#000000;stroke-width:5.76"/>
	<line x1="587.44" y1="2489.19" x2="587.44" y2="2529.16" style="stroke:#000000;stroke-width:5.76"/>
	<text x="587.44" y="2619.14" style="font-family:'Helvetica';font-size:99.99px;fill:#000000" text-anchor="middle">0</text>
	<line x1="1198.52" y1="2489.19" x2="1198.52" y2="2529.16" style="stroke:#000000;stroke-width:5.76"/>
	<text x="1198.52" y="2619.14" style="font-family:'Helvetica';font-size:99.99px;fill:#000000" text-anchor="middle">20</text>
	<line x1="1809.72" y1="2489.19" x2="1809.72" y2="2529.16" style="stroke:#000000;stroke-width:5.76"/>
	<text x="1809.72" y="2619.14" style="font-family:'Helvetica';font-size:99.99px;fill:#000000" text-anchor="middle">40</text>
	<line x1="2420.80" y1="2489.19" x2="2420.80" y2="2529.16" style="stroke:#000000;stroke-width:5.76"/>
	<text x="2420.80" y="2619.14" style="font-family:'Helvetica';font-size:99.99px;fill:#000000" text-anchor="middle">60</text>
	<line x1="3031.88" y1="2489.19" x2="3031.88" y2="2529.16" style="stroke:#000000;stroke-width:5.76"/>
	<text x="3031.88" y="2619.14" style="font-family:'Helvetica';font-size:99.99px;fill:#000000" text-anchor="middle">80</text>
	<line x1="3642.95" y1="2489.19" x2="3642.95" y2="2529.16" style="stroke:#000000;stroke-width:5.76"/>
	<text x="3642.95" y="2619.14" style="font-family:'Helvetica';font-size:99.99px;fill:#000000" text-anchor="middle">100</text>
	<text x="2191.61" y="2729.16" style="font-family:'Helvetica';font-size:99.99px;fill:#000000" text-anchor="middle">Days from 1 March 2020</text>
	<rect x="2218.84" y="135.39" width="1605.66" height="326.34" style="fill:#FFFFFF"/>
	<rect x="2221.72" y="138.27" width="1599.90" height="320.58" style="fill:none;stroke:#000000;stroke-width:5.76"/>
	<rect x="2262.03" y="178.58" width="374.34" height="99.99" style="fill:#FF3333;fill-opacity:0.25"/>
	<rect x="2266.35" y="182.90" width="365.70" height="91.35" style="fill:none;stroke:#FF0000;stroke-opacity:0.25;stroke-width:8.64"/>
	<rect x="2262.03" y="318.54" width="374.34" height="99.99" style="fill:#3333FF;fill-opacity:0.25"/>
	<rect x="2266.35" y="322.86" width="365.70" height="91.35" style="fill:none;stroke:#0000FF;stroke-opacity:0.25;stroke-width:8.64"/>
	<text x="2696.39" y="263.60" style="font-family:'Helvetica';font-size:99.99px;fill:#000000">Non-current NSAID use</text>
	<text x="2696.39" y="403.57" style="font-family:'Helvetica';font-size:99.99px;fill:#000000">Current NSAID use</text>
</svg>
