<?xml version="1.0" encoding="UTF-8" standalone="no"?>
<!-- This is a Stata 16.1 generated SVG file (http://www.stata.com) -->

<svg version="1.1" width="5.50in" height="4.00in" viewBox="0 0 3960 2880" xmlns="http://www.w3.org/2000/svg" xmlns:xlink="http://www.w3.org/1999/xlink">
	<desc>Stata Graph - Graph</desc>
	<rect x="0" y="0" width="3960" height="2880" style="fill:#EAF2F3;stroke:none"/>
	<rect x="0.00" y="0.00" width="3959.88" height="2880.00" style="fill:#EAF2F3"/>
	<rect x="2.88" y="2.88" width="3954.12" height="2874.24" style="fill:none;stroke:#EAF2F3;stroke-width:5.76"/>
	<rect x="559.10" y="100.86" width="3299.92" height="2388.33" style="fill:#FFFFFF"/>
	<rect x="561.98" y="103.74" width="3294.16" height="2382.57" style="fill:none;stroke:#FFFFFF;stroke-width:5.76"/>
	<line x1="559.10" y1="2425.82" x2="3859.02" y2="2425.82" style="stroke:#EAF2F3;stroke-width:8.64"/>
	<line x1="559.10" y1="1671.91" x2="3859.02" y2="1671.91" style="stroke:#EAF2F3;stroke-width:8.64"/>
	<line x1="559.10" y1="918.01" x2="3859.02" y2="918.01" style="stroke:#EAF2F3;stroke-width:8.64"/>
	<line x1="559.10" y1="164.22" x2="3859.02" y2="164.22" style="stroke:#EAF2F3;stroke-width:8.64"/>
	<defs>
		<path id="path_RRqTUVec" d="M622.46 918.01 L622.46 918.01 L652.66 918.01 L682.85 918.01 L713.17 918.01 L743.37 918.01 L773.56 918.01 L803.76 918.01 L834.08 918.01 L864.27 918.01 L894.47 918.13 L924.66 918.13 L954.86 918.13 L985.17 918.25 L1015.37 918.50 L1045.56 918.75 L1075.76 919.24 L1105.95 919.99 L1136.27 920.98 L1166.47 922.59 L1196.66 924.69 L1226.86 927.54 L1257.18 931.25 L1287.37 936.20 L1317.57 942.26 L1347.76 949.69 L1377.96 958.84 L1408.28 969.61 L1438.47 982.23 L1468.66 996.84 L1498.86 1013.42 L1529.06 1031.98 L1559.37 1052.53 L1589.57 1075.05 L1619.76 1099.43 L1649.96 1125.54 L1680.28 1153.14 L1710.47 1181.97 L1740.67 1212.05 L1770.86 1242.86 L1801.06 1274.17 L1831.38 1305.73 L1861.57 1337.28 L1891.77 1368.72 L1921.96 1399.66 L1952.16 1430.22 L1982.47 1460.17 L2012.67 1489.50 L2042.87 1517.96 L2073.06 1545.69 L2103.38 1572.66 L2133.57 1598.65 L2163.77 1623.77 L2193.96 1648.03 L2224.16 1671.42 L2254.48 1694.07 L2284.67 1715.72 L2314.87 1736.64 L2345.06 1756.81 L2375.26 1776.12 L2405.58 1794.80 L2435.77 1812.62 L2465.97 1829.82 L2496.16 1846.16 L2526.48 1861.88 L2556.68 1876.97 L2586.87 1891.33 L2617.07 1905.19 L2647.26 1918.31 L2677.58 1930.93 L2707.77 1942.81 L2737.97 1954.32 L2768.16 1965.21 L2798.36 1975.73 L2828.68 1985.63 L2858.87 1995.16 L2889.07 2004.32 L2919.26 2012.98 L2949.46 2021.27 L2979.78 2029.19 L3009.97 2036.74 L3040.17 2043.92 L3070.36 2050.85 L3100.68 2057.53 L3130.88 2063.84 L3161.07 2069.91 L3191.26 2075.72 L3221.46 2081.42 L3251.78 2086.74 L3281.97 2091.94 L3312.17 2097.01 L3342.36 2101.84 L3372.56 2106.54 L3402.88 2111.12 L3433.07 2115.45 L3463.27 2119.78 L3493.46 2123.86 L3523.78 2127.95 L3553.98 2131.91 L3584.17 2135.74 L3614.37 2139.58 L3644.56 2143.29 L3674.88 2147.01 L3705.07 2150.59 L3735.27 2154.18 L3765.47 2157.77 L3795.66 2161.24 L3795.66 420.89 L3765.47 422.25 L3735.27 423.73 L3705.07 425.09 L3674.88 426.58 L3644.56 428.06 L3614.37 429.55 L3584.17 431.03 L3553.98 432.64 L3523.78 434.25 L3493.46 435.86 L3463.27 437.47 L3433.07 439.20 L3402.88 440.94 L3372.56 442.79 L3342.36 444.65 L3312.17 446.63 L3281.97 448.61 L3251.78 450.71 L3221.46 452.82 L3191.26 455.04 L3161.07 457.39 L3130.88 459.87 L3100.68 462.34 L3070.36 465.07 L3040.17 467.79 L3009.97 470.76 L2979.78 473.73 L2949.46 476.95 L2919.26 480.17 L2889.07 483.63 L2858.87 487.34 L2828.68 491.06 L2798.36 495.14 L2768.16 499.22 L2737.97 503.68 L2707.77 508.26 L2677.58 513.08 L2647.26 518.03 L2617.07 523.36 L2586.87 528.80 L2556.68 534.62 L2526.48 540.56 L2496.16 546.87 L2465.97 553.43 L2435.77 560.36 L2405.58 567.41 L2375.26 574.84 L2345.06 582.63 L2314.87 590.68 L2284.67 599.09 L2254.48 607.76 L2224.16 616.79 L2193.96 626.07 L2163.77 635.85 L2133.57 645.87 L2103.38 656.27 L2073.06 667.03 L2042.87 678.05 L2012.67 689.43 L1982.47 701.19 L1952.16 713.19 L1921.96 725.32 L1891.77 737.82 L1861.57 750.32 L1831.38 762.94 L1801.06 775.57 L1770.86 788.06 L1740.67 800.44 L1710.47 812.44 L1680.28 823.95 L1649.96 834.97 L1619.76 845.36 L1589.57 855.14 L1559.37 864.17 L1529.06 872.34 L1498.86 879.77 L1468.66 886.45 L1438.47 892.27 L1408.28 897.34 L1377.96 901.67 L1347.76 905.26 L1317.57 908.23 L1287.37 910.70 L1257.18 912.68 L1226.86 914.17 L1196.66 915.28 L1166.47 916.15 L1136.27 916.77 L1105.95 917.26 L1075.76 917.51 L1045.56 917.76 L1015.37 917.88 L985.17 918.01 L954.86 918.01 L924.66 918.01 L894.47 918.01 L864.27 918.01 L834.08 918.01 L803.76 918.01 L773.56 918.01 L743.37 918.01 L713.17 918.01 L682.85 918.01 L652.66 918.01 L622.46 918.01 L622.46 918.01 Z" stroke-linejoin="round"/>
	</defs>
	<defs>
		<clipPath id="clipPath_OIrRACxp">
			<use xlink:href="#path_RRqTUVec"/>
		</clipPath>
	</defs>
	<use xlink:href="#path_RRqTUVec" style="stroke:none;fill:#FF3333;fill-opacity:0.25"/>
	<use xlink:href="#path_RRqTUVec" style="fill:none;stroke:#FF0000;stroke-opacity:0.25;stroke-width:17.28" clip-path="url(#clipPath_OIrRACxp)"/>
	<path d=" M622.46 918.13 L652.66 918.13 L682.85 918.13 L713.05 918.13 L743.24 918.13 L773.56 918.13 L803.76 918.13 L833.95 918.13 L864.15 918.13 L894.34 918.13 L924.66 918.13 L954.86 918.13 L985.05 918.13 L1015.25 918.25 L1045.56 918.38 L1075.76 918.50 L1105.95 918.62 L1136.15 919.00 L1166.34 919.49 L1196.66 920.11 L1226.86 920.98 L1257.05 922.09 L1287.25 923.45 L1317.44 925.31 L1347.76 927.54 L1377.96 930.26 L1408.15 933.48 L1438.35 937.31 L1468.66 941.64 L1498.86 946.72 L1529.06 952.29 L1559.25 958.47 L1589.44 965.16 L1619.76 972.46 L1649.96 980.38 L1680.15 988.55 L1710.35 997.33 L1740.54 1006.24 L1770.86 1015.52 L1801.06 1024.93 L1831.25 1034.33 L1861.45 1043.86 L1891.77 1053.27 L1921.96 1062.55 L1952.16 1071.71 L1982.35 1080.74 L2012.55 1089.53 L2042.87 1098.07 L2073.06 1106.48 L2103.26 1114.53 L2133.45 1122.32 L2163.64 1129.87 L2193.96 1137.17 L2224.16 1144.10 L2254.35 1150.91 L2284.55 1157.47 L2314.87 1163.78 L2345.06 1169.72 L2375.26 1175.54 L2405.45 1181.11 L2435.65 1186.55 L2465.97 1191.63 L2496.16 1196.58 L2526.36 1201.28 L2556.55 1205.86 L2586.75 1210.19 L2617.07 1214.27 L2647.26 1218.23 L2677.45 1222.07 L2707.65 1225.66 L2737.97 1229.00 L2768.16 1232.34 L2798.36 1235.43 L2828.55 1238.40 L2858.75 1241.25 L2889.07 1244.10 L2919.26 1246.70 L2949.46 1249.17 L2979.65 1251.52 L3009.85 1253.75 L3040.17 1255.98 L3070.36 1257.96 L3100.56 1260.06 L3130.75 1261.92 L3160.95 1263.77 L3191.26 1265.51 L3221.46 1267.12 L3251.66 1268.85 L3281.85 1270.33 L3312.17 1271.82 L3342.36 1273.30 L3372.56 1274.66 L3402.75 1276.03 L3432.95 1277.39 L3463.27 1278.62 L3493.46 1279.99 L3523.66 1281.10 L3553.85 1282.34 L3584.05 1283.45 L3614.37 1284.69 L3644.56 1285.80 L3674.76 1286.92 L3704.95 1287.91 L3735.27 1289.02 L3765.47 1290.13 L3795.66 1291.12" stroke-linejoin="round" style="fill:none;stroke:#FF0000;stroke-width:8.64"/>
	<line x1="559.10" y1="2489.19" x2="559.10" y2="100.86" style="stroke:#000000;stroke-width:5.76"/>
	<line x1="559.10" y1="2425.82" x2="519.13" y2="2425.82" style="stroke:#000000;stroke-width:5.76"/>
	<text x="499.08" y="2460.85" style="font-family:'Helvetica';font-size:99.99px;fill:#000000" text-anchor="end">-0.01</text>
	<line x1="559.10" y1="1671.91" x2="519.13" y2="1671.91" style="stroke:#000000;stroke-width:5.76"/>
	<text x="499.08" y="1706.94" style="font-family:'Helvetica';font-size:99.99px;fill:#000000" text-anchor="end">-0.01</text>
	<line x1="559.10" y1="918.01" x2="519.13" y2="918.01" style="stroke:#000000;stroke-width:5.76"/>
	<text x="499.08" y="953.03" style="font-family:'Helvetica';font-size:99.99px;fill:#000000" text-anchor="end">0.00</text>
	<line x1="559.10" y1="164.22" x2="519.13" y2="164.22" style="stroke:#000000;stroke-width:5.76"/>
	<text x="499.08" y="199.25" style="font-family:'Helvetica';font-size:99.99px;fill:#000000" text-anchor="end">0.01</text>
	<text x="190.71" y="1294.96" style="font-family:'Helvetica';font-size:99.99px;fill:#000000" transform="rotate(-90 190.71,1294.96)" text-anchor="middle">Difference in curves (%)</text>
	<line x1="559.10" y1="2489.19" x2="3859.02" y2="2489.19" style="stroke:#000000;stroke-width:5.76"/>
	<line x1="622.46" y1="2489.19" x2="622.46" y2="2529.16" style="stroke:#000000;stroke-width:5.76"/>
	<text x="622.46" y="2619.14" style="font-family:'Helvetica';font-size:99.99px;fill:#000000" text-anchor="middle">0</text>
	<line x1="1226.86" y1="2489.19" x2="1226.86" y2="2529.16" style="stroke:#000000;stroke-width:5.76"/>
	<text x="1226.86" y="2619.14" style="font-family:'Helvetica';font-size:99.99px;fill:#000000" text-anchor="middle">20</text>
	<line x1="1831.38" y1="2489.19" x2="1831.38" y2="2529.16" style="stroke:#000000;stroke-width:5.76"/>
	<text x="1831.38" y="2619.14" style="font-family:'Helvetica';font-size:99.99px;fill:#000000" text-anchor="middle">40</text>
	<line x1="2435.77" y1="2489.19" x2="2435.77" y2="2529.16" style="stroke:#000000;stroke-width:5.76"/>
	<text x="2435.77" y="2619.14" style="font-family:'Helvetica';font-size:99.99px;fill:#000000" text-anchor="middle">60</text>
	<line x1="3040.17" y1="2489.19" x2="3040.17" y2="2529.16" style="stroke:#000000;stroke-width:5.76"/>
	<text x="3040.17" y="2619.14" style="font-family:'Helvetica';font-size:99.99px;fill:#000000" text-anchor="middle">80</text>
	<line x1="3644.56" y1="2489.19" x2="3644.56" y2="2529.16" style="stroke:#000000;stroke-width:5.76"/>
	<text x="3644.56" y="2619.14" style="font-family:'Helvetica';font-size:99.99px;fill:#000000" text-anchor="middle">100</text>
	<text x="2209.06" y="2729.16" style="font-family:'Helvetica';font-size:99.99px;fill:#000000" text-anchor="middle">Days from 1 March 2020</text>
</svg>
