<?xml version="1.0" encoding="UTF-8" standalone="no"?>
<!-- This is a Stata 16.1 generated SVG file (http://www.stata.com) -->

<svg version="1.1" width="5.50in" height="4.00in" viewBox="0 0 3960 2880" xmlns="http://www.w3.org/2000/svg" xmlns:xlink="http://www.w3.org/1999/xlink">
	<desc>Stata Graph - Graph</desc>
	<rect x="0" y="0" width="3960" height="2880" style="fill:#EAF2F3;stroke:none"/>
	<rect x="0.00" y="0.00" width="3959.88" height="2880.00" style="fill:#FFFFFF"/>
	<rect x="2.88" y="2.88" width="3954.12" height="2874.24" style="fill:none;stroke:#EAF2F3;stroke-width:5.76"/>
	<rect x="1092.46" y="630.90" width="2748.36" height="1604.96" style="fill:#FFFFFF"/>
	<rect x="1095.34" y="633.78" width="2742.60" height="1599.20" style="fill:none;stroke:#FFFFFF;stroke-width:5.76"/>
	<line x1="1092.46" y1="2172.62" x2="3840.83" y2="2172.62" style="stroke:#EAF2F3;stroke-width:8.64"/>
	<line x1="1092.46" y1="1433.44" x2="3840.83" y2="1433.44" style="stroke:#EAF2F3;stroke-width:8.64"/>
	<line x1="1092.46" y1="694.26" x2="3840.83" y2="694.26" style="stroke:#EAF2F3;stroke-width:8.64"/>
	<path d=" M1155.83 2172.62 L1155.83 2172.62 L1155.83 2172.62 L1155.83 2172.62 L1155.83 2172.62 L1179.59 2172.62 L1179.59 2172.62 L1203.47 2172.62 L1203.47 2172.62 L1227.23 2172.62 L1227.23 2172.62 L1251.11 2172.62 L1251.11 2172.62 L1275.00 2172.62 L1275.00 2172.62 L1298.76 2172.62 L1298.76 2172.62 L1322.64 2172.62 L1322.64 2172.62 L1346.40 2172.62 L1346.40 2172.62 L1370.28 2172.62 L1370.28 2172.62 L1394.04 2172.62 L1394.04 2172.62 L1417.93 2172.62 L1417.93 2172.62 L1441.81 2172.62 L1441.81 2172.62 L1465.57 2172.62 L1465.57 2172.62 L1489.45 2172.62 L1489.45 2172.62 L1513.21 2172.62 L1513.21 2171.88 L1537.10 2171.88 L1537.10 2170.27 L1560.98 2170.27 L1560.98 2170.27 L1584.74 2170.27 L1584.74 2169.53 L1608.63 2169.53 L1608.63 2169.53 L1632.39 2169.53 L1632.39 2168.79 L1656.27 2168.79 L1656.27 2167.18 L1680.15 2167.18 L1680.15 2164.08 L1703.91 2164.08 L1703.91 2161.73 L1727.80 2161.73 L1727.80 2156.29 L1751.56 2156.29 L1751.56 2152.33 L1775.44 2152.33 L1775.44 2147.75 L1799.20 2147.75 L1799.20 2143.79 L1823.09 2143.79 L1823.09 2137.60 L1846.97 2137.60 L1846.97 2132.03 L1870.73 2132.03 L1870.73 2125.10 L1894.61 2125.10 L1894.61 2120.40 L1918.37 2120.40 L1918.37 2114.83 L1942.26 2114.83 L1942.26 2105.55 L1966.14 2105.55 L1966.14 2093.79 L1989.90 2093.79 L1989.90 2082.78 L2013.78 2082.78 L2013.78 2076.47 L2037.54 2076.47 L2037.54 2063.22 L2061.43 2063.22 L2061.43 2047.51 L2085.31 2047.51 L2085.31 2031.05 L2109.07 2031.05 L2109.07 2018.43 L2132.95 2018.43 L2132.95 2008.28 L2156.72 2008.28 L2156.72 1999.61 L2180.60 1999.61 L2180.60 1987.12 L2204.36 1987.12 L2204.36 1978.45 L2228.24 1978.45 L2228.24 1964.35 L2252.13 1964.35 L2252.13 1955.68 L2275.89 1955.68 L2275.89 1938.36 L2299.77 1938.36 L2299.77 1930.44 L2323.53 1930.44 L2323.53 1920.29 L2347.41 1920.29 L2347.41 1909.15 L2371.30 1909.15 L2371.30 1895.79 L2395.06 1895.79 L2395.06 1887.12 L2418.94 1887.12 L2418.94 1876.11 L2442.70 1876.11 L2442.70 1868.19 L2466.59 1868.19 L2466.59 1860.27 L2490.34 1860.27 L2490.34 1850.00 L2514.23 1850.00 L2514.23 1843.69 L2538.11 1843.69 L2538.11 1835.02 L2561.87 1835.02 L2561.87 1827.84 L2585.76 1827.84 L2585.76 1821.53 L2609.52 1821.53 L2609.52 1815.96 L2633.40 1815.96 L2633.40 1811.26 L2657.28 1811.26 L2657.28 1804.08 L2681.04 1804.08 L2681.04 1799.38 L2704.93 1799.38 L2704.93 1795.42 L2728.69 1795.42 L2728.69 1788.99 L2752.57 1788.99 L2752.57 1782.67 L2776.45 1782.67 L2776.45 1778.71 L2800.22 1778.71 L2800.22 1774.75 L2824.10 1774.75 L2824.10 1772.40 L2847.86 1772.40 L2847.86 1772.40 L2871.74 1772.40 L2871.74 1763.62 L2895.50 1763.62 L2895.50 1758.79 L2919.39 1758.79 L2919.39 1756.44 L2943.27 1756.44 L2943.27 1754.83 L2967.03 1754.83 L2967.03 1750.87 L2990.91 1750.87 L2990.91 1747.65 L3014.67 1747.65 L3014.67 1745.30 L3038.56 1745.30 L3038.56 1742.08 L3062.44 1742.08 L3062.44 1740.47 L3086.20 1740.47 L3086.20 1736.51 L3110.09 1736.51 L3110.09 1732.43 L3133.84 1732.43 L3133.84 1731.69 L3157.73 1731.69 L3157.73 1729.21 L3181.61 1729.21 L3181.61 1726.86 L3205.37 1726.86 L3205.37 1722.90 L3229.26 1722.90 L3229.26 1719.68 L3253.02 1719.68 L3253.02 1714.86 L3276.90 1714.86 L3276.90 1713.99 L3300.66 1713.99 L3300.66 1712.38 L3324.54 1712.38 L3324.54 1710.77 L3348.43 1710.77 L3348.43 1706.81 L3372.19 1706.81 L3372.19 1705.95 L3396.07 1705.95 L3396.07 1704.34 L3419.83 1704.34 L3419.83 1701.99 L3443.72 1701.99 L3443.72 1701.12 L3467.60 1701.12 L3467.60 1700.38 L3491.36 1700.38 L3491.36 1698.77 L3515.24 1698.77 L3515.24 1698.77 L3539.00 1698.77 L3539.00 1697.90 L3562.89 1697.90 L3562.89 1695.55 L3586.77 1695.55 L3586.77 1693.94 L3610.53 1693.94 L3610.53 1690.73 L3634.41 1690.73 L3634.41 1690.73 L3658.17 1690.73 L3658.17 1689.86" stroke-linejoin="round" style="fill:none;stroke:#1A476F;stroke-width:8.64"/>
	<path d=" M1155.83 2172.62 L1155.83 2172.62 L1155.83 2172.62 L1155.83 2172.62 L1155.83 2172.62 L1203.47 2172.62 L1203.47 2172.62 L1227.23 2172.62 L1227.23 2172.62 L1251.11 2172.62 L1251.11 2172.62 L1275.00 2172.62 L1275.00 2172.62 L1298.76 2172.62 L1298.76 2172.62 L1322.64 2172.62 L1322.64 2172.62 L1346.40 2172.62 L1346.40 2172.62 L1370.28 2172.62 L1370.28 2172.62 L1394.04 2172.62 L1394.04 2172.62 L1417.93 2172.62 L1417.93 2172.62 L1441.81 2172.62 L1441.81 2172.62 L1465.57 2172.62 L1465.57 2172.62 L1489.45 2172.62 L1489.45 2172.62 L1513.21 2172.62 L1513.21 2172.62 L1537.10 2172.62 L1537.10 2172.62 L1560.98 2172.62 L1560.98 2172.62 L1584.74 2172.62 L1584.74 2172.62 L1608.63 2172.62 L1608.63 2172.62 L1632.39 2172.62 L1632.39 2172.62 L1656.27 2172.62 L1656.27 2172.62 L1680.15 2172.62 L1680.15 2172.62 L1703.91 2172.62 L1703.91 2172.62 L1727.80 2172.62 L1727.80 2172.62 L1751.56 2172.62 L1751.56 2143.42 L1775.44 2143.42 L1775.44 2143.42 L1799.20 2143.42 L1799.20 2143.42 L1823.09 2143.42 L1823.09 2114.21 L1846.97 2114.21 L1846.97 2055.80 L1870.73 2055.80 L1870.73 2026.47 L1894.61 2026.47 L1894.61 1909.65 L1918.37 1909.65 L1918.37 1880.44 L1942.26 1880.44 L1942.26 1880.44 L1966.14 1880.44 L1966.14 1851.11 L1989.90 1851.11 L1989.90 1821.90 L2013.78 1821.90 L2013.78 1792.70 L2037.54 1792.70 L2037.54 1763.49 L2061.43 1763.49 L2061.43 1704.96 L2085.31 1704.96 L2085.31 1675.75 L2109.07 1675.75 L2109.07 1646.55 L2132.95 1646.55 L2132.95 1617.22 L2156.72 1617.22 L2156.72 1588.01 L2180.60 1588.01 L2180.60 1558.80 L2204.36 1558.80 L2204.36 1529.47 L2228.24 1529.47 L2228.24 1500.27 L2252.13 1500.27 L2252.13 1500.27 L2275.89 1500.27 L2275.89 1500.27 L2299.77 1500.27 L2299.77 1471.06 L2323.53 1471.06 L2323.53 1441.73 L2347.41 1441.73 L2347.41 1441.73 L2371.30 1441.73 L2371.30 1383.20 L2395.06 1383.20 L2395.06 1383.20 L2418.94 1383.20 L2418.94 1353.99 L2442.70 1353.99 L2442.70 1353.99 L2466.59 1353.99 L2466.59 1353.99 L2490.34 1353.99 L2490.34 1353.99 L2514.23 1353.99 L2514.23 1295.46 L2538.11 1295.46 L2538.11 1236.92 L2561.87 1236.92 L2561.87 1207.59 L2585.76 1207.59 L2585.76 1207.59 L2609.52 1207.59 L2609.52 1149.05 L2633.40 1149.05 L2633.40 1149.05 L2657.28 1149.05 L2657.28 1149.05 L2681.04 1149.05 L2681.04 1119.85 L2704.93 1119.85 L2704.93 1119.85 L2728.69 1119.85 L2728.69 1119.85 L2752.57 1119.85 L2752.57 1119.85 L2800.22 1119.85 L2800.22 1090.52 L2824.10 1090.52 L2824.10 1090.52 L2871.74 1090.52 L2871.74 1031.98 L2895.50 1031.98 L2895.50 1002.65 L2943.27 1002.65 L2943.27 1002.65 L2967.03 1002.65 L2967.03 1002.65 L2990.91 1002.65 L2990.91 1002.65 L3014.67 1002.65 L3014.67 973.45 L3038.56 973.45 L3038.56 944.12 L3062.44 944.12 L3062.44 914.79 L3086.20 914.79 L3086.20 885.58 L3110.09 885.58 L3110.09 885.58 L3133.84 885.58 L3133.84 885.58 L3157.73 885.58 L3157.73 885.58 L3181.61 885.58 L3181.61 885.58 L3205.37 885.58 L3205.37 885.58 L3229.26 885.58 L3229.26 885.58 L3253.02 885.58 L3253.02 885.58 L3276.90 885.58 L3276.90 885.58 L3300.66 885.58 L3300.66 885.58 L3348.43 885.58 L3348.43 885.58 L3372.19 885.58 L3372.19 885.58 L3396.07 885.58 L3396.07 856.25 L3443.72 856.25 L3443.72 826.92 L3467.60 826.92 L3467.60 826.92 L3491.36 826.92 L3491.36 826.92 L3515.24 826.92 L3515.24 826.92 L3539.00 826.92 L3539.00 826.92 L3562.89 826.92 L3562.89 826.92 L3586.77 826.92 L3586.77 826.92 L3610.53 826.92 L3610.53 826.92 L3634.41 826.92 L3634.41 826.92 L3658.17 826.92 L3658.17 826.92" stroke-linejoin="round" style="fill:none;stroke:#90353B;stroke-width:8.64"/>
	<path d=" M1155.83 2172.62 L1155.83 2172.62 L1155.83 2172.62 L1155.83 2172.62 L1155.83 2172.62 L1179.59 2172.62 L1179.59 2172.62 L1203.47 2172.62 L1203.47 2172.62 L1227.23 2172.62 L1227.23 2172.62 L1251.11 2172.62 L1251.11 2172.62 L1275.00 2172.62 L1275.00 2172.62 L1298.76 2172.62 L1298.76 2172.62 L1322.64 2172.62 L1322.64 2172.62 L1346.40 2172.62 L1346.40 2172.62 L1370.28 2172.62 L1370.28 2172.62 L1394.04 2172.62 L1394.04 2172.62 L1417.93 2172.62 L1417.93 2172.62 L1441.81 2172.62 L1441.81 2169.53 L1465.57 2169.53 L1465.57 2169.53 L1489.45 2169.53 L1489.45 2169.53 L1513.21 2169.53 L1513.21 2169.53 L1537.10 2169.53 L1537.10 2169.53 L1560.98 2169.53 L1560.98 2169.53 L1584.74 2169.53 L1584.74 2169.53 L1608.63 2169.53 L1608.63 2169.53 L1632.39 2169.53 L1632.39 2169.53 L1656.27 2169.53 L1656.27 2166.56 L1680.15 2166.56 L1680.15 2163.47 L1703.91 2163.47 L1703.91 2157.40 L1727.80 2157.40 L1727.80 2154.31 L1751.56 2154.31 L1751.56 2154.31 L1775.44 2154.31 L1775.44 2145.27 L1799.20 2145.27 L1799.20 2145.27 L1823.09 2145.27 L1823.09 2142.18 L1846.97 2142.18 L1846.97 2130.05 L1870.73 2130.05 L1870.73 2123.86 L1894.61 2123.86 L1894.61 2111.74 L1918.37 2111.74 L1918.37 2108.64 L1942.26 2108.64 L1942.26 2087.36 L1966.14 2087.36 L1966.14 2081.29 L1989.90 2081.29 L1989.90 2069.04 L2013.78 2069.04 L2013.78 2062.98 L2037.54 2062.98 L2037.54 2047.76 L2061.43 2047.76 L2061.43 2029.44 L2085.31 2029.44 L2085.31 1999.00 L2109.07 1999.00 L2109.07 1980.80 L2132.95 1980.80 L2132.95 1965.58 L2156.72 1965.58 L2156.72 1947.27 L2180.60 1947.27 L2180.60 1928.95 L2204.36 1928.95 L2204.36 1916.82 L2228.24 1916.82 L2228.24 1910.76 L2252.13 1910.76 L2252.13 1895.54 L2275.89 1895.54 L2275.89 1886.38 L2299.77 1886.38 L2299.77 1874.13 L2323.53 1874.13 L2323.53 1864.97 L2347.41 1864.97 L2347.41 1849.75 L2371.30 1849.75 L2371.30 1840.72 L2395.06 1840.72 L2395.06 1834.53 L2418.94 1834.53 L2418.94 1822.40 L2442.70 1822.40 L2442.70 1810.15 L2466.59 1810.15 L2466.59 1801.11 L2490.34 1801.11 L2490.34 1791.96 L2514.23 1791.96 L2514.23 1770.55 L2538.11 1770.55 L2538.11 1761.51 L2561.87 1761.51 L2561.87 1758.42 L2585.76 1758.42 L2585.76 1749.26 L2609.52 1749.26 L2609.52 1746.17 L2633.40 1746.17 L2633.40 1743.20 L2657.28 1743.20 L2657.28 1740.10 L2681.04 1740.10 L2681.04 1734.04 L2704.93 1734.04 L2704.93 1721.79 L2728.69 1721.79 L2728.69 1718.82 L2752.57 1718.82 L2752.57 1715.72 L2776.45 1715.72 L2776.45 1715.72 L2800.22 1715.72 L2800.22 1709.66 L2824.10 1709.66 L2824.10 1709.66 L2847.86 1709.66 L2847.86 1709.66 L2871.74 1709.66 L2871.74 1706.57 L2895.50 1706.57 L2895.50 1706.57 L2919.39 1706.57 L2919.39 1703.60 L2943.27 1703.60 L2943.27 1703.60 L2967.03 1703.60 L2967.03 1700.50 L2990.91 1700.50 L2990.91 1697.41 L3014.67 1697.41 L3014.67 1694.44 L3038.56 1694.44 L3038.56 1694.44 L3062.44 1694.44 L3062.44 1691.34 L3086.20 1691.34 L3086.20 1688.37 L3110.09 1688.37 L3110.09 1688.37 L3133.84 1688.37 L3133.84 1688.37 L3157.73 1688.37 L3157.73 1688.37 L3181.61 1688.37 L3181.61 1679.22 L3205.37 1679.22 L3205.37 1673.03 L3229.26 1673.03 L3229.26 1673.03 L3253.02 1673.03 L3253.02 1673.03 L3276.90 1673.03 L3276.90 1666.96 L3300.66 1666.96 L3300.66 1663.99 L3324.54 1663.99 L3324.54 1663.99 L3348.43 1663.99 L3348.43 1660.90 L3372.19 1660.90 L3372.19 1660.90 L3396.07 1660.90 L3396.07 1657.81 L3419.83 1657.81 L3419.83 1657.81 L3443.72 1657.81 L3443.72 1657.81 L3467.60 1657.81 L3467.60 1654.84 L3491.36 1654.84 L3491.36 1654.84 L3515.24 1654.84 L3515.24 1654.84 L3539.00 1654.84 L3539.00 1654.84 L3562.89 1654.84 L3562.89 1654.84 L3586.77 1654.84 L3586.77 1654.84 L3610.53 1654.84 L3610.53 1645.68 L3634.41 1645.68 L3634.41 1645.68 L3658.17 1645.68 L3658.17 1642.59" stroke-linejoin="round" style="fill:none;stroke:#55752F;stroke-width:8.64"/>
	<line x1="1092.46" y1="2235.86" x2="1092.46" y2="630.90" style="stroke:#000000;stroke-width:5.76"/>
	<line x1="1092.46" y1="2172.62" x2="1052.49" y2="2172.62" style="stroke:#000000;stroke-width:5.76"/>
	<text x="1032.45" y="2200.63" style="font-family:'Helvetica';font-size:79.94px;fill:#000000" text-anchor="end">0.0000</text>
	<line x1="1092.46" y1="1433.44" x2="1052.49" y2="1433.44" style="stroke:#000000;stroke-width:5.76"/>
	<text x="1032.45" y="1461.45" style="font-family:'Helvetica';font-size:79.94px;fill:#000000" text-anchor="end">0.0005</text>
	<line x1="1092.46" y1="694.26" x2="1052.49" y2="694.26" style="stroke:#000000;stroke-width:5.76"/>
	<text x="1032.45" y="722.27" style="font-family:'Helvetica';font-size:79.94px;fill:#000000" text-anchor="end">0.0010</text>
	<text x="1155.83" y="2747.83" style="font-family:'Helvetica';font-size:60.02px;fill:#000000" text-anchor="middle">485735</text>
	<text x="1632.51" y="2747.83" style="font-family:'Helvetica';font-size:60.02px;fill:#000000" text-anchor="middle">485573</text>
	<text x="2109.20" y="2747.83" style="font-family:'Helvetica';font-size:60.02px;fill:#000000" text-anchor="middle">485331</text>
	<text x="2585.76" y="2747.83" style="font-family:'Helvetica';font-size:60.02px;fill:#000000" text-anchor="middle">485090</text>
	<text x="3062.44" y="2747.83" style="font-family:'Helvetica';font-size:60.02px;fill:#000000" text-anchor="middle">484947</text>
	<text x="3539.13" y="2747.83" style="font-family:'Helvetica';font-size:60.02px;fill:#000000" text-anchor="middle">484791</text>
	<text x="1024.77" y="2747.83" style="font-family:'Helvetica';font-size:60.02px;fill:#000000" text-anchor="end">Other NSAIDs</text>
	<text x="1155.83" y="2674.44" style="font-family:'Helvetica';font-size:60.02px;fill:#000000" text-anchor="middle">50688</text>
	<text x="1632.51" y="2674.44" style="font-family:'Helvetica';font-size:60.02px;fill:#000000" text-anchor="middle">50621</text>
	<text x="2109.20" y="2674.44" style="font-family:'Helvetica';font-size:60.02px;fill:#000000" text-anchor="middle">50538</text>
	<text x="2585.76" y="2674.44" style="font-family:'Helvetica';font-size:60.02px;fill:#000000" text-anchor="middle">50473</text>
	<text x="3062.44" y="2674.44" style="font-family:'Helvetica';font-size:60.02px;fill:#000000" text-anchor="middle">50426</text>
	<text x="3539.13" y="2674.44" style="font-family:'Helvetica';font-size:60.02px;fill:#000000" text-anchor="middle">50376</text>
	<text x="1024.77" y="2674.44" style="font-family:'Helvetica';font-size:60.02px;fill:#000000" text-anchor="end">Ibuprofen</text>
	<text x="1155.83" y="2601.18" style="font-family:'Helvetica';font-size:60.02px;fill:#000000" text-anchor="middle">1927284</text>
	<text x="1632.51" y="2601.18" style="font-family:'Helvetica';font-size:60.02px;fill:#000000" text-anchor="middle">1899287</text>
	<text x="2109.20" y="2601.18" style="font-family:'Helvetica';font-size:60.02px;fill:#000000" text-anchor="middle">1883440</text>
	<text x="2585.76" y="2601.18" style="font-family:'Helvetica';font-size:60.02px;fill:#000000" text-anchor="middle">1866767</text>
	<text x="3062.44" y="2601.18" style="font-family:'Helvetica';font-size:60.02px;fill:#000000" text-anchor="middle">1848969</text>
	<text x="3539.13" y="2601.18" style="font-family:'Helvetica';font-size:60.02px;fill:#000000" text-anchor="middle">1831980</text>
	<text x="1024.77" y="2601.18" style="font-family:'Helvetica';font-size:60.02px;fill:#000000" text-anchor="end">Non-current exposure to NSAIDs</text>
	<text x="1024.77" y="2527.80" style="font-family:'Helvetica';font-size:60.02px;fill:#000000" text-anchor="end">Number at risk</text>
	<line x1="1092.46" y1="2235.86" x2="3840.83" y2="2235.86" style="stroke:#000000;stroke-width:5.76"/>
	<line x1="1155.83" y1="2235.86" x2="1155.83" y2="2275.96" style="stroke:#000000;stroke-width:5.76"/>
	<text x="1155.83" y="2351.78" style="font-family:'Helvetica';font-size:79.94px;fill:#000000" text-anchor="middle">0</text>
	<line x1="1632.51" y1="2235.86" x2="1632.51" y2="2275.96" style="stroke:#000000;stroke-width:5.76"/>
	<text x="1632.51" y="2351.78" style="font-family:'Helvetica';font-size:79.94px;fill:#000000" text-anchor="middle">20</text>
	<line x1="2109.20" y1="2235.86" x2="2109.20" y2="2275.96" style="stroke:#000000;stroke-width:5.76"/>
	<text x="2109.20" y="2351.78" style="font-family:'Helvetica';font-size:79.94px;fill:#000000" text-anchor="middle">40</text>
	<line x1="2585.76" y1="2235.86" x2="2585.76" y2="2275.96" style="stroke:#000000;stroke-width:5.76"/>
	<text x="2585.76" y="2351.78" style="font-family:'Helvetica';font-size:79.94px;fill:#000000" text-anchor="middle">60</text>
	<line x1="3062.44" y1="2235.86" x2="3062.44" y2="2275.96" style="stroke:#000000;stroke-width:5.76"/>
	<text x="3062.44" y="2351.78" style="font-family:'Helvetica';font-size:79.94px;fill:#000000" text-anchor="middle">80</text>
	<line x1="3539.13" y1="2235.86" x2="3539.13" y2="2275.96" style="stroke:#000000;stroke-width:5.76"/>
	<text x="3539.13" y="2351.78" style="font-family:'Helvetica';font-size:79.94px;fill:#000000" text-anchor="middle">100</text>
	<text x="2466.59" y="2441.87" style="font-family:'Helvetica';font-size:79.94px;fill:#000000" text-anchor="middle">Days since 1 Mar 2020</text>
	<rect x="1335.51" y="269.91" width="2262.27" height="326.46" style="fill:#FFFFFF"/>
	<rect x="1338.39" y="272.79" width="2256.51" height="320.70" style="fill:none;stroke:#EAF2F3;stroke-width:5.76"/>
	<line x1="1378.70" y1="363.09" x2="1753.04" y2="363.09" style="stroke:#1A476F;stroke-width:8.64"/>
	<line x1="2859.49" y1="363.09" x2="3233.84" y2="363.09" style="stroke:#90353B;stroke-width:8.64"/>
	<line x1="1378.70" y1="503.06" x2="1753.04" y2="503.06" style="stroke:#55752F;stroke-width:8.64"/>
	<text x="1813.06" y="384.13" style="font-family:'Helvetica';font-size:60.02px;fill:#000000">Non-current exposure to NSAIDs</text>
	<text x="3293.85" y="384.13" style="font-family:'Helvetica';font-size:60.02px;fill:#000000">Ibuprofen</text>
	<text x="1813.06" y="524.10" style="font-family:'Helvetica';font-size:60.02px;fill:#000000">Other NSAIDs</text>
	<text x="1746.24" y="187.99" style="font-family:'Helvetica';font-size:99.99px;fill:#1E2D53">Time to death, nsaid population</text>
</svg>
