<?xml version="1.0" encoding="UTF-8" standalone="no"?>
<!-- This is a Stata 16.1 generated SVG file (http://www.stata.com) -->

<svg version="1.1" width="5.50in" height="4.00in" viewBox="0 0 3960 2880" xmlns="http://www.w3.org/2000/svg" xmlns:xlink="http://www.w3.org/1999/xlink">
	<desc>Stata Graph - Graph</desc>
	<rect x="0" y="0" width="3960" height="2880" style="fill:#EAF2F3;stroke:none"/>
	<rect x="0.00" y="0.00" width="3959.88" height="2880.00" style="fill:#FFFFFF"/>
	<rect x="2.88" y="2.88" width="3954.12" height="2874.24" style="fill:none;stroke:#EAF2F3;stroke-width:5.76"/>
	<rect x="1064.74" y="490.93" width="2776.58" height="1818.32" style="fill:#FFFFFF"/>
	<rect x="1067.62" y="493.81" width="2770.82" height="1812.56" style="fill:none;stroke:#FFFFFF;stroke-width:5.76"/>
	<line x1="1064.74" y1="2245.89" x2="3841.32" y2="2245.89" style="stroke:#EAF2F3;stroke-width:8.64"/>
	<line x1="1064.74" y1="1400.03" x2="3841.32" y2="1400.03" style="stroke:#EAF2F3;stroke-width:8.64"/>
	<line x1="1064.74" y1="554.29" x2="3841.32" y2="554.29" style="stroke:#EAF2F3;stroke-width:8.64"/>
	<path d=" M1127.98 2246.01 L1127.98 2246.01 L1127.98 2246.01 L1152.11 2246.01 L1152.11 2246.01 L1176.24 2246.01 L1176.24 2246.01 L1200.25 2246.01 L1200.25 2246.01 L1224.38 2246.01 L1224.38 2246.01 L1248.51 2246.01 L1248.51 2246.01 L1272.52 2246.01 L1272.52 2246.01 L1296.65 2246.01 L1296.65 2246.01 L1320.78 2246.01 L1320.78 2246.01 L1344.79 2246.01 L1344.79 2246.01 L1368.92 2246.01 L1368.92 2246.01 L1393.05 2246.01 L1393.05 2246.01 L1417.06 2246.01 L1417.06 2246.01 L1441.19 2246.01 L1441.19 2246.01 L1465.32 2246.01 L1465.32 2246.01 L1489.33 2246.01 L1489.33 2245.02 L1513.46 2245.02 L1513.46 2243.29 L1537.59 2243.29 L1537.59 2243.29 L1561.60 2243.29 L1561.60 2242.42 L1585.73 2242.42 L1585.73 2242.42 L1609.86 2242.42 L1609.86 2241.55 L1633.87 2241.55 L1633.87 2239.70 L1658.00 2239.70 L1658.00 2236.11 L1682.13 2236.11 L1682.13 2233.51 L1706.14 2233.51 L1706.14 2227.20 L1730.27 2227.20 L1730.27 2222.74 L1754.40 2222.74 L1754.40 2217.42 L1778.41 2217.42 L1778.41 2212.97 L1802.54 2212.97 L1802.54 2205.79 L1826.67 2205.79 L1826.67 2199.60 L1850.68 2199.60 L1850.68 2191.56 L1874.81 2191.56 L1874.81 2186.11 L1898.94 2186.11 L1898.94 2179.92 L1922.95 2179.92 L1922.95 2169.16 L1947.08 2169.16 L1947.08 2155.67 L1971.21 2155.67 L1971.21 2143.17 L1995.22 2143.17 L1995.22 2135.99 L2019.35 2135.99 L2019.35 2120.77 L2043.48 2120.77 L2043.48 2102.83 L2067.49 2102.83 L2067.49 2083.89 L2091.62 2083.89 L2091.62 2069.54 L2115.75 2069.54 L2115.75 2057.90 L2139.76 2057.90 L2139.76 2048.00 L2163.89 2048.00 L2163.89 2033.65 L2188.02 2033.65 L2188.02 2023.75 L2212.03 2023.75 L2212.03 2007.54 L2236.16 2007.54 L2236.16 1997.63 L2260.29 1997.63 L2260.29 1977.83 L2284.30 1977.83 L2284.30 1968.80 L2308.43 1968.80 L2308.43 1957.17 L2332.56 1957.17 L2332.56 1944.54 L2356.57 1944.54 L2356.57 1929.20 L2380.70 1929.20 L2380.70 1919.30 L2404.83 1919.30 L2404.83 1906.68 L2428.84 1906.68 L2428.84 1897.64 L2452.97 1897.64 L2452.97 1888.61 L2477.10 1888.61 L2477.10 1876.85 L2501.11 1876.85 L2501.11 1869.55 L2525.24 1869.55 L2525.24 1859.65 L2549.37 1859.65 L2549.37 1851.48 L2573.38 1851.48 L2573.38 1844.18 L2597.51 1844.18 L2597.51 1837.87 L2621.64 1837.87 L2621.64 1832.42 L2645.65 1832.42 L2645.65 1824.26 L2669.78 1824.26 L2669.78 1818.81 L2693.91 1818.81 L2693.91 1814.23 L2717.92 1814.23 L2717.92 1807.05 L2742.05 1807.05 L2742.05 1799.75 L2766.18 1799.75 L2766.18 1795.17 L2790.19 1795.17 L2790.19 1790.59 L2814.32 1790.59 L2814.32 1787.87 L2838.45 1787.87 L2838.45 1787.87 L2862.46 1787.87 L2862.46 1777.85 L2886.59 1777.85 L2886.59 1772.40 L2910.72 1772.40 L2910.72 1769.68 L2934.73 1769.68 L2934.73 1767.82 L2958.86 1767.82 L2958.86 1763.25 L2982.99 1763.25 L2982.99 1759.66 L3007.00 1759.66 L3007.00 1756.93 L3031.13 1756.93 L3031.13 1753.22 L3055.14 1753.22 L3055.14 1751.49 L3079.27 1751.49 L3079.27 1746.91 L3103.40 1746.91 L3103.40 1742.33 L3127.41 1742.33 L3127.41 1741.34 L3151.54 1741.34 L3151.54 1738.62 L3175.67 1738.62 L3175.67 1735.90 L3199.68 1735.90 L3199.68 1731.32 L3223.81 1731.32 L3223.81 1727.60 L3247.94 1727.60 L3247.94 1722.16 L3271.95 1722.16 L3271.95 1721.17 L3296.08 1721.17 L3296.08 1719.31 L3320.21 1719.31 L3320.21 1717.46 L3344.22 1717.46 L3344.22 1712.88 L3368.35 1712.88 L3368.35 1712.01 L3392.48 1712.01 L3392.48 1710.15 L3416.49 1710.15 L3416.49 1707.43 L3440.62 1707.43 L3440.62 1706.44 L3464.75 1706.44 L3464.75 1705.58 L3488.76 1705.58 L3488.76 1703.72 L3512.89 1703.72 L3512.89 1703.72 L3537.02 1703.72 L3537.02 1702.73 L3561.03 1702.73 L3561.03 1700.01 L3585.16 1700.01 L3585.16 1698.15 L3609.29 1698.15 L3609.29 1694.44 L3633.30 1694.44 L3633.30 1694.44 L3657.43 1694.44 L3657.43 1693.57" stroke-linejoin="round" style="fill:none;stroke:#1A476F;stroke-width:8.64"/>
	<path d=" M1127.98 2246.01 L1127.98 2246.01 L1127.98 2246.01 L1152.11 2246.01 L1152.11 2246.01 L1176.24 2246.01 L1176.24 2246.01 L1200.25 2246.01 L1200.25 2246.01 L1224.38 2246.01 L1224.38 2246.01 L1248.51 2246.01 L1248.51 2246.01 L1272.52 2246.01 L1272.52 2246.01 L1296.65 2246.01 L1296.65 2246.01 L1320.78 2246.01 L1320.78 2246.01 L1344.79 2246.01 L1344.79 2246.01 L1368.92 2246.01 L1368.92 2246.01 L1393.05 2246.01 L1393.05 2246.01 L1417.06 2246.01 L1417.06 2242.79 L1441.19 2242.79 L1441.19 2242.79 L1465.32 2242.79 L1465.32 2242.79 L1489.33 2242.79 L1489.33 2242.79 L1513.46 2242.79 L1513.46 2242.79 L1537.59 2242.79 L1537.59 2242.79 L1561.60 2242.79 L1561.60 2242.79 L1585.73 2242.79 L1585.73 2242.79 L1609.86 2242.79 L1609.86 2242.79 L1633.87 2242.79 L1633.87 2239.70 L1658.00 2239.70 L1658.00 2236.48 L1682.13 2236.48 L1682.13 2230.17 L1706.14 2230.17 L1706.14 2227.07 L1730.27 2227.07 L1730.27 2223.86 L1754.40 2223.86 L1754.40 2214.45 L1778.41 2214.45 L1778.41 2214.45 L1802.54 2214.45 L1802.54 2208.14 L1826.67 2208.14 L1826.67 2189.21 L1850.68 2189.21 L1850.68 2179.68 L1874.81 2179.68 L1874.81 2154.43 L1898.94 2154.43 L1898.94 2148.12 L1922.95 2148.12 L1922.95 2126.09 L1947.08 2126.09 L1947.08 2116.56 L1971.21 2116.56 L1971.21 2100.85 L1995.22 2100.85 L1995.22 2091.32 L2019.35 2091.32 L2019.35 2072.38 L2043.48 2072.38 L2043.48 2047.14 L2067.49 2047.14 L2067.49 2012.36 L2091.62 2012.36 L2091.62 1990.33 L2115.75 1990.33 L2115.75 1971.40 L2139.76 1971.40 L2139.76 1949.25 L2163.89 1949.25 L2163.89 1927.22 L2188.02 1927.22 L2188.02 1911.38 L2212.03 1911.38 L2212.03 1901.97 L2236.16 1901.97 L2236.16 1886.13 L2260.29 1886.13 L2260.29 1876.73 L2284.30 1876.73 L2284.30 1860.89 L2308.43 1860.89 L2308.43 1848.26 L2332.56 1848.26 L2332.56 1832.55 L2356.57 1832.55 L2356.57 1816.71 L2380.70 1816.71 L2380.70 1810.40 L2404.83 1810.40 L2404.83 1794.55 L2428.84 1794.55 L2428.84 1781.93 L2452.97 1781.93 L2452.97 1772.53 L2477.10 1772.53 L2477.10 1763.00 L2501.11 1763.00 L2501.11 1734.66 L2525.24 1734.66 L2525.24 1718.82 L2549.37 1718.82 L2549.37 1712.51 L2573.38 1712.51 L2573.38 1703.10 L2597.51 1703.10 L2597.51 1693.57 L2621.64 1693.57 L2621.64 1690.35 L2645.65 1690.35 L2645.65 1687.26 L2669.78 1687.26 L2669.78 1677.73 L2693.91 1677.73 L2693.91 1665.11 L2717.92 1665.11 L2717.92 1662.01 L2742.05 1662.01 L2742.05 1658.80 L2766.18 1658.80 L2766.18 1658.80 L2790.19 1658.80 L2790.19 1649.39 L2814.32 1649.39 L2814.32 1649.39 L2838.45 1649.39 L2838.45 1649.39 L2862.46 1649.39 L2862.46 1639.86 L2886.59 1639.86 L2886.59 1636.77 L2910.72 1636.77 L2910.72 1633.55 L2934.73 1633.55 L2934.73 1633.55 L2958.86 1633.55 L2958.86 1630.46 L2982.99 1630.46 L2982.99 1627.24 L3007.00 1627.24 L3007.00 1620.93 L3031.13 1620.93 L3031.13 1617.71 L3055.14 1617.71 L3055.14 1611.40 L3079.27 1611.40 L3079.27 1605.09 L3103.40 1605.09 L3103.40 1605.09 L3127.41 1605.09 L3127.41 1605.09 L3151.54 1605.09 L3151.54 1605.09 L3175.67 1605.09 L3175.67 1595.68 L3199.68 1595.68 L3199.68 1589.37 L3223.81 1589.37 L3223.81 1589.37 L3247.94 1589.37 L3247.94 1589.37 L3271.95 1589.37 L3271.95 1583.06 L3296.08 1583.06 L3296.08 1579.84 L3320.21 1579.84 L3320.21 1579.84 L3344.22 1579.84 L3344.22 1576.75 L3368.35 1576.75 L3368.35 1576.75 L3392.48 1576.75 L3392.48 1570.44 L3416.49 1570.44 L3416.49 1570.44 L3440.62 1570.44 L3440.62 1567.22 L3464.75 1567.22 L3464.75 1564.13 L3488.76 1564.13 L3488.76 1564.13 L3512.89 1564.13 L3512.89 1564.13 L3537.02 1564.13 L3537.02 1564.13 L3561.03 1564.13 L3561.03 1564.13 L3585.16 1564.13 L3585.16 1564.13 L3609.29 1564.13 L3609.29 1554.60 L3633.30 1554.60 L3633.30 1554.60 L3657.43 1554.60 L3657.43 1551.38" stroke-linejoin="round" style="fill:none;stroke:#90353B;stroke-width:8.64"/>
	<line x1="1064.74" y1="2309.25" x2="1064.74" y2="490.93" style="stroke:#000000;stroke-width:5.76"/>
	<line x1="1064.74" y1="2245.89" x2="1024.77" y2="2245.89" style="stroke:#000000;stroke-width:5.76"/>
	<text x="1004.73" y="2273.90" style="font-family:'Helvetica';font-size:79.94px;fill:#000000" text-anchor="end">0.0000</text>
	<line x1="1064.74" y1="1400.03" x2="1024.77" y2="1400.03" style="stroke:#000000;stroke-width:5.76"/>
	<text x="1004.73" y="1428.04" style="font-family:'Helvetica';font-size:79.94px;fill:#000000" text-anchor="end">0.0005</text>
	<line x1="1064.74" y1="554.29" x2="1024.77" y2="554.29" style="stroke:#000000;stroke-width:5.76"/>
	<text x="1004.73" y="582.31" style="font-family:'Helvetica';font-size:79.94px;fill:#000000" text-anchor="end">0.0010</text>
	<text x="1128.11" y="2747.83" style="font-family:'Helvetica';font-size:60.02px;fill:#000000" text-anchor="middle">536423</text>
	<text x="1609.86" y="2747.83" style="font-family:'Helvetica';font-size:60.02px;fill:#000000" text-anchor="middle">536194</text>
	<text x="2091.62" y="2747.83" style="font-family:'Helvetica';font-size:60.02px;fill:#000000" text-anchor="middle">535869</text>
	<text x="2573.51" y="2747.83" style="font-family:'Helvetica';font-size:60.02px;fill:#000000" text-anchor="middle">535563</text>
	<text x="3055.26" y="2747.83" style="font-family:'Helvetica';font-size:60.02px;fill:#000000" text-anchor="middle">535373</text>
	<text x="3537.02" y="2747.83" style="font-family:'Helvetica';font-size:60.02px;fill:#000000" text-anchor="middle">535167</text>
	<text x="995.57" y="2747.83" style="font-family:'Helvetica';font-size:60.02px;fill:#000000" text-anchor="end">Current exposure to NSAIDs</text>
	<text x="1128.11" y="2674.44" style="font-family:'Helvetica';font-size:60.02px;fill:#000000" text-anchor="middle">1927284</text>
	<text x="1609.86" y="2674.44" style="font-family:'Helvetica';font-size:60.02px;fill:#000000" text-anchor="middle">1899287</text>
	<text x="2091.62" y="2674.44" style="font-family:'Helvetica';font-size:60.02px;fill:#000000" text-anchor="middle">1883440</text>
	<text x="2573.51" y="2674.44" style="font-family:'Helvetica';font-size:60.02px;fill:#000000" text-anchor="middle">1866767</text>
	<text x="3055.26" y="2674.44" style="font-family:'Helvetica';font-size:60.02px;fill:#000000" text-anchor="middle">1848969</text>
	<text x="3537.02" y="2674.44" style="font-family:'Helvetica';font-size:60.02px;fill:#000000" text-anchor="middle">1831980</text>
	<text x="995.57" y="2674.44" style="font-family:'Helvetica';font-size:60.02px;fill:#000000" text-anchor="end">Non-current exposure to NSAIDs</text>
	<text x="995.57" y="2601.18" style="font-family:'Helvetica';font-size:60.02px;fill:#000000" text-anchor="end">Number at risk</text>
	<line x1="1064.74" y1="2309.25" x2="3841.32" y2="2309.25" style="stroke:#000000;stroke-width:5.76"/>
	<line x1="1128.11" y1="2309.25" x2="1128.11" y2="2349.22" style="stroke:#000000;stroke-width:5.76"/>
	<text x="1128.11" y="2425.17" style="font-family:'Helvetica';font-size:79.94px;fill:#000000" text-anchor="middle">0</text>
	<line x1="1609.86" y1="2309.25" x2="1609.86" y2="2349.22" style="stroke:#000000;stroke-width:5.76"/>
	<text x="1609.86" y="2425.17" style="font-family:'Helvetica';font-size:79.94px;fill:#000000" text-anchor="middle">20</text>
	<line x1="2091.62" y1="2309.25" x2="2091.62" y2="2349.22" style="stroke:#000000;stroke-width:5.76"/>
	<text x="2091.62" y="2425.17" style="font-family:'Helvetica';font-size:79.94px;fill:#000000" text-anchor="middle">40</text>
	<line x1="2573.51" y1="2309.25" x2="2573.51" y2="2349.22" style="stroke:#000000;stroke-width:5.76"/>
	<text x="2573.51" y="2425.17" style="font-family:'Helvetica';font-size:79.94px;fill:#000000" text-anchor="middle">60</text>
	<line x1="3055.26" y1="2309.25" x2="3055.26" y2="2349.22" style="stroke:#000000;stroke-width:5.76"/>
	<text x="3055.26" y="2425.17" style="font-family:'Helvetica';font-size:79.94px;fill:#000000" text-anchor="middle">80</text>
	<line x1="3537.02" y1="2309.25" x2="3537.02" y2="2349.22" style="stroke:#000000;stroke-width:5.76"/>
	<text x="3537.02" y="2425.17" style="font-family:'Helvetica';font-size:79.94px;fill:#000000" text-anchor="middle">100</text>
	<text x="2452.97" y="2515.14" style="font-family:'Helvetica';font-size:79.94px;fill:#000000" text-anchor="middle">Days since 1 Mar 2020</text>
	<rect x="1099.27" y="269.91" width="2707.53" height="186.37" style="fill:#FFFFFF"/>
	<rect x="1102.15" y="272.79" width="2701.77" height="180.61" style="fill:none;stroke:#EAF2F3;stroke-width:5.76"/>
	<line x1="1142.46" y1="363.09" x2="1505.79" y2="363.09" style="stroke:#90353B;stroke-width:8.64"/>
	<line x1="2462.38" y1="363.09" x2="2825.71" y2="363.09" style="stroke:#1A476F;stroke-width:8.64"/>
	<text x="1564.08" y="384.13" style="font-family:'Helvetica';font-size:60.02px;fill:#000000">Current exposure to NSAIDs</text>
	<text x="2883.87" y="384.13" style="font-family:'Helvetica';font-size:60.02px;fill:#000000">Non-current exposure to NSAIDs</text>
	<text x="1732.62" y="187.99" style="font-family:'Helvetica';font-size:99.99px;fill:#1E2D53">Time to death, nsaid population</text>
</svg>
