<?xml version="1.0" encoding="UTF-8" standalone="no"?>
<!-- This is a Stata 16.1 generated SVG file (http://www.stata.com) -->

<svg version="1.1" width="5.50in" height="4.00in" viewBox="0 0 3960 2880" xmlns="http://www.w3.org/2000/svg" xmlns:xlink="http://www.w3.org/1999/xlink">
	<desc>Stata Graph - Graph</desc>
	<rect x="0" y="0" width="3960" height="2880" style="fill:#EAF2F3;stroke:none"/>
	<rect x="0.00" y="0.00" width="3959.88" height="2880.00" style="fill:#FFFFFF"/>
	<rect x="2.88" y="2.88" width="3954.12" height="2874.24" style="fill:none;stroke:#EAF2F3;stroke-width:5.76"/>
	<rect x="1092.46" y="630.90" width="2748.36" height="1604.96" style="fill:#FFFFFF"/>
	<rect x="1095.34" y="633.78" width="2742.60" height="1599.20" style="fill:none;stroke:#FFFFFF;stroke-width:5.76"/>
	<line x1="1092.46" y1="2172.62" x2="3840.83" y2="2172.62" style="stroke:#EAF2F3;stroke-width:8.64"/>
	<line x1="1092.46" y1="1433.44" x2="3840.83" y2="1433.44" style="stroke:#EAF2F3;stroke-width:8.64"/>
	<line x1="1092.46" y1="694.26" x2="3840.83" y2="694.26" style="stroke:#EAF2F3;stroke-width:8.64"/>
	<path d=" M1155.83 2172.62 L1155.83 2172.62 L1155.83 2172.62 L1155.83 2172.62 L1155.83 2172.62 L1179.59 2172.62 L1179.59 2172.62 L1203.47 2172.62 L1203.47 2172.62 L1227.23 2172.62 L1227.23 2172.62 L1251.11 2172.62 L1251.11 2172.62 L1275.00 2172.62 L1275.00 2172.62 L1298.76 2172.62 L1298.76 2172.62 L1322.64 2172.62 L1322.64 2172.62 L1346.40 2172.62 L1346.40 2172.62 L1370.28 2172.62 L1370.28 2172.62 L1394.04 2172.62 L1394.04 2172.62 L1417.93 2172.62 L1417.93 2172.62 L1441.81 2172.62 L1441.81 2172.62 L1465.57 2172.62 L1465.57 2172.62 L1489.45 2172.62 L1489.45 2172.62 L1513.21 2172.62 L1513.21 2171.88 L1537.10 2171.88 L1537.10 2170.27 L1560.98 2170.27 L1560.98 2170.27 L1584.74 2170.27 L1584.74 2169.53 L1608.63 2169.53 L1608.63 2169.53 L1632.39 2169.53 L1632.39 2168.79 L1656.27 2168.79 L1656.27 2167.18 L1680.15 2167.18 L1680.15 2164.08 L1703.91 2164.08 L1703.91 2161.73 L1727.80 2161.73 L1727.80 2156.29 L1751.56 2156.29 L1751.56 2152.33 L1775.44 2152.33 L1775.44 2147.75 L1799.20 2147.75 L1799.20 2143.79 L1823.09 2143.79 L1823.09 2137.60 L1846.97 2137.60 L1846.97 2132.03 L1870.73 2132.03 L1870.73 2125.10 L1894.61 2125.10 L1894.61 2120.40 L1918.37 2120.40 L1918.37 2114.83 L1942.26 2114.83 L1942.26 2105.55 L1966.14 2105.55 L1966.14 2093.79 L1989.90 2093.79 L1989.90 2082.78 L2013.78 2082.78 L2013.78 2076.47 L2037.54 2076.47 L2037.54 2063.22 L2061.43 2063.22 L2061.43 2047.51 L2085.31 2047.51 L2085.31 2031.05 L2109.07 2031.05 L2109.07 2018.43 L2132.95 2018.43 L2132.95 2008.28 L2156.72 2008.28 L2156.72 1999.61 L2180.60 1999.61 L2180.60 1987.12 L2204.36 1987.12 L2204.36 1978.45 L2228.24 1978.45 L2228.24 1964.35 L2252.13 1964.35 L2252.13 1955.68 L2275.89 1955.68 L2275.89 1938.36 L2299.77 1938.36 L2299.77 1930.44 L2323.53 1930.44 L2323.53 1920.29 L2347.41 1920.29 L2347.41 1909.15 L2371.30 1909.15 L2371.30 1895.79 L2395.06 1895.79 L2395.06 1887.12 L2418.94 1887.12 L2418.94 1876.11 L2442.70 1876.11 L2442.70 1868.19 L2466.59 1868.19 L2466.59 1860.27 L2490.34 1860.27 L2490.34 1850.00 L2514.23 1850.00 L2514.23 1843.69 L2538.11 1843.69 L2538.11 1835.02 L2561.87 1835.02 L2561.87 1827.84 L2585.76 1827.84 L2585.76 1821.53 L2609.52 1821.53 L2609.52 1815.96 L2633.40 1815.96 L2633.40 1811.26 L2657.28 1811.26 L2657.28 1804.08 L2681.04 1804.08 L2681.04 1799.38 L2704.93 1799.38 L2704.93 1795.42 L2728.69 1795.42 L2728.69 1788.99 L2752.57 1788.99 L2752.57 1782.67 L2776.45 1782.67 L2776.45 1778.71 L2800.22 1778.71 L2800.22 1774.75 L2824.10 1774.75 L2824.10 1772.40 L2847.86 1772.40 L2847.86 1772.40 L2871.74 1772.40 L2871.74 1763.62 L2895.50 1763.62 L2895.50 1758.79 L2919.39 1758.79 L2919.39 1756.44 L2943.27 1756.44 L2943.27 1754.83 L2967.03 1754.83 L2967.03 1750.87 L2990.91 1750.87 L2990.91 1747.65 L3014.67 1747.65 L3014.67 1745.30 L3038.56 1745.30 L3038.56 1742.08 L3062.44 1742.08 L3062.44 1740.47 L3086.20 1740.47 L3086.20 1736.51 L3110.09 1736.51 L3110.09 1732.43 L3133.84 1732.43 L3133.84 1731.69 L3157.73 1731.69 L3157.73 1729.21 L3181.61 1729.21 L3181.61 1726.86 L3205.37 1726.86 L3205.37 1722.90 L3229.26 1722.90 L3229.26 1719.68 L3253.02 1719.68 L3253.02 1714.86 L3276.90 1714.86 L3276.90 1713.99 L3300.66 1713.99 L3300.66 1712.38 L3324.54 1712.38 L3324.54 1710.77 L3348.43 1710.77 L3348.43 1706.81 L3372.19 1706.81 L3372.19 1705.95 L3396.07 1705.95 L3396.07 1704.34 L3419.83 1704.34 L3419.83 1701.99 L3443.72 1701.99 L3443.72 1701.12 L3467.60 1701.12 L3467.60 1700.38 L3491.36 1700.38 L3491.36 1698.77 L3515.24 1698.77 L3515.24 1698.77 L3539.00 1698.77 L3539.00 1697.90 L3562.89 1697.90 L3562.89 1695.55 L3586.77 1695.55 L3586.77 1693.94 L3610.53 1693.94 L3610.53 1690.73 L3634.41 1690.73 L3634.41 1690.73 L3658.17 1690.73 L3658.17 1689.86" stroke-linejoin="round" style="fill:none;stroke:#1A476F;stroke-width:8.64"/>
	<path d=" M1155.83 2172.62 L1155.83 2172.62 L1155.83 2172.62 L1155.83 2172.62 L1155.83 2172.62 L1251.11 2172.62 L1251.11 2172.62 L1346.40 2172.62 L1346.40 2172.62 L1370.28 2172.62 L1370.28 2172.62 L1441.81 2172.62 L1441.81 2172.62 L1465.57 2172.62 L1465.57 2172.62 L1513.21 2172.62 L1513.21 2172.62 L1537.10 2172.62 L1537.10 2172.62 L1560.98 2172.62 L1560.98 2172.62 L1632.39 2172.62 L1632.39 2172.62 L1656.27 2172.62 L1656.27 2172.62 L1680.15 2172.62 L1680.15 2172.62 L1703.91 2172.62 L1703.91 2172.62 L1727.80 2172.62 L1727.80 2172.62 L1751.56 2172.62 L1751.56 2172.62 L1799.20 2172.62 L1799.20 2172.62 L1870.73 2172.62 L1870.73 2172.62 L1894.61 2172.62 L1894.61 2172.62 L1918.37 2172.62 L1918.37 2172.62 L1942.26 2172.62 L1942.26 2112.97 L1966.14 2112.97 L1966.14 2112.97 L1989.90 2112.97 L1989.90 2112.97 L2061.43 2112.97 L2061.43 2112.97 L2085.31 2112.97 L2085.31 2112.97 L2109.07 2112.97 L2109.07 2112.97 L2132.95 2112.97 L2132.95 2053.32 L2204.36 2053.32 L2204.36 2053.32 L2299.77 2053.32 L2299.77 1993.55 L2371.30 1993.55 L2371.30 1993.55 L2395.06 1993.55 L2395.06 1993.55 L2418.94 1993.55 L2418.94 1993.55 L2466.59 1993.55 L2466.59 1933.90 L2490.34 1933.90 L2490.34 1874.13 L2514.23 1874.13 L2514.23 1874.13 L2561.87 1874.13 L2561.87 1814.48 L2585.76 1814.48 L2585.76 1754.71 L2633.40 1754.71 L2633.40 1754.71 L2704.93 1754.71 L2704.93 1754.71 L2728.69 1754.71 L2728.69 1754.71 L2776.45 1754.71 L2776.45 1754.71 L2824.10 1754.71 L2824.10 1754.71 L2847.86 1754.71 L2847.86 1754.71 L2967.03 1754.71 L2967.03 1694.93 L2990.91 1694.93 L2990.91 1694.93 L3014.67 1694.93 L3014.67 1694.93 L3110.09 1694.93 L3110.09 1694.93 L3133.84 1694.93 L3133.84 1694.93 L3157.73 1694.93 L3157.73 1694.93 L3229.26 1694.93 L3229.26 1694.93 L3253.02 1694.93 L3253.02 1694.93 L3300.66 1694.93 L3300.66 1694.93 L3419.83 1694.93 L3419.83 1694.93 L3443.72 1694.93 L3443.72 1694.93 L3467.60 1694.93 L3467.60 1694.93 L3515.24 1694.93 L3515.24 1694.93 L3610.53 1694.93 L3610.53 1635.16 L3658.17 1635.16 L3658.17 1635.16" stroke-linejoin="round" style="fill:none;stroke:#90353B;stroke-width:8.64"/>
	<path d=" M1155.83 2172.62 L1155.83 2172.62 L1155.83 2172.62 L1155.83 2172.62 L1155.83 2172.62 L1179.59 2172.62 L1179.59 2172.62 L1203.47 2172.62 L1203.47 2172.62 L1227.23 2172.62 L1227.23 2172.62 L1251.11 2172.62 L1251.11 2172.62 L1275.00 2172.62 L1275.00 2172.62 L1298.76 2172.62 L1298.76 2172.62 L1322.64 2172.62 L1322.64 2172.62 L1346.40 2172.62 L1346.40 2172.62 L1370.28 2172.62 L1370.28 2172.62 L1394.04 2172.62 L1394.04 2172.62 L1417.93 2172.62 L1417.93 2172.62 L1441.81 2172.62 L1441.81 2169.78 L1465.57 2169.78 L1465.57 2169.78 L1489.45 2169.78 L1489.45 2169.78 L1513.21 2169.78 L1513.21 2169.78 L1537.10 2169.78 L1537.10 2169.78 L1560.98 2169.78 L1560.98 2169.78 L1584.74 2169.78 L1584.74 2169.78 L1608.63 2169.78 L1608.63 2169.78 L1632.39 2169.78 L1632.39 2169.78 L1656.27 2169.78 L1656.27 2166.81 L1680.15 2166.81 L1680.15 2163.96 L1703.91 2163.96 L1703.91 2158.14 L1727.80 2158.14 L1727.80 2155.30 L1751.56 2155.30 L1751.56 2152.33 L1775.44 2152.33 L1775.44 2143.66 L1799.20 2143.66 L1799.20 2143.66 L1823.09 2143.66 L1823.09 2137.97 L1846.97 2137.97 L1846.97 2120.52 L1870.73 2120.52 L1870.73 2111.86 L1894.61 2111.86 L1894.61 2088.72 L1918.37 2088.72 L1918.37 2083.03 L1942.26 2083.03 L1942.26 2065.70 L1966.14 2065.70 L1966.14 2056.91 L1989.90 2056.91 L1989.90 2042.56 L2013.78 2042.56 L2013.78 2033.89 L2037.54 2033.89 L2037.54 2016.45 L2061.43 2016.45 L2061.43 1993.30 L2085.31 1993.30 L2085.31 1961.50 L2109.07 1961.50 L2109.07 1941.33 L2132.95 1941.33 L2132.95 1926.85 L2156.72 1926.85 L2156.72 1906.55 L2180.60 1906.55 L2180.60 1886.38 L2204.36 1886.38 L2204.36 1871.90 L2228.24 1871.90 L2228.24 1863.24 L2252.13 1863.24 L2252.13 1848.76 L2275.89 1848.76 L2275.89 1840.10 L2299.77 1840.10 L2299.77 1828.46 L2323.53 1828.46 L2323.53 1816.95 L2347.41 1816.95 L2347.41 1802.48 L2371.30 1802.48 L2371.30 1788.00 L2395.06 1788.00 L2395.06 1782.18 L2418.94 1782.18 L2418.94 1767.70 L2442.70 1767.70 L2442.70 1756.19 L2466.59 1756.19 L2466.59 1750.37 L2490.34 1750.37 L2490.34 1744.56 L2514.23 1744.56 L2514.23 1718.57 L2538.11 1718.57 L2538.11 1704.09 L2561.87 1704.09 L2561.87 1701.24 L2585.76 1701.24 L2585.76 1695.43 L2609.52 1695.43 L2609.52 1686.77 L2633.40 1686.77 L2633.40 1683.92 L2657.28 1683.92 L2657.28 1680.95 L2681.04 1680.95 L2681.04 1672.29 L2704.93 1672.29 L2704.93 1660.65 L2728.69 1660.65 L2728.69 1657.81 L2752.57 1657.81 L2752.57 1654.96 L2776.45 1654.96 L2776.45 1654.96 L2800.22 1654.96 L2800.22 1646.30 L2824.10 1646.30 L2824.10 1646.30 L2847.86 1646.30 L2847.86 1646.30 L2871.74 1646.30 L2871.74 1637.51 L2895.50 1637.51 L2895.50 1634.66 L2919.39 1634.66 L2919.39 1631.82 L2943.27 1631.82 L2943.27 1631.82 L2967.03 1631.82 L2967.03 1631.82 L2990.91 1631.82 L2990.91 1628.85 L3014.67 1628.85 L3014.67 1623.03 L3038.56 1623.03 L3038.56 1620.19 L3062.44 1620.19 L3062.44 1614.37 L3086.20 1614.37 L3086.20 1608.68 L3110.09 1608.68 L3110.09 1608.68 L3133.84 1608.68 L3133.84 1608.68 L3157.73 1608.68 L3157.73 1608.68 L3181.61 1608.68 L3181.61 1599.89 L3205.37 1599.89 L3205.37 1594.20 L3229.26 1594.20 L3229.26 1594.20 L3253.02 1594.20 L3253.02 1594.20 L3276.90 1594.20 L3276.90 1588.38 L3300.66 1588.38 L3300.66 1585.41 L3324.54 1585.41 L3324.54 1585.41 L3348.43 1585.41 L3348.43 1582.56 L3372.19 1582.56 L3372.19 1582.56 L3396.07 1582.56 L3396.07 1576.75 L3419.83 1576.75 L3419.83 1576.75 L3443.72 1576.75 L3443.72 1573.90 L3467.60 1573.90 L3467.60 1571.06 L3491.36 1571.06 L3491.36 1571.06 L3515.24 1571.06 L3515.24 1571.06 L3539.00 1571.06 L3539.00 1571.06 L3562.89 1571.06 L3562.89 1571.06 L3586.77 1571.06 L3586.77 1571.06 L3610.53 1571.06 L3610.53 1565.24 L3634.41 1565.24 L3634.41 1565.24 L3658.17 1565.24 L3658.17 1562.27" stroke-linejoin="round" style="fill:none;stroke:#55752F;stroke-width:8.64"/>
	<line x1="1092.46" y1="2235.86" x2="1092.46" y2="630.90" style="stroke:#000000;stroke-width:5.76"/>
	<line x1="1092.46" y1="2172.62" x2="1052.49" y2="2172.62" style="stroke:#000000;stroke-width:5.76"/>
	<text x="1032.45" y="2200.63" style="font-family:'Helvetica';font-size:79.94px;fill:#000000" text-anchor="end">0.0000</text>
	<line x1="1092.46" y1="1433.44" x2="1052.49" y2="1433.44" style="stroke:#000000;stroke-width:5.76"/>
	<text x="1032.45" y="1461.45" style="font-family:'Helvetica';font-size:79.94px;fill:#000000" text-anchor="end">0.0005</text>
	<line x1="1092.46" y1="694.26" x2="1052.49" y2="694.26" style="stroke:#000000;stroke-width:5.76"/>
	<text x="1032.45" y="722.27" style="font-family:'Helvetica';font-size:79.94px;fill:#000000" text-anchor="end">0.0010</text>
	<text x="1155.83" y="2747.83" style="font-family:'Helvetica';font-size:60.02px;fill:#000000" text-anchor="middle">511615</text>
	<text x="1870.85" y="2747.83" style="font-family:'Helvetica';font-size:60.02px;fill:#000000" text-anchor="middle">511272</text>
	<text x="2585.76" y="2747.83" style="font-family:'Helvetica';font-size:60.02px;fill:#000000" text-anchor="middle">510815</text>
	<text x="3300.78" y="2747.83" style="font-family:'Helvetica';font-size:60.02px;fill:#000000" text-anchor="middle">510521</text>
	<text x="1024.77" y="2747.83" style="font-family:'Helvetica';font-size:60.02px;fill:#000000" text-anchor="end">Other specific NSAIDs</text>
	<text x="1155.83" y="2674.44" style="font-family:'Helvetica';font-size:60.02px;fill:#000000" text-anchor="middle">24808</text>
	<text x="1870.85" y="2674.44" style="font-family:'Helvetica';font-size:60.02px;fill:#000000" text-anchor="middle">24782</text>
	<text x="2585.76" y="2674.44" style="font-family:'Helvetica';font-size:60.02px;fill:#000000" text-anchor="middle">24748</text>
	<text x="3300.78" y="2674.44" style="font-family:'Helvetica';font-size:60.02px;fill:#000000" text-anchor="middle">24728</text>
	<text x="1024.77" y="2674.44" style="font-family:'Helvetica';font-size:60.02px;fill:#000000" text-anchor="end">Cox-2 specific NSAIDs</text>
	<text x="1155.83" y="2601.18" style="font-family:'Helvetica';font-size:60.02px;fill:#000000" text-anchor="middle">1927284</text>
	<text x="1870.85" y="2601.18" style="font-family:'Helvetica';font-size:60.02px;fill:#000000" text-anchor="middle">1892022</text>
	<text x="2585.76" y="2601.18" style="font-family:'Helvetica';font-size:60.02px;fill:#000000" text-anchor="middle">1866767</text>
	<text x="3300.78" y="2601.18" style="font-family:'Helvetica';font-size:60.02px;fill:#000000" text-anchor="middle">1840140</text>
	<text x="1024.77" y="2601.18" style="font-family:'Helvetica';font-size:60.02px;fill:#000000" text-anchor="end">Non-current exposure to NSAIDs</text>
	<text x="1024.77" y="2527.80" style="font-family:'Helvetica';font-size:60.02px;fill:#000000" text-anchor="end">Number at risk</text>
	<line x1="1092.46" y1="2235.86" x2="3840.83" y2="2235.86" style="stroke:#000000;stroke-width:5.76"/>
	<line x1="1155.83" y1="2235.86" x2="1155.83" y2="2275.96" style="stroke:#000000;stroke-width:5.76"/>
	<text x="1155.83" y="2351.78" style="font-family:'Helvetica';font-size:79.94px;fill:#000000" text-anchor="middle">0</text>
	<line x1="1870.85" y1="2235.86" x2="1870.85" y2="2275.96" style="stroke:#000000;stroke-width:5.76"/>
	<text x="1870.85" y="2351.78" style="font-family:'Helvetica';font-size:79.94px;fill:#000000" text-anchor="middle">30</text>
	<line x1="2585.76" y1="2235.86" x2="2585.76" y2="2275.96" style="stroke:#000000;stroke-width:5.76"/>
	<text x="2585.76" y="2351.78" style="font-family:'Helvetica';font-size:79.94px;fill:#000000" text-anchor="middle">60</text>
	<line x1="3300.78" y1="2235.86" x2="3300.78" y2="2275.96" style="stroke:#000000;stroke-width:5.76"/>
	<text x="3300.78" y="2351.78" style="font-family:'Helvetica';font-size:79.94px;fill:#000000" text-anchor="middle">90</text>
	<line x1="4015.81" y1="2235.86" x2="4015.81" y2="2275.96" style="stroke:#000000;stroke-width:5.76"/>
	<text x="4015.81" y="2351.78" style="font-family:'Helvetica';font-size:79.94px;fill:#000000" text-anchor="middle">120</text>
	<text x="2466.59" y="2441.87" style="font-family:'Helvetica';font-size:79.94px;fill:#000000" text-anchor="middle">Days since 1 Mar 2020</text>
	<rect x="1152.61" y="269.91" width="2628.08" height="326.46" style="fill:#FFFFFF"/>
	<rect x="1155.49" y="272.79" width="2622.32" height="320.70" style="fill:none;stroke:#EAF2F3;stroke-width:5.76"/>
	<line x1="1195.80" y1="363.09" x2="1570.14" y2="363.09" style="stroke:#1A476F;stroke-width:8.64"/>
	<line x1="2676.59" y1="363.09" x2="3051.06" y2="363.09" style="stroke:#90353B;stroke-width:8.64"/>
	<line x1="1195.80" y1="503.06" x2="1570.14" y2="503.06" style="stroke:#55752F;stroke-width:8.64"/>
	<text x="1630.16" y="384.13" style="font-family:'Helvetica';font-size:60.02px;fill:#000000">Non-current exposure to NSAIDs</text>
	<text x="3110.95" y="384.13" style="font-family:'Helvetica';font-size:60.02px;fill:#000000">Cox-2 specific NSAIDs</text>
	<text x="1630.16" y="524.10" style="font-family:'Helvetica';font-size:60.02px;fill:#000000">Other specific NSAIDs</text>
	<text x="1746.24" y="187.99" style="font-family:'Helvetica';font-size:99.99px;fill:#1E2D53">Time to death, nsaid population</text>
</svg>
