<?xml version="1.0" encoding="UTF-8" standalone="no"?>
<!-- This is a Stata 16.1 generated SVG file (http://www.stata.com) -->

<svg version="1.1" width="5.50in" height="4.00in" viewBox="0 0 3960 2880" xmlns="http://www.w3.org/2000/svg" xmlns:xlink="http://www.w3.org/1999/xlink">
	<desc>Stata Graph - Graph</desc>
	<rect x="0" y="0" width="3960" height="2880" style="fill:#EAF2F3;stroke:none"/>
	<rect x="0.00" y="0.00" width="3959.88" height="2880.00" style="fill:#FFFFFF"/>
	<rect x="2.88" y="2.88" width="3954.12" height="2874.24" style="fill:none;stroke:#EAF2F3;stroke-width:5.76"/>
	<rect x="1092.46" y="630.90" width="2748.36" height="1531.70" style="fill:#FFFFFF"/>
	<rect x="1095.34" y="633.78" width="2742.60" height="1525.94" style="fill:none;stroke:#FFFFFF;stroke-width:5.76"/>
	<line x1="1092.46" y1="2099.24" x2="3840.83" y2="2099.24" style="stroke:#EAF2F3;stroke-width:8.64"/>
	<line x1="1092.46" y1="1396.69" x2="3840.83" y2="1396.69" style="stroke:#EAF2F3;stroke-width:8.64"/>
	<line x1="1092.46" y1="694.26" x2="3840.83" y2="694.26" style="stroke:#EAF2F3;stroke-width:8.64"/>
	<path d=" M1155.83 2099.24 L1155.83 2099.24 L1155.83 2099.24 L1155.83 2099.24 L1155.83 2099.24 L1155.83 2099.24 L1155.83 2099.24 L1179.59 2099.24 L1179.59 2099.24 L1203.47 2099.24 L1203.47 2099.24 L1227.23 2099.24 L1227.23 2099.24 L1251.11 2099.24 L1251.11 2099.24 L1275.00 2099.24 L1275.00 2099.24 L1298.76 2099.24 L1298.76 2099.24 L1322.64 2099.24 L1322.64 2099.24 L1346.40 2099.24 L1346.40 2099.24 L1370.28 2099.24 L1370.28 2099.24 L1394.04 2099.24 L1394.04 2099.24 L1417.93 2099.24 L1417.93 2099.24 L1441.81 2099.24 L1441.81 2099.24 L1465.57 2099.24 L1465.57 2099.24 L1489.45 2099.24 L1489.45 2099.24 L1513.21 2099.24 L1513.21 2098.49 L1537.10 2098.49 L1537.10 2097.13 L1560.98 2097.13 L1560.98 2097.13 L1584.74 2097.13 L1584.74 2096.39 L1608.63 2096.39 L1608.63 2096.39 L1632.39 2096.39 L1632.39 2095.65 L1656.27 2095.65 L1656.27 2094.16 L1680.15 2094.16 L1680.15 2091.19 L1703.91 2091.19 L1703.91 2088.97 L1727.80 2088.97 L1727.80 2083.77 L1751.56 2083.77 L1751.56 2080.06 L1775.44 2080.06 L1775.44 2075.60 L1799.20 2075.60 L1799.20 2071.89 L1823.09 2071.89 L1823.09 2065.95 L1846.97 2065.95 L1846.97 2060.75 L1870.73 2060.75 L1870.73 2054.07 L1894.61 2054.07 L1894.61 2049.61 L1918.37 2049.61 L1918.37 2044.41 L1942.26 2044.41 L1942.26 2035.50 L1966.14 2035.50 L1966.14 2024.37 L1989.90 2024.37 L1989.90 2013.85 L2013.78 2013.85 L2013.78 2007.91 L2037.54 2007.91 L2037.54 1995.28 L2061.43 1995.28 L2061.43 1980.43 L2085.31 1980.43 L2085.31 1964.72 L2109.07 1964.72 L2109.07 1952.84 L2132.95 1952.84 L2132.95 1943.06 L2156.72 1943.06 L2156.72 1934.89 L2180.60 1934.89 L2180.60 1923.01 L2204.36 1923.01 L2204.36 1914.72 L2228.24 1914.72 L2228.24 1901.35 L2252.13 1901.35 L2252.13 1893.06 L2275.89 1893.06 L2275.89 1876.60 L2299.77 1876.60 L2299.77 1869.18 L2323.53 1869.18 L2323.53 1859.40 L2347.41 1859.40 L2347.41 1848.88 L2371.30 1848.88 L2371.30 1836.26 L2395.06 1836.26 L2395.06 1827.97 L2418.94 1827.97 L2418.94 1817.45 L2442.70 1817.45 L2442.70 1810.02 L2466.59 1810.02 L2466.59 1802.48 L2490.34 1802.48 L2490.34 1792.70 L2514.23 1792.70 L2514.23 1786.63 L2538.11 1786.63 L2538.11 1778.47 L2561.87 1778.47 L2561.87 1771.66 L2585.76 1771.66 L2585.76 1765.60 L2609.52 1765.60 L2609.52 1760.40 L2633.40 1760.40 L2633.40 1755.82 L2657.28 1755.82 L2657.28 1749.01 L2681.04 1749.01 L2681.04 1744.56 L2704.93 1744.56 L2704.93 1740.72 L2728.69 1740.72 L2728.69 1734.78 L2752.57 1734.78 L2752.57 1728.72 L2776.45 1728.72 L2776.45 1724.88 L2800.22 1724.88 L2800.22 1721.17 L2824.10 1721.17 L2824.10 1718.82 L2847.86 1718.82 L2847.86 1718.82 L2871.74 1718.82 L2871.74 1710.53 L2895.50 1710.53 L2895.50 1706.07 L2919.39 1706.07 L2919.39 1703.72 L2943.27 1703.72 L2943.27 1702.23 L2967.03 1702.23 L2967.03 1698.40 L2990.91 1698.40 L2990.91 1695.43 L3014.67 1695.43 L3014.67 1693.08 L3038.56 1693.08 L3038.56 1690.11 L3062.44 1690.11 L3062.44 1688.62 L3086.20 1688.62 L3086.20 1684.79 L3110.09 1684.79 L3110.09 1680.95 L3133.84 1680.95 L3133.84 1680.21 L3157.73 1680.21 L3157.73 1677.85 L3181.61 1677.85 L3181.61 1675.63 L3205.37 1675.63 L3205.37 1671.79 L3229.26 1671.79 L3229.26 1668.82 L3253.02 1668.82 L3253.02 1664.24 L3276.90 1664.24 L3276.90 1663.50 L3300.66 1663.50 L3300.66 1661.89 L3324.54 1661.89 L3324.54 1660.41 L3348.43 1660.41 L3348.43 1656.57 L3372.19 1656.57 L3372.19 1655.83 L3396.07 1655.83 L3396.07 1654.34 L3419.83 1654.34 L3419.83 1651.99 L3443.72 1651.99 L3443.72 1651.25 L3467.60 1651.25 L3467.60 1650.51 L3491.36 1650.51 L3491.36 1648.90 L3515.24 1648.90 L3515.24 1648.90 L3539.00 1648.90 L3539.00 1648.15 L3562.89 1648.15 L3562.89 1645.80 L3586.77 1645.80 L3586.77 1644.32 L3610.53 1644.32 L3610.53 1641.22 L3634.41 1641.22 L3634.41 1641.22 L3658.17 1641.22 L3658.17 1640.48" stroke-linejoin="round" style="fill:none;stroke:#1A476F;stroke-width:8.64"/>
	<path d=" M1155.83 2099.24 L1155.83 2099.24 L1155.83 2099.24 L1155.83 2099.24 L1155.83 2099.24 L1155.83 2099.24 L1155.83 2099.24 L1179.59 2099.24 L1179.59 2099.24 L1203.47 2099.24 L1203.47 2099.24 L1227.23 2099.24 L1227.23 2099.24 L1251.11 2099.24 L1251.11 2099.24 L1275.00 2099.24 L1275.00 2099.24 L1298.76 2099.24 L1298.76 2099.24 L1322.64 2099.24 L1322.64 2099.24 L1346.40 2099.24 L1346.40 2099.24 L1370.28 2099.24 L1370.28 2099.24 L1394.04 2099.24 L1394.04 2099.24 L1417.93 2099.24 L1417.93 2099.24 L1441.81 2099.24 L1441.81 2086.49 L1465.57 2086.49 L1465.57 2086.49 L1489.45 2086.49 L1489.45 2086.49 L1513.21 2086.49 L1513.21 2086.49 L1537.10 2086.49 L1537.10 2086.49 L1560.98 2086.49 L1560.98 2086.49 L1584.74 2086.49 L1584.74 2086.49 L1608.63 2086.49 L1608.63 2086.49 L1656.27 2086.49 L1656.27 2086.49 L1680.15 2086.49 L1680.15 2086.49 L1703.91 2086.49 L1703.91 2073.62 L1727.80 2073.62 L1727.80 2073.62 L1751.56 2073.62 L1751.56 2073.62 L1775.44 2073.62 L1775.44 2060.87 L1799.20 2060.87 L1799.20 2060.87 L1823.09 2060.87 L1823.09 2060.87 L1846.97 2060.87 L1846.97 2048.00 L1870.73 2048.00 L1870.73 2048.00 L1894.61 2048.00 L1894.61 2035.26 L1918.37 2035.26 L1918.37 2035.26 L1942.26 2035.26 L1942.26 2009.52 L1966.14 2009.52 L1966.14 2009.52 L1989.90 2009.52 L1989.90 1996.77 L2013.78 1996.77 L2013.78 1996.77 L2037.54 1996.77 L2037.54 1971.03 L2061.43 1971.03 L2061.43 1945.41 L2085.31 1945.41 L2085.31 1945.41 L2109.07 1945.41 L2109.07 1906.92 L2132.95 1906.92 L2132.95 1881.31 L2156.72 1881.31 L2156.72 1868.56 L2180.60 1868.56 L2180.60 1830.07 L2204.36 1830.07 L2204.36 1830.07 L2228.24 1830.07 L2228.24 1830.07 L2252.13 1830.07 L2252.13 1804.33 L2275.89 1804.33 L2275.89 1778.71 L2299.77 1778.71 L2299.77 1753.10 L2323.53 1753.10 L2323.53 1740.23 L2347.41 1740.23 L2347.41 1740.23 L2371.30 1740.23 L2371.30 1740.23 L2395.06 1740.23 L2395.06 1727.48 L2418.94 1727.48 L2418.94 1701.74 L2442.70 1701.74 L2442.70 1688.99 L2466.59 1688.99 L2466.59 1688.99 L2490.34 1688.99 L2490.34 1688.99 L2514.23 1688.99 L2514.23 1676.12 L2538.11 1676.12 L2538.11 1663.25 L2561.87 1663.25 L2561.87 1663.25 L2585.76 1663.25 L2585.76 1650.51 L2609.52 1650.51 L2609.52 1637.63 L2633.40 1637.63 L2633.40 1637.63 L2657.28 1637.63 L2657.28 1637.63 L2681.04 1637.63 L2681.04 1624.76 L2704.93 1624.76 L2704.93 1586.28 L2728.69 1586.28 L2728.69 1573.53 L2752.57 1573.53 L2752.57 1573.53 L2776.45 1573.53 L2776.45 1573.53 L2800.22 1573.53 L2800.22 1560.66 L2824.10 1560.66 L2824.10 1560.66 L2847.86 1560.66 L2847.86 1560.66 L2871.74 1560.66 L2871.74 1547.79 L2895.50 1547.79 L2895.50 1547.79 L2919.39 1547.79 L2919.39 1547.79 L2943.27 1547.79 L2943.27 1547.79 L2990.91 1547.79 L2990.91 1535.04 L3014.67 1535.04 L3014.67 1535.04 L3038.56 1535.04 L3038.56 1535.04 L3086.20 1535.04 L3086.20 1522.17 L3133.84 1522.17 L3133.84 1522.17 L3157.73 1522.17 L3157.73 1522.17 L3181.61 1522.17 L3181.61 1509.30 L3205.37 1509.30 L3205.37 1496.56 L3229.26 1496.56 L3229.26 1496.56 L3276.90 1496.56 L3276.90 1496.56 L3324.54 1496.56 L3324.54 1496.56 L3348.43 1496.56 L3348.43 1496.56 L3372.19 1496.56 L3372.19 1496.56 L3396.07 1496.56 L3396.07 1496.56 L3419.83 1496.56 L3419.83 1496.56 L3443.72 1496.56 L3443.72 1496.56 L3467.60 1496.56 L3467.60 1483.69 L3491.36 1483.69 L3491.36 1483.69 L3562.89 1483.69 L3562.89 1483.69 L3586.77 1483.69 L3586.77 1483.69 L3610.53 1483.69 L3610.53 1470.81 L3634.41 1470.81 L3634.41 1470.81 L3658.17 1470.81 L3658.17 1457.94" stroke-linejoin="round" style="fill:none;stroke:#90353B;stroke-width:8.64"/>
	<path d=" M1155.83 2099.24 L1155.83 2099.24 L1155.83 2099.24 L1155.83 2099.24 L1155.83 2099.24 L1155.83 2099.24 L1155.83 2099.24 L1179.59 2099.24 L1179.59 2099.24 L1203.47 2099.24 L1203.47 2099.24 L1227.23 2099.24 L1227.23 2099.24 L1251.11 2099.24 L1251.11 2099.24 L1275.00 2099.24 L1275.00 2099.24 L1298.76 2099.24 L1298.76 2099.24 L1346.40 2099.24 L1346.40 2099.24 L1370.28 2099.24 L1370.28 2099.24 L1394.04 2099.24 L1394.04 2099.24 L1417.93 2099.24 L1417.93 2099.24 L1441.81 2099.24 L1441.81 2099.24 L1465.57 2099.24 L1465.57 2099.24 L1489.45 2099.24 L1489.45 2099.24 L1513.21 2099.24 L1513.21 2099.24 L1537.10 2099.24 L1537.10 2099.24 L1560.98 2099.24 L1560.98 2099.24 L1584.74 2099.24 L1584.74 2099.24 L1608.63 2099.24 L1608.63 2099.24 L1632.39 2099.24 L1632.39 2099.24 L1656.27 2099.24 L1656.27 2094.53 L1680.15 2094.53 L1680.15 2089.71 L1703.91 2089.71 L1703.91 2084.88 L1727.80 2084.88 L1727.80 2080.06 L1751.56 2080.06 L1751.56 2080.06 L1775.44 2080.06 L1775.44 2075.23 L1799.20 2075.23 L1799.20 2075.23 L1823.09 2075.23 L1823.09 2070.40 L1846.97 2070.40 L1846.97 2060.87 L1870.73 2060.87 L1870.73 2051.22 L1894.61 2051.22 L1894.61 2046.39 L1918.37 2046.39 L1918.37 2041.57 L1942.26 2041.57 L1942.26 2032.04 L1966.14 2032.04 L1966.14 2027.21 L1989.90 2027.21 L1989.90 2012.73 L2013.78 2012.73 L2013.78 2003.08 L2037.54 2003.08 L2037.54 1993.55 L2061.43 1993.55 L2061.43 1974.25 L2085.31 1974.25 L2085.31 1940.58 L2109.07 1940.58 L2109.07 1926.23 L2132.95 1926.23 L2132.95 1916.58 L2156.72 1916.58 L2156.72 1906.92 L2180.60 1906.92 L2180.60 1897.39 L2204.36 1897.39 L2204.36 1878.09 L2228.24 1878.09 L2228.24 1878.09 L2252.13 1878.09 L2252.13 1868.56 L2275.89 1868.56 L2275.89 1868.56 L2299.77 1868.56 L2299.77 1863.73 L2323.53 1863.73 L2323.53 1854.08 L2347.41 1854.08 L2347.41 1830.07 L2371.30 1830.07 L2371.30 1820.42 L2395.06 1820.42 L2395.06 1815.59 L2418.94 1815.59 L2418.94 1805.94 L2442.70 1805.94 L2442.70 1801.11 L2466.59 1801.11 L2466.59 1796.41 L2490.34 1796.41 L2490.34 1791.58 L2514.23 1791.58 L2514.23 1772.28 L2538.11 1772.28 L2538.11 1767.45 L2561.87 1767.45 L2561.87 1767.45 L2585.76 1767.45 L2585.76 1762.75 L2609.52 1762.75 L2609.52 1757.92 L2633.40 1757.92 L2633.40 1753.10 L2657.28 1753.10 L2657.28 1748.27 L2681.04 1748.27 L2681.04 1743.44 L2704.93 1743.44 L2704.93 1738.62 L2728.69 1738.62 L2728.69 1738.62 L2752.57 1738.62 L2752.57 1733.79 L2776.45 1733.79 L2776.45 1733.79 L2800.22 1733.79 L2800.22 1728.97 L2824.10 1728.97 L2824.10 1728.97 L2847.86 1728.97 L2847.86 1728.97 L2871.74 1728.97 L2871.74 1728.97 L2895.50 1728.97 L2895.50 1728.97 L2919.39 1728.97 L2919.39 1724.26 L2943.27 1724.26 L2943.27 1724.26 L2967.03 1724.26 L2967.03 1724.26 L2990.91 1724.26 L2990.91 1724.26 L3014.67 1724.26 L3014.67 1719.44 L3038.56 1719.44 L3038.56 1719.44 L3062.44 1719.44 L3062.44 1714.61 L3086.20 1714.61 L3086.20 1714.61 L3133.84 1714.61 L3133.84 1714.61 L3157.73 1714.61 L3157.73 1714.61 L3181.61 1714.61 L3181.61 1704.96 L3205.37 1704.96 L3205.37 1704.96 L3229.26 1704.96 L3229.26 1704.96 L3253.02 1704.96 L3253.02 1704.96 L3276.90 1704.96 L3276.90 1695.30 L3300.66 1695.30 L3300.66 1690.48 L3324.54 1690.48 L3324.54 1690.48 L3348.43 1690.48 L3348.43 1690.48 L3372.19 1690.48 L3372.19 1690.48 L3396.07 1690.48 L3396.07 1685.78 L3419.83 1685.78 L3419.83 1685.78 L3443.72 1685.78 L3443.72 1685.78 L3467.60 1685.78 L3467.60 1685.78 L3491.36 1685.78 L3491.36 1685.78 L3515.24 1685.78 L3515.24 1685.78 L3539.00 1685.78 L3539.00 1685.78 L3562.89 1685.78 L3562.89 1685.78 L3586.77 1685.78 L3586.77 1685.78 L3610.53 1685.78 L3610.53 1680.95 L3634.41 1680.95 L3634.41 1680.95 L3658.17 1680.95 L3658.17 1680.95" stroke-linejoin="round" style="fill:none;stroke:#55752F;stroke-width:8.64"/>
	<path d=" M1155.83 2099.24 L1155.83 2099.24 L1155.83 2099.24 L1155.83 2099.24 L1155.83 2099.24 L1155.83 2099.24 L1155.83 2099.24 L1179.59 2099.24 L1179.59 2099.24 L1203.47 2099.24 L1203.47 2099.24 L1227.23 2099.24 L1227.23 2099.24 L1251.11 2099.24 L1251.11 2099.24 L1275.00 2099.24 L1275.00 2099.24 L1298.76 2099.24 L1298.76 2099.24 L1322.64 2099.24 L1322.64 2099.24 L1346.40 2099.24 L1346.40 2099.24 L1370.28 2099.24 L1370.28 2099.24 L1394.04 2099.24 L1394.04 2099.24 L1417.93 2099.24 L1417.93 2099.24 L1441.81 2099.24 L1441.81 2099.24 L1465.57 2099.24 L1465.57 2099.24 L1489.45 2099.24 L1489.45 2099.24 L1513.21 2099.24 L1513.21 2099.24 L1537.10 2099.24 L1537.10 2099.24 L1560.98 2099.24 L1560.98 2099.24 L1584.74 2099.24 L1584.74 2099.24 L1608.63 2099.24 L1608.63 2099.24 L1632.39 2099.24 L1632.39 2099.24 L1656.27 2099.24 L1656.27 2099.24 L1680.15 2099.24 L1680.15 2099.24 L1703.91 2099.24 L1703.91 2099.24 L1727.80 2099.24 L1727.80 2099.24 L1751.56 2099.24 L1751.56 2088.84 L1775.44 2088.84 L1775.44 2078.32 L1799.20 2078.32 L1799.20 2078.32 L1823.09 2078.32 L1823.09 2067.93 L1846.97 2067.93 L1846.97 2036.49 L1870.73 2036.49 L1870.73 2025.97 L1894.61 2025.97 L1894.61 1963.23 L1918.37 1963.23 L1918.37 1952.71 L1942.26 1952.71 L1942.26 1921.40 L1966.14 1921.40 L1966.14 1900.36 L1989.90 1900.36 L1989.90 1889.97 L2013.78 1889.97 L2013.78 1879.45 L2037.54 1879.45 L2037.54 1858.54 L2061.43 1858.54 L2061.43 1837.62 L2085.31 1837.62 L2085.31 1795.67 L2109.07 1795.67 L2109.07 1785.27 L2132.95 1785.27 L2132.95 1764.36 L2156.72 1764.36 L2156.72 1722.41 L2180.60 1722.41 L2180.60 1701.49 L2204.36 1701.49 L2204.36 1690.97 L2228.24 1690.97 L2228.24 1659.66 L2252.13 1659.66 L2252.13 1649.14 L2275.89 1649.14 L2275.89 1638.62 L2299.77 1638.62 L2299.77 1617.71 L2323.53 1617.71 L2323.53 1607.19 L2347.41 1607.19 L2347.41 1607.19 L2371.30 1607.19 L2371.30 1575.76 L2395.06 1575.76 L2395.06 1575.76 L2418.94 1575.76 L2418.94 1565.36 L2442.70 1565.36 L2442.70 1544.45 L2466.59 1544.45 L2466.59 1523.41 L2490.34 1523.41 L2490.34 1502.50 L2514.23 1502.50 L2514.23 1460.54 L2538.11 1460.54 L2538.11 1429.11 L2561.87 1429.11 L2561.87 1408.20 L2585.76 1408.20 L2585.76 1397.68 L2609.52 1397.68 L2609.52 1387.28 L2633.40 1387.28 L2633.40 1387.28 L2657.28 1387.28 L2657.28 1387.28 L2681.04 1387.28 L2681.04 1376.76 L2704.93 1376.76 L2704.93 1376.76 L2728.69 1376.76 L2728.69 1376.76 L2752.57 1376.76 L2752.57 1376.76 L2776.45 1376.76 L2776.45 1376.76 L2800.22 1376.76 L2800.22 1366.24 L2824.10 1366.24 L2824.10 1366.24 L2847.86 1366.24 L2847.86 1366.24 L2871.74 1366.24 L2871.74 1345.33 L2895.50 1345.33 L2895.50 1334.81 L2943.27 1334.81 L2943.27 1334.81 L2967.03 1334.81 L2967.03 1324.41 L2990.91 1324.41 L2990.91 1324.41 L3014.67 1324.41 L3014.67 1313.89 L3038.56 1313.89 L3038.56 1303.38 L3062.44 1303.38 L3062.44 1292.86 L3086.20 1292.86 L3086.20 1282.46 L3110.09 1282.46 L3110.09 1282.46 L3133.84 1282.46 L3133.84 1282.46 L3157.73 1282.46 L3157.73 1282.46 L3181.61 1282.46 L3181.61 1282.46 L3205.37 1282.46 L3205.37 1271.94 L3229.26 1271.94 L3229.26 1271.94 L3253.02 1271.94 L3253.02 1271.94 L3276.90 1271.94 L3276.90 1271.94 L3300.66 1271.94 L3300.66 1271.94 L3324.54 1271.94 L3324.54 1271.94 L3348.43 1271.94 L3348.43 1261.42 L3372.19 1261.42 L3372.19 1261.42 L3396.07 1261.42 L3396.07 1251.03 L3419.83 1251.03 L3419.83 1251.03 L3443.72 1251.03 L3443.72 1240.51 L3467.60 1240.51 L3467.60 1240.51 L3491.36 1240.51 L3491.36 1240.51 L3515.24 1240.51 L3515.24 1240.51 L3539.00 1240.51 L3539.00 1240.51 L3562.89 1240.51 L3562.89 1240.51 L3586.77 1240.51 L3586.77 1240.51 L3610.53 1240.51 L3610.53 1229.99 L3634.41 1229.99 L3634.41 1229.99 L3658.17 1229.99 L3658.17 1229.99" stroke-linejoin="round" style="fill:none;stroke:#E37E00;stroke-width:8.64"/>
	<line x1="1092.46" y1="2162.60" x2="1092.46" y2="630.90" style="stroke:#000000;stroke-width:5.76"/>
	<line x1="1092.46" y1="2099.24" x2="1052.49" y2="2099.24" style="stroke:#000000;stroke-width:5.76"/>
	<text x="1032.45" y="2127.25" style="font-family:'Helvetica';font-size:79.94px;fill:#000000" text-anchor="end">0.0000</text>
	<line x1="1092.46" y1="1396.69" x2="1052.49" y2="1396.69" style="stroke:#000000;stroke-width:5.76"/>
	<text x="1032.45" y="1424.70" style="font-family:'Helvetica';font-size:79.94px;fill:#000000" text-anchor="end">0.0005</text>
	<line x1="1092.46" y1="694.26" x2="1052.49" y2="694.26" style="stroke:#000000;stroke-width:5.76"/>
	<text x="1032.45" y="722.27" style="font-family:'Helvetica';font-size:79.94px;fill:#000000" text-anchor="end">0.0010</text>
	<text x="1155.83" y="2747.83" style="font-family:'Helvetica';font-size:60.02px;fill:#000000" text-anchor="middle">134402</text>
	<text x="1632.51" y="2747.83" style="font-family:'Helvetica';font-size:60.02px;fill:#000000" text-anchor="middle">134302</text>
	<text x="2109.20" y="2747.83" style="font-family:'Helvetica';font-size:60.02px;fill:#000000" text-anchor="middle">134155</text>
	<text x="2585.76" y="2747.83" style="font-family:'Helvetica';font-size:60.02px;fill:#000000" text-anchor="middle">134030</text>
	<text x="3062.44" y="2747.83" style="font-family:'Helvetica';font-size:60.02px;fill:#000000" text-anchor="middle">133962</text>
	<text x="3539.13" y="2747.83" style="font-family:'Helvetica';font-size:60.02px;fill:#000000" text-anchor="middle">133873</text>
	<text x="1024.77" y="2747.83" style="font-family:'Helvetica';font-size:60.02px;fill:#000000" text-anchor="end">Other NSAIDs</text>
	<text x="1155.83" y="2674.44" style="font-family:'Helvetica';font-size:60.02px;fill:#000000" text-anchor="middle">292365</text>
	<text x="1632.51" y="2674.44" style="font-family:'Helvetica';font-size:60.02px;fill:#000000" text-anchor="middle">292280</text>
	<text x="2109.20" y="2674.44" style="font-family:'Helvetica';font-size:60.02px;fill:#000000" text-anchor="middle">292158</text>
	<text x="2585.76" y="2674.44" style="font-family:'Helvetica';font-size:60.02px;fill:#000000" text-anchor="middle">292045</text>
	<text x="3062.44" y="2674.44" style="font-family:'Helvetica';font-size:60.02px;fill:#000000" text-anchor="middle">291969</text>
	<text x="3539.13" y="2674.44" style="font-family:'Helvetica';font-size:60.02px;fill:#000000" text-anchor="middle">291882</text>
	<text x="1024.77" y="2674.44" style="font-family:'Helvetica';font-size:60.02px;fill:#000000" text-anchor="end">Naproxen high dose</text>
	<text x="1155.83" y="2601.18" style="font-family:'Helvetica';font-size:60.02px;fill:#000000" text-anchor="middle">109656</text>
	<text x="1632.51" y="2601.18" style="font-family:'Helvetica';font-size:60.02px;fill:#000000" text-anchor="middle">109612</text>
	<text x="2109.20" y="2601.18" style="font-family:'Helvetica';font-size:60.02px;fill:#000000" text-anchor="middle">109556</text>
	<text x="2585.76" y="2601.18" style="font-family:'Helvetica';font-size:60.02px;fill:#000000" text-anchor="middle">109488</text>
	<text x="3062.44" y="2601.18" style="font-family:'Helvetica';font-size:60.02px;fill:#000000" text-anchor="middle">109442</text>
	<text x="3539.13" y="2601.18" style="font-family:'Helvetica';font-size:60.02px;fill:#000000" text-anchor="middle">109412</text>
	<text x="1024.77" y="2601.18" style="font-family:'Helvetica';font-size:60.02px;fill:#000000" text-anchor="end">Naproxen low dose</text>
	<text x="1155.83" y="2527.80" style="font-family:'Helvetica';font-size:60.02px;fill:#000000" text-anchor="middle">1927284</text>
	<text x="1632.51" y="2527.80" style="font-family:'Helvetica';font-size:60.02px;fill:#000000" text-anchor="middle">1899287</text>
	<text x="2109.20" y="2527.80" style="font-family:'Helvetica';font-size:60.02px;fill:#000000" text-anchor="middle">1883440</text>
	<text x="2585.76" y="2527.80" style="font-family:'Helvetica';font-size:60.02px;fill:#000000" text-anchor="middle">1866767</text>
	<text x="3062.44" y="2527.80" style="font-family:'Helvetica';font-size:60.02px;fill:#000000" text-anchor="middle">1848969</text>
	<text x="3539.13" y="2527.80" style="font-family:'Helvetica';font-size:60.02px;fill:#000000" text-anchor="middle">1831980</text>
	<text x="1024.77" y="2527.80" style="font-family:'Helvetica';font-size:60.02px;fill:#000000" text-anchor="end">Non-current exposure to NSAIDs</text>
	<text x="1024.77" y="2454.53" style="font-family:'Helvetica';font-size:60.02px;fill:#000000" text-anchor="end">Number at risk</text>
	<line x1="1092.46" y1="2162.60" x2="3840.83" y2="2162.60" style="stroke:#000000;stroke-width:5.76"/>
	<line x1="1155.83" y1="2162.60" x2="1155.83" y2="2202.57" style="stroke:#000000;stroke-width:5.76"/>
	<text x="1155.83" y="2278.52" style="font-family:'Helvetica';font-size:79.94px;fill:#000000" text-anchor="middle">0</text>
	<line x1="1632.51" y1="2162.60" x2="1632.51" y2="2202.57" style="stroke:#000000;stroke-width:5.76"/>
	<text x="1632.51" y="2278.52" style="font-family:'Helvetica';font-size:79.94px;fill:#000000" text-anchor="middle">20</text>
	<line x1="2109.20" y1="2162.60" x2="2109.20" y2="2202.57" style="stroke:#000000;stroke-width:5.76"/>
	<text x="2109.20" y="2278.52" style="font-family:'Helvetica';font-size:79.94px;fill:#000000" text-anchor="middle">40</text>
	<line x1="2585.76" y1="2162.60" x2="2585.76" y2="2202.57" style="stroke:#000000;stroke-width:5.76"/>
	<text x="2585.76" y="2278.52" style="font-family:'Helvetica';font-size:79.94px;fill:#000000" text-anchor="middle">60</text>
	<line x1="3062.44" y1="2162.60" x2="3062.44" y2="2202.57" style="stroke:#000000;stroke-width:5.76"/>
	<text x="3062.44" y="2278.52" style="font-family:'Helvetica';font-size:79.94px;fill:#000000" text-anchor="middle">80</text>
	<line x1="3539.13" y1="2162.60" x2="3539.13" y2="2202.57" style="stroke:#000000;stroke-width:5.76"/>
	<text x="3539.13" y="2278.52" style="font-family:'Helvetica';font-size:79.94px;fill:#000000" text-anchor="middle">100</text>
	<text x="2466.59" y="2368.49" style="font-family:'Helvetica';font-size:79.94px;fill:#000000" text-anchor="middle">Days since 1 Mar 2020</text>
	<rect x="1200.75" y="269.91" width="2531.80" height="326.46" style="fill:#FFFFFF"/>
	<rect x="1203.63" y="272.79" width="2526.04" height="320.70" style="fill:none;stroke:#EAF2F3;stroke-width:5.76"/>
	<line x1="1243.93" y1="363.09" x2="1618.28" y2="363.09" style="stroke:#1A476F;stroke-width:8.64"/>
	<line x1="2724.73" y1="363.09" x2="3099.20" y2="363.09" style="stroke:#90353B;stroke-width:8.64"/>
	<line x1="1243.93" y1="503.06" x2="1618.28" y2="503.06" style="stroke:#55752F;stroke-width:8.64"/>
	<line x1="2724.73" y1="503.06" x2="3099.20" y2="503.06" style="stroke:#E37E00;stroke-width:8.64"/>
	<text x="1678.30" y="384.13" style="font-family:'Helvetica';font-size:60.02px;fill:#000000">Non-current exposure to NSAIDs</text>
	<text x="3159.09" y="384.13" style="font-family:'Helvetica';font-size:60.02px;fill:#000000">Naproxen low dose</text>
	<text x="1678.30" y="524.10" style="font-family:'Helvetica';font-size:60.02px;fill:#000000">Naproxen high dose</text>
	<text x="3159.09" y="524.10" style="font-family:'Helvetica';font-size:60.02px;fill:#000000">Other NSAIDs</text>
	<text x="1746.24" y="187.99" style="font-family:'Helvetica';font-size:99.99px;fill:#1E2D53">Time to death, nsaid population</text>
</svg>
