<?xml version="1.0" encoding="UTF-8" standalone="no"?>
<!-- This is a Stata 16.1 generated SVG file (http://www.stata.com) -->

<svg version="1.1" width="5.50in" height="4.00in" viewBox="0 0 3960 2880" xmlns="http://www.w3.org/2000/svg" xmlns:xlink="http://www.w3.org/1999/xlink">
	<desc>Stata Graph - Graph</desc>
	<rect x="0" y="0" width="3960" height="2880" style="fill:#EAF2F3;stroke:none"/>
	<rect x="0.00" y="0.00" width="3959.88" height="2880.00" style="fill:#FFFFFF"/>
	<rect x="2.88" y="2.88" width="3954.12" height="2874.24" style="fill:none;stroke:#EAF2F3;stroke-width:5.76"/>
	<rect x="1038.88" y="490.93" width="2802.94" height="1818.32" style="fill:#FFFFFF"/>
	<rect x="1041.76" y="493.81" width="2797.18" height="1812.56" style="fill:none;stroke:#FFFFFF;stroke-width:5.76"/>
	<line x1="1038.88" y1="2245.89" x2="3841.82" y2="2245.89" style="stroke:#EAF2F3;stroke-width:8.64"/>
	<line x1="1038.88" y1="1907.54" x2="3841.82" y2="1907.54" style="stroke:#EAF2F3;stroke-width:8.64"/>
	<line x1="1038.88" y1="1569.20" x2="3841.82" y2="1569.20" style="stroke:#EAF2F3;stroke-width:8.64"/>
	<line x1="1038.88" y1="1230.86" x2="3841.82" y2="1230.86" style="stroke:#EAF2F3;stroke-width:8.64"/>
	<line x1="1038.88" y1="892.51" x2="3841.82" y2="892.51" style="stroke:#EAF2F3;stroke-width:8.64"/>
	<path d=" M1102.24 2246.01 L1102.24 2246.01 L1102.24 2246.01 L1126.62 2246.01 L1126.62 2245.76 L1150.88 2245.76 L1150.88 2245.76 L1175.25 2245.76 L1175.25 2245.76 L1199.51 2245.76 L1199.51 2245.76 L1223.89 2245.76 L1223.89 2245.76 L1248.27 2245.76 L1248.27 2245.76 L1272.52 2245.76 L1272.52 2245.76 L1296.90 2245.76 L1296.90 2245.76 L1321.15 2245.76 L1321.15 2245.76 L1345.53 2245.76 L1345.53 2245.76 L1369.79 2245.76 L1369.79 2245.76 L1394.17 2245.76 L1394.17 2245.76 L1418.55 2245.76 L1418.55 2245.76 L1442.80 2245.76 L1442.80 2245.76 L1467.18 2245.76 L1467.18 2245.51 L1491.43 2245.51 L1491.43 2245.27 L1515.81 2245.27 L1515.81 2244.90 L1540.19 2244.90 L1540.19 2244.90 L1564.45 2244.90 L1564.45 2244.65 L1588.83 2244.65 L1588.83 2243.53 L1613.08 2243.53 L1613.08 2242.42 L1637.46 2242.42 L1637.46 2241.31 L1661.84 2241.31 L1661.84 2238.58 L1686.09 2238.58 L1686.09 2236.36 L1710.47 2236.36 L1710.47 2232.89 L1734.73 2232.89 L1734.73 2228.81 L1759.11 2228.81 L1759.11 2225.22 L1783.48 2225.22 L1783.48 2220.64 L1807.74 2220.64 L1807.74 2213.71 L1832.12 2213.71 L1832.12 2207.27 L1856.37 2207.27 L1856.37 2198.36 L1880.75 2198.36 L1880.75 2190.94 L1905.13 2190.94 L1905.13 2178.32 L1929.39 2178.32 L1929.39 2165.57 L1953.77 2165.57 L1953.77 2153.32 L1978.02 2153.32 L1978.02 2144.41 L2002.40 2144.41 L2002.40 2131.04 L2026.78 2131.04 L2026.78 2114.95 L2051.03 2114.95 L2051.03 2103.82 L2075.41 2103.82 L2075.41 2088.35 L2099.67 2088.35 L2099.67 2075.85 L2124.05 2075.85 L2124.05 2062.23 L2148.30 2062.23 L2148.30 2051.47 L2172.68 2051.47 L2172.68 2039.22 L2197.06 2039.22 L2197.06 2028.45 L2221.31 2028.45 L2221.31 2017.56 L2245.69 2017.56 L2245.69 2004.07 L2269.95 2004.07 L2269.95 1992.44 L2294.32 1992.44 L2294.32 1980.19 L2318.70 1980.19 L2318.70 1968.55 L2342.96 1968.55 L2342.96 1958.90 L2367.34 1958.90 L2367.34 1947.51 L2391.59 1947.51 L2391.59 1937.61 L2415.97 1937.61 L2415.97 1930.07 L2440.35 1930.07 L2440.35 1921.77 L2464.61 1921.77 L2464.61 1911.63 L2488.98 1911.63 L2488.98 1903.09 L2513.24 1903.09 L2513.24 1892.57 L2537.62 1892.57 L2537.62 1883.78 L2562.00 1883.78 L2562.00 1876.36 L2586.25 1876.36 L2586.25 1867.45 L2610.63 1867.45 L2610.63 1859.53 L2634.89 1859.53 L2634.89 1849.87 L2659.26 1849.87 L2659.26 1842.70 L2683.64 1842.70 L2683.64 1836.63 L2707.90 1836.63 L2707.90 1830.32 L2732.28 1830.32 L2732.28 1825.37 L2756.53 1825.37 L2756.53 1819.80 L2780.91 1819.80 L2780.91 1812.75 L2805.16 1812.75 L2805.16 1808.91 L2829.54 1808.91 L2829.54 1802.85 L2853.92 1802.85 L2853.92 1799.26 L2878.18 1799.26 L2878.18 1793.44 L2902.56 1793.44 L2902.56 1789.85 L2926.81 1789.85 L2926.81 1785.03 L2951.19 1785.03 L2951.19 1779.83 L2975.57 1779.83 L2975.57 1775.99 L2999.82 1775.99 L2999.82 1770.42 L3024.20 1770.42 L3024.20 1766.59 L3048.46 1766.59 L3048.46 1762.01 L3072.84 1762.01 L3072.84 1757.55 L3097.22 1757.55 L3097.22 1754.09 L3121.47 1754.09 L3121.47 1749.14 L3145.85 1749.14 L3145.85 1746.04 L3170.10 1746.04 L3170.10 1740.85 L3194.48 1740.85 L3194.48 1735.65 L3218.86 1735.65 L3218.86 1732.93 L3243.12 1732.93 L3243.12 1729.46 L3267.49 1729.46 L3267.49 1727.23 L3291.75 1727.23 L3291.75 1725.62 L3316.13 1725.62 L3316.13 1723.77 L3340.51 1723.77 L3340.51 1721.29 L3364.76 1721.29 L3364.76 1720.18 L3389.14 1720.18 L3389.14 1717.46 L3413.40 1717.46 L3413.40 1714.73 L3437.78 1714.73 L3437.78 1712.88 L3462.15 1712.88 L3462.15 1711.39 L3486.41 1711.39 L3486.41 1709.04 L3510.79 1709.04 L3510.79 1707.43 L3535.04 1707.43 L3535.04 1705.70 L3559.42 1705.70 L3559.42 1704.09 L3583.68 1704.09 L3583.68 1701.99 L3608.05 1701.99 L3608.05 1701.12 L3632.43 1701.12 L3632.43 1700.01 L3656.69 1700.01 L3656.69 1698.89" stroke-linejoin="round" style="fill:none;stroke:#1A476F;stroke-width:8.64"/>
	<path d=" M1102.24 2246.01 L1102.24 2246.01 L1102.24 2246.01 L1126.62 2246.01 L1126.62 2246.01 L1150.88 2246.01 L1150.88 2246.01 L1175.25 2246.01 L1175.25 2246.01 L1199.51 2246.01 L1199.51 2246.01 L1223.89 2246.01 L1223.89 2246.01 L1248.27 2246.01 L1248.27 2246.01 L1272.52 2246.01 L1272.52 2246.01 L1296.90 2246.01 L1296.90 2246.01 L1321.15 2246.01 L1321.15 2246.01 L1345.53 2246.01 L1345.53 2246.01 L1369.79 2246.01 L1369.79 2246.01 L1394.17 2246.01 L1394.17 2246.01 L1418.55 2246.01 L1418.55 2246.01 L1442.80 2246.01 L1442.80 2246.01 L1467.18 2246.01 L1467.18 2246.01 L1491.43 2246.01 L1491.43 2246.01 L1515.81 2246.01 L1515.81 2246.01 L1540.19 2246.01 L1540.19 2246.01 L1564.45 2246.01 L1564.45 2246.01 L1588.83 2246.01 L1588.83 2246.01 L1613.08 2246.01 L1613.08 2244.03 L1637.46 2244.03 L1637.46 2242.05 L1661.84 2242.05 L1661.84 2240.07 L1686.09 2240.07 L1686.09 2238.21 L1710.47 2238.21 L1710.47 2238.21 L1734.73 2238.21 L1734.73 2238.21 L1759.11 2238.21 L1759.11 2238.21 L1783.48 2238.21 L1783.48 2238.21 L1807.74 2238.21 L1807.74 2232.40 L1832.12 2232.40 L1832.12 2230.42 L1856.37 2230.42 L1856.37 2222.62 L1880.75 2222.62 L1880.75 2220.64 L1905.13 2220.64 L1905.13 2212.84 L1929.39 2212.84 L1929.39 2209.01 L1953.77 2209.01 L1953.77 2203.19 L1978.02 2203.19 L1978.02 2199.23 L2002.40 2199.23 L2002.40 2189.58 L2026.78 2189.58 L2026.78 2183.76 L2051.03 2183.76 L2051.03 2172.00 L2075.41 2172.00 L2075.41 2162.35 L2099.67 2162.35 L2099.67 2158.39 L2124.05 2158.39 L2124.05 2146.76 L2148.30 2146.76 L2148.30 2142.80 L2172.68 2142.80 L2172.68 2140.94 L2197.06 2140.94 L2197.06 2136.98 L2221.31 2136.98 L2221.31 2135.00 L2245.69 2135.00 L2245.69 2131.17 L2269.95 2131.17 L2269.95 2127.33 L2294.32 2127.33 L2294.32 2119.53 L2318.70 2119.53 L2318.70 2111.74 L2342.96 2111.74 L2342.96 2105.80 L2367.34 2105.80 L2367.34 2105.80 L2391.59 2105.80 L2391.59 2101.96 L2415.97 2101.96 L2415.97 2098.12 L2440.35 2098.12 L2440.35 2096.14 L2464.61 2096.14 L2464.61 2090.33 L2488.98 2090.33 L2488.98 2080.55 L2513.24 2080.55 L2513.24 2074.73 L2537.62 2074.73 L2537.62 2070.77 L2562.00 2070.77 L2562.00 2068.92 L2610.63 2068.92 L2610.63 2068.92 L2634.89 2068.92 L2634.89 2066.94 L2659.26 2066.94 L2659.26 2062.98 L2683.64 2062.98 L2683.64 2055.18 L2707.90 2055.18 L2707.90 2055.18 L2732.28 2055.18 L2732.28 2053.32 L2756.53 2053.32 L2756.53 2053.32 L2780.91 2053.32 L2780.91 2049.36 L2805.16 2049.36 L2805.16 2049.36 L2829.54 2049.36 L2829.54 2049.36 L2853.92 2049.36 L2853.92 2043.55 L2878.18 2043.55 L2878.18 2041.57 L2902.56 2041.57 L2902.56 2039.71 L2926.81 2039.71 L2926.81 2039.71 L2951.19 2039.71 L2951.19 2037.73 L2975.57 2037.73 L2975.57 2035.75 L2999.82 2035.75 L2999.82 2031.91 L3024.20 2031.91 L3024.20 2031.91 L3048.46 2031.91 L3048.46 2027.95 L3072.84 2027.95 L3072.84 2027.95 L3097.22 2027.95 L3097.22 2027.95 L3121.47 2027.95 L3121.47 2027.95 L3145.85 2027.95 L3145.85 2027.95 L3170.10 2027.95 L3170.10 2025.97 L3194.48 2025.97 L3194.48 2024.12 L3218.86 2024.12 L3218.86 2024.12 L3243.12 2024.12 L3243.12 2024.12 L3267.49 2024.12 L3267.49 2024.12 L3291.75 2024.12 L3291.75 2024.12 L3316.13 2024.12 L3316.13 2024.12 L3340.51 2024.12 L3340.51 2022.14 L3364.76 2022.14 L3364.76 2022.14 L3389.14 2022.14 L3389.14 2018.18 L3437.78 2018.18 L3437.78 2016.32 L3462.15 2016.32 L3462.15 2014.34 L3486.41 2014.34 L3486.41 2014.34 L3510.79 2014.34 L3510.79 2014.34 L3535.04 2014.34 L3535.04 2014.34 L3559.42 2014.34 L3559.42 2014.34 L3583.68 2014.34 L3583.68 2014.34 L3608.05 2014.34 L3608.05 2010.38 L3632.43 2010.38 L3632.43 2010.38 L3656.69 2010.38 L3656.69 2008.53" stroke-linejoin="round" style="fill:none;stroke:#90353B;stroke-width:8.64"/>
	<line x1="1038.88" y1="2309.25" x2="1038.88" y2="490.93" style="stroke:#000000;stroke-width:5.76"/>
	<line x1="1038.88" y1="2245.89" x2="998.91" y2="2245.89" style="stroke:#000000;stroke-width:5.76"/>
	<text x="978.99" y="2273.90" style="font-family:'Helvetica';font-size:79.94px;fill:#000000" text-anchor="end">0.000</text>
	<line x1="1038.88" y1="1907.54" x2="998.91" y2="1907.54" style="stroke:#000000;stroke-width:5.76"/>
	<text x="978.99" y="1935.55" style="font-family:'Helvetica';font-size:79.94px;fill:#000000" text-anchor="end">0.001</text>
	<line x1="1038.88" y1="1569.20" x2="998.91" y2="1569.20" style="stroke:#000000;stroke-width:5.76"/>
	<text x="978.99" y="1597.21" style="font-family:'Helvetica';font-size:79.94px;fill:#000000" text-anchor="end">0.002</text>
	<line x1="1038.88" y1="1230.86" x2="998.91" y2="1230.86" style="stroke:#000000;stroke-width:5.76"/>
	<text x="978.99" y="1258.87" style="font-family:'Helvetica';font-size:79.94px;fill:#000000" text-anchor="end">0.003</text>
	<line x1="1038.88" y1="892.51" x2="998.91" y2="892.51" style="stroke:#000000;stroke-width:5.76"/>
	<text x="978.99" y="920.52" style="font-family:'Helvetica';font-size:79.94px;fill:#000000" text-anchor="end">0.004</text>
	<line x1="1038.88" y1="554.29" x2="998.91" y2="554.29" style="stroke:#000000;stroke-width:5.76"/>
	<text x="978.99" y="582.31" style="font-family:'Helvetica';font-size:79.94px;fill:#000000" text-anchor="end">0.005</text>
	<text x="1102.24" y="2747.83" style="font-family:'Helvetica';font-size:60.02px;fill:#000000" text-anchor="middle">174081</text>
	<text x="1588.83" y="2747.83" style="font-family:'Helvetica';font-size:60.02px;fill:#000000" text-anchor="middle">173981</text>
	<text x="2075.41" y="2747.83" style="font-family:'Helvetica';font-size:60.02px;fill:#000000" text-anchor="middle">173828</text>
	<text x="2562.00" y="2747.83" style="font-family:'Helvetica';font-size:60.02px;fill:#000000" text-anchor="middle">173679</text>
	<text x="3048.58" y="2747.83" style="font-family:'Helvetica';font-size:60.02px;fill:#000000" text-anchor="middle">173587</text>
	<text x="3535.17" y="2747.83" style="font-family:'Helvetica';font-size:60.02px;fill:#000000" text-anchor="middle">173497</text>
	<text x="968.47" y="2747.83" style="font-family:'Helvetica';font-size:60.02px;fill:#000000" text-anchor="end">Current exposure to NSAIDs</text>
	<text x="1102.24" y="2674.44" style="font-family:'Helvetica';font-size:60.02px;fill:#000000" text-anchor="middle">1535421</text>
	<text x="1588.83" y="2674.44" style="font-family:'Helvetica';font-size:60.02px;fill:#000000" text-anchor="middle">1522867</text>
	<text x="2075.41" y="2674.44" style="font-family:'Helvetica';font-size:60.02px;fill:#000000" text-anchor="middle">1514566</text>
	<text x="2562.00" y="2674.44" style="font-family:'Helvetica';font-size:60.02px;fill:#000000" text-anchor="middle">1505264</text>
	<text x="3048.58" y="2674.44" style="font-family:'Helvetica';font-size:60.02px;fill:#000000" text-anchor="middle">1495945</text>
	<text x="3535.17" y="2674.44" style="font-family:'Helvetica';font-size:60.02px;fill:#000000" text-anchor="middle">1486965</text>
	<text x="968.47" y="2674.44" style="font-family:'Helvetica';font-size:60.02px;fill:#000000" text-anchor="end">Non-current exposure to NSAIDs</text>
	<text x="968.47" y="2601.18" style="font-family:'Helvetica';font-size:60.02px;fill:#000000" text-anchor="end">Number at risk</text>
	<line x1="1038.88" y1="2309.25" x2="3841.82" y2="2309.25" style="stroke:#000000;stroke-width:5.76"/>
	<line x1="1102.24" y1="2309.25" x2="1102.24" y2="2349.22" style="stroke:#000000;stroke-width:5.76"/>
	<text x="1102.24" y="2425.17" style="font-family:'Helvetica';font-size:79.94px;fill:#000000" text-anchor="middle">0</text>
	<line x1="1588.83" y1="2309.25" x2="1588.83" y2="2349.22" style="stroke:#000000;stroke-width:5.76"/>
	<text x="1588.83" y="2425.17" style="font-family:'Helvetica';font-size:79.94px;fill:#000000" text-anchor="middle">20</text>
	<line x1="2075.41" y1="2309.25" x2="2075.41" y2="2349.22" style="stroke:#000000;stroke-width:5.76"/>
	<text x="2075.41" y="2425.17" style="font-family:'Helvetica';font-size:79.94px;fill:#000000" text-anchor="middle">40</text>
	<line x1="2562.00" y1="2309.25" x2="2562.00" y2="2349.22" style="stroke:#000000;stroke-width:5.76"/>
	<text x="2562.00" y="2425.17" style="font-family:'Helvetica';font-size:79.94px;fill:#000000" text-anchor="middle">60</text>
	<line x1="3048.58" y1="2309.25" x2="3048.58" y2="2349.22" style="stroke:#000000;stroke-width:5.76"/>
	<text x="3048.58" y="2425.17" style="font-family:'Helvetica';font-size:79.94px;fill:#000000" text-anchor="middle">80</text>
	<line x1="3535.17" y1="2309.25" x2="3535.17" y2="2349.22" style="stroke:#000000;stroke-width:5.76"/>
	<text x="3535.17" y="2425.17" style="font-family:'Helvetica';font-size:79.94px;fill:#000000" text-anchor="middle">100</text>
	<text x="2440.35" y="2515.14" style="font-family:'Helvetica';font-size:79.94px;fill:#000000" text-anchor="middle">Days since 1 Mar 2020</text>
	<rect x="1073.53" y="269.91" width="2733.64" height="186.37" style="fill:#FFFFFF"/>
	<rect x="1076.41" y="272.79" width="2727.88" height="180.61" style="fill:none;stroke:#EAF2F3;stroke-width:5.76"/>
	<line x1="1116.72" y1="363.09" x2="1483.64" y2="363.09" style="stroke:#90353B;stroke-width:8.64"/>
	<line x1="2449.76" y1="363.09" x2="2816.80" y2="363.09" style="stroke:#1A476F;stroke-width:8.64"/>
	<text x="1542.42" y="384.13" style="font-family:'Helvetica';font-size:60.02px;fill:#000000">Current exposure to NSAIDs</text>
	<text x="2875.58" y="384.13" style="font-family:'Helvetica';font-size:60.02px;fill:#000000">Non-current exposure to NSAIDs</text>
	<text x="1056.21" y="187.99" style="font-family:'Helvetica';font-size:99.99px;fill:#1E2D53">Time to death, Rheumatoid_arthritis_&amp;_osteoarthritis population</text>
</svg>
