<?xml version="1.0" encoding="UTF-8" standalone="no"?>
<!-- This is a Stata 16.1 generated SVG file (http://www.stata.com) -->

<svg version="1.1" width="5.50in" height="4.00in" viewBox="0 0 3960 2880" xmlns="http://www.w3.org/2000/svg" xmlns:xlink="http://www.w3.org/1999/xlink">
	<desc>Stata Graph - Graph</desc>
	<rect x="0" y="0" width="3960" height="2880" style="fill:#EAF2F3;stroke:none"/>
	<rect x="0.00" y="0.00" width="3959.88" height="2880.00" style="fill:#FFFFFF"/>
	<rect x="2.88" y="2.88" width="3954.12" height="2874.24" style="fill:none;stroke:#EAF2F3;stroke-width:5.76"/>
	<rect x="1038.88" y="490.93" width="2802.94" height="1818.32" style="fill:#FFFFFF"/>
	<rect x="1041.76" y="493.81" width="2797.18" height="1812.56" style="fill:none;stroke:#FFFFFF;stroke-width:5.76"/>
	<line x1="1038.88" y1="2245.89" x2="3841.82" y2="2245.89" style="stroke:#EAF2F3;stroke-width:8.64"/>
	<line x1="1038.88" y1="1907.54" x2="3841.82" y2="1907.54" style="stroke:#EAF2F3;stroke-width:8.64"/>
	<line x1="1038.88" y1="1569.20" x2="3841.82" y2="1569.20" style="stroke:#EAF2F3;stroke-width:8.64"/>
	<line x1="1038.88" y1="1230.86" x2="3841.82" y2="1230.86" style="stroke:#EAF2F3;stroke-width:8.64"/>
	<line x1="1038.88" y1="892.51" x2="3841.82" y2="892.51" style="stroke:#EAF2F3;stroke-width:8.64"/>
	<path d=" M1102.24 2246.01 L1102.24 2246.01 L1102.24 2246.01 L1126.62 2246.01 L1126.62 2245.76 L1150.88 2245.76 L1150.88 2245.76 L1175.25 2245.76 L1175.25 2245.76 L1199.51 2245.76 L1199.51 2245.76 L1223.89 2245.76 L1223.89 2245.76 L1248.27 2245.76 L1248.27 2245.76 L1272.52 2245.76 L1272.52 2245.76 L1296.90 2245.76 L1296.90 2245.76 L1321.15 2245.76 L1321.15 2245.76 L1345.53 2245.76 L1345.53 2245.76 L1369.79 2245.76 L1369.79 2245.76 L1394.17 2245.76 L1394.17 2245.76 L1418.55 2245.76 L1418.55 2245.76 L1442.80 2245.76 L1442.80 2245.76 L1467.18 2245.76 L1467.18 2245.51 L1491.43 2245.51 L1491.43 2245.27 L1515.81 2245.27 L1515.81 2244.90 L1540.19 2244.90 L1540.19 2244.90 L1564.45 2244.90 L1564.45 2244.65 L1588.83 2244.65 L1588.83 2243.53 L1613.08 2243.53 L1613.08 2242.54 L1637.46 2242.54 L1637.46 2241.18 L1661.84 2241.18 L1661.84 2238.58 L1686.09 2238.58 L1686.09 2236.48 L1710.47 2236.48 L1710.47 2233.01 L1734.73 2233.01 L1734.73 2229.05 L1759.11 2229.05 L1759.11 2225.59 L1783.48 2225.59 L1783.48 2221.13 L1807.74 2221.13 L1807.74 2214.20 L1832.12 2214.20 L1832.12 2207.65 L1856.37 2207.65 L1856.37 2198.86 L1880.75 2198.86 L1880.75 2191.43 L1905.13 2191.43 L1905.13 2178.93 L1929.39 2178.93 L1929.39 2166.31 L1953.77 2166.31 L1953.77 2153.94 L1978.02 2153.94 L1978.02 2145.27 L2002.40 2145.27 L2002.40 2132.16 L2026.78 2132.16 L2026.78 2116.07 L2051.03 2116.07 L2051.03 2105.05 L2075.41 2105.05 L2075.41 2089.21 L2099.67 2089.21 L2099.67 2076.96 L2124.05 2076.96 L2124.05 2063.10 L2148.30 2063.10 L2148.30 2052.46 L2172.68 2052.46 L2172.68 2040.58 L2197.06 2040.58 L2197.06 2029.93 L2221.31 2029.93 L2221.31 2019.29 L2245.69 2019.29 L2245.69 2006.30 L2269.95 2006.30 L2269.95 1994.66 L2294.32 1994.66 L2294.32 1982.78 L2318.70 1982.78 L2318.70 1971.03 L2342.96 1971.03 L2342.96 1961.00 L2367.34 1961.00 L2367.34 1949.87 L2391.59 1949.87 L2391.59 1940.34 L2415.97 1940.34 L2415.97 1932.91 L2440.35 1932.91 L2440.35 1924.87 L2464.61 1924.87 L2464.61 1915.09 L2488.98 1915.09 L2488.98 1906.80 L2513.24 1906.80 L2513.24 1896.40 L2537.62 1896.40 L2537.62 1887.87 L2562.00 1887.87 L2562.00 1880.69 L2586.25 1880.69 L2586.25 1871.90 L2610.63 1871.90 L2610.63 1864.23 L2634.89 1864.23 L2634.89 1854.70 L2659.26 1854.70 L2659.26 1847.65 L2683.64 1847.65 L2683.64 1841.83 L2707.90 1841.83 L2707.90 1835.64 L2732.28 1835.64 L2732.28 1830.81 L2756.53 1830.81 L2756.53 1825.37 L2780.91 1825.37 L2780.91 1818.56 L2805.16 1818.56 L2805.16 1814.85 L2829.54 1814.85 L2829.54 1809.03 L2853.92 1809.03 L2853.92 1805.45 L2878.18 1805.45 L2878.18 1799.75 L2902.56 1799.75 L2902.56 1796.29 L2926.81 1796.29 L2926.81 1791.71 L2951.19 1791.71 L2951.19 1786.63 L2975.57 1786.63 L2975.57 1782.92 L2999.82 1782.92 L2999.82 1777.23 L3024.20 1777.23 L3024.20 1773.52 L3048.46 1773.52 L3048.46 1769.19 L3072.84 1769.19 L3072.84 1764.73 L3097.22 1764.73 L3097.22 1761.39 L3121.47 1761.39 L3121.47 1756.56 L3145.85 1756.56 L3145.85 1753.59 L3170.10 1753.59 L3170.10 1748.52 L3194.48 1748.52 L3194.48 1743.20 L3218.86 1743.20 L3218.86 1740.60 L3243.12 1740.60 L3243.12 1737.26 L3267.49 1737.26 L3267.49 1735.03 L3291.75 1735.03 L3291.75 1733.54 L3316.13 1733.54 L3316.13 1731.81 L3340.51 1731.81 L3340.51 1729.34 L3364.76 1729.34 L3364.76 1728.22 L3389.14 1728.22 L3389.14 1725.62 L3413.40 1725.62 L3413.40 1723.03 L3437.78 1723.03 L3437.78 1721.17 L3462.15 1721.17 L3462.15 1719.44 L3486.41 1719.44 L3486.41 1717.21 L3510.79 1717.21 L3510.79 1715.72 L3535.04 1715.72 L3535.04 1713.99 L3559.42 1713.99 L3559.42 1712.38 L3583.68 1712.38 L3583.68 1710.40 L3608.05 1710.40 L3608.05 1709.54 L3632.43 1709.54 L3632.43 1708.42 L3656.69 1708.42 L3656.69 1707.06" stroke-linejoin="round" style="fill:none;stroke:#1A476F;stroke-width:8.64"/>
	<path d=" M1102.24 2246.01 L1102.24 2246.01 L1102.24 2246.01 L1126.62 2246.01 L1126.62 2246.01 L1150.88 2246.01 L1150.88 2246.01 L1175.25 2246.01 L1175.25 2246.01 L1199.51 2246.01 L1199.51 2246.01 L1223.89 2246.01 L1223.89 2246.01 L1248.27 2246.01 L1248.27 2246.01 L1272.52 2246.01 L1272.52 2246.01 L1296.90 2246.01 L1296.90 2246.01 L1321.15 2246.01 L1321.15 2246.01 L1345.53 2246.01 L1345.53 2246.01 L1369.79 2246.01 L1369.79 2246.01 L1394.17 2246.01 L1394.17 2246.01 L1418.55 2246.01 L1418.55 2246.01 L1442.80 2246.01 L1442.80 2246.01 L1467.18 2246.01 L1467.18 2246.01 L1491.43 2246.01 L1491.43 2246.01 L1515.81 2246.01 L1515.81 2246.01 L1540.19 2246.01 L1540.19 2246.01 L1564.45 2246.01 L1564.45 2246.01 L1588.83 2246.01 L1588.83 2246.01 L1613.08 2246.01 L1613.08 2243.41 L1637.46 2243.41 L1637.46 2243.41 L1661.84 2243.41 L1661.84 2240.81 L1686.09 2240.81 L1686.09 2238.21 L1710.47 2238.21 L1710.47 2238.21 L1734.73 2238.21 L1734.73 2238.21 L1759.11 2238.21 L1759.11 2238.21 L1783.48 2238.21 L1783.48 2238.21 L1807.74 2238.21 L1807.74 2233.01 L1832.12 2233.01 L1832.12 2233.01 L1856.37 2233.01 L1856.37 2225.34 L1880.75 2225.34 L1880.75 2225.34 L1905.13 2225.34 L1905.13 2217.55 L1929.39 2217.55 L1929.39 2214.95 L1953.77 2214.95 L1953.77 2212.35 L1978.02 2212.35 L1978.02 2207.27 L2002.40 2207.27 L2002.40 2196.88 L2026.78 2196.88 L2026.78 2194.28 L2051.03 2194.28 L2051.03 2178.81 L2075.41 2178.81 L2075.41 2176.21 L2099.67 2176.21 L2099.67 2171.01 L2124.05 2171.01 L2124.05 2163.34 L2148.30 2163.34 L2148.30 2160.74 L2172.68 2160.74 L2172.68 2158.14 L2197.06 2158.14 L2197.06 2155.54 L2221.31 2155.54 L2221.31 2152.95 L2245.69 2152.95 L2245.69 2147.75 L2269.95 2147.75 L2269.95 2145.27 L2294.32 2145.27 L2294.32 2134.88 L2318.70 2134.88 L2318.70 2129.68 L2342.96 2129.68 L2342.96 2129.68 L2367.34 2129.68 L2367.34 2129.68 L2391.59 2129.68 L2391.59 2124.61 L2415.97 2124.61 L2415.97 2119.41 L2440.35 2119.41 L2440.35 2116.81 L2464.61 2116.81 L2464.61 2109.01 L2488.98 2109.01 L2488.98 2096.14 L2513.24 2096.14 L2513.24 2090.95 L2537.62 2090.95 L2537.62 2085.75 L2562.00 2085.75 L2562.00 2083.15 L2610.63 2083.15 L2610.63 2083.15 L2634.89 2083.15 L2634.89 2083.15 L2659.26 2083.15 L2659.26 2078.07 L2683.64 2078.07 L2683.64 2067.68 L2707.90 2067.68 L2707.90 2067.68 L2732.28 2067.68 L2732.28 2065.08 L2756.53 2065.08 L2756.53 2065.08 L2780.91 2065.08 L2780.91 2059.88 L2805.16 2059.88 L2805.16 2059.88 L2829.54 2059.88 L2829.54 2059.88 L2853.92 2059.88 L2853.92 2052.21 L2878.18 2052.21 L2878.18 2049.61 L2902.56 2049.61 L2902.56 2047.01 L2926.81 2047.01 L2926.81 2047.01 L2951.19 2047.01 L2951.19 2044.41 L2975.57 2044.41 L2975.57 2041.82 L2999.82 2041.82 L2999.82 2039.22 L3024.20 2039.22 L3024.20 2039.22 L3048.46 2039.22 L3048.46 2034.14 L3072.84 2034.14 L3072.84 2034.14 L3097.22 2034.14 L3097.22 2034.14 L3121.47 2034.14 L3121.47 2034.14 L3145.85 2034.14 L3145.85 2034.14 L3170.10 2034.14 L3170.10 2031.54 L3194.48 2031.54 L3194.48 2031.54 L3218.86 2031.54 L3218.86 2031.54 L3243.12 2031.54 L3243.12 2031.54 L3267.49 2031.54 L3267.49 2031.54 L3291.75 2031.54 L3291.75 2031.54 L3316.13 2031.54 L3316.13 2031.54 L3340.51 2031.54 L3340.51 2028.94 L3364.76 2028.94 L3364.76 2028.94 L3389.14 2028.94 L3389.14 2023.75 L3437.78 2023.75 L3437.78 2021.15 L3462.15 2021.15 L3462.15 2021.15 L3486.41 2021.15 L3486.41 2021.15 L3510.79 2021.15 L3510.79 2021.15 L3535.04 2021.15 L3535.04 2021.15 L3559.42 2021.15 L3559.42 2021.15 L3583.68 2021.15 L3583.68 2021.15 L3608.05 2021.15 L3608.05 2015.95 L3632.43 2015.95 L3632.43 2015.95 L3656.69 2015.95 L3656.69 2015.95" stroke-linejoin="round" style="fill:none;stroke:#90353B;stroke-width:8.64"/>
	<line x1="1038.88" y1="2309.25" x2="1038.88" y2="490.93" style="stroke:#000000;stroke-width:5.76"/>
	<line x1="1038.88" y1="2245.89" x2="998.91" y2="2245.89" style="stroke:#000000;stroke-width:5.76"/>
	<text x="978.99" y="2273.90" style="font-family:'Helvetica';font-size:79.94px;fill:#000000" text-anchor="end">0.000</text>
	<line x1="1038.88" y1="1907.54" x2="998.91" y2="1907.54" style="stroke:#000000;stroke-width:5.76"/>
	<text x="978.99" y="1935.55" style="font-family:'Helvetica';font-size:79.94px;fill:#000000" text-anchor="end">0.001</text>
	<line x1="1038.88" y1="1569.20" x2="998.91" y2="1569.20" style="stroke:#000000;stroke-width:5.76"/>
	<text x="978.99" y="1597.21" style="font-family:'Helvetica';font-size:79.94px;fill:#000000" text-anchor="end">0.002</text>
	<line x1="1038.88" y1="1230.86" x2="998.91" y2="1230.86" style="stroke:#000000;stroke-width:5.76"/>
	<text x="978.99" y="1258.87" style="font-family:'Helvetica';font-size:79.94px;fill:#000000" text-anchor="end">0.003</text>
	<line x1="1038.88" y1="892.51" x2="998.91" y2="892.51" style="stroke:#000000;stroke-width:5.76"/>
	<text x="978.99" y="920.52" style="font-family:'Helvetica';font-size:79.94px;fill:#000000" text-anchor="end">0.004</text>
	<line x1="1038.88" y1="554.29" x2="998.91" y2="554.29" style="stroke:#000000;stroke-width:5.76"/>
	<text x="978.99" y="582.31" style="font-family:'Helvetica';font-size:79.94px;fill:#000000" text-anchor="end">0.005</text>
	<text x="1102.24" y="2747.83" style="font-family:'Helvetica';font-size:60.02px;fill:#000000" text-anchor="middle">131135</text>
	<text x="1588.83" y="2747.83" style="font-family:'Helvetica';font-size:60.02px;fill:#000000" text-anchor="middle">131061</text>
	<text x="2075.41" y="2747.83" style="font-family:'Helvetica';font-size:60.02px;fill:#000000" text-anchor="middle">130951</text>
	<text x="2562.00" y="2747.83" style="font-family:'Helvetica';font-size:60.02px;fill:#000000" text-anchor="middle">130840</text>
	<text x="3048.58" y="2747.83" style="font-family:'Helvetica';font-size:60.02px;fill:#000000" text-anchor="middle">130768</text>
	<text x="3535.17" y="2747.83" style="font-family:'Helvetica';font-size:60.02px;fill:#000000" text-anchor="middle">130700</text>
	<text x="968.47" y="2747.83" style="font-family:'Helvetica';font-size:60.02px;fill:#000000" text-anchor="end">Current exposure to NSAIDs</text>
	<text x="1102.24" y="2674.44" style="font-family:'Helvetica';font-size:60.02px;fill:#000000" text-anchor="middle">1579917</text>
	<text x="1588.83" y="2674.44" style="font-family:'Helvetica';font-size:60.02px;fill:#000000" text-anchor="middle">1567336</text>
	<text x="2075.41" y="2674.44" style="font-family:'Helvetica';font-size:60.02px;fill:#000000" text-anchor="middle">1558991</text>
	<text x="2562.00" y="2674.44" style="font-family:'Helvetica';font-size:60.02px;fill:#000000" text-anchor="middle">1549650</text>
	<text x="3048.58" y="2674.44" style="font-family:'Helvetica';font-size:60.02px;fill:#000000" text-anchor="middle">1540311</text>
	<text x="3535.17" y="2674.44" style="font-family:'Helvetica';font-size:60.02px;fill:#000000" text-anchor="middle">1531309</text>
	<text x="968.47" y="2674.44" style="font-family:'Helvetica';font-size:60.02px;fill:#000000" text-anchor="end">Non-current exposure to NSAIDs</text>
	<text x="968.47" y="2601.18" style="font-family:'Helvetica';font-size:60.02px;fill:#000000" text-anchor="end">Number at risk</text>
	<line x1="1038.88" y1="2309.25" x2="3841.82" y2="2309.25" style="stroke:#000000;stroke-width:5.76"/>
	<line x1="1102.24" y1="2309.25" x2="1102.24" y2="2349.22" style="stroke:#000000;stroke-width:5.76"/>
	<text x="1102.24" y="2425.17" style="font-family:'Helvetica';font-size:79.94px;fill:#000000" text-anchor="middle">0</text>
	<line x1="1588.83" y1="2309.25" x2="1588.83" y2="2349.22" style="stroke:#000000;stroke-width:5.76"/>
	<text x="1588.83" y="2425.17" style="font-family:'Helvetica';font-size:79.94px;fill:#000000" text-anchor="middle">20</text>
	<line x1="2075.41" y1="2309.25" x2="2075.41" y2="2349.22" style="stroke:#000000;stroke-width:5.76"/>
	<text x="2075.41" y="2425.17" style="font-family:'Helvetica';font-size:79.94px;fill:#000000" text-anchor="middle">40</text>
	<line x1="2562.00" y1="2309.25" x2="2562.00" y2="2349.22" style="stroke:#000000;stroke-width:5.76"/>
	<text x="2562.00" y="2425.17" style="font-family:'Helvetica';font-size:79.94px;fill:#000000" text-anchor="middle">60</text>
	<line x1="3048.58" y1="2309.25" x2="3048.58" y2="2349.22" style="stroke:#000000;stroke-width:5.76"/>
	<text x="3048.58" y="2425.17" style="font-family:'Helvetica';font-size:79.94px;fill:#000000" text-anchor="middle">80</text>
	<line x1="3535.17" y1="2309.25" x2="3535.17" y2="2349.22" style="stroke:#000000;stroke-width:5.76"/>
	<text x="3535.17" y="2425.17" style="font-family:'Helvetica';font-size:79.94px;fill:#000000" text-anchor="middle">100</text>
	<text x="2440.35" y="2515.14" style="font-family:'Helvetica';font-size:79.94px;fill:#000000" text-anchor="middle">Days since 1 Mar 2020</text>
	<rect x="1073.53" y="269.91" width="2733.64" height="186.37" style="fill:#FFFFFF"/>
	<rect x="1076.41" y="272.79" width="2727.88" height="180.61" style="fill:none;stroke:#EAF2F3;stroke-width:5.76"/>
	<line x1="1116.72" y1="363.09" x2="1483.64" y2="363.09" style="stroke:#90353B;stroke-width:8.64"/>
	<line x1="2449.76" y1="363.09" x2="2816.80" y2="363.09" style="stroke:#1A476F;stroke-width:8.64"/>
	<text x="1542.42" y="384.13" style="font-family:'Helvetica';font-size:60.02px;fill:#000000">Current exposure to NSAIDs</text>
	<text x="2875.58" y="384.13" style="font-family:'Helvetica';font-size:60.02px;fill:#000000">Non-current exposure to NSAIDs</text>
	<text x="1056.21" y="187.99" style="font-family:'Helvetica';font-size:99.99px;fill:#1E2D53">Time to death, Rheumatoid_arthritis_&amp;_osteoarthritis population</text>
</svg>
