<?xml version="1.0" encoding="UTF-8" standalone="no"?>
<!-- This is a Stata 16.1 generated SVG file (http://www.stata.com) -->

<svg version="1.1" width="5.50in" height="4.00in" viewBox="0 0 3960 2880" xmlns="http://www.w3.org/2000/svg" xmlns:xlink="http://www.w3.org/1999/xlink">
	<desc>Stata Graph - Graph</desc>
	<rect x="0" y="0" width="3960" height="2880" style="fill:#EAF2F3;stroke:none"/>
	<rect x="0.00" y="0.00" width="3959.88" height="2880.00" style="fill:#EAF2F3"/>
	<rect x="2.88" y="2.88" width="3954.12" height="2874.24" style="fill:none;stroke:#EAF2F3;stroke-width:5.76"/>
	<rect x="582.49" y="100.86" width="3276.53" height="2388.33" style="fill:#FFFFFF"/>
	<rect x="585.37" y="103.74" width="3270.77" height="2382.57" style="fill:none;stroke:#FFFFFF;stroke-width:5.76"/>
	<line x1="582.49" y1="1973.50" x2="3859.02" y2="1973.50" style="stroke:#EAF2F3;stroke-width:8.64"/>
	<line x1="582.49" y1="1521.18" x2="3859.02" y2="1521.18" style="stroke:#EAF2F3;stroke-width:8.64"/>
	<line x1="582.49" y1="1068.86" x2="3859.02" y2="1068.86" style="stroke:#EAF2F3;stroke-width:8.64"/>
	<line x1="582.49" y1="616.54" x2="3859.02" y2="616.54" style="stroke:#EAF2F3;stroke-width:8.64"/>
	<line x1="582.49" y1="164.22" x2="3859.02" y2="164.22" style="stroke:#EAF2F3;stroke-width:8.64"/>
	<defs>
		<path id="path_SerYckvg" d="M645.85 164.22 L645.85 164.22 L677.65 164.22 L709.46 164.22 L741.26 164.22 L773.07 164.22 L804.87 164.22 L836.67 164.22 L868.48 164.22 L900.28 164.22 L932.21 164.22 L964.01 164.22 L995.82 164.22 L1027.62 164.22 L1059.42 164.35 L1091.23 164.35 L1123.03 164.59 L1154.84 164.72 L1186.64 164.96 L1218.57 165.34 L1250.37 165.95 L1282.17 166.57 L1313.98 167.32 L1345.78 168.43 L1377.59 169.67 L1409.39 171.15 L1441.19 172.88 L1473.00 174.86 L1504.92 177.09 L1536.73 179.69 L1568.53 182.54 L1600.34 185.75 L1632.14 189.22 L1663.94 192.93 L1695.75 197.02 L1727.55 201.22 L1759.35 205.56 L1791.28 210.01 L1823.09 214.59 L1854.89 219.29 L1886.69 223.87 L1918.50 228.33 L1950.30 232.78 L1982.10 237.11 L2013.91 241.32 L2045.71 245.40 L2077.64 249.36 L2109.44 253.20 L2141.25 256.79 L2173.05 260.38 L2204.85 263.72 L2236.66 266.94 L2268.46 270.03 L2300.26 273.12 L2332.07 275.97 L2364.00 278.82 L2395.80 281.42 L2427.60 284.02 L2459.41 286.49 L2491.21 288.84 L2523.01 291.07 L2554.82 293.30 L2586.62 295.28 L2618.43 297.26 L2650.35 299.11 L2682.16 300.85 L2713.96 302.58 L2745.76 304.19 L2777.57 305.67 L2809.37 307.16 L2841.18 308.52 L2872.98 309.88 L2904.78 311.12 L2936.71 312.35 L2968.51 313.47 L3000.32 314.58 L3032.12 315.57 L3063.93 316.56 L3095.73 317.55 L3127.53 318.42 L3159.34 319.28 L3191.14 320.03 L3223.07 320.89 L3254.87 321.64 L3286.68 322.38 L3318.48 323.00 L3350.28 323.74 L3382.09 324.36 L3413.89 324.98 L3445.70 325.60 L3477.50 326.22 L3509.43 326.71 L3541.23 327.33 L3573.03 327.82 L3604.84 328.44 L3636.64 328.94 L3668.45 329.43 L3700.25 329.93 L3732.05 330.55 L3763.86 331.04 L3795.78 331.54 L3795.78 310.25 L3763.86 309.76 L3732.05 309.38 L3700.25 308.89 L3668.45 308.39 L3636.64 307.90 L3604.84 307.53 L3573.03 307.03 L3541.23 306.54 L3509.43 305.92 L3477.50 305.42 L3445.70 304.93 L3413.89 304.31 L3382.09 303.82 L3350.28 303.20 L3318.48 302.58 L3286.68 301.84 L3254.87 301.22 L3223.07 300.47 L3191.14 299.73 L3159.34 298.99 L3127.53 298.25 L3095.73 297.38 L3063.93 296.51 L3032.12 295.65 L3000.32 294.66 L2968.51 293.67 L2936.71 292.68 L2904.78 291.56 L2872.98 290.33 L2841.18 289.21 L2809.37 287.85 L2777.57 286.61 L2745.76 285.13 L2713.96 283.77 L2682.16 282.16 L2650.35 280.55 L2618.43 278.94 L2586.62 277.08 L2554.82 275.23 L2523.01 273.37 L2491.21 271.27 L2459.41 269.16 L2427.60 266.94 L2395.80 264.59 L2364.00 262.11 L2332.07 259.64 L2300.26 256.91 L2268.46 254.19 L2236.66 251.34 L2204.85 248.25 L2173.05 245.16 L2141.25 241.82 L2109.44 238.47 L2077.64 235.01 L2045.71 231.42 L2013.91 227.71 L1982.10 223.87 L1950.30 220.03 L1918.50 216.20 L1886.69 212.24 L1854.89 208.28 L1823.09 204.32 L1791.28 200.36 L1759.35 196.52 L1727.55 192.81 L1695.75 189.22 L1663.94 185.75 L1632.14 182.54 L1600.34 179.57 L1568.53 176.97 L1536.73 174.62 L1504.92 172.51 L1473.00 170.66 L1441.19 169.17 L1409.39 167.93 L1377.59 166.94 L1345.78 166.08 L1313.98 165.46 L1282.17 165.09 L1250.37 164.72 L1218.57 164.47 L1186.64 164.35 L1154.84 164.22 L1123.03 164.22 L1091.23 164.22 L1059.42 164.22 L1027.62 164.22 L995.82 164.22 L964.01 164.22 L932.21 164.22 L900.28 164.22 L868.48 164.22 L836.67 164.22 L804.87 164.22 L773.07 164.22 L741.26 164.22 L709.46 164.22 L677.65 164.22 L645.85 164.22 L645.85 164.22 Z" stroke-linejoin="round"/>
	</defs>
	<defs>
		<clipPath id="clipPath_zamMtoNu">
			<use xlink:href="#path_SerYckvg"/>
		</clipPath>
	</defs>
	<use xlink:href="#path_SerYckvg" style="stroke:none;fill:#FF3333;fill-opacity:0.25"/>
	<use xlink:href="#path_SerYckvg" style="fill:none;stroke:#FF0000;stroke-opacity:0.25;stroke-width:17.28" clip-path="url(#clipPath_zamMtoNu)"/>
	<defs>
		<path id="path_IzmIjqji" d="M645.85 164.22 L645.85 164.22 L677.65 164.22 L709.46 164.22 L741.26 164.22 L773.07 164.22 L804.87 164.22 L836.67 164.22 L868.48 164.22 L900.28 164.22 L932.21 164.22 L964.01 164.22 L995.82 164.22 L1027.62 164.22 L1059.42 164.35 L1091.23 164.35 L1123.03 164.59 L1154.84 164.72 L1186.64 164.96 L1218.57 165.34 L1250.37 165.95 L1282.17 166.57 L1313.98 167.32 L1345.78 168.43 L1377.59 169.67 L1409.39 171.15 L1441.19 172.88 L1473.00 174.86 L1504.92 177.09 L1536.73 179.69 L1568.53 182.54 L1600.34 185.75 L1632.14 189.22 L1663.94 192.93 L1695.75 197.02 L1727.55 201.22 L1759.35 205.56 L1791.28 210.01 L1823.09 214.59 L1854.89 219.29 L1886.69 223.87 L1918.50 228.33 L1950.30 232.78 L1982.10 237.11 L2013.91 241.32 L2045.71 245.40 L2077.64 249.36 L2109.44 253.20 L2141.25 256.79 L2173.05 260.38 L2204.85 263.72 L2236.66 266.94 L2268.46 270.03 L2300.26 273.12 L2332.07 275.97 L2364.00 278.82 L2395.80 281.42 L2427.60 284.02 L2459.41 286.49 L2491.21 288.84 L2523.01 291.07 L2554.82 293.30 L2586.62 295.28 L2618.43 297.26 L2650.35 299.11 L2682.16 300.85 L2713.96 302.58 L2745.76 304.19 L2777.57 305.67 L2809.37 307.16 L2841.18 308.52 L2872.98 309.88 L2904.78 311.12 L2936.71 312.35 L2968.51 313.47 L3000.32 314.58 L3032.12 315.57 L3063.93 316.56 L3095.73 317.55 L3127.53 318.42 L3159.34 319.28 L3191.14 320.03 L3223.07 320.89 L3254.87 321.64 L3286.68 322.38 L3318.48 323.00 L3350.28 323.74 L3382.09 324.36 L3413.89 324.98 L3445.70 325.60 L3477.50 326.22 L3509.43 326.71 L3541.23 327.33 L3573.03 327.82 L3604.84 328.44 L3636.64 328.94 L3668.45 329.43 L3700.25 329.93 L3732.05 330.55 L3763.86 331.04 L3795.78 331.54 L3795.78 310.25 L3763.86 309.76 L3732.05 309.38 L3700.25 308.89 L3668.45 308.39 L3636.64 307.90 L3604.84 307.53 L3573.03 307.03 L3541.23 306.54 L3509.43 305.92 L3477.50 305.42 L3445.70 304.93 L3413.89 304.31 L3382.09 303.82 L3350.28 303.20 L3318.48 302.58 L3286.68 301.84 L3254.87 301.22 L3223.07 300.47 L3191.14 299.73 L3159.34 298.99 L3127.53 298.25 L3095.73 297.38 L3063.93 296.51 L3032.12 295.65 L3000.32 294.66 L2968.51 293.67 L2936.71 292.68 L2904.78 291.56 L2872.98 290.33 L2841.18 289.21 L2809.37 287.85 L2777.57 286.61 L2745.76 285.13 L2713.96 283.77 L2682.16 282.16 L2650.35 280.55 L2618.43 278.94 L2586.62 277.08 L2554.82 275.23 L2523.01 273.37 L2491.21 271.27 L2459.41 269.16 L2427.60 266.94 L2395.80 264.59 L2364.00 262.11 L2332.07 259.64 L2300.26 256.91 L2268.46 254.19 L2236.66 251.34 L2204.85 248.25 L2173.05 245.16 L2141.25 241.82 L2109.44 238.47 L2077.64 235.01 L2045.71 231.42 L2013.91 227.71 L1982.10 223.87 L1950.30 220.03 L1918.50 216.20 L1886.69 212.24 L1854.89 208.28 L1823.09 204.32 L1791.28 200.36 L1759.35 196.52 L1727.55 192.81 L1695.75 189.22 L1663.94 185.75 L1632.14 182.54 L1600.34 179.57 L1568.53 176.97 L1536.73 174.62 L1504.92 172.51 L1473.00 170.66 L1441.19 169.17 L1409.39 167.93 L1377.59 166.94 L1345.78 166.08 L1313.98 165.46 L1282.17 165.09 L1250.37 164.72 L1218.57 164.47 L1186.64 164.35 L1154.84 164.22 L1123.03 164.22 L1091.23 164.22 L1059.42 164.22 L1027.62 164.22 L995.82 164.22 L964.01 164.22 L932.21 164.22 L900.28 164.22 L868.48 164.22 L836.67 164.22 L804.87 164.22 L773.07 164.22 L741.26 164.22 L709.46 164.22 L677.65 164.22 L645.85 164.22 L645.85 164.22 Z" stroke-linejoin="round"/>
	</defs>
	<defs>
		<clipPath id="clipPath_DkCRAOQp">
			<use xlink:href="#path_IzmIjqji"/>
		</clipPath>
	</defs>
	<use xlink:href="#path_IzmIjqji" style="stroke:none;fill:#3333FF;fill-opacity:0.25"/>
	<use xlink:href="#path_IzmIjqji" style="fill:none;stroke:#0000FF;stroke-opacity:0.25;stroke-width:17.28" clip-path="url(#clipPath_DkCRAOQp)"/>
	<path d=" M645.73 164.22 L677.53 164.22 L709.34 164.22 L741.14 164.22 L773.07 164.22 L804.87 164.22 L836.67 164.22 L868.48 164.22 L900.28 164.22 L932.09 164.22 L963.89 164.22 L995.69 164.22 L1027.50 164.22 L1059.42 164.35 L1091.23 164.35 L1123.03 164.47 L1154.84 164.59 L1186.64 164.72 L1218.44 164.96 L1250.25 165.34 L1282.05 165.83 L1313.85 166.45 L1345.78 167.32 L1377.59 168.31 L1409.39 169.54 L1441.19 171.03 L1473.00 172.76 L1504.80 174.86 L1536.60 177.22 L1568.41 179.81 L1600.21 182.78 L1632.02 186.00 L1663.94 189.47 L1695.75 193.18 L1727.55 197.02 L1759.35 201.10 L1791.16 205.31 L1822.96 209.52 L1854.77 213.85 L1886.57 218.05 L1918.37 222.39 L1950.30 226.47 L1982.10 230.55 L2013.91 234.64 L2045.71 238.47 L2077.51 242.19 L2109.32 245.90 L2141.12 249.36 L2172.93 252.83 L2204.73 256.05 L2236.66 259.14 L2268.46 262.23 L2300.26 265.08 L2332.07 267.80 L2363.87 270.53 L2395.68 273.12 L2427.48 275.48 L2459.28 277.83 L2491.09 280.18 L2523.01 282.28 L2554.82 284.26 L2586.62 286.24 L2618.43 288.10 L2650.23 289.96 L2682.03 291.56 L2713.84 293.17 L2745.64 294.78 L2777.45 296.27 L2809.37 297.63 L2841.18 298.99 L2872.98 300.23 L2904.78 301.34 L2936.59 302.58 L2968.39 303.69 L3000.20 304.68 L3032.00 305.67 L3063.80 306.66 L3095.73 307.53 L3127.53 308.39 L3159.34 309.14 L3191.14 310.00 L3222.95 310.75 L3254.75 311.49 L3286.55 312.23 L3318.36 312.85 L3350.16 313.47 L3382.09 314.09 L3413.89 314.71 L3445.70 315.32 L3477.50 315.82 L3509.30 316.44 L3541.11 316.93 L3572.91 317.55 L3604.71 318.05 L3636.52 318.54 L3668.45 319.04 L3700.25 319.53 L3732.05 320.03 L3763.86 320.40 L3795.66 320.89" stroke-linejoin="round" style="fill:none;stroke:#FF0000;stroke-width:8.64"/>
	<path d=" M645.73 164.22 L677.53 164.22 L709.34 164.22 L741.14 164.22 L773.07 164.22 L804.87 164.22 L836.67 164.22 L868.48 164.22 L900.28 164.22 L932.09 164.22 L963.89 164.22 L995.69 164.22 L1027.50 164.22 L1059.42 164.35 L1091.23 164.35 L1123.03 164.47 L1154.84 164.59 L1186.64 164.72 L1218.44 164.96 L1250.25 165.34 L1282.05 165.83 L1313.85 166.45 L1345.78 167.32 L1377.59 168.31 L1409.39 169.54 L1441.19 171.03 L1473.00 172.76 L1504.80 174.86 L1536.60 177.22 L1568.41 179.81 L1600.21 182.78 L1632.02 186.00 L1663.94 189.47 L1695.75 193.18 L1727.55 197.02 L1759.35 201.10 L1791.16 205.31 L1822.96 209.52 L1854.77 213.85 L1886.57 218.05 L1918.37 222.39 L1950.30 226.47 L1982.10 230.55 L2013.91 234.64 L2045.71 238.47 L2077.51 242.19 L2109.32 245.90 L2141.12 249.36 L2172.93 252.83 L2204.73 256.05 L2236.66 259.14 L2268.46 262.23 L2300.26 265.08 L2332.07 267.80 L2363.87 270.53 L2395.68 273.12 L2427.48 275.48 L2459.28 277.83 L2491.09 280.18 L2523.01 282.28 L2554.82 284.26 L2586.62 286.24 L2618.43 288.10 L2650.23 289.96 L2682.03 291.56 L2713.84 293.17 L2745.64 294.78 L2777.45 296.27 L2809.37 297.63 L2841.18 298.99 L2872.98 300.23 L2904.78 301.34 L2936.59 302.58 L2968.39 303.69 L3000.20 304.68 L3032.00 305.67 L3063.80 306.66 L3095.73 307.53 L3127.53 308.39 L3159.34 309.14 L3191.14 310.00 L3222.95 310.75 L3254.75 311.49 L3286.55 312.23 L3318.36 312.85 L3350.16 313.47 L3382.09 314.09 L3413.89 314.71 L3445.70 315.32 L3477.50 315.82 L3509.30 316.44 L3541.11 316.93 L3572.91 317.55 L3604.71 318.05 L3636.52 318.54 L3668.45 319.04 L3700.25 319.53 L3732.05 320.03 L3763.86 320.40 L3795.66 320.89" stroke-linejoin="round" style="fill:none;stroke:#0000FF;stroke-width:8.64"/>
	<line x1="582.49" y1="2489.19" x2="582.49" y2="100.86" style="stroke:#000000;stroke-width:5.76"/>
	<line x1="582.49" y1="2425.82" x2="542.40" y2="2425.82" style="stroke:#000000;stroke-width:5.76"/>
	<text x="522.47" y="2460.85" style="font-family:'Helvetica';font-size:99.99px;fill:#000000" text-anchor="end">0.995</text>
	<line x1="582.49" y1="1973.50" x2="542.40" y2="1973.50" style="stroke:#000000;stroke-width:5.76"/>
	<text x="522.47" y="2008.53" style="font-family:'Helvetica';font-size:99.99px;fill:#000000" text-anchor="end">0.996</text>
	<line x1="582.49" y1="1521.18" x2="542.40" y2="1521.18" style="stroke:#000000;stroke-width:5.76"/>
	<text x="522.47" y="1556.21" style="font-family:'Helvetica';font-size:99.99px;fill:#000000" text-anchor="end">0.997</text>
	<line x1="582.49" y1="1068.86" x2="542.40" y2="1068.86" style="stroke:#000000;stroke-width:5.76"/>
	<text x="522.47" y="1103.89" style="font-family:'Helvetica';font-size:99.99px;fill:#000000" text-anchor="end">0.998</text>
	<line x1="582.49" y1="616.54" x2="542.40" y2="616.54" style="stroke:#000000;stroke-width:5.76"/>
	<text x="522.47" y="651.57" style="font-family:'Helvetica';font-size:99.99px;fill:#000000" text-anchor="end">0.999</text>
	<line x1="582.49" y1="164.22" x2="542.40" y2="164.22" style="stroke:#000000;stroke-width:5.76"/>
	<text x="522.47" y="199.25" style="font-family:'Helvetica';font-size:99.99px;fill:#000000" text-anchor="end">1.000</text>
	<text x="190.71" y="1294.96" style="font-family:'Helvetica';font-size:99.99px;fill:#000000" transform="rotate(-90 190.71,1294.96)" text-anchor="middle">S(t)</text>
	<line x1="582.49" y1="2489.19" x2="3859.02" y2="2489.19" style="stroke:#000000;stroke-width:5.76"/>
	<line x1="645.85" y1="2489.19" x2="645.85" y2="2529.16" style="stroke:#000000;stroke-width:5.76"/>
	<text x="645.85" y="2619.14" style="font-family:'Helvetica';font-size:99.99px;fill:#000000" text-anchor="middle">0</text>
	<line x1="1245.79" y1="2489.19" x2="1245.79" y2="2529.16" style="stroke:#000000;stroke-width:5.76"/>
	<text x="1245.79" y="2619.14" style="font-family:'Helvetica';font-size:99.99px;fill:#000000" text-anchor="middle">20</text>
	<line x1="1845.73" y1="2489.19" x2="1845.73" y2="2529.16" style="stroke:#000000;stroke-width:5.76"/>
	<text x="1845.73" y="2619.14" style="font-family:'Helvetica';font-size:99.99px;fill:#000000" text-anchor="middle">40</text>
	<line x1="2445.80" y1="2489.19" x2="2445.80" y2="2529.16" style="stroke:#000000;stroke-width:5.76"/>
	<text x="2445.80" y="2619.14" style="font-family:'Helvetica';font-size:99.99px;fill:#000000" text-anchor="middle">60</text>
	<line x1="3045.74" y1="2489.19" x2="3045.74" y2="2529.16" style="stroke:#000000;stroke-width:5.76"/>
	<text x="3045.74" y="2619.14" style="font-family:'Helvetica';font-size:99.99px;fill:#000000" text-anchor="middle">80</text>
	<line x1="3645.68" y1="2489.19" x2="3645.68" y2="2529.16" style="stroke:#000000;stroke-width:5.76"/>
	<text x="3645.68" y="2619.14" style="font-family:'Helvetica';font-size:99.99px;fill:#000000" text-anchor="middle">100</text>
	<text x="2220.82" y="2729.16" style="font-family:'Helvetica';font-size:99.99px;fill:#000000" text-anchor="middle">Days from 1 March 2020</text>
	<rect x="2218.84" y="2128.20" width="1605.66" height="326.46" style="fill:#FFFFFF"/>
	<rect x="2221.72" y="2131.08" width="1599.90" height="320.70" style="fill:none;stroke:#000000;stroke-width:5.76"/>
	<rect x="2262.03" y="2171.51" width="374.34" height="99.99" style="fill:#FF3333;fill-opacity:0.25"/>
	<rect x="2266.35" y="2175.83" width="365.70" height="91.35" style="fill:none;stroke:#FF0000;stroke-opacity:0.25;stroke-width:8.64"/>
	<rect x="2262.03" y="2311.47" width="374.34" height="99.99" style="fill:#3333FF;fill-opacity:0.25"/>
	<rect x="2266.35" y="2315.79" width="365.70" height="91.35" style="fill:none;stroke:#0000FF;stroke-opacity:0.25;stroke-width:8.64"/>
	<text x="2696.39" y="2256.53" style="font-family:'Helvetica';font-size:99.99px;fill:#000000">Non-current NSAID use</text>
	<text x="2696.39" y="2396.50" style="font-family:'Helvetica';font-size:99.99px;fill:#000000">Current NSAID use</text>
</svg>
