<?xml version="1.0" encoding="UTF-8" standalone="no"?>
<!-- This is a Stata 16.1 generated SVG file (http://www.stata.com) -->

<svg version="1.1" width="5.50in" height="4.00in" viewBox="0 0 3960 2880" xmlns="http://www.w3.org/2000/svg" xmlns:xlink="http://www.w3.org/1999/xlink">
	<desc>Stata Graph - Graph</desc>
	<rect x="0" y="0" width="3960" height="2880" style="fill:#EAF2F3;stroke:none"/>
	<rect x="0.00" y="0.00" width="3959.88" height="2880.00" style="fill:#EAF2F3"/>
	<rect x="2.88" y="2.88" width="3954.12" height="2874.24" style="fill:none;stroke:#EAF2F3;stroke-width:5.76"/>
	<rect x="617.39" y="100.86" width="3241.63" height="2388.33" style="fill:#FFFFFF"/>
	<rect x="620.27" y="103.74" width="3235.87" height="2382.57" style="fill:none;stroke:#FFFFFF;stroke-width:5.76"/>
	<line x1="617.39" y1="2425.82" x2="3859.02" y2="2425.82" style="stroke:#EAF2F3;stroke-width:8.64"/>
	<line x1="617.39" y1="1860.39" x2="3859.02" y2="1860.39" style="stroke:#EAF2F3;stroke-width:8.64"/>
	<line x1="617.39" y1="1294.96" x2="3859.02" y2="1294.96" style="stroke:#EAF2F3;stroke-width:8.64"/>
	<line x1="617.39" y1="729.53" x2="3859.02" y2="729.53" style="stroke:#EAF2F3;stroke-width:8.64"/>
	<line x1="617.39" y1="164.22" x2="3859.02" y2="164.22" style="stroke:#EAF2F3;stroke-width:8.64"/>
	<defs>
		<path id="path_omCSPdqY" d="M680.75 1294.96 L680.75 1294.96 L712.30 711.21 L743.74 773.96 L775.17 937.19 L806.60 485.24 L838.16 786.58 L869.59 1816.09 L901.02 1188.28 L932.46 1564.99 L964.01 629.54 L995.45 2054.56 L1026.88 1018.74 L1058.31 1238.53 L1089.87 843.01 L1121.30 2035.75 L1152.73 748.83 L1184.16 1470.81 L1215.72 397.37 L1247.15 2155.05 L1278.59 1244.84 L1310.02 2161.24 L1341.57 1433.07 L1373.01 1759.53 L1404.44 1740.72 L1435.87 981.12 L1467.43 1728.10 L1498.86 202.71 L1530.29 1420.57 L1561.72 1244.84 L1593.28 880.63 L1624.71 1382.95 L1656.15 1194.60 L1687.70 1860.02 L1719.13 943.50 L1750.57 993.74 L1782.00 1225.91 L1813.56 1841.09 L1844.99 1483.31 L1876.42 1225.91 L1907.85 1389.14 L1939.41 2004.32 L1970.84 1546.06 L2002.28 1213.41 L2033.71 2092.18 L2065.26 868.13 L2096.70 654.66 L2128.13 2280.54 L2159.56 1100.42 L2191.12 635.85 L2222.55 1144.35 L2253.98 1589.99 L2285.41 227.83 L2316.97 654.66 L2348.40 1721.91 L2379.84 993.74 L2411.27 1577.49 L2442.82 2268.04 L2474.26 1998.13 L2505.69 309.38 L2537.12 1445.69 L2568.68 1627.73 L2600.11 1822.28 L2631.54 1094.11 L2662.98 1929.08 L2694.53 1458.19 L2725.97 391.06 L2757.40 1929.08 L2788.83 893.26 L2820.39 1119.23 L2851.82 2406.15 L2883.25 1068.99 L2914.68 905.75 L2946.24 1941.57 L2977.67 1345.20 L3009.11 899.57 L3040.54 1583.80 L3072.09 1721.91 L3103.53 1213.41 L3134.96 968.62 L3166.39 2355.90 L3197.95 2073.37 L3229.38 1577.49 L3260.81 1062.80 L3292.24 999.93 L3323.80 1282.46 L3355.23 1181.97 L3386.67 1200.78 L3418.10 1602.61 L3449.66 817.89 L3481.09 1451.88 L3512.52 447.49 L3543.95 1564.99 L3575.51 2167.55 L3606.94 1728.10 L3638.37 1740.72 L3669.81 1489.63 L3701.36 1734.41 L3732.80 1075.30 L3764.23 2268.04 L3795.78 522.86 L3795.78 522.86 L3764.23 2268.04 L3732.80 1075.30 L3701.36 1734.41 L3669.81 1489.63 L3638.37 1740.72 L3606.94 1728.10 L3575.51 2167.55 L3543.95 1564.99 L3512.52 447.49 L3481.09 1451.88 L3449.66 817.89 L3418.10 1602.61 L3386.67 1200.78 L3355.23 1181.97 L3323.80 1282.46 L3292.24 999.93 L3260.81 1062.80 L3229.38 1577.49 L3197.95 2073.37 L3166.39 2355.90 L3134.96 968.62 L3103.53 1213.41 L3072.09 1721.91 L3040.54 1583.80 L3009.11 899.57 L2977.67 1345.20 L2946.24 1941.57 L2914.68 905.75 L2883.25 1068.99 L2851.82 2406.15 L2820.39 1119.23 L2788.83 893.26 L2757.40 1929.08 L2725.97 391.06 L2694.53 1458.19 L2662.98 1929.08 L2631.54 1094.11 L2600.11 1822.28 L2568.68 1627.73 L2537.12 1445.69 L2505.69 309.38 L2474.26 1998.13 L2442.82 2268.04 L2411.27 1577.49 L2379.84 993.74 L2348.40 1721.91 L2316.97 654.66 L2285.41 227.83 L2253.98 1589.99 L2222.55 1144.35 L2191.12 635.85 L2159.56 1100.42 L2128.13 2280.54 L2096.70 654.66 L2065.26 868.13 L2033.71 2092.18 L2002.28 1213.41 L1970.84 1546.06 L1939.41 2004.32 L1907.85 1389.14 L1876.42 1225.91 L1844.99 1483.31 L1813.56 1841.09 L1782.00 1225.91 L1750.57 993.74 L1719.13 943.50 L1687.70 1860.02 L1656.15 1194.60 L1624.71 1382.95 L1593.28 880.63 L1561.72 1244.84 L1530.29 1420.57 L1498.86 202.71 L1467.43 1728.10 L1435.87 981.12 L1404.44 1740.72 L1373.01 1759.53 L1341.57 1433.07 L1310.02 2161.24 L1278.59 1244.84 L1247.15 2155.05 L1215.72 397.37 L1184.16 1470.81 L1152.73 748.83 L1121.30 2035.75 L1089.87 843.01 L1058.31 1238.53 L1026.88 1018.74 L995.45 2054.56 L964.01 629.54 L932.46 1564.99 L901.02 1188.28 L869.59 1816.09 L838.16 786.58 L806.60 485.24 L775.17 937.19 L743.74 773.96 L712.30 711.21 L680.75 1294.96 L680.75 1294.96 Z" stroke-linejoin="round"/>
	</defs>
	<defs>
		<clipPath id="clipPath_EJuETBQp">
			<use xlink:href="#path_omCSPdqY"/>
		</clipPath>
	</defs>
	<use xlink:href="#path_omCSPdqY" style="stroke:none;fill:#FF3333;fill-opacity:0.25"/>
	<use xlink:href="#path_omCSPdqY" style="fill:none;stroke:#FF0000;stroke-opacity:0.25;stroke-width:17.28" clip-path="url(#clipPath_EJuETBQp)"/>
	<path d=" M680.75 1295.08 L712.18 711.21 L743.61 774.08 L775.17 937.31 L806.60 485.24 L838.03 786.58 L869.47 1816.09 L901.02 1188.41 L932.46 1564.99 L963.89 629.66 L995.32 2054.69 L1026.88 1018.87 L1058.31 1238.53 L1089.74 843.14 L1121.17 2035.75 L1152.73 748.96 L1184.16 1470.81 L1215.60 397.37 L1247.03 2155.05 L1278.59 1244.84 L1310.02 2161.36 L1341.45 1433.19 L1372.88 1759.66 L1404.44 1740.72 L1435.87 981.24 L1467.30 1728.22 L1498.74 202.83 L1530.29 1420.57 L1561.72 1244.84 L1593.16 880.76 L1624.59 1382.95 L1656.15 1194.60 L1687.58 1860.02 L1719.01 943.50 L1750.57 993.74 L1782.00 1226.03 L1813.43 1841.21 L1844.87 1483.44 L1876.42 1226.03 L1907.85 1389.26 L1939.29 2004.44 L1970.72 1546.18 L2002.28 1213.41 L2033.71 2092.31 L2065.14 868.26 L2096.57 654.78 L2128.13 2280.66 L2159.56 1100.42 L2190.99 635.97 L2222.43 1144.35 L2253.98 1590.11 L2285.41 227.95 L2316.85 654.78 L2348.28 1721.91 L2379.84 993.74 L2411.27 1577.49 L2442.70 2268.04 L2474.13 1998.13 L2505.69 309.51 L2537.12 1445.69 L2568.55 1627.73 L2599.99 1822.40 L2631.54 1094.23 L2662.98 1929.08 L2694.41 1458.32 L2725.84 391.06 L2757.40 1929.08 L2788.83 893.26 L2820.26 1119.35 L2851.70 2406.15 L2883.25 1069.11 L2914.68 905.88 L2946.12 1941.70 L2977.55 1345.33 L3009.11 899.57 L3040.54 1583.80 L3071.97 1721.91 L3103.40 1213.41 L3134.96 968.62 L3166.39 2355.90 L3197.82 2073.50 L3229.26 1577.49 L3260.81 1062.80 L3292.24 1000.06 L3323.68 1282.46 L3355.11 1182.10 L3386.67 1200.91 L3418.10 1602.61 L3449.53 818.01 L3480.96 1452.00 L3512.52 447.62 L3543.95 1564.99 L3575.39 2167.67 L3606.82 1728.22 L3638.37 1740.72 L3669.81 1489.63 L3701.24 1734.53 L3732.67 1075.30 L3764.23 2268.04 L3795.66 522.98" stroke-linejoin="round" style="fill:none;stroke:#FF0000;stroke-width:8.64"/>
	<line x1="617.39" y1="2489.19" x2="617.39" y2="100.86" style="stroke:#000000;stroke-width:5.76"/>
	<line x1="617.39" y1="2425.82" x2="577.42" y2="2425.82" style="stroke:#000000;stroke-width:5.76"/>
	<text x="557.49" y="2460.85" style="font-family:'Helvetica';font-size:99.99px;fill:#000000" text-anchor="end">-0.000</text>
	<line x1="617.39" y1="1860.39" x2="577.42" y2="1860.39" style="stroke:#000000;stroke-width:5.76"/>
	<text x="557.49" y="1895.42" style="font-family:'Helvetica';font-size:99.99px;fill:#000000" text-anchor="end">-0.000</text>
	<line x1="617.39" y1="1294.96" x2="577.42" y2="1294.96" style="stroke:#000000;stroke-width:5.76"/>
	<text x="557.49" y="1329.99" style="font-family:'Helvetica';font-size:99.99px;fill:#000000" text-anchor="end">0.000</text>
	<line x1="617.39" y1="729.53" x2="577.42" y2="729.53" style="stroke:#000000;stroke-width:5.76"/>
	<text x="557.49" y="764.56" style="font-family:'Helvetica';font-size:99.99px;fill:#000000" text-anchor="end">0.000</text>
	<line x1="617.39" y1="164.22" x2="577.42" y2="164.22" style="stroke:#000000;stroke-width:5.76"/>
	<text x="557.49" y="199.25" style="font-family:'Helvetica';font-size:99.99px;fill:#000000" text-anchor="end">0.000</text>
	<text x="190.71" y="1294.96" style="font-family:'Helvetica';font-size:99.99px;fill:#000000" transform="rotate(-90 190.71,1294.96)" text-anchor="middle">Difference in S(t)</text>
	<line x1="617.39" y1="2489.19" x2="3859.02" y2="2489.19" style="stroke:#000000;stroke-width:5.76"/>
	<line x1="680.75" y1="2489.19" x2="680.75" y2="2529.16" style="stroke:#000000;stroke-width:5.76"/>
	<text x="680.75" y="2619.14" style="font-family:'Helvetica';font-size:99.99px;fill:#000000" text-anchor="middle">0</text>
	<line x1="1274.13" y1="2489.19" x2="1274.13" y2="2529.16" style="stroke:#000000;stroke-width:5.76"/>
	<text x="1274.13" y="2619.14" style="font-family:'Helvetica';font-size:99.99px;fill:#000000" text-anchor="middle">20</text>
	<line x1="1867.39" y1="2489.19" x2="1867.39" y2="2529.16" style="stroke:#000000;stroke-width:5.76"/>
	<text x="1867.39" y="2619.14" style="font-family:'Helvetica';font-size:99.99px;fill:#000000" text-anchor="middle">40</text>
	<line x1="2460.77" y1="2489.19" x2="2460.77" y2="2529.16" style="stroke:#000000;stroke-width:5.76"/>
	<text x="2460.77" y="2619.14" style="font-family:'Helvetica';font-size:99.99px;fill:#000000" text-anchor="middle">60</text>
	<line x1="3054.03" y1="2489.19" x2="3054.03" y2="2529.16" style="stroke:#000000;stroke-width:5.76"/>
	<text x="3054.03" y="2619.14" style="font-family:'Helvetica';font-size:99.99px;fill:#000000" text-anchor="middle">80</text>
	<line x1="3647.41" y1="2489.19" x2="3647.41" y2="2529.16" style="stroke:#000000;stroke-width:5.76"/>
	<text x="3647.41" y="2619.14" style="font-family:'Helvetica';font-size:99.99px;fill:#000000" text-anchor="middle">100</text>
	<text x="2238.27" y="2729.16" style="font-family:'Helvetica';font-size:99.99px;fill:#000000" text-anchor="middle">Days from 1 March 2020</text>
</svg>
