<?xml version="1.0" encoding="UTF-8" standalone="no"?>
<!-- This is a Stata 16.1 generated SVG file (http://www.stata.com) -->

<svg version="1.1" width="5.50in" height="4.00in" viewBox="0 0 3960 2880" xmlns="http://www.w3.org/2000/svg" xmlns:xlink="http://www.w3.org/1999/xlink">
	<desc>Stata Graph - Graph</desc>
	<rect x="0" y="0" width="3960" height="2880" style="fill:#EAF2F3;stroke:none"/>
	<rect x="0.00" y="0.00" width="3959.88" height="2880.00" style="fill:#FFFFFF"/>
	<rect x="2.88" y="2.88" width="3954.12" height="2874.24" style="fill:none;stroke:#EAF2F3;stroke-width:5.76"/>
	<rect x="1092.46" y="630.90" width="2748.36" height="1604.96" style="fill:#FFFFFF"/>
	<rect x="1095.34" y="633.78" width="2742.60" height="1599.20" style="fill:none;stroke:#FFFFFF;stroke-width:5.76"/>
	<line x1="1092.46" y1="2172.62" x2="3840.83" y2="2172.62" style="stroke:#EAF2F3;stroke-width:8.64"/>
	<line x1="1092.46" y1="1876.85" x2="3840.83" y2="1876.85" style="stroke:#EAF2F3;stroke-width:8.64"/>
	<line x1="1092.46" y1="1581.20" x2="3840.83" y2="1581.20" style="stroke:#EAF2F3;stroke-width:8.64"/>
	<line x1="1092.46" y1="1285.56" x2="3840.83" y2="1285.56" style="stroke:#EAF2F3;stroke-width:8.64"/>
	<line x1="1092.46" y1="989.91" x2="3840.83" y2="989.91" style="stroke:#EAF2F3;stroke-width:8.64"/>
	<path d=" M1155.83 2172.62 L1155.83 2172.62 L1155.83 2172.62 L1155.83 2172.62 L1155.83 2172.62 L1179.59 2172.62 L1179.59 2172.62 L1203.47 2172.62 L1203.47 2172.62 L1227.23 2172.62 L1227.23 2172.62 L1251.11 2172.62 L1251.11 2172.62 L1275.00 2172.62 L1275.00 2172.62 L1298.76 2172.62 L1298.76 2172.62 L1322.64 2172.62 L1322.64 2172.62 L1346.40 2172.62 L1346.40 2172.62 L1370.28 2172.62 L1370.28 2172.62 L1394.04 2172.62 L1394.04 2172.62 L1417.93 2172.62 L1417.93 2172.62 L1441.81 2172.62 L1441.81 2172.62 L1465.57 2172.62 L1465.57 2172.62 L1489.45 2172.62 L1489.45 2172.62 L1513.21 2172.62 L1513.21 2172.50 L1537.10 2172.50 L1537.10 2172.13 L1560.98 2172.13 L1560.98 2172.13 L1584.74 2172.13 L1584.74 2172.00 L1608.63 2172.00 L1608.63 2172.00 L1632.39 2172.00 L1632.39 2171.88 L1656.27 2171.88 L1656.27 2171.51 L1680.15 2171.51 L1680.15 2170.89 L1703.91 2170.89 L1703.91 2170.40 L1727.80 2170.40 L1727.80 2169.41 L1751.56 2169.41 L1751.56 2168.54 L1775.44 2168.54 L1775.44 2167.67 L1799.20 2167.67 L1799.20 2166.81 L1823.09 2166.81 L1823.09 2165.57 L1846.97 2165.57 L1846.97 2164.46 L1870.73 2164.46 L1870.73 2163.09 L1894.61 2163.09 L1894.61 2162.10 L1918.37 2162.10 L1918.37 2161.11 L1942.26 2161.11 L1942.26 2159.13 L1966.14 2159.13 L1966.14 2157.03 L1989.90 2157.03 L1989.90 2154.80 L2013.78 2154.80 L2013.78 2153.56 L2037.54 2153.56 L2037.54 2150.84 L2061.43 2150.84 L2061.43 2147.75 L2085.31 2147.75 L2085.31 2144.41 L2109.07 2144.41 L2109.07 2141.93 L2132.95 2141.93 L2132.95 2139.83 L2156.72 2139.83 L2156.72 2138.10 L2180.60 2138.10 L2180.60 2135.62 L2204.36 2135.62 L2204.36 2134.01 L2228.24 2134.01 L2228.24 2131.17 L2252.13 2131.17 L2252.13 2129.43 L2275.89 2129.43 L2275.89 2125.97 L2299.77 2125.97 L2299.77 2124.48 L2323.53 2124.48 L2323.53 2122.38 L2347.41 2122.38 L2347.41 2120.15 L2371.30 2120.15 L2371.30 2117.43 L2395.06 2117.43 L2395.06 2115.70 L2418.94 2115.70 L2418.94 2113.34 L2442.70 2113.34 L2442.70 2111.74 L2466.59 2111.74 L2466.59 2110.25 L2490.34 2110.25 L2490.34 2108.15 L2514.23 2108.15 L2514.23 2106.91 L2538.11 2106.91 L2538.11 2105.18 L2561.87 2105.18 L2561.87 2103.57 L2585.76 2103.57 L2585.76 2102.33 L2609.52 2102.33 L2609.52 2101.22 L2633.40 2101.22 L2633.40 2100.23 L2657.28 2100.23 L2657.28 2098.74 L2681.04 2098.74 L2681.04 2097.63 L2704.93 2097.63 L2704.93 2096.89 L2728.69 2096.89 L2728.69 2095.65 L2752.57 2095.65 L2752.57 2094.29 L2776.45 2094.29 L2776.45 2093.54 L2800.22 2093.54 L2800.22 2092.80 L2824.10 2092.80 L2824.10 2092.31 L2847.86 2092.31 L2847.86 2092.31 L2871.74 2092.31 L2871.74 2090.57 L2895.50 2090.57 L2895.50 2089.58 L2919.39 2089.58 L2919.39 2089.09 L2943.27 2089.09 L2943.27 2088.72 L2967.03 2088.72 L2967.03 2087.98 L2990.91 2087.98 L2990.91 2087.36 L3014.67 2087.36 L3014.67 2086.86 L3038.56 2086.86 L3038.56 2086.24 L3062.44 2086.24 L3062.44 2085.87 L3086.20 2085.87 L3086.20 2085.13 L3110.09 2085.13 L3110.09 2084.26 L3133.84 2084.26 L3133.84 2084.14 L3157.73 2084.14 L3157.73 2083.64 L3181.61 2083.64 L3181.61 2083.15 L3205.37 2083.15 L3205.37 2082.53 L3229.26 2082.53 L3229.26 2081.91 L3253.02 2081.91 L3253.02 2081.05 L3276.90 2081.05 L3276.90 2080.92 L3300.66 2080.92 L3300.66 2080.55 L3324.54 2080.55 L3324.54 2080.30 L3348.43 2080.30 L3348.43 2079.44 L3372.19 2079.44 L3372.19 2079.31 L3396.07 2079.31 L3396.07 2078.94 L3419.83 2078.94 L3419.83 2078.45 L3443.72 2078.45 L3443.72 2078.20 L3467.60 2078.20 L3467.60 2077.95 L3491.36 2077.95 L3491.36 2077.70 L3515.24 2077.70 L3515.24 2077.70 L3539.00 2077.70 L3539.00 2077.58 L3562.89 2077.58 L3562.89 2077.08 L3586.77 2077.08 L3586.77 2076.84 L3610.53 2076.84 L3610.53 2076.22 L3634.41 2076.22 L3634.41 2076.22 L3658.17 2076.22 L3658.17 2076.09" stroke-linejoin="round" style="fill:none;stroke:#1A476F;stroke-width:8.64"/>
	<path d=" M1155.83 2172.62 L1155.83 2172.62 L1155.83 2172.62 L1155.83 2172.62 L1155.83 2172.62 L1203.47 2172.62 L1203.47 2172.62 L1227.23 2172.62 L1227.23 2172.62 L1251.11 2172.62 L1251.11 2172.62 L1275.00 2172.62 L1275.00 2172.62 L1298.76 2172.62 L1298.76 2172.62 L1322.64 2172.62 L1322.64 2172.62 L1346.40 2172.62 L1346.40 2172.62 L1370.28 2172.62 L1370.28 2172.62 L1394.04 2172.62 L1394.04 2172.62 L1417.93 2172.62 L1417.93 2172.62 L1441.81 2172.62 L1441.81 2172.62 L1465.57 2172.62 L1465.57 2172.62 L1489.45 2172.62 L1489.45 2172.62 L1513.21 2172.62 L1513.21 2172.62 L1537.10 2172.62 L1537.10 2172.62 L1560.98 2172.62 L1560.98 2172.62 L1584.74 2172.62 L1584.74 2172.62 L1608.63 2172.62 L1608.63 2172.62 L1632.39 2172.62 L1632.39 2172.62 L1656.27 2172.62 L1656.27 2172.62 L1680.15 2172.62 L1680.15 2172.62 L1703.91 2172.62 L1703.91 2172.62 L1727.80 2172.62 L1727.80 2172.62 L1751.56 2172.62 L1751.56 2166.81 L1775.44 2166.81 L1775.44 2166.81 L1799.20 2166.81 L1799.20 2166.81 L1823.09 2166.81 L1823.09 2160.87 L1846.97 2160.87 L1846.97 2149.23 L1870.73 2149.23 L1870.73 2143.42 L1894.61 2143.42 L1894.61 2119.90 L1918.37 2119.90 L1918.37 2114.09 L1942.26 2114.09 L1942.26 2114.09 L1966.14 2114.09 L1966.14 2108.27 L1989.90 2108.27 L1989.90 2102.33 L2013.78 2102.33 L2013.78 2096.51 L2037.54 2096.51 L2037.54 2090.70 L2061.43 2090.70 L2061.43 2078.94 L2085.31 2078.94 L2085.31 2067.18 L2109.07 2067.18 L2109.07 2061.37 L2132.95 2061.37 L2132.95 2055.55 L2156.72 2055.55 L2156.72 2049.61 L2180.60 2049.61 L2180.60 2043.80 L2204.36 2043.80 L2204.36 2037.98 L2228.24 2037.98 L2228.24 2032.04 L2252.13 2032.04 L2252.13 2032.04 L2275.89 2032.04 L2275.89 2032.04 L2299.77 2032.04 L2299.77 2032.04 L2323.53 2032.04 L2323.53 2026.22 L2347.41 2026.22 L2347.41 2026.22 L2371.30 2026.22 L2371.30 2014.47 L2395.06 2014.47 L2395.06 2014.47 L2418.94 2014.47 L2418.94 2008.65 L2442.70 2008.65 L2442.70 2008.65 L2466.59 2008.65 L2466.59 2008.65 L2490.34 2008.65 L2490.34 2008.65 L2514.23 2008.65 L2514.23 1996.89 L2538.11 1996.89 L2538.11 1985.14 L2561.87 1985.14 L2561.87 1979.32 L2585.76 1979.32 L2585.76 1979.32 L2609.52 1979.32 L2609.52 1967.56 L2633.40 1967.56 L2633.40 1967.56 L2657.28 1967.56 L2657.28 1967.56 L2681.04 1967.56 L2681.04 1961.75 L2704.93 1961.75 L2704.93 1961.75 L2728.69 1961.75 L2728.69 1961.75 L2752.57 1961.75 L2752.57 1961.75 L2800.22 1961.75 L2800.22 1955.81 L2824.10 1955.81 L2824.10 1955.81 L2871.74 1955.81 L2871.74 1944.17 L2895.50 1944.17 L2895.50 1938.23 L2943.27 1938.23 L2943.27 1938.23 L2967.03 1938.23 L2967.03 1938.23 L2990.91 1938.23 L2990.91 1938.23 L3014.67 1938.23 L3014.67 1932.42 L3038.56 1932.42 L3038.56 1926.48 L3062.44 1926.48 L3062.44 1920.66 L3086.20 1920.66 L3086.20 1914.84 L3110.09 1914.84 L3110.09 1914.84 L3133.84 1914.84 L3133.84 1914.84 L3157.73 1914.84 L3157.73 1914.84 L3181.61 1914.84 L3181.61 1914.84 L3205.37 1914.84 L3205.37 1914.84 L3229.26 1914.84 L3229.26 1914.84 L3253.02 1914.84 L3253.02 1914.84 L3276.90 1914.84 L3276.90 1914.84 L3300.66 1914.84 L3300.66 1914.84 L3348.43 1914.84 L3348.43 1914.84 L3372.19 1914.84 L3372.19 1914.84 L3396.07 1914.84 L3396.07 1908.90 L3443.72 1908.90 L3443.72 1903.09 L3467.60 1903.09 L3467.60 1903.09 L3491.36 1903.09 L3491.36 1903.09 L3515.24 1903.09 L3515.24 1903.09 L3539.00 1903.09 L3539.00 1903.09 L3562.89 1903.09 L3562.89 1903.09 L3586.77 1903.09 L3586.77 1903.09 L3610.53 1903.09 L3610.53 1903.09 L3634.41 1903.09 L3634.41 1903.09 L3658.17 1903.09 L3658.17 1903.09" stroke-linejoin="round" style="fill:none;stroke:#90353B;stroke-width:8.64"/>
	<path d=" M1155.83 2172.62 L1155.83 2172.62 L1155.83 2172.62 L1155.83 2172.62 L1155.83 2172.62 L1179.59 2172.62 L1179.59 2172.62 L1203.47 2172.62 L1203.47 2172.62 L1227.23 2172.62 L1227.23 2172.62 L1251.11 2172.62 L1251.11 2172.62 L1275.00 2172.62 L1275.00 2172.62 L1298.76 2172.62 L1298.76 2172.62 L1322.64 2172.62 L1322.64 2172.62 L1346.40 2172.62 L1346.40 2172.62 L1370.28 2172.62 L1370.28 2172.62 L1394.04 2172.62 L1394.04 2172.62 L1417.93 2172.62 L1417.93 2172.62 L1441.81 2172.62 L1441.81 2172.62 L1465.57 2172.62 L1465.57 2172.62 L1489.45 2172.62 L1489.45 2172.62 L1513.21 2172.62 L1513.21 2172.62 L1537.10 2172.62 L1537.10 2172.62 L1560.98 2172.62 L1560.98 2172.62 L1584.74 2172.62 L1584.74 2172.62 L1608.63 2172.62 L1608.63 2172.62 L1632.39 2172.62 L1632.39 2172.62 L1656.27 2172.62 L1656.27 2172.00 L1680.15 2172.00 L1680.15 2171.39 L1703.91 2171.39 L1703.91 2170.15 L1727.80 2170.15 L1727.80 2169.53 L1751.56 2169.53 L1751.56 2169.53 L1775.44 2169.53 L1775.44 2167.80 L1799.20 2167.80 L1799.20 2167.80 L1823.09 2167.80 L1823.09 2167.18 L1846.97 2167.18 L1846.97 2164.70 L1870.73 2164.70 L1870.73 2163.47 L1894.61 2163.47 L1894.61 2160.99 L1918.37 2160.99 L1918.37 2160.37 L1942.26 2160.37 L1942.26 2156.16 L1966.14 2156.16 L1966.14 2154.93 L1989.90 2154.93 L1989.90 2152.45 L2013.78 2152.45 L2013.78 2151.21 L2037.54 2151.21 L2037.54 2148.24 L2061.43 2148.24 L2061.43 2144.53 L2085.31 2144.53 L2085.31 2138.47 L2109.07 2138.47 L2109.07 2135.37 L2132.95 2135.37 L2132.95 2132.40 L2156.72 2132.40 L2156.72 2128.69 L2180.60 2128.69 L2180.60 2125.60 L2204.36 2125.60 L2204.36 2123.25 L2228.24 2123.25 L2228.24 2122.01 L2252.13 2122.01 L2252.13 2118.91 L2275.89 2118.91 L2275.89 2117.06 L2299.77 2117.06 L2299.77 2114.71 L2323.53 2114.71 L2323.53 2112.85 L2347.41 2112.85 L2347.41 2109.76 L2371.30 2109.76 L2371.30 2107.90 L2395.06 2107.90 L2395.06 2106.79 L2418.94 2106.79 L2418.94 2104.31 L2442.70 2104.31 L2442.70 2101.84 L2466.59 2101.84 L2466.59 2099.98 L2490.34 2099.98 L2490.34 2098.25 L2514.23 2098.25 L2514.23 2093.92 L2538.11 2093.92 L2538.11 2092.06 L2561.87 2092.06 L2561.87 2091.44 L2585.76 2091.44 L2585.76 2089.58 L2609.52 2089.58 L2609.52 2089.09 L2633.40 2089.09 L2633.40 2088.47 L2657.28 2088.47 L2657.28 2087.85 L2681.04 2087.85 L2681.04 2086.61 L2704.93 2086.61 L2704.93 2084.14 L2728.69 2084.14 L2728.69 2083.52 L2752.57 2083.52 L2752.57 2082.90 L2776.45 2082.90 L2776.45 2082.90 L2800.22 2082.90 L2800.22 2081.66 L2824.10 2081.66 L2824.10 2081.66 L2847.86 2081.66 L2847.86 2081.66 L2871.74 2081.66 L2871.74 2081.05 L2895.50 2081.05 L2895.50 2081.05 L2919.39 2081.05 L2919.39 2080.43 L2943.27 2080.43 L2943.27 2080.43 L2967.03 2080.43 L2967.03 2079.93 L2990.91 2079.93 L2990.91 2079.31 L3014.67 2079.31 L3014.67 2078.69 L3038.56 2078.69 L3038.56 2078.69 L3062.44 2078.69 L3062.44 2078.07 L3086.20 2078.07 L3086.20 2077.46 L3110.09 2077.46 L3110.09 2077.46 L3133.84 2077.46 L3133.84 2077.46 L3157.73 2077.46 L3157.73 2077.46 L3181.61 2077.46 L3181.61 2075.60 L3205.37 2075.60 L3205.37 2074.36 L3229.26 2074.36 L3229.26 2074.36 L3253.02 2074.36 L3253.02 2074.36 L3276.90 2074.36 L3276.90 2073.12 L3300.66 2073.12 L3300.66 2072.51 L3324.54 2072.51 L3324.54 2072.51 L3348.43 2072.51 L3348.43 2071.89 L3372.19 2071.89 L3372.19 2071.89 L3396.07 2071.89 L3396.07 2071.27 L3419.83 2071.27 L3419.83 2071.27 L3443.72 2071.27 L3443.72 2071.27 L3467.60 2071.27 L3467.60 2070.15 L3491.36 2070.15 L3491.36 2070.15 L3515.24 2070.15 L3515.24 2070.15 L3539.00 2070.15 L3539.00 2070.15 L3562.89 2070.15 L3562.89 2070.15 L3586.77 2070.15 L3586.77 2070.15 L3610.53 2070.15 L3610.53 2068.30 L3634.41 2068.30 L3634.41 2068.30 L3658.17 2068.30 L3658.17 2067.68" stroke-linejoin="round" style="fill:none;stroke:#55752F;stroke-width:8.64"/>
	<line x1="1092.46" y1="2235.86" x2="1092.46" y2="630.90" style="stroke:#000000;stroke-width:5.76"/>
	<line x1="1092.46" y1="2172.62" x2="1052.49" y2="2172.62" style="stroke:#000000;stroke-width:5.76"/>
	<text x="1032.45" y="2200.63" style="font-family:'Helvetica';font-size:79.94px;fill:#000000" text-anchor="end">0.000</text>
	<line x1="1092.46" y1="1876.85" x2="1052.49" y2="1876.85" style="stroke:#000000;stroke-width:5.76"/>
	<text x="1032.45" y="1904.86" style="font-family:'Helvetica';font-size:79.94px;fill:#000000" text-anchor="end">0.001</text>
	<line x1="1092.46" y1="1581.20" x2="1052.49" y2="1581.20" style="stroke:#000000;stroke-width:5.76"/>
	<text x="1032.45" y="1609.21" style="font-family:'Helvetica';font-size:79.94px;fill:#000000" text-anchor="end">0.002</text>
	<line x1="1092.46" y1="1285.56" x2="1052.49" y2="1285.56" style="stroke:#000000;stroke-width:5.76"/>
	<text x="1032.45" y="1313.57" style="font-family:'Helvetica';font-size:79.94px;fill:#000000" text-anchor="end">0.003</text>
	<line x1="1092.46" y1="989.91" x2="1052.49" y2="989.91" style="stroke:#000000;stroke-width:5.76"/>
	<text x="1032.45" y="1017.92" style="font-family:'Helvetica';font-size:79.94px;fill:#000000" text-anchor="end">0.004</text>
	<line x1="1092.46" y1="694.26" x2="1052.49" y2="694.26" style="stroke:#000000;stroke-width:5.76"/>
	<text x="1032.45" y="722.27" style="font-family:'Helvetica';font-size:79.94px;fill:#000000" text-anchor="end">0.005</text>
	<text x="1155.83" y="2747.83" style="font-family:'Helvetica';font-size:60.02px;fill:#000000" text-anchor="middle">484916</text>
	<text x="1632.51" y="2747.83" style="font-family:'Helvetica';font-size:60.02px;fill:#000000" text-anchor="middle">484759</text>
	<text x="2109.20" y="2747.83" style="font-family:'Helvetica';font-size:60.02px;fill:#000000" text-anchor="middle">484522</text>
	<text x="2585.76" y="2747.83" style="font-family:'Helvetica';font-size:60.02px;fill:#000000" text-anchor="middle">484290</text>
	<text x="3062.44" y="2747.83" style="font-family:'Helvetica';font-size:60.02px;fill:#000000" text-anchor="middle">484153</text>
	<text x="3539.13" y="2747.83" style="font-family:'Helvetica';font-size:60.02px;fill:#000000" text-anchor="middle">484003</text>
	<text x="1024.77" y="2747.83" style="font-family:'Helvetica';font-size:60.02px;fill:#000000" text-anchor="end">Other NSAIDs</text>
	<text x="1155.83" y="2674.44" style="font-family:'Helvetica';font-size:60.02px;fill:#000000" text-anchor="middle">50603</text>
	<text x="1632.51" y="2674.44" style="font-family:'Helvetica';font-size:60.02px;fill:#000000" text-anchor="middle">50539</text>
	<text x="2109.20" y="2674.44" style="font-family:'Helvetica';font-size:60.02px;fill:#000000" text-anchor="middle">50455</text>
	<text x="2585.76" y="2674.44" style="font-family:'Helvetica';font-size:60.02px;fill:#000000" text-anchor="middle">50391</text>
	<text x="3062.44" y="2674.44" style="font-family:'Helvetica';font-size:60.02px;fill:#000000" text-anchor="middle">50346</text>
	<text x="3539.13" y="2674.44" style="font-family:'Helvetica';font-size:60.02px;fill:#000000" text-anchor="middle">50298</text>
	<text x="1024.77" y="2674.44" style="font-family:'Helvetica';font-size:60.02px;fill:#000000" text-anchor="end">Ibuprofen</text>
	<text x="1155.83" y="2601.18" style="font-family:'Helvetica';font-size:60.02px;fill:#000000" text-anchor="middle">1924095</text>
	<text x="1632.51" y="2601.18" style="font-family:'Helvetica';font-size:60.02px;fill:#000000" text-anchor="middle">1896129</text>
	<text x="2109.20" y="2601.18" style="font-family:'Helvetica';font-size:60.02px;fill:#000000" text-anchor="middle">1880304</text>
	<text x="2585.76" y="2601.18" style="font-family:'Helvetica';font-size:60.02px;fill:#000000" text-anchor="middle">1863680</text>
	<text x="3062.44" y="2601.18" style="font-family:'Helvetica';font-size:60.02px;fill:#000000" text-anchor="middle">1845915</text>
	<text x="3539.13" y="2601.18" style="font-family:'Helvetica';font-size:60.02px;fill:#000000" text-anchor="middle">1828962</text>
	<text x="1024.77" y="2601.18" style="font-family:'Helvetica';font-size:60.02px;fill:#000000" text-anchor="end">Non-current exposure to NSAIDs</text>
	<text x="1024.77" y="2527.80" style="font-family:'Helvetica';font-size:60.02px;fill:#000000" text-anchor="end">Number at risk</text>
	<line x1="1092.46" y1="2235.86" x2="3840.83" y2="2235.86" style="stroke:#000000;stroke-width:5.76"/>
	<line x1="1155.83" y1="2235.86" x2="1155.83" y2="2275.96" style="stroke:#000000;stroke-width:5.76"/>
	<text x="1155.83" y="2351.78" style="font-family:'Helvetica';font-size:79.94px;fill:#000000" text-anchor="middle">0</text>
	<line x1="1632.51" y1="2235.86" x2="1632.51" y2="2275.96" style="stroke:#000000;stroke-width:5.76"/>
	<text x="1632.51" y="2351.78" style="font-family:'Helvetica';font-size:79.94px;fill:#000000" text-anchor="middle">20</text>
	<line x1="2109.20" y1="2235.86" x2="2109.20" y2="2275.96" style="stroke:#000000;stroke-width:5.76"/>
	<text x="2109.20" y="2351.78" style="font-family:'Helvetica';font-size:79.94px;fill:#000000" text-anchor="middle">40</text>
	<line x1="2585.76" y1="2235.86" x2="2585.76" y2="2275.96" style="stroke:#000000;stroke-width:5.76"/>
	<text x="2585.76" y="2351.78" style="font-family:'Helvetica';font-size:79.94px;fill:#000000" text-anchor="middle">60</text>
	<line x1="3062.44" y1="2235.86" x2="3062.44" y2="2275.96" style="stroke:#000000;stroke-width:5.76"/>
	<text x="3062.44" y="2351.78" style="font-family:'Helvetica';font-size:79.94px;fill:#000000" text-anchor="middle">80</text>
	<line x1="3539.13" y1="2235.86" x2="3539.13" y2="2275.96" style="stroke:#000000;stroke-width:5.76"/>
	<text x="3539.13" y="2351.78" style="font-family:'Helvetica';font-size:79.94px;fill:#000000" text-anchor="middle">100</text>
	<text x="2466.59" y="2441.87" style="font-family:'Helvetica';font-size:79.94px;fill:#000000" text-anchor="middle">Days since 1 Mar 2020</text>
	<rect x="1335.51" y="269.91" width="2262.27" height="326.46" style="fill:#FFFFFF"/>
	<rect x="1338.39" y="272.79" width="2256.51" height="320.70" style="fill:none;stroke:#EAF2F3;stroke-width:5.76"/>
	<line x1="1378.70" y1="363.09" x2="1753.04" y2="363.09" style="stroke:#1A476F;stroke-width:8.64"/>
	<line x1="2859.49" y1="363.09" x2="3233.84" y2="363.09" style="stroke:#90353B;stroke-width:8.64"/>
	<line x1="1378.70" y1="503.06" x2="1753.04" y2="503.06" style="stroke:#55752F;stroke-width:8.64"/>
	<text x="1813.06" y="384.13" style="font-family:'Helvetica';font-size:60.02px;fill:#000000">Non-current exposure to NSAIDs</text>
	<text x="3293.85" y="384.13" style="font-family:'Helvetica';font-size:60.02px;fill:#000000">Ibuprofen</text>
	<text x="1813.06" y="524.10" style="font-family:'Helvetica';font-size:60.02px;fill:#000000">Other NSAIDs</text>
	<text x="1746.24" y="187.99" style="font-family:'Helvetica';font-size:99.99px;fill:#1E2D53">Time to death, nsaid population</text>
</svg>
