<?xml version="1.0" encoding="UTF-8" standalone="no"?>
<!-- This is a Stata 16.1 generated SVG file (http://www.stata.com) -->

<svg version="1.1" width="5.50in" height="4.00in" viewBox="0 0 3960 2880" xmlns="http://www.w3.org/2000/svg" xmlns:xlink="http://www.w3.org/1999/xlink">
	<desc>Stata Graph - Graph</desc>
	<rect x="0" y="0" width="3960" height="2880" style="fill:#EAF2F3;stroke:none"/>
	<rect x="0.00" y="0.00" width="3959.88" height="2880.00" style="fill:#FFFFFF"/>
	<rect x="2.88" y="2.88" width="3954.12" height="2874.24" style="fill:none;stroke:#EAF2F3;stroke-width:5.76"/>
	<rect x="1092.46" y="630.90" width="2748.36" height="1604.96" style="fill:#FFFFFF"/>
	<rect x="1095.34" y="633.78" width="2742.60" height="1599.20" style="fill:none;stroke:#FFFFFF;stroke-width:5.76"/>
	<line x1="1092.46" y1="2172.62" x2="3840.83" y2="2172.62" style="stroke:#EAF2F3;stroke-width:8.64"/>
	<line x1="1092.46" y1="1876.85" x2="3840.83" y2="1876.85" style="stroke:#EAF2F3;stroke-width:8.64"/>
	<line x1="1092.46" y1="1581.20" x2="3840.83" y2="1581.20" style="stroke:#EAF2F3;stroke-width:8.64"/>
	<line x1="1092.46" y1="1285.56" x2="3840.83" y2="1285.56" style="stroke:#EAF2F3;stroke-width:8.64"/>
	<line x1="1092.46" y1="989.91" x2="3840.83" y2="989.91" style="stroke:#EAF2F3;stroke-width:8.64"/>
	<path d=" M1155.83 2172.62 L1155.83 2172.62 L1155.83 2172.62 L1155.83 2172.62 L1155.83 2172.62 L1179.59 2172.62 L1179.59 2172.62 L1203.47 2172.62 L1203.47 2172.62 L1227.23 2172.62 L1227.23 2172.62 L1251.11 2172.62 L1251.11 2172.62 L1275.00 2172.62 L1275.00 2172.62 L1298.76 2172.62 L1298.76 2172.62 L1322.64 2172.62 L1322.64 2172.62 L1346.40 2172.62 L1346.40 2172.62 L1370.28 2172.62 L1370.28 2172.62 L1394.04 2172.62 L1394.04 2172.62 L1417.93 2172.62 L1417.93 2172.62 L1441.81 2172.62 L1441.81 2172.62 L1465.57 2172.62 L1465.57 2172.62 L1489.45 2172.62 L1489.45 2172.62 L1513.21 2172.62 L1513.21 2172.50 L1537.10 2172.50 L1537.10 2172.13 L1560.98 2172.13 L1560.98 2172.13 L1584.74 2172.13 L1584.74 2172.00 L1608.63 2172.00 L1608.63 2172.00 L1632.39 2172.00 L1632.39 2171.88 L1656.27 2171.88 L1656.27 2171.51 L1680.15 2171.51 L1680.15 2170.89 L1703.91 2170.89 L1703.91 2170.40 L1727.80 2170.40 L1727.80 2169.41 L1751.56 2169.41 L1751.56 2168.54 L1775.44 2168.54 L1775.44 2167.67 L1799.20 2167.67 L1799.20 2166.81 L1823.09 2166.81 L1823.09 2165.57 L1846.97 2165.57 L1846.97 2164.46 L1870.73 2164.46 L1870.73 2163.09 L1894.61 2163.09 L1894.61 2162.10 L1918.37 2162.10 L1918.37 2161.11 L1942.26 2161.11 L1942.26 2159.13 L1966.14 2159.13 L1966.14 2157.03 L1989.90 2157.03 L1989.90 2154.80 L2013.78 2154.80 L2013.78 2153.56 L2037.54 2153.56 L2037.54 2150.84 L2061.43 2150.84 L2061.43 2147.75 L2085.31 2147.75 L2085.31 2144.41 L2109.07 2144.41 L2109.07 2141.93 L2132.95 2141.93 L2132.95 2139.83 L2156.72 2139.83 L2156.72 2138.10 L2180.60 2138.10 L2180.60 2135.62 L2204.36 2135.62 L2204.36 2134.01 L2228.24 2134.01 L2228.24 2131.17 L2252.13 2131.17 L2252.13 2129.43 L2275.89 2129.43 L2275.89 2125.97 L2299.77 2125.97 L2299.77 2124.48 L2323.53 2124.48 L2323.53 2122.38 L2347.41 2122.38 L2347.41 2120.15 L2371.30 2120.15 L2371.30 2117.43 L2395.06 2117.43 L2395.06 2115.70 L2418.94 2115.70 L2418.94 2113.34 L2442.70 2113.34 L2442.70 2111.74 L2466.59 2111.74 L2466.59 2110.25 L2490.34 2110.25 L2490.34 2108.15 L2514.23 2108.15 L2514.23 2106.91 L2538.11 2106.91 L2538.11 2105.18 L2561.87 2105.18 L2561.87 2103.57 L2585.76 2103.57 L2585.76 2102.33 L2609.52 2102.33 L2609.52 2101.22 L2633.40 2101.22 L2633.40 2100.23 L2657.28 2100.23 L2657.28 2098.74 L2681.04 2098.74 L2681.04 2097.63 L2704.93 2097.63 L2704.93 2096.89 L2728.69 2096.89 L2728.69 2095.65 L2752.57 2095.65 L2752.57 2094.29 L2776.45 2094.29 L2776.45 2093.54 L2800.22 2093.54 L2800.22 2092.80 L2824.10 2092.80 L2824.10 2092.31 L2847.86 2092.31 L2847.86 2092.31 L2871.74 2092.31 L2871.74 2090.57 L2895.50 2090.57 L2895.50 2089.58 L2919.39 2089.58 L2919.39 2089.09 L2943.27 2089.09 L2943.27 2088.72 L2967.03 2088.72 L2967.03 2087.98 L2990.91 2087.98 L2990.91 2087.36 L3014.67 2087.36 L3014.67 2086.86 L3038.56 2086.86 L3038.56 2086.24 L3062.44 2086.24 L3062.44 2085.87 L3086.20 2085.87 L3086.20 2085.13 L3110.09 2085.13 L3110.09 2084.26 L3133.84 2084.26 L3133.84 2084.14 L3157.73 2084.14 L3157.73 2083.64 L3181.61 2083.64 L3181.61 2083.15 L3205.37 2083.15 L3205.37 2082.53 L3229.26 2082.53 L3229.26 2081.91 L3253.02 2081.91 L3253.02 2081.05 L3276.90 2081.05 L3276.90 2080.92 L3300.66 2080.92 L3300.66 2080.55 L3324.54 2080.55 L3324.54 2080.30 L3348.43 2080.30 L3348.43 2079.44 L3372.19 2079.44 L3372.19 2079.31 L3396.07 2079.31 L3396.07 2078.94 L3419.83 2078.94 L3419.83 2078.45 L3443.72 2078.45 L3443.72 2078.20 L3467.60 2078.20 L3467.60 2077.95 L3491.36 2077.95 L3491.36 2077.70 L3515.24 2077.70 L3515.24 2077.70 L3539.00 2077.70 L3539.00 2077.58 L3562.89 2077.58 L3562.89 2077.08 L3586.77 2077.08 L3586.77 2076.84 L3610.53 2076.84 L3610.53 2076.22 L3634.41 2076.22 L3634.41 2076.22 L3658.17 2076.22 L3658.17 2076.09" stroke-linejoin="round" style="fill:none;stroke:#1A476F;stroke-width:8.64"/>
	<path d=" M1155.83 2172.62 L1155.83 2172.62 L1155.83 2172.62 L1155.83 2172.62 L1155.83 2172.62 L1251.11 2172.62 L1251.11 2172.62 L1346.40 2172.62 L1346.40 2172.62 L1370.28 2172.62 L1370.28 2172.62 L1441.81 2172.62 L1441.81 2172.62 L1465.57 2172.62 L1465.57 2172.62 L1513.21 2172.62 L1513.21 2172.62 L1537.10 2172.62 L1537.10 2172.62 L1560.98 2172.62 L1560.98 2172.62 L1632.39 2172.62 L1632.39 2172.62 L1656.27 2172.62 L1656.27 2172.62 L1680.15 2172.62 L1680.15 2172.62 L1703.91 2172.62 L1703.91 2172.62 L1727.80 2172.62 L1727.80 2172.62 L1751.56 2172.62 L1751.56 2172.62 L1799.20 2172.62 L1799.20 2172.62 L1870.73 2172.62 L1870.73 2172.62 L1894.61 2172.62 L1894.61 2172.62 L1918.37 2172.62 L1918.37 2172.62 L1942.26 2172.62 L1942.26 2160.62 L1966.14 2160.62 L1966.14 2160.62 L1989.90 2160.62 L1989.90 2160.62 L2061.43 2160.62 L2061.43 2160.62 L2085.31 2160.62 L2085.31 2160.62 L2109.07 2160.62 L2109.07 2160.62 L2132.95 2160.62 L2132.95 2148.74 L2204.36 2148.74 L2204.36 2148.74 L2299.77 2148.74 L2299.77 2136.73 L2371.30 2136.73 L2371.30 2136.73 L2395.06 2136.73 L2395.06 2136.73 L2418.94 2136.73 L2418.94 2136.73 L2466.59 2136.73 L2466.59 2124.73 L2490.34 2124.73 L2490.34 2112.85 L2514.23 2112.85 L2514.23 2112.85 L2561.87 2112.85 L2561.87 2100.85 L2585.76 2100.85 L2585.76 2088.84 L2633.40 2088.84 L2633.40 2088.84 L2704.93 2088.84 L2704.93 2088.84 L2728.69 2088.84 L2728.69 2088.84 L2776.45 2088.84 L2776.45 2088.84 L2847.86 2088.84 L2847.86 2088.84 L2967.03 2088.84 L2967.03 2076.84 L2990.91 2076.84 L2990.91 2076.84 L3014.67 2076.84 L3014.67 2076.84 L3110.09 2076.84 L3110.09 2076.84 L3133.84 2076.84 L3133.84 2076.84 L3157.73 2076.84 L3157.73 2076.84 L3229.26 2076.84 L3229.26 2076.84 L3253.02 2076.84 L3253.02 2076.84 L3300.66 2076.84 L3300.66 2076.84 L3419.83 2076.84 L3419.83 2076.84 L3443.72 2076.84 L3443.72 2076.84 L3467.60 2076.84 L3467.60 2076.84 L3515.24 2076.84 L3515.24 2076.84 L3610.53 2076.84 L3610.53 2064.96 L3658.17 2064.96 L3658.17 2064.96" stroke-linejoin="round" style="fill:none;stroke:#90353B;stroke-width:8.64"/>
	<path d=" M1155.83 2172.62 L1155.83 2172.62 L1155.83 2172.62 L1155.83 2172.62 L1155.83 2172.62 L1179.59 2172.62 L1179.59 2172.62 L1203.47 2172.62 L1203.47 2172.62 L1227.23 2172.62 L1227.23 2172.62 L1251.11 2172.62 L1251.11 2172.62 L1275.00 2172.62 L1275.00 2172.62 L1298.76 2172.62 L1298.76 2172.62 L1322.64 2172.62 L1322.64 2172.62 L1346.40 2172.62 L1346.40 2172.62 L1370.28 2172.62 L1370.28 2172.62 L1394.04 2172.62 L1394.04 2172.62 L1417.93 2172.62 L1417.93 2172.62 L1441.81 2172.62 L1441.81 2172.62 L1465.57 2172.62 L1465.57 2172.62 L1489.45 2172.62 L1489.45 2172.62 L1513.21 2172.62 L1513.21 2172.62 L1537.10 2172.62 L1537.10 2172.62 L1560.98 2172.62 L1560.98 2172.62 L1584.74 2172.62 L1584.74 2172.62 L1608.63 2172.62 L1608.63 2172.62 L1632.39 2172.62 L1632.39 2172.62 L1656.27 2172.62 L1656.27 2172.00 L1680.15 2172.00 L1680.15 2171.51 L1703.91 2171.51 L1703.91 2170.27 L1727.80 2170.27 L1727.80 2169.78 L1751.56 2169.78 L1751.56 2169.16 L1775.44 2169.16 L1775.44 2167.43 L1799.20 2167.43 L1799.20 2167.43 L1823.09 2167.43 L1823.09 2166.31 L1846.97 2166.31 L1846.97 2162.72 L1870.73 2162.72 L1870.73 2160.99 L1894.61 2160.99 L1894.61 2156.41 L1918.37 2156.41 L1918.37 2155.30 L1942.26 2155.30 L1942.26 2151.83 L1966.14 2151.83 L1966.14 2149.98 L1989.90 2149.98 L1989.90 2147.13 L2013.78 2147.13 L2013.78 2145.40 L2037.54 2145.40 L2037.54 2141.93 L2061.43 2141.93 L2061.43 2137.23 L2085.31 2137.23 L2085.31 2130.30 L2109.07 2130.30 L2109.07 2126.83 L2132.95 2126.83 L2132.95 2123.99 L2156.72 2123.99 L2156.72 2119.90 L2180.60 2119.90 L2180.60 2116.44 L2204.36 2116.44 L2204.36 2113.59 L2228.24 2113.59 L2228.24 2111.74 L2252.13 2111.74 L2252.13 2108.89 L2275.89 2108.89 L2275.89 2107.16 L2299.77 2107.16 L2299.77 2105.42 L2323.53 2105.42 L2323.53 2103.07 L2347.41 2103.07 L2347.41 2100.23 L2371.30 2100.23 L2371.30 2097.26 L2395.06 2097.26 L2395.06 2096.14 L2418.94 2096.14 L2418.94 2093.30 L2442.70 2093.30 L2442.70 2090.95 L2466.59 2090.95 L2466.59 2089.83 L2490.34 2089.83 L2490.34 2088.59 L2514.23 2088.59 L2514.23 2083.40 L2538.11 2083.40 L2538.11 2080.55 L2561.87 2080.55 L2561.87 2079.93 L2585.76 2079.93 L2585.76 2078.82 L2609.52 2078.82 L2609.52 2077.08 L2633.40 2077.08 L2633.40 2076.47 L2657.28 2076.47 L2657.28 2075.85 L2681.04 2075.85 L2681.04 2074.11 L2704.93 2074.11 L2704.93 2071.76 L2728.69 2071.76 L2728.69 2071.27 L2752.57 2071.27 L2752.57 2070.65 L2776.45 2070.65 L2776.45 2070.65 L2800.22 2070.65 L2800.22 2068.92 L2824.10 2068.92 L2824.10 2068.92 L2847.86 2068.92 L2847.86 2068.92 L2871.74 2068.92 L2871.74 2067.18 L2895.50 2067.18 L2895.50 2066.57 L2919.39 2066.57 L2919.39 2066.07 L2943.27 2066.07 L2943.27 2066.07 L2967.03 2066.07 L2967.03 2066.07 L2990.91 2066.07 L2990.91 2065.45 L3014.67 2065.45 L3014.67 2064.21 L3038.56 2064.21 L3038.56 2063.72 L3062.44 2063.72 L3062.44 2062.48 L3086.20 2062.48 L3086.20 2061.37 L3110.09 2061.37 L3110.09 2061.37 L3133.84 2061.37 L3133.84 2061.37 L3157.73 2061.37 L3157.73 2061.37 L3181.61 2061.37 L3181.61 2059.64 L3205.37 2059.64 L3205.37 2058.52 L3229.26 2058.52 L3229.26 2058.52 L3253.02 2058.52 L3253.02 2058.52 L3276.90 2058.52 L3276.90 2057.28 L3300.66 2057.28 L3300.66 2056.79 L3324.54 2056.79 L3324.54 2056.79 L3348.43 2056.79 L3348.43 2056.17 L3372.19 2056.17 L3372.19 2056.17 L3396.07 2056.17 L3396.07 2055.06 L3419.83 2055.06 L3419.83 2055.06 L3443.72 2055.06 L3443.72 2054.44 L3467.60 2054.44 L3467.60 2053.20 L3491.36 2053.20 L3491.36 2053.20 L3515.24 2053.20 L3515.24 2053.20 L3539.00 2053.20 L3539.00 2053.20 L3562.89 2053.20 L3562.89 2053.20 L3586.77 2053.20 L3586.77 2053.20 L3610.53 2053.20 L3610.53 2052.09 L3634.41 2052.09 L3634.41 2052.09 L3658.17 2052.09 L3658.17 2051.47" stroke-linejoin="round" style="fill:none;stroke:#55752F;stroke-width:8.64"/>
	<line x1="1092.46" y1="2235.86" x2="1092.46" y2="630.90" style="stroke:#000000;stroke-width:5.76"/>
	<line x1="1092.46" y1="2172.62" x2="1052.49" y2="2172.62" style="stroke:#000000;stroke-width:5.76"/>
	<text x="1032.45" y="2200.63" style="font-family:'Helvetica';font-size:79.94px;fill:#000000" text-anchor="end">0.000</text>
	<line x1="1092.46" y1="1876.85" x2="1052.49" y2="1876.85" style="stroke:#000000;stroke-width:5.76"/>
	<text x="1032.45" y="1904.86" style="font-family:'Helvetica';font-size:79.94px;fill:#000000" text-anchor="end">0.001</text>
	<line x1="1092.46" y1="1581.20" x2="1052.49" y2="1581.20" style="stroke:#000000;stroke-width:5.76"/>
	<text x="1032.45" y="1609.21" style="font-family:'Helvetica';font-size:79.94px;fill:#000000" text-anchor="end">0.002</text>
	<line x1="1092.46" y1="1285.56" x2="1052.49" y2="1285.56" style="stroke:#000000;stroke-width:5.76"/>
	<text x="1032.45" y="1313.57" style="font-family:'Helvetica';font-size:79.94px;fill:#000000" text-anchor="end">0.003</text>
	<line x1="1092.46" y1="989.91" x2="1052.49" y2="989.91" style="stroke:#000000;stroke-width:5.76"/>
	<text x="1032.45" y="1017.92" style="font-family:'Helvetica';font-size:79.94px;fill:#000000" text-anchor="end">0.004</text>
	<line x1="1092.46" y1="694.26" x2="1052.49" y2="694.26" style="stroke:#000000;stroke-width:5.76"/>
	<text x="1032.45" y="722.27" style="font-family:'Helvetica';font-size:79.94px;fill:#000000" text-anchor="end">0.005</text>
	<text x="1155.83" y="2747.83" style="font-family:'Helvetica';font-size:60.02px;fill:#000000" text-anchor="middle">510768</text>
	<text x="1632.51" y="2747.83" style="font-family:'Helvetica';font-size:60.02px;fill:#000000" text-anchor="middle">510559</text>
	<text x="2109.20" y="2747.83" style="font-family:'Helvetica';font-size:60.02px;fill:#000000" text-anchor="middle">510266</text>
	<text x="2585.76" y="2747.83" style="font-family:'Helvetica';font-size:60.02px;fill:#000000" text-anchor="middle">509989</text>
	<text x="3062.44" y="2747.83" style="font-family:'Helvetica';font-size:60.02px;fill:#000000" text-anchor="middle">509819</text>
	<text x="3539.13" y="2747.83" style="font-family:'Helvetica';font-size:60.02px;fill:#000000" text-anchor="middle">509633</text>
	<text x="1024.77" y="2747.83" style="font-family:'Helvetica';font-size:60.02px;fill:#000000" text-anchor="end">Other specific NSAIDs</text>
	<text x="1155.83" y="2674.44" style="font-family:'Helvetica';font-size:60.02px;fill:#000000" text-anchor="middle">24751</text>
	<text x="1632.51" y="2674.44" style="font-family:'Helvetica';font-size:60.02px;fill:#000000" text-anchor="middle">24739</text>
	<text x="2109.20" y="2674.44" style="font-family:'Helvetica';font-size:60.02px;fill:#000000" text-anchor="middle">24711</text>
	<text x="2585.76" y="2674.44" style="font-family:'Helvetica';font-size:60.02px;fill:#000000" text-anchor="middle">24692</text>
	<text x="3062.44" y="2674.44" style="font-family:'Helvetica';font-size:60.02px;fill:#000000" text-anchor="middle">24680</text>
	<text x="3539.13" y="2674.44" style="font-family:'Helvetica';font-size:60.02px;fill:#000000" text-anchor="middle">24668</text>
	<text x="1024.77" y="2674.44" style="font-family:'Helvetica';font-size:60.02px;fill:#000000" text-anchor="end">Cox-2 specific NSAIDs</text>
	<text x="1155.83" y="2601.18" style="font-family:'Helvetica';font-size:60.02px;fill:#000000" text-anchor="middle">1924095</text>
	<text x="1632.51" y="2601.18" style="font-family:'Helvetica';font-size:60.02px;fill:#000000" text-anchor="middle">1896129</text>
	<text x="2109.20" y="2601.18" style="font-family:'Helvetica';font-size:60.02px;fill:#000000" text-anchor="middle">1880304</text>
	<text x="2585.76" y="2601.18" style="font-family:'Helvetica';font-size:60.02px;fill:#000000" text-anchor="middle">1863680</text>
	<text x="3062.44" y="2601.18" style="font-family:'Helvetica';font-size:60.02px;fill:#000000" text-anchor="middle">1845915</text>
	<text x="3539.13" y="2601.18" style="font-family:'Helvetica';font-size:60.02px;fill:#000000" text-anchor="middle">1828962</text>
	<text x="1024.77" y="2601.18" style="font-family:'Helvetica';font-size:60.02px;fill:#000000" text-anchor="end">Non-current exposure to NSAIDs</text>
	<text x="1024.77" y="2527.80" style="font-family:'Helvetica';font-size:60.02px;fill:#000000" text-anchor="end">Number at risk</text>
	<line x1="1092.46" y1="2235.86" x2="3840.83" y2="2235.86" style="stroke:#000000;stroke-width:5.76"/>
	<line x1="1155.83" y1="2235.86" x2="1155.83" y2="2275.96" style="stroke:#000000;stroke-width:5.76"/>
	<text x="1155.83" y="2351.78" style="font-family:'Helvetica';font-size:79.94px;fill:#000000" text-anchor="middle">0</text>
	<line x1="1632.51" y1="2235.86" x2="1632.51" y2="2275.96" style="stroke:#000000;stroke-width:5.76"/>
	<text x="1632.51" y="2351.78" style="font-family:'Helvetica';font-size:79.94px;fill:#000000" text-anchor="middle">20</text>
	<line x1="2109.20" y1="2235.86" x2="2109.20" y2="2275.96" style="stroke:#000000;stroke-width:5.76"/>
	<text x="2109.20" y="2351.78" style="font-family:'Helvetica';font-size:79.94px;fill:#000000" text-anchor="middle">40</text>
	<line x1="2585.76" y1="2235.86" x2="2585.76" y2="2275.96" style="stroke:#000000;stroke-width:5.76"/>
	<text x="2585.76" y="2351.78" style="font-family:'Helvetica';font-size:79.94px;fill:#000000" text-anchor="middle">60</text>
	<line x1="3062.44" y1="2235.86" x2="3062.44" y2="2275.96" style="stroke:#000000;stroke-width:5.76"/>
	<text x="3062.44" y="2351.78" style="font-family:'Helvetica';font-size:79.94px;fill:#000000" text-anchor="middle">80</text>
	<line x1="3539.13" y1="2235.86" x2="3539.13" y2="2275.96" style="stroke:#000000;stroke-width:5.76"/>
	<text x="3539.13" y="2351.78" style="font-family:'Helvetica';font-size:79.94px;fill:#000000" text-anchor="middle">100</text>
	<text x="2466.59" y="2441.87" style="font-family:'Helvetica';font-size:79.94px;fill:#000000" text-anchor="middle">Days since 1 Mar 2020</text>
	<rect x="1152.61" y="269.91" width="2628.08" height="326.46" style="fill:#FFFFFF"/>
	<rect x="1155.49" y="272.79" width="2622.32" height="320.70" style="fill:none;stroke:#EAF2F3;stroke-width:5.76"/>
	<line x1="1195.80" y1="363.09" x2="1570.14" y2="363.09" style="stroke:#1A476F;stroke-width:8.64"/>
	<line x1="2676.59" y1="363.09" x2="3051.06" y2="363.09" style="stroke:#90353B;stroke-width:8.64"/>
	<line x1="1195.80" y1="503.06" x2="1570.14" y2="503.06" style="stroke:#55752F;stroke-width:8.64"/>
	<text x="1630.16" y="384.13" style="font-family:'Helvetica';font-size:60.02px;fill:#000000">Non-current exposure to NSAIDs</text>
	<text x="3110.95" y="384.13" style="font-family:'Helvetica';font-size:60.02px;fill:#000000">Cox-2 specific NSAIDs</text>
	<text x="1630.16" y="524.10" style="font-family:'Helvetica';font-size:60.02px;fill:#000000">Other specific NSAIDs</text>
	<text x="1746.24" y="187.99" style="font-family:'Helvetica';font-size:99.99px;fill:#1E2D53">Time to death, nsaid population</text>
</svg>
