<?xml version="1.0" encoding="UTF-8" standalone="no"?>
<!-- This is a Stata 16.1 generated SVG file (http://www.stata.com) -->

<svg version="1.1" width="5.50in" height="4.00in" viewBox="0 0 3960 2880" xmlns="http://www.w3.org/2000/svg" xmlns:xlink="http://www.w3.org/1999/xlink">
	<desc>Stata Graph - Graph</desc>
	<rect x="0" y="0" width="3960" height="2880" style="fill:#EAF2F3;stroke:none"/>
	<rect x="0.00" y="0.00" width="3959.88" height="2880.00" style="fill:#FFFFFF"/>
	<rect x="2.88" y="2.88" width="3954.12" height="2874.24" style="fill:none;stroke:#EAF2F3;stroke-width:5.76"/>
	<rect x="1092.46" y="630.90" width="2748.36" height="1531.70" style="fill:#FFFFFF"/>
	<rect x="1095.34" y="633.78" width="2742.60" height="1525.94" style="fill:none;stroke:#FFFFFF;stroke-width:5.76"/>
	<line x1="1092.46" y1="2099.24" x2="3840.83" y2="2099.24" style="stroke:#EAF2F3;stroke-width:8.64"/>
	<line x1="1092.46" y1="1818.19" x2="3840.83" y2="1818.19" style="stroke:#EAF2F3;stroke-width:8.64"/>
	<line x1="1092.46" y1="1537.27" x2="3840.83" y2="1537.27" style="stroke:#EAF2F3;stroke-width:8.64"/>
	<line x1="1092.46" y1="1256.23" x2="3840.83" y2="1256.23" style="stroke:#EAF2F3;stroke-width:8.64"/>
	<line x1="1092.46" y1="975.18" x2="3840.83" y2="975.18" style="stroke:#EAF2F3;stroke-width:8.64"/>
	<path d=" M1155.83 2099.24 L1155.83 2099.24 L1155.83 2099.24 L1155.83 2099.24 L1155.83 2099.24 L1155.83 2099.24 L1155.83 2099.24 L1179.59 2099.24 L1179.59 2099.24 L1203.47 2099.24 L1203.47 2099.24 L1227.23 2099.24 L1227.23 2099.24 L1251.11 2099.24 L1251.11 2099.24 L1275.00 2099.24 L1275.00 2099.24 L1298.76 2099.24 L1298.76 2099.24 L1322.64 2099.24 L1322.64 2099.24 L1346.40 2099.24 L1346.40 2099.24 L1370.28 2099.24 L1370.28 2099.24 L1394.04 2099.24 L1394.04 2099.24 L1417.93 2099.24 L1417.93 2099.24 L1441.81 2099.24 L1441.81 2099.24 L1465.57 2099.24 L1465.57 2099.24 L1489.45 2099.24 L1489.45 2099.24 L1513.21 2099.24 L1513.21 2099.11 L1537.10 2099.11 L1537.10 2098.87 L1560.98 2098.87 L1560.98 2098.87 L1584.74 2098.87 L1584.74 2098.74 L1608.63 2098.74 L1608.63 2098.74 L1632.39 2098.74 L1632.39 2098.49 L1656.27 2098.49 L1656.27 2098.25 L1680.15 2098.25 L1680.15 2097.63 L1703.91 2097.63 L1703.91 2097.26 L1727.80 2097.26 L1727.80 2096.14 L1751.56 2096.14 L1751.56 2095.40 L1775.44 2095.40 L1775.44 2094.53 L1799.20 2094.53 L1799.20 2093.79 L1823.09 2093.79 L1823.09 2092.55 L1846.97 2092.55 L1846.97 2091.56 L1870.73 2091.56 L1870.73 2090.20 L1894.61 2090.20 L1894.61 2089.34 L1918.37 2089.34 L1918.37 2088.35 L1942.26 2088.35 L1942.26 2086.49 L1966.14 2086.49 L1966.14 2084.39 L1989.90 2084.39 L1989.90 2082.28 L2013.78 2082.28 L2013.78 2081.17 L2037.54 2081.17 L2037.54 2078.57 L2061.43 2078.57 L2061.43 2075.60 L2085.31 2075.60 L2085.31 2072.51 L2109.07 2072.51 L2109.07 2070.15 L2132.95 2070.15 L2132.95 2068.17 L2156.72 2068.17 L2156.72 2066.57 L2180.60 2066.57 L2180.60 2064.09 L2204.36 2064.09 L2204.36 2062.61 L2228.24 2062.61 L2228.24 2059.88 L2252.13 2059.88 L2252.13 2058.27 L2275.89 2058.27 L2275.89 2054.93 L2299.77 2054.93 L2299.77 2053.45 L2323.53 2053.45 L2323.53 2051.59 L2347.41 2051.59 L2347.41 2049.49 L2371.30 2049.49 L2371.30 2046.89 L2395.06 2046.89 L2395.06 2045.28 L2418.94 2045.28 L2418.94 2042.93 L2442.70 2042.93 L2442.70 2041.44 L2466.59 2041.44 L2466.59 2039.96 L2490.34 2039.96 L2490.34 2037.98 L2514.23 2037.98 L2514.23 2036.86 L2538.11 2036.86 L2538.11 2035.13 L2561.87 2035.13 L2561.87 2033.65 L2585.76 2033.65 L2585.76 2032.41 L2609.52 2032.41 L2609.52 2031.42 L2633.40 2031.42 L2633.40 2030.43 L2657.28 2030.43 L2657.28 2029.07 L2681.04 2029.07 L2681.04 2028.08 L2704.93 2028.08 L2704.93 2027.34 L2728.69 2027.34 L2728.69 2026.10 L2752.57 2026.10 L2752.57 2024.86 L2776.45 2024.86 L2776.45 2024.12 L2800.22 2024.12 L2800.22 2023.38 L2824.10 2023.38 L2824.10 2022.88 L2847.86 2022.88 L2847.86 2022.88 L2871.74 2022.88 L2871.74 2021.27 L2895.50 2021.27 L2895.50 2020.41 L2919.39 2020.41 L2919.39 2019.91 L2943.27 2019.91 L2943.27 2019.54 L2967.03 2019.54 L2967.03 2018.80 L2990.91 2018.80 L2990.91 2018.18 L3014.67 2018.18 L3014.67 2017.81 L3038.56 2017.81 L3038.56 2017.19 L3062.44 2017.19 L3062.44 2016.82 L3086.20 2016.82 L3086.20 2016.07 L3110.09 2016.07 L3110.09 2015.33 L3133.84 2015.33 L3133.84 2015.21 L3157.73 2015.21 L3157.73 2014.71 L3181.61 2014.71 L3181.61 2014.22 L3205.37 2014.22 L3205.37 2013.60 L3229.26 2013.60 L3229.26 2013.10 L3253.02 2013.10 L3253.02 2012.24 L3276.90 2012.24 L3276.90 2012.11 L3300.66 2012.11 L3300.66 2011.87 L3324.54 2011.87 L3324.54 2011.50 L3348.43 2011.50 L3348.43 2010.75 L3372.19 2010.75 L3372.19 2010.63 L3396.07 2010.63 L3396.07 2010.26 L3419.83 2010.26 L3419.83 2009.89 L3443.72 2009.89 L3443.72 2009.52 L3467.60 2009.52 L3467.60 2009.39 L3491.36 2009.39 L3491.36 2009.02 L3515.24 2009.02 L3515.24 2009.02 L3539.00 2009.02 L3539.00 2008.90 L3562.89 2008.90 L3562.89 2008.40 L3586.77 2008.40 L3586.77 2008.28 L3610.53 2008.28 L3610.53 2007.66 L3634.41 2007.66 L3634.41 2007.66 L3658.17 2007.66 L3658.17 2007.54" stroke-linejoin="round" style="fill:none;stroke:#1A476F;stroke-width:8.64"/>
	<path d=" M1155.83 2099.24 L1155.83 2099.24 L1155.83 2099.24 L1155.83 2099.24 L1155.83 2099.24 L1155.83 2099.24 L1155.83 2099.24 L1179.59 2099.24 L1179.59 2099.24 L1203.47 2099.24 L1203.47 2099.24 L1227.23 2099.24 L1227.23 2099.24 L1251.11 2099.24 L1251.11 2099.24 L1275.00 2099.24 L1275.00 2099.24 L1298.76 2099.24 L1298.76 2099.24 L1322.64 2099.24 L1322.64 2099.24 L1346.40 2099.24 L1346.40 2099.24 L1370.28 2099.24 L1370.28 2099.24 L1394.04 2099.24 L1394.04 2099.24 L1417.93 2099.24 L1417.93 2099.24 L1441.81 2099.24 L1441.81 2099.24 L1465.57 2099.24 L1465.57 2099.24 L1489.45 2099.24 L1489.45 2099.24 L1513.21 2099.24 L1513.21 2099.24 L1537.10 2099.24 L1537.10 2099.24 L1560.98 2099.24 L1560.98 2099.24 L1584.74 2099.24 L1584.74 2099.24 L1608.63 2099.24 L1608.63 2099.24 L1656.27 2099.24 L1656.27 2099.24 L1680.15 2099.24 L1680.15 2099.24 L1703.91 2099.24 L1703.91 2096.76 L1727.80 2096.76 L1727.80 2096.76 L1751.56 2096.76 L1751.56 2096.76 L1775.44 2096.76 L1775.44 2094.16 L1799.20 2094.16 L1799.20 2094.16 L1823.09 2094.16 L1823.09 2094.16 L1846.97 2094.16 L1846.97 2091.56 L1870.73 2091.56 L1870.73 2091.56 L1894.61 2091.56 L1894.61 2088.97 L1918.37 2088.97 L1918.37 2088.97 L1942.26 2088.97 L1942.26 2083.89 L1966.14 2083.89 L1966.14 2083.89 L1989.90 2083.89 L1989.90 2081.29 L2013.78 2081.29 L2013.78 2081.29 L2037.54 2081.29 L2037.54 2076.22 L2061.43 2076.22 L2061.43 2071.02 L2085.31 2071.02 L2085.31 2071.02 L2109.07 2071.02 L2109.07 2065.82 L2132.95 2065.82 L2132.95 2060.75 L2156.72 2060.75 L2156.72 2058.15 L2180.60 2058.15 L2180.60 2053.08 L2204.36 2053.08 L2204.36 2053.08 L2228.24 2053.08 L2228.24 2053.08 L2252.13 2053.08 L2252.13 2047.88 L2275.89 2047.88 L2275.89 2042.81 L2299.77 2042.81 L2299.77 2037.61 L2323.53 2037.61 L2323.53 2035.01 L2347.41 2035.01 L2347.41 2035.01 L2371.30 2035.01 L2371.30 2035.01 L2395.06 2035.01 L2395.06 2032.41 L2418.94 2032.41 L2418.94 2027.34 L2442.70 2027.34 L2442.70 2024.74 L2466.59 2024.74 L2466.59 2024.74 L2490.34 2024.74 L2490.34 2024.74 L2514.23 2024.74 L2514.23 2022.14 L2538.11 2022.14 L2538.11 2019.66 L2561.87 2019.66 L2561.87 2019.66 L2585.76 2019.66 L2585.76 2017.06 L2609.52 2017.06 L2609.52 2014.47 L2633.40 2014.47 L2633.40 2014.47 L2657.28 2014.47 L2657.28 2014.47 L2681.04 2014.47 L2681.04 2011.87 L2704.93 2011.87 L2704.93 2004.19 L2728.69 2004.19 L2728.69 2001.60 L2752.57 2001.60 L2752.57 2001.60 L2776.45 2001.60 L2776.45 2001.60 L2800.22 2001.60 L2800.22 1999.00 L2824.10 1999.00 L2824.10 1999.00 L2847.86 1999.00 L2847.86 1999.00 L2871.74 1999.00 L2871.74 1996.40 L2895.50 1996.40 L2895.50 1996.40 L2919.39 1996.40 L2919.39 1996.40 L2943.27 1996.40 L2943.27 1996.40 L2990.91 1996.40 L2990.91 1993.92 L3014.67 1993.92 L3014.67 1993.92 L3038.56 1993.92 L3038.56 1993.92 L3086.20 1993.92 L3086.20 1991.32 L3133.84 1991.32 L3133.84 1991.32 L3157.73 1991.32 L3157.73 1991.32 L3181.61 1991.32 L3181.61 1988.72 L3205.37 1988.72 L3205.37 1986.13 L3229.26 1986.13 L3229.26 1986.13 L3276.90 1986.13 L3276.90 1986.13 L3324.54 1986.13 L3324.54 1986.13 L3348.43 1986.13 L3348.43 1986.13 L3372.19 1986.13 L3372.19 1986.13 L3396.07 1986.13 L3396.07 1986.13 L3419.83 1986.13 L3419.83 1986.13 L3443.72 1986.13 L3443.72 1986.13 L3467.60 1986.13 L3467.60 1983.65 L3491.36 1983.65 L3491.36 1983.65 L3562.89 1983.65 L3562.89 1983.65 L3586.77 1983.65 L3586.77 1983.65 L3610.53 1983.65 L3610.53 1981.05 L3634.41 1981.05 L3634.41 1981.05 L3658.17 1981.05 L3658.17 1978.45" stroke-linejoin="round" style="fill:none;stroke:#90353B;stroke-width:8.64"/>
	<path d=" M1155.83 2099.24 L1155.83 2099.24 L1155.83 2099.24 L1155.83 2099.24 L1155.83 2099.24 L1155.83 2099.24 L1155.83 2099.24 L1179.59 2099.24 L1179.59 2099.24 L1203.47 2099.24 L1203.47 2099.24 L1227.23 2099.24 L1227.23 2099.24 L1251.11 2099.24 L1251.11 2099.24 L1275.00 2099.24 L1275.00 2099.24 L1298.76 2099.24 L1298.76 2099.24 L1346.40 2099.24 L1346.40 2099.24 L1370.28 2099.24 L1370.28 2099.24 L1394.04 2099.24 L1394.04 2099.24 L1417.93 2099.24 L1417.93 2099.24 L1441.81 2099.24 L1441.81 2099.24 L1465.57 2099.24 L1465.57 2099.24 L1489.45 2099.24 L1489.45 2099.24 L1513.21 2099.24 L1513.21 2099.24 L1537.10 2099.24 L1537.10 2099.24 L1560.98 2099.24 L1560.98 2099.24 L1584.74 2099.24 L1584.74 2099.24 L1608.63 2099.24 L1608.63 2099.24 L1632.39 2099.24 L1632.39 2099.24 L1656.27 2099.24 L1656.27 2098.37 L1680.15 2098.37 L1680.15 2097.38 L1703.91 2097.38 L1703.91 2096.39 L1727.80 2096.39 L1727.80 2095.40 L1751.56 2095.40 L1751.56 2095.40 L1775.44 2095.40 L1775.44 2094.53 L1799.20 2094.53 L1799.20 2094.53 L1823.09 2094.53 L1823.09 2093.54 L1846.97 2093.54 L1846.97 2091.56 L1870.73 2091.56 L1870.73 2089.71 L1894.61 2089.71 L1894.61 2088.72 L1918.37 2088.72 L1918.37 2087.73 L1942.26 2087.73 L1942.26 2085.87 L1966.14 2085.87 L1966.14 2084.88 L1989.90 2084.88 L1989.90 2081.91 L2013.78 2081.91 L2013.78 2080.06 L2037.54 2080.06 L2037.54 2078.07 L2061.43 2078.07 L2061.43 2074.24 L2085.31 2074.24 L2085.31 2067.56 L2109.07 2067.56 L2109.07 2064.59 L2132.95 2064.59 L2132.95 2062.73 L2156.72 2062.73 L2156.72 2060.75 L2180.60 2060.75 L2180.60 2058.89 L2204.36 2058.89 L2204.36 2054.93 L2228.24 2054.93 L2228.24 2054.93 L2252.13 2054.93 L2252.13 2053.08 L2275.89 2053.08 L2275.89 2053.08 L2299.77 2053.08 L2299.77 2052.09 L2323.53 2052.09 L2323.53 2050.23 L2347.41 2050.23 L2347.41 2045.40 L2371.30 2045.40 L2371.30 2043.42 L2395.06 2043.42 L2395.06 2042.43 L2418.94 2042.43 L2418.94 2040.58 L2442.70 2040.58 L2442.70 2039.59 L2466.59 2039.59 L2466.59 2038.60 L2490.34 2038.60 L2490.34 2037.61 L2514.23 2037.61 L2514.23 2033.77 L2538.11 2033.77 L2538.11 2032.78 L2561.87 2032.78 L2561.87 2032.78 L2585.76 2032.78 L2585.76 2031.91 L2609.52 2031.91 L2609.52 2030.92 L2633.40 2030.92 L2633.40 2029.93 L2657.28 2029.93 L2657.28 2028.94 L2681.04 2028.94 L2681.04 2028.08 L2704.93 2028.08 L2704.93 2027.09 L2728.69 2027.09 L2728.69 2027.09 L2752.57 2027.09 L2752.57 2026.10 L2776.45 2026.10 L2776.45 2026.10 L2800.22 2026.10 L2800.22 2025.11 L2824.10 2025.11 L2824.10 2025.11 L2847.86 2025.11 L2847.86 2025.11 L2871.74 2025.11 L2871.74 2025.11 L2895.50 2025.11 L2895.50 2025.11 L2919.39 2025.11 L2919.39 2024.12 L2943.27 2024.12 L2943.27 2024.12 L2967.03 2024.12 L2967.03 2024.12 L2990.91 2024.12 L2990.91 2024.12 L3014.67 2024.12 L3014.67 2023.25 L3038.56 2023.25 L3038.56 2023.25 L3062.44 2023.25 L3062.44 2022.26 L3086.20 2022.26 L3086.20 2022.26 L3133.84 2022.26 L3133.84 2022.26 L3157.73 2022.26 L3157.73 2022.26 L3181.61 2022.26 L3181.61 2020.28 L3205.37 2020.28 L3205.37 2020.28 L3229.26 2020.28 L3229.26 2020.28 L3253.02 2020.28 L3253.02 2020.28 L3276.90 2020.28 L3276.90 2018.43 L3300.66 2018.43 L3300.66 2017.44 L3324.54 2017.44 L3324.54 2017.44 L3348.43 2017.44 L3348.43 2017.44 L3372.19 2017.44 L3372.19 2017.44 L3396.07 2017.44 L3396.07 2016.45 L3419.83 2016.45 L3419.83 2016.45 L3443.72 2016.45 L3443.72 2016.45 L3467.60 2016.45 L3467.60 2015.46 L3491.36 2015.46 L3491.36 2015.46 L3515.24 2015.46 L3515.24 2015.46 L3539.00 2015.46 L3539.00 2015.46 L3562.89 2015.46 L3562.89 2015.46 L3586.77 2015.46 L3586.77 2015.46 L3610.53 2015.46 L3610.53 2014.59 L3634.41 2014.59 L3634.41 2014.59 L3658.17 2014.59 L3658.17 2014.59" stroke-linejoin="round" style="fill:none;stroke:#55752F;stroke-width:8.64"/>
	<path d=" M1155.83 2099.24 L1155.83 2099.24 L1155.83 2099.24 L1155.83 2099.24 L1155.83 2099.24 L1155.83 2099.24 L1155.83 2099.24 L1179.59 2099.24 L1179.59 2099.24 L1203.47 2099.24 L1203.47 2099.24 L1227.23 2099.24 L1227.23 2099.24 L1251.11 2099.24 L1251.11 2099.24 L1275.00 2099.24 L1275.00 2099.24 L1298.76 2099.24 L1298.76 2099.24 L1322.64 2099.24 L1322.64 2099.24 L1346.40 2099.24 L1346.40 2099.24 L1370.28 2099.24 L1370.28 2099.24 L1394.04 2099.24 L1394.04 2099.24 L1417.93 2099.24 L1417.93 2099.24 L1441.81 2099.24 L1441.81 2099.24 L1465.57 2099.24 L1465.57 2099.24 L1489.45 2099.24 L1489.45 2099.24 L1513.21 2099.24 L1513.21 2099.24 L1537.10 2099.24 L1537.10 2099.24 L1560.98 2099.24 L1560.98 2099.24 L1584.74 2099.24 L1584.74 2099.24 L1608.63 2099.24 L1608.63 2099.24 L1632.39 2099.24 L1632.39 2099.24 L1656.27 2099.24 L1656.27 2099.24 L1680.15 2099.24 L1680.15 2099.24 L1703.91 2099.24 L1703.91 2099.24 L1727.80 2099.24 L1727.80 2099.24 L1751.56 2099.24 L1751.56 2097.13 L1775.44 2097.13 L1775.44 2095.15 L1799.20 2095.15 L1799.20 2095.15 L1823.09 2095.15 L1823.09 2093.05 L1846.97 2093.05 L1846.97 2086.74 L1870.73 2086.74 L1870.73 2084.63 L1894.61 2084.63 L1894.61 2072.01 L1918.37 2072.01 L1918.37 2069.91 L1942.26 2069.91 L1942.26 2063.60 L1966.14 2063.60 L1966.14 2059.39 L1989.90 2059.39 L1989.90 2057.41 L2013.78 2057.41 L2013.78 2055.30 L2037.54 2055.30 L2037.54 2051.10 L2061.43 2051.10 L2061.43 2046.89 L2085.31 2046.89 L2085.31 2036.37 L2109.07 2036.37 L2109.07 2034.27 L2132.95 2034.27 L2132.95 2030.06 L2156.72 2030.06 L2156.72 2021.64 L2180.60 2021.64 L2180.60 2017.44 L2204.36 2017.44 L2204.36 2015.46 L2228.24 2015.46 L2228.24 2009.14 L2252.13 2009.14 L2252.13 2007.04 L2275.89 2007.04 L2275.89 2004.94 L2299.77 2004.94 L2299.77 2002.83 L2323.53 2002.83 L2323.53 2000.73 L2347.41 2000.73 L2347.41 2000.73 L2371.30 2000.73 L2371.30 1994.42 L2395.06 1994.42 L2395.06 1994.42 L2418.94 1994.42 L2418.94 1992.31 L2442.70 1992.31 L2442.70 1988.11 L2466.59 1988.11 L2466.59 1983.90 L2490.34 1983.90 L2490.34 1979.69 L2514.23 1979.69 L2514.23 1971.28 L2538.11 1971.28 L2538.11 1965.09 L2561.87 1965.09 L2561.87 1960.88 L2585.76 1960.88 L2585.76 1958.78 L2609.52 1958.78 L2609.52 1956.67 L2633.40 1956.67 L2633.40 1956.67 L2657.28 1956.67 L2657.28 1956.67 L2681.04 1956.67 L2681.04 1954.57 L2704.93 1954.57 L2704.93 1954.57 L2728.69 1954.57 L2728.69 1954.57 L2752.57 1954.57 L2752.57 1954.57 L2776.45 1954.57 L2776.45 1954.57 L2800.22 1954.57 L2800.22 1952.46 L2824.10 1952.46 L2824.10 1952.46 L2847.86 1952.46 L2847.86 1952.46 L2871.74 1952.46 L2871.74 1948.26 L2895.50 1948.26 L2895.50 1946.15 L2943.27 1946.15 L2943.27 1946.15 L2967.03 1946.15 L2967.03 1944.05 L2990.91 1944.05 L2990.91 1944.05 L3014.67 1944.05 L3014.67 1941.95 L3038.56 1941.95 L3038.56 1939.84 L3062.44 1939.84 L3062.44 1937.74 L3086.20 1937.74 L3086.20 1935.63 L3110.09 1935.63 L3110.09 1935.63 L3133.84 1935.63 L3133.84 1935.63 L3157.73 1935.63 L3157.73 1935.63 L3181.61 1935.63 L3181.61 1935.63 L3205.37 1935.63 L3205.37 1933.53 L3229.26 1933.53 L3229.26 1933.53 L3253.02 1933.53 L3253.02 1933.53 L3276.90 1933.53 L3276.90 1933.53 L3300.66 1933.53 L3300.66 1933.53 L3324.54 1933.53 L3324.54 1933.53 L3348.43 1933.53 L3348.43 1931.43 L3372.19 1931.43 L3372.19 1931.43 L3396.07 1931.43 L3396.07 1929.32 L3419.83 1929.32 L3419.83 1929.32 L3443.72 1929.32 L3443.72 1927.22 L3467.60 1927.22 L3467.60 1927.22 L3491.36 1927.22 L3491.36 1927.22 L3515.24 1927.22 L3515.24 1927.22 L3539.00 1927.22 L3539.00 1927.22 L3562.89 1927.22 L3562.89 1927.22 L3586.77 1927.22 L3586.77 1927.22 L3610.53 1927.22 L3610.53 1925.12 L3634.41 1925.12 L3634.41 1925.12 L3658.17 1925.12 L3658.17 1925.12" stroke-linejoin="round" style="fill:none;stroke:#E37E00;stroke-width:8.64"/>
	<line x1="1092.46" y1="2162.60" x2="1092.46" y2="630.90" style="stroke:#000000;stroke-width:5.76"/>
	<line x1="1092.46" y1="2099.24" x2="1052.49" y2="2099.24" style="stroke:#000000;stroke-width:5.76"/>
	<text x="1032.45" y="2127.25" style="font-family:'Helvetica';font-size:79.94px;fill:#000000" text-anchor="end">0.000</text>
	<line x1="1092.46" y1="1818.19" x2="1052.49" y2="1818.19" style="stroke:#000000;stroke-width:5.76"/>
	<text x="1032.45" y="1846.20" style="font-family:'Helvetica';font-size:79.94px;fill:#000000" text-anchor="end">0.001</text>
	<line x1="1092.46" y1="1537.27" x2="1052.49" y2="1537.27" style="stroke:#000000;stroke-width:5.76"/>
	<text x="1032.45" y="1565.28" style="font-family:'Helvetica';font-size:79.94px;fill:#000000" text-anchor="end">0.002</text>
	<line x1="1092.46" y1="1256.23" x2="1052.49" y2="1256.23" style="stroke:#000000;stroke-width:5.76"/>
	<text x="1032.45" y="1284.24" style="font-family:'Helvetica';font-size:79.94px;fill:#000000" text-anchor="end">0.003</text>
	<line x1="1092.46" y1="975.18" x2="1052.49" y2="975.18" style="stroke:#000000;stroke-width:5.76"/>
	<text x="1032.45" y="1003.19" style="font-family:'Helvetica';font-size:79.94px;fill:#000000" text-anchor="end">0.004</text>
	<line x1="1092.46" y1="694.26" x2="1052.49" y2="694.26" style="stroke:#000000;stroke-width:5.76"/>
	<text x="1032.45" y="722.27" style="font-family:'Helvetica';font-size:79.94px;fill:#000000" text-anchor="end">0.005</text>
	<text x="1155.83" y="2747.83" style="font-family:'Helvetica';font-size:60.02px;fill:#000000" text-anchor="middle">134169</text>
	<text x="1632.51" y="2747.83" style="font-family:'Helvetica';font-size:60.02px;fill:#000000" text-anchor="middle">134072</text>
	<text x="2109.20" y="2747.83" style="font-family:'Helvetica';font-size:60.02px;fill:#000000" text-anchor="middle">133924</text>
	<text x="2585.76" y="2747.83" style="font-family:'Helvetica';font-size:60.02px;fill:#000000" text-anchor="middle">133802</text>
	<text x="3062.44" y="2747.83" style="font-family:'Helvetica';font-size:60.02px;fill:#000000" text-anchor="middle">133737</text>
	<text x="3539.13" y="2747.83" style="font-family:'Helvetica';font-size:60.02px;fill:#000000" text-anchor="middle">133650</text>
	<text x="1024.77" y="2747.83" style="font-family:'Helvetica';font-size:60.02px;fill:#000000" text-anchor="end">Other NSAIDs</text>
	<text x="1155.83" y="2674.44" style="font-family:'Helvetica';font-size:60.02px;fill:#000000" text-anchor="middle">291943</text>
	<text x="1632.51" y="2674.44" style="font-family:'Helvetica';font-size:60.02px;fill:#000000" text-anchor="middle">291862</text>
	<text x="2109.20" y="2674.44" style="font-family:'Helvetica';font-size:60.02px;fill:#000000" text-anchor="middle">291744</text>
	<text x="2585.76" y="2674.44" style="font-family:'Helvetica';font-size:60.02px;fill:#000000" text-anchor="middle">291634</text>
	<text x="3062.44" y="2674.44" style="font-family:'Helvetica';font-size:60.02px;fill:#000000" text-anchor="middle">291563</text>
	<text x="3539.13" y="2674.44" style="font-family:'Helvetica';font-size:60.02px;fill:#000000" text-anchor="middle">291481</text>
	<text x="1024.77" y="2674.44" style="font-family:'Helvetica';font-size:60.02px;fill:#000000" text-anchor="end">Naproxen high dose</text>
	<text x="1155.83" y="2601.18" style="font-family:'Helvetica';font-size:60.02px;fill:#000000" text-anchor="middle">109407</text>
	<text x="1632.51" y="2601.18" style="font-family:'Helvetica';font-size:60.02px;fill:#000000" text-anchor="middle">109364</text>
	<text x="2109.20" y="2601.18" style="font-family:'Helvetica';font-size:60.02px;fill:#000000" text-anchor="middle">109309</text>
	<text x="2585.76" y="2601.18" style="font-family:'Helvetica';font-size:60.02px;fill:#000000" text-anchor="middle">109245</text>
	<text x="3062.44" y="2601.18" style="font-family:'Helvetica';font-size:60.02px;fill:#000000" text-anchor="middle">109199</text>
	<text x="3539.13" y="2601.18" style="font-family:'Helvetica';font-size:60.02px;fill:#000000" text-anchor="middle">109170</text>
	<text x="1024.77" y="2601.18" style="font-family:'Helvetica';font-size:60.02px;fill:#000000" text-anchor="end">Current exposure to NSAIDs</text>
	<text x="1155.83" y="2527.80" style="font-family:'Helvetica';font-size:60.02px;fill:#000000" text-anchor="middle">1924095</text>
	<text x="1632.51" y="2527.80" style="font-family:'Helvetica';font-size:60.02px;fill:#000000" text-anchor="middle">1896129</text>
	<text x="2109.20" y="2527.80" style="font-family:'Helvetica';font-size:60.02px;fill:#000000" text-anchor="middle">1880304</text>
	<text x="2585.76" y="2527.80" style="font-family:'Helvetica';font-size:60.02px;fill:#000000" text-anchor="middle">1863680</text>
	<text x="3062.44" y="2527.80" style="font-family:'Helvetica';font-size:60.02px;fill:#000000" text-anchor="middle">1845915</text>
	<text x="3539.13" y="2527.80" style="font-family:'Helvetica';font-size:60.02px;fill:#000000" text-anchor="middle">1828962</text>
	<text x="1024.77" y="2527.80" style="font-family:'Helvetica';font-size:60.02px;fill:#000000" text-anchor="end">Non-current exposure to NSAIDs</text>
	<text x="1024.77" y="2454.53" style="font-family:'Helvetica';font-size:60.02px;fill:#000000" text-anchor="end">Number at risk</text>
	<line x1="1092.46" y1="2162.60" x2="3840.83" y2="2162.60" style="stroke:#000000;stroke-width:5.76"/>
	<line x1="1155.83" y1="2162.60" x2="1155.83" y2="2202.57" style="stroke:#000000;stroke-width:5.76"/>
	<text x="1155.83" y="2278.52" style="font-family:'Helvetica';font-size:79.94px;fill:#000000" text-anchor="middle">0</text>
	<line x1="1632.51" y1="2162.60" x2="1632.51" y2="2202.57" style="stroke:#000000;stroke-width:5.76"/>
	<text x="1632.51" y="2278.52" style="font-family:'Helvetica';font-size:79.94px;fill:#000000" text-anchor="middle">20</text>
	<line x1="2109.20" y1="2162.60" x2="2109.20" y2="2202.57" style="stroke:#000000;stroke-width:5.76"/>
	<text x="2109.20" y="2278.52" style="font-family:'Helvetica';font-size:79.94px;fill:#000000" text-anchor="middle">40</text>
	<line x1="2585.76" y1="2162.60" x2="2585.76" y2="2202.57" style="stroke:#000000;stroke-width:5.76"/>
	<text x="2585.76" y="2278.52" style="font-family:'Helvetica';font-size:79.94px;fill:#000000" text-anchor="middle">60</text>
	<line x1="3062.44" y1="2162.60" x2="3062.44" y2="2202.57" style="stroke:#000000;stroke-width:5.76"/>
	<text x="3062.44" y="2278.52" style="font-family:'Helvetica';font-size:79.94px;fill:#000000" text-anchor="middle">80</text>
	<line x1="3539.13" y1="2162.60" x2="3539.13" y2="2202.57" style="stroke:#000000;stroke-width:5.76"/>
	<text x="3539.13" y="2278.52" style="font-family:'Helvetica';font-size:79.94px;fill:#000000" text-anchor="middle">100</text>
	<text x="2466.59" y="2368.49" style="font-family:'Helvetica';font-size:79.94px;fill:#000000" text-anchor="middle">Days since 1 Mar 2020</text>
	<rect x="1200.75" y="269.91" width="2531.80" height="326.46" style="fill:#FFFFFF"/>
	<rect x="1203.63" y="272.79" width="2526.04" height="320.70" style="fill:none;stroke:#EAF2F3;stroke-width:5.76"/>
	<line x1="1243.93" y1="363.09" x2="1618.28" y2="363.09" style="stroke:#1A476F;stroke-width:8.64"/>
	<line x1="2724.73" y1="363.09" x2="3099.20" y2="363.09" style="stroke:#90353B;stroke-width:8.64"/>
	<line x1="1243.93" y1="503.06" x2="1618.28" y2="503.06" style="stroke:#55752F;stroke-width:8.64"/>
	<line x1="2724.73" y1="503.06" x2="3099.20" y2="503.06" style="stroke:#E37E00;stroke-width:8.64"/>
	<text x="1678.30" y="384.13" style="font-family:'Helvetica';font-size:60.02px;fill:#000000">Non-current exposure to NSAIDs</text>
	<text x="3159.09" y="384.13" style="font-family:'Helvetica';font-size:60.02px;fill:#000000">Naproxen low dose</text>
	<text x="1678.30" y="524.10" style="font-family:'Helvetica';font-size:60.02px;fill:#000000">Naproxen high dose</text>
	<text x="3159.09" y="524.10" style="font-family:'Helvetica';font-size:60.02px;fill:#000000">Other NSAIDs</text>
	<text x="1746.24" y="187.99" style="font-family:'Helvetica';font-size:99.99px;fill:#1E2D53">Time to death, nsaid population</text>
</svg>
