<?xml version="1.0" encoding="UTF-8" standalone="no"?>
<!-- This is a Stata 16.1 generated SVG file (http://www.stata.com) -->

<svg version="1.1" width="5.50in" height="4.00in" viewBox="0 0 3960 2880" xmlns="http://www.w3.org/2000/svg" xmlns:xlink="http://www.w3.org/1999/xlink">
	<desc>Stata Graph - Graph</desc>
	<rect x="0" y="0" width="3960" height="2880" style="fill:#EAF2F3;stroke:none"/>
	<rect x="0.00" y="0.00" width="3959.88" height="2880.00" style="fill:#FFFFFF"/>
	<rect x="2.88" y="2.88" width="3954.12" height="2874.24" style="fill:none;stroke:#EAF2F3;stroke-width:5.76"/>
	<rect x="1043.95" y="490.93" width="2815.07" height="1818.32" style="fill:#FFFFFF"/>
	<rect x="1046.83" y="493.81" width="2809.31" height="1812.56" style="fill:none;stroke:#FFFFFF;stroke-width:5.76"/>
	<line x1="1043.95" y1="2245.89" x2="3859.02" y2="2245.89" style="stroke:#EAF2F3;stroke-width:8.64"/>
	<line x1="1043.95" y1="1823.02" x2="3859.02" y2="1823.02" style="stroke:#EAF2F3;stroke-width:8.64"/>
	<line x1="1043.95" y1="1400.03" x2="3859.02" y2="1400.03" style="stroke:#EAF2F3;stroke-width:8.64"/>
	<line x1="1043.95" y1="977.16" x2="3859.02" y2="977.16" style="stroke:#EAF2F3;stroke-width:8.64"/>
	<path d=" M1107.19 2246.01 L1107.19 2246.01 L1107.19 2246.01 L1132.81 2246.01 L1132.81 2246.01 L1158.42 2246.01 L1158.42 2246.01 L1184.04 2246.01 L1184.04 2246.01 L1209.66 2246.01 L1209.66 2246.01 L1235.27 2246.01 L1235.27 2246.01 L1260.77 2246.01 L1260.77 2246.01 L1286.38 2246.01 L1286.38 2246.01 L1312.00 2246.01 L1312.00 2246.01 L1337.61 2246.01 L1337.61 2246.01 L1363.23 2246.01 L1363.23 2246.01 L1388.85 2246.01 L1388.85 2246.01 L1414.46 2246.01 L1414.46 2246.01 L1440.08 2246.01 L1440.08 2246.01 L1465.69 2246.01 L1465.69 2246.01 L1491.31 2246.01 L1491.31 2246.01 L1516.93 2246.01 L1516.93 2246.01 L1542.42 2246.01 L1542.42 2246.01 L1568.04 2246.01 L1568.04 2246.01 L1593.65 2246.01 L1593.65 2246.01 L1619.27 2246.01 L1619.27 2246.01 L1644.88 2246.01 L1644.88 2246.01 L1670.50 2246.01 L1670.50 2245.51 L1696.12 2245.51 L1696.12 2245.02 L1721.73 2245.02 L1721.73 2244.15 L1747.35 2244.15 L1747.35 2243.53 L1772.97 2243.53 L1772.97 2243.29 L1798.46 2243.29 L1798.46 2242.79 L1824.08 2242.79 L1824.08 2241.93 L1849.69 2241.93 L1849.69 2241.06 L1875.31 2241.06 L1875.31 2240.07 L1900.92 2240.07 L1900.92 2239.20 L1926.54 2239.20 L1926.54 2237.59 L1952.16 2237.59 L1952.16 2236.97 L1977.77 2236.97 L1977.77 2234.75 L2003.39 2234.75 L2003.39 2233.14 L2029.01 2233.14 L2029.01 2232.27 L2054.50 2232.27 L2054.50 2230.66 L2080.11 2230.66 L2080.11 2227.69 L2105.73 2227.69 L2105.73 2225.47 L2131.35 2225.47 L2131.35 2223.86 L2156.96 2223.86 L2156.96 2222.12 L2182.58 2222.12 L2182.58 2220.76 L2208.20 2220.76 L2208.20 2218.66 L2233.81 2218.66 L2233.81 2217.55 L2259.43 2217.55 L2259.43 2215.69 L2285.04 2215.69 L2285.04 2214.33 L2310.66 2214.33 L2310.66 2212.35 L2336.15 2212.35 L2336.15 2211.23 L2361.77 2211.23 L2361.77 2209.63 L2387.39 2209.63 L2387.39 2207.52 L2413.00 2207.52 L2413.00 2206.41 L2438.62 2206.41 L2438.62 2204.55 L2464.23 2204.55 L2464.23 2203.19 L2489.85 2203.19 L2489.85 2202.08 L2515.47 2202.08 L2515.47 2201.21 L2541.08 2201.21 L2541.08 2199.60 L2566.70 2199.60 L2566.70 2198.49 L2592.19 2198.49 L2592.19 2197.00 L2617.81 2197.00 L2617.81 2195.52 L2643.42 2195.52 L2643.42 2194.53 L2669.04 2194.53 L2669.04 2193.66 L2694.66 2193.66 L2694.66 2192.42 L2720.27 2192.42 L2720.27 2191.31 L2745.89 2191.31 L2745.89 2190.94 L2771.51 2190.94 L2771.51 2190.44 L2797.12 2190.44 L2797.12 2189.33 L2822.74 2189.33 L2822.74 2188.34 L2848.35 2188.34 L2848.35 2187.84 L2873.85 2187.84 L2873.85 2187.23 L2899.46 2187.23 L2899.46 2186.98 L2925.08 2186.98 L2925.08 2186.98 L2950.70 2186.98 L2950.70 2185.99 L2976.31 2185.99 L2976.31 2185.62 L3001.93 2185.62 L3001.93 2185.37 L3027.54 2185.37 L3027.54 2185.37 L3053.16 2185.37 L3053.16 2184.63 L3078.78 2184.63 L3078.78 2184.63 L3104.39 2184.63 L3104.39 2184.38 L3129.89 2184.38 L3129.89 2183.51 L3155.50 2183.51 L3155.50 2183.02 L3181.12 2183.02 L3181.12 2182.40 L3206.73 2182.40 L3206.73 2181.90 L3232.35 2181.90 L3232.35 2181.90 L3257.97 2181.90 L3257.97 2181.41 L3283.58 2181.41 L3283.58 2180.91 L3309.20 2180.91 L3309.20 2180.30 L3334.82 2180.30 L3334.82 2180.30 L3360.43 2180.30 L3360.43 2179.80 L3386.05 2179.80 L3386.05 2179.55 L3411.54 2179.55 L3411.54 2179.31 L3437.16 2179.31 L3437.16 2179.06 L3462.77 2179.06 L3462.77 2178.56 L3488.39 2178.56 L3488.39 2178.56 L3514.01 2178.56 L3514.01 2178.19 L3539.62 2178.19 L3539.62 2177.70 L3565.24 2177.70 L3565.24 2177.45 L3590.85 2177.45 L3590.85 2177.45 L3616.47 2177.45 L3616.47 2177.20 L3642.09 2177.20 L3642.09 2177.20 L3667.58 2177.20 L3667.58 2176.95 L3693.20 2176.95 L3693.20 2176.71 L3718.81 2176.71 L3718.81 2176.71 L3744.43 2176.71 L3744.43 2176.21 L3770.04 2176.21 L3770.04 2176.21 L3795.66 2176.21 L3795.66 2176.09" stroke-linejoin="round" style="fill:none;stroke:#1A476F;stroke-width:8.64"/>
	<path d=" M1107.19 2246.01 L1107.19 2246.01 L1107.19 2246.01 L1132.81 2246.01 L1132.81 2246.01 L1158.42 2246.01 L1158.42 2246.01 L1184.04 2246.01 L1184.04 2246.01 L1209.66 2246.01 L1209.66 2246.01 L1235.27 2246.01 L1235.27 2246.01 L1260.77 2246.01 L1260.77 2246.01 L1286.38 2246.01 L1286.38 2246.01 L1312.00 2246.01 L1312.00 2246.01 L1337.61 2246.01 L1337.61 2246.01 L1363.23 2246.01 L1363.23 2246.01 L1388.85 2246.01 L1388.85 2246.01 L1414.46 2246.01 L1414.46 2246.01 L1440.08 2246.01 L1440.08 2246.01 L1465.69 2246.01 L1465.69 2246.01 L1491.31 2246.01 L1491.31 2246.01 L1516.93 2246.01 L1516.93 2246.01 L1542.42 2246.01 L1542.42 2246.01 L1568.04 2246.01 L1568.04 2246.01 L1593.65 2246.01 L1593.65 2246.01 L1619.27 2246.01 L1619.27 2246.01 L1644.88 2246.01 L1644.88 2245.51 L1670.50 2245.51 L1670.50 2245.02 L1696.12 2245.02 L1696.12 2244.52 L1721.73 2244.52 L1721.73 2244.03 L1747.35 2244.03 L1747.35 2244.03 L1772.97 2244.03 L1772.97 2244.03 L1798.46 2244.03 L1798.46 2244.03 L1824.08 2244.03 L1824.08 2244.03 L1849.69 2244.03 L1849.69 2242.54 L1875.31 2242.54 L1875.31 2242.05 L1900.92 2242.05 L1900.92 2240.19 L1926.54 2240.19 L1926.54 2239.70 L1952.16 2239.70 L1952.16 2237.72 L1977.77 2237.72 L1977.77 2236.85 L2003.39 2236.85 L2003.39 2235.37 L2029.01 2235.37 L2029.01 2234.38 L2054.50 2234.38 L2054.50 2232.02 L2080.11 2232.02 L2080.11 2230.54 L2105.73 2230.54 L2105.73 2227.20 L2131.35 2227.20 L2131.35 2224.72 L2156.96 2224.72 L2156.96 2223.73 L2182.58 2223.73 L2182.58 2220.89 L2208.20 2220.89 L2208.20 2219.90 L2233.81 2219.90 L2233.81 2219.40 L2259.43 2219.40 L2259.43 2218.41 L2285.04 2218.41 L2285.04 2218.04 L2310.66 2218.04 L2310.66 2217.05 L2336.15 2217.05 L2336.15 2216.06 L2361.77 2216.06 L2361.77 2214.08 L2387.39 2214.08 L2387.39 2212.22 L2413.00 2212.22 L2413.00 2210.74 L2438.62 2210.74 L2438.62 2210.74 L2464.23 2210.74 L2464.23 2209.75 L2489.85 2209.75 L2489.85 2208.88 L2515.47 2208.88 L2515.47 2208.39 L2541.08 2208.39 L2541.08 2206.90 L2566.70 2206.90 L2566.70 2204.43 L2592.19 2204.43 L2592.19 2203.07 L2617.81 2203.07 L2617.81 2202.08 L2643.42 2202.08 L2643.42 2201.58 L2694.66 2201.58 L2694.66 2201.58 L2720.27 2201.58 L2720.27 2201.09 L2745.89 2201.09 L2745.89 2200.10 L2771.51 2200.10 L2771.51 2198.24 L2797.12 2198.24 L2797.12 2198.24 L2822.74 2198.24 L2822.74 2197.74 L2848.35 2197.74 L2848.35 2197.74 L2873.85 2197.74 L2873.85 2196.75 L2899.46 2196.75 L2899.46 2196.75 L2925.08 2196.75 L2925.08 2196.75 L2950.70 2196.75 L2950.70 2195.27 L2976.31 2195.27 L2976.31 2194.77 L3001.93 2194.77 L3001.93 2194.40 L3027.54 2194.40 L3027.54 2194.40 L3053.16 2194.40 L3053.16 2193.91 L3078.78 2193.91 L3078.78 2193.41 L3104.39 2193.41 L3104.39 2192.42 L3129.89 2192.42 L3129.89 2192.42 L3155.50 2192.42 L3155.50 2191.43 L3181.12 2191.43 L3181.12 2191.43 L3206.73 2191.43 L3206.73 2191.43 L3232.35 2191.43 L3232.35 2191.43 L3257.97 2191.43 L3257.97 2191.43 L3283.58 2191.43 L3283.58 2190.94 L3309.20 2190.94 L3309.20 2190.44 L3334.82 2190.44 L3334.82 2190.44 L3360.43 2190.44 L3360.43 2190.44 L3386.05 2190.44 L3386.05 2190.44 L3411.54 2190.44 L3411.54 2190.44 L3437.16 2190.44 L3437.16 2190.44 L3462.77 2190.44 L3462.77 2189.95 L3488.39 2189.95 L3488.39 2189.95 L3514.01 2189.95 L3514.01 2189.08 L3565.24 2189.08 L3565.24 2188.59 L3590.85 2188.59 L3590.85 2188.09 L3616.47 2188.09 L3616.47 2188.09 L3642.09 2188.09 L3642.09 2188.09 L3667.58 2188.09 L3667.58 2188.09 L3693.20 2188.09 L3693.20 2188.09 L3718.81 2188.09 L3718.81 2188.09 L3744.43 2188.09 L3744.43 2187.60 L3770.04 2187.60 L3770.04 2187.60 L3795.66 2187.60 L3795.66 2187.10" stroke-linejoin="round" style="fill:none;stroke:#90353B;stroke-width:8.64"/>
	<line x1="1043.95" y1="2309.25" x2="1043.95" y2="490.93" style="stroke:#000000;stroke-width:5.76"/>
	<line x1="1043.95" y1="2245.89" x2="1003.86" y2="2245.89" style="stroke:#000000;stroke-width:5.76"/>
	<text x="983.94" y="2273.90" style="font-family:'Helvetica';font-size:79.94px;fill:#000000" text-anchor="end">0.000</text>
	<line x1="1043.95" y1="1823.02" x2="1003.86" y2="1823.02" style="stroke:#000000;stroke-width:5.76"/>
	<text x="983.94" y="1851.03" style="font-family:'Helvetica';font-size:79.94px;fill:#000000" text-anchor="end">0.005</text>
	<line x1="1043.95" y1="1400.03" x2="1003.86" y2="1400.03" style="stroke:#000000;stroke-width:5.76"/>
	<text x="983.94" y="1428.04" style="font-family:'Helvetica';font-size:79.94px;fill:#000000" text-anchor="end">0.010</text>
	<line x1="1043.95" y1="977.16" x2="1003.86" y2="977.16" style="stroke:#000000;stroke-width:5.76"/>
	<text x="983.94" y="1005.17" style="font-family:'Helvetica';font-size:79.94px;fill:#000000" text-anchor="end">0.015</text>
	<line x1="1043.95" y1="554.29" x2="1003.86" y2="554.29" style="stroke:#000000;stroke-width:5.76"/>
	<text x="983.94" y="582.31" style="font-family:'Helvetica';font-size:79.94px;fill:#000000" text-anchor="end">0.020</text>
	<text x="1107.32" y="2747.83" style="font-family:'Helvetica';font-size:60.02px;fill:#000000" text-anchor="middle">175608</text>
	<text x="1619.39" y="2747.83" style="font-family:'Helvetica';font-size:60.02px;fill:#000000" text-anchor="middle">175507</text>
	<text x="2131.47" y="2747.83" style="font-family:'Helvetica';font-size:60.02px;fill:#000000" text-anchor="middle">175353</text>
	<text x="2643.55" y="2747.83" style="font-family:'Helvetica';font-size:60.02px;fill:#000000" text-anchor="middle">175203</text>
	<text x="3155.63" y="2747.83" style="font-family:'Helvetica';font-size:60.02px;fill:#000000" text-anchor="middle">175111</text>
	<text x="3667.70" y="2747.83" style="font-family:'Helvetica';font-size:60.02px;fill:#000000" text-anchor="middle">175023</text>
	<text x="972.80" y="2747.83" style="font-family:'Helvetica';font-size:60.02px;fill:#000000" text-anchor="end">Current exposure to NSAIDs</text>
	<text x="1107.32" y="2674.44" style="font-family:'Helvetica';font-size:60.02px;fill:#000000" text-anchor="middle">386232</text>
	<text x="1619.39" y="2674.44" style="font-family:'Helvetica';font-size:60.02px;fill:#000000" text-anchor="middle">378279</text>
	<text x="2131.47" y="2674.44" style="font-family:'Helvetica';font-size:60.02px;fill:#000000" text-anchor="middle">373829</text>
	<text x="2643.55" y="2674.44" style="font-family:'Helvetica';font-size:60.02px;fill:#000000" text-anchor="middle">369324</text>
	<text x="3155.63" y="2674.44" style="font-family:'Helvetica';font-size:60.02px;fill:#000000" text-anchor="middle">364603</text>
	<text x="3667.70" y="2674.44" style="font-family:'Helvetica';font-size:60.02px;fill:#000000" text-anchor="middle">360020</text>
	<text x="972.80" y="2674.44" style="font-family:'Helvetica';font-size:60.02px;fill:#000000" text-anchor="end">Non-current exposure to NSAIDs</text>
	<text x="972.80" y="2601.18" style="font-family:'Helvetica';font-size:60.02px;fill:#000000" text-anchor="end">Number at risk</text>
	<line x1="1043.95" y1="2309.25" x2="3859.02" y2="2309.25" style="stroke:#000000;stroke-width:5.76"/>
	<line x1="1107.32" y1="2309.25" x2="1107.32" y2="2349.22" style="stroke:#000000;stroke-width:5.76"/>
	<text x="1107.32" y="2425.17" style="font-family:'Helvetica';font-size:79.94px;fill:#000000" text-anchor="middle">0</text>
	<line x1="1619.39" y1="2309.25" x2="1619.39" y2="2349.22" style="stroke:#000000;stroke-width:5.76"/>
	<text x="1619.39" y="2425.17" style="font-family:'Helvetica';font-size:79.94px;fill:#000000" text-anchor="middle">20</text>
	<line x1="2131.47" y1="2309.25" x2="2131.47" y2="2349.22" style="stroke:#000000;stroke-width:5.76"/>
	<text x="2131.47" y="2425.17" style="font-family:'Helvetica';font-size:79.94px;fill:#000000" text-anchor="middle">40</text>
	<line x1="2643.55" y1="2309.25" x2="2643.55" y2="2349.22" style="stroke:#000000;stroke-width:5.76"/>
	<text x="2643.55" y="2425.17" style="font-family:'Helvetica';font-size:79.94px;fill:#000000" text-anchor="middle">60</text>
	<line x1="3155.63" y1="2309.25" x2="3155.63" y2="2349.22" style="stroke:#000000;stroke-width:5.76"/>
	<text x="3155.63" y="2425.17" style="font-family:'Helvetica';font-size:79.94px;fill:#000000" text-anchor="middle">80</text>
	<line x1="3667.70" y1="2309.25" x2="3667.70" y2="2349.22" style="stroke:#000000;stroke-width:5.76"/>
	<text x="3667.70" y="2425.17" style="font-family:'Helvetica';font-size:79.94px;fill:#000000" text-anchor="middle">100</text>
	<text x="2451.49" y="2515.14" style="font-family:'Helvetica';font-size:79.94px;fill:#000000" text-anchor="middle">Days since 1 Mar 2020</text>
	<rect x="1078.48" y="269.91" width="2746.01" height="186.37" style="fill:#FFFFFF"/>
	<rect x="1081.36" y="272.79" width="2740.25" height="180.61" style="fill:none;stroke:#EAF2F3;stroke-width:5.76"/>
	<line x1="1121.67" y1="363.09" x2="1490.32" y2="363.09" style="stroke:#90353B;stroke-width:8.64"/>
	<line x1="2461.02" y1="363.09" x2="2829.67" y2="363.09" style="stroke:#1A476F;stroke-width:8.64"/>
	<text x="1549.35" y="384.13" style="font-family:'Helvetica';font-size:60.02px;fill:#000000">Current exposure to NSAIDs</text>
	<text x="2888.70" y="384.13" style="font-family:'Helvetica';font-size:60.02px;fill:#000000">Non-current exposure to NSAIDs</text>
	<text x="1061.16" y="187.99" style="font-family:'Helvetica';font-size:99.99px;fill:#1E2D53">Time to death, Rheumatoid_arthritis_&amp;_osteoarthritis population</text>
</svg>
