<?xml version="1.0" encoding="UTF-8" standalone="no"?>
<!-- This is a Stata 16.1 generated SVG file (http://www.stata.com) -->

<svg version="1.1" width="5.50in" height="4.00in" viewBox="0 0 3960 2880" xmlns="http://www.w3.org/2000/svg" xmlns:xlink="http://www.w3.org/1999/xlink">
	<desc>Stata Graph - Graph</desc>
	<rect x="0" y="0" width="3960" height="2880" style="fill:#EAF2F3;stroke:none"/>
	<rect x="0.00" y="0.00" width="3959.88" height="2880.00" style="fill:#FFFFFF"/>
	<rect x="2.88" y="2.88" width="3954.12" height="2874.24" style="fill:none;stroke:#EAF2F3;stroke-width:5.76"/>
	<rect x="1043.95" y="235.38" width="2815.07" height="2147.25" style="fill:#FFFFFF"/>
	<rect x="1046.83" y="238.26" width="2809.31" height="2141.49" style="fill:none;stroke:#FFFFFF;stroke-width:5.76"/>
	<line x1="1043.95" y1="2319.27" x2="3859.02" y2="2319.27" style="stroke:#EAF2F3;stroke-width:8.64"/>
	<line x1="1043.95" y1="1814.11" x2="3859.02" y2="1814.11" style="stroke:#EAF2F3;stroke-width:8.64"/>
	<line x1="1043.95" y1="1308.94" x2="3859.02" y2="1308.94" style="stroke:#EAF2F3;stroke-width:8.64"/>
	<line x1="1043.95" y1="803.91" x2="3859.02" y2="803.91" style="stroke:#EAF2F3;stroke-width:8.64"/>
	<path d=" M1107.19 2319.27 L1130.21 2319.27 L1130.21 2319.27 L1153.10 2319.27 L1153.10 2319.27 L1176.12 2319.27 L1176.12 2319.27 L1199.14 2319.27 L1199.14 2319.27 L1222.03 2319.27 L1222.03 2319.27 L1245.05 2319.27 L1245.05 2319.27 L1268.07 2319.27 L1268.07 2319.27 L1290.96 2319.27 L1290.96 2319.27 L1313.98 2319.27 L1313.98 2319.27 L1336.99 2319.27 L1336.99 2319.27 L1360.01 2319.27 L1360.01 2319.27 L1382.91 2319.27 L1382.91 2319.27 L1405.92 2319.27 L1405.92 2319.27 L1428.94 2319.27 L1428.94 2319.27 L1451.84 2319.27 L1451.84 2319.27 L1474.85 2319.27 L1474.85 2319.27 L1497.87 2319.27 L1497.87 2319.27 L1520.76 2319.27 L1520.76 2319.27 L1543.78 2319.27 L1543.78 2319.27 L1566.80 2319.27 L1566.80 2319.27 L1589.69 2319.27 L1589.69 2319.15 L1612.71 2319.15 L1612.71 2318.53 L1635.73 2318.53 L1635.73 2318.03 L1658.62 2318.03 L1658.62 2317.17 L1681.64 2317.17 L1681.64 2316.55 L1704.66 2316.55 L1704.66 2316.42 L1727.55 2316.42 L1727.55 2316.05 L1750.57 2316.05 L1750.57 2315.31 L1773.59 2315.31 L1773.59 2314.07 L1796.60 2314.07 L1796.60 2313.21 L1819.50 2313.21 L1819.50 2311.72 L1842.51 2311.72 L1842.51 2310.24 L1865.53 2310.24 L1865.53 2308.88 L1888.42 2308.88 L1888.42 2306.65 L1911.44 2306.65 L1911.44 2304.92 L1934.46 2304.92 L1934.46 2303.80 L1957.35 2303.80 L1957.35 2301.70 L1980.37 2301.70 L1980.37 2298.73 L2003.39 2298.73 L2003.39 2295.76 L2026.28 2295.76 L2026.28 2293.53 L2049.30 2293.53 L2049.30 2291.80 L2072.32 2291.80 L2072.32 2289.57 L2095.21 2289.57 L2095.21 2287.59 L2118.23 2287.59 L2118.23 2286.48 L2141.25 2286.48 L2141.25 2284.74 L2164.14 2284.74 L2164.14 2283.51 L2187.16 2283.51 L2187.16 2281.53 L2210.18 2281.53 L2210.18 2280.04 L2233.19 2280.04 L2233.19 2278.06 L2256.09 2278.06 L2256.09 2275.71 L2279.10 2275.71 L2279.10 2274.22 L2302.12 2274.22 L2302.12 2272.86 L2325.01 2272.86 L2325.01 2271.38 L2348.03 2271.38 L2348.03 2270.02 L2371.05 2270.02 L2371.05 2269.03 L2393.94 2269.03 L2393.94 2267.29 L2416.96 2267.29 L2416.96 2265.44 L2439.98 2265.44 L2439.98 2263.83 L2462.87 2263.83 L2462.87 2262.22 L2485.89 2262.22 L2485.89 2261.35 L2508.91 2261.35 L2508.91 2260.61 L2531.80 2260.61 L2531.80 2259.75 L2554.82 2259.75 L2554.82 2258.63 L2577.84 2258.63 L2577.84 2257.89 L2600.73 2257.89 L2600.73 2256.78 L2623.75 2256.78 L2623.75 2255.91 L2646.76 2255.91 L2646.76 2255.04 L2669.78 2255.04 L2669.78 2254.67 L2692.68 2254.67 L2692.68 2253.81 L2715.69 2253.81 L2715.69 2253.43 L2738.71 2253.43 L2738.71 2253.43 L2761.61 2253.43 L2761.61 2252.07 L2784.62 2252.07 L2784.62 2251.58 L2807.64 2251.58 L2807.64 2251.21 L2830.53 2251.21 L2830.53 2251.08 L2853.55 2251.08 L2853.55 2250.34 L2876.57 2250.34 L2876.57 2250.09 L2899.46 2250.09 L2899.46 2249.60 L2922.48 2249.60 L2922.48 2248.86 L2945.50 2248.86 L2945.50 2248.11 L2968.39 2248.11 L2968.39 2247.62 L2991.41 2247.62 L2991.41 2247.25 L3014.43 2247.25 L3014.43 2247.25 L3037.32 2247.25 L3037.32 2246.88 L3060.34 2246.88 L3060.34 2246.38 L3083.36 2246.38 L3083.36 2245.64 L3106.25 2245.64 L3106.25 2245.64 L3129.27 2245.64 L3129.27 2245.27 L3152.28 2245.27 L3152.28 2245.14 L3175.30 2245.14 L3175.30 2244.90 L3198.20 2244.90 L3198.20 2244.77 L3221.21 2244.77 L3221.21 2244.15 L3244.23 2244.15 L3244.23 2244.15 L3267.12 2244.15 L3267.12 2243.53 L3290.14 2243.53 L3290.14 2243.16 L3313.16 2243.16 L3313.16 2242.79 L3336.05 2242.79 L3336.05 2242.54 L3359.07 2242.54 L3359.07 2242.42 L3382.09 2242.42 L3382.09 2242.42 L3404.98 2242.42 L3404.98 2242.17 L3428.00 2242.17 L3428.00 2242.05 L3451.02 2242.05 L3451.02 2242.05 L3473.91 2242.05 L3473.91 2241.55 L3496.93 2241.55 L3496.93 2241.55 L3519.95 2241.55 L3519.95 2241.18 L3542.84 2241.18 L3542.84 2241.18 L3565.86 2241.18 L3565.86 2240.94 L3588.87 2240.94 L3588.87 2240.94 L3611.89 2240.94 L3611.89 2240.94 L3634.78 2240.94 L3634.78 2240.94 L3657.80 2240.94 L3657.80 2240.94 L3680.82 2240.94 L3680.82 2240.94 L3795.66 2240.94 L3795.66 2240.94" stroke-linejoin="round" style="fill:none;stroke:#1A476F;stroke-width:8.64"/>
	<line x1="1043.95" y1="2382.63" x2="1043.95" y2="235.38" style="stroke:#000000;stroke-width:5.76"/>
	<line x1="1043.95" y1="2319.27" x2="1003.86" y2="2319.27" style="stroke:#000000;stroke-width:5.76"/>
	<text x="983.94" y="2347.28" style="font-family:'Helvetica';font-size:79.94px;fill:#000000" text-anchor="end">0.000</text>
	<line x1="1043.95" y1="1814.11" x2="1003.86" y2="1814.11" style="stroke:#000000;stroke-width:5.76"/>
	<text x="983.94" y="1842.12" style="font-family:'Helvetica';font-size:79.94px;fill:#000000" text-anchor="end">0.005</text>
	<line x1="1043.95" y1="1308.94" x2="1003.86" y2="1308.94" style="stroke:#000000;stroke-width:5.76"/>
	<text x="983.94" y="1336.96" style="font-family:'Helvetica';font-size:79.94px;fill:#000000" text-anchor="end">0.010</text>
	<line x1="1043.95" y1="803.91" x2="1003.86" y2="803.91" style="stroke:#000000;stroke-width:5.76"/>
	<text x="983.94" y="831.92" style="font-family:'Helvetica';font-size:79.94px;fill:#000000" text-anchor="end">0.015</text>
	<line x1="1043.95" y1="298.74" x2="1003.86" y2="298.74" style="stroke:#000000;stroke-width:5.76"/>
	<text x="983.94" y="326.75" style="font-family:'Helvetica';font-size:79.94px;fill:#000000" text-anchor="end">0.020</text>
	<text x="731.62" y="1308.94" style="font-family:'Helvetica';font-size:99.99px;fill:#000000" transform="rotate(-90 731.62,1308.94)" text-anchor="middle">exposure = current NSAID use</text>
	<text x="1107.32" y="2747.83" style="font-family:'Helvetica';font-size:60.02px;fill:#000000" text-anchor="middle">561849</text>
	<text x="1566.80" y="2747.83" style="font-family:'Helvetica';font-size:60.02px;fill:#000000" text-anchor="middle">561542</text>
	<text x="2026.41" y="2747.83" style="font-family:'Helvetica';font-size:60.02px;fill:#000000" text-anchor="middle">561057</text>
	<text x="2486.01" y="2747.83" style="font-family:'Helvetica';font-size:60.02px;fill:#000000" text-anchor="middle">560543</text>
	<text x="2945.50" y="2747.83" style="font-family:'Helvetica';font-size:60.02px;fill:#000000" text-anchor="middle">560200</text>
	<text x="3405.11" y="2747.83" style="font-family:'Helvetica';font-size:60.02px;fill:#000000" text-anchor="middle">559903</text>
	<text x="972.80" y="2747.83" style="font-family:'Helvetica';font-size:60.02px;fill:#000000" text-anchor="end">Non-current exposure to NSAIDs</text>
	<text x="972.80" y="2674.44" style="font-family:'Helvetica';font-size:60.02px;fill:#000000" text-anchor="end">Number at risk</text>
	<line x1="1043.95" y1="2382.63" x2="3859.02" y2="2382.63" style="stroke:#000000;stroke-width:5.76"/>
	<line x1="1107.32" y1="2382.63" x2="1107.32" y2="2422.61" style="stroke:#000000;stroke-width:5.76"/>
	<text x="1107.32" y="2498.43" style="font-family:'Helvetica';font-size:79.94px;fill:#000000" text-anchor="middle">0</text>
	<line x1="1566.80" y1="2382.63" x2="1566.80" y2="2422.61" style="stroke:#000000;stroke-width:5.76"/>
	<text x="1566.80" y="2498.43" style="font-family:'Helvetica';font-size:79.94px;fill:#000000" text-anchor="middle">20</text>
	<line x1="2026.41" y1="2382.63" x2="2026.41" y2="2422.61" style="stroke:#000000;stroke-width:5.76"/>
	<text x="2026.41" y="2498.43" style="font-family:'Helvetica';font-size:79.94px;fill:#000000" text-anchor="middle">40</text>
	<line x1="2486.01" y1="2382.63" x2="2486.01" y2="2422.61" style="stroke:#000000;stroke-width:5.76"/>
	<text x="2486.01" y="2498.43" style="font-family:'Helvetica';font-size:79.94px;fill:#000000" text-anchor="middle">60</text>
	<line x1="2945.50" y1="2382.63" x2="2945.50" y2="2422.61" style="stroke:#000000;stroke-width:5.76"/>
	<text x="2945.50" y="2498.43" style="font-family:'Helvetica';font-size:79.94px;fill:#000000" text-anchor="middle">80</text>
	<line x1="3405.11" y1="2382.63" x2="3405.11" y2="2422.61" style="stroke:#000000;stroke-width:5.76"/>
	<text x="3405.11" y="2498.43" style="font-family:'Helvetica';font-size:79.94px;fill:#000000" text-anchor="middle">100</text>
	<text x="2451.49" y="2588.52" style="font-family:'Helvetica';font-size:79.94px;fill:#000000" text-anchor="middle">Days since 1 Mar 2020</text>
	<text x="1061.16" y="187.99" style="font-family:'Helvetica';font-size:99.99px;fill:#1E2D53">Time to death, Rheumatoid_arthritis_&amp;_osteoarthritis population</text>
</svg>
