<?xml version="1.0" encoding="UTF-8" standalone="no"?>
<!-- This is a Stata 16.1 generated SVG file (http://www.stata.com) -->

<svg version="1.1" width="5.50in" height="4.00in" viewBox="0 0 3960 2880" xmlns="http://www.w3.org/2000/svg" xmlns:xlink="http://www.w3.org/1999/xlink">
	<desc>Stata Graph - Graph</desc>
	<rect x="0" y="0" width="3960" height="2880" style="fill:#EAF2F3;stroke:none"/>
	<rect x="0.00" y="0.00" width="3959.88" height="2880.00" style="fill:#FFFFFF"/>
	<rect x="2.88" y="2.88" width="3954.12" height="2874.24" style="fill:none;stroke:#EAF2F3;stroke-width:5.76"/>
	<rect x="1043.95" y="490.93" width="2815.07" height="1818.32" style="fill:#FFFFFF"/>
	<rect x="1046.83" y="493.81" width="2809.31" height="1812.56" style="fill:none;stroke:#FFFFFF;stroke-width:5.76"/>
	<line x1="1043.95" y1="2245.89" x2="3859.02" y2="2245.89" style="stroke:#EAF2F3;stroke-width:8.64"/>
	<line x1="1043.95" y1="1823.02" x2="3859.02" y2="1823.02" style="stroke:#EAF2F3;stroke-width:8.64"/>
	<line x1="1043.95" y1="1400.03" x2="3859.02" y2="1400.03" style="stroke:#EAF2F3;stroke-width:8.64"/>
	<line x1="1043.95" y1="977.16" x2="3859.02" y2="977.16" style="stroke:#EAF2F3;stroke-width:8.64"/>
	<path d=" M1107.19 2246.01 L1107.19 2246.01 L1107.19 2246.01 L1130.21 2246.01 L1130.21 2246.01 L1153.10 2246.01 L1153.10 2246.01 L1176.12 2246.01 L1176.12 2246.01 L1199.14 2246.01 L1199.14 2246.01 L1222.03 2246.01 L1222.03 2246.01 L1245.05 2246.01 L1245.05 2246.01 L1268.07 2246.01 L1268.07 2246.01 L1290.96 2246.01 L1290.96 2246.01 L1313.98 2246.01 L1313.98 2246.01 L1336.99 2246.01 L1336.99 2246.01 L1360.01 2246.01 L1360.01 2246.01 L1382.91 2246.01 L1382.91 2246.01 L1405.92 2246.01 L1405.92 2246.01 L1428.94 2246.01 L1428.94 2246.01 L1451.84 2246.01 L1451.84 2246.01 L1474.85 2246.01 L1474.85 2246.01 L1497.87 2246.01 L1497.87 2246.01 L1520.76 2246.01 L1520.76 2246.01 L1543.78 2246.01 L1543.78 2246.01 L1566.80 2246.01 L1566.80 2246.01 L1589.69 2246.01 L1589.69 2246.01 L1612.71 2246.01 L1612.71 2245.51 L1635.73 2245.51 L1635.73 2245.02 L1658.62 2245.02 L1658.62 2244.15 L1681.64 2244.15 L1681.64 2243.53 L1704.66 2243.53 L1704.66 2243.29 L1727.55 2243.29 L1727.55 2242.79 L1750.57 2242.79 L1750.57 2241.93 L1773.59 2241.93 L1773.59 2241.06 L1796.60 2241.06 L1796.60 2240.07 L1819.50 2240.07 L1819.50 2239.20 L1842.51 2239.20 L1842.51 2237.59 L1865.53 2237.59 L1865.53 2236.97 L1888.42 2236.97 L1888.42 2234.75 L1911.44 2234.75 L1911.44 2233.14 L1934.46 2233.14 L1934.46 2232.27 L1957.35 2232.27 L1957.35 2230.66 L1980.37 2230.66 L1980.37 2227.69 L2003.39 2227.69 L2003.39 2225.47 L2026.28 2225.47 L2026.28 2223.86 L2049.30 2223.86 L2049.30 2222.12 L2072.32 2222.12 L2072.32 2220.76 L2095.21 2220.76 L2095.21 2218.66 L2118.23 2218.66 L2118.23 2217.55 L2141.25 2217.55 L2141.25 2215.69 L2164.14 2215.69 L2164.14 2214.33 L2187.16 2214.33 L2187.16 2212.35 L2210.18 2212.35 L2210.18 2211.23 L2233.19 2211.23 L2233.19 2209.63 L2256.09 2209.63 L2256.09 2207.52 L2279.10 2207.52 L2279.10 2206.41 L2302.12 2206.41 L2302.12 2204.55 L2325.01 2204.55 L2325.01 2203.19 L2348.03 2203.19 L2348.03 2202.08 L2371.05 2202.08 L2371.05 2201.21 L2393.94 2201.21 L2393.94 2199.60 L2416.96 2199.60 L2416.96 2198.49 L2439.98 2198.49 L2439.98 2197.00 L2462.87 2197.00 L2462.87 2195.52 L2485.89 2195.52 L2485.89 2194.53 L2508.91 2194.53 L2508.91 2193.66 L2531.80 2193.66 L2531.80 2192.42 L2554.82 2192.42 L2554.82 2191.31 L2577.84 2191.31 L2577.84 2190.94 L2600.73 2190.94 L2600.73 2190.44 L2623.75 2190.44 L2623.75 2189.33 L2646.76 2189.33 L2646.76 2188.34 L2669.78 2188.34 L2669.78 2187.84 L2692.68 2187.84 L2692.68 2187.23 L2715.69 2187.23 L2715.69 2186.98 L2738.71 2186.98 L2738.71 2186.98 L2761.61 2186.98 L2761.61 2185.99 L2784.62 2185.99 L2784.62 2185.62 L2807.64 2185.62 L2807.64 2185.37 L2830.53 2185.37 L2830.53 2185.37 L2853.55 2185.37 L2853.55 2184.63 L2876.57 2184.63 L2876.57 2184.63 L2899.46 2184.63 L2899.46 2184.38 L2922.48 2184.38 L2922.48 2183.51 L2945.50 2183.51 L2945.50 2183.02 L2968.39 2183.02 L2968.39 2182.40 L2991.41 2182.40 L2991.41 2181.90 L3014.43 2181.90 L3014.43 2181.90 L3037.32 2181.90 L3037.32 2181.41 L3060.34 2181.41 L3060.34 2180.91 L3083.36 2180.91 L3083.36 2180.30 L3106.25 2180.30 L3106.25 2180.30 L3129.27 2180.30 L3129.27 2179.80 L3152.28 2179.80 L3152.28 2179.55 L3175.30 2179.55 L3175.30 2179.31 L3198.20 2179.31 L3198.20 2179.06 L3221.21 2179.06 L3221.21 2178.56 L3244.23 2178.56 L3244.23 2178.56 L3267.12 2178.56 L3267.12 2178.19 L3290.14 2178.19 L3290.14 2177.70 L3313.16 2177.70 L3313.16 2177.45 L3336.05 2177.45 L3336.05 2177.45 L3359.07 2177.45 L3359.07 2177.20 L3382.09 2177.20 L3382.09 2177.20 L3404.98 2177.20 L3404.98 2176.95 L3428.00 2176.95 L3428.00 2176.71 L3451.02 2176.71 L3451.02 2176.71 L3473.91 2176.71 L3473.91 2176.21 L3496.93 2176.21 L3496.93 2176.21 L3519.95 2176.21 L3519.95 2176.09 L3542.84 2176.09 L3542.84 2176.09 L3565.86 2176.09 L3565.86 2175.84 L3588.87 2175.84 L3588.87 2175.84 L3611.89 2175.84 L3611.89 2175.84 L3634.78 2175.84 L3634.78 2175.84 L3657.80 2175.84 L3657.80 2175.84 L3680.82 2175.84 L3680.82 2175.84 L3703.71 2175.84 L3703.71 2175.84 L3726.73 2175.84 L3726.73 2175.84 L3749.75 2175.84 L3749.75 2175.84 L3772.64 2175.84 L3772.64 2175.84 L3795.66 2175.84 L3795.66 2175.84" stroke-linejoin="round" style="fill:none;stroke:#1A476F;stroke-width:8.64"/>
	<path d=" M1107.19 2246.01 L1107.19 2246.01 L1107.19 2246.01 L1130.21 2246.01 L1130.21 2246.01 L1153.10 2246.01 L1153.10 2246.01 L1176.12 2246.01 L1176.12 2246.01 L1199.14 2246.01 L1199.14 2246.01 L1222.03 2246.01 L1222.03 2246.01 L1245.05 2246.01 L1245.05 2246.01 L1268.07 2246.01 L1268.07 2246.01 L1290.96 2246.01 L1290.96 2246.01 L1313.98 2246.01 L1313.98 2246.01 L1336.99 2246.01 L1336.99 2246.01 L1360.01 2246.01 L1360.01 2246.01 L1382.91 2246.01 L1382.91 2246.01 L1405.92 2246.01 L1405.92 2246.01 L1428.94 2246.01 L1428.94 2246.01 L1451.84 2246.01 L1451.84 2246.01 L1474.85 2246.01 L1474.85 2246.01 L1497.87 2246.01 L1497.87 2246.01 L1520.76 2246.01 L1520.76 2246.01 L1543.78 2246.01 L1543.78 2246.01 L1566.80 2246.01 L1566.80 2246.01 L1589.69 2246.01 L1589.69 2245.51 L1612.71 2245.51 L1612.71 2245.02 L1635.73 2245.02 L1635.73 2244.52 L1658.62 2244.52 L1658.62 2244.03 L1681.64 2244.03 L1681.64 2244.03 L1704.66 2244.03 L1704.66 2244.03 L1727.55 2244.03 L1727.55 2244.03 L1750.57 2244.03 L1750.57 2244.03 L1773.59 2244.03 L1773.59 2242.54 L1796.60 2242.54 L1796.60 2242.05 L1819.50 2242.05 L1819.50 2240.19 L1842.51 2240.19 L1842.51 2239.70 L1865.53 2239.70 L1865.53 2237.72 L1888.42 2237.72 L1888.42 2236.85 L1911.44 2236.85 L1911.44 2235.37 L1934.46 2235.37 L1934.46 2234.38 L1957.35 2234.38 L1957.35 2232.02 L1980.37 2232.02 L1980.37 2230.54 L2003.39 2230.54 L2003.39 2227.20 L2026.28 2227.20 L2026.28 2224.72 L2049.30 2224.72 L2049.30 2223.73 L2072.32 2223.73 L2072.32 2220.89 L2095.21 2220.89 L2095.21 2219.90 L2118.23 2219.90 L2118.23 2219.40 L2141.25 2219.40 L2141.25 2218.41 L2164.14 2218.41 L2164.14 2218.04 L2187.16 2218.04 L2187.16 2217.05 L2210.18 2217.05 L2210.18 2216.06 L2233.19 2216.06 L2233.19 2214.08 L2256.09 2214.08 L2256.09 2212.22 L2279.10 2212.22 L2279.10 2210.74 L2302.12 2210.74 L2302.12 2210.74 L2325.01 2210.74 L2325.01 2209.75 L2348.03 2209.75 L2348.03 2208.88 L2371.05 2208.88 L2371.05 2208.39 L2393.94 2208.39 L2393.94 2206.90 L2416.96 2206.90 L2416.96 2204.43 L2439.98 2204.43 L2439.98 2203.07 L2462.87 2203.07 L2462.87 2202.08 L2485.89 2202.08 L2485.89 2201.58 L2531.80 2201.58 L2531.80 2201.58 L2554.82 2201.58 L2554.82 2201.09 L2577.84 2201.09 L2577.84 2200.10 L2600.73 2200.10 L2600.73 2198.24 L2623.75 2198.24 L2623.75 2198.24 L2646.76 2198.24 L2646.76 2197.74 L2669.78 2197.74 L2669.78 2197.74 L2692.68 2197.74 L2692.68 2196.75 L2715.69 2196.75 L2715.69 2196.75 L2738.71 2196.75 L2738.71 2196.75 L2761.61 2196.75 L2761.61 2195.27 L2784.62 2195.27 L2784.62 2194.77 L2807.64 2194.77 L2807.64 2194.40 L2830.53 2194.40 L2830.53 2194.40 L2853.55 2194.40 L2853.55 2193.91 L2876.57 2193.91 L2876.57 2193.41 L2899.46 2193.41 L2899.46 2192.42 L2922.48 2192.42 L2922.48 2192.42 L2945.50 2192.42 L2945.50 2191.43 L2968.39 2191.43 L2968.39 2191.43 L2991.41 2191.43 L2991.41 2191.43 L3014.43 2191.43 L3014.43 2191.43 L3037.32 2191.43 L3037.32 2191.43 L3060.34 2191.43 L3060.34 2190.94 L3083.36 2190.94 L3083.36 2190.44 L3106.25 2190.44 L3106.25 2190.44 L3129.27 2190.44 L3129.27 2190.44 L3152.28 2190.44 L3152.28 2190.44 L3175.30 2190.44 L3175.30 2190.44 L3198.20 2190.44 L3198.20 2190.44 L3221.21 2190.44 L3221.21 2189.95 L3244.23 2189.95 L3244.23 2189.95 L3267.12 2189.95 L3267.12 2189.08 L3313.16 2189.08 L3313.16 2188.59 L3336.05 2188.59 L3336.05 2188.09 L3359.07 2188.09 L3359.07 2188.09 L3382.09 2188.09 L3382.09 2188.09 L3404.98 2188.09 L3404.98 2188.09 L3428.00 2188.09 L3428.00 2188.09 L3451.02 2188.09 L3451.02 2188.09 L3473.91 2188.09 L3473.91 2187.60 L3496.93 2187.60 L3496.93 2187.60 L3519.95 2187.60 L3519.95 2187.10 L3542.84 2187.10 L3542.84 2187.10 L3565.86 2187.10 L3565.86 2187.10 L3588.87 2187.10 L3588.87 2187.10 L3611.89 2187.10 L3611.89 2187.10 L3634.78 2187.10 L3634.78 2187.10 L3795.66 2187.10 L3795.66 2187.10" stroke-linejoin="round" style="fill:none;stroke:#90353B;stroke-width:8.64"/>
	<line x1="1043.95" y1="2309.25" x2="1043.95" y2="490.93" style="stroke:#000000;stroke-width:5.76"/>
	<line x1="1043.95" y1="2245.89" x2="1003.86" y2="2245.89" style="stroke:#000000;stroke-width:5.76"/>
	<text x="983.94" y="2273.90" style="font-family:'Helvetica';font-size:79.94px;fill:#000000" text-anchor="end">0.000</text>
	<line x1="1043.95" y1="1823.02" x2="1003.86" y2="1823.02" style="stroke:#000000;stroke-width:5.76"/>
	<text x="983.94" y="1851.03" style="font-family:'Helvetica';font-size:79.94px;fill:#000000" text-anchor="end">0.005</text>
	<line x1="1043.95" y1="1400.03" x2="1003.86" y2="1400.03" style="stroke:#000000;stroke-width:5.76"/>
	<text x="983.94" y="1428.04" style="font-family:'Helvetica';font-size:79.94px;fill:#000000" text-anchor="end">0.010</text>
	<line x1="1043.95" y1="977.16" x2="1003.86" y2="977.16" style="stroke:#000000;stroke-width:5.76"/>
	<text x="983.94" y="1005.17" style="font-family:'Helvetica';font-size:79.94px;fill:#000000" text-anchor="end">0.015</text>
	<line x1="1043.95" y1="554.29" x2="1003.86" y2="554.29" style="stroke:#000000;stroke-width:5.76"/>
	<text x="983.94" y="582.31" style="font-family:'Helvetica';font-size:79.94px;fill:#000000" text-anchor="end">0.020</text>
	<text x="1107.32" y="2747.83" style="font-family:'Helvetica';font-size:60.02px;fill:#000000" text-anchor="middle">175608</text>
	<text x="1566.80" y="2747.83" style="font-family:'Helvetica';font-size:60.02px;fill:#000000" text-anchor="middle">175507</text>
	<text x="2026.41" y="2747.83" style="font-family:'Helvetica';font-size:60.02px;fill:#000000" text-anchor="middle">175353</text>
	<text x="2486.01" y="2747.83" style="font-family:'Helvetica';font-size:60.02px;fill:#000000" text-anchor="middle">175203</text>
	<text x="2945.50" y="2747.83" style="font-family:'Helvetica';font-size:60.02px;fill:#000000" text-anchor="middle">175111</text>
	<text x="3405.11" y="2747.83" style="font-family:'Helvetica';font-size:60.02px;fill:#000000" text-anchor="middle">175023</text>
	<text x="972.80" y="2747.83" style="font-family:'Helvetica';font-size:60.02px;fill:#000000" text-anchor="end">Current exposure to NSAIDs</text>
	<text x="1107.32" y="2674.44" style="font-family:'Helvetica';font-size:60.02px;fill:#000000" text-anchor="middle">386232</text>
	<text x="1566.80" y="2674.44" style="font-family:'Helvetica';font-size:60.02px;fill:#000000" text-anchor="middle">378279</text>
	<text x="2026.41" y="2674.44" style="font-family:'Helvetica';font-size:60.02px;fill:#000000" text-anchor="middle">373829</text>
	<text x="2486.01" y="2674.44" style="font-family:'Helvetica';font-size:60.02px;fill:#000000" text-anchor="middle">369324</text>
	<text x="2945.50" y="2674.44" style="font-family:'Helvetica';font-size:60.02px;fill:#000000" text-anchor="middle">364603</text>
	<text x="3405.11" y="2674.44" style="font-family:'Helvetica';font-size:60.02px;fill:#000000" text-anchor="middle">360020</text>
	<text x="972.80" y="2674.44" style="font-family:'Helvetica';font-size:60.02px;fill:#000000" text-anchor="end">Non-current exposure to NSAIDs</text>
	<text x="972.80" y="2601.18" style="font-family:'Helvetica';font-size:60.02px;fill:#000000" text-anchor="end">Number at risk</text>
	<line x1="1043.95" y1="2309.25" x2="3859.02" y2="2309.25" style="stroke:#000000;stroke-width:5.76"/>
	<line x1="1107.32" y1="2309.25" x2="1107.32" y2="2349.22" style="stroke:#000000;stroke-width:5.76"/>
	<text x="1107.32" y="2425.17" style="font-family:'Helvetica';font-size:79.94px;fill:#000000" text-anchor="middle">0</text>
	<line x1="1566.80" y1="2309.25" x2="1566.80" y2="2349.22" style="stroke:#000000;stroke-width:5.76"/>
	<text x="1566.80" y="2425.17" style="font-family:'Helvetica';font-size:79.94px;fill:#000000" text-anchor="middle">20</text>
	<line x1="2026.41" y1="2309.25" x2="2026.41" y2="2349.22" style="stroke:#000000;stroke-width:5.76"/>
	<text x="2026.41" y="2425.17" style="font-family:'Helvetica';font-size:79.94px;fill:#000000" text-anchor="middle">40</text>
	<line x1="2486.01" y1="2309.25" x2="2486.01" y2="2349.22" style="stroke:#000000;stroke-width:5.76"/>
	<text x="2486.01" y="2425.17" style="font-family:'Helvetica';font-size:79.94px;fill:#000000" text-anchor="middle">60</text>
	<line x1="2945.50" y1="2309.25" x2="2945.50" y2="2349.22" style="stroke:#000000;stroke-width:5.76"/>
	<text x="2945.50" y="2425.17" style="font-family:'Helvetica';font-size:79.94px;fill:#000000" text-anchor="middle">80</text>
	<line x1="3405.11" y1="2309.25" x2="3405.11" y2="2349.22" style="stroke:#000000;stroke-width:5.76"/>
	<text x="3405.11" y="2425.17" style="font-family:'Helvetica';font-size:79.94px;fill:#000000" text-anchor="middle">100</text>
	<text x="2451.49" y="2515.14" style="font-family:'Helvetica';font-size:79.94px;fill:#000000" text-anchor="middle">Days since 1 Mar 2020</text>
	<rect x="1078.48" y="269.91" width="2746.01" height="186.37" style="fill:#FFFFFF"/>
	<rect x="1081.36" y="272.79" width="2740.25" height="180.61" style="fill:none;stroke:#EAF2F3;stroke-width:5.76"/>
	<line x1="1121.67" y1="363.09" x2="1490.32" y2="363.09" style="stroke:#90353B;stroke-width:8.64"/>
	<line x1="2461.02" y1="363.09" x2="2829.67" y2="363.09" style="stroke:#1A476F;stroke-width:8.64"/>
	<text x="1549.35" y="384.13" style="font-family:'Helvetica';font-size:60.02px;fill:#000000">Current exposure to NSAIDs</text>
	<text x="2888.70" y="384.13" style="font-family:'Helvetica';font-size:60.02px;fill:#000000">Non-current exposure to NSAIDs</text>
	<text x="1061.16" y="187.99" style="font-family:'Helvetica';font-size:99.99px;fill:#1E2D53">Time to death, Rheumatoid_arthritis_&amp;_osteoarthritis population</text>
</svg>
