<?xml version="1.0" encoding="UTF-8" standalone="no"?>
<!-- This is a Stata 16.1 generated SVG file (http://www.stata.com) -->

<svg version="1.1" width="5.50in" height="4.00in" viewBox="0 0 3960 2880" xmlns="http://www.w3.org/2000/svg" xmlns:xlink="http://www.w3.org/1999/xlink">
	<desc>Stata Graph - Graph</desc>
	<rect x="0" y="0" width="3960" height="2880" style="fill:#EAF2F3;stroke:none"/>
	<rect x="0.00" y="0.00" width="3959.88" height="2880.00" style="fill:#FFFFFF"/>
	<rect x="2.88" y="2.88" width="3954.12" height="2874.24" style="fill:none;stroke:#EAF2F3;stroke-width:5.76"/>
	<rect x="1064.74" y="490.93" width="2776.58" height="1818.32" style="fill:#FFFFFF"/>
	<rect x="1067.62" y="493.81" width="2770.82" height="1812.56" style="fill:none;stroke:#FFFFFF;stroke-width:5.76"/>
	<line x1="1064.74" y1="2245.89" x2="3841.32" y2="2245.89" style="stroke:#EAF2F3;stroke-width:8.64"/>
	<line x1="1064.74" y1="1907.54" x2="3841.32" y2="1907.54" style="stroke:#EAF2F3;stroke-width:8.64"/>
	<line x1="1064.74" y1="1569.20" x2="3841.32" y2="1569.20" style="stroke:#EAF2F3;stroke-width:8.64"/>
	<line x1="1064.74" y1="1230.86" x2="3841.32" y2="1230.86" style="stroke:#EAF2F3;stroke-width:8.64"/>
	<line x1="1064.74" y1="892.51" x2="3841.32" y2="892.51" style="stroke:#EAF2F3;stroke-width:8.64"/>
	<path d=" M1127.98 2246.01 L1127.98 2246.01 L1127.98 2246.01 L1152.11 2246.01 L1152.11 2246.01 L1176.24 2246.01 L1176.24 2246.01 L1200.25 2246.01 L1200.25 2246.01 L1224.38 2246.01 L1224.38 2246.01 L1248.51 2246.01 L1248.51 2246.01 L1272.52 2246.01 L1272.52 2246.01 L1296.65 2246.01 L1296.65 2246.01 L1320.78 2246.01 L1320.78 2246.01 L1344.79 2246.01 L1344.79 2246.01 L1368.92 2246.01 L1368.92 2246.01 L1393.05 2246.01 L1393.05 2246.01 L1417.06 2246.01 L1417.06 2246.01 L1441.19 2246.01 L1441.19 2246.01 L1465.32 2246.01 L1465.32 2246.01 L1489.33 2246.01 L1489.33 2245.76 L1513.46 2245.76 L1513.46 2245.39 L1537.59 2245.39 L1537.59 2245.39 L1561.60 2245.39 L1561.60 2245.27 L1585.73 2245.27 L1585.73 2245.27 L1609.86 2245.27 L1609.86 2245.02 L1633.87 2245.02 L1633.87 2244.77 L1658.00 2244.77 L1658.00 2244.03 L1682.13 2244.03 L1682.13 2243.53 L1706.14 2243.53 L1706.14 2242.30 L1730.27 2242.30 L1730.27 2241.43 L1754.40 2241.43 L1754.40 2240.32 L1778.41 2240.32 L1778.41 2239.45 L1802.54 2239.45 L1802.54 2238.09 L1826.67 2238.09 L1826.67 2236.85 L1850.68 2236.85 L1850.68 2235.24 L1874.81 2235.24 L1874.81 2234.00 L1898.94 2234.00 L1898.94 2232.77 L1922.95 2232.77 L1922.95 2230.42 L1947.08 2230.42 L1947.08 2228.06 L1971.21 2228.06 L1971.21 2225.59 L1995.22 2225.59 L1995.22 2224.10 L2019.35 2224.10 L2019.35 2221.01 L2043.48 2221.01 L2043.48 2217.42 L2067.49 2217.42 L2067.49 2213.71 L2091.62 2213.71 L2091.62 2210.99 L2115.75 2210.99 L2115.75 2208.64 L2139.76 2208.64 L2139.76 2206.78 L2163.89 2206.78 L2163.89 2203.93 L2188.02 2203.93 L2188.02 2202.20 L2212.03 2202.20 L2212.03 2198.98 L2236.16 2198.98 L2236.16 2197.00 L2260.29 2197.00 L2260.29 2193.17 L2284.30 2193.17 L2284.30 2191.19 L2308.43 2191.19 L2308.43 2188.96 L2332.56 2188.96 L2332.56 2186.48 L2356.57 2186.48 L2356.57 2183.51 L2380.70 2183.51 L2380.70 2181.41 L2404.83 2181.41 L2404.83 2178.81 L2428.84 2178.81 L2428.84 2176.83 L2452.97 2176.83 L2452.97 2175.10 L2477.10 2175.10 L2477.10 2172.75 L2501.11 2172.75 L2501.11 2171.39 L2525.24 2171.39 L2525.24 2169.41 L2549.37 2169.41 L2549.37 2167.55 L2573.38 2167.55 L2573.38 2166.06 L2597.51 2166.06 L2597.51 2164.70 L2621.64 2164.70 L2621.64 2163.59 L2645.65 2163.59 L2645.65 2161.98 L2669.78 2161.98 L2669.78 2160.62 L2693.91 2160.62 L2693.91 2159.75 L2717.92 2159.75 L2717.92 2158.39 L2742.05 2158.39 L2742.05 2156.91 L2766.18 2156.91 L2766.18 2156.04 L2790.19 2156.04 L2790.19 2155.05 L2814.32 2155.05 L2814.32 2154.31 L2838.45 2154.31 L2838.45 2154.31 L2862.46 2154.31 L2862.46 2152.33 L2886.59 2152.33 L2886.59 2151.34 L2910.72 2151.34 L2910.72 2150.72 L2934.73 2150.72 L2934.73 2150.22 L2958.86 2150.22 L2958.86 2149.36 L2982.99 2149.36 L2982.99 2148.61 L3007.00 2148.61 L3007.00 2148.12 L3031.13 2148.12 L3031.13 2147.38 L3055.14 2147.38 L3055.14 2147.13 L3079.27 2147.13 L3079.27 2146.14 L3103.40 2146.14 L3103.40 2145.27 L3127.41 2145.27 L3127.41 2145.15 L3151.54 2145.15 L3151.54 2144.65 L3175.67 2144.65 L3175.67 2144.04 L3199.68 2144.04 L3199.68 2143.42 L3223.81 2143.42 L3223.81 2142.67 L3247.94 2142.67 L3247.94 2141.81 L3271.95 2141.81 L3271.95 2141.56 L3296.08 2141.56 L3296.08 2141.31 L3320.21 2141.31 L3320.21 2140.94 L3344.22 2140.94 L3344.22 2140.08 L3368.35 2140.08 L3368.35 2139.83 L3392.48 2139.83 L3392.48 2139.46 L3416.49 2139.46 L3416.49 2138.96 L3440.62 2138.96 L3440.62 2138.59 L3464.75 2138.59 L3464.75 2138.47 L3488.76 2138.47 L3488.76 2137.97 L3512.89 2137.97 L3512.89 2137.97 L3537.02 2137.97 L3537.02 2137.72 L3561.03 2137.72 L3561.03 2137.23 L3585.16 2137.23 L3585.16 2136.98 L3609.29 2136.98 L3609.29 2136.36 L3633.30 2136.36 L3633.30 2136.36 L3657.43 2136.36 L3657.43 2136.12" stroke-linejoin="round" style="fill:none;stroke:#1A476F;stroke-width:8.64"/>
	<path d=" M1127.98 2246.01 L1127.98 2246.01 L1127.98 2246.01 L1152.11 2246.01 L1152.11 2246.01 L1176.24 2246.01 L1176.24 2246.01 L1200.25 2246.01 L1200.25 2246.01 L1224.38 2246.01 L1224.38 2246.01 L1248.51 2246.01 L1248.51 2246.01 L1272.52 2246.01 L1272.52 2246.01 L1296.65 2246.01 L1296.65 2246.01 L1320.78 2246.01 L1320.78 2246.01 L1344.79 2246.01 L1344.79 2246.01 L1368.92 2246.01 L1368.92 2246.01 L1393.05 2246.01 L1393.05 2246.01 L1417.06 2246.01 L1417.06 2246.01 L1441.19 2246.01 L1441.19 2246.01 L1465.32 2246.01 L1465.32 2246.01 L1489.33 2246.01 L1489.33 2246.01 L1513.46 2246.01 L1513.46 2246.01 L1537.59 2246.01 L1537.59 2246.01 L1561.60 2246.01 L1561.60 2246.01 L1585.73 2246.01 L1585.73 2246.01 L1609.86 2246.01 L1609.86 2246.01 L1633.87 2246.01 L1633.87 2245.27 L1658.00 2245.27 L1658.00 2244.65 L1682.13 2244.65 L1682.13 2243.41 L1706.14 2243.41 L1706.14 2242.79 L1730.27 2242.79 L1730.27 2242.17 L1754.40 2242.17 L1754.40 2240.32 L1778.41 2240.32 L1778.41 2240.32 L1802.54 2240.32 L1802.54 2238.95 L1826.67 2238.95 L1826.67 2235.24 L1850.68 2235.24 L1850.68 2233.26 L1874.81 2233.26 L1874.81 2228.31 L1898.94 2228.31 L1898.94 2226.95 L1922.95 2226.95 L1922.95 2222.62 L1947.08 2222.62 L1947.08 2220.64 L1971.21 2220.64 L1971.21 2217.55 L1995.22 2217.55 L1995.22 2215.57 L2019.35 2215.57 L2019.35 2211.85 L2043.48 2211.85 L2043.48 2206.78 L2067.49 2206.78 L2067.49 2199.23 L2091.62 2199.23 L2091.62 2195.39 L2115.75 2195.39 L2115.75 2191.56 L2139.76 2191.56 L2139.76 2187.10 L2163.89 2187.10 L2163.89 2183.39 L2188.02 2183.39 L2188.02 2180.17 L2212.03 2180.17 L2212.03 2178.32 L2236.16 2178.32 L2236.16 2175.10 L2260.29 2175.10 L2260.29 2173.24 L2284.30 2173.24 L2284.30 2170.77 L2308.43 2170.77 L2308.43 2168.17 L2332.56 2168.17 L2332.56 2165.07 L2356.57 2165.07 L2356.57 2161.86 L2380.70 2161.86 L2380.70 2160.62 L2404.83 2160.62 L2404.83 2157.40 L2428.84 2157.40 L2428.84 2154.93 L2452.97 2154.93 L2452.97 2152.95 L2477.10 2152.95 L2477.10 2151.09 L2501.11 2151.09 L2501.11 2145.40 L2525.24 2145.40 L2525.24 2142.30 L2549.37 2142.30 L2549.37 2140.94 L2573.38 2140.94 L2573.38 2139.09 L2597.51 2139.09 L2597.51 2137.23 L2621.64 2137.23 L2621.64 2136.61 L2645.65 2136.61 L2645.65 2135.87 L2669.78 2135.87 L2669.78 2134.01 L2693.91 2134.01 L2693.91 2131.54 L2717.92 2131.54 L2717.92 2130.92 L2742.05 2130.92 L2742.05 2130.18 L2766.18 2130.18 L2766.18 2130.18 L2790.19 2130.18 L2790.19 2128.32 L2814.32 2128.32 L2814.32 2128.32 L2838.45 2128.32 L2838.45 2128.32 L2862.46 2128.32 L2862.46 2126.46 L2886.59 2126.46 L2886.59 2125.84 L2910.72 2125.84 L2910.72 2125.23 L2934.73 2125.23 L2934.73 2125.23 L2958.86 2125.23 L2958.86 2124.48 L2982.99 2124.48 L2982.99 2123.86 L3007.00 2123.86 L3007.00 2122.63 L3031.13 2122.63 L3031.13 2122.01 L3055.14 2122.01 L3055.14 2120.77 L3079.27 2120.77 L3079.27 2119.53 L3103.40 2119.53 L3103.40 2119.53 L3127.41 2119.53 L3127.41 2119.53 L3151.54 2119.53 L3151.54 2119.53 L3175.67 2119.53 L3175.67 2117.55 L3199.68 2117.55 L3199.68 2116.31 L3223.81 2116.31 L3223.81 2116.31 L3247.94 2116.31 L3247.94 2116.31 L3271.95 2116.31 L3271.95 2115.08 L3296.08 2115.08 L3296.08 2114.46 L3320.21 2114.46 L3320.21 2114.46 L3344.22 2114.46 L3344.22 2113.84 L3368.35 2113.84 L3368.35 2113.84 L3392.48 2113.84 L3392.48 2112.48 L3416.49 2112.48 L3416.49 2112.48 L3440.62 2112.48 L3440.62 2111.86 L3464.75 2111.86 L3464.75 2110.62 L3488.76 2110.62 L3488.76 2110.62 L3512.89 2110.62 L3512.89 2110.62 L3537.02 2110.62 L3537.02 2110.62 L3561.03 2110.62 L3561.03 2110.62 L3585.16 2110.62 L3585.16 2110.62 L3609.29 2110.62 L3609.29 2108.77 L3633.30 2108.77 L3633.30 2108.77 L3657.43 2108.77 L3657.43 2108.02" stroke-linejoin="round" style="fill:none;stroke:#90353B;stroke-width:8.64"/>
	<line x1="1064.74" y1="2309.25" x2="1064.74" y2="490.93" style="stroke:#000000;stroke-width:5.76"/>
	<line x1="1064.74" y1="2245.89" x2="1024.77" y2="2245.89" style="stroke:#000000;stroke-width:5.76"/>
	<text x="1004.73" y="2273.90" style="font-family:'Helvetica';font-size:79.94px;fill:#000000" text-anchor="end">0.000</text>
	<line x1="1064.74" y1="1907.54" x2="1024.77" y2="1907.54" style="stroke:#000000;stroke-width:5.76"/>
	<text x="1004.73" y="1935.55" style="font-family:'Helvetica';font-size:79.94px;fill:#000000" text-anchor="end">0.001</text>
	<line x1="1064.74" y1="1569.20" x2="1024.77" y2="1569.20" style="stroke:#000000;stroke-width:5.76"/>
	<text x="1004.73" y="1597.21" style="font-family:'Helvetica';font-size:79.94px;fill:#000000" text-anchor="end">0.002</text>
	<line x1="1064.74" y1="1230.86" x2="1024.77" y2="1230.86" style="stroke:#000000;stroke-width:5.76"/>
	<text x="1004.73" y="1258.87" style="font-family:'Helvetica';font-size:79.94px;fill:#000000" text-anchor="end">0.003</text>
	<line x1="1064.74" y1="892.51" x2="1024.77" y2="892.51" style="stroke:#000000;stroke-width:5.76"/>
	<text x="1004.73" y="920.52" style="font-family:'Helvetica';font-size:79.94px;fill:#000000" text-anchor="end">0.004</text>
	<line x1="1064.74" y1="554.29" x2="1024.77" y2="554.29" style="stroke:#000000;stroke-width:5.76"/>
	<text x="1004.73" y="582.31" style="font-family:'Helvetica';font-size:79.94px;fill:#000000" text-anchor="end">0.005</text>
	<text x="1128.11" y="2747.83" style="font-family:'Helvetica';font-size:60.02px;fill:#000000" text-anchor="middle">535519</text>
	<text x="1609.86" y="2747.83" style="font-family:'Helvetica';font-size:60.02px;fill:#000000" text-anchor="middle">535298</text>
	<text x="2091.62" y="2747.83" style="font-family:'Helvetica';font-size:60.02px;fill:#000000" text-anchor="middle">534977</text>
	<text x="2573.51" y="2747.83" style="font-family:'Helvetica';font-size:60.02px;fill:#000000" text-anchor="middle">534681</text>
	<text x="3055.26" y="2747.83" style="font-family:'Helvetica';font-size:60.02px;fill:#000000" text-anchor="middle">534499</text>
	<text x="3537.02" y="2747.83" style="font-family:'Helvetica';font-size:60.02px;fill:#000000" text-anchor="middle">534301</text>
	<text x="995.57" y="2747.83" style="font-family:'Helvetica';font-size:60.02px;fill:#000000" text-anchor="end">Current exposure to NSAIDs</text>
	<text x="1128.11" y="2674.44" style="font-family:'Helvetica';font-size:60.02px;fill:#000000" text-anchor="middle">1924112</text>
	<text x="1609.86" y="2674.44" style="font-family:'Helvetica';font-size:60.02px;fill:#000000" text-anchor="middle">1923648</text>
	<text x="2091.62" y="2674.44" style="font-family:'Helvetica';font-size:60.02px;fill:#000000" text-anchor="middle">1922943</text>
	<text x="2573.51" y="2674.44" style="font-family:'Helvetica';font-size:60.02px;fill:#000000" text-anchor="middle">1922196</text>
	<text x="3055.26" y="2674.44" style="font-family:'Helvetica';font-size:60.02px;fill:#000000" text-anchor="middle">1921644</text>
	<text x="3537.02" y="2674.44" style="font-family:'Helvetica';font-size:60.02px;fill:#000000" text-anchor="middle">1921201</text>
	<text x="995.57" y="2674.44" style="font-family:'Helvetica';font-size:60.02px;fill:#000000" text-anchor="end">Non-current exposure to NSAIDs</text>
	<text x="995.57" y="2601.18" style="font-family:'Helvetica';font-size:60.02px;fill:#000000" text-anchor="end">Number at risk</text>
	<line x1="1064.74" y1="2309.25" x2="3841.32" y2="2309.25" style="stroke:#000000;stroke-width:5.76"/>
	<line x1="1128.11" y1="2309.25" x2="1128.11" y2="2349.22" style="stroke:#000000;stroke-width:5.76"/>
	<text x="1128.11" y="2425.17" style="font-family:'Helvetica';font-size:79.94px;fill:#000000" text-anchor="middle">0</text>
	<line x1="1609.86" y1="2309.25" x2="1609.86" y2="2349.22" style="stroke:#000000;stroke-width:5.76"/>
	<text x="1609.86" y="2425.17" style="font-family:'Helvetica';font-size:79.94px;fill:#000000" text-anchor="middle">20</text>
	<line x1="2091.62" y1="2309.25" x2="2091.62" y2="2349.22" style="stroke:#000000;stroke-width:5.76"/>
	<text x="2091.62" y="2425.17" style="font-family:'Helvetica';font-size:79.94px;fill:#000000" text-anchor="middle">40</text>
	<line x1="2573.51" y1="2309.25" x2="2573.51" y2="2349.22" style="stroke:#000000;stroke-width:5.76"/>
	<text x="2573.51" y="2425.17" style="font-family:'Helvetica';font-size:79.94px;fill:#000000" text-anchor="middle">60</text>
	<line x1="3055.26" y1="2309.25" x2="3055.26" y2="2349.22" style="stroke:#000000;stroke-width:5.76"/>
	<text x="3055.26" y="2425.17" style="font-family:'Helvetica';font-size:79.94px;fill:#000000" text-anchor="middle">80</text>
	<line x1="3537.02" y1="2309.25" x2="3537.02" y2="2349.22" style="stroke:#000000;stroke-width:5.76"/>
	<text x="3537.02" y="2425.17" style="font-family:'Helvetica';font-size:79.94px;fill:#000000" text-anchor="middle">100</text>
	<text x="2452.97" y="2515.14" style="font-family:'Helvetica';font-size:79.94px;fill:#000000" text-anchor="middle">Days since 1 Mar 2020</text>
	<rect x="1099.27" y="269.91" width="2707.53" height="186.37" style="fill:#FFFFFF"/>
	<rect x="1102.15" y="272.79" width="2701.77" height="180.61" style="fill:none;stroke:#EAF2F3;stroke-width:5.76"/>
	<line x1="1142.46" y1="363.09" x2="1505.79" y2="363.09" style="stroke:#90353B;stroke-width:8.64"/>
	<line x1="2462.38" y1="363.09" x2="2825.71" y2="363.09" style="stroke:#1A476F;stroke-width:8.64"/>
	<text x="1564.08" y="384.13" style="font-family:'Helvetica';font-size:60.02px;fill:#000000">Current exposure to NSAIDs</text>
	<text x="2883.87" y="384.13" style="font-family:'Helvetica';font-size:60.02px;fill:#000000">Non-current exposure to NSAIDs</text>
	<text x="1732.62" y="187.99" style="font-family:'Helvetica';font-size:99.99px;fill:#1E2D53">Time to death, nsaid population</text>
</svg>
