<?xml version="1.0" encoding="UTF-8" standalone="no"?>
<!-- This is a Stata 16.1 generated SVG file (http://www.stata.com) -->

<svg version="1.1" width="5.50in" height="4.00in" viewBox="0 0 3960 2880" xmlns="http://www.w3.org/2000/svg" xmlns:xlink="http://www.w3.org/1999/xlink">
	<desc>Stata Graph - Graph</desc>
	<rect x="0" y="0" width="3960" height="2880" style="fill:#EAF2F3;stroke:none"/>
	<rect x="0.00" y="0.00" width="3959.88" height="2880.00" style="fill:#EAF2F3"/>
	<rect x="2.88" y="2.88" width="3954.12" height="2874.24" style="fill:none;stroke:#EAF2F3;stroke-width:5.76"/>
	<rect x="582.49" y="100.86" width="3276.53" height="2388.33" style="fill:#FFFFFF"/>
	<rect x="585.37" y="103.74" width="3270.77" height="2382.57" style="fill:none;stroke:#FFFFFF;stroke-width:5.76"/>
	<line x1="582.49" y1="1973.50" x2="3859.02" y2="1973.50" style="stroke:#EAF2F3;stroke-width:8.64"/>
	<line x1="582.49" y1="1521.18" x2="3859.02" y2="1521.18" style="stroke:#EAF2F3;stroke-width:8.64"/>
	<line x1="582.49" y1="1068.86" x2="3859.02" y2="1068.86" style="stroke:#EAF2F3;stroke-width:8.64"/>
	<line x1="582.49" y1="616.54" x2="3859.02" y2="616.54" style="stroke:#EAF2F3;stroke-width:8.64"/>
	<line x1="582.49" y1="164.22" x2="3859.02" y2="164.22" style="stroke:#EAF2F3;stroke-width:8.64"/>
	<defs>
		<path id="path_HZYxqVTJ" d="M645.85 164.22 L645.85 164.22 L677.65 164.22 L709.46 164.22 L741.26 164.22 L773.07 164.22 L804.87 164.22 L836.67 164.22 L868.48 164.22 L900.28 164.22 L932.21 164.22 L964.01 164.22 L995.82 164.35 L1027.62 164.47 L1059.42 164.72 L1091.23 165.09 L1123.03 165.58 L1154.84 166.45 L1186.64 167.56 L1218.57 169.17 L1250.37 171.15 L1282.17 173.75 L1313.98 176.97 L1345.78 180.93 L1377.59 185.51 L1409.39 190.95 L1441.19 197.39 L1473.00 204.57 L1504.92 212.73 L1536.73 221.77 L1568.53 231.67 L1600.34 242.56 L1632.14 254.31 L1663.94 266.81 L1695.75 280.18 L1727.55 294.29 L1759.35 309.14 L1791.28 324.48 L1823.09 340.45 L1854.89 356.78 L1886.69 373.49 L1918.50 390.57 L1950.30 407.77 L1982.10 425.22 L2013.91 442.54 L2045.71 459.99 L2077.64 477.19 L2109.44 494.27 L2141.25 510.98 L2173.05 527.44 L2204.85 543.53 L2236.66 559.12 L2268.46 574.34 L2300.26 589.07 L2332.07 603.30 L2364.00 617.16 L2395.80 630.40 L2427.60 643.15 L2459.41 655.40 L2491.21 667.28 L2523.01 678.54 L2554.82 689.31 L2586.62 699.70 L2618.43 709.60 L2650.35 719.01 L2682.16 728.04 L2713.96 736.58 L2745.76 744.87 L2777.57 752.67 L2809.37 760.10 L2841.18 767.15 L2872.98 773.83 L2904.78 780.27 L2936.71 786.33 L2968.51 792.15 L3000.32 797.72 L3032.12 803.04 L3063.93 807.99 L3095.73 812.82 L3127.53 817.39 L3159.34 821.73 L3191.14 825.93 L3223.07 830.02 L3254.87 833.85 L3286.68 837.57 L3318.48 841.03 L3350.28 844.50 L3382.09 847.84 L3413.89 851.06 L3445.70 854.15 L3477.50 857.12 L3509.43 860.09 L3541.23 862.94 L3573.03 865.66 L3604.84 868.38 L3636.64 871.10 L3668.45 873.70 L3700.25 876.30 L3732.05 878.90 L3763.86 881.38 L3795.78 883.97 L3795.78 830.64 L3763.86 828.28 L3732.05 825.93 L3700.25 823.46 L3668.45 821.11 L3636.64 818.63 L3604.84 816.03 L3573.03 813.56 L3541.23 810.84 L3509.43 808.11 L3477.50 805.39 L3445.70 802.54 L3413.89 799.57 L3382.09 796.48 L3350.28 793.39 L3318.48 790.04 L3286.68 786.70 L3254.87 783.11 L3223.07 779.40 L3191.14 775.57 L3159.34 771.61 L3127.53 767.40 L3095.73 762.94 L3063.93 758.36 L3032.12 753.54 L3000.32 748.46 L2968.51 743.14 L2936.71 737.70 L2904.78 731.88 L2872.98 725.69 L2841.18 719.38 L2809.37 712.57 L2777.57 705.52 L2745.76 698.22 L2713.96 690.42 L2682.16 682.26 L2650.35 673.84 L2618.43 664.93 L2586.62 655.52 L2554.82 645.87 L2523.01 635.60 L2491.21 625.08 L2459.41 613.94 L2427.60 602.43 L2395.80 590.43 L2364.00 578.05 L2332.07 565.06 L2300.26 551.69 L2268.46 537.96 L2236.66 523.60 L2204.85 509.00 L2173.05 493.90 L2141.25 478.43 L2109.44 462.72 L2077.64 446.63 L2045.71 430.42 L2013.91 414.08 L1982.10 397.74 L1950.30 381.41 L1918.50 365.20 L1886.69 349.23 L1854.89 333.52 L1823.09 318.17 L1791.28 303.32 L1759.35 289.09 L1727.55 275.48 L1695.75 262.48 L1663.94 250.23 L1632.14 238.97 L1600.34 228.45 L1568.53 218.80 L1536.73 210.01 L1504.92 202.21 L1473.00 195.28 L1441.19 189.22 L1409.39 184.02 L1377.59 179.57 L1345.78 175.98 L1313.98 173.01 L1282.17 170.53 L1250.37 168.68 L1218.57 167.32 L1186.64 166.20 L1154.84 165.46 L1123.03 164.96 L1091.23 164.59 L1059.42 164.35 L1027.62 164.22 L995.82 164.22 L964.01 164.22 L932.21 164.22 L900.28 164.22 L868.48 164.22 L836.67 164.22 L804.87 164.22 L773.07 164.22 L741.26 164.22 L709.46 164.22 L677.65 164.22 L645.85 164.22 L645.85 164.22 Z" stroke-linejoin="round"/>
	</defs>
	<defs>
		<clipPath id="clipPath_mJNyynug">
			<use xlink:href="#path_HZYxqVTJ"/>
		</clipPath>
	</defs>
	<use xlink:href="#path_HZYxqVTJ" style="stroke:none;fill:#FF3333;fill-opacity:0.25"/>
	<use xlink:href="#path_HZYxqVTJ" style="fill:none;stroke:#FF0000;stroke-opacity:0.25;stroke-width:17.28" clip-path="url(#clipPath_mJNyynug)"/>
	<defs>
		<path id="path_eINPHExF" d="M645.85 164.22 L645.85 164.22 L677.65 164.22 L709.46 164.22 L741.26 164.22 L773.07 164.22 L804.87 164.22 L836.67 164.22 L868.48 164.22 L900.28 164.22 L932.21 164.22 L964.01 164.22 L995.82 164.35 L1027.62 164.47 L1059.42 164.72 L1091.23 165.09 L1123.03 165.58 L1154.84 166.45 L1186.64 167.56 L1218.57 169.17 L1250.37 171.15 L1282.17 173.75 L1313.98 176.97 L1345.78 180.93 L1377.59 185.51 L1409.39 190.95 L1441.19 197.39 L1473.00 204.57 L1504.92 212.73 L1536.73 221.77 L1568.53 231.67 L1600.34 242.56 L1632.14 254.31 L1663.94 266.81 L1695.75 280.18 L1727.55 294.29 L1759.35 309.14 L1791.28 324.48 L1823.09 340.45 L1854.89 356.78 L1886.69 373.49 L1918.50 390.57 L1950.30 407.77 L1982.10 425.22 L2013.91 442.54 L2045.71 459.99 L2077.64 477.19 L2109.44 494.27 L2141.25 510.98 L2173.05 527.44 L2204.85 543.53 L2236.66 559.12 L2268.46 574.34 L2300.26 589.07 L2332.07 603.30 L2364.00 617.16 L2395.80 630.40 L2427.60 643.15 L2459.41 655.40 L2491.21 667.28 L2523.01 678.54 L2554.82 689.31 L2586.62 699.70 L2618.43 709.60 L2650.35 719.01 L2682.16 728.04 L2713.96 736.58 L2745.76 744.87 L2777.57 752.67 L2809.37 760.10 L2841.18 767.15 L2872.98 773.83 L2904.78 780.27 L2936.71 786.33 L2968.51 792.15 L3000.32 797.72 L3032.12 803.04 L3063.93 807.99 L3095.73 812.82 L3127.53 817.39 L3159.34 821.73 L3191.14 825.93 L3223.07 830.02 L3254.87 833.85 L3286.68 837.57 L3318.48 841.03 L3350.28 844.50 L3382.09 847.84 L3413.89 851.06 L3445.70 854.15 L3477.50 857.12 L3509.43 860.09 L3541.23 862.94 L3573.03 865.66 L3604.84 868.38 L3636.64 871.10 L3668.45 873.70 L3700.25 876.30 L3732.05 878.90 L3763.86 881.38 L3795.78 883.97 L3795.78 830.64 L3763.86 828.28 L3732.05 825.93 L3700.25 823.46 L3668.45 821.11 L3636.64 818.63 L3604.84 816.03 L3573.03 813.56 L3541.23 810.84 L3509.43 808.11 L3477.50 805.39 L3445.70 802.54 L3413.89 799.57 L3382.09 796.48 L3350.28 793.39 L3318.48 790.04 L3286.68 786.70 L3254.87 783.11 L3223.07 779.40 L3191.14 775.57 L3159.34 771.61 L3127.53 767.40 L3095.73 762.94 L3063.93 758.36 L3032.12 753.54 L3000.32 748.46 L2968.51 743.14 L2936.71 737.70 L2904.78 731.88 L2872.98 725.69 L2841.18 719.38 L2809.37 712.57 L2777.57 705.52 L2745.76 698.22 L2713.96 690.42 L2682.16 682.26 L2650.35 673.84 L2618.43 664.93 L2586.62 655.52 L2554.82 645.87 L2523.01 635.60 L2491.21 625.08 L2459.41 613.94 L2427.60 602.43 L2395.80 590.43 L2364.00 578.05 L2332.07 565.06 L2300.26 551.69 L2268.46 537.96 L2236.66 523.60 L2204.85 509.00 L2173.05 493.90 L2141.25 478.43 L2109.44 462.72 L2077.64 446.63 L2045.71 430.42 L2013.91 414.08 L1982.10 397.74 L1950.30 381.41 L1918.50 365.20 L1886.69 349.23 L1854.89 333.52 L1823.09 318.17 L1791.28 303.32 L1759.35 289.09 L1727.55 275.48 L1695.75 262.48 L1663.94 250.23 L1632.14 238.97 L1600.34 228.45 L1568.53 218.80 L1536.73 210.01 L1504.92 202.21 L1473.00 195.28 L1441.19 189.22 L1409.39 184.02 L1377.59 179.57 L1345.78 175.98 L1313.98 173.01 L1282.17 170.53 L1250.37 168.68 L1218.57 167.32 L1186.64 166.20 L1154.84 165.46 L1123.03 164.96 L1091.23 164.59 L1059.42 164.35 L1027.62 164.22 L995.82 164.22 L964.01 164.22 L932.21 164.22 L900.28 164.22 L868.48 164.22 L836.67 164.22 L804.87 164.22 L773.07 164.22 L741.26 164.22 L709.46 164.22 L677.65 164.22 L645.85 164.22 L645.85 164.22 Z" stroke-linejoin="round"/>
	</defs>
	<defs>
		<clipPath id="clipPath_efTPTHbn">
			<use xlink:href="#path_eINPHExF"/>
		</clipPath>
	</defs>
	<use xlink:href="#path_eINPHExF" style="stroke:none;fill:#3333FF;fill-opacity:0.25"/>
	<use xlink:href="#path_eINPHExF" style="fill:none;stroke:#0000FF;stroke-opacity:0.25;stroke-width:17.28" clip-path="url(#clipPath_efTPTHbn)"/>
	<path d=" M645.73 164.22 L677.53 164.22 L709.34 164.22 L741.14 164.22 L773.07 164.22 L804.87 164.22 L836.67 164.22 L868.48 164.22 L900.28 164.22 L932.09 164.22 L963.89 164.22 L995.69 164.35 L1027.50 164.47 L1059.42 164.59 L1091.23 164.84 L1123.03 165.34 L1154.84 165.95 L1186.64 166.94 L1218.44 168.31 L1250.25 170.04 L1282.05 172.27 L1313.85 174.99 L1345.78 178.45 L1377.59 182.66 L1409.39 187.61 L1441.19 193.30 L1473.00 199.99 L1504.80 207.54 L1536.60 215.95 L1568.41 225.23 L1600.21 235.50 L1632.02 246.64 L1663.94 258.65 L1695.75 271.39 L1727.55 284.88 L1759.35 299.11 L1791.16 313.96 L1822.96 329.31 L1854.77 345.15 L1886.57 361.36 L1918.37 377.94 L1950.30 394.65 L1982.10 411.48 L2013.91 428.44 L2045.71 445.27 L2077.51 461.97 L2109.32 478.56 L2141.12 494.77 L2172.93 510.73 L2204.73 526.33 L2236.66 541.42 L2268.46 556.15 L2300.26 570.51 L2332.07 584.24 L2363.87 597.61 L2395.68 610.48 L2427.48 622.85 L2459.28 634.73 L2491.09 646.24 L2523.01 657.13 L2554.82 667.65 L2586.62 677.68 L2618.43 687.33 L2650.23 696.49 L2682.03 705.27 L2713.84 713.56 L2745.64 721.61 L2777.45 729.16 L2809.37 736.34 L2841.18 743.27 L2872.98 749.82 L2904.78 756.14 L2936.59 762.08 L2968.39 767.77 L3000.20 773.21 L3032.00 778.29 L3063.80 783.24 L3095.73 787.94 L3127.53 792.40 L3159.34 796.73 L3191.14 800.81 L3222.95 804.77 L3254.75 808.48 L3286.55 812.20 L3318.36 815.66 L3350.16 819.00 L3382.09 822.22 L3413.89 825.31 L3445.70 828.41 L3477.50 831.25 L3509.30 834.22 L3541.11 836.95 L3572.91 839.67 L3604.71 842.27 L3636.52 844.87 L3668.45 847.47 L3700.25 849.94 L3732.05 852.42 L3763.86 854.89 L3795.66 857.37" stroke-linejoin="round" style="fill:none;stroke:#FF0000;stroke-width:8.64"/>
	<path d=" M645.73 164.22 L677.53 164.22 L709.34 164.22 L741.14 164.22 L773.07 164.22 L804.87 164.22 L836.67 164.22 L868.48 164.22 L900.28 164.22 L932.09 164.22 L963.89 164.22 L995.69 164.35 L1027.50 164.47 L1059.42 164.59 L1091.23 164.84 L1123.03 165.34 L1154.84 165.95 L1186.64 166.94 L1218.44 168.31 L1250.25 170.04 L1282.05 172.27 L1313.85 174.99 L1345.78 178.45 L1377.59 182.66 L1409.39 187.61 L1441.19 193.30 L1473.00 199.99 L1504.80 207.54 L1536.60 215.95 L1568.41 225.23 L1600.21 235.50 L1632.02 246.64 L1663.94 258.65 L1695.75 271.39 L1727.55 284.88 L1759.35 299.11 L1791.16 313.96 L1822.96 329.31 L1854.77 345.15 L1886.57 361.36 L1918.37 377.94 L1950.30 394.65 L1982.10 411.48 L2013.91 428.44 L2045.71 445.27 L2077.51 461.97 L2109.32 478.56 L2141.12 494.77 L2172.93 510.73 L2204.73 526.33 L2236.66 541.42 L2268.46 556.15 L2300.26 570.51 L2332.07 584.24 L2363.87 597.61 L2395.68 610.48 L2427.48 622.85 L2459.28 634.73 L2491.09 646.24 L2523.01 657.13 L2554.82 667.65 L2586.62 677.68 L2618.43 687.33 L2650.23 696.49 L2682.03 705.27 L2713.84 713.56 L2745.64 721.61 L2777.45 729.16 L2809.37 736.34 L2841.18 743.27 L2872.98 749.82 L2904.78 756.14 L2936.59 762.08 L2968.39 767.77 L3000.20 773.21 L3032.00 778.29 L3063.80 783.24 L3095.73 787.94 L3127.53 792.40 L3159.34 796.73 L3191.14 800.81 L3222.95 804.77 L3254.75 808.48 L3286.55 812.20 L3318.36 815.66 L3350.16 819.00 L3382.09 822.22 L3413.89 825.31 L3445.70 828.41 L3477.50 831.25 L3509.30 834.22 L3541.11 836.95 L3572.91 839.67 L3604.71 842.27 L3636.52 844.87 L3668.45 847.47 L3700.25 849.94 L3732.05 852.42 L3763.86 854.89 L3795.66 857.37" stroke-linejoin="round" style="fill:none;stroke:#0000FF;stroke-width:8.64"/>
	<line x1="582.49" y1="2489.19" x2="582.49" y2="100.86" style="stroke:#000000;stroke-width:5.76"/>
	<line x1="582.49" y1="2425.82" x2="542.40" y2="2425.82" style="stroke:#000000;stroke-width:5.76"/>
	<text x="522.47" y="2460.85" style="font-family:'Helvetica';font-size:99.99px;fill:#000000" text-anchor="end">0.995</text>
	<line x1="582.49" y1="1973.50" x2="542.40" y2="1973.50" style="stroke:#000000;stroke-width:5.76"/>
	<text x="522.47" y="2008.53" style="font-family:'Helvetica';font-size:99.99px;fill:#000000" text-anchor="end">0.996</text>
	<line x1="582.49" y1="1521.18" x2="542.40" y2="1521.18" style="stroke:#000000;stroke-width:5.76"/>
	<text x="522.47" y="1556.21" style="font-family:'Helvetica';font-size:99.99px;fill:#000000" text-anchor="end">0.997</text>
	<line x1="582.49" y1="1068.86" x2="542.40" y2="1068.86" style="stroke:#000000;stroke-width:5.76"/>
	<text x="522.47" y="1103.89" style="font-family:'Helvetica';font-size:99.99px;fill:#000000" text-anchor="end">0.998</text>
	<line x1="582.49" y1="616.54" x2="542.40" y2="616.54" style="stroke:#000000;stroke-width:5.76"/>
	<text x="522.47" y="651.57" style="font-family:'Helvetica';font-size:99.99px;fill:#000000" text-anchor="end">0.999</text>
	<line x1="582.49" y1="164.22" x2="542.40" y2="164.22" style="stroke:#000000;stroke-width:5.76"/>
	<text x="522.47" y="199.25" style="font-family:'Helvetica';font-size:99.99px;fill:#000000" text-anchor="end">1.000</text>
	<text x="190.71" y="1294.96" style="font-family:'Helvetica';font-size:99.99px;fill:#000000" transform="rotate(-90 190.71,1294.96)" text-anchor="middle">S(t)</text>
	<line x1="582.49" y1="2489.19" x2="3859.02" y2="2489.19" style="stroke:#000000;stroke-width:5.76"/>
	<line x1="645.85" y1="2489.19" x2="645.85" y2="2529.16" style="stroke:#000000;stroke-width:5.76"/>
	<text x="645.85" y="2619.14" style="font-family:'Helvetica';font-size:99.99px;fill:#000000" text-anchor="middle">0</text>
	<line x1="1245.79" y1="2489.19" x2="1245.79" y2="2529.16" style="stroke:#000000;stroke-width:5.76"/>
	<text x="1245.79" y="2619.14" style="font-family:'Helvetica';font-size:99.99px;fill:#000000" text-anchor="middle">20</text>
	<line x1="1845.73" y1="2489.19" x2="1845.73" y2="2529.16" style="stroke:#000000;stroke-width:5.76"/>
	<text x="1845.73" y="2619.14" style="font-family:'Helvetica';font-size:99.99px;fill:#000000" text-anchor="middle">40</text>
	<line x1="2445.80" y1="2489.19" x2="2445.80" y2="2529.16" style="stroke:#000000;stroke-width:5.76"/>
	<text x="2445.80" y="2619.14" style="font-family:'Helvetica';font-size:99.99px;fill:#000000" text-anchor="middle">60</text>
	<line x1="3045.74" y1="2489.19" x2="3045.74" y2="2529.16" style="stroke:#000000;stroke-width:5.76"/>
	<text x="3045.74" y="2619.14" style="font-family:'Helvetica';font-size:99.99px;fill:#000000" text-anchor="middle">80</text>
	<line x1="3645.68" y1="2489.19" x2="3645.68" y2="2529.16" style="stroke:#000000;stroke-width:5.76"/>
	<text x="3645.68" y="2619.14" style="font-family:'Helvetica';font-size:99.99px;fill:#000000" text-anchor="middle">100</text>
	<text x="2220.82" y="2729.16" style="font-family:'Helvetica';font-size:99.99px;fill:#000000" text-anchor="middle">Days from 1 March 2020</text>
	<rect x="2218.84" y="2128.20" width="1605.66" height="326.46" style="fill:#FFFFFF"/>
	<rect x="2221.72" y="2131.08" width="1599.90" height="320.70" style="fill:none;stroke:#000000;stroke-width:5.76"/>
	<rect x="2262.03" y="2171.51" width="374.34" height="99.99" style="fill:#FF3333;fill-opacity:0.25"/>
	<rect x="2266.35" y="2175.83" width="365.70" height="91.35" style="fill:none;stroke:#FF0000;stroke-opacity:0.25;stroke-width:8.64"/>
	<rect x="2262.03" y="2311.47" width="374.34" height="99.99" style="fill:#3333FF;fill-opacity:0.25"/>
	<rect x="2266.35" y="2315.79" width="365.70" height="91.35" style="fill:none;stroke:#0000FF;stroke-opacity:0.25;stroke-width:8.64"/>
	<text x="2696.39" y="2256.53" style="font-family:'Helvetica';font-size:99.99px;fill:#000000">Non-current NSAID use</text>
	<text x="2696.39" y="2396.50" style="font-family:'Helvetica';font-size:99.99px;fill:#000000">Current NSAID use</text>
</svg>
