<?xml version="1.0" encoding="UTF-8" standalone="no"?>
<!-- This is a Stata 16.1 generated SVG file (http://www.stata.com) -->

<svg version="1.1" width="5.50in" height="4.00in" viewBox="0 0 3960 2880" xmlns="http://www.w3.org/2000/svg" xmlns:xlink="http://www.w3.org/1999/xlink">
	<desc>Stata Graph - Graph</desc>
	<rect x="0" y="0" width="3960" height="2880" style="fill:#EAF2F3;stroke:none"/>
	<rect x="0.00" y="0.00" width="3959.88" height="2880.00" style="fill:#EAF2F3"/>
	<rect x="2.88" y="2.88" width="3954.12" height="2874.24" style="fill:none;stroke:#EAF2F3;stroke-width:5.76"/>
	<rect x="617.39" y="100.86" width="3241.63" height="2388.33" style="fill:#FFFFFF"/>
	<rect x="620.27" y="103.74" width="3235.87" height="2382.57" style="fill:none;stroke:#FFFFFF;stroke-width:5.76"/>
	<line x1="617.39" y1="2296.13" x2="3859.02" y2="2296.13" style="stroke:#EAF2F3;stroke-width:8.64"/>
	<line x1="617.39" y1="1763.12" x2="3859.02" y2="1763.12" style="stroke:#EAF2F3;stroke-width:8.64"/>
	<line x1="617.39" y1="1230.11" x2="3859.02" y2="1230.11" style="stroke:#EAF2F3;stroke-width:8.64"/>
	<line x1="617.39" y1="697.11" x2="3859.02" y2="697.11" style="stroke:#EAF2F3;stroke-width:8.64"/>
	<line x1="617.39" y1="164.22" x2="3859.02" y2="164.22" style="stroke:#EAF2F3;stroke-width:8.64"/>
	<defs>
		<path id="path_tgyxhqQV" d="M680.75 1763.12 L680.75 1763.12 L712.30 517.54 L743.74 520.51 L775.17 476.08 L806.60 887.32 L838.16 1848.88 L869.59 2044.17 L901.02 1952.46 L932.46 1742.45 L964.01 1712.75 L995.45 1777.85 L1026.88 1668.45 L1058.31 1748.27 L1089.87 1585.53 L1121.30 1686.15 L1152.73 2112.23 L1184.16 1555.96 L1215.72 1736.51 L1247.15 1763.12 L1278.59 1736.51 L1310.02 1934.77 L1341.57 2029.44 L1373.01 1839.97 L1404.44 1588.50 L1435.87 1825.25 L1467.43 1698.03 L1498.86 1544.20 L1530.29 1606.33 L1561.72 1946.52 L1593.28 1931.80 L1624.71 2020.53 L1656.15 1396.19 L1687.70 1203.88 L1719.13 2115.20 L1750.57 1845.91 L1782.00 1813.37 L1813.56 2150.72 L1844.99 1718.69 L1876.42 1822.28 L1907.85 2248.36 L1939.41 1547.17 L1970.84 1387.40 L2002.28 1597.41 L2033.71 1961.38 L2065.26 2070.77 L2096.70 1570.81 L2128.13 1701.00 L2159.56 1990.95 L2191.12 1322.31 L2222.55 1535.29 L2253.98 1360.67 L2285.41 1461.29 L2316.97 2002.71 L2348.40 1866.70 L2379.84 1733.54 L2411.27 1653.60 L2442.82 1940.58 L2474.26 1650.63 L2505.69 1754.21 L2537.12 1769.06 L2568.68 1641.84 L2600.11 1792.70 L2631.54 1949.49 L2662.98 1550.14 L2694.53 2023.50 L2725.97 1488.02 L2757.40 1641.84 L2788.83 2067.80 L2820.39 1851.85 L2851.82 1647.78 L2883.25 1692.09 L2914.68 1626.99 L2946.24 2002.71 L2977.67 1677.36 L3009.11 1916.95 L3040.54 1612.27 L3072.09 1552.99 L3103.53 2141.81 L3134.96 2097.38 L3166.39 1567.84 L3197.95 1757.18 L3229.38 2425.82 L3260.81 1647.78 L3292.24 1961.38 L3323.80 1834.16 L3355.23 1668.45 L3386.67 1976.10 L3418.10 1245.34 L3449.66 1721.66 L3481.09 2138.84 L3512.52 1801.61 L3543.95 1307.46 L3575.51 1961.38 L3606.94 2035.26 L3638.37 1857.79 L3669.81 1946.52 L3701.36 2091.56 L3732.80 2079.68 L3764.23 1550.14 L3795.78 1952.46 L3795.78 1952.46 L3764.23 1550.14 L3732.80 2079.68 L3701.36 2091.56 L3669.81 1946.52 L3638.37 1857.79 L3606.94 2035.26 L3575.51 1961.38 L3543.95 1307.46 L3512.52 1801.61 L3481.09 2138.84 L3449.66 1721.66 L3418.10 1245.34 L3386.67 1976.10 L3355.23 1668.45 L3323.80 1834.16 L3292.24 1961.38 L3260.81 1647.78 L3229.38 2425.82 L3197.95 1757.18 L3166.39 1567.84 L3134.96 2097.38 L3103.53 2141.81 L3072.09 1552.99 L3040.54 1612.27 L3009.11 1916.95 L2977.67 1677.36 L2946.24 2002.71 L2914.68 1626.99 L2883.25 1692.09 L2851.82 1647.78 L2820.39 1851.85 L2788.83 2067.80 L2757.40 1641.84 L2725.97 1488.02 L2694.53 2023.50 L2662.98 1550.14 L2631.54 1949.49 L2600.11 1792.70 L2568.68 1641.84 L2537.12 1769.06 L2505.69 1754.21 L2474.26 1650.63 L2442.82 1940.58 L2411.27 1653.60 L2379.84 1733.54 L2348.40 1866.70 L2316.97 2002.71 L2285.41 1461.29 L2253.98 1360.67 L2222.55 1535.29 L2191.12 1322.31 L2159.56 1990.95 L2128.13 1701.00 L2096.70 1570.81 L2065.26 2070.77 L2033.71 1961.38 L2002.28 1597.41 L1970.84 1387.40 L1939.41 1547.17 L1907.85 2248.36 L1876.42 1822.28 L1844.99 1718.69 L1813.56 2150.72 L1782.00 1813.37 L1750.57 1845.91 L1719.13 2115.20 L1687.70 1203.88 L1656.15 1396.19 L1624.71 2020.53 L1593.28 1931.80 L1561.72 1946.52 L1530.29 1606.33 L1498.86 1544.20 L1467.43 1698.03 L1435.87 1825.25 L1404.44 1588.50 L1373.01 1839.97 L1341.57 2029.44 L1310.02 1934.77 L1278.59 1736.51 L1247.15 1763.12 L1215.72 1736.51 L1184.16 1555.96 L1152.73 2112.23 L1121.30 1686.15 L1089.87 1585.53 L1058.31 1748.27 L1026.88 1668.45 L995.45 1777.85 L964.01 1712.75 L932.46 1742.45 L901.02 1952.46 L869.59 2044.17 L838.16 1848.88 L806.60 887.32 L775.17 476.08 L743.74 520.51 L712.30 517.54 L680.75 1763.12 L680.75 1763.12 Z" stroke-linejoin="round"/>
	</defs>
	<defs>
		<clipPath id="clipPath_SbDZrgcf">
			<use xlink:href="#path_tgyxhqQV"/>
		</clipPath>
	</defs>
	<use xlink:href="#path_tgyxhqQV" style="stroke:none;fill:#FF3333;fill-opacity:0.25"/>
	<use xlink:href="#path_tgyxhqQV" style="fill:none;stroke:#FF0000;stroke-opacity:0.25;stroke-width:17.28" clip-path="url(#clipPath_SbDZrgcf)"/>
	<path d=" M680.75 1763.12 L712.18 517.54 L743.61 520.51 L775.17 476.20 L806.60 887.44 L838.03 1849.01 L869.47 2044.29 L901.02 1952.46 L932.46 1742.45 L963.89 1712.88 L995.32 1777.97 L1026.88 1668.45 L1058.31 1748.39 L1089.74 1585.66 L1121.17 1686.27 L1152.73 2112.23 L1184.16 1556.08 L1215.60 1736.51 L1247.03 1763.12 L1278.59 1736.51 L1310.02 1934.77 L1341.45 2029.44 L1372.88 1840.10 L1404.44 1588.63 L1435.87 1825.25 L1467.30 1698.03 L1498.74 1544.20 L1530.29 1606.33 L1561.72 1946.65 L1593.16 1931.80 L1624.59 2020.53 L1656.15 1396.31 L1687.58 1204.00 L1719.01 2115.20 L1750.57 1846.04 L1782.00 1813.49 L1813.43 2150.72 L1844.87 1718.82 L1876.42 1822.40 L1907.85 2248.36 L1939.29 1547.17 L1970.72 1387.40 L2002.28 1597.54 L2033.71 1961.38 L2065.14 2070.90 L2096.57 1570.81 L2128.13 1701.00 L2159.56 1990.95 L2190.99 1322.31 L2222.43 1535.41 L2253.98 1360.80 L2285.41 1461.41 L2316.85 2002.83 L2348.28 1866.70 L2379.84 1733.54 L2411.27 1653.72 L2442.70 1940.71 L2474.13 1650.75 L2505.69 1754.33 L2537.12 1769.06 L2568.55 1641.84 L2599.99 1792.70 L2631.54 1949.62 L2662.98 1550.14 L2694.41 2023.50 L2725.84 1488.02 L2757.40 1641.84 L2788.83 2067.93 L2820.26 1851.98 L2851.70 1647.78 L2883.25 1692.21 L2914.68 1627.12 L2946.12 2002.83 L2977.55 1677.36 L3009.11 1917.07 L3040.54 1612.27 L3071.97 1553.11 L3103.40 2141.93 L3134.96 2097.50 L3166.39 1567.96 L3197.82 1757.30 L3229.26 2425.95 L3260.81 1647.78 L3292.24 1961.38 L3323.68 1834.16 L3355.11 1668.45 L3386.67 1976.23 L3418.10 1245.46 L3449.53 1721.79 L3480.96 2138.96 L3512.52 1801.61 L3543.95 1307.58 L3575.39 1961.38 L3606.82 2035.38 L3638.37 1857.79 L3669.81 1946.65 L3701.24 2091.56 L3732.67 2079.81 L3764.23 1550.14 L3795.66 1952.46" stroke-linejoin="round" style="fill:none;stroke:#FF0000;stroke-width:8.64"/>
	<line x1="617.39" y1="2489.19" x2="617.39" y2="100.86" style="stroke:#000000;stroke-width:5.76"/>
	<line x1="617.39" y1="2296.13" x2="577.42" y2="2296.13" style="stroke:#000000;stroke-width:5.76"/>
	<text x="557.49" y="2331.16" style="font-family:'Helvetica';font-size:99.99px;fill:#000000" text-anchor="end">-0.000</text>
	<line x1="617.39" y1="1763.12" x2="577.42" y2="1763.12" style="stroke:#000000;stroke-width:5.76"/>
	<text x="557.49" y="1798.15" style="font-family:'Helvetica';font-size:99.99px;fill:#000000" text-anchor="end">0.000</text>
	<line x1="617.39" y1="1230.11" x2="577.42" y2="1230.11" style="stroke:#000000;stroke-width:5.76"/>
	<text x="557.49" y="1265.14" style="font-family:'Helvetica';font-size:99.99px;fill:#000000" text-anchor="end">0.000</text>
	<line x1="617.39" y1="697.11" x2="577.42" y2="697.11" style="stroke:#000000;stroke-width:5.76"/>
	<text x="557.49" y="732.13" style="font-family:'Helvetica';font-size:99.99px;fill:#000000" text-anchor="end">0.000</text>
	<line x1="617.39" y1="164.22" x2="577.42" y2="164.22" style="stroke:#000000;stroke-width:5.76"/>
	<text x="557.49" y="199.25" style="font-family:'Helvetica';font-size:99.99px;fill:#000000" text-anchor="end">0.000</text>
	<text x="190.71" y="1294.96" style="font-family:'Helvetica';font-size:99.99px;fill:#000000" transform="rotate(-90 190.71,1294.96)" text-anchor="middle">Difference in S(t)</text>
	<line x1="617.39" y1="2489.19" x2="3859.02" y2="2489.19" style="stroke:#000000;stroke-width:5.76"/>
	<line x1="680.75" y1="2489.19" x2="680.75" y2="2529.16" style="stroke:#000000;stroke-width:5.76"/>
	<text x="680.75" y="2619.14" style="font-family:'Helvetica';font-size:99.99px;fill:#000000" text-anchor="middle">0</text>
	<line x1="1274.13" y1="2489.19" x2="1274.13" y2="2529.16" style="stroke:#000000;stroke-width:5.76"/>
	<text x="1274.13" y="2619.14" style="font-family:'Helvetica';font-size:99.99px;fill:#000000" text-anchor="middle">20</text>
	<line x1="1867.39" y1="2489.19" x2="1867.39" y2="2529.16" style="stroke:#000000;stroke-width:5.76"/>
	<text x="1867.39" y="2619.14" style="font-family:'Helvetica';font-size:99.99px;fill:#000000" text-anchor="middle">40</text>
	<line x1="2460.77" y1="2489.19" x2="2460.77" y2="2529.16" style="stroke:#000000;stroke-width:5.76"/>
	<text x="2460.77" y="2619.14" style="font-family:'Helvetica';font-size:99.99px;fill:#000000" text-anchor="middle">60</text>
	<line x1="3054.03" y1="2489.19" x2="3054.03" y2="2529.16" style="stroke:#000000;stroke-width:5.76"/>
	<text x="3054.03" y="2619.14" style="font-family:'Helvetica';font-size:99.99px;fill:#000000" text-anchor="middle">80</text>
	<line x1="3647.41" y1="2489.19" x2="3647.41" y2="2529.16" style="stroke:#000000;stroke-width:5.76"/>
	<text x="3647.41" y="2619.14" style="font-family:'Helvetica';font-size:99.99px;fill:#000000" text-anchor="middle">100</text>
	<text x="2238.27" y="2729.16" style="font-family:'Helvetica';font-size:99.99px;fill:#000000" text-anchor="middle">Days from 1 March 2020</text>
</svg>
