<?xml version="1.0" encoding="UTF-8" standalone="no"?>
<!-- This is a Stata 16.1 generated SVG file (http://www.stata.com) -->

<svg version="1.1" width="5.50in" height="4.00in" viewBox="0 0 3960 2880" xmlns="http://www.w3.org/2000/svg" xmlns:xlink="http://www.w3.org/1999/xlink">
	<desc>Stata Graph - Graph</desc>
	<rect x="0" y="0" width="3960" height="2880" style="fill:#EAF2F3;stroke:none"/>
	<rect x="0.00" y="0.00" width="3959.88" height="2880.00" style="fill:#FFFFFF"/>
	<rect x="2.88" y="2.88" width="3954.12" height="2874.24" style="fill:none;stroke:#EAF2F3;stroke-width:5.76"/>
	<rect x="1038.88" y="630.90" width="2802.94" height="1604.96" style="fill:#FFFFFF"/>
	<rect x="1041.76" y="633.78" width="2797.18" height="1599.20" style="fill:none;stroke:#FFFFFF;stroke-width:5.76"/>
	<line x1="1038.88" y1="2172.62" x2="3841.82" y2="2172.62" style="stroke:#EAF2F3;stroke-width:8.64"/>
	<line x1="1038.88" y1="1876.85" x2="3841.82" y2="1876.85" style="stroke:#EAF2F3;stroke-width:8.64"/>
	<line x1="1038.88" y1="1581.20" x2="3841.82" y2="1581.20" style="stroke:#EAF2F3;stroke-width:8.64"/>
	<line x1="1038.88" y1="1285.56" x2="3841.82" y2="1285.56" style="stroke:#EAF2F3;stroke-width:8.64"/>
	<line x1="1038.88" y1="989.91" x2="3841.82" y2="989.91" style="stroke:#EAF2F3;stroke-width:8.64"/>
	<path d=" M1102.24 2172.62 L1102.24 2172.62 L1102.24 2172.62 L1102.24 2172.62 L1102.24 2172.62 L1126.62 2172.62 L1126.62 2172.38 L1150.88 2172.38 L1150.88 2172.38 L1175.25 2172.38 L1175.25 2172.38 L1199.51 2172.38 L1199.51 2172.38 L1223.89 2172.38 L1223.89 2172.38 L1248.27 2172.38 L1248.27 2172.38 L1272.52 2172.38 L1272.52 2172.38 L1296.90 2172.38 L1296.90 2172.38 L1321.15 2172.38 L1321.15 2172.38 L1345.53 2172.38 L1345.53 2172.38 L1369.79 2172.38 L1369.79 2172.38 L1394.17 2172.38 L1394.17 2172.38 L1418.55 2172.38 L1418.55 2172.38 L1442.80 2172.38 L1442.80 2172.38 L1467.18 2172.38 L1467.18 2172.25 L1491.43 2172.25 L1491.43 2172.00 L1515.81 2172.00 L1515.81 2171.63 L1540.19 2171.63 L1540.19 2171.63 L1564.45 2171.63 L1564.45 2171.51 L1588.83 2171.51 L1588.83 2170.52 L1613.08 2170.52 L1613.08 2169.53 L1637.46 2169.53 L1637.46 2168.54 L1661.84 2168.54 L1661.84 2166.19 L1686.09 2166.19 L1686.09 2164.33 L1710.47 2164.33 L1710.47 2161.11 L1734.73 2161.11 L1734.73 2157.65 L1759.11 2157.65 L1759.11 2154.55 L1783.48 2154.55 L1783.48 2150.47 L1807.74 2150.47 L1807.74 2144.41 L1832.12 2144.41 L1832.12 2138.84 L1856.37 2138.84 L1856.37 2131.04 L1880.75 2131.04 L1880.75 2124.61 L1905.13 2124.61 L1905.13 2113.47 L1929.39 2113.47 L1929.39 2102.33 L1953.77 2102.33 L1953.77 2091.69 L1978.02 2091.69 L1978.02 2083.89 L2002.40 2083.89 L2002.40 2072.13 L2026.78 2072.13 L2026.78 2058.15 L2051.03 2058.15 L2051.03 2048.37 L2075.41 2048.37 L2075.41 2034.88 L2099.67 2034.88 L2099.67 2023.99 L2124.05 2023.99 L2124.05 2012.11 L2148.30 2012.11 L2148.30 2002.71 L2172.68 2002.71 L2172.68 1991.94 L2197.06 1991.94 L2197.06 1982.54 L2221.31 1982.54 L2221.31 1973.01 L2245.69 1973.01 L2245.69 1961.25 L2269.95 1961.25 L2269.95 1951.10 L2294.32 1951.10 L2294.32 1940.34 L2318.70 1940.34 L2318.70 1930.19 L2342.96 1930.19 L2342.96 1921.77 L2367.34 1921.77 L2367.34 1911.75 L2391.59 1911.75 L2391.59 1903.21 L2415.97 1903.21 L2415.97 1896.53 L2440.35 1896.53 L2440.35 1889.23 L2464.61 1889.23 L2464.61 1880.44 L2488.98 1880.44 L2488.98 1873.01 L2513.24 1873.01 L2513.24 1863.86 L2537.62 1863.86 L2537.62 1856.18 L2562.00 1856.18 L2562.00 1849.63 L2586.25 1849.63 L2586.25 1841.83 L2610.63 1841.83 L2610.63 1834.90 L2634.89 1834.90 L2634.89 1826.48 L2659.26 1826.48 L2659.26 1820.17 L2683.64 1820.17 L2683.64 1814.97 L2707.90 1814.97 L2707.90 1809.41 L2732.28 1809.41 L2732.28 1805.07 L2756.53 1805.07 L2756.53 1800.12 L2780.91 1800.12 L2780.91 1794.06 L2805.16 1794.06 L2805.16 1790.72 L2829.54 1790.72 L2829.54 1785.40 L2853.92 1785.40 L2853.92 1782.30 L2878.18 1782.30 L2878.18 1777.11 L2902.56 1777.11 L2902.56 1774.01 L2926.81 1774.01 L2926.81 1769.80 L2951.19 1769.80 L2951.19 1765.35 L2975.57 1765.35 L2975.57 1762.01 L2999.82 1762.01 L2999.82 1757.06 L3024.20 1757.06 L3024.20 1753.72 L3048.46 1753.72 L3048.46 1749.76 L3072.84 1749.76 L3072.84 1745.80 L3097.22 1745.80 L3097.22 1742.83 L3121.47 1742.83 L3121.47 1738.49 L3145.85 1738.49 L3145.85 1735.65 L3170.10 1735.65 L3170.10 1731.19 L3194.48 1731.19 L3194.48 1726.61 L3218.86 1726.61 L3218.86 1724.26 L3243.12 1724.26 L3243.12 1721.29 L3267.49 1721.29 L3267.49 1719.31 L3291.75 1719.31 L3291.75 1717.95 L3316.13 1717.95 L3316.13 1716.34 L3340.51 1716.34 L3340.51 1714.11 L3364.76 1714.11 L3364.76 1713.12 L3389.14 1713.12 L3389.14 1710.77 L3413.40 1710.77 L3413.40 1708.42 L3437.78 1708.42 L3437.78 1706.81 L3462.15 1706.81 L3462.15 1705.45 L3486.41 1705.45 L3486.41 1703.47 L3510.79 1703.47 L3510.79 1702.11 L3535.04 1702.11 L3535.04 1700.50 L3559.42 1700.50 L3559.42 1699.02 L3583.68 1699.02 L3583.68 1697.28 L3608.05 1697.28 L3608.05 1696.54 L3632.43 1696.54 L3632.43 1695.55 L3656.69 1695.55 L3656.69 1694.56" stroke-linejoin="round" style="fill:none;stroke:#1A476F;stroke-width:8.64"/>
	<path d=" M1102.24 2172.62 L1102.24 2172.62 L1102.24 2172.62 L1102.24 2172.62 L1102.24 2172.62 L1199.51 2172.62 L1199.51 2172.62 L1491.43 2172.62 L1491.43 2172.62 L1515.81 2172.62 L1515.81 2172.62 L1588.83 2172.62 L1588.83 2172.62 L1637.46 2172.62 L1637.46 2172.62 L1661.84 2172.62 L1661.84 2172.62 L1686.09 2172.62 L1686.09 2172.62 L1832.12 2172.62 L1832.12 2172.62 L1856.37 2172.62 L1856.37 2172.62 L1905.13 2172.62 L1905.13 2148.99 L1953.77 2148.99 L1953.77 2148.99 L2026.78 2148.99 L2026.78 2148.99 L2269.95 2148.99 L2269.95 2125.35 L2342.96 2125.35 L2342.96 2125.35 L2391.59 2125.35 L2391.59 2125.35 L2440.35 2125.35 L2440.35 2125.35 L2464.61 2125.35 L2464.61 2101.84 L2488.98 2101.84 L2488.98 2101.84 L2537.62 2101.84 L2537.62 2078.20 L2562.00 2078.20 L2562.00 2078.20 L2683.64 2078.20 L2683.64 2078.20 L2707.90 2078.20 L2707.90 2078.20 L2756.53 2078.20 L2756.53 2078.20 L2829.54 2078.20 L2829.54 2078.20 L2951.19 2078.20 L2951.19 2054.56 L2999.82 2054.56 L2999.82 2054.56 L3121.47 2054.56 L3121.47 2054.56 L3145.85 2054.56 L3145.85 2054.56 L3218.86 2054.56 L3218.86 2054.56 L3243.12 2054.56 L3243.12 2054.56 L3510.79 2054.56 L3510.79 2054.56 L3608.05 2054.56 L3608.05 2030.92 L3656.69 2030.92 L3656.69 2030.92" stroke-linejoin="round" style="fill:none;stroke:#90353B;stroke-width:8.64"/>
	<path d=" M1102.24 2172.62 L1102.24 2172.62 L1102.24 2172.62 L1102.24 2172.62 L1102.24 2172.62 L1126.62 2172.62 L1126.62 2172.62 L1150.88 2172.62 L1150.88 2172.62 L1175.25 2172.62 L1175.25 2172.62 L1199.51 2172.62 L1199.51 2172.62 L1223.89 2172.62 L1223.89 2172.62 L1248.27 2172.62 L1248.27 2172.62 L1272.52 2172.62 L1272.52 2172.62 L1296.90 2172.62 L1296.90 2172.62 L1321.15 2172.62 L1321.15 2172.62 L1345.53 2172.62 L1345.53 2172.62 L1369.79 2172.62 L1369.79 2172.62 L1394.17 2172.62 L1394.17 2172.62 L1418.55 2172.62 L1418.55 2172.62 L1442.80 2172.62 L1442.80 2172.62 L1467.18 2172.62 L1467.18 2172.62 L1491.43 2172.62 L1491.43 2172.62 L1515.81 2172.62 L1515.81 2172.62 L1540.19 2172.62 L1540.19 2172.62 L1564.45 2172.62 L1564.45 2172.62 L1588.83 2172.62 L1588.83 2172.62 L1613.08 2172.62 L1613.08 2170.77 L1637.46 2170.77 L1637.46 2169.03 L1661.84 2169.03 L1661.84 2167.18 L1686.09 2167.18 L1686.09 2165.32 L1710.47 2165.32 L1710.47 2165.32 L1734.73 2165.32 L1734.73 2165.32 L1759.11 2165.32 L1759.11 2165.32 L1783.48 2165.32 L1783.48 2165.32 L1807.74 2165.32 L1807.74 2159.88 L1832.12 2159.88 L1832.12 2158.14 L1856.37 2158.14 L1856.37 2150.84 L1880.75 2150.84 L1880.75 2148.99 L1905.13 2148.99 L1905.13 2143.54 L1929.39 2143.54 L1929.39 2139.95 L1953.77 2139.95 L1953.77 2134.51 L1978.02 2134.51 L1978.02 2130.92 L2002.40 2130.92 L2002.40 2121.76 L2026.78 2121.76 L2026.78 2116.31 L2051.03 2116.31 L2051.03 2103.69 L2075.41 2103.69 L2075.41 2094.53 L2099.67 2094.53 L2099.67 2090.95 L2124.05 2090.95 L2124.05 2080.06 L2148.30 2080.06 L2148.30 2076.47 L2172.68 2076.47 L2172.68 2074.61 L2197.06 2074.61 L2197.06 2071.02 L2221.31 2071.02 L2221.31 2069.16 L2245.69 2069.16 L2245.69 2065.58 L2269.95 2065.58 L2269.95 2063.72 L2294.32 2063.72 L2294.32 2056.42 L2318.70 2056.42 L2318.70 2049.24 L2342.96 2049.24 L2342.96 2043.80 L2367.34 2043.80 L2367.34 2043.80 L2391.59 2043.80 L2391.59 2040.08 L2415.97 2040.08 L2415.97 2036.49 L2440.35 2036.49 L2440.35 2034.64 L2464.61 2034.64 L2464.61 2031.05 L2488.98 2031.05 L2488.98 2022.01 L2513.24 2022.01 L2513.24 2016.57 L2537.62 2016.57 L2537.62 2014.71 L2562.00 2014.71 L2562.00 2012.86 L2610.63 2012.86 L2610.63 2012.86 L2634.89 2012.86 L2634.89 2011.12 L2659.26 2011.12 L2659.26 2007.41 L2683.64 2007.41 L2683.64 2000.23 L2707.90 2000.23 L2707.90 2000.23 L2732.28 2000.23 L2732.28 1998.38 L2756.53 1998.38 L2756.53 1998.38 L2780.91 1998.38 L2780.91 1994.66 L2805.16 1994.66 L2805.16 1994.66 L2829.54 1994.66 L2829.54 1994.66 L2853.92 1994.66 L2853.92 1989.22 L2878.18 1989.22 L2878.18 1987.49 L2902.56 1987.49 L2902.56 1985.63 L2926.81 1985.63 L2926.81 1985.63 L2951.19 1985.63 L2951.19 1985.63 L2975.57 1985.63 L2975.57 1983.77 L2999.82 1983.77 L2999.82 1980.19 L3024.20 1980.19 L3024.20 1980.19 L3048.46 1980.19 L3048.46 1976.60 L3072.84 1976.60 L3072.84 1976.60 L3097.22 1976.60 L3097.22 1976.60 L3121.47 1976.60 L3121.47 1976.60 L3145.85 1976.60 L3145.85 1976.60 L3170.10 1976.60 L3170.10 1974.74 L3194.48 1974.74 L3194.48 1972.88 L3218.86 1972.88 L3218.86 1972.88 L3243.12 1972.88 L3243.12 1972.88 L3267.49 1972.88 L3267.49 1972.88 L3291.75 1972.88 L3291.75 1972.88 L3316.13 1972.88 L3316.13 1972.88 L3340.51 1972.88 L3340.51 1971.15 L3364.76 1971.15 L3364.76 1971.15 L3389.14 1971.15 L3389.14 1967.44 L3437.78 1967.44 L3437.78 1965.71 L3462.15 1965.71 L3462.15 1963.85 L3486.41 1963.85 L3486.41 1963.85 L3510.79 1963.85 L3510.79 1963.85 L3535.04 1963.85 L3535.04 1963.85 L3559.42 1963.85 L3559.42 1963.85 L3583.68 1963.85 L3583.68 1963.85 L3608.05 1963.85 L3608.05 1961.99 L3632.43 1961.99 L3632.43 1961.99 L3656.69 1961.99 L3656.69 1960.26" stroke-linejoin="round" style="fill:none;stroke:#55752F;stroke-width:8.64"/>
	<line x1="1038.88" y1="2235.86" x2="1038.88" y2="630.90" style="stroke:#000000;stroke-width:5.76"/>
	<line x1="1038.88" y1="2172.62" x2="998.91" y2="2172.62" style="stroke:#000000;stroke-width:5.76"/>
	<text x="978.99" y="2200.63" style="font-family:'Helvetica';font-size:79.94px;fill:#000000" text-anchor="end">0.000</text>
	<line x1="1038.88" y1="1876.85" x2="998.91" y2="1876.85" style="stroke:#000000;stroke-width:5.76"/>
	<text x="978.99" y="1904.86" style="font-family:'Helvetica';font-size:79.94px;fill:#000000" text-anchor="end">0.001</text>
	<line x1="1038.88" y1="1581.20" x2="998.91" y2="1581.20" style="stroke:#000000;stroke-width:5.76"/>
	<text x="978.99" y="1609.21" style="font-family:'Helvetica';font-size:79.94px;fill:#000000" text-anchor="end">0.002</text>
	<line x1="1038.88" y1="1285.56" x2="998.91" y2="1285.56" style="stroke:#000000;stroke-width:5.76"/>
	<text x="978.99" y="1313.57" style="font-family:'Helvetica';font-size:79.94px;fill:#000000" text-anchor="end">0.003</text>
	<line x1="1038.88" y1="989.91" x2="998.91" y2="989.91" style="stroke:#000000;stroke-width:5.76"/>
	<text x="978.99" y="1017.92" style="font-family:'Helvetica';font-size:79.94px;fill:#000000" text-anchor="end">0.004</text>
	<line x1="1038.88" y1="694.26" x2="998.91" y2="694.26" style="stroke:#000000;stroke-width:5.76"/>
	<text x="978.99" y="722.27" style="font-family:'Helvetica';font-size:79.94px;fill:#000000" text-anchor="end">0.005</text>
	<text x="1102.24" y="2747.83" style="font-family:'Helvetica';font-size:60.02px;fill:#000000" text-anchor="middle">163093</text>
	<text x="1588.83" y="2747.83" style="font-family:'Helvetica';font-size:60.02px;fill:#000000" text-anchor="middle">162995</text>
	<text x="2075.41" y="2747.83" style="font-family:'Helvetica';font-size:60.02px;fill:#000000" text-anchor="middle">162855</text>
	<text x="2562.00" y="2747.83" style="font-family:'Helvetica';font-size:60.02px;fill:#000000" text-anchor="middle">162714</text>
	<text x="3048.58" y="2747.83" style="font-family:'Helvetica';font-size:60.02px;fill:#000000" text-anchor="middle">162629</text>
	<text x="3535.17" y="2747.83" style="font-family:'Helvetica';font-size:60.02px;fill:#000000" text-anchor="middle">162545</text>
	<text x="968.47" y="2747.83" style="font-family:'Helvetica';font-size:60.02px;fill:#000000" text-anchor="end">Other specific NSAIDs</text>
	<text x="1102.24" y="2674.44" style="font-family:'Helvetica';font-size:60.02px;fill:#000000" text-anchor="middle">12538</text>
	<text x="1588.83" y="2674.44" style="font-family:'Helvetica';font-size:60.02px;fill:#000000" text-anchor="middle">12535</text>
	<text x="2075.41" y="2674.44" style="font-family:'Helvetica';font-size:60.02px;fill:#000000" text-anchor="middle">12521</text>
	<text x="2562.00" y="2674.44" style="font-family:'Helvetica';font-size:60.02px;fill:#000000" text-anchor="middle">12512</text>
	<text x="3048.58" y="2674.44" style="font-family:'Helvetica';font-size:60.02px;fill:#000000" text-anchor="middle">12505</text>
	<text x="3535.17" y="2674.44" style="font-family:'Helvetica';font-size:60.02px;fill:#000000" text-anchor="middle">12499</text>
	<text x="968.47" y="2674.44" style="font-family:'Helvetica';font-size:60.02px;fill:#000000" text-anchor="end">Cox-2 specific NSAIDs</text>
	<text x="1102.24" y="2601.18" style="font-family:'Helvetica';font-size:60.02px;fill:#000000" text-anchor="middle">1535421</text>
	<text x="1588.83" y="2601.18" style="font-family:'Helvetica';font-size:60.02px;fill:#000000" text-anchor="middle">1522867</text>
	<text x="2075.41" y="2601.18" style="font-family:'Helvetica';font-size:60.02px;fill:#000000" text-anchor="middle">1514566</text>
	<text x="2562.00" y="2601.18" style="font-family:'Helvetica';font-size:60.02px;fill:#000000" text-anchor="middle">1505264</text>
	<text x="3048.58" y="2601.18" style="font-family:'Helvetica';font-size:60.02px;fill:#000000" text-anchor="middle">1495945</text>
	<text x="3535.17" y="2601.18" style="font-family:'Helvetica';font-size:60.02px;fill:#000000" text-anchor="middle">1486965</text>
	<text x="968.47" y="2601.18" style="font-family:'Helvetica';font-size:60.02px;fill:#000000" text-anchor="end">Non-current exposure to NSAIDs</text>
	<text x="968.47" y="2527.80" style="font-family:'Helvetica';font-size:60.02px;fill:#000000" text-anchor="end">Number at risk</text>
	<line x1="1038.88" y1="2235.86" x2="3841.82" y2="2235.86" style="stroke:#000000;stroke-width:5.76"/>
	<line x1="1102.24" y1="2235.86" x2="1102.24" y2="2275.96" style="stroke:#000000;stroke-width:5.76"/>
	<text x="1102.24" y="2351.78" style="font-family:'Helvetica';font-size:79.94px;fill:#000000" text-anchor="middle">0</text>
	<line x1="1588.83" y1="2235.86" x2="1588.83" y2="2275.96" style="stroke:#000000;stroke-width:5.76"/>
	<text x="1588.83" y="2351.78" style="font-family:'Helvetica';font-size:79.94px;fill:#000000" text-anchor="middle">20</text>
	<line x1="2075.41" y1="2235.86" x2="2075.41" y2="2275.96" style="stroke:#000000;stroke-width:5.76"/>
	<text x="2075.41" y="2351.78" style="font-family:'Helvetica';font-size:79.94px;fill:#000000" text-anchor="middle">40</text>
	<line x1="2562.00" y1="2235.86" x2="2562.00" y2="2275.96" style="stroke:#000000;stroke-width:5.76"/>
	<text x="2562.00" y="2351.78" style="font-family:'Helvetica';font-size:79.94px;fill:#000000" text-anchor="middle">60</text>
	<line x1="3048.58" y1="2235.86" x2="3048.58" y2="2275.96" style="stroke:#000000;stroke-width:5.76"/>
	<text x="3048.58" y="2351.78" style="font-family:'Helvetica';font-size:79.94px;fill:#000000" text-anchor="middle">80</text>
	<line x1="3535.17" y1="2235.86" x2="3535.17" y2="2275.96" style="stroke:#000000;stroke-width:5.76"/>
	<text x="3535.17" y="2351.78" style="font-family:'Helvetica';font-size:79.94px;fill:#000000" text-anchor="middle">100</text>
	<text x="2440.35" y="2441.87" style="font-family:'Helvetica';font-size:79.94px;fill:#000000" text-anchor="middle">Days since 1 Mar 2020</text>
	<rect x="1126.37" y="269.91" width="2628.08" height="326.46" style="fill:#FFFFFF"/>
	<rect x="1129.25" y="272.79" width="2622.32" height="320.70" style="fill:none;stroke:#EAF2F3;stroke-width:5.76"/>
	<line x1="1169.56" y1="363.09" x2="1543.90" y2="363.09" style="stroke:#1A476F;stroke-width:8.64"/>
	<line x1="2650.35" y1="363.09" x2="3024.70" y2="363.09" style="stroke:#90353B;stroke-width:8.64"/>
	<line x1="1169.56" y1="503.06" x2="1543.90" y2="503.06" style="stroke:#55752F;stroke-width:8.64"/>
	<text x="1603.92" y="384.13" style="font-family:'Helvetica';font-size:60.02px;fill:#000000">Non-current exposure to NSAIDs</text>
	<text x="3084.72" y="384.13" style="font-family:'Helvetica';font-size:60.02px;fill:#000000">Cox-2 specific NSAIDs</text>
	<text x="1603.92" y="524.10" style="font-family:'Helvetica';font-size:60.02px;fill:#000000">Other specific NSAIDs</text>
	<text x="1056.21" y="187.99" style="font-family:'Helvetica';font-size:99.99px;fill:#1E2D53">Time to death, Rheumatoid_arthritis_&amp;_osteoarthritis population</text>
</svg>
