<?xml version="1.0" encoding="UTF-8" standalone="no"?>
<!-- This is a Stata 16.1 generated SVG file (http://www.stata.com) -->

<svg version="1.1" width="5.50in" height="4.00in" viewBox="0 0 3960 2880" xmlns="http://www.w3.org/2000/svg" xmlns:xlink="http://www.w3.org/1999/xlink">
	<desc>Stata Graph - Graph</desc>
	<rect x="0" y="0" width="3960" height="2880" style="fill:#EAF2F3;stroke:none"/>
	<rect x="0.00" y="0.00" width="3959.88" height="2880.00" style="fill:#FFFFFF"/>
	<rect x="2.88" y="2.88" width="3954.12" height="2874.24" style="fill:none;stroke:#EAF2F3;stroke-width:5.76"/>
	<rect x="1038.88" y="630.90" width="2802.94" height="1531.70" style="fill:#FFFFFF"/>
	<rect x="1041.76" y="633.78" width="2797.18" height="1525.94" style="fill:none;stroke:#FFFFFF;stroke-width:5.76"/>
	<line x1="1038.88" y1="2099.24" x2="3841.82" y2="2099.24" style="stroke:#EAF2F3;stroke-width:8.64"/>
	<line x1="1038.88" y1="1818.19" x2="3841.82" y2="1818.19" style="stroke:#EAF2F3;stroke-width:8.64"/>
	<line x1="1038.88" y1="1537.27" x2="3841.82" y2="1537.27" style="stroke:#EAF2F3;stroke-width:8.64"/>
	<line x1="1038.88" y1="1256.23" x2="3841.82" y2="1256.23" style="stroke:#EAF2F3;stroke-width:8.64"/>
	<line x1="1038.88" y1="975.18" x2="3841.82" y2="975.18" style="stroke:#EAF2F3;stroke-width:8.64"/>
	<path d=" M1102.24 2099.24 L1102.24 2099.24 L1102.24 2099.24 L1102.24 2099.24 L1102.24 2099.24 L1102.24 2099.24 L1102.24 2099.24 L1126.62 2099.24 L1126.62 2099.11 L1150.88 2099.11 L1150.88 2099.11 L1175.25 2099.11 L1175.25 2099.11 L1199.51 2099.11 L1199.51 2099.11 L1223.89 2099.11 L1223.89 2099.11 L1248.27 2099.11 L1248.27 2099.11 L1272.52 2099.11 L1272.52 2099.11 L1296.90 2099.11 L1296.90 2099.11 L1321.15 2099.11 L1321.15 2099.11 L1345.53 2099.11 L1345.53 2099.11 L1369.79 2099.11 L1369.79 2099.11 L1394.17 2099.11 L1394.17 2099.11 L1418.55 2099.11 L1418.55 2099.11 L1442.80 2099.11 L1442.80 2099.11 L1467.18 2099.11 L1467.18 2098.87 L1491.43 2098.87 L1491.43 2098.74 L1515.81 2098.74 L1515.81 2098.37 L1540.19 2098.37 L1540.19 2098.37 L1564.45 2098.37 L1564.45 2098.25 L1588.83 2098.25 L1588.83 2097.26 L1613.08 2097.26 L1613.08 2096.39 L1637.46 2096.39 L1637.46 2095.40 L1661.84 2095.40 L1661.84 2093.17 L1686.09 2093.17 L1686.09 2091.32 L1710.47 2091.32 L1710.47 2088.35 L1734.73 2088.35 L1734.73 2085.13 L1759.11 2085.13 L1759.11 2082.16 L1783.48 2082.16 L1783.48 2078.20 L1807.74 2078.20 L1807.74 2072.51 L1832.12 2072.51 L1832.12 2067.18 L1856.37 2067.18 L1856.37 2059.76 L1880.75 2059.76 L1880.75 2053.57 L1905.13 2053.57 L1905.13 2043.05 L1929.39 2043.05 L1929.39 2032.53 L1953.77 2032.53 L1953.77 2022.39 L1978.02 2022.39 L1978.02 2014.96 L2002.40 2014.96 L2002.40 2003.82 L2026.78 2003.82 L2026.78 1990.46 L2051.03 1990.46 L2051.03 1981.18 L2075.41 1981.18 L2075.41 1968.43 L2099.67 1968.43 L2099.67 1958.03 L2124.05 1958.03 L2124.05 1946.65 L2148.30 1946.65 L2148.30 1937.74 L2172.68 1937.74 L2172.68 1927.59 L2197.06 1927.59 L2197.06 1918.68 L2221.31 1918.68 L2221.31 1909.52 L2245.69 1909.52 L2245.69 1898.38 L2269.95 1898.38 L2269.95 1888.73 L2294.32 1888.73 L2294.32 1878.58 L2318.70 1878.58 L2318.70 1868.93 L2342.96 1868.93 L2342.96 1860.89 L2367.34 1860.89 L2367.34 1851.36 L2391.59 1851.36 L2391.59 1843.19 L2415.97 1843.19 L2415.97 1836.88 L2440.35 1836.88 L2440.35 1829.95 L2464.61 1829.95 L2464.61 1821.66 L2488.98 1821.66 L2488.98 1814.48 L2513.24 1814.48 L2513.24 1805.82 L2537.62 1805.82 L2537.62 1798.51 L2562.00 1798.51 L2562.00 1792.33 L2586.25 1792.33 L2586.25 1784.90 L2610.63 1784.90 L2610.63 1778.34 L2634.89 1778.34 L2634.89 1770.30 L2659.26 1770.30 L2659.26 1764.36 L2683.64 1764.36 L2683.64 1759.28 L2707.90 1759.28 L2707.90 1754.09 L2732.28 1754.09 L2732.28 1750.00 L2756.53 1750.00 L2756.53 1745.30 L2780.91 1745.30 L2780.91 1739.48 L2805.16 1739.48 L2805.16 1736.39 L2829.54 1736.39 L2829.54 1731.32 L2853.92 1731.32 L2853.92 1728.35 L2878.18 1728.35 L2878.18 1723.40 L2902.56 1723.40 L2902.56 1720.43 L2926.81 1720.43 L2926.81 1716.47 L2951.19 1716.47 L2951.19 1712.13 L2975.57 1712.13 L2975.57 1709.04 L2999.82 1709.04 L2999.82 1704.34 L3024.20 1704.34 L3024.20 1701.12 L3048.46 1701.12 L3048.46 1697.41 L3072.84 1697.41 L3072.84 1693.57 L3097.22 1693.57 L3097.22 1690.85 L3121.47 1690.85 L3121.47 1686.64 L3145.85 1686.64 L3145.85 1684.04 L3170.10 1684.04 L3170.10 1679.71 L3194.48 1679.71 L3194.48 1675.38 L3218.86 1675.38 L3218.86 1673.15 L3243.12 1673.15 L3243.12 1670.31 L3267.49 1670.31 L3267.49 1668.45 L3291.75 1668.45 L3291.75 1667.09 L3316.13 1667.09 L3316.13 1665.60 L3340.51 1665.60 L3340.51 1663.50 L3364.76 1663.50 L3364.76 1662.63 L3389.14 1662.63 L3389.14 1660.41 L3413.40 1660.41 L3413.40 1658.05 L3437.78 1658.05 L3437.78 1656.57 L3462.15 1656.57 L3462.15 1655.21 L3486.41 1655.21 L3486.41 1653.35 L3510.79 1653.35 L3510.79 1652.11 L3535.04 1652.11 L3535.04 1650.51 L3559.42 1650.51 L3559.42 1649.27 L3583.68 1649.27 L3583.68 1647.54 L3608.05 1647.54 L3608.05 1646.79 L3632.43 1646.79 L3632.43 1645.80 L3656.69 1645.80 L3656.69 1644.94" stroke-linejoin="round" style="fill:none;stroke:#1A476F;stroke-width:8.64"/>
	<path d=" M1102.24 2099.24 L1102.24 2099.24 L1102.24 2099.24 L1102.24 2099.24 L1102.24 2099.24 L1102.24 2099.24 L1102.24 2099.24 L1126.62 2099.24 L1126.62 2099.24 L1150.88 2099.24 L1150.88 2099.24 L1223.89 2099.24 L1223.89 2099.24 L1321.15 2099.24 L1321.15 2099.24 L1369.79 2099.24 L1369.79 2099.24 L1394.17 2099.24 L1394.17 2099.24 L1418.55 2099.24 L1418.55 2099.24 L1442.80 2099.24 L1442.80 2099.24 L1467.18 2099.24 L1467.18 2099.24 L1491.43 2099.24 L1491.43 2099.24 L1515.81 2099.24 L1515.81 2099.24 L1540.19 2099.24 L1540.19 2099.24 L1564.45 2099.24 L1564.45 2099.24 L1613.08 2099.24 L1613.08 2099.24 L1661.84 2099.24 L1661.84 2091.56 L1710.47 2091.56 L1710.47 2091.56 L1734.73 2091.56 L1734.73 2091.56 L1783.48 2091.56 L1783.48 2091.56 L1807.74 2091.56 L1807.74 2083.77 L1832.12 2083.77 L1832.12 2083.77 L1856.37 2083.77 L1856.37 2075.97 L1880.75 2075.97 L1880.75 2075.97 L1905.13 2075.97 L1905.13 2068.17 L1929.39 2068.17 L1929.39 2068.17 L1953.77 2068.17 L1953.77 2060.38 L1978.02 2060.38 L1978.02 2060.38 L2002.40 2060.38 L2002.40 2044.79 L2026.78 2044.79 L2026.78 2036.99 L2051.03 2036.99 L2051.03 2036.99 L2075.41 2036.99 L2075.41 2021.40 L2099.67 2021.40 L2099.67 2013.60 L2124.05 2013.60 L2124.05 2005.80 L2148.30 2005.80 L2148.30 1998.01 L2172.68 1998.01 L2172.68 1998.01 L2197.06 1998.01 L2197.06 1998.01 L2221.31 1998.01 L2221.31 1998.01 L2245.69 1998.01 L2245.69 1990.21 L2294.32 1990.21 L2294.32 1982.54 L2342.96 1982.54 L2342.96 1982.54 L2391.59 1982.54 L2391.59 1974.74 L2440.35 1974.74 L2440.35 1974.74 L2464.61 1974.74 L2464.61 1974.74 L2488.98 1974.74 L2488.98 1966.94 L2513.24 1966.94 L2513.24 1966.94 L2537.62 1966.94 L2537.62 1966.94 L2562.00 1966.94 L2562.00 1959.15 L2610.63 1959.15 L2610.63 1959.15 L2634.89 1959.15 L2634.89 1959.15 L2683.64 1959.15 L2683.64 1935.76 L2707.90 1935.76 L2707.90 1935.76 L2732.28 1935.76 L2732.28 1935.76 L2756.53 1935.76 L2756.53 1935.76 L2780.91 1935.76 L2780.91 1927.96 L2829.54 1927.96 L2829.54 1927.96 L2853.92 1927.96 L2853.92 1920.17 L2878.18 1920.17 L2878.18 1920.17 L2926.81 1920.17 L2926.81 1920.17 L2975.57 1920.17 L2975.57 1912.37 L3072.84 1912.37 L3072.84 1912.37 L3121.47 1912.37 L3121.47 1912.37 L3170.10 1912.37 L3170.10 1912.37 L3194.48 1912.37 L3194.48 1904.57 L3218.86 1904.57 L3218.86 1904.57 L3267.49 1904.57 L3267.49 1904.57 L3316.13 1904.57 L3316.13 1904.57 L3364.76 1904.57 L3364.76 1904.57 L3389.14 1904.57 L3389.14 1904.57 L3437.78 1904.57 L3437.78 1904.57 L3462.15 1904.57 L3462.15 1904.57 L3559.42 1904.57 L3559.42 1904.57 L3608.05 1904.57 L3608.05 1896.78 L3632.43 1896.78 L3632.43 1896.78 L3656.69 1896.78 L3656.69 1888.98" stroke-linejoin="round" style="fill:none;stroke:#90353B;stroke-width:8.64"/>
	<path d=" M1102.24 2099.24 L1102.24 2099.24 L1102.24 2099.24 L1102.24 2099.24 L1102.24 2099.24 L1102.24 2099.24 L1102.24 2099.24 L1126.62 2099.24 L1126.62 2099.24 L1150.88 2099.24 L1150.88 2099.24 L1175.25 2099.24 L1175.25 2099.24 L1199.51 2099.24 L1199.51 2099.24 L1223.89 2099.24 L1223.89 2099.24 L1248.27 2099.24 L1248.27 2099.24 L1296.90 2099.24 L1296.90 2099.24 L1321.15 2099.24 L1321.15 2099.24 L1345.53 2099.24 L1345.53 2099.24 L1369.79 2099.24 L1369.79 2099.24 L1394.17 2099.24 L1394.17 2099.24 L1418.55 2099.24 L1418.55 2099.24 L1491.43 2099.24 L1491.43 2099.24 L1540.19 2099.24 L1540.19 2099.24 L1564.45 2099.24 L1564.45 2099.24 L1588.83 2099.24 L1588.83 2099.24 L1613.08 2099.24 L1613.08 2095.90 L1637.46 2095.90 L1637.46 2092.43 L1661.84 2092.43 L1661.84 2092.43 L1686.09 2092.43 L1686.09 2089.09 L1710.47 2089.09 L1710.47 2089.09 L1734.73 2089.09 L1734.73 2089.09 L1783.48 2089.09 L1783.48 2089.09 L1807.74 2089.09 L1807.74 2082.28 L1832.12 2082.28 L1832.12 2082.28 L1856.37 2082.28 L1856.37 2082.28 L1880.75 2082.28 L1880.75 2078.82 L1905.13 2078.82 L1905.13 2078.82 L1929.39 2078.82 L1929.39 2078.82 L1953.77 2078.82 L1953.77 2075.48 L1978.02 2075.48 L1978.02 2072.01 L2002.40 2072.01 L2002.40 2068.55 L2026.78 2068.55 L2026.78 2065.20 L2051.03 2065.20 L2051.03 2054.93 L2075.41 2054.93 L2075.41 2044.66 L2099.67 2044.66 L2099.67 2041.32 L2124.05 2041.32 L2124.05 2037.85 L2148.30 2037.85 L2148.30 2034.51 L2172.68 2034.51 L2172.68 2031.05 L2197.06 2031.05 L2197.06 2031.05 L2221.31 2031.05 L2221.31 2027.71 L2269.95 2027.71 L2269.95 2024.24 L2294.32 2024.24 L2294.32 2017.44 L2318.70 2017.44 L2318.70 2003.82 L2342.96 2003.82 L2342.96 1996.89 L2367.34 1996.89 L2367.34 1996.89 L2391.59 1996.89 L2391.59 1996.89 L2415.97 1996.89 L2415.97 1993.55 L2440.35 1993.55 L2440.35 1990.09 L2464.61 1990.09 L2464.61 1986.74 L2488.98 1986.74 L2488.98 1986.74 L2513.24 1986.74 L2513.24 1983.28 L2537.62 1983.28 L2537.62 1983.28 L2562.00 1983.28 L2562.00 1983.28 L2610.63 1983.28 L2610.63 1983.28 L2634.89 1983.28 L2634.89 1979.81 L2659.26 1979.81 L2659.26 1976.47 L2683.64 1976.47 L2683.64 1973.01 L2707.90 1973.01 L2707.90 1973.01 L2732.28 1973.01 L2732.28 1969.67 L2780.91 1969.67 L2780.91 1966.20 L2829.54 1966.20 L2829.54 1966.20 L2853.92 1966.20 L2853.92 1966.20 L2878.18 1966.20 L2878.18 1966.20 L2902.56 1966.20 L2902.56 1962.86 L2926.81 1962.86 L2926.81 1962.86 L2951.19 1962.86 L2951.19 1962.86 L2975.57 1962.86 L2975.57 1962.86 L2999.82 1962.86 L2999.82 1959.39 L3024.20 1959.39 L3024.20 1959.39 L3048.46 1959.39 L3048.46 1955.93 L3072.84 1955.93 L3072.84 1955.93 L3121.47 1955.93 L3121.47 1955.93 L3145.85 1955.93 L3145.85 1955.93 L3170.10 1955.93 L3170.10 1952.59 L3194.48 1952.59 L3194.48 1952.59 L3218.86 1952.59 L3218.86 1952.59 L3243.12 1952.59 L3243.12 1952.59 L3267.49 1952.59 L3267.49 1952.59 L3316.13 1952.59 L3316.13 1952.59 L3340.51 1952.59 L3340.51 1952.59 L3364.76 1952.59 L3364.76 1952.59 L3389.14 1952.59 L3389.14 1949.12 L3437.78 1949.12 L3437.78 1949.12 L3462.15 1949.12 L3462.15 1945.78 L3486.41 1945.78 L3486.41 1945.78 L3510.79 1945.78 L3510.79 1945.78 L3535.04 1945.78 L3535.04 1945.78 L3559.42 1945.78 L3559.42 1945.78 L3583.68 1945.78 L3583.68 1945.78 L3656.69 1945.78 L3656.69 1945.78" stroke-linejoin="round" style="fill:none;stroke:#55752F;stroke-width:8.64"/>
	<path d=" M1102.24 2099.24 L1102.24 2099.24 L1102.24 2099.24 L1102.24 2099.24 L1102.24 2099.24 L1102.24 2099.24 L1102.24 2099.24 L1126.62 2099.24 L1126.62 2099.24 L1150.88 2099.24 L1150.88 2099.24 L1199.51 2099.24 L1199.51 2099.24 L1223.89 2099.24 L1223.89 2099.24 L1248.27 2099.24 L1248.27 2099.24 L1272.52 2099.24 L1272.52 2099.24 L1296.90 2099.24 L1296.90 2099.24 L1321.15 2099.24 L1321.15 2099.24 L1345.53 2099.24 L1345.53 2099.24 L1369.79 2099.24 L1369.79 2099.24 L1418.55 2099.24 L1418.55 2099.24 L1442.80 2099.24 L1442.80 2099.24 L1467.18 2099.24 L1467.18 2099.24 L1491.43 2099.24 L1491.43 2099.24 L1515.81 2099.24 L1515.81 2099.24 L1540.19 2099.24 L1540.19 2099.24 L1564.45 2099.24 L1564.45 2099.24 L1588.83 2099.24 L1588.83 2099.24 L1613.08 2099.24 L1613.08 2099.24 L1637.46 2099.24 L1637.46 2099.24 L1661.84 2099.24 L1661.84 2099.24 L1686.09 2099.24 L1686.09 2099.24 L1710.47 2099.24 L1710.47 2099.24 L1734.73 2099.24 L1734.73 2099.24 L1759.11 2099.24 L1759.11 2099.24 L1807.74 2099.24 L1807.74 2099.24 L1832.12 2099.24 L1832.12 2094.41 L1856.37 2094.41 L1856.37 2079.56 L1880.75 2079.56 L1880.75 2079.56 L1905.13 2079.56 L1905.13 2064.83 L1929.39 2064.83 L1929.39 2054.93 L1953.77 2054.93 L1953.77 2049.98 L1978.02 2049.98 L1978.02 2045.03 L2002.40 2045.03 L2002.40 2035.26 L2026.78 2035.26 L2026.78 2030.31 L2051.03 2030.31 L2051.03 2010.51 L2099.67 2010.51 L2099.67 2010.51 L2124.05 2010.51 L2124.05 1990.83 L2148.30 1990.83 L2148.30 1990.83 L2172.68 1990.83 L2172.68 1990.83 L2197.06 1990.83 L2197.06 1980.93 L2221.31 1980.93 L2221.31 1980.93 L2245.69 1980.93 L2245.69 1975.98 L2269.95 1975.98 L2269.95 1971.03 L2294.32 1971.03 L2294.32 1966.20 L2318.70 1966.20 L2318.70 1966.20 L2342.96 1966.20 L2342.96 1961.25 L2367.34 1961.25 L2367.34 1961.25 L2391.59 1961.25 L2391.59 1956.30 L2415.97 1956.30 L2415.97 1951.35 L2440.35 1951.35 L2440.35 1951.35 L2464.61 1951.35 L2464.61 1941.45 L2488.98 1941.45 L2488.98 1921.77 L2513.24 1921.77 L2513.24 1911.87 L2537.62 1911.87 L2537.62 1901.97 L2562.00 1901.97 L2562.00 1901.97 L2610.63 1901.97 L2610.63 1901.97 L2634.89 1901.97 L2634.89 1901.97 L2659.26 1901.97 L2659.26 1897.02 L2683.64 1897.02 L2683.64 1897.02 L2707.90 1897.02 L2707.90 1897.02 L2732.28 1897.02 L2732.28 1897.02 L2756.53 1897.02 L2756.53 1897.02 L2780.91 1897.02 L2780.91 1897.02 L2805.16 1897.02 L2805.16 1897.02 L2829.54 1897.02 L2829.54 1897.02 L2853.92 1897.02 L2853.92 1887.12 L2878.18 1887.12 L2878.18 1882.30 L2951.19 1882.30 L2951.19 1877.35 L2999.82 1877.35 L2999.82 1872.40 L3024.20 1872.40 L3024.20 1872.40 L3048.46 1872.40 L3048.46 1867.45 L3072.84 1867.45 L3072.84 1867.45 L3097.22 1867.45 L3097.22 1867.45 L3121.47 1867.45 L3121.47 1867.45 L3145.85 1867.45 L3145.85 1867.45 L3194.48 1867.45 L3194.48 1867.45 L3218.86 1867.45 L3218.86 1867.45 L3243.12 1867.45 L3243.12 1867.45 L3291.75 1867.45 L3291.75 1867.45 L3316.13 1867.45 L3316.13 1867.45 L3340.51 1867.45 L3340.51 1862.50 L3364.76 1862.50 L3364.76 1862.50 L3389.14 1862.50 L3389.14 1857.55 L3437.78 1857.55 L3437.78 1852.60 L3462.15 1852.60 L3462.15 1852.60 L3486.41 1852.60 L3486.41 1852.60 L3510.79 1852.60 L3510.79 1852.60 L3583.68 1852.60 L3583.68 1852.60 L3608.05 1852.60 L3608.05 1847.65 L3632.43 1847.65 L3632.43 1847.65 L3656.69 1847.65 L3656.69 1847.65" stroke-linejoin="round" style="fill:none;stroke:#E37E00;stroke-width:8.64"/>
	<line x1="1038.88" y1="2162.60" x2="1038.88" y2="630.90" style="stroke:#000000;stroke-width:5.76"/>
	<line x1="1038.88" y1="2099.24" x2="998.91" y2="2099.24" style="stroke:#000000;stroke-width:5.76"/>
	<text x="978.99" y="2127.25" style="font-family:'Helvetica';font-size:79.94px;fill:#000000" text-anchor="end">0.000</text>
	<line x1="1038.88" y1="1818.19" x2="998.91" y2="1818.19" style="stroke:#000000;stroke-width:5.76"/>
	<text x="978.99" y="1846.20" style="font-family:'Helvetica';font-size:79.94px;fill:#000000" text-anchor="end">0.001</text>
	<line x1="1038.88" y1="1537.27" x2="998.91" y2="1537.27" style="stroke:#000000;stroke-width:5.76"/>
	<text x="978.99" y="1565.28" style="font-family:'Helvetica';font-size:79.94px;fill:#000000" text-anchor="end">0.002</text>
	<line x1="1038.88" y1="1256.23" x2="998.91" y2="1256.23" style="stroke:#000000;stroke-width:5.76"/>
	<text x="978.99" y="1284.24" style="font-family:'Helvetica';font-size:79.94px;fill:#000000" text-anchor="end">0.003</text>
	<line x1="1038.88" y1="975.18" x2="998.91" y2="975.18" style="stroke:#000000;stroke-width:5.76"/>
	<text x="978.99" y="1003.19" style="font-family:'Helvetica';font-size:79.94px;fill:#000000" text-anchor="end">0.004</text>
	<line x1="1038.88" y1="694.26" x2="998.91" y2="694.26" style="stroke:#000000;stroke-width:5.76"/>
	<text x="978.99" y="722.27" style="font-family:'Helvetica';font-size:79.94px;fill:#000000" text-anchor="end">0.005</text>
	<text x="1102.24" y="2747.83" style="font-family:'Helvetica';font-size:60.02px;fill:#000000" text-anchor="middle">57075</text>
	<text x="1588.83" y="2747.83" style="font-family:'Helvetica';font-size:60.02px;fill:#000000" text-anchor="middle">57034</text>
	<text x="2075.41" y="2747.83" style="font-family:'Helvetica';font-size:60.02px;fill:#000000" text-anchor="middle">56959</text>
	<text x="2562.00" y="2747.83" style="font-family:'Helvetica';font-size:60.02px;fill:#000000" text-anchor="middle">56890</text>
	<text x="3048.58" y="2747.83" style="font-family:'Helvetica';font-size:60.02px;fill:#000000" text-anchor="middle">56859</text>
	<text x="3535.17" y="2747.83" style="font-family:'Helvetica';font-size:60.02px;fill:#000000" text-anchor="middle">56819</text>
	<text x="968.47" y="2747.83" style="font-family:'Helvetica';font-size:60.02px;fill:#000000" text-anchor="end">Other NSAIDs</text>
	<text x="1102.24" y="2674.44" style="font-family:'Helvetica';font-size:60.02px;fill:#000000" text-anchor="middle">82438</text>
	<text x="1588.83" y="2674.44" style="font-family:'Helvetica';font-size:60.02px;fill:#000000" text-anchor="middle">82395</text>
	<text x="2075.41" y="2674.44" style="font-family:'Helvetica';font-size:60.02px;fill:#000000" text-anchor="middle">82346</text>
	<text x="2562.00" y="2674.44" style="font-family:'Helvetica';font-size:60.02px;fill:#000000" text-anchor="middle">82299</text>
	<text x="3048.58" y="2674.44" style="font-family:'Helvetica';font-size:60.02px;fill:#000000" text-anchor="middle">82264</text>
	<text x="3535.17" y="2674.44" style="font-family:'Helvetica';font-size:60.02px;fill:#000000" text-anchor="middle">82228</text>
	<text x="968.47" y="2674.44" style="font-family:'Helvetica';font-size:60.02px;fill:#000000" text-anchor="end">Naproxen high dose</text>
	<text x="1102.24" y="2601.18" style="font-family:'Helvetica';font-size:60.02px;fill:#000000" text-anchor="middle">36118</text>
	<text x="1588.83" y="2601.18" style="font-family:'Helvetica';font-size:60.02px;fill:#000000" text-anchor="middle">36101</text>
	<text x="2075.41" y="2601.18" style="font-family:'Helvetica';font-size:60.02px;fill:#000000" text-anchor="middle">36071</text>
	<text x="2562.00" y="2601.18" style="font-family:'Helvetica';font-size:60.02px;fill:#000000" text-anchor="middle">36037</text>
	<text x="3048.58" y="2601.18" style="font-family:'Helvetica';font-size:60.02px;fill:#000000" text-anchor="middle">36011</text>
	<text x="3535.17" y="2601.18" style="font-family:'Helvetica';font-size:60.02px;fill:#000000" text-anchor="middle">35997</text>
	<text x="968.47" y="2601.18" style="font-family:'Helvetica';font-size:60.02px;fill:#000000" text-anchor="end">Current exposure to NSAIDs</text>
	<text x="1102.24" y="2527.80" style="font-family:'Helvetica';font-size:60.02px;fill:#000000" text-anchor="middle">1535421</text>
	<text x="1588.83" y="2527.80" style="font-family:'Helvetica';font-size:60.02px;fill:#000000" text-anchor="middle">1522867</text>
	<text x="2075.41" y="2527.80" style="font-family:'Helvetica';font-size:60.02px;fill:#000000" text-anchor="middle">1514566</text>
	<text x="2562.00" y="2527.80" style="font-family:'Helvetica';font-size:60.02px;fill:#000000" text-anchor="middle">1505264</text>
	<text x="3048.58" y="2527.80" style="font-family:'Helvetica';font-size:60.02px;fill:#000000" text-anchor="middle">1495945</text>
	<text x="3535.17" y="2527.80" style="font-family:'Helvetica';font-size:60.02px;fill:#000000" text-anchor="middle">1486965</text>
	<text x="968.47" y="2527.80" style="font-family:'Helvetica';font-size:60.02px;fill:#000000" text-anchor="end">Non-current exposure to NSAIDs</text>
	<text x="968.47" y="2454.53" style="font-family:'Helvetica';font-size:60.02px;fill:#000000" text-anchor="end">Number at risk</text>
	<line x1="1038.88" y1="2162.60" x2="3841.82" y2="2162.60" style="stroke:#000000;stroke-width:5.76"/>
	<line x1="1102.24" y1="2162.60" x2="1102.24" y2="2202.57" style="stroke:#000000;stroke-width:5.76"/>
	<text x="1102.24" y="2278.52" style="font-family:'Helvetica';font-size:79.94px;fill:#000000" text-anchor="middle">0</text>
	<line x1="1588.83" y1="2162.60" x2="1588.83" y2="2202.57" style="stroke:#000000;stroke-width:5.76"/>
	<text x="1588.83" y="2278.52" style="font-family:'Helvetica';font-size:79.94px;fill:#000000" text-anchor="middle">20</text>
	<line x1="2075.41" y1="2162.60" x2="2075.41" y2="2202.57" style="stroke:#000000;stroke-width:5.76"/>
	<text x="2075.41" y="2278.52" style="font-family:'Helvetica';font-size:79.94px;fill:#000000" text-anchor="middle">40</text>
	<line x1="2562.00" y1="2162.60" x2="2562.00" y2="2202.57" style="stroke:#000000;stroke-width:5.76"/>
	<text x="2562.00" y="2278.52" style="font-family:'Helvetica';font-size:79.94px;fill:#000000" text-anchor="middle">60</text>
	<line x1="3048.58" y1="2162.60" x2="3048.58" y2="2202.57" style="stroke:#000000;stroke-width:5.76"/>
	<text x="3048.58" y="2278.52" style="font-family:'Helvetica';font-size:79.94px;fill:#000000" text-anchor="middle">80</text>
	<line x1="3535.17" y1="2162.60" x2="3535.17" y2="2202.57" style="stroke:#000000;stroke-width:5.76"/>
	<text x="3535.17" y="2278.52" style="font-family:'Helvetica';font-size:79.94px;fill:#000000" text-anchor="middle">100</text>
	<text x="2440.35" y="2368.49" style="font-family:'Helvetica';font-size:79.94px;fill:#000000" text-anchor="middle">Days since 1 Mar 2020</text>
	<rect x="1174.39" y="269.91" width="2531.93" height="326.46" style="fill:#FFFFFF"/>
	<rect x="1177.27" y="272.79" width="2526.17" height="320.70" style="fill:none;stroke:#EAF2F3;stroke-width:5.76"/>
	<line x1="1217.70" y1="363.09" x2="1592.04" y2="363.09" style="stroke:#1A476F;stroke-width:8.64"/>
	<line x1="2698.49" y1="363.09" x2="3072.84" y2="363.09" style="stroke:#90353B;stroke-width:8.64"/>
	<line x1="1217.70" y1="503.06" x2="1592.04" y2="503.06" style="stroke:#55752F;stroke-width:8.64"/>
	<line x1="2698.49" y1="503.06" x2="3072.84" y2="503.06" style="stroke:#E37E00;stroke-width:8.64"/>
	<text x="1652.06" y="384.13" style="font-family:'Helvetica';font-size:60.02px;fill:#000000">Non-current exposure to NSAIDs</text>
	<text x="3132.86" y="384.13" style="font-family:'Helvetica';font-size:60.02px;fill:#000000">Naproxen low dose</text>
	<text x="1652.06" y="524.10" style="font-family:'Helvetica';font-size:60.02px;fill:#000000">Naproxen high dose</text>
	<text x="3132.86" y="524.10" style="font-family:'Helvetica';font-size:60.02px;fill:#000000">Other NSAIDs</text>
	<text x="1056.21" y="187.99" style="font-family:'Helvetica';font-size:99.99px;fill:#1E2D53">Time to death, Rheumatoid_arthritis_&amp;_osteoarthritis population</text>
</svg>
