<?xml version="1.0" encoding="UTF-8" standalone="no"?>
<!-- This is a Stata 16.1 generated SVG file (http://www.stata.com) -->

<svg version="1.1" width="5.50in" height="4.00in" viewBox="0 0 3960 2880" xmlns="http://www.w3.org/2000/svg" xmlns:xlink="http://www.w3.org/1999/xlink">
	<desc>Stata Graph - Graph</desc>
	<rect x="0" y="0" width="3960" height="2880" style="fill:#EAF2F3;stroke:none"/>
	<rect x="0.00" y="0.00" width="3959.88" height="2880.00" style="fill:#FFFFFF"/>
	<rect x="2.88" y="2.88" width="3954.12" height="2874.24" style="fill:none;stroke:#EAF2F3;stroke-width:5.76"/>
	<rect x="1038.88" y="630.90" width="2802.94" height="1604.96" style="fill:#FFFFFF"/>
	<rect x="1041.76" y="633.78" width="2797.18" height="1599.20" style="fill:none;stroke:#FFFFFF;stroke-width:5.76"/>
	<line x1="1038.88" y1="2172.62" x2="3841.82" y2="2172.62" style="stroke:#EAF2F3;stroke-width:8.64"/>
	<line x1="1038.88" y1="1876.85" x2="3841.82" y2="1876.85" style="stroke:#EAF2F3;stroke-width:8.64"/>
	<line x1="1038.88" y1="1581.20" x2="3841.82" y2="1581.20" style="stroke:#EAF2F3;stroke-width:8.64"/>
	<line x1="1038.88" y1="1285.56" x2="3841.82" y2="1285.56" style="stroke:#EAF2F3;stroke-width:8.64"/>
	<line x1="1038.88" y1="989.91" x2="3841.82" y2="989.91" style="stroke:#EAF2F3;stroke-width:8.64"/>
	<path d=" M1102.24 2172.62 L1102.24 2172.62 L1102.24 2172.62 L1102.24 2172.62 L1102.24 2172.62 L1126.62 2172.62 L1126.62 2172.38 L1150.88 2172.38 L1150.88 2172.38 L1175.25 2172.38 L1175.25 2172.38 L1199.51 2172.38 L1199.51 2172.38 L1223.89 2172.38 L1223.89 2172.38 L1248.27 2172.38 L1248.27 2172.38 L1272.52 2172.38 L1272.52 2172.38 L1296.90 2172.38 L1296.90 2172.38 L1321.15 2172.38 L1321.15 2172.38 L1345.53 2172.38 L1345.53 2172.38 L1369.79 2172.38 L1369.79 2172.38 L1394.17 2172.38 L1394.17 2172.38 L1418.55 2172.38 L1418.55 2172.38 L1442.80 2172.38 L1442.80 2172.38 L1467.18 2172.38 L1467.18 2172.25 L1491.43 2172.25 L1491.43 2172.00 L1515.81 2172.00 L1515.81 2171.63 L1540.19 2171.63 L1540.19 2171.63 L1564.45 2171.63 L1564.45 2171.51 L1588.83 2171.51 L1588.83 2170.52 L1613.08 2170.52 L1613.08 2169.53 L1637.46 2169.53 L1637.46 2168.54 L1661.84 2168.54 L1661.84 2166.19 L1686.09 2166.19 L1686.09 2164.33 L1710.47 2164.33 L1710.47 2161.11 L1734.73 2161.11 L1734.73 2157.65 L1759.11 2157.65 L1759.11 2154.55 L1783.48 2154.55 L1783.48 2150.47 L1807.74 2150.47 L1807.74 2144.41 L1832.12 2144.41 L1832.12 2138.84 L1856.37 2138.84 L1856.37 2131.04 L1880.75 2131.04 L1880.75 2124.61 L1905.13 2124.61 L1905.13 2113.47 L1929.39 2113.47 L1929.39 2102.33 L1953.77 2102.33 L1953.77 2091.69 L1978.02 2091.69 L1978.02 2083.89 L2002.40 2083.89 L2002.40 2072.13 L2026.78 2072.13 L2026.78 2058.15 L2051.03 2058.15 L2051.03 2048.37 L2075.41 2048.37 L2075.41 2034.88 L2099.67 2034.88 L2099.67 2023.99 L2124.05 2023.99 L2124.05 2012.11 L2148.30 2012.11 L2148.30 2002.71 L2172.68 2002.71 L2172.68 1991.94 L2197.06 1991.94 L2197.06 1982.54 L2221.31 1982.54 L2221.31 1973.01 L2245.69 1973.01 L2245.69 1961.25 L2269.95 1961.25 L2269.95 1951.10 L2294.32 1951.10 L2294.32 1940.34 L2318.70 1940.34 L2318.70 1930.19 L2342.96 1930.19 L2342.96 1921.77 L2367.34 1921.77 L2367.34 1911.75 L2391.59 1911.75 L2391.59 1903.21 L2415.97 1903.21 L2415.97 1896.53 L2440.35 1896.53 L2440.35 1889.23 L2464.61 1889.23 L2464.61 1880.44 L2488.98 1880.44 L2488.98 1873.01 L2513.24 1873.01 L2513.24 1863.86 L2537.62 1863.86 L2537.62 1856.18 L2562.00 1856.18 L2562.00 1849.63 L2586.25 1849.63 L2586.25 1841.83 L2610.63 1841.83 L2610.63 1834.90 L2634.89 1834.90 L2634.89 1826.48 L2659.26 1826.48 L2659.26 1820.17 L2683.64 1820.17 L2683.64 1814.97 L2707.90 1814.97 L2707.90 1809.41 L2732.28 1809.41 L2732.28 1805.07 L2756.53 1805.07 L2756.53 1800.12 L2780.91 1800.12 L2780.91 1794.06 L2805.16 1794.06 L2805.16 1790.72 L2829.54 1790.72 L2829.54 1785.40 L2853.92 1785.40 L2853.92 1782.30 L2878.18 1782.30 L2878.18 1777.11 L2902.56 1777.11 L2902.56 1774.01 L2926.81 1774.01 L2926.81 1769.80 L2951.19 1769.80 L2951.19 1765.35 L2975.57 1765.35 L2975.57 1762.01 L2999.82 1762.01 L2999.82 1757.06 L3024.20 1757.06 L3024.20 1753.72 L3048.46 1753.72 L3048.46 1749.76 L3072.84 1749.76 L3072.84 1745.80 L3097.22 1745.80 L3097.22 1742.83 L3121.47 1742.83 L3121.47 1738.49 L3145.85 1738.49 L3145.85 1735.65 L3170.10 1735.65 L3170.10 1731.19 L3194.48 1731.19 L3194.48 1726.61 L3218.86 1726.61 L3218.86 1724.26 L3243.12 1724.26 L3243.12 1721.29 L3267.49 1721.29 L3267.49 1719.31 L3291.75 1719.31 L3291.75 1717.95 L3316.13 1717.95 L3316.13 1716.34 L3340.51 1716.34 L3340.51 1714.11 L3364.76 1714.11 L3364.76 1713.12 L3389.14 1713.12 L3389.14 1710.77 L3413.40 1710.77 L3413.40 1708.42 L3437.78 1708.42 L3437.78 1706.81 L3462.15 1706.81 L3462.15 1705.45 L3486.41 1705.45 L3486.41 1703.47 L3510.79 1703.47 L3510.79 1702.11 L3535.04 1702.11 L3535.04 1700.50 L3559.42 1700.50 L3559.42 1699.02 L3583.68 1699.02 L3583.68 1697.28 L3608.05 1697.28 L3608.05 1696.54 L3632.43 1696.54 L3632.43 1695.55 L3656.69 1695.55 L3656.69 1694.56" stroke-linejoin="round" style="fill:none;stroke:#1A476F;stroke-width:8.64"/>
	<path d=" M1102.24 2172.62 L1102.24 2172.62 L1102.24 2172.62 L1102.24 2172.62 L1102.24 2172.62 L1150.88 2172.62 L1150.88 2172.62 L1223.89 2172.62 L1223.89 2172.62 L1248.27 2172.62 L1248.27 2172.62 L1272.52 2172.62 L1272.52 2172.62 L1296.90 2172.62 L1296.90 2172.62 L1321.15 2172.62 L1321.15 2172.62 L1345.53 2172.62 L1345.53 2172.62 L1369.79 2172.62 L1369.79 2172.62 L1418.55 2172.62 L1418.55 2172.62 L1442.80 2172.62 L1442.80 2172.62 L1467.18 2172.62 L1467.18 2172.62 L1491.43 2172.62 L1491.43 2172.62 L1515.81 2172.62 L1515.81 2172.62 L1540.19 2172.62 L1540.19 2172.62 L1564.45 2172.62 L1564.45 2172.62 L1588.83 2172.62 L1588.83 2172.62 L1613.08 2172.62 L1613.08 2172.62 L1637.46 2172.62 L1637.46 2172.62 L1661.84 2172.62 L1661.84 2172.62 L1686.09 2172.62 L1686.09 2172.62 L1710.47 2172.62 L1710.47 2172.62 L1734.73 2172.62 L1734.73 2172.62 L1759.11 2172.62 L1759.11 2172.62 L1807.74 2172.62 L1807.74 2172.62 L1832.12 2172.62 L1832.12 2159.13 L1856.37 2159.13 L1856.37 2132.03 L1905.13 2132.03 L1905.13 2132.03 L1929.39 2132.03 L1929.39 2118.54 L1953.77 2118.54 L1953.77 2104.93 L1978.02 2104.93 L1978.02 2091.44 L2002.40 2091.44 L2002.40 2077.83 L2026.78 2077.83 L2026.78 2064.34 L2051.03 2064.34 L2051.03 2050.85 L2099.67 2050.85 L2099.67 2050.85 L2124.05 2050.85 L2124.05 2037.24 L2172.68 2037.24 L2172.68 2037.24 L2197.06 2037.24 L2197.06 2037.24 L2221.31 2037.24 L2221.31 2037.24 L2269.95 2037.24 L2269.95 2037.24 L2294.32 2037.24 L2294.32 2023.75 L2318.70 2023.75 L2318.70 2023.75 L2342.96 2023.75 L2342.96 2010.13 L2391.59 2010.13 L2391.59 1996.64 L2440.35 1996.64 L2440.35 1996.64 L2464.61 1996.64 L2464.61 1996.64 L2488.98 1996.64 L2488.98 1969.54 L2513.24 1969.54 L2513.24 1955.93 L2537.62 1955.93 L2537.62 1942.44 L2610.63 1942.44 L2610.63 1942.44 L2634.89 1942.44 L2634.89 1942.44 L2659.26 1942.44 L2659.26 1928.83 L2683.64 1928.83 L2683.64 1928.83 L2732.28 1928.83 L2732.28 1928.83 L2780.91 1928.83 L2780.91 1928.83 L2853.92 1928.83 L2853.92 1901.73 L2878.18 1901.73 L2878.18 1888.11 L2999.82 1888.11 L2999.82 1874.62 L3048.46 1874.62 L3048.46 1861.01 L3072.84 1861.01 L3072.84 1861.01 L3097.22 1861.01 L3097.22 1861.01 L3121.47 1861.01 L3121.47 1861.01 L3145.85 1861.01 L3145.85 1861.01 L3194.48 1861.01 L3194.48 1861.01 L3218.86 1861.01 L3218.86 1861.01 L3291.75 1861.01 L3291.75 1861.01 L3340.51 1861.01 L3340.51 1861.01 L3364.76 1861.01 L3364.76 1861.01 L3389.14 1861.01 L3389.14 1847.52 L3437.78 1847.52 L3437.78 1833.91 L3462.15 1833.91 L3462.15 1833.91 L3510.79 1833.91 L3510.79 1833.91 L3583.68 1833.91 L3583.68 1833.91 L3608.05 1833.91 L3608.05 1833.91 L3632.43 1833.91 L3632.43 1833.91 L3656.69 1833.91 L3656.69 1833.91" stroke-linejoin="round" style="fill:none;stroke:#90353B;stroke-width:8.64"/>
	<path d=" M1102.24 2172.62 L1102.24 2172.62 L1102.24 2172.62 L1102.24 2172.62 L1102.24 2172.62 L1126.62 2172.62 L1126.62 2172.62 L1150.88 2172.62 L1150.88 2172.62 L1175.25 2172.62 L1175.25 2172.62 L1199.51 2172.62 L1199.51 2172.62 L1223.89 2172.62 L1223.89 2172.62 L1248.27 2172.62 L1248.27 2172.62 L1272.52 2172.62 L1272.52 2172.62 L1296.90 2172.62 L1296.90 2172.62 L1321.15 2172.62 L1321.15 2172.62 L1345.53 2172.62 L1345.53 2172.62 L1369.79 2172.62 L1369.79 2172.62 L1394.17 2172.62 L1394.17 2172.62 L1418.55 2172.62 L1418.55 2172.62 L1442.80 2172.62 L1442.80 2172.62 L1467.18 2172.62 L1467.18 2172.62 L1491.43 2172.62 L1491.43 2172.62 L1515.81 2172.62 L1515.81 2172.62 L1540.19 2172.62 L1540.19 2172.62 L1564.45 2172.62 L1564.45 2172.62 L1588.83 2172.62 L1588.83 2172.62 L1613.08 2172.62 L1613.08 2170.64 L1637.46 2170.64 L1637.46 2168.79 L1661.84 2168.79 L1661.84 2166.81 L1686.09 2166.81 L1686.09 2164.95 L1710.47 2164.95 L1710.47 2164.95 L1734.73 2164.95 L1734.73 2164.95 L1759.11 2164.95 L1759.11 2164.95 L1783.48 2164.95 L1783.48 2164.95 L1807.74 2164.95 L1807.74 2159.13 L1832.12 2159.13 L1832.12 2159.13 L1856.37 2159.13 L1856.37 2155.30 L1880.75 2155.30 L1880.75 2153.32 L1905.13 2153.32 L1905.13 2145.64 L1929.39 2145.64 L1929.39 2143.79 L1953.77 2143.79 L1953.77 2139.95 L1978.02 2139.95 L1978.02 2137.97 L2002.40 2137.97 L2002.40 2130.30 L2026.78 2130.30 L2026.78 2126.46 L2051.03 2126.46 L2051.03 2114.83 L2075.41 2114.83 L2075.41 2105.30 L2099.67 2105.30 L2099.67 2101.46 L2124.05 2101.46 L2124.05 2091.81 L2148.30 2091.81 L2148.30 2087.98 L2172.68 2087.98 L2172.68 2086.00 L2197.06 2086.00 L2197.06 2082.16 L2221.31 2082.16 L2221.31 2080.18 L2245.69 2080.18 L2245.69 2076.34 L2269.95 2076.34 L2269.95 2072.51 L2294.32 2072.51 L2294.32 2066.69 L2318.70 2066.69 L2318.70 2059.02 L2342.96 2059.02 L2342.96 2055.18 L2367.34 2055.18 L2367.34 2055.18 L2391.59 2055.18 L2391.59 2053.32 L2415.97 2053.32 L2415.97 2049.36 L2440.35 2049.36 L2440.35 2047.51 L2464.61 2047.51 L2464.61 2041.69 L2488.98 2041.69 L2488.98 2035.87 L2513.24 2035.87 L2513.24 2032.04 L2537.62 2032.04 L2537.62 2030.18 L2562.00 2030.18 L2562.00 2028.20 L2610.63 2028.20 L2610.63 2028.20 L2634.89 2028.20 L2634.89 2026.35 L2659.26 2026.35 L2659.26 2024.37 L2683.64 2024.37 L2683.64 2016.69 L2707.90 2016.69 L2707.90 2016.69 L2732.28 2016.69 L2732.28 2014.71 L2756.53 2014.71 L2756.53 2014.71 L2780.91 2014.71 L2780.91 2010.88 L2805.16 2010.88 L2805.16 2010.88 L2829.54 2010.88 L2829.54 2010.88 L2853.92 2010.88 L2853.92 2009.02 L2878.18 2009.02 L2878.18 2009.02 L2902.56 2009.02 L2902.56 2007.04 L2926.81 2007.04 L2926.81 2007.04 L2951.19 2007.04 L2951.19 2005.06 L2975.57 2005.06 L2975.57 2003.20 L2999.82 2003.20 L2999.82 2001.22 L3024.20 2001.22 L3024.20 2001.22 L3048.46 2001.22 L3048.46 1999.37 L3072.84 1999.37 L3072.84 1999.37 L3097.22 1999.37 L3097.22 1999.37 L3121.47 1999.37 L3121.47 1999.37 L3145.85 1999.37 L3145.85 1999.37 L3170.10 1999.37 L3170.10 1997.39 L3194.48 1997.39 L3194.48 1995.53 L3218.86 1995.53 L3218.86 1995.53 L3243.12 1995.53 L3243.12 1995.53 L3267.49 1995.53 L3267.49 1995.53 L3316.13 1995.53 L3316.13 1995.53 L3340.51 1995.53 L3340.51 1993.55 L3364.76 1993.55 L3364.76 1993.55 L3389.14 1993.55 L3389.14 1991.57 L3437.78 1991.57 L3437.78 1991.57 L3462.15 1991.57 L3462.15 1989.71 L3486.41 1989.71 L3486.41 1989.71 L3510.79 1989.71 L3510.79 1989.71 L3535.04 1989.71 L3535.04 1989.71 L3559.42 1989.71 L3559.42 1989.71 L3583.68 1989.71 L3583.68 1989.71 L3608.05 1989.71 L3608.05 1985.88 L3632.43 1985.88 L3632.43 1985.88 L3656.69 1985.88 L3656.69 1983.90" stroke-linejoin="round" style="fill:none;stroke:#55752F;stroke-width:8.64"/>
	<line x1="1038.88" y1="2235.86" x2="1038.88" y2="630.90" style="stroke:#000000;stroke-width:5.76"/>
	<line x1="1038.88" y1="2172.62" x2="998.91" y2="2172.62" style="stroke:#000000;stroke-width:5.76"/>
	<text x="978.99" y="2200.63" style="font-family:'Helvetica';font-size:79.94px;fill:#000000" text-anchor="end">0.000</text>
	<line x1="1038.88" y1="1876.85" x2="998.91" y2="1876.85" style="stroke:#000000;stroke-width:5.76"/>
	<text x="978.99" y="1904.86" style="font-family:'Helvetica';font-size:79.94px;fill:#000000" text-anchor="end">0.001</text>
	<line x1="1038.88" y1="1581.20" x2="998.91" y2="1581.20" style="stroke:#000000;stroke-width:5.76"/>
	<text x="978.99" y="1609.21" style="font-family:'Helvetica';font-size:79.94px;fill:#000000" text-anchor="end">0.002</text>
	<line x1="1038.88" y1="1285.56" x2="998.91" y2="1285.56" style="stroke:#000000;stroke-width:5.76"/>
	<text x="978.99" y="1313.57" style="font-family:'Helvetica';font-size:79.94px;fill:#000000" text-anchor="end">0.003</text>
	<line x1="1038.88" y1="989.91" x2="998.91" y2="989.91" style="stroke:#000000;stroke-width:5.76"/>
	<text x="978.99" y="1017.92" style="font-family:'Helvetica';font-size:79.94px;fill:#000000" text-anchor="end">0.004</text>
	<line x1="1038.88" y1="694.26" x2="998.91" y2="694.26" style="stroke:#000000;stroke-width:5.76"/>
	<text x="978.99" y="722.27" style="font-family:'Helvetica';font-size:79.94px;fill:#000000" text-anchor="end">0.005</text>
	<text x="1102.24" y="2747.83" style="font-family:'Helvetica';font-size:60.02px;fill:#000000" text-anchor="middle">153738</text>
	<text x="1588.83" y="2747.83" style="font-family:'Helvetica';font-size:60.02px;fill:#000000" text-anchor="middle">153665</text>
	<text x="2075.41" y="2747.83" style="font-family:'Helvetica';font-size:60.02px;fill:#000000" text-anchor="middle">153547</text>
	<text x="2562.00" y="2747.83" style="font-family:'Helvetica';font-size:60.02px;fill:#000000" text-anchor="middle">153428</text>
	<text x="3048.58" y="2747.83" style="font-family:'Helvetica';font-size:60.02px;fill:#000000" text-anchor="middle">153354</text>
	<text x="3535.17" y="2747.83" style="font-family:'Helvetica';font-size:60.02px;fill:#000000" text-anchor="middle">153290</text>
	<text x="968.47" y="2747.83" style="font-family:'Helvetica';font-size:60.02px;fill:#000000" text-anchor="end">Other NSAIDs</text>
	<text x="1102.24" y="2674.44" style="font-family:'Helvetica';font-size:60.02px;fill:#000000" text-anchor="middle">21893</text>
	<text x="1588.83" y="2674.44" style="font-family:'Helvetica';font-size:60.02px;fill:#000000" text-anchor="middle">21865</text>
	<text x="2075.41" y="2674.44" style="font-family:'Helvetica';font-size:60.02px;fill:#000000" text-anchor="middle">21829</text>
	<text x="2562.00" y="2674.44" style="font-family:'Helvetica';font-size:60.02px;fill:#000000" text-anchor="middle">21798</text>
	<text x="3048.58" y="2674.44" style="font-family:'Helvetica';font-size:60.02px;fill:#000000" text-anchor="middle">21780</text>
	<text x="3535.17" y="2674.44" style="font-family:'Helvetica';font-size:60.02px;fill:#000000" text-anchor="middle">21754</text>
	<text x="968.47" y="2674.44" style="font-family:'Helvetica';font-size:60.02px;fill:#000000" text-anchor="end">Ibuprofen</text>
	<text x="1102.24" y="2601.18" style="font-family:'Helvetica';font-size:60.02px;fill:#000000" text-anchor="middle">1535421</text>
	<text x="1588.83" y="2601.18" style="font-family:'Helvetica';font-size:60.02px;fill:#000000" text-anchor="middle">1522867</text>
	<text x="2075.41" y="2601.18" style="font-family:'Helvetica';font-size:60.02px;fill:#000000" text-anchor="middle">1514566</text>
	<text x="2562.00" y="2601.18" style="font-family:'Helvetica';font-size:60.02px;fill:#000000" text-anchor="middle">1505264</text>
	<text x="3048.58" y="2601.18" style="font-family:'Helvetica';font-size:60.02px;fill:#000000" text-anchor="middle">1495945</text>
	<text x="3535.17" y="2601.18" style="font-family:'Helvetica';font-size:60.02px;fill:#000000" text-anchor="middle">1486965</text>
	<text x="968.47" y="2601.18" style="font-family:'Helvetica';font-size:60.02px;fill:#000000" text-anchor="end">Non-current exposure to NSAIDs</text>
	<text x="968.47" y="2527.80" style="font-family:'Helvetica';font-size:60.02px;fill:#000000" text-anchor="end">Number at risk</text>
	<line x1="1038.88" y1="2235.86" x2="3841.82" y2="2235.86" style="stroke:#000000;stroke-width:5.76"/>
	<line x1="1102.24" y1="2235.86" x2="1102.24" y2="2275.96" style="stroke:#000000;stroke-width:5.76"/>
	<text x="1102.24" y="2351.78" style="font-family:'Helvetica';font-size:79.94px;fill:#000000" text-anchor="middle">0</text>
	<line x1="1588.83" y1="2235.86" x2="1588.83" y2="2275.96" style="stroke:#000000;stroke-width:5.76"/>
	<text x="1588.83" y="2351.78" style="font-family:'Helvetica';font-size:79.94px;fill:#000000" text-anchor="middle">20</text>
	<line x1="2075.41" y1="2235.86" x2="2075.41" y2="2275.96" style="stroke:#000000;stroke-width:5.76"/>
	<text x="2075.41" y="2351.78" style="font-family:'Helvetica';font-size:79.94px;fill:#000000" text-anchor="middle">40</text>
	<line x1="2562.00" y1="2235.86" x2="2562.00" y2="2275.96" style="stroke:#000000;stroke-width:5.76"/>
	<text x="2562.00" y="2351.78" style="font-family:'Helvetica';font-size:79.94px;fill:#000000" text-anchor="middle">60</text>
	<line x1="3048.58" y1="2235.86" x2="3048.58" y2="2275.96" style="stroke:#000000;stroke-width:5.76"/>
	<text x="3048.58" y="2351.78" style="font-family:'Helvetica';font-size:79.94px;fill:#000000" text-anchor="middle">80</text>
	<line x1="3535.17" y1="2235.86" x2="3535.17" y2="2275.96" style="stroke:#000000;stroke-width:5.76"/>
	<text x="3535.17" y="2351.78" style="font-family:'Helvetica';font-size:79.94px;fill:#000000" text-anchor="middle">100</text>
	<text x="2440.35" y="2441.87" style="font-family:'Helvetica';font-size:79.94px;fill:#000000" text-anchor="middle">Days since 1 Mar 2020</text>
	<rect x="1309.15" y="269.91" width="2262.40" height="326.46" style="fill:#FFFFFF"/>
	<rect x="1312.03" y="272.79" width="2256.64" height="320.70" style="fill:none;stroke:#EAF2F3;stroke-width:5.76"/>
	<line x1="1352.34" y1="363.09" x2="1726.81" y2="363.09" style="stroke:#1A476F;stroke-width:8.64"/>
	<line x1="2833.26" y1="363.09" x2="3207.60" y2="363.09" style="stroke:#90353B;stroke-width:8.64"/>
	<line x1="1352.34" y1="503.06" x2="1726.81" y2="503.06" style="stroke:#55752F;stroke-width:8.64"/>
	<text x="1786.83" y="384.13" style="font-family:'Helvetica';font-size:60.02px;fill:#000000">Non-current exposure to NSAIDs</text>
	<text x="3267.62" y="384.13" style="font-family:'Helvetica';font-size:60.02px;fill:#000000">Ibuprofen</text>
	<text x="1786.83" y="524.10" style="font-family:'Helvetica';font-size:60.02px;fill:#000000">Other NSAIDs</text>
	<text x="1056.21" y="187.99" style="font-family:'Helvetica';font-size:99.99px;fill:#1E2D53">Time to death, Rheumatoid_arthritis_&amp;_osteoarthritis population</text>
</svg>
