<?xml version="1.0" encoding="UTF-8" standalone="no"?>
<!-- This is a Stata 16.1 generated SVG file (http://www.stata.com) -->

<svg version="1.1" width="5.50in" height="4.00in" viewBox="0 0 3960 2880" xmlns="http://www.w3.org/2000/svg" xmlns:xlink="http://www.w3.org/1999/xlink">
	<desc>Stata Graph - Graph</desc>
	<rect x="0" y="0" width="3960" height="2880" style="fill:#EAF2F3;stroke:none"/>
	<rect x="0.00" y="0.00" width="3959.88" height="2880.00" style="fill:#FFFFFF"/>
	<rect x="2.88" y="2.88" width="3954.12" height="2874.24" style="fill:none;stroke:#EAF2F3;stroke-width:5.76"/>
	<rect x="1069.94" y="490.93" width="2789.08" height="1818.32" style="fill:#FFFFFF"/>
	<rect x="1072.82" y="493.81" width="2783.32" height="1812.56" style="fill:none;stroke:#FFFFFF;stroke-width:5.76"/>
	<line x1="1069.94" y1="2245.89" x2="3859.02" y2="2245.89" style="stroke:#EAF2F3;stroke-width:8.64"/>
	<line x1="1069.94" y1="1823.02" x2="3859.02" y2="1823.02" style="stroke:#EAF2F3;stroke-width:8.64"/>
	<line x1="1069.94" y1="1400.03" x2="3859.02" y2="1400.03" style="stroke:#EAF2F3;stroke-width:8.64"/>
	<line x1="1069.94" y1="977.16" x2="3859.02" y2="977.16" style="stroke:#EAF2F3;stroke-width:8.64"/>
	<path d=" M1133.30 2246.01 L1133.30 2246.01 L1133.30 2246.01 L1158.55 2246.01 L1158.55 2246.01 L1183.92 2246.01 L1183.92 2246.01 L1209.29 2246.01 L1209.29 2246.01 L1234.65 2246.01 L1234.65 2246.01 L1260.02 2246.01 L1260.02 2246.01 L1285.39 2246.01 L1285.39 2246.01 L1310.76 2246.01 L1310.76 2246.01 L1336.13 2246.01 L1336.13 2246.01 L1361.50 2246.01 L1361.50 2246.01 L1386.87 2246.01 L1386.87 2246.01 L1412.11 2246.01 L1412.11 2246.01 L1437.48 2246.01 L1437.48 2246.01 L1462.85 2246.01 L1462.85 2246.01 L1488.22 2246.01 L1488.22 2246.01 L1513.59 2246.01 L1513.59 2245.89 L1538.95 2245.89 L1538.95 2245.76 L1564.32 2245.76 L1564.32 2245.76 L1589.69 2245.76 L1589.69 2245.76 L1615.06 2245.76 L1615.06 2245.76 L1640.43 2245.76 L1640.43 2245.76 L1665.67 2245.76 L1665.67 2245.64 L1691.04 2245.64 L1691.04 2245.51 L1716.41 2245.51 L1716.41 2245.39 L1741.78 2245.39 L1741.78 2245.02 L1767.15 2245.02 L1767.15 2244.77 L1792.52 2244.77 L1792.52 2244.52 L1817.89 2244.52 L1817.89 2244.28 L1843.26 2244.28 L1843.26 2243.91 L1868.63 2243.91 L1868.63 2243.66 L1893.99 2243.66 L1893.99 2243.29 L1919.24 2243.29 L1919.24 2242.92 L1944.61 2242.92 L1944.61 2242.67 L1969.98 2242.67 L1969.98 2242.05 L1995.35 2242.05 L1995.35 2241.43 L2020.71 2241.43 L2020.71 2240.81 L2046.08 2240.81 L2046.08 2240.44 L2071.45 2240.44 L2071.45 2239.70 L2096.82 2239.70 L2096.82 2238.83 L2122.19 2238.83 L2122.19 2237.84 L2147.56 2237.84 L2147.56 2237.22 L2172.80 2237.22 L2172.80 2236.60 L2198.17 2236.60 L2198.17 2236.11 L2223.54 2236.11 L2223.54 2235.37 L2248.91 2235.37 L2248.91 2234.87 L2274.28 2234.87 L2274.28 2234.13 L2299.65 2234.13 L2299.65 2233.63 L2325.01 2233.63 L2325.01 2232.64 L2350.38 2232.64 L2350.38 2232.15 L2375.75 2232.15 L2375.75 2231.53 L2401.12 2231.53 L2401.12 2230.91 L2426.37 2230.91 L2426.37 2230.17 L2451.74 2230.17 L2451.74 2229.67 L2477.10 2229.67 L2477.10 2229.05 L2502.47 2229.05 L2502.47 2228.56 L2527.84 2228.56 L2527.84 2228.06 L2553.21 2228.06 L2553.21 2227.57 L2578.58 2227.57 L2578.58 2227.20 L2603.95 2227.20 L2603.95 2226.70 L2629.32 2226.70 L2629.32 2226.21 L2654.68 2226.21 L2654.68 2225.84 L2679.93 2225.84 L2679.93 2225.47 L2705.30 2225.47 L2705.30 2225.22 L2730.67 2225.22 L2730.67 2224.85 L2756.04 2224.85 L2756.04 2224.48 L2781.41 2224.48 L2781.41 2224.35 L2806.77 2224.35 L2806.77 2223.98 L2832.14 2223.98 L2832.14 2223.61 L2857.51 2223.61 L2857.51 2223.36 L2882.88 2223.36 L2882.88 2223.11 L2908.25 2223.11 L2908.25 2222.99 L2933.49 2222.99 L2933.49 2222.99 L2958.86 2222.99 L2958.86 2222.50 L2984.23 2222.50 L2984.23 2222.25 L3009.60 2222.25 L3009.60 2222.00 L3034.97 2222.00 L3034.97 2222.00 L3060.34 2222.00 L3060.34 2221.75 L3085.71 2221.75 L3085.71 2221.51 L3111.07 2221.51 L3111.07 2221.38 L3136.44 2221.38 L3136.44 2221.26 L3161.81 2221.26 L3161.81 2221.13 L3187.06 2221.13 L3187.06 2220.89 L3212.43 2220.89 L3212.43 2220.64 L3237.80 2220.64 L3237.80 2220.64 L3263.16 2220.64 L3263.16 2220.52 L3288.53 2220.52 L3288.53 2220.39 L3313.90 2220.39 L3313.90 2220.14 L3339.27 2220.14 L3339.27 2220.02 L3364.64 2220.02 L3364.64 2219.77 L3390.01 2219.77 L3390.01 2219.77 L3415.38 2219.77 L3415.38 2219.65 L3440.62 2219.65 L3440.62 2219.53 L3465.99 2219.53 L3465.99 2219.40 L3491.36 2219.40 L3491.36 2219.28 L3516.73 2219.28 L3516.73 2219.15 L3542.10 2219.15 L3542.10 2219.03 L3567.47 2219.03 L3567.47 2219.03 L3592.83 2219.03 L3592.83 2218.91 L3618.20 2218.91 L3618.20 2218.78 L3643.57 2218.78 L3643.57 2218.78 L3668.82 2218.78 L3668.82 2218.78 L3694.18 2218.78 L3694.18 2218.66 L3719.55 2218.66 L3719.55 2218.66 L3744.92 2218.66 L3744.92 2218.41 L3770.29 2218.41 L3770.29 2218.41 L3795.66 2218.41 L3795.66 2218.41" stroke-linejoin="round" style="fill:none;stroke:#1A476F;stroke-width:8.64"/>
	<path d=" M1133.30 2246.01 L1133.30 2246.01 L1133.30 2246.01 L1158.55 2246.01 L1158.55 2246.01 L1183.92 2246.01 L1183.92 2246.01 L1209.29 2246.01 L1209.29 2246.01 L1234.65 2246.01 L1234.65 2246.01 L1260.02 2246.01 L1260.02 2246.01 L1285.39 2246.01 L1285.39 2246.01 L1310.76 2246.01 L1310.76 2246.01 L1336.13 2246.01 L1336.13 2246.01 L1361.50 2246.01 L1361.50 2246.01 L1386.87 2246.01 L1386.87 2246.01 L1412.11 2246.01 L1412.11 2246.01 L1437.48 2246.01 L1437.48 2246.01 L1462.85 2246.01 L1462.85 2246.01 L1488.22 2246.01 L1488.22 2246.01 L1513.59 2246.01 L1513.59 2246.01 L1538.95 2246.01 L1538.95 2246.01 L1564.32 2246.01 L1564.32 2246.01 L1589.69 2246.01 L1589.69 2246.01 L1615.06 2246.01 L1615.06 2246.01 L1640.43 2246.01 L1640.43 2246.01 L1665.67 2246.01 L1665.67 2245.76 L1691.04 2245.76 L1691.04 2245.64 L1716.41 2245.64 L1716.41 2245.27 L1741.78 2245.27 L1741.78 2245.14 L1767.15 2245.14 L1767.15 2245.02 L1792.52 2245.02 L1792.52 2244.52 L1817.89 2244.52 L1817.89 2244.52 L1843.26 2244.52 L1843.26 2244.28 L1868.63 2244.28 L1868.63 2243.29 L1893.99 2243.29 L1893.99 2242.79 L1919.24 2242.79 L1919.24 2241.55 L1944.61 2241.55 L1944.61 2241.18 L1969.98 2241.18 L1969.98 2240.07 L1995.35 2240.07 L1995.35 2239.57 L2020.71 2239.57 L2020.71 2238.83 L2046.08 2238.83 L2046.08 2238.34 L2071.45 2238.34 L2071.45 2237.47 L2096.82 2237.47 L2096.82 2236.11 L2122.19 2236.11 L2122.19 2234.25 L2147.56 2234.25 L2147.56 2233.26 L2172.80 2233.26 L2172.80 2232.40 L2198.17 2232.40 L2198.17 2231.28 L2223.54 2231.28 L2223.54 2230.29 L2248.91 2230.29 L2248.91 2229.55 L2274.28 2229.55 L2274.28 2229.05 L2299.65 2229.05 L2299.65 2228.31 L2325.01 2228.31 L2325.01 2227.82 L2350.38 2227.82 L2350.38 2227.20 L2375.75 2227.20 L2375.75 2226.46 L2401.12 2226.46 L2401.12 2225.71 L2426.37 2225.71 L2426.37 2224.97 L2451.74 2224.97 L2451.74 2224.60 L2477.10 2224.60 L2477.10 2223.86 L2502.47 2223.86 L2502.47 2223.24 L2527.84 2223.24 L2527.84 2222.74 L2553.21 2222.74 L2553.21 2222.25 L2578.58 2222.25 L2578.58 2220.76 L2603.95 2220.76 L2603.95 2220.02 L2629.32 2220.02 L2629.32 2219.77 L2654.68 2219.77 L2654.68 2219.28 L2679.93 2219.28 L2679.93 2218.78 L2705.30 2218.78 L2705.30 2218.66 L2730.67 2218.66 L2730.67 2218.41 L2756.04 2218.41 L2756.04 2217.92 L2781.41 2217.92 L2781.41 2217.30 L2806.77 2217.30 L2806.77 2217.17 L2832.14 2217.17 L2832.14 2217.05 L2857.51 2217.05 L2857.51 2217.05 L2882.88 2217.05 L2882.88 2216.56 L2908.25 2216.56 L2908.25 2216.56 L2933.49 2216.56 L2933.49 2216.56 L2958.86 2216.56 L2958.86 2216.06 L2984.23 2216.06 L2984.23 2215.94 L3009.60 2215.94 L3009.60 2215.81 L3034.97 2215.81 L3034.97 2215.81 L3060.34 2215.81 L3060.34 2215.57 L3085.71 2215.57 L3085.71 2215.44 L3111.07 2215.44 L3111.07 2215.07 L3136.44 2215.07 L3136.44 2214.95 L3161.81 2214.95 L3161.81 2214.70 L3187.06 2214.70 L3187.06 2214.33 L3212.43 2214.33 L3212.43 2214.33 L3237.80 2214.33 L3237.80 2214.33 L3263.16 2214.33 L3263.16 2214.33 L3288.53 2214.33 L3288.53 2213.83 L3313.90 2213.83 L3313.90 2213.59 L3339.27 2213.59 L3339.27 2213.59 L3364.64 2213.59 L3364.64 2213.59 L3390.01 2213.59 L3390.01 2213.21 L3415.38 2213.21 L3415.38 2213.09 L3440.62 2213.09 L3440.62 2213.09 L3465.99 2213.09 L3465.99 2212.97 L3491.36 2212.97 L3491.36 2212.97 L3516.73 2212.97 L3516.73 2212.60 L3542.10 2212.60 L3542.10 2212.60 L3567.47 2212.60 L3567.47 2212.47 L3592.83 2212.47 L3592.83 2212.10 L3618.20 2212.10 L3618.20 2212.10 L3643.57 2212.10 L3643.57 2212.10 L3668.82 2212.10 L3668.82 2212.10 L3694.18 2212.10 L3694.18 2212.10 L3719.55 2212.10 L3719.55 2212.10 L3744.92 2212.10 L3744.92 2211.85 L3770.29 2211.85 L3770.29 2211.85 L3795.66 2211.85 L3795.66 2211.61" stroke-linejoin="round" style="fill:none;stroke:#90353B;stroke-width:8.64"/>
	<line x1="1069.94" y1="2309.25" x2="1069.94" y2="490.93" style="stroke:#000000;stroke-width:5.76"/>
	<line x1="1069.94" y1="2245.89" x2="1029.97" y2="2245.89" style="stroke:#000000;stroke-width:5.76"/>
	<text x="1009.92" y="2273.90" style="font-family:'Helvetica';font-size:79.94px;fill:#000000" text-anchor="end">0.000</text>
	<line x1="1069.94" y1="1823.02" x2="1029.97" y2="1823.02" style="stroke:#000000;stroke-width:5.76"/>
	<text x="1009.92" y="1851.03" style="font-family:'Helvetica';font-size:79.94px;fill:#000000" text-anchor="end">0.005</text>
	<line x1="1069.94" y1="1400.03" x2="1029.97" y2="1400.03" style="stroke:#000000;stroke-width:5.76"/>
	<text x="1009.92" y="1428.04" style="font-family:'Helvetica';font-size:79.94px;fill:#000000" text-anchor="end">0.010</text>
	<line x1="1069.94" y1="977.16" x2="1029.97" y2="977.16" style="stroke:#000000;stroke-width:5.76"/>
	<text x="1009.92" y="1005.17" style="font-family:'Helvetica';font-size:79.94px;fill:#000000" text-anchor="end">0.015</text>
	<line x1="1069.94" y1="554.29" x2="1029.97" y2="554.29" style="stroke:#000000;stroke-width:5.76"/>
	<text x="1009.92" y="582.31" style="font-family:'Helvetica';font-size:79.94px;fill:#000000" text-anchor="end">0.020</text>
	<text x="1133.30" y="2747.83" style="font-family:'Helvetica';font-size:60.02px;fill:#000000" text-anchor="middle">535545</text>
	<text x="1640.43" y="2747.83" style="font-family:'Helvetica';font-size:60.02px;fill:#000000" text-anchor="middle">535324</text>
	<text x="2147.56" y="2747.83" style="font-family:'Helvetica';font-size:60.02px;fill:#000000" text-anchor="middle">535003</text>
	<text x="2654.68" y="2747.83" style="font-family:'Helvetica';font-size:60.02px;fill:#000000" text-anchor="middle">534708</text>
	<text x="3161.81" y="2747.83" style="font-family:'Helvetica';font-size:60.02px;fill:#000000" text-anchor="middle">534527</text>
	<text x="3668.94" y="2747.83" style="font-family:'Helvetica';font-size:60.02px;fill:#000000" text-anchor="middle">534334</text>
	<text x="1000.15" y="2747.83" style="font-family:'Helvetica';font-size:60.02px;fill:#000000" text-anchor="end">Current exposure to NSAIDs</text>
	<text x="1133.30" y="2674.44" style="font-family:'Helvetica';font-size:60.02px;fill:#000000" text-anchor="middle">1924217</text>
	<text x="1640.43" y="2674.44" style="font-family:'Helvetica';font-size:60.02px;fill:#000000" text-anchor="middle">1896248</text>
	<text x="2147.56" y="2674.44" style="font-family:'Helvetica';font-size:60.02px;fill:#000000" text-anchor="middle">1880421</text>
	<text x="2654.68" y="2674.44" style="font-family:'Helvetica';font-size:60.02px;fill:#000000" text-anchor="middle">1863792</text>
	<text x="3161.81" y="2674.44" style="font-family:'Helvetica';font-size:60.02px;fill:#000000" text-anchor="middle">1846028</text>
	<text x="3668.94" y="2674.44" style="font-family:'Helvetica';font-size:60.02px;fill:#000000" text-anchor="middle">1829077</text>
	<text x="1000.15" y="2674.44" style="font-family:'Helvetica';font-size:60.02px;fill:#000000" text-anchor="end">Non-current exposure to NSAIDs</text>
	<text x="1000.15" y="2601.18" style="font-family:'Helvetica';font-size:60.02px;fill:#000000" text-anchor="end">Number at risk</text>
	<line x1="1069.94" y1="2309.25" x2="3859.02" y2="2309.25" style="stroke:#000000;stroke-width:5.76"/>
	<line x1="1133.30" y1="2309.25" x2="1133.30" y2="2349.22" style="stroke:#000000;stroke-width:5.76"/>
	<text x="1133.30" y="2425.17" style="font-family:'Helvetica';font-size:79.94px;fill:#000000" text-anchor="middle">0</text>
	<line x1="1640.43" y1="2309.25" x2="1640.43" y2="2349.22" style="stroke:#000000;stroke-width:5.76"/>
	<text x="1640.43" y="2425.17" style="font-family:'Helvetica';font-size:79.94px;fill:#000000" text-anchor="middle">20</text>
	<line x1="2147.56" y1="2309.25" x2="2147.56" y2="2349.22" style="stroke:#000000;stroke-width:5.76"/>
	<text x="2147.56" y="2425.17" style="font-family:'Helvetica';font-size:79.94px;fill:#000000" text-anchor="middle">40</text>
	<line x1="2654.68" y1="2309.25" x2="2654.68" y2="2349.22" style="stroke:#000000;stroke-width:5.76"/>
	<text x="2654.68" y="2425.17" style="font-family:'Helvetica';font-size:79.94px;fill:#000000" text-anchor="middle">60</text>
	<line x1="3161.81" y1="2309.25" x2="3161.81" y2="2349.22" style="stroke:#000000;stroke-width:5.76"/>
	<text x="3161.81" y="2425.17" style="font-family:'Helvetica';font-size:79.94px;fill:#000000" text-anchor="middle">80</text>
	<line x1="3668.94" y1="2309.25" x2="3668.94" y2="2349.22" style="stroke:#000000;stroke-width:5.76"/>
	<text x="3668.94" y="2425.17" style="font-family:'Helvetica';font-size:79.94px;fill:#000000" text-anchor="middle">100</text>
	<text x="2464.48" y="2515.14" style="font-family:'Helvetica';font-size:79.94px;fill:#000000" text-anchor="middle">Days since 1 Mar 2020</text>
	<rect x="1104.47" y="269.91" width="2720.03" height="186.37" style="fill:#FFFFFF"/>
	<rect x="1107.35" y="272.79" width="2714.27" height="180.61" style="fill:none;stroke:#EAF2F3;stroke-width:5.76"/>
	<line x1="1147.66" y1="363.09" x2="1512.72" y2="363.09" style="stroke:#90353B;stroke-width:8.64"/>
	<line x1="2473.89" y1="363.09" x2="2838.95" y2="363.09" style="stroke:#1A476F;stroke-width:8.64"/>
	<text x="1571.25" y="384.13" style="font-family:'Helvetica';font-size:60.02px;fill:#000000">Current exposure to NSAIDs</text>
	<text x="2897.48" y="384.13" style="font-family:'Helvetica';font-size:60.02px;fill:#000000">Non-current exposure to NSAIDs</text>
	<text x="1744.13" y="187.99" style="font-family:'Helvetica';font-size:99.99px;fill:#1E2D53">Time to death, nsaid population</text>
</svg>
