<?xml version="1.0" encoding="UTF-8" standalone="no"?>
<!-- This is a Stata 16.1 generated SVG file (http://www.stata.com) -->

<svg version="1.1" width="5.50in" height="4.00in" viewBox="0 0 3960 2880" xmlns="http://www.w3.org/2000/svg" xmlns:xlink="http://www.w3.org/1999/xlink">
	<desc>Stata Graph - Graph</desc>
	<rect x="0" y="0" width="3960" height="2880" style="fill:#EAF2F3;stroke:none"/>
	<rect x="0.00" y="0.00" width="3959.88" height="2880.00" style="fill:#FFFFFF"/>
	<rect x="2.88" y="2.88" width="3954.12" height="2874.24" style="fill:none;stroke:#EAF2F3;stroke-width:5.76"/>
	<rect x="1069.94" y="490.93" width="2789.08" height="1818.32" style="fill:#FFFFFF"/>
	<rect x="1072.82" y="493.81" width="2783.32" height="1812.56" style="fill:none;stroke:#FFFFFF;stroke-width:5.76"/>
	<line x1="1069.94" y1="2245.89" x2="3859.02" y2="2245.89" style="stroke:#EAF2F3;stroke-width:8.64"/>
	<line x1="1069.94" y1="1823.02" x2="3859.02" y2="1823.02" style="stroke:#EAF2F3;stroke-width:8.64"/>
	<line x1="1069.94" y1="1400.03" x2="3859.02" y2="1400.03" style="stroke:#EAF2F3;stroke-width:8.64"/>
	<line x1="1069.94" y1="977.16" x2="3859.02" y2="977.16" style="stroke:#EAF2F3;stroke-width:8.64"/>
	<path d=" M1133.30 2246.01 L1133.30 2246.01 L1133.30 2246.01 L1155.95 2246.01 L1155.95 2246.01 L1178.72 2246.01 L1178.72 2246.01 L1201.49 2246.01 L1201.49 2246.01 L1224.26 2246.01 L1224.26 2246.01 L1247.03 2246.01 L1247.03 2246.01 L1269.80 2246.01 L1269.80 2246.01 L1292.57 2246.01 L1292.57 2246.01 L1315.34 2246.01 L1315.34 2246.01 L1338.11 2246.01 L1338.11 2246.01 L1360.76 2246.01 L1360.76 2246.01 L1383.53 2246.01 L1383.53 2246.01 L1406.30 2246.01 L1406.30 2246.01 L1429.07 2246.01 L1429.07 2246.01 L1451.84 2246.01 L1451.84 2246.01 L1474.61 2246.01 L1474.61 2245.89 L1497.38 2245.89 L1497.38 2245.76 L1520.14 2245.76 L1520.14 2245.76 L1542.79 2245.76 L1542.79 2245.76 L1565.56 2245.76 L1565.56 2245.76 L1588.33 2245.76 L1588.33 2245.76 L1611.10 2245.76 L1611.10 2245.64 L1633.87 2245.64 L1633.87 2245.51 L1656.64 2245.51 L1656.64 2245.39 L1679.41 2245.39 L1679.41 2245.02 L1702.18 2245.02 L1702.18 2244.77 L1724.95 2244.77 L1724.95 2244.52 L1747.60 2244.52 L1747.60 2244.28 L1770.37 2244.28 L1770.37 2243.91 L1793.14 2243.91 L1793.14 2243.66 L1815.91 2243.66 L1815.91 2243.29 L1838.68 2243.29 L1838.68 2242.92 L1861.45 2242.92 L1861.45 2242.67 L1884.22 2242.67 L1884.22 2242.05 L1906.99 2242.05 L1906.99 2241.43 L1929.76 2241.43 L1929.76 2240.81 L1952.40 2240.81 L1952.40 2240.44 L1975.17 2240.44 L1975.17 2239.70 L1997.94 2239.70 L1997.94 2238.83 L2020.71 2238.83 L2020.71 2237.84 L2043.48 2237.84 L2043.48 2237.22 L2066.25 2237.22 L2066.25 2236.60 L2089.02 2236.60 L2089.02 2236.11 L2111.79 2236.11 L2111.79 2235.37 L2134.44 2235.37 L2134.44 2234.87 L2157.21 2234.87 L2157.21 2234.13 L2179.98 2234.13 L2179.98 2233.63 L2202.75 2233.63 L2202.75 2232.64 L2225.52 2232.64 L2225.52 2232.15 L2248.29 2232.15 L2248.29 2231.53 L2271.06 2231.53 L2271.06 2230.91 L2293.83 2230.91 L2293.83 2230.17 L2316.60 2230.17 L2316.60 2229.67 L2339.25 2229.67 L2339.25 2229.05 L2362.02 2229.05 L2362.02 2228.56 L2384.79 2228.56 L2384.79 2228.06 L2407.56 2228.06 L2407.56 2227.57 L2430.33 2227.57 L2430.33 2227.20 L2453.10 2227.20 L2453.10 2226.70 L2475.87 2226.70 L2475.87 2226.21 L2498.64 2226.21 L2498.64 2225.84 L2521.28 2225.84 L2521.28 2225.47 L2544.05 2225.47 L2544.05 2225.22 L2566.82 2225.22 L2566.82 2224.85 L2589.59 2224.85 L2589.59 2224.48 L2612.36 2224.48 L2612.36 2224.35 L2635.13 2224.35 L2635.13 2223.98 L2657.90 2223.98 L2657.90 2223.61 L2680.67 2223.61 L2680.67 2223.36 L2703.44 2223.36 L2703.44 2223.11 L2726.09 2223.11 L2726.09 2222.99 L2748.86 2222.99 L2748.86 2222.99 L2771.63 2222.99 L2771.63 2222.50 L2794.40 2222.50 L2794.40 2222.25 L2817.17 2222.25 L2817.17 2222.00 L2839.94 2222.00 L2839.94 2222.00 L2862.71 2222.00 L2862.71 2221.75 L2885.48 2221.75 L2885.48 2221.51 L2908.25 2221.51 L2908.25 2221.38 L2930.89 2221.38 L2930.89 2221.26 L2953.66 2221.26 L2953.66 2221.13 L2976.43 2221.13 L2976.43 2220.89 L2999.20 2220.89 L2999.20 2220.64 L3021.97 2220.64 L3021.97 2220.64 L3044.74 2220.64 L3044.74 2220.52 L3067.51 2220.52 L3067.51 2220.39 L3090.28 2220.39 L3090.28 2220.14 L3112.93 2220.14 L3112.93 2220.02 L3135.70 2220.02 L3135.70 2219.77 L3158.47 2219.77 L3158.47 2219.77 L3181.24 2219.77 L3181.24 2219.65 L3204.01 2219.65 L3204.01 2219.53 L3226.78 2219.53 L3226.78 2219.40 L3249.55 2219.40 L3249.55 2219.28 L3272.32 2219.28 L3272.32 2219.15 L3295.09 2219.15 L3295.09 2219.03 L3317.74 2219.03 L3317.74 2219.03 L3340.51 2219.03 L3340.51 2218.91 L3363.28 2218.91 L3363.28 2218.78 L3386.05 2218.78 L3386.05 2218.78 L3408.82 2218.78 L3408.82 2218.78 L3431.59 2218.78 L3431.59 2218.66 L3454.36 2218.66 L3454.36 2218.66 L3477.13 2218.66 L3477.13 2218.41 L3499.90 2218.41 L3499.90 2218.41 L3522.54 2218.41 L3522.54 2218.41 L3545.31 2218.41 L3545.31 2218.41 L3568.08 2218.41 L3568.08 2218.29 L3590.85 2218.29 L3590.85 2218.29 L3613.62 2218.29 L3613.62 2218.29 L3636.39 2218.29 L3636.39 2218.29 L3659.16 2218.29 L3659.16 2218.29 L3681.93 2218.29 L3681.93 2218.29 L3704.58 2218.29 L3704.58 2218.29 L3727.35 2218.29 L3727.35 2218.29 L3750.12 2218.29 L3750.12 2218.29 L3772.89 2218.29 L3772.89 2218.29 L3795.66 2218.29 L3795.66 2218.29" stroke-linejoin="round" style="fill:none;stroke:#1A476F;stroke-width:8.64"/>
	<path d=" M1133.30 2246.01 L1133.30 2246.01 L1133.30 2246.01 L1155.95 2246.01 L1155.95 2246.01 L1178.72 2246.01 L1178.72 2246.01 L1201.49 2246.01 L1201.49 2246.01 L1224.26 2246.01 L1224.26 2246.01 L1247.03 2246.01 L1247.03 2246.01 L1269.80 2246.01 L1269.80 2246.01 L1292.57 2246.01 L1292.57 2246.01 L1315.34 2246.01 L1315.34 2246.01 L1338.11 2246.01 L1338.11 2246.01 L1360.76 2246.01 L1360.76 2246.01 L1383.53 2246.01 L1383.53 2246.01 L1406.30 2246.01 L1406.30 2246.01 L1429.07 2246.01 L1429.07 2246.01 L1451.84 2246.01 L1451.84 2246.01 L1474.61 2246.01 L1474.61 2246.01 L1497.38 2246.01 L1497.38 2246.01 L1520.14 2246.01 L1520.14 2246.01 L1542.79 2246.01 L1542.79 2246.01 L1565.56 2246.01 L1565.56 2246.01 L1588.33 2246.01 L1588.33 2246.01 L1611.10 2246.01 L1611.10 2245.76 L1633.87 2245.76 L1633.87 2245.64 L1656.64 2245.64 L1656.64 2245.27 L1679.41 2245.27 L1679.41 2245.14 L1702.18 2245.14 L1702.18 2245.02 L1724.95 2245.02 L1724.95 2244.52 L1747.60 2244.52 L1747.60 2244.52 L1770.37 2244.52 L1770.37 2244.28 L1793.14 2244.28 L1793.14 2243.29 L1815.91 2243.29 L1815.91 2242.79 L1838.68 2242.79 L1838.68 2241.55 L1861.45 2241.55 L1861.45 2241.18 L1884.22 2241.18 L1884.22 2240.07 L1906.99 2240.07 L1906.99 2239.57 L1929.76 2239.57 L1929.76 2238.83 L1952.40 2238.83 L1952.40 2238.34 L1975.17 2238.34 L1975.17 2237.47 L1997.94 2237.47 L1997.94 2236.11 L2020.71 2236.11 L2020.71 2234.25 L2043.48 2234.25 L2043.48 2233.26 L2066.25 2233.26 L2066.25 2232.40 L2089.02 2232.40 L2089.02 2231.28 L2111.79 2231.28 L2111.79 2230.29 L2134.44 2230.29 L2134.44 2229.55 L2157.21 2229.55 L2157.21 2229.05 L2179.98 2229.05 L2179.98 2228.31 L2202.75 2228.31 L2202.75 2227.82 L2225.52 2227.82 L2225.52 2227.20 L2248.29 2227.20 L2248.29 2226.46 L2271.06 2226.46 L2271.06 2225.71 L2293.83 2225.71 L2293.83 2224.97 L2316.60 2224.97 L2316.60 2224.60 L2339.25 2224.60 L2339.25 2223.86 L2362.02 2223.86 L2362.02 2223.24 L2384.79 2223.24 L2384.79 2222.74 L2407.56 2222.74 L2407.56 2222.25 L2430.33 2222.25 L2430.33 2220.76 L2453.10 2220.76 L2453.10 2220.02 L2475.87 2220.02 L2475.87 2219.77 L2498.64 2219.77 L2498.64 2219.28 L2521.28 2219.28 L2521.28 2218.78 L2544.05 2218.78 L2544.05 2218.66 L2566.82 2218.66 L2566.82 2218.41 L2589.59 2218.41 L2589.59 2217.92 L2612.36 2217.92 L2612.36 2217.30 L2635.13 2217.30 L2635.13 2217.17 L2657.90 2217.17 L2657.90 2217.05 L2680.67 2217.05 L2680.67 2217.05 L2703.44 2217.05 L2703.44 2216.56 L2726.09 2216.56 L2726.09 2216.56 L2748.86 2216.56 L2748.86 2216.56 L2771.63 2216.56 L2771.63 2216.06 L2794.40 2216.06 L2794.40 2215.94 L2817.17 2215.94 L2817.17 2215.81 L2839.94 2215.81 L2839.94 2215.81 L2862.71 2215.81 L2862.71 2215.57 L2885.48 2215.57 L2885.48 2215.44 L2908.25 2215.44 L2908.25 2215.07 L2930.89 2215.07 L2930.89 2214.95 L2953.66 2214.95 L2953.66 2214.70 L2976.43 2214.70 L2976.43 2214.33 L2999.20 2214.33 L2999.20 2214.33 L3021.97 2214.33 L3021.97 2214.33 L3044.74 2214.33 L3044.74 2214.33 L3067.51 2214.33 L3067.51 2213.83 L3090.28 2213.83 L3090.28 2213.59 L3112.93 2213.59 L3112.93 2213.59 L3135.70 2213.59 L3135.70 2213.59 L3158.47 2213.59 L3158.47 2213.21 L3181.24 2213.21 L3181.24 2213.09 L3204.01 2213.09 L3204.01 2213.09 L3226.78 2213.09 L3226.78 2212.97 L3249.55 2212.97 L3249.55 2212.97 L3272.32 2212.97 L3272.32 2212.60 L3295.09 2212.60 L3295.09 2212.60 L3317.74 2212.60 L3317.74 2212.47 L3340.51 2212.47 L3340.51 2212.10 L3363.28 2212.10 L3363.28 2212.10 L3386.05 2212.10 L3386.05 2212.10 L3408.82 2212.10 L3408.82 2212.10 L3431.59 2212.10 L3431.59 2212.10 L3454.36 2212.10 L3454.36 2212.10 L3477.13 2212.10 L3477.13 2211.85 L3499.90 2211.85 L3499.90 2211.85 L3522.54 2211.85 L3522.54 2211.61 L3545.31 2211.61 L3545.31 2211.61 L3568.08 2211.61 L3568.08 2211.61 L3590.85 2211.61 L3590.85 2211.61 L3613.62 2211.61 L3613.62 2211.61 L3636.39 2211.61 L3636.39 2211.61 L3795.66 2211.61 L3795.66 2211.61" stroke-linejoin="round" style="fill:none;stroke:#90353B;stroke-width:8.64"/>
	<line x1="1069.94" y1="2309.25" x2="1069.94" y2="490.93" style="stroke:#000000;stroke-width:5.76"/>
	<line x1="1069.94" y1="2245.89" x2="1029.97" y2="2245.89" style="stroke:#000000;stroke-width:5.76"/>
	<text x="1009.92" y="2273.90" style="font-family:'Helvetica';font-size:79.94px;fill:#000000" text-anchor="end">0.000</text>
	<line x1="1069.94" y1="1823.02" x2="1029.97" y2="1823.02" style="stroke:#000000;stroke-width:5.76"/>
	<text x="1009.92" y="1851.03" style="font-family:'Helvetica';font-size:79.94px;fill:#000000" text-anchor="end">0.005</text>
	<line x1="1069.94" y1="1400.03" x2="1029.97" y2="1400.03" style="stroke:#000000;stroke-width:5.76"/>
	<text x="1009.92" y="1428.04" style="font-family:'Helvetica';font-size:79.94px;fill:#000000" text-anchor="end">0.010</text>
	<line x1="1069.94" y1="977.16" x2="1029.97" y2="977.16" style="stroke:#000000;stroke-width:5.76"/>
	<text x="1009.92" y="1005.17" style="font-family:'Helvetica';font-size:79.94px;fill:#000000" text-anchor="end">0.015</text>
	<line x1="1069.94" y1="554.29" x2="1029.97" y2="554.29" style="stroke:#000000;stroke-width:5.76"/>
	<text x="1009.92" y="582.31" style="font-family:'Helvetica';font-size:79.94px;fill:#000000" text-anchor="end">0.020</text>
	<text x="1133.30" y="2747.83" style="font-family:'Helvetica';font-size:60.02px;fill:#000000" text-anchor="middle">535545</text>
	<text x="1588.45" y="2747.83" style="font-family:'Helvetica';font-size:60.02px;fill:#000000" text-anchor="middle">535324</text>
	<text x="2043.48" y="2747.83" style="font-family:'Helvetica';font-size:60.02px;fill:#000000" text-anchor="middle">535003</text>
	<text x="2498.64" y="2747.83" style="font-family:'Helvetica';font-size:60.02px;fill:#000000" text-anchor="middle">534708</text>
	<text x="2953.79" y="2747.83" style="font-family:'Helvetica';font-size:60.02px;fill:#000000" text-anchor="middle">534527</text>
	<text x="3408.82" y="2747.83" style="font-family:'Helvetica';font-size:60.02px;fill:#000000" text-anchor="middle">534334</text>
	<text x="1000.15" y="2747.83" style="font-family:'Helvetica';font-size:60.02px;fill:#000000" text-anchor="end">Current exposure to NSAIDs</text>
	<text x="1133.30" y="2674.44" style="font-family:'Helvetica';font-size:60.02px;fill:#000000" text-anchor="middle">1924217</text>
	<text x="1588.45" y="2674.44" style="font-family:'Helvetica';font-size:60.02px;fill:#000000" text-anchor="middle">1896248</text>
	<text x="2043.48" y="2674.44" style="font-family:'Helvetica';font-size:60.02px;fill:#000000" text-anchor="middle">1880421</text>
	<text x="2498.64" y="2674.44" style="font-family:'Helvetica';font-size:60.02px;fill:#000000" text-anchor="middle">1863792</text>
	<text x="2953.79" y="2674.44" style="font-family:'Helvetica';font-size:60.02px;fill:#000000" text-anchor="middle">1846028</text>
	<text x="3408.82" y="2674.44" style="font-family:'Helvetica';font-size:60.02px;fill:#000000" text-anchor="middle">1829077</text>
	<text x="1000.15" y="2674.44" style="font-family:'Helvetica';font-size:60.02px;fill:#000000" text-anchor="end">Non-current exposure to NSAIDs</text>
	<text x="1000.15" y="2601.18" style="font-family:'Helvetica';font-size:60.02px;fill:#000000" text-anchor="end">Number at risk</text>
	<line x1="1069.94" y1="2309.25" x2="3859.02" y2="2309.25" style="stroke:#000000;stroke-width:5.76"/>
	<line x1="1133.30" y1="2309.25" x2="1133.30" y2="2349.22" style="stroke:#000000;stroke-width:5.76"/>
	<text x="1133.30" y="2425.17" style="font-family:'Helvetica';font-size:79.94px;fill:#000000" text-anchor="middle">0</text>
	<line x1="1588.45" y1="2309.25" x2="1588.45" y2="2349.22" style="stroke:#000000;stroke-width:5.76"/>
	<text x="1588.45" y="2425.17" style="font-family:'Helvetica';font-size:79.94px;fill:#000000" text-anchor="middle">20</text>
	<line x1="2043.48" y1="2309.25" x2="2043.48" y2="2349.22" style="stroke:#000000;stroke-width:5.76"/>
	<text x="2043.48" y="2425.17" style="font-family:'Helvetica';font-size:79.94px;fill:#000000" text-anchor="middle">40</text>
	<line x1="2498.64" y1="2309.25" x2="2498.64" y2="2349.22" style="stroke:#000000;stroke-width:5.76"/>
	<text x="2498.64" y="2425.17" style="font-family:'Helvetica';font-size:79.94px;fill:#000000" text-anchor="middle">60</text>
	<line x1="2953.79" y1="2309.25" x2="2953.79" y2="2349.22" style="stroke:#000000;stroke-width:5.76"/>
	<text x="2953.79" y="2425.17" style="font-family:'Helvetica';font-size:79.94px;fill:#000000" text-anchor="middle">80</text>
	<line x1="3408.82" y1="2309.25" x2="3408.82" y2="2349.22" style="stroke:#000000;stroke-width:5.76"/>
	<text x="3408.82" y="2425.17" style="font-family:'Helvetica';font-size:79.94px;fill:#000000" text-anchor="middle">100</text>
	<text x="2464.48" y="2515.14" style="font-family:'Helvetica';font-size:79.94px;fill:#000000" text-anchor="middle">Days since 1 Mar 2020</text>
	<rect x="1104.47" y="269.91" width="2720.03" height="186.37" style="fill:#FFFFFF"/>
	<rect x="1107.35" y="272.79" width="2714.27" height="180.61" style="fill:none;stroke:#EAF2F3;stroke-width:5.76"/>
	<line x1="1147.66" y1="363.09" x2="1512.72" y2="363.09" style="stroke:#90353B;stroke-width:8.64"/>
	<line x1="2473.89" y1="363.09" x2="2838.95" y2="363.09" style="stroke:#1A476F;stroke-width:8.64"/>
	<text x="1571.25" y="384.13" style="font-family:'Helvetica';font-size:60.02px;fill:#000000">Current exposure to NSAIDs</text>
	<text x="2897.48" y="384.13" style="font-family:'Helvetica';font-size:60.02px;fill:#000000">Non-current exposure to NSAIDs</text>
	<text x="1744.13" y="187.99" style="font-family:'Helvetica';font-size:99.99px;fill:#1E2D53">Time to death, nsaid population</text>
</svg>
