<?xml version="1.0" encoding="UTF-8" standalone="no"?>
<!-- This is a Stata 16.1 generated SVG file (http://www.stata.com) -->

<svg version="1.1" width="5.50in" height="4.00in" viewBox="0 0 3960 2880" xmlns="http://www.w3.org/2000/svg" xmlns:xlink="http://www.w3.org/1999/xlink">
	<desc>Stata Graph - Graph</desc>
	<rect x="0" y="0" width="3960" height="2880" style="fill:#EAF2F3;stroke:none"/>
	<rect x="0.00" y="0.00" width="3959.88" height="2880.00" style="fill:#FFFFFF"/>
	<rect x="2.88" y="2.88" width="3954.12" height="2874.24" style="fill:none;stroke:#EAF2F3;stroke-width:5.76"/>
	<rect x="1038.88" y="490.93" width="2802.94" height="1818.32" style="fill:#FFFFFF"/>
	<rect x="1041.76" y="493.81" width="2797.18" height="1812.56" style="fill:none;stroke:#FFFFFF;stroke-width:5.76"/>
	<line x1="1038.88" y1="2245.89" x2="3841.82" y2="2245.89" style="stroke:#EAF2F3;stroke-width:8.64"/>
	<line x1="1038.88" y1="1907.54" x2="3841.82" y2="1907.54" style="stroke:#EAF2F3;stroke-width:8.64"/>
	<line x1="1038.88" y1="1569.20" x2="3841.82" y2="1569.20" style="stroke:#EAF2F3;stroke-width:8.64"/>
	<line x1="1038.88" y1="1230.86" x2="3841.82" y2="1230.86" style="stroke:#EAF2F3;stroke-width:8.64"/>
	<line x1="1038.88" y1="892.51" x2="3841.82" y2="892.51" style="stroke:#EAF2F3;stroke-width:8.64"/>
	<path d=" M1102.24 2246.01 L1102.24 2246.01 L1102.24 2246.01 L1126.62 2246.01 L1126.62 2245.76 L1150.88 2245.76 L1150.88 2245.76 L1175.25 2245.76 L1175.25 2245.76 L1199.51 2245.76 L1199.51 2245.76 L1223.89 2245.76 L1223.89 2245.76 L1248.27 2245.76 L1248.27 2245.76 L1272.52 2245.76 L1272.52 2245.76 L1296.90 2245.76 L1296.90 2245.76 L1321.15 2245.76 L1321.15 2245.76 L1345.53 2245.76 L1345.53 2245.76 L1369.79 2245.76 L1369.79 2245.76 L1394.17 2245.76 L1394.17 2245.76 L1418.55 2245.76 L1418.55 2245.76 L1442.80 2245.76 L1442.80 2245.76 L1467.18 2245.76 L1467.18 2245.51 L1491.43 2245.51 L1491.43 2245.27 L1515.81 2245.27 L1515.81 2244.90 L1540.19 2244.90 L1540.19 2244.90 L1564.45 2244.90 L1564.45 2244.65 L1588.83 2244.65 L1588.83 2243.53 L1613.08 2243.53 L1613.08 2242.42 L1637.46 2242.42 L1637.46 2241.31 L1661.84 2241.31 L1661.84 2238.71 L1686.09 2238.71 L1686.09 2236.48 L1710.47 2236.48 L1710.47 2232.89 L1734.73 2232.89 L1734.73 2228.93 L1759.11 2228.93 L1759.11 2225.47 L1783.48 2225.47 L1783.48 2220.76 L1807.74 2220.76 L1807.74 2213.96 L1832.12 2213.96 L1832.12 2207.52 L1856.37 2207.52 L1856.37 2198.73 L1880.75 2198.73 L1880.75 2191.43 L1905.13 2191.43 L1905.13 2178.69 L1929.39 2178.69 L1929.39 2166.06 L1953.77 2166.06 L1953.77 2153.69 L1978.02 2153.69 L1978.02 2144.90 L2002.40 2144.90 L2002.40 2131.66 L2026.78 2131.66 L2026.78 2115.70 L2051.03 2115.70 L2051.03 2104.43 L2075.41 2104.43 L2075.41 2089.21 L2099.67 2089.21 L2099.67 2076.84 L2124.05 2076.84 L2124.05 2063.35 L2148.30 2063.35 L2148.30 2052.83 L2172.68 2052.83 L2172.68 2040.70 L2197.06 2040.70 L2197.06 2029.81 L2221.31 2029.81 L2221.31 2019.04 L2245.69 2019.04 L2245.69 2005.80 L2269.95 2005.80 L2269.95 1994.05 L2294.32 1994.05 L2294.32 1981.92 L2318.70 1981.92 L2318.70 1970.41 L2342.96 1970.41 L2342.96 1960.88 L2367.34 1960.88 L2367.34 1949.37 L2391.59 1949.37 L2391.59 1939.72 L2415.97 1939.72 L2415.97 1931.92 L2440.35 1931.92 L2440.35 1923.75 L2464.61 1923.75 L2464.61 1913.85 L2488.98 1913.85 L2488.98 1905.44 L2513.24 1905.44 L2513.24 1895.04 L2537.62 1895.04 L2537.62 1886.38 L2562.00 1886.38 L2562.00 1879.08 L2586.25 1879.08 L2586.25 1870.29 L2610.63 1870.29 L2610.63 1862.50 L2634.89 1862.50 L2634.89 1852.97 L2659.26 1852.97 L2659.26 1845.91 L2683.64 1845.91 L2683.64 1839.97 L2707.90 1839.97 L2707.90 1833.78 L2732.28 1833.78 L2732.28 1828.96 L2756.53 1828.96 L2756.53 1823.39 L2780.91 1823.39 L2780.91 1816.58 L2805.16 1816.58 L2805.16 1812.50 L2829.54 1812.50 L2829.54 1806.56 L2853.92 1806.56 L2853.92 1803.09 L2878.18 1803.09 L2878.18 1797.28 L2902.56 1797.28 L2902.56 1793.69 L2926.81 1793.69 L2926.81 1788.61 L2951.19 1788.61 L2951.19 1783.54 L2975.57 1783.54 L2975.57 1779.83 L2999.82 1779.83 L2999.82 1773.89 L3024.20 1773.89 L3024.20 1770.05 L3048.46 1770.05 L3048.46 1765.60 L3072.84 1765.60 L3072.84 1761.27 L3097.22 1761.27 L3097.22 1757.92 L3121.47 1757.92 L3121.47 1752.97 L3145.85 1752.97 L3145.85 1749.88 L3170.10 1749.88 L3170.10 1744.81 L3194.48 1744.81 L3194.48 1739.73 L3218.86 1739.73 L3218.86 1737.13 L3243.12 1737.13 L3243.12 1733.54 L3267.49 1733.54 L3267.49 1731.32 L3291.75 1731.32 L3291.75 1729.83 L3316.13 1729.83 L3316.13 1727.98 L3340.51 1727.98 L3340.51 1725.62 L3364.76 1725.62 L3364.76 1724.51 L3389.14 1724.51 L3389.14 1721.79 L3413.40 1721.79 L3413.40 1718.94 L3437.78 1718.94 L3437.78 1717.21 L3462.15 1717.21 L3462.15 1715.60 L3486.41 1715.60 L3486.41 1713.37 L3510.79 1713.37 L3510.79 1711.89 L3535.04 1711.89 L3535.04 1710.03 L3559.42 1710.03 L3559.42 1708.55 L3583.68 1708.55 L3583.68 1706.57 L3608.05 1706.57 L3608.05 1705.70 L3632.43 1705.70 L3632.43 1704.59 L3656.69 1704.59 L3656.69 1703.47" stroke-linejoin="round" style="fill:none;stroke:#1A476F;stroke-width:8.64"/>
	<path d=" M1102.24 2246.01 L1102.24 2246.01 L1102.24 2246.01 L1126.62 2246.01 L1126.62 2246.01 L1150.88 2246.01 L1150.88 2246.01 L1175.25 2246.01 L1175.25 2246.01 L1199.51 2246.01 L1199.51 2246.01 L1223.89 2246.01 L1223.89 2246.01 L1248.27 2246.01 L1248.27 2246.01 L1272.52 2246.01 L1272.52 2246.01 L1296.90 2246.01 L1296.90 2246.01 L1321.15 2246.01 L1321.15 2246.01 L1345.53 2246.01 L1345.53 2246.01 L1369.79 2246.01 L1369.79 2246.01 L1394.17 2246.01 L1394.17 2246.01 L1418.55 2246.01 L1418.55 2246.01 L1442.80 2246.01 L1442.80 2246.01 L1467.18 2246.01 L1467.18 2246.01 L1491.43 2246.01 L1491.43 2246.01 L1515.81 2246.01 L1515.81 2246.01 L1540.19 2246.01 L1540.19 2246.01 L1564.45 2246.01 L1564.45 2246.01 L1588.83 2246.01 L1588.83 2246.01 L1613.08 2246.01 L1613.08 2244.03 L1637.46 2244.03 L1637.46 2242.05 L1661.84 2242.05 L1661.84 2240.19 L1686.09 2240.19 L1686.09 2238.21 L1710.47 2238.21 L1710.47 2238.21 L1734.73 2238.21 L1734.73 2238.21 L1759.11 2238.21 L1759.11 2238.21 L1783.48 2238.21 L1783.48 2238.21 L1807.74 2238.21 L1807.74 2232.52 L1832.12 2232.52 L1832.12 2230.54 L1856.37 2230.54 L1856.37 2222.87 L1880.75 2222.87 L1880.75 2220.89 L1905.13 2220.89 L1905.13 2213.21 L1929.39 2213.21 L1929.39 2209.38 L1953.77 2209.38 L1953.77 2203.56 L1978.02 2203.56 L1978.02 2199.72 L2002.40 2199.72 L2002.40 2190.07 L2026.78 2190.07 L2026.78 2184.26 L2051.03 2184.26 L2051.03 2170.77 L2075.41 2170.77 L2075.41 2161.11 L2099.67 2161.11 L2099.67 2157.28 L2124.05 2157.28 L2124.05 2145.64 L2148.30 2145.64 L2148.30 2141.81 L2172.68 2141.81 L2172.68 2139.95 L2197.06 2139.95 L2197.06 2135.99 L2221.31 2135.99 L2221.31 2134.14 L2245.69 2134.14 L2245.69 2130.30 L2269.95 2130.30 L2269.95 2126.34 L2294.32 2126.34 L2294.32 2118.67 L2318.70 2118.67 L2318.70 2110.99 L2342.96 2110.99 L2342.96 2105.18 L2367.34 2105.18 L2367.34 2105.18 L2391.59 2105.18 L2391.59 2101.34 L2415.97 2101.34 L2415.97 2097.50 L2440.35 2097.50 L2440.35 2095.52 L2464.61 2095.52 L2464.61 2089.71 L2488.98 2089.71 L2488.98 2080.06 L2513.24 2080.06 L2513.24 2074.24 L2537.62 2074.24 L2537.62 2070.40 L2562.00 2070.40 L2562.00 2068.55 L2610.63 2068.55 L2610.63 2068.55 L2634.89 2068.55 L2634.89 2066.57 L2659.26 2066.57 L2659.26 2062.73 L2683.64 2062.73 L2683.64 2054.93 L2707.90 2054.93 L2707.90 2054.93 L2732.28 2054.93 L2732.28 2053.08 L2756.53 2053.08 L2756.53 2053.08 L2780.91 2053.08 L2780.91 2049.24 L2805.16 2049.24 L2805.16 2049.24 L2829.54 2049.24 L2829.54 2049.24 L2853.92 2049.24 L2853.92 2043.42 L2878.18 2043.42 L2878.18 2041.44 L2902.56 2041.44 L2902.56 2039.59 L2926.81 2039.59 L2926.81 2039.59 L2951.19 2039.59 L2951.19 2037.61 L2975.57 2037.61 L2975.57 2035.63 L2999.82 2035.63 L2999.82 2031.79 L3024.20 2031.79 L3024.20 2031.79 L3048.46 2031.79 L3048.46 2027.95 L3072.84 2027.95 L3072.84 2027.95 L3097.22 2027.95 L3097.22 2027.95 L3121.47 2027.95 L3121.47 2027.95 L3145.85 2027.95 L3145.85 2027.95 L3170.10 2027.95 L3170.10 2025.97 L3194.48 2025.97 L3194.48 2024.12 L3218.86 2024.12 L3218.86 2024.12 L3243.12 2024.12 L3243.12 2024.12 L3267.49 2024.12 L3267.49 2024.12 L3291.75 2024.12 L3291.75 2024.12 L3316.13 2024.12 L3316.13 2024.12 L3340.51 2024.12 L3340.51 2022.14 L3364.76 2022.14 L3364.76 2022.14 L3389.14 2022.14 L3389.14 2018.30 L3437.78 2018.30 L3437.78 2016.32 L3462.15 2016.32 L3462.15 2014.47 L3486.41 2014.47 L3486.41 2014.47 L3510.79 2014.47 L3510.79 2014.47 L3535.04 2014.47 L3535.04 2014.47 L3559.42 2014.47 L3559.42 2014.47 L3583.68 2014.47 L3583.68 2014.47 L3608.05 2014.47 L3608.05 2010.63 L3632.43 2010.63 L3632.43 2010.63 L3656.69 2010.63 L3656.69 2008.65" stroke-linejoin="round" style="fill:none;stroke:#90353B;stroke-width:8.64"/>
	<line x1="1038.88" y1="2309.25" x2="1038.88" y2="490.93" style="stroke:#000000;stroke-width:5.76"/>
	<line x1="1038.88" y1="2245.89" x2="998.91" y2="2245.89" style="stroke:#000000;stroke-width:5.76"/>
	<text x="978.99" y="2273.90" style="font-family:'Helvetica';font-size:79.94px;fill:#000000" text-anchor="end">0.000</text>
	<line x1="1038.88" y1="1907.54" x2="998.91" y2="1907.54" style="stroke:#000000;stroke-width:5.76"/>
	<text x="978.99" y="1935.55" style="font-family:'Helvetica';font-size:79.94px;fill:#000000" text-anchor="end">0.001</text>
	<line x1="1038.88" y1="1569.20" x2="998.91" y2="1569.20" style="stroke:#000000;stroke-width:5.76"/>
	<text x="978.99" y="1597.21" style="font-family:'Helvetica';font-size:79.94px;fill:#000000" text-anchor="end">0.002</text>
	<line x1="1038.88" y1="1230.86" x2="998.91" y2="1230.86" style="stroke:#000000;stroke-width:5.76"/>
	<text x="978.99" y="1258.87" style="font-family:'Helvetica';font-size:79.94px;fill:#000000" text-anchor="end">0.003</text>
	<line x1="1038.88" y1="892.51" x2="998.91" y2="892.51" style="stroke:#000000;stroke-width:5.76"/>
	<text x="978.99" y="920.52" style="font-family:'Helvetica';font-size:79.94px;fill:#000000" text-anchor="end">0.004</text>
	<line x1="1038.88" y1="554.29" x2="998.91" y2="554.29" style="stroke:#000000;stroke-width:5.76"/>
	<text x="978.99" y="582.31" style="font-family:'Helvetica';font-size:79.94px;fill:#000000" text-anchor="end">0.005</text>
	<text x="1102.24" y="2747.83" style="font-family:'Helvetica';font-size:60.02px;fill:#000000" text-anchor="middle">175631</text>
	<text x="1588.83" y="2747.83" style="font-family:'Helvetica';font-size:60.02px;fill:#000000" text-anchor="middle">175530</text>
	<text x="2075.41" y="2747.83" style="font-family:'Helvetica';font-size:60.02px;fill:#000000" text-anchor="middle">175376</text>
	<text x="2562.00" y="2747.83" style="font-family:'Helvetica';font-size:60.02px;fill:#000000" text-anchor="middle">175226</text>
	<text x="3048.58" y="2747.83" style="font-family:'Helvetica';font-size:60.02px;fill:#000000" text-anchor="middle">175134</text>
	<text x="3535.17" y="2747.83" style="font-family:'Helvetica';font-size:60.02px;fill:#000000" text-anchor="middle">175044</text>
	<text x="968.47" y="2747.83" style="font-family:'Helvetica';font-size:60.02px;fill:#000000" text-anchor="end">Current exposure to NSAIDs</text>
	<text x="1102.24" y="2674.44" style="font-family:'Helvetica';font-size:60.02px;fill:#000000" text-anchor="middle">1535431</text>
	<text x="1588.83" y="2674.44" style="font-family:'Helvetica';font-size:60.02px;fill:#000000" text-anchor="middle">1533943</text>
	<text x="2075.41" y="2674.44" style="font-family:'Helvetica';font-size:60.02px;fill:#000000" text-anchor="middle">1531537</text>
	<text x="2562.00" y="2674.44" style="font-family:'Helvetica';font-size:60.02px;fill:#000000" text-anchor="middle">1528721</text>
	<text x="3048.58" y="2674.44" style="font-family:'Helvetica';font-size:60.02px;fill:#000000" text-anchor="middle">1526747</text>
	<text x="3535.17" y="2674.44" style="font-family:'Helvetica';font-size:60.02px;fill:#000000" text-anchor="middle">1525212</text>
	<text x="968.47" y="2674.44" style="font-family:'Helvetica';font-size:60.02px;fill:#000000" text-anchor="end">Non-current exposure to NSAIDs</text>
	<text x="968.47" y="2601.18" style="font-family:'Helvetica';font-size:60.02px;fill:#000000" text-anchor="end">Number at risk</text>
	<line x1="1038.88" y1="2309.25" x2="3841.82" y2="2309.25" style="stroke:#000000;stroke-width:5.76"/>
	<line x1="1102.24" y1="2309.25" x2="1102.24" y2="2349.22" style="stroke:#000000;stroke-width:5.76"/>
	<text x="1102.24" y="2425.17" style="font-family:'Helvetica';font-size:79.94px;fill:#000000" text-anchor="middle">0</text>
	<line x1="1588.83" y1="2309.25" x2="1588.83" y2="2349.22" style="stroke:#000000;stroke-width:5.76"/>
	<text x="1588.83" y="2425.17" style="font-family:'Helvetica';font-size:79.94px;fill:#000000" text-anchor="middle">20</text>
	<line x1="2075.41" y1="2309.25" x2="2075.41" y2="2349.22" style="stroke:#000000;stroke-width:5.76"/>
	<text x="2075.41" y="2425.17" style="font-family:'Helvetica';font-size:79.94px;fill:#000000" text-anchor="middle">40</text>
	<line x1="2562.00" y1="2309.25" x2="2562.00" y2="2349.22" style="stroke:#000000;stroke-width:5.76"/>
	<text x="2562.00" y="2425.17" style="font-family:'Helvetica';font-size:79.94px;fill:#000000" text-anchor="middle">60</text>
	<line x1="3048.58" y1="2309.25" x2="3048.58" y2="2349.22" style="stroke:#000000;stroke-width:5.76"/>
	<text x="3048.58" y="2425.17" style="font-family:'Helvetica';font-size:79.94px;fill:#000000" text-anchor="middle">80</text>
	<line x1="3535.17" y1="2309.25" x2="3535.17" y2="2349.22" style="stroke:#000000;stroke-width:5.76"/>
	<text x="3535.17" y="2425.17" style="font-family:'Helvetica';font-size:79.94px;fill:#000000" text-anchor="middle">100</text>
	<text x="2440.35" y="2515.14" style="font-family:'Helvetica';font-size:79.94px;fill:#000000" text-anchor="middle">Days since 1 Mar 2020</text>
	<rect x="1073.53" y="269.91" width="2733.64" height="186.37" style="fill:#FFFFFF"/>
	<rect x="1076.41" y="272.79" width="2727.88" height="180.61" style="fill:none;stroke:#EAF2F3;stroke-width:5.76"/>
	<line x1="1116.72" y1="363.09" x2="1483.64" y2="363.09" style="stroke:#90353B;stroke-width:8.64"/>
	<line x1="2449.76" y1="363.09" x2="2816.80" y2="363.09" style="stroke:#1A476F;stroke-width:8.64"/>
	<text x="1542.42" y="384.13" style="font-family:'Helvetica';font-size:60.02px;fill:#000000">Current exposure to NSAIDs</text>
	<text x="2875.58" y="384.13" style="font-family:'Helvetica';font-size:60.02px;fill:#000000">Non-current exposure to NSAIDs</text>
	<text x="1056.21" y="187.99" style="font-family:'Helvetica';font-size:99.99px;fill:#1E2D53">Time to death, Rheumatoid_arthritis_&amp;_osteoarthritis population</text>
</svg>
