<?xml version="1.0" encoding="UTF-8" standalone="no"?>
<!-- This is a Stata 16.1 generated SVG file (http://www.stata.com) -->

<svg version="1.1" width="5.50in" height="4.00in" viewBox="0 0 3960 2880" xmlns="http://www.w3.org/2000/svg" xmlns:xlink="http://www.w3.org/1999/xlink">
	<desc>Stata Graph - Graph</desc>
	<rect x="0" y="0" width="3960" height="2880" style="fill:#EAF2F3;stroke:none"/>
	<rect x="0.00" y="0.00" width="3959.88" height="2880.00" style="fill:#FFFFFF"/>
	<rect x="2.88" y="2.88" width="3954.12" height="2874.24" style="fill:none;stroke:#EAF2F3;stroke-width:5.76"/>
	<rect x="1038.88" y="490.93" width="2802.94" height="1818.32" style="fill:#FFFFFF"/>
	<rect x="1041.76" y="493.81" width="2797.18" height="1812.56" style="fill:none;stroke:#FFFFFF;stroke-width:5.76"/>
	<line x1="1038.88" y1="2245.89" x2="3841.82" y2="2245.89" style="stroke:#EAF2F3;stroke-width:8.64"/>
	<line x1="1038.88" y1="1907.54" x2="3841.82" y2="1907.54" style="stroke:#EAF2F3;stroke-width:8.64"/>
	<line x1="1038.88" y1="1569.20" x2="3841.82" y2="1569.20" style="stroke:#EAF2F3;stroke-width:8.64"/>
	<line x1="1038.88" y1="1230.86" x2="3841.82" y2="1230.86" style="stroke:#EAF2F3;stroke-width:8.64"/>
	<line x1="1038.88" y1="892.51" x2="3841.82" y2="892.51" style="stroke:#EAF2F3;stroke-width:8.64"/>
	<path d=" M1102.24 2246.01 L1102.24 2246.01 L1102.24 2246.01 L1126.62 2246.01 L1126.62 2245.76 L1150.88 2245.76 L1150.88 2245.76 L1175.25 2245.76 L1175.25 2245.76 L1199.51 2245.76 L1199.51 2245.76 L1223.89 2245.76 L1223.89 2245.76 L1248.27 2245.76 L1248.27 2245.76 L1272.52 2245.76 L1272.52 2245.76 L1296.90 2245.76 L1296.90 2245.76 L1321.15 2245.76 L1321.15 2245.76 L1345.53 2245.76 L1345.53 2245.76 L1369.79 2245.76 L1369.79 2245.76 L1394.17 2245.76 L1394.17 2245.76 L1418.55 2245.76 L1418.55 2245.76 L1442.80 2245.76 L1442.80 2245.76 L1467.18 2245.76 L1467.18 2245.51 L1491.43 2245.51 L1491.43 2245.27 L1515.81 2245.27 L1515.81 2245.02 L1540.19 2245.02 L1540.19 2245.02 L1564.45 2245.02 L1564.45 2244.77 L1588.83 2244.77 L1588.83 2243.53 L1613.08 2243.53 L1613.08 2242.92 L1637.46 2242.92 L1637.46 2241.68 L1661.84 2241.68 L1661.84 2239.82 L1686.09 2239.82 L1686.09 2237.35 L1710.47 2237.35 L1710.47 2234.25 L1734.73 2234.25 L1734.73 2230.79 L1759.11 2230.79 L1759.11 2227.69 L1783.48 2227.69 L1783.48 2223.61 L1807.74 2223.61 L1807.74 2217.67 L1832.12 2217.67 L1832.12 2211.73 L1856.37 2211.73 L1856.37 2203.56 L1880.75 2203.56 L1880.75 2196.63 L1905.13 2196.63 L1905.13 2185.49 L1929.39 2185.49 L1929.39 2173.74 L1953.77 2173.74 L1953.77 2162.35 L1978.02 2162.35 L1978.02 2153.69 L2002.40 2153.69 L2002.40 2142.92 L2026.78 2142.92 L2026.78 2128.69 L2051.03 2128.69 L2051.03 2118.54 L2075.41 2118.54 L2075.41 2104.31 L2099.67 2104.31 L2099.67 2093.79 L2124.05 2093.79 L2124.05 2080.80 L2148.30 2080.80 L2148.30 2071.27 L2172.68 2071.27 L2172.68 2060.50 L2197.06 2060.50 L2197.06 2051.22 L2221.31 2051.22 L2221.31 2041.82 L2245.69 2041.82 L2245.69 2029.44 L2269.95 2029.44 L2269.95 2017.93 L2294.32 2017.93 L2294.32 2007.16 L2318.70 2007.16 L2318.70 1996.15 L2342.96 1996.15 L2342.96 1987.49 L2367.34 1987.49 L2367.34 1976.47 L2391.59 1976.47 L2391.59 1966.70 L2415.97 1966.70 L2415.97 1959.64 L2440.35 1959.64 L2440.35 1952.22 L2464.61 1952.22 L2464.61 1943.68 L2488.98 1943.68 L2488.98 1935.51 L2513.24 1935.51 L2513.24 1926.11 L2537.62 1926.11 L2537.62 1917.94 L2562.00 1917.94 L2562.00 1911.75 L2586.25 1911.75 L2586.25 1904.70 L2610.63 1904.70 L2610.63 1897.27 L2634.89 1897.27 L2634.89 1887.87 L2659.26 1887.87 L2659.26 1881.93 L2683.64 1881.93 L2683.64 1876.60 L2707.90 1876.60 L2707.90 1870.29 L2732.28 1870.29 L2732.28 1865.22 L2756.53 1865.22 L2756.53 1860.39 L2780.91 1860.39 L2780.91 1854.20 L2805.16 1854.20 L2805.16 1850.37 L2829.54 1850.37 L2829.54 1844.80 L2853.92 1844.80 L2853.92 1840.96 L2878.18 1840.96 L2878.18 1835.15 L2902.56 1835.15 L2902.56 1832.55 L2926.81 1832.55 L2926.81 1828.34 L2951.19 1828.34 L2951.19 1823.27 L2975.57 1823.27 L2975.57 1819.43 L2999.82 1819.43 L2999.82 1814.85 L3024.20 1814.85 L3024.20 1811.26 L3048.46 1811.26 L3048.46 1806.68 L3072.84 1806.68 L3072.84 1803.22 L3097.22 1803.22 L3097.22 1800.12 L3121.47 1800.12 L3121.47 1795.79 L3145.85 1795.79 L3145.85 1793.07 L3170.10 1793.07 L3170.10 1788.49 L3194.48 1788.49 L3194.48 1784.41 L3218.86 1784.41 L3218.86 1781.44 L3243.12 1781.44 L3243.12 1778.10 L3267.49 1778.10 L3267.49 1776.36 L3291.75 1776.36 L3291.75 1774.75 L3316.13 1774.75 L3316.13 1773.52 L3340.51 1773.52 L3340.51 1771.29 L3364.76 1771.29 L3364.76 1770.55 L3389.14 1770.55 L3389.14 1767.70 L3413.40 1767.70 L3413.40 1764.98 L3437.78 1764.98 L3437.78 1763.49 L3462.15 1763.49 L3462.15 1762.63 L3486.41 1762.63 L3486.41 1760.15 L3510.79 1760.15 L3510.79 1758.67 L3535.04 1758.67 L3535.04 1757.18 L3559.42 1757.18 L3559.42 1756.07 L3583.68 1756.07 L3583.68 1754.33 L3608.05 1754.33 L3608.05 1753.59 L3632.43 1753.59 L3632.43 1752.85 L3656.69 1752.85 L3656.69 1751.86" stroke-linejoin="round" style="fill:none;stroke:#1A476F;stroke-width:8.64"/>
	<path d=" M1102.24 2246.01 L1102.24 2246.01 L1102.24 2246.01 L1126.62 2246.01 L1126.62 2246.01 L1150.88 2246.01 L1150.88 2246.01 L1175.25 2246.01 L1175.25 2246.01 L1199.51 2246.01 L1199.51 2246.01 L1223.89 2246.01 L1223.89 2246.01 L1248.27 2246.01 L1248.27 2246.01 L1272.52 2246.01 L1272.52 2246.01 L1296.90 2246.01 L1296.90 2246.01 L1321.15 2246.01 L1321.15 2246.01 L1345.53 2246.01 L1345.53 2246.01 L1369.79 2246.01 L1369.79 2246.01 L1394.17 2246.01 L1394.17 2246.01 L1418.55 2246.01 L1418.55 2246.01 L1442.80 2246.01 L1442.80 2246.01 L1467.18 2246.01 L1467.18 2246.01 L1491.43 2246.01 L1491.43 2246.01 L1515.81 2246.01 L1515.81 2246.01 L1540.19 2246.01 L1540.19 2246.01 L1564.45 2246.01 L1564.45 2246.01 L1588.83 2246.01 L1588.83 2246.01 L1613.08 2246.01 L1613.08 2243.91 L1637.46 2243.91 L1637.46 2241.93 L1661.84 2241.93 L1661.84 2239.82 L1686.09 2239.82 L1686.09 2237.84 L1710.47 2237.84 L1710.47 2237.84 L1734.73 2237.84 L1734.73 2237.84 L1759.11 2237.84 L1759.11 2237.84 L1783.48 2237.84 L1783.48 2237.84 L1807.74 2237.84 L1807.74 2231.78 L1832.12 2231.78 L1832.12 2229.80 L1856.37 2229.80 L1856.37 2223.61 L1880.75 2223.61 L1880.75 2221.63 L1905.13 2221.63 L1905.13 2213.59 L1929.39 2213.59 L1929.39 2209.50 L1953.77 2209.50 L1953.77 2203.44 L1978.02 2203.44 L1978.02 2199.35 L2002.40 2199.35 L2002.40 2189.21 L2026.78 2189.21 L2026.78 2185.12 L2051.03 2185.12 L2051.03 2171.01 L2075.41 2171.01 L2075.41 2160.87 L2099.67 2160.87 L2099.67 2156.78 L2124.05 2156.78 L2124.05 2144.65 L2148.30 2144.65 L2148.30 2140.57 L2172.68 2140.57 L2172.68 2138.59 L2197.06 2138.59 L2197.06 2134.51 L2221.31 2134.51 L2221.31 2132.53 L2245.69 2132.53 L2245.69 2128.44 L2269.95 2128.44 L2269.95 2124.36 L2294.32 2124.36 L2294.32 2116.31 L2318.70 2116.31 L2318.70 2108.15 L2342.96 2108.15 L2342.96 2102.08 L2367.34 2102.08 L2367.34 2102.08 L2391.59 2102.08 L2391.59 2099.98 L2415.97 2099.98 L2415.97 2098.00 L2440.35 2098.00 L2440.35 2096.02 L2464.61 2096.02 L2464.61 2089.96 L2488.98 2089.96 L2488.98 2079.81 L2513.24 2079.81 L2513.24 2073.62 L2537.62 2073.62 L2537.62 2069.66 L2562.00 2069.66 L2562.00 2067.56 L2610.63 2067.56 L2610.63 2067.56 L2634.89 2067.56 L2634.89 2065.58 L2659.26 2065.58 L2659.26 2061.49 L2683.64 2061.49 L2683.64 2053.45 L2707.90 2053.45 L2707.90 2053.45 L2732.28 2053.45 L2732.28 2051.34 L2756.53 2051.34 L2756.53 2051.34 L2780.91 2051.34 L2780.91 2047.26 L2805.16 2047.26 L2805.16 2047.26 L2829.54 2047.26 L2829.54 2047.26 L2853.92 2047.26 L2853.92 2041.20 L2878.18 2041.20 L2878.18 2039.22 L2902.56 2039.22 L2902.56 2037.11 L2926.81 2037.11 L2926.81 2037.11 L2951.19 2037.11 L2951.19 2035.13 L2975.57 2035.13 L2975.57 2033.15 L2999.82 2033.15 L2999.82 2029.07 L3024.20 2029.07 L3024.20 2029.07 L3048.46 2029.07 L3048.46 2024.98 L3072.84 2024.98 L3072.84 2024.98 L3097.22 2024.98 L3097.22 2024.98 L3121.47 2024.98 L3121.47 2024.98 L3145.85 2024.98 L3145.85 2024.98 L3170.10 2024.98 L3170.10 2023.00 L3194.48 2023.00 L3194.48 2020.90 L3218.86 2020.90 L3218.86 2020.90 L3243.12 2020.90 L3243.12 2020.90 L3267.49 2020.90 L3267.49 2020.90 L3291.75 2020.90 L3291.75 2020.90 L3316.13 2020.90 L3316.13 2020.90 L3340.51 2020.90 L3340.51 2020.90 L3364.76 2020.90 L3364.76 2020.90 L3389.14 2020.90 L3389.14 2016.94 L3437.78 2016.94 L3437.78 2014.84 L3462.15 2014.84 L3462.15 2012.86 L3486.41 2012.86 L3486.41 2012.86 L3510.79 2012.86 L3510.79 2012.86 L3535.04 2012.86 L3535.04 2012.86 L3559.42 2012.86 L3559.42 2012.86 L3583.68 2012.86 L3583.68 2012.86 L3608.05 2012.86 L3608.05 2008.77 L3632.43 2008.77 L3632.43 2008.77 L3656.69 2008.77 L3656.69 2008.77" stroke-linejoin="round" style="fill:none;stroke:#90353B;stroke-width:8.64"/>
	<line x1="1038.88" y1="2309.25" x2="1038.88" y2="490.93" style="stroke:#000000;stroke-width:5.76"/>
	<line x1="1038.88" y1="2245.89" x2="998.91" y2="2245.89" style="stroke:#000000;stroke-width:5.76"/>
	<text x="978.99" y="2273.90" style="font-family:'Helvetica';font-size:79.94px;fill:#000000" text-anchor="end">0.000</text>
	<line x1="1038.88" y1="1907.54" x2="998.91" y2="1907.54" style="stroke:#000000;stroke-width:5.76"/>
	<text x="978.99" y="1935.55" style="font-family:'Helvetica';font-size:79.94px;fill:#000000" text-anchor="end">0.001</text>
	<line x1="1038.88" y1="1569.20" x2="998.91" y2="1569.20" style="stroke:#000000;stroke-width:5.76"/>
	<text x="978.99" y="1597.21" style="font-family:'Helvetica';font-size:79.94px;fill:#000000" text-anchor="end">0.002</text>
	<line x1="1038.88" y1="1230.86" x2="998.91" y2="1230.86" style="stroke:#000000;stroke-width:5.76"/>
	<text x="978.99" y="1258.87" style="font-family:'Helvetica';font-size:79.94px;fill:#000000" text-anchor="end">0.003</text>
	<line x1="1038.88" y1="892.51" x2="998.91" y2="892.51" style="stroke:#000000;stroke-width:5.76"/>
	<text x="978.99" y="920.52" style="font-family:'Helvetica';font-size:79.94px;fill:#000000" text-anchor="end">0.004</text>
	<line x1="1038.88" y1="554.29" x2="998.91" y2="554.29" style="stroke:#000000;stroke-width:5.76"/>
	<text x="978.99" y="582.31" style="font-family:'Helvetica';font-size:79.94px;fill:#000000" text-anchor="end">0.005</text>
	<text x="1102.24" y="2747.83" style="font-family:'Helvetica';font-size:60.02px;fill:#000000" text-anchor="middle">167121</text>
	<text x="1588.83" y="2747.83" style="font-family:'Helvetica';font-size:60.02px;fill:#000000" text-anchor="middle">167031</text>
	<text x="2075.41" y="2747.83" style="font-family:'Helvetica';font-size:60.02px;fill:#000000" text-anchor="middle">166898</text>
	<text x="2562.00" y="2747.83" style="font-family:'Helvetica';font-size:60.02px;fill:#000000" text-anchor="middle">166757</text>
	<text x="3048.58" y="2747.83" style="font-family:'Helvetica';font-size:60.02px;fill:#000000" text-anchor="middle">166669</text>
	<text x="3535.17" y="2747.83" style="font-family:'Helvetica';font-size:60.02px;fill:#000000" text-anchor="middle">166584</text>
	<text x="968.47" y="2747.83" style="font-family:'Helvetica';font-size:60.02px;fill:#000000" text-anchor="end">Current exposure to NSAIDs</text>
	<text x="1102.24" y="2674.44" style="font-family:'Helvetica';font-size:60.02px;fill:#000000" text-anchor="middle">1434822</text>
	<text x="1588.83" y="2674.44" style="font-family:'Helvetica';font-size:60.02px;fill:#000000" text-anchor="middle">1422995</text>
	<text x="2075.41" y="2674.44" style="font-family:'Helvetica';font-size:60.02px;fill:#000000" text-anchor="middle">1415375</text>
	<text x="2562.00" y="2674.44" style="font-family:'Helvetica';font-size:60.02px;fill:#000000" text-anchor="middle">1406816</text>
	<text x="3048.58" y="2674.44" style="font-family:'Helvetica';font-size:60.02px;fill:#000000" text-anchor="middle">1398140</text>
	<text x="3535.17" y="2674.44" style="font-family:'Helvetica';font-size:60.02px;fill:#000000" text-anchor="middle">1389747</text>
	<text x="968.47" y="2674.44" style="font-family:'Helvetica';font-size:60.02px;fill:#000000" text-anchor="end">Non-current exposure to NSAIDs</text>
	<text x="968.47" y="2601.18" style="font-family:'Helvetica';font-size:60.02px;fill:#000000" text-anchor="end">Number at risk</text>
	<line x1="1038.88" y1="2309.25" x2="3841.82" y2="2309.25" style="stroke:#000000;stroke-width:5.76"/>
	<line x1="1102.24" y1="2309.25" x2="1102.24" y2="2349.22" style="stroke:#000000;stroke-width:5.76"/>
	<text x="1102.24" y="2425.17" style="font-family:'Helvetica';font-size:79.94px;fill:#000000" text-anchor="middle">0</text>
	<line x1="1588.83" y1="2309.25" x2="1588.83" y2="2349.22" style="stroke:#000000;stroke-width:5.76"/>
	<text x="1588.83" y="2425.17" style="font-family:'Helvetica';font-size:79.94px;fill:#000000" text-anchor="middle">20</text>
	<line x1="2075.41" y1="2309.25" x2="2075.41" y2="2349.22" style="stroke:#000000;stroke-width:5.76"/>
	<text x="2075.41" y="2425.17" style="font-family:'Helvetica';font-size:79.94px;fill:#000000" text-anchor="middle">40</text>
	<line x1="2562.00" y1="2309.25" x2="2562.00" y2="2349.22" style="stroke:#000000;stroke-width:5.76"/>
	<text x="2562.00" y="2425.17" style="font-family:'Helvetica';font-size:79.94px;fill:#000000" text-anchor="middle">60</text>
	<line x1="3048.58" y1="2309.25" x2="3048.58" y2="2349.22" style="stroke:#000000;stroke-width:5.76"/>
	<text x="3048.58" y="2425.17" style="font-family:'Helvetica';font-size:79.94px;fill:#000000" text-anchor="middle">80</text>
	<line x1="3535.17" y1="2309.25" x2="3535.17" y2="2349.22" style="stroke:#000000;stroke-width:5.76"/>
	<text x="3535.17" y="2425.17" style="font-family:'Helvetica';font-size:79.94px;fill:#000000" text-anchor="middle">100</text>
	<text x="2440.35" y="2515.14" style="font-family:'Helvetica';font-size:79.94px;fill:#000000" text-anchor="middle">Days since 1 Mar 2020</text>
	<rect x="1073.53" y="269.91" width="2733.64" height="186.37" style="fill:#FFFFFF"/>
	<rect x="1076.41" y="272.79" width="2727.88" height="180.61" style="fill:none;stroke:#EAF2F3;stroke-width:5.76"/>
	<line x1="1116.72" y1="363.09" x2="1483.64" y2="363.09" style="stroke:#90353B;stroke-width:8.64"/>
	<line x1="2449.76" y1="363.09" x2="2816.80" y2="363.09" style="stroke:#1A476F;stroke-width:8.64"/>
	<text x="1542.42" y="384.13" style="font-family:'Helvetica';font-size:60.02px;fill:#000000">Current exposure to NSAIDs</text>
	<text x="2875.58" y="384.13" style="font-family:'Helvetica';font-size:60.02px;fill:#000000">Non-current exposure to NSAIDs</text>
	<text x="1056.21" y="187.99" style="font-family:'Helvetica';font-size:99.99px;fill:#1E2D53">Time to death, Rheumatoid_arthritis_&amp;_osteoarthritis population</text>
</svg>
