<?xml version="1.0" encoding="UTF-8" standalone="no"?>
<!-- This is a Stata 16.1 generated SVG file (http://www.stata.com) -->

<svg version="1.1" width="5.50in" height="4.00in" viewBox="0 0 3960 2880" xmlns="http://www.w3.org/2000/svg" xmlns:xlink="http://www.w3.org/1999/xlink">
	<desc>Stata Graph - Graph</desc>
	<rect x="0" y="0" width="3960" height="2880" style="fill:#EAF2F3;stroke:none"/>
	<rect x="0.00" y="0.00" width="3959.88" height="2880.00" style="fill:#FFFFFF"/>
	<rect x="2.88" y="2.88" width="3954.12" height="2874.24" style="fill:none;stroke:#EAF2F3;stroke-width:5.76"/>
	<rect x="1064.74" y="490.93" width="2776.58" height="1818.32" style="fill:#FFFFFF"/>
	<rect x="1067.62" y="493.81" width="2770.82" height="1812.56" style="fill:none;stroke:#FFFFFF;stroke-width:5.76"/>
	<line x1="1064.74" y1="2245.89" x2="3841.32" y2="2245.89" style="stroke:#EAF2F3;stroke-width:8.64"/>
	<line x1="1064.74" y1="1907.54" x2="3841.32" y2="1907.54" style="stroke:#EAF2F3;stroke-width:8.64"/>
	<line x1="1064.74" y1="1569.20" x2="3841.32" y2="1569.20" style="stroke:#EAF2F3;stroke-width:8.64"/>
	<line x1="1064.74" y1="1230.86" x2="3841.32" y2="1230.86" style="stroke:#EAF2F3;stroke-width:8.64"/>
	<line x1="1064.74" y1="892.51" x2="3841.32" y2="892.51" style="stroke:#EAF2F3;stroke-width:8.64"/>
	<path d=" M1127.98 2246.01 L1127.98 2246.01 L1127.98 2246.01 L1152.11 2246.01 L1152.11 2246.01 L1176.24 2246.01 L1176.24 2246.01 L1200.25 2246.01 L1200.25 2246.01 L1224.38 2246.01 L1224.38 2246.01 L1248.51 2246.01 L1248.51 2246.01 L1272.52 2246.01 L1272.52 2246.01 L1296.65 2246.01 L1296.65 2246.01 L1320.78 2246.01 L1320.78 2246.01 L1344.79 2246.01 L1344.79 2246.01 L1368.92 2246.01 L1368.92 2246.01 L1393.05 2246.01 L1393.05 2246.01 L1417.06 2246.01 L1417.06 2246.01 L1441.19 2246.01 L1441.19 2246.01 L1465.32 2246.01 L1465.32 2246.01 L1489.33 2246.01 L1489.33 2245.76 L1513.46 2245.76 L1513.46 2245.39 L1537.59 2245.39 L1537.59 2245.39 L1561.60 2245.39 L1561.60 2245.27 L1585.73 2245.27 L1585.73 2245.27 L1609.86 2245.27 L1609.86 2245.02 L1633.87 2245.02 L1633.87 2244.65 L1658.00 2244.65 L1658.00 2243.91 L1682.13 2243.91 L1682.13 2243.41 L1706.14 2243.41 L1706.14 2242.17 L1730.27 2242.17 L1730.27 2241.18 L1754.40 2241.18 L1754.40 2240.07 L1778.41 2240.07 L1778.41 2239.20 L1802.54 2239.20 L1802.54 2237.72 L1826.67 2237.72 L1826.67 2236.48 L1850.68 2236.48 L1850.68 2234.75 L1874.81 2234.75 L1874.81 2233.63 L1898.94 2233.63 L1898.94 2232.64 L1922.95 2232.64 L1922.95 2230.79 L1947.08 2230.79 L1947.08 2228.31 L1971.21 2228.31 L1971.21 2225.84 L1995.22 2225.84 L1995.22 2224.48 L2019.35 2224.48 L2019.35 2222.25 L2043.48 2222.25 L2043.48 2218.78 L2067.49 2218.78 L2067.49 2215.32 L2091.62 2215.32 L2091.62 2212.60 L2115.75 2212.60 L2115.75 2210.74 L2139.76 2210.74 L2139.76 2208.64 L2163.89 2208.64 L2163.89 2206.04 L2188.02 2206.04 L2188.02 2204.18 L2212.03 2204.18 L2212.03 2201.46 L2236.16 2201.46 L2236.16 2199.48 L2260.29 2199.48 L2260.29 2195.76 L2284.30 2195.76 L2284.30 2193.91 L2308.43 2193.91 L2308.43 2191.68 L2332.56 2191.68 L2332.56 2189.45 L2356.57 2189.45 L2356.57 2186.36 L2380.70 2186.36 L2380.70 2184.26 L2404.83 2184.26 L2404.83 2181.90 L2428.84 2181.90 L2428.84 2180.05 L2452.97 2180.05 L2452.97 2178.19 L2477.10 2178.19 L2477.10 2175.96 L2501.11 2175.96 L2501.11 2174.60 L2525.24 2174.60 L2525.24 2172.62 L2549.37 2172.62 L2549.37 2170.77 L2573.38 2170.77 L2573.38 2169.41 L2597.51 2169.41 L2597.51 2168.17 L2621.64 2168.17 L2621.64 2167.05 L2645.65 2167.05 L2645.65 2165.57 L2669.78 2165.57 L2669.78 2164.21 L2693.91 2164.21 L2693.91 2163.47 L2717.92 2163.47 L2717.92 2161.98 L2742.05 2161.98 L2742.05 2160.50 L2766.18 2160.50 L2766.18 2159.75 L2790.19 2159.75 L2790.19 2159.01 L2814.32 2159.01 L2814.32 2158.64 L2838.45 2158.64 L2838.45 2158.64 L2862.46 2158.64 L2862.46 2156.78 L2886.59 2156.78 L2886.59 2155.67 L2910.72 2155.67 L2910.72 2155.05 L2934.73 2155.05 L2934.73 2154.68 L2958.86 2154.68 L2958.86 2153.94 L2982.99 2153.94 L2982.99 2153.19 L3007.00 2153.19 L3007.00 2152.70 L3031.13 2152.70 L3031.13 2151.96 L3055.14 2151.96 L3055.14 2151.58 L3079.27 2151.58 L3079.27 2150.59 L3103.40 2150.59 L3103.40 2149.60 L3127.41 2149.60 L3127.41 2149.48 L3151.54 2149.48 L3151.54 2148.86 L3175.67 2148.86 L3175.67 2148.37 L3199.68 2148.37 L3199.68 2148.00 L3223.81 2148.00 L3223.81 2147.25 L3247.94 2147.25 L3247.94 2146.26 L3271.95 2146.26 L3271.95 2146.26 L3296.08 2146.26 L3296.08 2145.89 L3320.21 2145.89 L3320.21 2145.52 L3344.22 2145.52 L3344.22 2144.78 L3368.35 2144.78 L3368.35 2144.53 L3392.48 2144.53 L3392.48 2144.16 L3416.49 2144.16 L3416.49 2144.04 L3440.62 2144.04 L3440.62 2143.66 L3464.75 2143.66 L3464.75 2143.42 L3488.76 2143.42 L3488.76 2143.05 L3512.89 2143.05 L3512.89 2143.05 L3537.02 2143.05 L3537.02 2142.92 L3561.03 2142.92 L3561.03 2142.55 L3585.16 2142.55 L3585.16 2142.30 L3609.29 2142.30 L3609.29 2141.68 L3633.30 2141.68 L3633.30 2141.68 L3657.43 2141.68 L3657.43 2141.56" stroke-linejoin="round" style="fill:none;stroke:#1A476F;stroke-width:8.64"/>
	<path d=" M1127.98 2246.01 L1127.98 2246.01 L1127.98 2246.01 L1152.11 2246.01 L1152.11 2246.01 L1176.24 2246.01 L1176.24 2246.01 L1200.25 2246.01 L1200.25 2246.01 L1224.38 2246.01 L1224.38 2246.01 L1248.51 2246.01 L1248.51 2246.01 L1272.52 2246.01 L1272.52 2246.01 L1296.65 2246.01 L1296.65 2246.01 L1320.78 2246.01 L1320.78 2246.01 L1344.79 2246.01 L1344.79 2246.01 L1368.92 2246.01 L1368.92 2246.01 L1393.05 2246.01 L1393.05 2246.01 L1417.06 2246.01 L1417.06 2246.01 L1441.19 2246.01 L1441.19 2246.01 L1465.32 2246.01 L1465.32 2246.01 L1489.33 2246.01 L1489.33 2246.01 L1513.46 2246.01 L1513.46 2246.01 L1537.59 2246.01 L1537.59 2246.01 L1561.60 2246.01 L1561.60 2246.01 L1585.73 2246.01 L1585.73 2246.01 L1609.86 2246.01 L1609.86 2246.01 L1633.87 2246.01 L1633.87 2245.27 L1658.00 2245.27 L1658.00 2244.65 L1682.13 2244.65 L1682.13 2243.41 L1706.14 2243.41 L1706.14 2242.67 L1730.27 2242.67 L1730.27 2242.05 L1754.40 2242.05 L1754.40 2240.07 L1778.41 2240.07 L1778.41 2240.07 L1802.54 2240.07 L1802.54 2238.83 L1826.67 2238.83 L1826.67 2235.49 L1850.68 2235.49 L1850.68 2233.63 L1874.81 2233.63 L1874.81 2229.05 L1898.94 2229.05 L1898.94 2227.69 L1922.95 2227.69 L1922.95 2223.11 L1947.08 2223.11 L1947.08 2221.26 L1971.21 2221.26 L1971.21 2217.92 L1995.22 2217.92 L1995.22 2216.06 L2019.35 2216.06 L2019.35 2212.10 L2043.48 2212.10 L2043.48 2207.52 L2067.49 2207.52 L2067.49 2199.72 L2091.62 2199.72 L2091.62 2195.76 L2115.75 2195.76 L2115.75 2191.93 L2139.76 2191.93 L2139.76 2187.35 L2163.89 2187.35 L2163.89 2183.39 L2188.02 2183.39 L2188.02 2180.79 L2212.03 2180.79 L2212.03 2178.93 L2236.16 2178.93 L2236.16 2176.34 L2260.29 2176.34 L2260.29 2174.36 L2284.30 2174.36 L2284.30 2171.76 L2308.43 2171.76 L2308.43 2169.16 L2332.56 2169.16 L2332.56 2165.82 L2356.57 2165.82 L2356.57 2162.60 L2380.70 2162.60 L2380.70 2161.36 L2404.83 2161.36 L2404.83 2158.64 L2428.84 2158.64 L2428.84 2156.78 L2452.97 2156.78 L2452.97 2154.80 L2477.10 2154.80 L2477.10 2152.82 L2501.11 2152.82 L2501.11 2147.01 L2525.24 2147.01 L2525.24 2143.66 L2549.37 2143.66 L2549.37 2142.43 L2573.38 2142.43 L2573.38 2140.45 L2597.51 2140.45 L2597.51 2138.47 L2621.64 2138.47 L2621.64 2137.85 L2645.65 2137.85 L2645.65 2137.23 L2669.78 2137.23 L2669.78 2135.25 L2693.91 2135.25 L2693.91 2132.65 L2717.92 2132.65 L2717.92 2132.03 L2742.05 2132.03 L2742.05 2131.29 L2766.18 2131.29 L2766.18 2131.29 L2790.19 2131.29 L2790.19 2129.43 L2814.32 2129.43 L2814.32 2129.43 L2838.45 2129.43 L2838.45 2129.43 L2862.46 2129.43 L2862.46 2127.45 L2886.59 2127.45 L2886.59 2126.83 L2910.72 2126.83 L2910.72 2126.09 L2934.73 2126.09 L2934.73 2126.09 L2958.86 2126.09 L2958.86 2125.47 L2982.99 2125.47 L2982.99 2124.85 L3007.00 2124.85 L3007.00 2123.49 L3031.13 2123.49 L3031.13 2122.87 L3055.14 2122.87 L3055.14 2121.51 L3079.27 2121.51 L3079.27 2120.28 L3103.40 2120.28 L3103.40 2120.28 L3127.41 2120.28 L3127.41 2120.28 L3151.54 2120.28 L3151.54 2120.28 L3175.67 2120.28 L3175.67 2118.29 L3199.68 2118.29 L3199.68 2117.06 L3223.81 2117.06 L3223.81 2117.06 L3247.94 2117.06 L3247.94 2117.06 L3271.95 2117.06 L3271.95 2116.31 L3296.08 2116.31 L3296.08 2115.70 L3320.21 2115.70 L3320.21 2115.70 L3344.22 2115.70 L3344.22 2115.70 L3368.35 2115.70 L3368.35 2115.70 L3392.48 2115.70 L3392.48 2114.33 L3416.49 2114.33 L3416.49 2114.33 L3440.62 2114.33 L3440.62 2113.72 L3464.75 2113.72 L3464.75 2112.48 L3488.76 2112.48 L3488.76 2112.48 L3512.89 2112.48 L3512.89 2112.48 L3537.02 2112.48 L3537.02 2112.48 L3561.03 2112.48 L3561.03 2112.48 L3585.16 2112.48 L3585.16 2112.48 L3609.29 2112.48 L3609.29 2111.12 L3633.30 2111.12 L3633.30 2111.12 L3657.43 2111.12 L3657.43 2111.12" stroke-linejoin="round" style="fill:none;stroke:#90353B;stroke-width:8.64"/>
	<line x1="1064.74" y1="2309.25" x2="1064.74" y2="490.93" style="stroke:#000000;stroke-width:5.76"/>
	<line x1="1064.74" y1="2245.89" x2="1024.77" y2="2245.89" style="stroke:#000000;stroke-width:5.76"/>
	<text x="1004.73" y="2273.90" style="font-family:'Helvetica';font-size:79.94px;fill:#000000" text-anchor="end">0.000</text>
	<line x1="1064.74" y1="1907.54" x2="1024.77" y2="1907.54" style="stroke:#000000;stroke-width:5.76"/>
	<text x="1004.73" y="1935.55" style="font-family:'Helvetica';font-size:79.94px;fill:#000000" text-anchor="end">0.001</text>
	<line x1="1064.74" y1="1569.20" x2="1024.77" y2="1569.20" style="stroke:#000000;stroke-width:5.76"/>
	<text x="1004.73" y="1597.21" style="font-family:'Helvetica';font-size:79.94px;fill:#000000" text-anchor="end">0.002</text>
	<line x1="1064.74" y1="1230.86" x2="1024.77" y2="1230.86" style="stroke:#000000;stroke-width:5.76"/>
	<text x="1004.73" y="1258.87" style="font-family:'Helvetica';font-size:79.94px;fill:#000000" text-anchor="end">0.003</text>
	<line x1="1064.74" y1="892.51" x2="1024.77" y2="892.51" style="stroke:#000000;stroke-width:5.76"/>
	<text x="1004.73" y="920.52" style="font-family:'Helvetica';font-size:79.94px;fill:#000000" text-anchor="end">0.004</text>
	<line x1="1064.74" y1="554.29" x2="1024.77" y2="554.29" style="stroke:#000000;stroke-width:5.76"/>
	<text x="1004.73" y="582.31" style="font-family:'Helvetica';font-size:79.94px;fill:#000000" text-anchor="end">0.005</text>
	<text x="1128.11" y="2747.83" style="font-family:'Helvetica';font-size:60.02px;fill:#000000" text-anchor="middle">519960</text>
	<text x="1609.86" y="2747.83" style="font-family:'Helvetica';font-size:60.02px;fill:#000000" text-anchor="middle">519754</text>
	<text x="2091.62" y="2747.83" style="font-family:'Helvetica';font-size:60.02px;fill:#000000" text-anchor="middle">519466</text>
	<text x="2573.51" y="2747.83" style="font-family:'Helvetica';font-size:60.02px;fill:#000000" text-anchor="middle">519188</text>
	<text x="3055.26" y="2747.83" style="font-family:'Helvetica';font-size:60.02px;fill:#000000" text-anchor="middle">519014</text>
	<text x="3537.02" y="2747.83" style="font-family:'Helvetica';font-size:60.02px;fill:#000000" text-anchor="middle">518826</text>
	<text x="995.57" y="2747.83" style="font-family:'Helvetica';font-size:60.02px;fill:#000000" text-anchor="end">Current exposure to NSAIDs</text>
	<text x="1128.11" y="2674.44" style="font-family:'Helvetica';font-size:60.02px;fill:#000000" text-anchor="middle">1879001</text>
	<text x="1609.86" y="2674.44" style="font-family:'Helvetica';font-size:60.02px;fill:#000000" text-anchor="middle">1851806</text>
	<text x="2091.62" y="2674.44" style="font-family:'Helvetica';font-size:60.02px;fill:#000000" text-anchor="middle">1836431</text>
	<text x="2573.51" y="2674.44" style="font-family:'Helvetica';font-size:60.02px;fill:#000000" text-anchor="middle">1820255</text>
	<text x="3055.26" y="2674.44" style="font-family:'Helvetica';font-size:60.02px;fill:#000000" text-anchor="middle">1802998</text>
	<text x="3537.02" y="2674.44" style="font-family:'Helvetica';font-size:60.02px;fill:#000000" text-anchor="middle">1786488</text>
	<text x="995.57" y="2674.44" style="font-family:'Helvetica';font-size:60.02px;fill:#000000" text-anchor="end">Non-current exposure to NSAIDs</text>
	<text x="995.57" y="2601.18" style="font-family:'Helvetica';font-size:60.02px;fill:#000000" text-anchor="end">Number at risk</text>
	<line x1="1064.74" y1="2309.25" x2="3841.32" y2="2309.25" style="stroke:#000000;stroke-width:5.76"/>
	<line x1="1128.11" y1="2309.25" x2="1128.11" y2="2349.22" style="stroke:#000000;stroke-width:5.76"/>
	<text x="1128.11" y="2425.17" style="font-family:'Helvetica';font-size:79.94px;fill:#000000" text-anchor="middle">0</text>
	<line x1="1609.86" y1="2309.25" x2="1609.86" y2="2349.22" style="stroke:#000000;stroke-width:5.76"/>
	<text x="1609.86" y="2425.17" style="font-family:'Helvetica';font-size:79.94px;fill:#000000" text-anchor="middle">20</text>
	<line x1="2091.62" y1="2309.25" x2="2091.62" y2="2349.22" style="stroke:#000000;stroke-width:5.76"/>
	<text x="2091.62" y="2425.17" style="font-family:'Helvetica';font-size:79.94px;fill:#000000" text-anchor="middle">40</text>
	<line x1="2573.51" y1="2309.25" x2="2573.51" y2="2349.22" style="stroke:#000000;stroke-width:5.76"/>
	<text x="2573.51" y="2425.17" style="font-family:'Helvetica';font-size:79.94px;fill:#000000" text-anchor="middle">60</text>
	<line x1="3055.26" y1="2309.25" x2="3055.26" y2="2349.22" style="stroke:#000000;stroke-width:5.76"/>
	<text x="3055.26" y="2425.17" style="font-family:'Helvetica';font-size:79.94px;fill:#000000" text-anchor="middle">80</text>
	<line x1="3537.02" y1="2309.25" x2="3537.02" y2="2349.22" style="stroke:#000000;stroke-width:5.76"/>
	<text x="3537.02" y="2425.17" style="font-family:'Helvetica';font-size:79.94px;fill:#000000" text-anchor="middle">100</text>
	<text x="2452.97" y="2515.14" style="font-family:'Helvetica';font-size:79.94px;fill:#000000" text-anchor="middle">Days since 1 Mar 2020</text>
	<rect x="1099.27" y="269.91" width="2707.53" height="186.37" style="fill:#FFFFFF"/>
	<rect x="1102.15" y="272.79" width="2701.77" height="180.61" style="fill:none;stroke:#EAF2F3;stroke-width:5.76"/>
	<line x1="1142.46" y1="363.09" x2="1505.79" y2="363.09" style="stroke:#90353B;stroke-width:8.64"/>
	<line x1="2462.38" y1="363.09" x2="2825.71" y2="363.09" style="stroke:#1A476F;stroke-width:8.64"/>
	<text x="1564.08" y="384.13" style="font-family:'Helvetica';font-size:60.02px;fill:#000000">Current exposure to NSAIDs</text>
	<text x="2883.87" y="384.13" style="font-family:'Helvetica';font-size:60.02px;fill:#000000">Non-current exposure to NSAIDs</text>
	<text x="1732.62" y="187.99" style="font-family:'Helvetica';font-size:99.99px;fill:#1E2D53">Time to death, nsaid population</text>
</svg>
