<?xml version="1.0" encoding="UTF-8" standalone="no"?>
<!-- This is a Stata 16.1 generated SVG file (http://www.stata.com) -->

<svg version="1.1" width="5.50in" height="4.00in" viewBox="0 0 3960 2880" xmlns="http://www.w3.org/2000/svg" xmlns:xlink="http://www.w3.org/1999/xlink">
	<desc>Stata Graph - Graph</desc>
	<rect x="0" y="0" width="3960" height="2880" style="fill:#EAF2F3;stroke:none"/>
	<rect x="0.00" y="0.00" width="3959.88" height="2880.00" style="fill:#FFFFFF"/>
	<rect x="2.88" y="2.88" width="3954.12" height="2874.24" style="fill:none;stroke:#EAF2F3;stroke-width:5.76"/>
	<rect x="1064.74" y="490.93" width="2776.58" height="1818.32" style="fill:#FFFFFF"/>
	<rect x="1067.62" y="493.81" width="2770.82" height="1812.56" style="fill:none;stroke:#FFFFFF;stroke-width:5.76"/>
	<line x1="1064.74" y1="2245.89" x2="3841.32" y2="2245.89" style="stroke:#EAF2F3;stroke-width:8.64"/>
	<line x1="1064.74" y1="1907.54" x2="3841.32" y2="1907.54" style="stroke:#EAF2F3;stroke-width:8.64"/>
	<line x1="1064.74" y1="1569.20" x2="3841.32" y2="1569.20" style="stroke:#EAF2F3;stroke-width:8.64"/>
	<line x1="1064.74" y1="1230.86" x2="3841.32" y2="1230.86" style="stroke:#EAF2F3;stroke-width:8.64"/>
	<line x1="1064.74" y1="892.51" x2="3841.32" y2="892.51" style="stroke:#EAF2F3;stroke-width:8.64"/>
	<path d=" M1127.98 2246.01 L1127.98 2246.01 L1127.98 2246.01 L1152.11 2246.01 L1152.11 2246.01 L1176.24 2246.01 L1176.24 2246.01 L1200.25 2246.01 L1200.25 2246.01 L1224.38 2246.01 L1224.38 2246.01 L1248.51 2246.01 L1248.51 2246.01 L1272.52 2246.01 L1272.52 2246.01 L1296.65 2246.01 L1296.65 2246.01 L1320.78 2246.01 L1320.78 2246.01 L1344.79 2246.01 L1344.79 2246.01 L1368.92 2246.01 L1368.92 2246.01 L1393.05 2246.01 L1393.05 2246.01 L1417.06 2246.01 L1417.06 2246.01 L1441.19 2246.01 L1441.19 2246.01 L1465.32 2246.01 L1465.32 2246.01 L1489.33 2246.01 L1489.33 2245.76 L1513.46 2245.76 L1513.46 2245.51 L1537.59 2245.51 L1537.59 2245.51 L1561.60 2245.51 L1561.60 2245.27 L1585.73 2245.27 L1585.73 2245.27 L1609.86 2245.27 L1609.86 2245.14 L1633.87 2245.14 L1633.87 2244.77 L1658.00 2244.77 L1658.00 2244.03 L1682.13 2244.03 L1682.13 2243.53 L1706.14 2243.53 L1706.14 2242.30 L1730.27 2242.30 L1730.27 2241.55 L1754.40 2241.55 L1754.40 2240.56 L1778.41 2240.56 L1778.41 2239.70 L1802.54 2239.70 L1802.54 2238.46 L1826.67 2238.46 L1826.67 2237.10 L1850.68 2237.10 L1850.68 2235.49 L1874.81 2235.49 L1874.81 2234.13 L1898.94 2234.13 L1898.94 2232.89 L1922.95 2232.89 L1922.95 2230.54 L1947.08 2230.54 L1947.08 2228.06 L1971.21 2228.06 L1971.21 2225.47 L1995.22 2225.47 L1995.22 2224.10 L2019.35 2224.10 L2019.35 2221.13 L2043.48 2221.13 L2043.48 2217.05 L2067.49 2217.05 L2067.49 2213.46 L2091.62 2213.46 L2091.62 2210.00 L2115.75 2210.00 L2115.75 2207.52 L2139.76 2207.52 L2139.76 2205.17 L2163.89 2205.17 L2163.89 2202.45 L2188.02 2202.45 L2188.02 2200.47 L2212.03 2200.47 L2212.03 2197.25 L2236.16 2197.25 L2236.16 2195.27 L2260.29 2195.27 L2260.29 2191.68 L2284.30 2191.68 L2284.30 2189.82 L2308.43 2189.82 L2308.43 2187.72 L2332.56 2187.72 L2332.56 2185.00 L2356.57 2185.00 L2356.57 2181.78 L2380.70 2181.78 L2380.70 2179.80 L2404.83 2179.80 L2404.83 2177.08 L2428.84 2177.08 L2428.84 2175.47 L2452.97 2175.47 L2452.97 2173.61 L2477.10 2173.61 L2477.10 2171.51 L2501.11 2171.51 L2501.11 2170.02 L2525.24 2170.02 L2525.24 2167.80 L2549.37 2167.80 L2549.37 2166.19 L2573.38 2166.19 L2573.38 2164.70 L2597.51 2164.70 L2597.51 2163.47 L2621.64 2163.47 L2621.64 2162.35 L2645.65 2162.35 L2645.65 2160.62 L2669.78 2160.62 L2669.78 2159.50 L2693.91 2159.50 L2693.91 2158.64 L2717.92 2158.64 L2717.92 2157.40 L2742.05 2157.40 L2742.05 2156.04 L2766.18 2156.04 L2766.18 2155.17 L2790.19 2155.17 L2790.19 2154.31 L2814.32 2154.31 L2814.32 2153.81 L2838.45 2153.81 L2838.45 2153.81 L2862.46 2153.81 L2862.46 2151.96 L2886.59 2151.96 L2886.59 2150.97 L2910.72 2150.97 L2910.72 2150.47 L2934.73 2150.47 L2934.73 2150.22 L2958.86 2150.22 L2958.86 2149.36 L2982.99 2149.36 L2982.99 2148.61 L3007.00 2148.61 L3007.00 2148.00 L3031.13 2148.00 L3031.13 2147.38 L3055.14 2147.38 L3055.14 2147.01 L3079.27 2147.01 L3079.27 2146.14 L3103.40 2146.14 L3103.40 2145.27 L3127.41 2145.27 L3127.41 2145.15 L3151.54 2145.15 L3151.54 2144.65 L3175.67 2144.65 L3175.67 2144.16 L3199.68 2144.16 L3199.68 2143.29 L3223.81 2143.29 L3223.81 2142.67 L3247.94 2142.67 L3247.94 2141.81 L3271.95 2141.81 L3271.95 2141.56 L3296.08 2141.56 L3296.08 2141.31 L3320.21 2141.31 L3320.21 2140.94 L3344.22 2140.94 L3344.22 2140.08 L3368.35 2140.08 L3368.35 2139.95 L3392.48 2139.95 L3392.48 2139.58 L3416.49 2139.58 L3416.49 2139.09 L3440.62 2139.09 L3440.62 2138.71 L3464.75 2138.71 L3464.75 2138.22 L3488.76 2138.22 L3488.76 2137.97 L3512.89 2137.97 L3512.89 2137.97 L3537.02 2137.97 L3537.02 2137.72 L3561.03 2137.72 L3561.03 2137.23 L3585.16 2137.23 L3585.16 2137.11 L3609.29 2137.11 L3609.29 2136.36 L3633.30 2136.36 L3633.30 2136.36 L3657.43 2136.36 L3657.43 2135.99" stroke-linejoin="round" style="fill:none;stroke:#1A476F;stroke-width:8.64"/>
	<path d=" M1127.98 2246.01 L1127.98 2246.01 L1127.98 2246.01 L1152.11 2246.01 L1152.11 2246.01 L1176.24 2246.01 L1176.24 2246.01 L1200.25 2246.01 L1200.25 2246.01 L1224.38 2246.01 L1224.38 2246.01 L1248.51 2246.01 L1248.51 2246.01 L1272.52 2246.01 L1272.52 2246.01 L1296.65 2246.01 L1296.65 2246.01 L1320.78 2246.01 L1320.78 2246.01 L1344.79 2246.01 L1344.79 2246.01 L1368.92 2246.01 L1368.92 2246.01 L1393.05 2246.01 L1393.05 2246.01 L1417.06 2246.01 L1417.06 2246.01 L1441.19 2246.01 L1441.19 2246.01 L1465.32 2246.01 L1465.32 2246.01 L1489.33 2246.01 L1489.33 2246.01 L1513.46 2246.01 L1513.46 2246.01 L1537.59 2246.01 L1537.59 2246.01 L1561.60 2246.01 L1561.60 2246.01 L1585.73 2246.01 L1585.73 2246.01 L1609.86 2246.01 L1609.86 2246.01 L1633.87 2246.01 L1633.87 2245.02 L1658.00 2245.02 L1658.00 2245.02 L1682.13 2245.02 L1682.13 2243.16 L1706.14 2243.16 L1706.14 2242.17 L1730.27 2242.17 L1730.27 2241.31 L1754.40 2241.31 L1754.40 2238.46 L1778.41 2238.46 L1778.41 2238.46 L1802.54 2238.46 L1802.54 2236.60 L1826.67 2236.60 L1826.67 2231.90 L1850.68 2231.90 L1850.68 2230.04 L1874.81 2230.04 L1874.81 2224.48 L1898.94 2224.48 L1898.94 2223.61 L1922.95 2223.61 L1922.95 2218.91 L1947.08 2218.91 L1947.08 2217.05 L1971.21 2217.05 L1971.21 2214.20 L1995.22 2214.20 L1995.22 2211.36 L2019.35 2211.36 L2019.35 2206.78 L2043.48 2206.78 L2043.48 2203.93 L2067.49 2203.93 L2067.49 2193.66 L2091.62 2193.66 L2091.62 2192.67 L2115.75 2192.67 L2115.75 2188.96 L2139.76 2188.96 L2139.76 2185.25 L2163.89 2185.25 L2163.89 2180.54 L2188.02 2180.54 L2188.02 2177.82 L2212.03 2177.82 L2212.03 2175.96 L2236.16 2175.96 L2236.16 2172.13 L2260.29 2172.13 L2260.29 2169.41 L2284.30 2169.41 L2284.30 2166.56 L2308.43 2166.56 L2308.43 2162.85 L2332.56 2162.85 L2332.56 2160.00 L2356.57 2160.00 L2356.57 2158.14 L2380.70 2158.14 L2380.70 2157.28 L2404.83 2157.28 L2404.83 2153.44 L2428.84 2153.44 L2428.84 2149.73 L2452.97 2149.73 L2452.97 2147.87 L2477.10 2147.87 L2477.10 2145.15 L2501.11 2145.15 L2501.11 2137.60 L2525.24 2137.60 L2525.24 2134.75 L2549.37 2134.75 L2549.37 2132.90 L2573.38 2132.90 L2573.38 2131.04 L2597.51 2131.04 L2597.51 2128.32 L2621.64 2128.32 L2621.64 2128.32 L2645.65 2128.32 L2645.65 2128.32 L2669.78 2128.32 L2669.78 2125.47 L2693.91 2125.47 L2693.91 2121.76 L2717.92 2121.76 L2717.92 2120.77 L2742.05 2120.77 L2742.05 2119.90 L2766.18 2119.90 L2766.18 2119.90 L2790.19 2119.90 L2790.19 2117.06 L2814.32 2117.06 L2814.32 2117.06 L2838.45 2117.06 L2838.45 2117.06 L2862.46 2117.06 L2862.46 2114.21 L2886.59 2114.21 L2886.59 2113.34 L2910.72 2113.34 L2910.72 2112.35 L2934.73 2112.35 L2934.73 2112.35 L2958.86 2112.35 L2958.86 2111.49 L2982.99 2111.49 L2982.99 2110.50 L3007.00 2110.50 L3007.00 2109.63 L3031.13 2109.63 L3031.13 2108.64 L3055.14 2108.64 L3055.14 2106.79 L3079.27 2106.79 L3079.27 2104.93 L3103.40 2104.93 L3103.40 2104.93 L3127.41 2104.93 L3127.41 2104.93 L3151.54 2104.93 L3151.54 2104.93 L3175.67 2104.93 L3175.67 2102.08 L3199.68 2102.08 L3199.68 2101.22 L3223.81 2101.22 L3223.81 2101.22 L3247.94 2101.22 L3247.94 2101.22 L3271.95 2101.22 L3271.95 2099.36 L3296.08 2099.36 L3296.08 2098.37 L3320.21 2098.37 L3320.21 2098.37 L3344.22 2098.37 L3344.22 2097.38 L3368.35 2097.38 L3368.35 2097.38 L3392.48 2097.38 L3392.48 2095.52 L3416.49 2095.52 L3416.49 2095.52 L3440.62 2095.52 L3440.62 2094.66 L3464.75 2094.66 L3464.75 2094.66 L3488.76 2094.66 L3488.76 2094.66 L3512.89 2094.66 L3512.89 2094.66 L3537.02 2094.66 L3537.02 2094.66 L3561.03 2094.66 L3561.03 2094.66 L3585.16 2094.66 L3585.16 2094.66 L3609.29 2094.66 L3609.29 2091.81 L3633.30 2091.81 L3633.30 2091.81 L3657.43 2091.81 L3657.43 2091.81" stroke-linejoin="round" style="fill:none;stroke:#90353B;stroke-width:8.64"/>
	<line x1="1064.74" y1="2309.25" x2="1064.74" y2="490.93" style="stroke:#000000;stroke-width:5.76"/>
	<line x1="1064.74" y1="2245.89" x2="1024.77" y2="2245.89" style="stroke:#000000;stroke-width:5.76"/>
	<text x="1004.73" y="2273.90" style="font-family:'Helvetica';font-size:79.94px;fill:#000000" text-anchor="end">0.000</text>
	<line x1="1064.74" y1="1907.54" x2="1024.77" y2="1907.54" style="stroke:#000000;stroke-width:5.76"/>
	<text x="1004.73" y="1935.55" style="font-family:'Helvetica';font-size:79.94px;fill:#000000" text-anchor="end">0.001</text>
	<line x1="1064.74" y1="1569.20" x2="1024.77" y2="1569.20" style="stroke:#000000;stroke-width:5.76"/>
	<text x="1004.73" y="1597.21" style="font-family:'Helvetica';font-size:79.94px;fill:#000000" text-anchor="end">0.002</text>
	<line x1="1064.74" y1="1230.86" x2="1024.77" y2="1230.86" style="stroke:#000000;stroke-width:5.76"/>
	<text x="1004.73" y="1258.87" style="font-family:'Helvetica';font-size:79.94px;fill:#000000" text-anchor="end">0.003</text>
	<line x1="1064.74" y1="892.51" x2="1024.77" y2="892.51" style="stroke:#000000;stroke-width:5.76"/>
	<text x="1004.73" y="920.52" style="font-family:'Helvetica';font-size:79.94px;fill:#000000" text-anchor="end">0.004</text>
	<line x1="1064.74" y1="554.29" x2="1024.77" y2="554.29" style="stroke:#000000;stroke-width:5.76"/>
	<text x="1004.73" y="582.31" style="font-family:'Helvetica';font-size:79.94px;fill:#000000" text-anchor="end">0.005</text>
	<text x="1128.11" y="2747.83" style="font-family:'Helvetica';font-size:60.02px;fill:#000000" text-anchor="middle">362634</text>
	<text x="1609.86" y="2747.83" style="font-family:'Helvetica';font-size:60.02px;fill:#000000" text-anchor="middle">362463</text>
	<text x="2091.62" y="2747.83" style="font-family:'Helvetica';font-size:60.02px;fill:#000000" text-anchor="middle">362213</text>
	<text x="2573.51" y="2747.83" style="font-family:'Helvetica';font-size:60.02px;fill:#000000" text-anchor="middle">361988</text>
	<text x="3055.26" y="2747.83" style="font-family:'Helvetica';font-size:60.02px;fill:#000000" text-anchor="middle">361852</text>
	<text x="3537.02" y="2747.83" style="font-family:'Helvetica';font-size:60.02px;fill:#000000" text-anchor="middle">361701</text>
	<text x="995.57" y="2747.83" style="font-family:'Helvetica';font-size:60.02px;fill:#000000" text-anchor="end">Current exposure to NSAIDs</text>
	<text x="1128.11" y="2674.44" style="font-family:'Helvetica';font-size:60.02px;fill:#000000" text-anchor="middle">2096980</text>
	<text x="1609.86" y="2674.44" style="font-family:'Helvetica';font-size:60.02px;fill:#000000" text-anchor="middle">2068964</text>
	<text x="2091.62" y="2674.44" style="font-family:'Helvetica';font-size:60.02px;fill:#000000" text-anchor="middle">2053068</text>
	<text x="2573.51" y="2674.44" style="font-family:'Helvetica';font-size:60.02px;fill:#000000" text-anchor="middle">2036373</text>
	<text x="3055.26" y="2674.44" style="font-family:'Helvetica';font-size:60.02px;fill:#000000" text-anchor="middle">2018562</text>
	<text x="3537.02" y="2674.44" style="font-family:'Helvetica';font-size:60.02px;fill:#000000" text-anchor="middle">2001562</text>
	<text x="995.57" y="2674.44" style="font-family:'Helvetica';font-size:60.02px;fill:#000000" text-anchor="end">Non-current exposure to NSAIDs</text>
	<text x="995.57" y="2601.18" style="font-family:'Helvetica';font-size:60.02px;fill:#000000" text-anchor="end">Number at risk</text>
	<line x1="1064.74" y1="2309.25" x2="3841.32" y2="2309.25" style="stroke:#000000;stroke-width:5.76"/>
	<line x1="1128.11" y1="2309.25" x2="1128.11" y2="2349.22" style="stroke:#000000;stroke-width:5.76"/>
	<text x="1128.11" y="2425.17" style="font-family:'Helvetica';font-size:79.94px;fill:#000000" text-anchor="middle">0</text>
	<line x1="1609.86" y1="2309.25" x2="1609.86" y2="2349.22" style="stroke:#000000;stroke-width:5.76"/>
	<text x="1609.86" y="2425.17" style="font-family:'Helvetica';font-size:79.94px;fill:#000000" text-anchor="middle">20</text>
	<line x1="2091.62" y1="2309.25" x2="2091.62" y2="2349.22" style="stroke:#000000;stroke-width:5.76"/>
	<text x="2091.62" y="2425.17" style="font-family:'Helvetica';font-size:79.94px;fill:#000000" text-anchor="middle">40</text>
	<line x1="2573.51" y1="2309.25" x2="2573.51" y2="2349.22" style="stroke:#000000;stroke-width:5.76"/>
	<text x="2573.51" y="2425.17" style="font-family:'Helvetica';font-size:79.94px;fill:#000000" text-anchor="middle">60</text>
	<line x1="3055.26" y1="2309.25" x2="3055.26" y2="2349.22" style="stroke:#000000;stroke-width:5.76"/>
	<text x="3055.26" y="2425.17" style="font-family:'Helvetica';font-size:79.94px;fill:#000000" text-anchor="middle">80</text>
	<line x1="3537.02" y1="2309.25" x2="3537.02" y2="2349.22" style="stroke:#000000;stroke-width:5.76"/>
	<text x="3537.02" y="2425.17" style="font-family:'Helvetica';font-size:79.94px;fill:#000000" text-anchor="middle">100</text>
	<text x="2452.97" y="2515.14" style="font-family:'Helvetica';font-size:79.94px;fill:#000000" text-anchor="middle">Days since 1 Mar 2020</text>
	<rect x="1099.27" y="269.91" width="2707.53" height="186.37" style="fill:#FFFFFF"/>
	<rect x="1102.15" y="272.79" width="2701.77" height="180.61" style="fill:none;stroke:#EAF2F3;stroke-width:5.76"/>
	<line x1="1142.46" y1="363.09" x2="1505.79" y2="363.09" style="stroke:#90353B;stroke-width:8.64"/>
	<line x1="2462.38" y1="363.09" x2="2825.71" y2="363.09" style="stroke:#1A476F;stroke-width:8.64"/>
	<text x="1564.08" y="384.13" style="font-family:'Helvetica';font-size:60.02px;fill:#000000">Current exposure to NSAIDs</text>
	<text x="2883.87" y="384.13" style="font-family:'Helvetica';font-size:60.02px;fill:#000000">Non-current exposure to NSAIDs</text>
	<text x="1732.62" y="187.99" style="font-family:'Helvetica';font-size:99.99px;fill:#1E2D53">Time to death, nsaid population</text>
</svg>
