<?xml version="1.0" encoding="UTF-8" standalone="no"?>
<!-- This is a Stata 16.1 generated SVG file (http://www.stata.com) -->

<svg version="1.1" width="5.50in" height="4.00in" viewBox="0 0 3960 2880" xmlns="http://www.w3.org/2000/svg" xmlns:xlink="http://www.w3.org/1999/xlink">
	<desc>Stata Graph - Graph</desc>
	<rect x="0" y="0" width="3960" height="2880" style="fill:#EAF2F3;stroke:none"/>
	<rect x="0.00" y="0.00" width="3959.88" height="2880.00" style="fill:#EAF2F3"/>
	<rect x="2.88" y="2.88" width="3954.12" height="2874.24" style="fill:none;stroke:#EAF2F3;stroke-width:5.76"/>
	<rect x="524.08" y="100.86" width="3334.94" height="2388.33" style="fill:#FFFFFF"/>
	<rect x="526.96" y="103.74" width="3329.18" height="2382.57" style="fill:none;stroke:#FFFFFF;stroke-width:5.76"/>
	<line x1="524.08" y1="2425.82" x2="3859.02" y2="2425.82" style="stroke:#EAF2F3;stroke-width:8.64"/>
	<line x1="524.08" y1="1860.39" x2="3859.02" y2="1860.39" style="stroke:#EAF2F3;stroke-width:8.64"/>
	<line x1="524.08" y1="1294.96" x2="3859.02" y2="1294.96" style="stroke:#EAF2F3;stroke-width:8.64"/>
	<line x1="524.08" y1="729.53" x2="3859.02" y2="729.53" style="stroke:#EAF2F3;stroke-width:8.64"/>
	<defs>
		<path id="path_UYPwBsKB" d="M618.01 2425.82 L618.01 2425.82 L648.57 2425.82 L679.14 2425.82 L709.71 2425.82 L740.27 2425.82 L770.84 2425.82 L801.40 2425.82 L831.85 2425.82 L862.41 2425.82 L892.98 2425.82 L923.55 2425.70 L954.11 2425.70 L984.68 2425.45 L1015.25 2425.08 L1045.81 2424.46 L1076.38 2423.60 L1106.94 2422.36 L1137.51 2420.50 L1167.95 2418.03 L1198.52 2414.69 L1229.09 2410.35 L1259.65 2404.79 L1290.22 2397.98 L1320.78 2389.69 L1351.35 2379.79 L1381.92 2368.28 L1412.48 2354.79 L1443.05 2339.32 L1473.62 2321.99 L1504.06 2302.56 L1534.62 2281.03 L1565.19 2257.52 L1595.76 2232.15 L1626.32 2204.68 L1656.89 2175.47 L1687.45 2144.53 L1718.02 2112.11 L1748.59 2078.07 L1779.15 2042.93 L1809.72 2006.55 L1840.16 1969.30 L1870.73 1931.30 L1901.30 1892.69 L1931.86 1853.71 L1962.43 1814.60 L1992.99 1775.50 L2023.56 1736.39 L2054.13 1697.78 L2084.69 1659.54 L2115.26 1621.92 L2145.70 1585.16 L2176.27 1549.15 L2206.83 1514.00 L2237.40 1479.85 L2267.97 1446.68 L2298.53 1414.51 L2329.10 1383.44 L2359.66 1353.37 L2390.23 1324.29 L2420.80 1296.32 L2451.36 1269.34 L2481.81 1243.36 L2512.37 1218.36 L2542.94 1194.47 L2573.51 1171.45 L2604.07 1149.43 L2634.64 1128.39 L2665.20 1108.22 L2695.77 1088.79 L2726.34 1070.35 L2756.90 1052.65 L2787.47 1035.70 L2817.91 1019.48 L2848.48 1004.14 L2879.04 989.29 L2909.61 975.18 L2940.18 961.69 L2970.74 948.82 L3001.31 936.45 L3031.88 924.57 L3062.44 913.30 L3093.01 902.54 L3123.57 892.14 L3154.02 882.12 L3184.58 872.59 L3215.15 863.43 L3245.72 854.64 L3276.28 846.23 L3306.85 838.06 L3337.41 830.14 L3367.98 822.59 L3398.55 815.17 L3429.11 808.11 L3459.68 801.18 L3490.12 794.50 L3520.69 787.94 L3551.25 781.51 L3581.82 775.32 L3612.39 769.13 L3642.95 763.19 L3673.52 757.37 L3704.09 751.56 L3734.65 745.86 L3765.22 740.17 L3795.66 734.60 L3795.66 595.26 L3765.22 601.32 L3734.65 607.38 L3704.09 613.57 L3673.52 619.76 L3642.95 626.07 L3612.39 632.38 L3581.82 638.94 L3551.25 645.50 L3520.69 652.31 L3490.12 659.24 L3459.68 666.29 L3429.11 673.59 L3398.55 681.02 L3367.98 688.81 L3337.41 696.73 L3306.85 705.03 L3276.28 713.56 L3245.72 722.35 L3215.15 731.63 L3184.58 741.16 L3154.02 751.19 L3123.57 761.58 L3093.01 772.35 L3062.44 783.73 L3031.88 795.61 L3001.31 807.99 L2970.74 820.86 L2940.18 834.47 L2909.61 848.58 L2879.04 863.43 L2848.48 879.02 L2817.91 895.36 L2787.47 912.44 L2756.90 930.26 L2726.34 949.07 L2695.77 968.62 L2665.20 989.16 L2634.64 1010.57 L2604.07 1032.97 L2573.51 1056.49 L2542.94 1080.87 L2512.37 1106.36 L2481.81 1132.97 L2451.36 1160.69 L2420.80 1189.52 L2390.23 1219.47 L2359.66 1250.41 L2329.10 1282.59 L2298.53 1315.87 L2267.97 1350.28 L2237.40 1385.80 L2206.83 1422.18 L2176.27 1459.68 L2145.70 1498.16 L2115.26 1537.39 L2084.69 1577.49 L2054.13 1618.21 L2023.56 1659.42 L1992.99 1701.00 L1962.43 1742.70 L1931.86 1784.41 L1901.30 1825.99 L1870.73 1867.07 L1840.16 1907.67 L1809.72 1947.51 L1779.15 1986.50 L1748.59 2024.37 L1718.02 2061.00 L1687.45 2096.27 L1656.89 2130.05 L1626.32 2162.10 L1595.76 2192.42 L1565.19 2220.89 L1534.62 2247.37 L1504.06 2271.75 L1473.62 2294.15 L1443.05 2314.44 L1412.48 2332.76 L1381.92 2348.97 L1351.35 2363.20 L1320.78 2375.58 L1290.22 2386.22 L1259.65 2395.13 L1229.09 2402.43 L1198.52 2408.50 L1167.95 2413.20 L1137.51 2416.91 L1106.94 2419.76 L1076.38 2421.86 L1045.81 2423.35 L1015.25 2424.34 L984.68 2424.96 L954.11 2425.33 L923.55 2425.58 L892.98 2425.70 L862.41 2425.82 L831.85 2425.82 L801.40 2425.82 L770.84 2425.82 L740.27 2425.82 L709.71 2425.82 L679.14 2425.82 L648.57 2425.82 L618.01 2425.82 L618.01 2425.82 Z" stroke-linejoin="round"/>
	</defs>
	<defs>
		<clipPath id="clipPath_fKMihMSo">
			<use xlink:href="#path_UYPwBsKB"/>
		</clipPath>
	</defs>
	<use xlink:href="#path_UYPwBsKB" style="stroke:none;fill:#FF3333;fill-opacity:0.25"/>
	<use xlink:href="#path_UYPwBsKB" style="fill:none;stroke:#FF0000;stroke-opacity:0.25;stroke-width:17.28" clip-path="url(#clipPath_fKMihMSo)"/>
	<defs>
		<path id="path_MqgPeBdv" d="M618.01 2425.82 L618.01 2425.82 L648.57 2425.82 L679.14 2425.82 L709.71 2425.82 L740.27 2425.82 L770.84 2425.82 L801.40 2425.82 L831.85 2425.82 L862.41 2425.82 L892.98 2425.82 L923.55 2425.82 L954.11 2425.70 L984.68 2425.58 L1015.25 2425.33 L1045.81 2424.83 L1076.38 2424.21 L1106.94 2423.35 L1137.51 2422.11 L1167.95 2420.25 L1198.52 2417.90 L1229.09 2414.93 L1259.65 2411.10 L1290.22 2406.39 L1320.78 2400.70 L1351.35 2393.89 L1381.92 2385.97 L1412.48 2376.94 L1443.05 2366.42 L1473.62 2354.79 L1504.06 2341.79 L1534.62 2327.44 L1565.19 2311.85 L1595.76 2294.89 L1626.32 2276.82 L1656.89 2257.64 L1687.45 2237.35 L1718.02 2215.94 L1748.59 2193.78 L1779.15 2170.77 L1809.72 2147.01 L1840.16 2122.75 L1870.73 2098.00 L1901.30 2072.88 L1931.86 2047.63 L1962.43 2022.14 L1992.99 1996.64 L2023.56 1971.40 L2054.13 1946.15 L2084.69 1921.40 L2115.26 1896.90 L2145.70 1873.01 L2176.27 1849.63 L2206.83 1826.73 L2237.40 1804.46 L2267.97 1782.92 L2298.53 1762.01 L2329.10 1741.71 L2359.66 1722.16 L2390.23 1703.22 L2420.80 1685.03 L2451.36 1667.46 L2481.81 1650.51 L2512.37 1634.29 L2542.94 1618.82 L2573.51 1603.85 L2604.07 1589.49 L2634.64 1575.76 L2665.20 1562.64 L2695.77 1550.14 L2726.34 1538.14 L2756.90 1526.63 L2787.47 1515.61 L2817.91 1505.22 L2848.48 1495.19 L2879.04 1485.54 L2909.61 1476.51 L2940.18 1467.72 L2970.74 1459.43 L3001.31 1451.39 L3031.88 1443.71 L3062.44 1436.41 L3093.01 1429.48 L3123.57 1422.80 L3154.02 1416.36 L3184.58 1410.18 L3215.15 1404.24 L3245.72 1398.54 L3276.28 1393.10 L3306.85 1387.78 L3337.41 1382.70 L3367.98 1377.75 L3398.55 1373.05 L3429.11 1368.47 L3459.68 1363.89 L3490.12 1359.56 L3520.69 1355.35 L3551.25 1351.27 L3581.82 1347.18 L3612.39 1343.22 L3642.95 1339.26 L3673.52 1335.43 L3704.09 1331.72 L3734.65 1328.00 L3765.22 1324.29 L3795.66 1320.58 L3795.66 833.23 L3765.22 838.56 L3734.65 843.88 L3704.09 849.20 L3673.52 854.64 L3642.95 860.09 L3612.39 865.78 L3581.82 871.47 L3551.25 877.29 L3520.69 883.11 L3490.12 889.30 L3459.68 895.48 L3429.11 901.92 L3398.55 908.48 L3367.98 915.28 L3337.41 922.34 L3306.85 929.52 L3276.28 937.06 L3245.72 944.86 L3215.15 953.03 L3184.58 961.44 L3154.02 970.35 L3123.57 979.51 L3093.01 989.04 L3062.44 999.06 L3031.88 1009.46 L3001.31 1020.35 L2970.74 1031.74 L2940.18 1043.74 L2909.61 1056.24 L2879.04 1069.23 L2848.48 1082.97 L2817.91 1097.33 L2787.47 1112.30 L2756.90 1128.02 L2726.34 1144.48 L2695.77 1161.68 L2665.20 1179.62 L2634.64 1198.43 L2604.07 1218.11 L2573.51 1238.65 L2542.94 1260.06 L2512.37 1282.34 L2481.81 1305.60 L2451.36 1329.86 L2420.80 1355.10 L2390.23 1381.22 L2359.66 1408.32 L2329.10 1436.53 L2298.53 1465.62 L2267.97 1495.57 L2237.40 1526.63 L2206.83 1558.56 L2176.27 1591.23 L2145.70 1624.89 L2115.26 1659.29 L2084.69 1694.31 L2054.13 1729.96 L2023.56 1765.97 L1992.99 1802.35 L1962.43 1838.73 L1931.86 1875.24 L1901.30 1911.50 L1870.73 1947.51 L1840.16 1982.91 L1809.72 2017.68 L1779.15 2051.59 L1748.59 2084.63 L1718.02 2116.44 L1687.45 2147.01 L1656.89 2176.21 L1626.32 2203.81 L1595.76 2229.92 L1565.19 2254.30 L1534.62 2276.82 L1504.06 2297.61 L1473.62 2316.67 L1443.05 2333.87 L1412.48 2349.22 L1381.92 2362.71 L1351.35 2374.59 L1320.78 2384.86 L1290.22 2393.65 L1259.65 2400.95 L1229.09 2407.01 L1198.52 2411.96 L1167.95 2415.80 L1137.51 2418.77 L1106.94 2421.00 L1076.38 2422.73 L1045.81 2423.84 L1015.25 2424.59 L984.68 2425.20 L954.11 2425.45 L923.55 2425.70 L892.98 2425.82 L862.41 2425.82 L831.85 2425.82 L801.40 2425.82 L770.84 2425.82 L740.27 2425.82 L709.71 2425.82 L679.14 2425.82 L648.57 2425.82 L618.01 2425.82 L618.01 2425.82 Z" stroke-linejoin="round"/>
	</defs>
	<defs>
		<clipPath id="clipPath_kOzoPIzi">
			<use xlink:href="#path_MqgPeBdv"/>
		</clipPath>
	</defs>
	<use xlink:href="#path_MqgPeBdv" style="stroke:none;fill:#3333FF;fill-opacity:0.25"/>
	<use xlink:href="#path_MqgPeBdv" style="fill:none;stroke:#0000FF;stroke-opacity:0.25;stroke-width:17.28" clip-path="url(#clipPath_kOzoPIzi)"/>
	<path d=" M587.44 2425.95 L618.01 2425.95 L648.57 2425.95 L679.02 2425.95 L709.58 2425.95 L740.15 2425.95 L770.72 2425.95 L801.28 2425.95 L831.85 2425.95 L862.41 2425.82 L892.98 2425.82 L923.55 2425.82 L954.11 2425.58 L984.68 2425.33 L1015.12 2424.83 L1045.69 2424.09 L1076.25 2422.98 L1106.82 2421.24 L1137.39 2419.02 L1167.95 2415.92 L1198.52 2411.96 L1229.09 2406.89 L1259.65 2400.45 L1290.22 2392.66 L1320.66 2383.25 L1351.23 2372.24 L1381.79 2359.37 L1412.36 2344.52 L1442.92 2327.81 L1473.49 2308.88 L1504.06 2288.09 L1534.62 2265.19 L1565.19 2240.19 L1595.76 2213.21 L1626.32 2184.38 L1656.77 2153.81 L1687.33 2121.51 L1717.90 2087.60 L1748.46 2052.33 L1779.03 2015.70 L1809.60 1978.08 L1840.16 1939.47 L1870.73 1900.24 L1901.30 1860.39 L1931.86 1820.17 L1962.43 1779.70 L1992.87 1739.36 L2023.44 1699.02 L2054.00 1659.04 L2084.57 1619.69 L2115.14 1580.83 L2145.70 1542.72 L2176.27 1505.59 L2206.83 1469.33 L2237.40 1433.94 L2267.97 1399.66 L2298.53 1366.49 L2328.97 1334.19 L2359.54 1303.13 L2390.11 1273.06 L2420.67 1244.10 L2451.24 1216.25 L2481.81 1189.52 L2512.37 1163.66 L2542.94 1139.03 L2573.51 1115.27 L2604.07 1092.62 L2634.64 1070.84 L2665.08 1050.05 L2695.65 1030.13 L2726.21 1011.07 L2756.78 992.88 L2787.34 975.43 L2817.91 958.84 L2848.48 942.88 L2879.04 927.78 L2909.61 913.30 L2940.18 899.44 L2970.62 886.20 L3001.18 873.58 L3031.75 861.45 L3062.32 849.94 L3092.88 838.80 L3123.45 828.28 L3154.02 818.01 L3184.58 808.36 L3215.15 798.95 L3245.72 789.92 L3276.28 781.26 L3306.72 772.97 L3337.29 764.80 L3367.86 757.00 L3398.42 749.58 L3428.99 742.28 L3459.55 735.10 L3490.12 728.17 L3520.69 721.49 L3551.25 714.93 L3581.82 708.49 L3612.39 702.18 L3642.83 695.99 L3673.39 689.93 L3703.96 683.99 L3734.53 678.05 L3765.09 672.11 L3795.66 666.29" stroke-linejoin="round" style="fill:none;stroke:#FF0000;stroke-width:8.64"/>
	<path d=" M587.44 2425.95 L618.01 2425.95 L648.57 2425.95 L679.02 2425.95 L709.58 2425.95 L740.15 2425.95 L770.72 2425.95 L801.28 2425.95 L831.85 2425.95 L862.41 2425.95 L892.98 2425.82 L923.55 2425.82 L954.11 2425.70 L984.68 2425.45 L1015.12 2425.08 L1045.69 2424.59 L1076.25 2423.72 L1106.82 2422.48 L1137.39 2420.75 L1167.95 2418.40 L1198.52 2415.43 L1229.09 2411.59 L1259.65 2406.77 L1290.22 2400.83 L1320.66 2393.77 L1351.23 2385.48 L1381.79 2375.83 L1412.36 2364.69 L1442.92 2351.94 L1473.49 2337.83 L1504.06 2322.12 L1534.62 2304.79 L1565.19 2285.98 L1595.76 2265.69 L1626.32 2244.03 L1656.77 2221.01 L1687.33 2196.63 L1717.90 2171.01 L1748.46 2144.53 L1779.03 2116.93 L1809.60 2088.59 L1840.16 2059.51 L1870.73 2029.93 L1901.30 1999.86 L1931.86 1969.54 L1962.43 1939.10 L1992.87 1908.66 L2023.44 1878.21 L2054.00 1848.14 L2084.57 1818.44 L2115.14 1789.11 L2145.70 1760.40 L2176.27 1732.43 L2206.83 1705.08 L2237.40 1678.47 L2267.97 1652.61 L2298.53 1627.49 L2328.97 1603.23 L2359.54 1579.72 L2390.11 1557.07 L2420.67 1535.29 L2451.24 1514.25 L2481.81 1493.96 L2512.37 1474.53 L2542.94 1455.96 L2573.51 1438.02 L2604.07 1420.94 L2634.64 1404.48 L2665.08 1388.77 L2695.65 1373.79 L2726.21 1359.31 L2756.78 1345.58 L2787.34 1332.46 L2817.91 1319.96 L2848.48 1307.95 L2879.04 1296.57 L2909.61 1285.56 L2940.18 1275.16 L2970.62 1265.14 L3001.18 1255.61 L3031.75 1246.45 L3062.32 1237.79 L3092.88 1229.37 L3123.45 1221.45 L3154.02 1213.78 L3184.58 1206.35 L3215.15 1199.30 L3245.72 1192.49 L3276.28 1185.93 L3306.72 1179.62 L3337.29 1173.56 L3367.86 1167.62 L3398.42 1161.93 L3428.99 1156.48 L3459.55 1151.16 L3490.12 1145.96 L3520.69 1140.89 L3551.25 1135.81 L3581.82 1130.99 L3612.39 1126.28 L3642.83 1121.58 L3673.39 1117.00 L3703.96 1112.42 L3734.53 1107.97 L3765.09 1103.64 L3795.66 1099.18" stroke-linejoin="round" style="fill:none;stroke:#0000FF;stroke-width:8.64"/>
	<line x1="524.08" y1="2489.19" x2="524.08" y2="100.86" style="stroke:#000000;stroke-width:5.76"/>
	<line x1="524.08" y1="2425.82" x2="484.11" y2="2425.82" style="stroke:#000000;stroke-width:5.76"/>
	<text x="464.06" y="2460.85" style="font-family:'Helvetica';font-size:99.99px;fill:#000000" text-anchor="end">0.00</text>
	<line x1="524.08" y1="1860.39" x2="484.11" y2="1860.39" style="stroke:#000000;stroke-width:5.76"/>
	<text x="464.06" y="1895.42" style="font-family:'Helvetica';font-size:99.99px;fill:#000000" text-anchor="end">0.05</text>
	<line x1="524.08" y1="1294.96" x2="484.11" y2="1294.96" style="stroke:#000000;stroke-width:5.76"/>
	<text x="464.06" y="1329.99" style="font-family:'Helvetica';font-size:99.99px;fill:#000000" text-anchor="end">0.10</text>
	<line x1="524.08" y1="729.53" x2="484.11" y2="729.53" style="stroke:#000000;stroke-width:5.76"/>
	<text x="464.06" y="764.56" style="font-family:'Helvetica';font-size:99.99px;fill:#000000" text-anchor="end">0.15</text>
	<line x1="524.08" y1="164.22" x2="484.11" y2="164.22" style="stroke:#000000;stroke-width:5.76"/>
	<text x="464.06" y="199.25" style="font-family:'Helvetica';font-size:99.99px;fill:#000000" text-anchor="end">0.20</text>
	<text x="190.71" y="1294.96" style="font-family:'Helvetica';font-size:99.99px;fill:#000000" transform="rotate(-90 190.71,1294.96)" text-anchor="middle">Cumulative mortality (%)</text>
	<line x1="524.08" y1="2489.19" x2="3859.02" y2="2489.19" style="stroke:#000000;stroke-width:5.76"/>
	<line x1="587.44" y1="2489.19" x2="587.44" y2="2529.16" style="stroke:#000000;stroke-width:5.76"/>
	<text x="587.44" y="2619.14" style="font-family:'Helvetica';font-size:99.99px;fill:#000000" text-anchor="middle">0</text>
	<line x1="1198.52" y1="2489.19" x2="1198.52" y2="2529.16" style="stroke:#000000;stroke-width:5.76"/>
	<text x="1198.52" y="2619.14" style="font-family:'Helvetica';font-size:99.99px;fill:#000000" text-anchor="middle">20</text>
	<line x1="1809.72" y1="2489.19" x2="1809.72" y2="2529.16" style="stroke:#000000;stroke-width:5.76"/>
	<text x="1809.72" y="2619.14" style="font-family:'Helvetica';font-size:99.99px;fill:#000000" text-anchor="middle">40</text>
	<line x1="2420.80" y1="2489.19" x2="2420.80" y2="2529.16" style="stroke:#000000;stroke-width:5.76"/>
	<text x="2420.80" y="2619.14" style="font-family:'Helvetica';font-size:99.99px;fill:#000000" text-anchor="middle">60</text>
	<line x1="3031.88" y1="2489.19" x2="3031.88" y2="2529.16" style="stroke:#000000;stroke-width:5.76"/>
	<text x="3031.88" y="2619.14" style="font-family:'Helvetica';font-size:99.99px;fill:#000000" text-anchor="middle">80</text>
	<line x1="3642.95" y1="2489.19" x2="3642.95" y2="2529.16" style="stroke:#000000;stroke-width:5.76"/>
	<text x="3642.95" y="2619.14" style="font-family:'Helvetica';font-size:99.99px;fill:#000000" text-anchor="middle">100</text>
	<text x="2191.61" y="2729.16" style="font-family:'Helvetica';font-size:99.99px;fill:#000000" text-anchor="middle">Days from 1 March 2020</text>
	<rect x="2218.84" y="135.39" width="1605.66" height="326.34" style="fill:#FFFFFF"/>
	<rect x="2221.72" y="138.27" width="1599.90" height="320.58" style="fill:none;stroke:#000000;stroke-width:5.76"/>
	<rect x="2262.03" y="178.58" width="374.34" height="99.99" style="fill:#FF3333;fill-opacity:0.25"/>
	<rect x="2266.35" y="182.90" width="365.70" height="91.35" style="fill:none;stroke:#FF0000;stroke-opacity:0.25;stroke-width:8.64"/>
	<rect x="2262.03" y="318.54" width="374.34" height="99.99" style="fill:#3333FF;fill-opacity:0.25"/>
	<rect x="2266.35" y="322.86" width="365.70" height="91.35" style="fill:none;stroke:#0000FF;stroke-opacity:0.25;stroke-width:8.64"/>
	<text x="2696.39" y="263.60" style="font-family:'Helvetica';font-size:99.99px;fill:#000000">Non-current NSAID use</text>
	<text x="2696.39" y="403.57" style="font-family:'Helvetica';font-size:99.99px;fill:#000000">Current NSAID use</text>
</svg>
