<?xml version="1.0" encoding="UTF-8" standalone="no"?>
<!-- This is a Stata 16.1 generated SVG file (http://www.stata.com) -->

<svg version="1.1" width="5.50in" height="4.00in" viewBox="0 0 3960 2880" xmlns="http://www.w3.org/2000/svg" xmlns:xlink="http://www.w3.org/1999/xlink">
	<desc>Stata Graph - Graph</desc>
	<rect x="0" y="0" width="3960" height="2880" style="fill:#EAF2F3;stroke:none"/>
	<rect x="0.00" y="0.00" width="3959.88" height="2880.00" style="fill:#EAF2F3"/>
	<rect x="2.88" y="2.88" width="3954.12" height="2874.24" style="fill:none;stroke:#EAF2F3;stroke-width:5.76"/>
	<rect x="559.10" y="100.86" width="3299.92" height="2388.33" style="fill:#FFFFFF"/>
	<rect x="561.98" y="103.74" width="3294.16" height="2382.57" style="fill:none;stroke:#FFFFFF;stroke-width:5.76"/>
	<line x1="559.10" y1="2399.83" x2="3859.02" y2="2399.83" style="stroke:#EAF2F3;stroke-width:8.64"/>
	<line x1="559.10" y1="1654.59" x2="3859.02" y2="1654.59" style="stroke:#EAF2F3;stroke-width:8.64"/>
	<line x1="559.10" y1="909.34" x2="3859.02" y2="909.34" style="stroke:#EAF2F3;stroke-width:8.64"/>
	<line x1="559.10" y1="164.22" x2="3859.02" y2="164.22" style="stroke:#EAF2F3;stroke-width:8.64"/>
	<defs>
		<path id="path_qWwlSUZx" d="M622.46 164.22 L622.46 164.22 L652.66 164.22 L682.85 164.22 L713.17 164.22 L743.37 164.22 L773.56 164.22 L803.76 164.22 L834.08 164.22 L864.27 164.22 L894.47 164.22 L924.66 164.22 L954.86 164.35 L985.17 164.59 L1015.37 164.96 L1045.56 165.58 L1075.76 166.70 L1105.95 168.18 L1136.27 170.29 L1166.47 173.38 L1196.66 177.34 L1226.86 182.54 L1257.18 189.22 L1287.37 197.51 L1317.57 207.66 L1347.76 219.91 L1377.96 234.27 L1408.28 250.85 L1438.47 270.03 L1468.66 291.69 L1498.86 316.07 L1529.06 342.92 L1559.37 372.50 L1589.57 404.68 L1619.76 439.45 L1649.96 476.58 L1680.28 515.93 L1710.47 557.63 L1740.67 601.20 L1770.86 646.61 L1801.06 693.76 L1831.38 742.15 L1861.57 791.78 L1891.77 842.27 L1921.96 893.50 L1952.16 945.23 L1982.47 997.21 L2012.67 1049.19 L2042.87 1101.04 L2073.06 1152.27 L2103.38 1203.01 L2133.57 1252.88 L2163.77 1301.77 L2193.96 1349.54 L2224.16 1396.19 L2254.48 1441.49 L2284.67 1485.54 L2314.87 1528.24 L2345.06 1569.57 L2375.26 1609.54 L2405.58 1648.15 L2435.77 1685.28 L2465.97 1721.05 L2496.16 1755.45 L2526.48 1788.49 L2556.68 1820.17 L2586.87 1850.62 L2617.07 1879.70 L2647.26 1907.67 L2677.58 1934.27 L2707.77 1959.89 L2737.97 1984.27 L2768.16 2007.66 L2798.36 2029.93 L2828.68 2051.22 L2858.87 2071.52 L2889.07 2091.07 L2919.26 2109.63 L2949.46 2127.33 L2979.78 2144.28 L3009.97 2160.50 L3040.17 2175.96 L3070.36 2190.81 L3100.68 2204.92 L3130.88 2218.54 L3161.07 2231.53 L3191.26 2244.03 L3221.46 2256.03 L3251.78 2267.54 L3281.97 2278.68 L3312.17 2289.32 L3342.36 2299.72 L3372.56 2309.62 L3402.88 2319.27 L3433.07 2328.68 L3463.27 2337.71 L3493.46 2346.62 L3523.78 2355.16 L3553.98 2363.58 L3584.17 2371.87 L3614.37 2379.91 L3644.56 2387.83 L3674.88 2395.63 L3705.07 2403.30 L3735.27 2410.85 L3765.47 2418.40 L3795.66 2425.82 L3795.66 754.90 L3765.47 752.92 L3735.27 750.94 L3705.07 748.96 L3674.88 746.98 L3644.56 745.00 L3614.37 742.89 L3584.17 740.79 L3553.98 738.69 L3523.78 736.46 L3493.46 734.23 L3463.27 731.88 L3433.07 729.53 L3402.88 727.05 L3372.56 724.58 L3342.36 721.98 L3312.17 719.26 L3281.97 716.41 L3251.78 713.56 L3221.46 710.47 L3191.26 707.38 L3161.07 704.16 L3130.88 700.69 L3100.68 697.11 L3070.36 693.39 L3040.17 689.56 L3009.97 685.47 L2979.78 681.27 L2949.46 676.81 L2919.26 672.23 L2889.07 667.28 L2858.87 662.21 L2828.68 656.89 L2798.36 651.32 L2768.16 645.50 L2737.97 639.44 L2707.77 633.00 L2677.58 626.32 L2647.26 619.39 L2617.07 612.09 L2586.87 604.54 L2556.68 596.49 L2526.48 588.20 L2496.16 579.66 L2465.97 570.63 L2435.77 561.22 L2405.58 551.57 L2375.26 541.42 L2345.06 531.03 L2314.87 520.26 L2284.67 509.00 L2254.48 497.49 L2224.16 485.73 L2193.96 473.48 L2163.77 460.98 L2133.57 448.24 L2103.38 435.12 L2073.06 421.88 L2042.87 408.39 L2012.67 394.77 L1982.47 381.16 L1952.16 367.55 L1921.96 354.06 L1891.77 340.57 L1861.57 327.33 L1831.38 314.33 L1801.06 301.59 L1770.86 289.21 L1740.67 277.33 L1710.47 265.82 L1680.28 254.93 L1649.96 244.66 L1619.76 234.88 L1589.57 225.85 L1559.37 217.44 L1529.06 209.64 L1498.86 202.59 L1468.66 196.27 L1438.47 190.70 L1408.28 185.75 L1377.96 181.42 L1347.76 177.83 L1317.57 174.74 L1287.37 172.14 L1257.18 170.04 L1226.86 168.43 L1196.66 167.19 L1166.47 166.20 L1136.27 165.46 L1105.95 164.96 L1075.76 164.72 L1045.56 164.47 L1015.37 164.35 L985.17 164.22 L954.86 164.22 L924.66 164.22 L894.47 164.22 L864.27 164.22 L834.08 164.22 L803.76 164.22 L773.56 164.22 L743.37 164.22 L713.17 164.22 L682.85 164.22 L652.66 164.22 L622.46 164.22 L622.46 164.22 Z" stroke-linejoin="round"/>
	</defs>
	<defs>
		<clipPath id="clipPath_LvBEdqXK">
			<use xlink:href="#path_qWwlSUZx"/>
		</clipPath>
	</defs>
	<use xlink:href="#path_qWwlSUZx" style="stroke:none;fill:#FF3333;fill-opacity:0.25"/>
	<use xlink:href="#path_qWwlSUZx" style="fill:none;stroke:#FF0000;stroke-opacity:0.25;stroke-width:17.28" clip-path="url(#clipPath_LvBEdqXK)"/>
	<path d=" M622.46 164.22 L652.66 164.22 L682.85 164.22 L713.05 164.22 L743.24 164.22 L773.56 164.22 L803.76 164.22 L833.95 164.22 L864.15 164.22 L894.34 164.22 L924.66 164.22 L954.86 164.35 L985.05 164.47 L1015.25 164.72 L1045.56 165.09 L1075.76 165.71 L1105.95 166.70 L1136.15 167.93 L1166.34 169.79 L1196.66 172.27 L1226.86 175.61 L1257.05 179.69 L1287.25 184.89 L1317.44 191.32 L1347.76 198.87 L1377.96 207.91 L1408.15 218.43 L1438.35 230.43 L1468.66 244.04 L1498.86 259.39 L1529.06 276.34 L1559.25 295.03 L1589.44 315.32 L1619.76 337.23 L1649.96 360.62 L1680.15 385.49 L1710.35 411.85 L1740.54 439.33 L1770.86 468.04 L1801.06 497.74 L1831.25 528.31 L1861.45 559.61 L1891.77 591.54 L1921.96 623.84 L1952.16 656.51 L1982.35 689.31 L2012.55 722.10 L2042.87 754.77 L2073.06 787.20 L2103.26 819.13 L2133.45 850.56 L2163.64 881.50 L2193.96 911.57 L2224.16 941.02 L2254.35 969.61 L2284.55 997.33 L2314.87 1024.31 L2345.06 1050.42 L2375.26 1075.54 L2405.45 1099.92 L2435.65 1123.31 L2465.97 1145.84 L2496.16 1167.62 L2526.36 1188.41 L2556.55 1208.46 L2586.75 1227.64 L2617.07 1245.95 L2647.26 1263.53 L2677.45 1280.36 L2707.65 1296.57 L2737.97 1311.91 L2768.16 1326.64 L2798.36 1340.75 L2828.55 1354.11 L2858.75 1366.99 L2889.07 1379.24 L2919.26 1390.99 L2949.46 1402.13 L2979.65 1412.77 L3009.85 1423.05 L3040.17 1432.82 L3070.36 1442.10 L3100.56 1451.14 L3130.75 1459.68 L3160.95 1467.84 L3191.26 1475.76 L3221.46 1483.31 L3251.66 1490.62 L3281.85 1497.67 L3312.17 1504.35 L3342.36 1510.91 L3372.56 1517.10 L3402.75 1523.29 L3432.95 1529.10 L3463.27 1534.92 L3493.46 1540.49 L3523.66 1545.93 L3553.85 1551.13 L3584.05 1556.33 L3614.37 1561.40 L3644.56 1566.48 L3674.76 1571.30 L3704.95 1576.25 L3735.27 1580.96 L3765.47 1585.66 L3795.66 1590.36" stroke-linejoin="round" style="fill:none;stroke:#FF0000;stroke-width:8.64"/>
	<line x1="559.10" y1="2489.19" x2="559.10" y2="100.86" style="stroke:#000000;stroke-width:5.76"/>
	<line x1="559.10" y1="2399.83" x2="519.13" y2="2399.83" style="stroke:#000000;stroke-width:5.76"/>
	<text x="499.08" y="2434.86" style="font-family:'Helvetica';font-size:99.99px;fill:#000000" text-anchor="end">-0.06</text>
	<line x1="559.10" y1="1654.59" x2="519.13" y2="1654.59" style="stroke:#000000;stroke-width:5.76"/>
	<text x="499.08" y="1689.62" style="font-family:'Helvetica';font-size:99.99px;fill:#000000" text-anchor="end">-0.04</text>
	<line x1="559.10" y1="909.34" x2="519.13" y2="909.34" style="stroke:#000000;stroke-width:5.76"/>
	<text x="499.08" y="944.37" style="font-family:'Helvetica';font-size:99.99px;fill:#000000" text-anchor="end">-0.02</text>
	<line x1="559.10" y1="164.22" x2="519.13" y2="164.22" style="stroke:#000000;stroke-width:5.76"/>
	<text x="499.08" y="199.25" style="font-family:'Helvetica';font-size:99.99px;fill:#000000" text-anchor="end">0.00</text>
	<text x="190.71" y="1294.96" style="font-family:'Helvetica';font-size:99.99px;fill:#000000" transform="rotate(-90 190.71,1294.96)" text-anchor="middle">Difference in curves (%)</text>
	<line x1="559.10" y1="2489.19" x2="3859.02" y2="2489.19" style="stroke:#000000;stroke-width:5.76"/>
	<line x1="622.46" y1="2489.19" x2="622.46" y2="2529.16" style="stroke:#000000;stroke-width:5.76"/>
	<text x="622.46" y="2619.14" style="font-family:'Helvetica';font-size:99.99px;fill:#000000" text-anchor="middle">0</text>
	<line x1="1226.86" y1="2489.19" x2="1226.86" y2="2529.16" style="stroke:#000000;stroke-width:5.76"/>
	<text x="1226.86" y="2619.14" style="font-family:'Helvetica';font-size:99.99px;fill:#000000" text-anchor="middle">20</text>
	<line x1="1831.38" y1="2489.19" x2="1831.38" y2="2529.16" style="stroke:#000000;stroke-width:5.76"/>
	<text x="1831.38" y="2619.14" style="font-family:'Helvetica';font-size:99.99px;fill:#000000" text-anchor="middle">40</text>
	<line x1="2435.77" y1="2489.19" x2="2435.77" y2="2529.16" style="stroke:#000000;stroke-width:5.76"/>
	<text x="2435.77" y="2619.14" style="font-family:'Helvetica';font-size:99.99px;fill:#000000" text-anchor="middle">60</text>
	<line x1="3040.17" y1="2489.19" x2="3040.17" y2="2529.16" style="stroke:#000000;stroke-width:5.76"/>
	<text x="3040.17" y="2619.14" style="font-family:'Helvetica';font-size:99.99px;fill:#000000" text-anchor="middle">80</text>
	<line x1="3644.56" y1="2489.19" x2="3644.56" y2="2529.16" style="stroke:#000000;stroke-width:5.76"/>
	<text x="3644.56" y="2619.14" style="font-family:'Helvetica';font-size:99.99px;fill:#000000" text-anchor="middle">100</text>
	<text x="2209.06" y="2729.16" style="font-family:'Helvetica';font-size:99.99px;fill:#000000" text-anchor="middle">Days from 1 March 2020</text>
</svg>
