<?xml version="1.0" encoding="UTF-8" standalone="no"?>
<!-- This is a Stata 16.1 generated SVG file (http://www.stata.com) -->

<svg version="1.1" width="5.50in" height="4.00in" viewBox="0 0 3960 2880" xmlns="http://www.w3.org/2000/svg" xmlns:xlink="http://www.w3.org/1999/xlink">
	<desc>Stata Graph - Graph</desc>
	<rect x="0" y="0" width="3960" height="2880" style="fill:#EAF2F3;stroke:none"/>
	<rect x="0.00" y="0.00" width="3959.88" height="2880.00" style="fill:#FFFFFF"/>
	<rect x="2.88" y="2.88" width="3954.12" height="2874.24" style="fill:none;stroke:#EAF2F3;stroke-width:5.76"/>
	<rect x="1038.88" y="630.90" width="2802.94" height="1604.96" style="fill:#FFFFFF"/>
	<rect x="1041.76" y="633.78" width="2797.18" height="1599.20" style="fill:none;stroke:#FFFFFF;stroke-width:5.76"/>
	<line x1="1038.88" y1="2172.62" x2="3841.82" y2="2172.62" style="stroke:#EAF2F3;stroke-width:8.64"/>
	<line x1="1038.88" y1="1802.97" x2="3841.82" y2="1802.97" style="stroke:#EAF2F3;stroke-width:8.64"/>
	<line x1="1038.88" y1="1433.44" x2="3841.82" y2="1433.44" style="stroke:#EAF2F3;stroke-width:8.64"/>
	<line x1="1038.88" y1="1063.79" x2="3841.82" y2="1063.79" style="stroke:#EAF2F3;stroke-width:8.64"/>
	<path d=" M1102.24 2172.62 L1102.24 2172.62 L1102.24 2172.62 L1102.24 2172.62 L1102.24 2172.62 L1126.62 2172.62 L1126.62 2172.13 L1150.88 2172.13 L1150.88 2172.13 L1175.25 2172.13 L1175.25 2172.13 L1199.51 2172.13 L1199.51 2172.13 L1223.89 2172.13 L1223.89 2172.13 L1248.27 2172.13 L1248.27 2172.13 L1272.52 2172.13 L1272.52 2172.13 L1296.90 2172.13 L1296.90 2172.13 L1321.15 2172.13 L1321.15 2172.13 L1345.53 2172.13 L1345.53 2172.13 L1369.79 2172.13 L1369.79 2172.13 L1394.17 2172.13 L1394.17 2172.13 L1418.55 2172.13 L1418.55 2172.13 L1442.80 2172.13 L1442.80 2172.13 L1467.18 2172.13 L1467.18 2171.63 L1491.43 2171.63 L1491.43 2171.14 L1515.81 2171.14 L1515.81 2170.15 L1540.19 2170.15 L1540.19 2170.15 L1564.45 2170.15 L1564.45 2169.78 L1588.83 2169.78 L1588.83 2167.30 L1613.08 2167.30 L1613.08 2164.83 L1637.46 2164.83 L1637.46 2162.48 L1661.84 2162.48 L1661.84 2156.66 L1686.09 2156.66 L1686.09 2151.71 L1710.47 2151.71 L1710.47 2144.04 L1734.73 2144.04 L1734.73 2135.25 L1759.11 2135.25 L1759.11 2127.45 L1783.48 2127.45 L1783.48 2117.18 L1807.74 2117.18 L1807.74 2102.21 L1832.12 2102.21 L1832.12 2088.10 L1856.37 2088.10 L1856.37 2068.55 L1880.75 2068.55 L1880.75 2052.46 L1905.13 2052.46 L1905.13 2024.74 L1929.39 2024.74 L1929.39 1997.02 L1953.77 1997.02 L1953.77 1970.16 L1978.02 1970.16 L1978.02 1950.73 L2002.40 1950.73 L2002.40 1921.53 L2026.78 1921.53 L2026.78 1886.38 L2051.03 1886.38 L2051.03 1862.00 L2075.41 1862.00 L2075.41 1828.34 L2099.67 1828.34 L2099.67 1800.99 L2124.05 1800.99 L2124.05 1771.29 L2148.30 1771.29 L2148.30 1747.78 L2172.68 1747.78 L2172.68 1720.92 L2197.06 1720.92 L2197.06 1697.53 L2221.31 1697.53 L2221.31 1673.65 L2245.69 1673.65 L2245.69 1644.32 L2269.95 1644.32 L2269.95 1618.82 L2294.32 1618.82 L2294.32 1591.97 L2318.70 1591.97 L2318.70 1566.60 L2342.96 1566.60 L2342.96 1545.56 L2367.34 1545.56 L2367.34 1520.56 L2391.59 1520.56 L2391.59 1499.03 L2415.97 1499.03 L2415.97 1482.32 L2440.35 1482.32 L2440.35 1464.26 L2464.61 1464.26 L2464.61 1442.23 L2488.98 1442.23 L2488.98 1423.54 L2513.24 1423.54 L2513.24 1400.52 L2537.62 1400.52 L2537.62 1381.46 L2562.00 1381.46 L2562.00 1365.25 L2586.25 1365.25 L2586.25 1345.58 L2610.63 1345.58 L2610.63 1328.37 L2634.89 1328.37 L2634.89 1307.34 L2659.26 1307.34 L2659.26 1291.62 L2683.64 1291.62 L2683.64 1278.38 L2707.90 1278.38 L2707.90 1264.64 L2732.28 1264.64 L2732.28 1253.75 L2756.53 1253.75 L2756.53 1241.50 L2780.91 1241.50 L2780.91 1226.28 L2805.16 1226.28 L2805.16 1217.86 L2829.54 1217.86 L2829.54 1204.62 L2853.92 1204.62 L2853.92 1196.70 L2878.18 1196.70 L2878.18 1183.95 L2902.56 1183.95 L2902.56 1176.03 L2926.81 1176.03 L2926.81 1165.64 L2951.19 1165.64 L2951.19 1154.38 L2975.57 1154.38 L2975.57 1145.96 L2999.82 1145.96 L2999.82 1133.59 L3024.20 1133.59 L3024.20 1125.29 L3048.46 1125.29 L3048.46 1115.39 L3072.84 1115.39 L3072.84 1105.49 L3097.22 1105.49 L3097.22 1098.07 L3121.47 1098.07 L3121.47 1087.30 L3145.85 1087.30 L3145.85 1080.37 L3170.10 1080.37 L3170.10 1068.99 L3194.48 1068.99 L3194.48 1057.60 L3218.86 1057.60 L3218.86 1051.66 L3243.12 1051.66 L3243.12 1044.24 L3267.49 1044.24 L3267.49 1039.28 L3291.75 1039.28 L3291.75 1035.82 L3316.13 1035.82 L3316.13 1031.86 L3340.51 1031.86 L3340.51 1026.41 L3364.76 1026.41 L3364.76 1023.94 L3389.14 1023.94 L3389.14 1018.00 L3413.40 1018.00 L3413.40 1012.06 L3437.78 1012.06 L3437.78 1008.10 L3462.15 1008.10 L3462.15 1004.63 L3486.41 1004.63 L3486.41 999.68 L3510.79 999.68 L3510.79 996.22 L3535.04 996.22 L3535.04 992.26 L3559.42 992.26 L3559.42 988.79 L3583.68 988.79 L3583.68 984.34 L3608.05 984.34 L3608.05 982.23 L3632.43 982.23 L3632.43 979.76 L3656.69 979.76 L3656.69 977.28" stroke-linejoin="round" style="fill:none;stroke:#1A476F;stroke-width:8.64"/>
	<path d=" M1102.24 2172.62 L1102.24 2172.62 L1102.24 2172.62 L1102.24 2172.62 L1102.24 2172.62 L1150.88 2172.62 L1150.88 2172.62 L1223.89 2172.62 L1223.89 2172.62 L1248.27 2172.62 L1248.27 2172.62 L1272.52 2172.62 L1272.52 2172.62 L1296.90 2172.62 L1296.90 2172.62 L1321.15 2172.62 L1321.15 2172.62 L1345.53 2172.62 L1345.53 2172.62 L1369.79 2172.62 L1369.79 2172.62 L1418.55 2172.62 L1418.55 2172.62 L1442.80 2172.62 L1442.80 2172.62 L1467.18 2172.62 L1467.18 2172.62 L1491.43 2172.62 L1491.43 2172.62 L1515.81 2172.62 L1515.81 2172.62 L1540.19 2172.62 L1540.19 2172.62 L1564.45 2172.62 L1564.45 2172.62 L1588.83 2172.62 L1588.83 2172.62 L1613.08 2172.62 L1613.08 2172.62 L1637.46 2172.62 L1637.46 2172.62 L1661.84 2172.62 L1661.84 2172.62 L1686.09 2172.62 L1686.09 2172.62 L1710.47 2172.62 L1710.47 2172.62 L1734.73 2172.62 L1734.73 2172.62 L1759.11 2172.62 L1759.11 2172.62 L1807.74 2172.62 L1807.74 2172.62 L1832.12 2172.62 L1832.12 2138.84 L1856.37 2138.84 L1856.37 2071.14 L1905.13 2071.14 L1905.13 2071.14 L1929.39 2071.14 L1929.39 2037.24 L1953.77 2037.24 L1953.77 2003.45 L1978.02 2003.45 L1978.02 1969.54 L2002.40 1969.54 L2002.40 1935.76 L2026.78 1935.76 L2026.78 1901.85 L2051.03 1901.85 L2051.03 1868.06 L2099.67 1868.06 L2099.67 1868.06 L2124.05 1868.06 L2124.05 1834.16 L2172.68 1834.16 L2172.68 1834.16 L2197.06 1834.16 L2197.06 1834.16 L2221.31 1834.16 L2221.31 1834.16 L2269.95 1834.16 L2269.95 1834.16 L2294.32 1834.16 L2294.32 1800.37 L2318.70 1800.37 L2318.70 1800.37 L2342.96 1800.37 L2342.96 1766.46 L2391.59 1766.46 L2391.59 1732.55 L2440.35 1732.55 L2440.35 1732.55 L2464.61 1732.55 L2464.61 1732.55 L2488.98 1732.55 L2488.98 1664.86 L2513.24 1664.86 L2513.24 1630.95 L2537.62 1630.95 L2537.62 1597.04 L2610.63 1597.04 L2610.63 1597.04 L2634.89 1597.04 L2634.89 1597.04 L2659.26 1597.04 L2659.26 1563.14 L2683.64 1563.14 L2683.64 1563.14 L2732.28 1563.14 L2732.28 1563.14 L2780.91 1563.14 L2780.91 1563.14 L2853.92 1563.14 L2853.92 1495.44 L2878.18 1495.44 L2878.18 1461.53 L2999.82 1461.53 L2999.82 1427.62 L3048.46 1427.62 L3048.46 1393.72 L3072.84 1393.72 L3072.84 1393.72 L3097.22 1393.72 L3097.22 1393.72 L3121.47 1393.72 L3121.47 1393.72 L3145.85 1393.72 L3145.85 1393.72 L3194.48 1393.72 L3194.48 1393.72 L3218.86 1393.72 L3218.86 1393.72 L3291.75 1393.72 L3291.75 1393.72 L3340.51 1393.72 L3340.51 1393.72 L3364.76 1393.72 L3364.76 1393.72 L3389.14 1393.72 L3389.14 1359.81 L3437.78 1359.81 L3437.78 1325.90 L3462.15 1325.90 L3462.15 1325.90 L3510.79 1325.90 L3510.79 1325.90 L3583.68 1325.90 L3583.68 1325.90 L3608.05 1325.90 L3608.05 1325.90 L3632.43 1325.90 L3632.43 1325.90 L3656.69 1325.90 L3656.69 1325.90" stroke-linejoin="round" style="fill:none;stroke:#90353B;stroke-width:8.64"/>
	<path d=" M1102.24 2172.62 L1102.24 2172.62 L1102.24 2172.62 L1102.24 2172.62 L1102.24 2172.62 L1126.62 2172.62 L1126.62 2172.62 L1150.88 2172.62 L1150.88 2172.62 L1175.25 2172.62 L1175.25 2172.62 L1199.51 2172.62 L1199.51 2172.62 L1223.89 2172.62 L1223.89 2172.62 L1248.27 2172.62 L1248.27 2172.62 L1272.52 2172.62 L1272.52 2172.62 L1296.90 2172.62 L1296.90 2172.62 L1321.15 2172.62 L1321.15 2172.62 L1345.53 2172.62 L1345.53 2172.62 L1369.79 2172.62 L1369.79 2172.62 L1394.17 2172.62 L1394.17 2172.62 L1418.55 2172.62 L1418.55 2172.62 L1442.80 2172.62 L1442.80 2172.62 L1467.18 2172.62 L1467.18 2172.62 L1491.43 2172.62 L1491.43 2172.62 L1515.81 2172.62 L1515.81 2172.62 L1540.19 2172.62 L1540.19 2172.62 L1564.45 2172.62 L1564.45 2172.62 L1588.83 2172.62 L1588.83 2172.62 L1613.08 2172.62 L1613.08 2167.80 L1637.46 2167.80 L1637.46 2162.97 L1661.84 2162.97 L1661.84 2158.14 L1686.09 2158.14 L1686.09 2153.44 L1710.47 2153.44 L1710.47 2153.44 L1734.73 2153.44 L1734.73 2153.44 L1759.11 2153.44 L1759.11 2153.44 L1783.48 2153.44 L1783.48 2153.44 L1807.74 2153.44 L1807.74 2138.96 L1832.12 2138.96 L1832.12 2138.96 L1856.37 2138.96 L1856.37 2129.31 L1880.75 2129.31 L1880.75 2124.48 L1905.13 2124.48 L1905.13 2105.30 L1929.39 2105.30 L1929.39 2100.47 L1953.77 2100.47 L1953.77 2090.82 L1978.02 2090.82 L1978.02 2086.00 L2002.40 2086.00 L2002.40 2066.81 L2026.78 2066.81 L2026.78 2057.16 L2051.03 2057.16 L2051.03 2028.33 L2075.41 2028.33 L2075.41 2004.19 L2099.67 2004.19 L2099.67 1994.54 L2124.05 1994.54 L2124.05 1970.53 L2148.30 1970.53 L2148.30 1960.88 L2172.68 1960.88 L2172.68 1956.05 L2197.06 1956.05 L2197.06 1946.40 L2221.31 1946.40 L2221.31 1941.57 L2245.69 1941.57 L2245.69 1932.05 L2269.95 1932.05 L2269.95 1922.39 L2294.32 1922.39 L2294.32 1907.91 L2318.70 1907.91 L2318.70 1888.73 L2342.96 1888.73 L2342.96 1879.08 L2367.34 1879.08 L2367.34 1879.08 L2391.59 1879.08 L2391.59 1874.25 L2415.97 1874.25 L2415.97 1864.60 L2440.35 1864.60 L2440.35 1859.77 L2464.61 1859.77 L2464.61 1845.29 L2488.98 1845.29 L2488.98 1830.94 L2513.24 1830.94 L2513.24 1821.29 L2537.62 1821.29 L2537.62 1816.46 L2562.00 1816.46 L2562.00 1811.63 L2610.63 1811.63 L2610.63 1811.63 L2634.89 1811.63 L2634.89 1806.81 L2659.26 1806.81 L2659.26 1801.98 L2683.64 1801.98 L2683.64 1782.80 L2707.90 1782.80 L2707.90 1782.80 L2732.28 1782.80 L2732.28 1777.97 L2756.53 1777.97 L2756.53 1777.97 L2780.91 1777.97 L2780.91 1768.32 L2805.16 1768.32 L2805.16 1768.32 L2829.54 1768.32 L2829.54 1768.32 L2853.92 1768.32 L2853.92 1763.49 L2878.18 1763.49 L2878.18 1763.49 L2902.56 1763.49 L2902.56 1758.67 L2926.81 1758.67 L2926.81 1758.67 L2951.19 1758.67 L2951.19 1753.84 L2975.57 1753.84 L2975.57 1749.01 L2999.82 1749.01 L2999.82 1744.19 L3024.20 1744.19 L3024.20 1744.19 L3048.46 1744.19 L3048.46 1739.36 L3072.84 1739.36 L3072.84 1739.36 L3097.22 1739.36 L3097.22 1739.36 L3121.47 1739.36 L3121.47 1739.36 L3145.85 1739.36 L3145.85 1739.36 L3170.10 1739.36 L3170.10 1734.53 L3194.48 1734.53 L3194.48 1729.71 L3218.86 1729.71 L3218.86 1729.71 L3243.12 1729.71 L3243.12 1729.71 L3267.49 1729.71 L3267.49 1729.71 L3316.13 1729.71 L3316.13 1729.71 L3340.51 1729.71 L3340.51 1724.88 L3364.76 1724.88 L3364.76 1724.88 L3389.14 1724.88 L3389.14 1720.18 L3437.78 1720.18 L3437.78 1720.18 L3462.15 1720.18 L3462.15 1715.35 L3486.41 1715.35 L3486.41 1715.35 L3510.79 1715.35 L3510.79 1715.35 L3535.04 1715.35 L3535.04 1715.35 L3559.42 1715.35 L3559.42 1715.35 L3583.68 1715.35 L3583.68 1715.35 L3608.05 1715.35 L3608.05 1705.70 L3632.43 1705.70 L3632.43 1705.70 L3656.69 1705.70 L3656.69 1700.87" stroke-linejoin="round" style="fill:none;stroke:#55752F;stroke-width:8.64"/>
	<line x1="1038.88" y1="2235.86" x2="1038.88" y2="630.90" style="stroke:#000000;stroke-width:5.76"/>
	<line x1="1038.88" y1="2172.62" x2="998.91" y2="2172.62" style="stroke:#000000;stroke-width:5.76"/>
	<text x="978.99" y="2200.63" style="font-family:'Helvetica';font-size:79.94px;fill:#000000" text-anchor="end">0.0000</text>
	<line x1="1038.88" y1="1802.97" x2="998.91" y2="1802.97" style="stroke:#000000;stroke-width:5.76"/>
	<text x="978.99" y="1830.98" style="font-family:'Helvetica';font-size:79.94px;fill:#000000" text-anchor="end">0.0005</text>
	<line x1="1038.88" y1="1433.44" x2="998.91" y2="1433.44" style="stroke:#000000;stroke-width:5.76"/>
	<text x="978.99" y="1461.45" style="font-family:'Helvetica';font-size:79.94px;fill:#000000" text-anchor="end">0.0010</text>
	<line x1="1038.88" y1="1063.79" x2="998.91" y2="1063.79" style="stroke:#000000;stroke-width:5.76"/>
	<text x="978.99" y="1091.80" style="font-family:'Helvetica';font-size:79.94px;fill:#000000" text-anchor="end">0.0015</text>
	<line x1="1038.88" y1="694.26" x2="998.91" y2="694.26" style="stroke:#000000;stroke-width:5.76"/>
	<text x="978.99" y="722.27" style="font-family:'Helvetica';font-size:79.94px;fill:#000000" text-anchor="end">0.0020</text>
	<text x="1102.24" y="2747.83" style="font-family:'Helvetica';font-size:60.02px;fill:#000000" text-anchor="middle">153738</text>
	<text x="1588.83" y="2747.83" style="font-family:'Helvetica';font-size:60.02px;fill:#000000" text-anchor="middle">153665</text>
	<text x="2075.41" y="2747.83" style="font-family:'Helvetica';font-size:60.02px;fill:#000000" text-anchor="middle">153547</text>
	<text x="2562.00" y="2747.83" style="font-family:'Helvetica';font-size:60.02px;fill:#000000" text-anchor="middle">153428</text>
	<text x="3048.58" y="2747.83" style="font-family:'Helvetica';font-size:60.02px;fill:#000000" text-anchor="middle">153354</text>
	<text x="3535.17" y="2747.83" style="font-family:'Helvetica';font-size:60.02px;fill:#000000" text-anchor="middle">153290</text>
	<text x="968.47" y="2747.83" style="font-family:'Helvetica';font-size:60.02px;fill:#000000" text-anchor="end">Other NSAIDs</text>
	<text x="1102.24" y="2674.44" style="font-family:'Helvetica';font-size:60.02px;fill:#000000" text-anchor="middle">21893</text>
	<text x="1588.83" y="2674.44" style="font-family:'Helvetica';font-size:60.02px;fill:#000000" text-anchor="middle">21865</text>
	<text x="2075.41" y="2674.44" style="font-family:'Helvetica';font-size:60.02px;fill:#000000" text-anchor="middle">21829</text>
	<text x="2562.00" y="2674.44" style="font-family:'Helvetica';font-size:60.02px;fill:#000000" text-anchor="middle">21798</text>
	<text x="3048.58" y="2674.44" style="font-family:'Helvetica';font-size:60.02px;fill:#000000" text-anchor="middle">21780</text>
	<text x="3535.17" y="2674.44" style="font-family:'Helvetica';font-size:60.02px;fill:#000000" text-anchor="middle">21754</text>
	<text x="968.47" y="2674.44" style="font-family:'Helvetica';font-size:60.02px;fill:#000000" text-anchor="end">Ibuprofen</text>
	<text x="1102.24" y="2601.18" style="font-family:'Helvetica';font-size:60.02px;fill:#000000" text-anchor="middle">1535421</text>
	<text x="1588.83" y="2601.18" style="font-family:'Helvetica';font-size:60.02px;fill:#000000" text-anchor="middle">1522867</text>
	<text x="2075.41" y="2601.18" style="font-family:'Helvetica';font-size:60.02px;fill:#000000" text-anchor="middle">1514566</text>
	<text x="2562.00" y="2601.18" style="font-family:'Helvetica';font-size:60.02px;fill:#000000" text-anchor="middle">1505264</text>
	<text x="3048.58" y="2601.18" style="font-family:'Helvetica';font-size:60.02px;fill:#000000" text-anchor="middle">1495945</text>
	<text x="3535.17" y="2601.18" style="font-family:'Helvetica';font-size:60.02px;fill:#000000" text-anchor="middle">1486965</text>
	<text x="968.47" y="2601.18" style="font-family:'Helvetica';font-size:60.02px;fill:#000000" text-anchor="end">Non-current exposure to NSAIDs</text>
	<text x="968.47" y="2527.80" style="font-family:'Helvetica';font-size:60.02px;fill:#000000" text-anchor="end">Number at risk</text>
	<line x1="1038.88" y1="2235.86" x2="3841.82" y2="2235.86" style="stroke:#000000;stroke-width:5.76"/>
	<line x1="1102.24" y1="2235.86" x2="1102.24" y2="2275.96" style="stroke:#000000;stroke-width:5.76"/>
	<text x="1102.24" y="2351.78" style="font-family:'Helvetica';font-size:79.94px;fill:#000000" text-anchor="middle">0</text>
	<line x1="1588.83" y1="2235.86" x2="1588.83" y2="2275.96" style="stroke:#000000;stroke-width:5.76"/>
	<text x="1588.83" y="2351.78" style="font-family:'Helvetica';font-size:79.94px;fill:#000000" text-anchor="middle">20</text>
	<line x1="2075.41" y1="2235.86" x2="2075.41" y2="2275.96" style="stroke:#000000;stroke-width:5.76"/>
	<text x="2075.41" y="2351.78" style="font-family:'Helvetica';font-size:79.94px;fill:#000000" text-anchor="middle">40</text>
	<line x1="2562.00" y1="2235.86" x2="2562.00" y2="2275.96" style="stroke:#000000;stroke-width:5.76"/>
	<text x="2562.00" y="2351.78" style="font-family:'Helvetica';font-size:79.94px;fill:#000000" text-anchor="middle">60</text>
	<line x1="3048.58" y1="2235.86" x2="3048.58" y2="2275.96" style="stroke:#000000;stroke-width:5.76"/>
	<text x="3048.58" y="2351.78" style="font-family:'Helvetica';font-size:79.94px;fill:#000000" text-anchor="middle">80</text>
	<line x1="3535.17" y1="2235.86" x2="3535.17" y2="2275.96" style="stroke:#000000;stroke-width:5.76"/>
	<text x="3535.17" y="2351.78" style="font-family:'Helvetica';font-size:79.94px;fill:#000000" text-anchor="middle">100</text>
	<text x="2440.35" y="2441.87" style="font-family:'Helvetica';font-size:79.94px;fill:#000000" text-anchor="middle">Days since 1 Mar 2020</text>
	<rect x="1309.15" y="269.91" width="2262.40" height="326.46" style="fill:#FFFFFF"/>
	<rect x="1312.03" y="272.79" width="2256.64" height="320.70" style="fill:none;stroke:#EAF2F3;stroke-width:5.76"/>
	<line x1="1352.34" y1="363.09" x2="1726.81" y2="363.09" style="stroke:#1A476F;stroke-width:8.64"/>
	<line x1="2833.26" y1="363.09" x2="3207.60" y2="363.09" style="stroke:#90353B;stroke-width:8.64"/>
	<line x1="1352.34" y1="503.06" x2="1726.81" y2="503.06" style="stroke:#55752F;stroke-width:8.64"/>
	<text x="1786.83" y="384.13" style="font-family:'Helvetica';font-size:60.02px;fill:#000000">Non-current exposure to NSAIDs</text>
	<text x="3267.62" y="384.13" style="font-family:'Helvetica';font-size:60.02px;fill:#000000">Ibuprofen</text>
	<text x="1786.83" y="524.10" style="font-family:'Helvetica';font-size:60.02px;fill:#000000">Other NSAIDs</text>
	<text x="1056.21" y="187.99" style="font-family:'Helvetica';font-size:99.99px;fill:#1E2D53">Time to death, Rheumatoid_arthritis_&amp;_osteoarthritis population</text>
</svg>
