<?xml version="1.0" encoding="UTF-8" standalone="no"?>
<!-- This is a Stata 16.1 generated SVG file (http://www.stata.com) -->

<svg version="1.1" width="5.50in" height="4.00in" viewBox="0 0 3960 2880" xmlns="http://www.w3.org/2000/svg" xmlns:xlink="http://www.w3.org/1999/xlink">
	<desc>Stata Graph - Graph</desc>
	<rect x="0" y="0" width="3960" height="2880" style="fill:#EAF2F3;stroke:none"/>
	<rect x="0.00" y="0.00" width="3959.88" height="2880.00" style="fill:#FFFFFF"/>
	<rect x="2.88" y="2.88" width="3954.12" height="2874.24" style="fill:none;stroke:#EAF2F3;stroke-width:5.76"/>
	<rect x="1038.88" y="490.93" width="2802.94" height="1818.32" style="fill:#FFFFFF"/>
	<rect x="1041.76" y="493.81" width="2797.18" height="1812.56" style="fill:none;stroke:#FFFFFF;stroke-width:5.76"/>
	<line x1="1038.88" y1="2245.89" x2="3841.82" y2="2245.89" style="stroke:#EAF2F3;stroke-width:8.64"/>
	<line x1="1038.88" y1="1823.02" x2="3841.82" y2="1823.02" style="stroke:#EAF2F3;stroke-width:8.64"/>
	<line x1="1038.88" y1="1400.03" x2="3841.82" y2="1400.03" style="stroke:#EAF2F3;stroke-width:8.64"/>
	<line x1="1038.88" y1="977.16" x2="3841.82" y2="977.16" style="stroke:#EAF2F3;stroke-width:8.64"/>
	<path d=" M1102.24 2246.01 L1102.24 2246.01 L1102.24 2246.01 L1126.62 2246.01 L1126.62 2245.39 L1150.88 2245.39 L1150.88 2245.39 L1175.25 2245.39 L1175.25 2245.39 L1199.51 2245.39 L1199.51 2245.39 L1223.89 2245.39 L1223.89 2245.39 L1248.27 2245.39 L1248.27 2245.39 L1272.52 2245.39 L1272.52 2245.39 L1296.90 2245.39 L1296.90 2245.39 L1321.15 2245.39 L1321.15 2245.39 L1345.53 2245.39 L1345.53 2245.39 L1369.79 2245.39 L1369.79 2245.39 L1394.17 2245.39 L1394.17 2245.39 L1418.55 2245.39 L1418.55 2245.39 L1442.80 2245.39 L1442.80 2245.39 L1467.18 2245.39 L1467.18 2244.90 L1491.43 2244.90 L1491.43 2244.28 L1515.81 2244.28 L1515.81 2243.16 L1540.19 2243.16 L1540.19 2243.16 L1564.45 2243.16 L1564.45 2242.67 L1588.83 2242.67 L1588.83 2239.82 L1613.08 2239.82 L1613.08 2237.10 L1637.46 2237.10 L1637.46 2234.25 L1661.84 2234.25 L1661.84 2227.57 L1686.09 2227.57 L1686.09 2222.12 L1710.47 2222.12 L1710.47 2213.21 L1734.73 2213.21 L1734.73 2203.19 L1759.11 2203.19 L1759.11 2194.28 L1783.48 2194.28 L1783.48 2182.52 L1807.74 2182.52 L1807.74 2165.32 L1832.12 2165.32 L1832.12 2149.23 L1856.37 2149.23 L1856.37 2126.96 L1880.75 2126.96 L1880.75 2108.52 L1905.13 2108.52 L1905.13 2076.71 L1929.39 2076.71 L1929.39 2045.03 L1953.77 2045.03 L1953.77 2014.34 L1978.02 2014.34 L1978.02 1992.07 L2002.40 1992.07 L2002.40 1958.53 L2026.78 1958.53 L2026.78 1918.43 L2051.03 1918.43 L2051.03 1890.46 L2075.41 1890.46 L2075.41 1851.98 L2099.67 1851.98 L2099.67 1820.67 L2124.05 1820.67 L2124.05 1786.63 L2148.30 1786.63 L2148.30 1759.90 L2172.68 1759.90 L2172.68 1729.09 L2197.06 1729.09 L2197.06 1702.36 L2221.31 1702.36 L2221.31 1674.88 L2245.69 1674.88 L2245.69 1641.35 L2269.95 1641.35 L2269.95 1612.27 L2294.32 1612.27 L2294.32 1581.45 L2318.70 1581.45 L2318.70 1552.37 L2342.96 1552.37 L2342.96 1528.36 L2367.34 1528.36 L2367.34 1499.77 L2391.59 1499.77 L2391.59 1475.15 L2415.97 1475.15 L2415.97 1456.09 L2440.35 1456.09 L2440.35 1435.42 L2464.61 1435.42 L2464.61 1410.18 L2488.98 1410.18 L2488.98 1388.89 L2513.24 1388.89 L2513.24 1362.53 L2537.62 1362.53 L2537.62 1340.63 L2562.00 1340.63 L2562.00 1322.06 L2586.25 1322.06 L2586.25 1299.66 L2610.63 1299.66 L2610.63 1279.99 L2634.89 1279.99 L2634.89 1255.73 L2659.26 1255.73 L2659.26 1237.79 L2683.64 1237.79 L2683.64 1222.69 L2707.90 1222.69 L2707.90 1206.85 L2732.28 1206.85 L2732.28 1194.47 L2756.53 1194.47 L2756.53 1180.49 L2780.91 1180.49 L2780.91 1163.04 L2805.16 1163.04 L2805.16 1153.39 L2829.54 1153.39 L2829.54 1138.29 L2853.92 1138.29 L2853.92 1129.25 L2878.18 1129.25 L2878.18 1114.53 L2902.56 1114.53 L2902.56 1105.49 L2926.81 1105.49 L2926.81 1093.74 L2951.19 1093.74 L2951.19 1080.74 L2975.57 1080.74 L2975.57 1071.21 L2999.82 1071.21 L2999.82 1057.11 L3024.20 1057.11 L3024.20 1047.45 L3048.46 1047.45 L3048.46 1036.19 L3072.84 1036.19 L3072.84 1024.81 L3097.22 1024.81 L3097.22 1016.39 L3121.47 1016.39 L3121.47 1004.02 L3145.85 1004.02 L3145.85 996.09 L3170.10 996.09 L3170.10 982.98 L3194.48 982.98 L3194.48 969.98 L3218.86 969.98 L3218.86 963.30 L3243.12 963.30 L3243.12 954.76 L3267.49 954.76 L3267.49 949.07 L3291.75 949.07 L3291.75 945.11 L3316.13 945.11 L3316.13 940.65 L3340.51 940.65 L3340.51 934.34 L3364.76 934.34 L3364.76 931.50 L3389.14 931.50 L3389.14 924.69 L3413.40 924.69 L3413.40 917.88 L3437.78 917.88 L3437.78 913.43 L3462.15 913.43 L3462.15 909.47 L3486.41 909.47 L3486.41 903.77 L3510.79 903.77 L3510.79 899.81 L3535.04 899.81 L3535.04 895.24 L3559.42 895.24 L3559.42 891.28 L3583.68 891.28 L3583.68 886.08 L3608.05 886.08 L3608.05 883.85 L3632.43 883.85 L3632.43 881.00 L3656.69 881.00 L3656.69 878.16" stroke-linejoin="round" style="fill:none;stroke:#1A476F;stroke-width:8.64"/>
	<path d=" M1102.24 2246.01 L1102.24 2246.01 L1102.24 2246.01 L1126.62 2246.01 L1126.62 2246.01 L1150.88 2246.01 L1150.88 2246.01 L1175.25 2246.01 L1175.25 2246.01 L1199.51 2246.01 L1199.51 2246.01 L1223.89 2246.01 L1223.89 2246.01 L1248.27 2246.01 L1248.27 2246.01 L1272.52 2246.01 L1272.52 2246.01 L1296.90 2246.01 L1296.90 2246.01 L1321.15 2246.01 L1321.15 2246.01 L1345.53 2246.01 L1345.53 2246.01 L1369.79 2246.01 L1369.79 2246.01 L1394.17 2246.01 L1394.17 2246.01 L1418.55 2246.01 L1418.55 2246.01 L1442.80 2246.01 L1442.80 2246.01 L1467.18 2246.01 L1467.18 2246.01 L1491.43 2246.01 L1491.43 2246.01 L1515.81 2246.01 L1515.81 2246.01 L1540.19 2246.01 L1540.19 2246.01 L1564.45 2246.01 L1564.45 2246.01 L1588.83 2246.01 L1588.83 2246.01 L1613.08 2246.01 L1613.08 2241.18 L1637.46 2241.18 L1637.46 2236.36 L1661.84 2236.36 L1661.84 2231.53 L1686.09 2231.53 L1686.09 2226.70 L1710.47 2226.70 L1710.47 2226.70 L1734.73 2226.70 L1734.73 2226.70 L1759.11 2226.70 L1759.11 2226.70 L1783.48 2226.70 L1783.48 2226.70 L1807.74 2226.70 L1807.74 2212.22 L1832.12 2212.22 L1832.12 2207.40 L1856.37 2207.40 L1856.37 2188.09 L1880.75 2188.09 L1880.75 2183.27 L1905.13 2183.27 L1905.13 2163.96 L1929.39 2163.96 L1929.39 2154.43 L1953.77 2154.43 L1953.77 2139.95 L1978.02 2139.95 L1978.02 2130.30 L2002.40 2130.30 L2002.40 2106.17 L2026.78 2106.17 L2026.78 2091.69 L2051.03 2091.69 L2051.03 2057.90 L2075.41 2057.90 L2075.41 2033.89 L2099.67 2033.89 L2099.67 2024.24 L2124.05 2024.24 L2124.05 1995.28 L2148.30 1995.28 L2148.30 1985.63 L2172.68 1985.63 L2172.68 1980.80 L2197.06 1980.80 L2197.06 1971.15 L2221.31 1971.15 L2221.31 1966.33 L2245.69 1966.33 L2245.69 1956.67 L2269.95 1956.67 L2269.95 1947.02 L2294.32 1947.02 L2294.32 1927.71 L2318.70 1927.71 L2318.70 1908.41 L2342.96 1908.41 L2342.96 1893.93 L2367.34 1893.93 L2367.34 1893.93 L2391.59 1893.93 L2391.59 1884.28 L2415.97 1884.28 L2415.97 1874.62 L2440.35 1874.62 L2440.35 1869.92 L2464.61 1869.92 L2464.61 1855.44 L2488.98 1855.44 L2488.98 1831.31 L2513.24 1831.31 L2513.24 1816.83 L2537.62 1816.83 L2537.62 1807.18 L2562.00 1807.18 L2562.00 1802.35 L2610.63 1802.35 L2610.63 1802.35 L2634.89 1802.35 L2634.89 1797.52 L2659.26 1797.52 L2659.26 1787.87 L2683.64 1787.87 L2683.64 1768.57 L2707.90 1768.57 L2707.90 1768.57 L2732.28 1768.57 L2732.28 1763.74 L2756.53 1763.74 L2756.53 1763.74 L2780.91 1763.74 L2780.91 1754.09 L2805.16 1754.09 L2805.16 1754.09 L2829.54 1754.09 L2829.54 1754.09 L2853.92 1754.09 L2853.92 1739.61 L2878.18 1739.61 L2878.18 1734.78 L2902.56 1734.78 L2902.56 1729.96 L2926.81 1729.96 L2926.81 1729.96 L2951.19 1729.96 L2951.19 1725.13 L2975.57 1725.13 L2975.57 1720.30 L2999.82 1720.30 L2999.82 1710.65 L3024.20 1710.65 L3024.20 1710.65 L3048.46 1710.65 L3048.46 1701.00 L3072.84 1701.00 L3072.84 1701.00 L3097.22 1701.00 L3097.22 1701.00 L3121.47 1701.00 L3121.47 1701.00 L3145.85 1701.00 L3145.85 1701.00 L3170.10 1701.00 L3170.10 1696.17 L3194.48 1696.17 L3194.48 1691.34 L3218.86 1691.34 L3218.86 1691.34 L3243.12 1691.34 L3243.12 1691.34 L3267.49 1691.34 L3267.49 1691.34 L3291.75 1691.34 L3291.75 1691.34 L3316.13 1691.34 L3316.13 1691.34 L3340.51 1691.34 L3340.51 1686.52 L3364.76 1686.52 L3364.76 1686.52 L3389.14 1686.52 L3389.14 1676.86 L3437.78 1676.86 L3437.78 1672.04 L3462.15 1672.04 L3462.15 1667.21 L3486.41 1667.21 L3486.41 1667.21 L3510.79 1667.21 L3510.79 1667.21 L3535.04 1667.21 L3535.04 1667.21 L3559.42 1667.21 L3559.42 1667.21 L3583.68 1667.21 L3583.68 1667.21 L3608.05 1667.21 L3608.05 1657.56 L3632.43 1657.56 L3632.43 1657.56 L3656.69 1657.56 L3656.69 1652.73" stroke-linejoin="round" style="fill:none;stroke:#90353B;stroke-width:8.64"/>
	<line x1="1038.88" y1="2309.25" x2="1038.88" y2="490.93" style="stroke:#000000;stroke-width:5.76"/>
	<line x1="1038.88" y1="2245.89" x2="998.91" y2="2245.89" style="stroke:#000000;stroke-width:5.76"/>
	<text x="978.99" y="2273.90" style="font-family:'Helvetica';font-size:79.94px;fill:#000000" text-anchor="end">0.0000</text>
	<line x1="1038.88" y1="1823.02" x2="998.91" y2="1823.02" style="stroke:#000000;stroke-width:5.76"/>
	<text x="978.99" y="1851.03" style="font-family:'Helvetica';font-size:79.94px;fill:#000000" text-anchor="end">0.0005</text>
	<line x1="1038.88" y1="1400.03" x2="998.91" y2="1400.03" style="stroke:#000000;stroke-width:5.76"/>
	<text x="978.99" y="1428.04" style="font-family:'Helvetica';font-size:79.94px;fill:#000000" text-anchor="end">0.0010</text>
	<line x1="1038.88" y1="977.16" x2="998.91" y2="977.16" style="stroke:#000000;stroke-width:5.76"/>
	<text x="978.99" y="1005.17" style="font-family:'Helvetica';font-size:79.94px;fill:#000000" text-anchor="end">0.0015</text>
	<line x1="1038.88" y1="554.29" x2="998.91" y2="554.29" style="stroke:#000000;stroke-width:5.76"/>
	<text x="978.99" y="582.31" style="font-family:'Helvetica';font-size:79.94px;fill:#000000" text-anchor="end">0.0020</text>
	<text x="1102.24" y="2747.83" style="font-family:'Helvetica';font-size:60.02px;fill:#000000" text-anchor="middle">175631</text>
	<text x="1588.83" y="2747.83" style="font-family:'Helvetica';font-size:60.02px;fill:#000000" text-anchor="middle">175530</text>
	<text x="2075.41" y="2747.83" style="font-family:'Helvetica';font-size:60.02px;fill:#000000" text-anchor="middle">175376</text>
	<text x="2562.00" y="2747.83" style="font-family:'Helvetica';font-size:60.02px;fill:#000000" text-anchor="middle">175226</text>
	<text x="3048.58" y="2747.83" style="font-family:'Helvetica';font-size:60.02px;fill:#000000" text-anchor="middle">175134</text>
	<text x="3535.17" y="2747.83" style="font-family:'Helvetica';font-size:60.02px;fill:#000000" text-anchor="middle">175044</text>
	<text x="968.47" y="2747.83" style="font-family:'Helvetica';font-size:60.02px;fill:#000000" text-anchor="end">Current exposure to NSAIDs</text>
	<text x="1102.24" y="2674.44" style="font-family:'Helvetica';font-size:60.02px;fill:#000000" text-anchor="middle">1535421</text>
	<text x="1588.83" y="2674.44" style="font-family:'Helvetica';font-size:60.02px;fill:#000000" text-anchor="middle">1522867</text>
	<text x="2075.41" y="2674.44" style="font-family:'Helvetica';font-size:60.02px;fill:#000000" text-anchor="middle">1514566</text>
	<text x="2562.00" y="2674.44" style="font-family:'Helvetica';font-size:60.02px;fill:#000000" text-anchor="middle">1505264</text>
	<text x="3048.58" y="2674.44" style="font-family:'Helvetica';font-size:60.02px;fill:#000000" text-anchor="middle">1495945</text>
	<text x="3535.17" y="2674.44" style="font-family:'Helvetica';font-size:60.02px;fill:#000000" text-anchor="middle">1486965</text>
	<text x="968.47" y="2674.44" style="font-family:'Helvetica';font-size:60.02px;fill:#000000" text-anchor="end">Non-current exposure to NSAIDs</text>
	<text x="968.47" y="2601.18" style="font-family:'Helvetica';font-size:60.02px;fill:#000000" text-anchor="end">Number at risk</text>
	<line x1="1038.88" y1="2309.25" x2="3841.82" y2="2309.25" style="stroke:#000000;stroke-width:5.76"/>
	<line x1="1102.24" y1="2309.25" x2="1102.24" y2="2349.22" style="stroke:#000000;stroke-width:5.76"/>
	<text x="1102.24" y="2425.17" style="font-family:'Helvetica';font-size:79.94px;fill:#000000" text-anchor="middle">0</text>
	<line x1="1588.83" y1="2309.25" x2="1588.83" y2="2349.22" style="stroke:#000000;stroke-width:5.76"/>
	<text x="1588.83" y="2425.17" style="font-family:'Helvetica';font-size:79.94px;fill:#000000" text-anchor="middle">20</text>
	<line x1="2075.41" y1="2309.25" x2="2075.41" y2="2349.22" style="stroke:#000000;stroke-width:5.76"/>
	<text x="2075.41" y="2425.17" style="font-family:'Helvetica';font-size:79.94px;fill:#000000" text-anchor="middle">40</text>
	<line x1="2562.00" y1="2309.25" x2="2562.00" y2="2349.22" style="stroke:#000000;stroke-width:5.76"/>
	<text x="2562.00" y="2425.17" style="font-family:'Helvetica';font-size:79.94px;fill:#000000" text-anchor="middle">60</text>
	<line x1="3048.58" y1="2309.25" x2="3048.58" y2="2349.22" style="stroke:#000000;stroke-width:5.76"/>
	<text x="3048.58" y="2425.17" style="font-family:'Helvetica';font-size:79.94px;fill:#000000" text-anchor="middle">80</text>
	<line x1="3535.17" y1="2309.25" x2="3535.17" y2="2349.22" style="stroke:#000000;stroke-width:5.76"/>
	<text x="3535.17" y="2425.17" style="font-family:'Helvetica';font-size:79.94px;fill:#000000" text-anchor="middle">100</text>
	<text x="2440.35" y="2515.14" style="font-family:'Helvetica';font-size:79.94px;fill:#000000" text-anchor="middle">Days since 1 Mar 2020</text>
	<rect x="1073.53" y="269.91" width="2733.64" height="186.37" style="fill:#FFFFFF"/>
	<rect x="1076.41" y="272.79" width="2727.88" height="180.61" style="fill:none;stroke:#EAF2F3;stroke-width:5.76"/>
	<line x1="1116.72" y1="363.09" x2="1483.64" y2="363.09" style="stroke:#90353B;stroke-width:8.64"/>
	<line x1="2449.76" y1="363.09" x2="2816.80" y2="363.09" style="stroke:#1A476F;stroke-width:8.64"/>
	<text x="1542.42" y="384.13" style="font-family:'Helvetica';font-size:60.02px;fill:#000000">Current exposure to NSAIDs</text>
	<text x="2875.58" y="384.13" style="font-family:'Helvetica';font-size:60.02px;fill:#000000">Non-current exposure to NSAIDs</text>
	<text x="1056.21" y="187.99" style="font-family:'Helvetica';font-size:99.99px;fill:#1E2D53">Time to death, Rheumatoid_arthritis_&amp;_osteoarthritis population</text>
</svg>
