<?xml version="1.0" encoding="UTF-8" standalone="no"?>
<!-- This is a Stata 16.1 generated SVG file (http://www.stata.com) -->

<svg version="1.1" width="5.50in" height="4.00in" viewBox="0 0 3960 2880" xmlns="http://www.w3.org/2000/svg" xmlns:xlink="http://www.w3.org/1999/xlink">
	<desc>Stata Graph - Graph</desc>
	<rect x="0" y="0" width="3960" height="2880" style="fill:#EAF2F3;stroke:none"/>
	<rect x="0.00" y="0.00" width="3959.88" height="2880.00" style="fill:#FFFFFF"/>
	<rect x="2.88" y="2.88" width="3954.12" height="2874.24" style="fill:none;stroke:#EAF2F3;stroke-width:5.76"/>
	<rect x="1038.88" y="630.90" width="2802.94" height="1604.96" style="fill:#FFFFFF"/>
	<rect x="1041.76" y="633.78" width="2797.18" height="1599.20" style="fill:none;stroke:#FFFFFF;stroke-width:5.76"/>
	<line x1="1038.88" y1="2172.62" x2="3841.82" y2="2172.62" style="stroke:#EAF2F3;stroke-width:8.64"/>
	<line x1="1038.88" y1="1802.97" x2="3841.82" y2="1802.97" style="stroke:#EAF2F3;stroke-width:8.64"/>
	<line x1="1038.88" y1="1433.44" x2="3841.82" y2="1433.44" style="stroke:#EAF2F3;stroke-width:8.64"/>
	<line x1="1038.88" y1="1063.79" x2="3841.82" y2="1063.79" style="stroke:#EAF2F3;stroke-width:8.64"/>
	<path d=" M1102.24 2172.62 L1102.24 2172.62 L1102.24 2172.62 L1102.24 2172.62 L1102.24 2172.62 L1126.62 2172.62 L1126.62 2172.13 L1150.88 2172.13 L1150.88 2172.13 L1175.25 2172.13 L1175.25 2172.13 L1199.51 2172.13 L1199.51 2172.13 L1223.89 2172.13 L1223.89 2172.13 L1248.27 2172.13 L1248.27 2172.13 L1272.52 2172.13 L1272.52 2172.13 L1296.90 2172.13 L1296.90 2172.13 L1321.15 2172.13 L1321.15 2172.13 L1345.53 2172.13 L1345.53 2172.13 L1369.79 2172.13 L1369.79 2172.13 L1394.17 2172.13 L1394.17 2172.13 L1418.55 2172.13 L1418.55 2172.13 L1442.80 2172.13 L1442.80 2172.13 L1467.18 2172.13 L1467.18 2171.63 L1491.43 2171.63 L1491.43 2171.14 L1515.81 2171.14 L1515.81 2170.15 L1540.19 2170.15 L1540.19 2170.15 L1564.45 2170.15 L1564.45 2169.78 L1588.83 2169.78 L1588.83 2167.30 L1613.08 2167.30 L1613.08 2164.83 L1637.46 2164.83 L1637.46 2162.48 L1661.84 2162.48 L1661.84 2156.66 L1686.09 2156.66 L1686.09 2151.71 L1710.47 2151.71 L1710.47 2144.04 L1734.73 2144.04 L1734.73 2135.25 L1759.11 2135.25 L1759.11 2127.45 L1783.48 2127.45 L1783.48 2117.18 L1807.74 2117.18 L1807.74 2102.21 L1832.12 2102.21 L1832.12 2088.10 L1856.37 2088.10 L1856.37 2068.55 L1880.75 2068.55 L1880.75 2052.46 L1905.13 2052.46 L1905.13 2024.74 L1929.39 2024.74 L1929.39 1997.02 L1953.77 1997.02 L1953.77 1970.16 L1978.02 1970.16 L1978.02 1950.73 L2002.40 1950.73 L2002.40 1921.53 L2026.78 1921.53 L2026.78 1886.38 L2051.03 1886.38 L2051.03 1862.00 L2075.41 1862.00 L2075.41 1828.34 L2099.67 1828.34 L2099.67 1800.99 L2124.05 1800.99 L2124.05 1771.29 L2148.30 1771.29 L2148.30 1747.78 L2172.68 1747.78 L2172.68 1720.92 L2197.06 1720.92 L2197.06 1697.53 L2221.31 1697.53 L2221.31 1673.65 L2245.69 1673.65 L2245.69 1644.32 L2269.95 1644.32 L2269.95 1618.82 L2294.32 1618.82 L2294.32 1591.97 L2318.70 1591.97 L2318.70 1566.60 L2342.96 1566.60 L2342.96 1545.56 L2367.34 1545.56 L2367.34 1520.56 L2391.59 1520.56 L2391.59 1499.03 L2415.97 1499.03 L2415.97 1482.32 L2440.35 1482.32 L2440.35 1464.26 L2464.61 1464.26 L2464.61 1442.23 L2488.98 1442.23 L2488.98 1423.54 L2513.24 1423.54 L2513.24 1400.52 L2537.62 1400.52 L2537.62 1381.46 L2562.00 1381.46 L2562.00 1365.25 L2586.25 1365.25 L2586.25 1345.58 L2610.63 1345.58 L2610.63 1328.37 L2634.89 1328.37 L2634.89 1307.34 L2659.26 1307.34 L2659.26 1291.62 L2683.64 1291.62 L2683.64 1278.38 L2707.90 1278.38 L2707.90 1264.64 L2732.28 1264.64 L2732.28 1253.75 L2756.53 1253.75 L2756.53 1241.50 L2780.91 1241.50 L2780.91 1226.28 L2805.16 1226.28 L2805.16 1217.86 L2829.54 1217.86 L2829.54 1204.62 L2853.92 1204.62 L2853.92 1196.70 L2878.18 1196.70 L2878.18 1183.95 L2902.56 1183.95 L2902.56 1176.03 L2926.81 1176.03 L2926.81 1165.64 L2951.19 1165.64 L2951.19 1154.38 L2975.57 1154.38 L2975.57 1145.96 L2999.82 1145.96 L2999.82 1133.59 L3024.20 1133.59 L3024.20 1125.29 L3048.46 1125.29 L3048.46 1115.39 L3072.84 1115.39 L3072.84 1105.49 L3097.22 1105.49 L3097.22 1098.07 L3121.47 1098.07 L3121.47 1087.30 L3145.85 1087.30 L3145.85 1080.37 L3170.10 1080.37 L3170.10 1068.99 L3194.48 1068.99 L3194.48 1057.60 L3218.86 1057.60 L3218.86 1051.66 L3243.12 1051.66 L3243.12 1044.24 L3267.49 1044.24 L3267.49 1039.28 L3291.75 1039.28 L3291.75 1035.82 L3316.13 1035.82 L3316.13 1031.86 L3340.51 1031.86 L3340.51 1026.41 L3364.76 1026.41 L3364.76 1023.94 L3389.14 1023.94 L3389.14 1018.00 L3413.40 1018.00 L3413.40 1012.06 L3437.78 1012.06 L3437.78 1008.10 L3462.15 1008.10 L3462.15 1004.63 L3486.41 1004.63 L3486.41 999.68 L3510.79 999.68 L3510.79 996.22 L3535.04 996.22 L3535.04 992.26 L3559.42 992.26 L3559.42 988.79 L3583.68 988.79 L3583.68 984.34 L3608.05 984.34 L3608.05 982.23 L3632.43 982.23 L3632.43 979.76 L3656.69 979.76 L3656.69 977.28" stroke-linejoin="round" style="fill:none;stroke:#1A476F;stroke-width:8.64"/>
	<path d=" M1102.24 2172.62 L1102.24 2172.62 L1102.24 2172.62 L1102.24 2172.62 L1102.24 2172.62 L1199.51 2172.62 L1199.51 2172.62 L1491.43 2172.62 L1491.43 2172.62 L1515.81 2172.62 L1515.81 2172.62 L1588.83 2172.62 L1588.83 2172.62 L1637.46 2172.62 L1637.46 2172.62 L1661.84 2172.62 L1661.84 2172.62 L1686.09 2172.62 L1686.09 2172.62 L1832.12 2172.62 L1832.12 2172.62 L1856.37 2172.62 L1856.37 2172.62 L1905.13 2172.62 L1905.13 2113.59 L1953.77 2113.59 L1953.77 2113.59 L2026.78 2113.59 L2026.78 2113.59 L2269.95 2113.59 L2269.95 2054.56 L2342.96 2054.56 L2342.96 2054.56 L2391.59 2054.56 L2391.59 2054.56 L2440.35 2054.56 L2440.35 2054.56 L2464.61 2054.56 L2464.61 1995.53 L2488.98 1995.53 L2488.98 1995.53 L2537.62 1995.53 L2537.62 1936.50 L2562.00 1936.50 L2562.00 1936.50 L2683.64 1936.50 L2683.64 1936.50 L2707.90 1936.50 L2707.90 1936.50 L2756.53 1936.50 L2756.53 1936.50 L2829.54 1936.50 L2829.54 1936.50 L2951.19 1936.50 L2951.19 1877.35 L2999.82 1877.35 L2999.82 1877.35 L3121.47 1877.35 L3121.47 1877.35 L3145.85 1877.35 L3145.85 1877.35 L3218.86 1877.35 L3218.86 1877.35 L3243.12 1877.35 L3243.12 1877.35 L3510.79 1877.35 L3510.79 1877.35 L3608.05 1877.35 L3608.05 1818.32 L3656.69 1818.32 L3656.69 1818.32" stroke-linejoin="round" style="fill:none;stroke:#90353B;stroke-width:8.64"/>
	<path d=" M1102.24 2172.62 L1102.24 2172.62 L1102.24 2172.62 L1102.24 2172.62 L1102.24 2172.62 L1126.62 2172.62 L1126.62 2172.62 L1150.88 2172.62 L1150.88 2172.62 L1175.25 2172.62 L1175.25 2172.62 L1199.51 2172.62 L1199.51 2172.62 L1223.89 2172.62 L1223.89 2172.62 L1248.27 2172.62 L1248.27 2172.62 L1272.52 2172.62 L1272.52 2172.62 L1296.90 2172.62 L1296.90 2172.62 L1321.15 2172.62 L1321.15 2172.62 L1345.53 2172.62 L1345.53 2172.62 L1369.79 2172.62 L1369.79 2172.62 L1394.17 2172.62 L1394.17 2172.62 L1418.55 2172.62 L1418.55 2172.62 L1442.80 2172.62 L1442.80 2172.62 L1467.18 2172.62 L1467.18 2172.62 L1491.43 2172.62 L1491.43 2172.62 L1515.81 2172.62 L1515.81 2172.62 L1540.19 2172.62 L1540.19 2172.62 L1564.45 2172.62 L1564.45 2172.62 L1588.83 2172.62 L1588.83 2172.62 L1613.08 2172.62 L1613.08 2168.04 L1637.46 2168.04 L1637.46 2163.59 L1661.84 2163.59 L1661.84 2159.01 L1686.09 2159.01 L1686.09 2154.43 L1710.47 2154.43 L1710.47 2154.43 L1734.73 2154.43 L1734.73 2154.43 L1759.11 2154.43 L1759.11 2154.43 L1783.48 2154.43 L1783.48 2154.43 L1807.74 2154.43 L1807.74 2140.82 L1832.12 2140.82 L1832.12 2136.36 L1856.37 2136.36 L1856.37 2118.17 L1880.75 2118.17 L1880.75 2113.72 L1905.13 2113.72 L1905.13 2100.10 L1929.39 2100.10 L1929.39 2090.95 L1953.77 2090.95 L1953.77 2077.33 L1978.02 2077.33 L1978.02 2068.30 L2002.40 2068.30 L2002.40 2045.65 L2026.78 2045.65 L2026.78 2032.04 L2051.03 2032.04 L2051.03 2000.23 L2075.41 2000.23 L2075.41 1977.59 L2099.67 1977.59 L2099.67 1968.43 L2124.05 1968.43 L2124.05 1941.20 L2148.30 1941.20 L2148.30 1932.17 L2172.68 1932.17 L2172.68 1927.59 L2197.06 1927.59 L2197.06 1918.56 L2221.31 1918.56 L2221.31 1913.98 L2245.69 1913.98 L2245.69 1904.94 L2269.95 1904.94 L2269.95 1900.36 L2294.32 1900.36 L2294.32 1882.17 L2318.70 1882.17 L2318.70 1864.10 L2342.96 1864.10 L2342.96 1850.49 L2367.34 1850.49 L2367.34 1850.49 L2391.59 1850.49 L2391.59 1841.33 L2415.97 1841.33 L2415.97 1832.30 L2440.35 1832.30 L2440.35 1827.72 L2464.61 1827.72 L2464.61 1818.69 L2488.98 1818.69 L2488.98 1796.04 L2513.24 1796.04 L2513.24 1782.30 L2537.62 1782.30 L2537.62 1777.85 L2562.00 1777.85 L2562.00 1773.27 L2610.63 1773.27 L2610.63 1773.27 L2634.89 1773.27 L2634.89 1768.69 L2659.26 1768.69 L2659.26 1759.66 L2683.64 1759.66 L2683.64 1741.46 L2707.90 1741.46 L2707.90 1741.46 L2732.28 1741.46 L2732.28 1737.01 L2756.53 1737.01 L2756.53 1737.01 L2780.91 1737.01 L2780.91 1727.85 L2805.16 1727.85 L2805.16 1727.85 L2829.54 1727.85 L2829.54 1727.85 L2853.92 1727.85 L2853.92 1714.24 L2878.18 1714.24 L2878.18 1709.66 L2902.56 1709.66 L2902.56 1705.20 L2926.81 1705.20 L2926.81 1705.20 L2951.19 1705.20 L2951.19 1705.20 L2975.57 1705.20 L2975.57 1700.63 L2999.82 1700.63 L2999.82 1691.59 L3024.20 1691.59 L3024.20 1691.59 L3048.46 1691.59 L3048.46 1682.43 L3072.84 1682.43 L3072.84 1682.43 L3097.22 1682.43 L3097.22 1682.43 L3121.47 1682.43 L3121.47 1682.43 L3145.85 1682.43 L3145.85 1682.43 L3170.10 1682.43 L3170.10 1677.85 L3194.48 1677.85 L3194.48 1673.40 L3218.86 1673.40 L3218.86 1673.40 L3243.12 1673.40 L3243.12 1673.40 L3267.49 1673.40 L3267.49 1673.40 L3291.75 1673.40 L3291.75 1673.40 L3316.13 1673.40 L3316.13 1673.40 L3340.51 1673.40 L3340.51 1668.82 L3364.76 1668.82 L3364.76 1668.82 L3389.14 1668.82 L3389.14 1659.79 L3437.78 1659.79 L3437.78 1655.21 L3462.15 1655.21 L3462.15 1650.63 L3486.41 1650.63 L3486.41 1650.63 L3510.79 1650.63 L3510.79 1650.63 L3535.04 1650.63 L3535.04 1650.63 L3559.42 1650.63 L3559.42 1650.63 L3583.68 1650.63 L3583.68 1650.63 L3608.05 1650.63 L3608.05 1646.05 L3632.43 1646.05 L3632.43 1646.05 L3656.69 1646.05 L3656.69 1641.60" stroke-linejoin="round" style="fill:none;stroke:#55752F;stroke-width:8.64"/>
	<line x1="1038.88" y1="2235.86" x2="1038.88" y2="630.90" style="stroke:#000000;stroke-width:5.76"/>
	<line x1="1038.88" y1="2172.62" x2="998.91" y2="2172.62" style="stroke:#000000;stroke-width:5.76"/>
	<text x="978.99" y="2200.63" style="font-family:'Helvetica';font-size:79.94px;fill:#000000" text-anchor="end">0.0000</text>
	<line x1="1038.88" y1="1802.97" x2="998.91" y2="1802.97" style="stroke:#000000;stroke-width:5.76"/>
	<text x="978.99" y="1830.98" style="font-family:'Helvetica';font-size:79.94px;fill:#000000" text-anchor="end">0.0005</text>
	<line x1="1038.88" y1="1433.44" x2="998.91" y2="1433.44" style="stroke:#000000;stroke-width:5.76"/>
	<text x="978.99" y="1461.45" style="font-family:'Helvetica';font-size:79.94px;fill:#000000" text-anchor="end">0.0010</text>
	<line x1="1038.88" y1="1063.79" x2="998.91" y2="1063.79" style="stroke:#000000;stroke-width:5.76"/>
	<text x="978.99" y="1091.80" style="font-family:'Helvetica';font-size:79.94px;fill:#000000" text-anchor="end">0.0015</text>
	<line x1="1038.88" y1="694.26" x2="998.91" y2="694.26" style="stroke:#000000;stroke-width:5.76"/>
	<text x="978.99" y="722.27" style="font-family:'Helvetica';font-size:79.94px;fill:#000000" text-anchor="end">0.0020</text>
	<text x="1102.24" y="2747.83" style="font-family:'Helvetica';font-size:60.02px;fill:#000000" text-anchor="middle">163093</text>
	<text x="1588.83" y="2747.83" style="font-family:'Helvetica';font-size:60.02px;fill:#000000" text-anchor="middle">162995</text>
	<text x="2075.41" y="2747.83" style="font-family:'Helvetica';font-size:60.02px;fill:#000000" text-anchor="middle">162855</text>
	<text x="2562.00" y="2747.83" style="font-family:'Helvetica';font-size:60.02px;fill:#000000" text-anchor="middle">162714</text>
	<text x="3048.58" y="2747.83" style="font-family:'Helvetica';font-size:60.02px;fill:#000000" text-anchor="middle">162629</text>
	<text x="3535.17" y="2747.83" style="font-family:'Helvetica';font-size:60.02px;fill:#000000" text-anchor="middle">162545</text>
	<text x="968.47" y="2747.83" style="font-family:'Helvetica';font-size:60.02px;fill:#000000" text-anchor="end">Other specific NSAIDs</text>
	<text x="1102.24" y="2674.44" style="font-family:'Helvetica';font-size:60.02px;fill:#000000" text-anchor="middle">12538</text>
	<text x="1588.83" y="2674.44" style="font-family:'Helvetica';font-size:60.02px;fill:#000000" text-anchor="middle">12535</text>
	<text x="2075.41" y="2674.44" style="font-family:'Helvetica';font-size:60.02px;fill:#000000" text-anchor="middle">12521</text>
	<text x="2562.00" y="2674.44" style="font-family:'Helvetica';font-size:60.02px;fill:#000000" text-anchor="middle">12512</text>
	<text x="3048.58" y="2674.44" style="font-family:'Helvetica';font-size:60.02px;fill:#000000" text-anchor="middle">12505</text>
	<text x="3535.17" y="2674.44" style="font-family:'Helvetica';font-size:60.02px;fill:#000000" text-anchor="middle">12499</text>
	<text x="968.47" y="2674.44" style="font-family:'Helvetica';font-size:60.02px;fill:#000000" text-anchor="end">Cox-2 specific NSAIDs</text>
	<text x="1102.24" y="2601.18" style="font-family:'Helvetica';font-size:60.02px;fill:#000000" text-anchor="middle">1535421</text>
	<text x="1588.83" y="2601.18" style="font-family:'Helvetica';font-size:60.02px;fill:#000000" text-anchor="middle">1522867</text>
	<text x="2075.41" y="2601.18" style="font-family:'Helvetica';font-size:60.02px;fill:#000000" text-anchor="middle">1514566</text>
	<text x="2562.00" y="2601.18" style="font-family:'Helvetica';font-size:60.02px;fill:#000000" text-anchor="middle">1505264</text>
	<text x="3048.58" y="2601.18" style="font-family:'Helvetica';font-size:60.02px;fill:#000000" text-anchor="middle">1495945</text>
	<text x="3535.17" y="2601.18" style="font-family:'Helvetica';font-size:60.02px;fill:#000000" text-anchor="middle">1486965</text>
	<text x="968.47" y="2601.18" style="font-family:'Helvetica';font-size:60.02px;fill:#000000" text-anchor="end">Non-current exposure to NSAIDs</text>
	<text x="968.47" y="2527.80" style="font-family:'Helvetica';font-size:60.02px;fill:#000000" text-anchor="end">Number at risk</text>
	<line x1="1038.88" y1="2235.86" x2="3841.82" y2="2235.86" style="stroke:#000000;stroke-width:5.76"/>
	<line x1="1102.24" y1="2235.86" x2="1102.24" y2="2275.96" style="stroke:#000000;stroke-width:5.76"/>
	<text x="1102.24" y="2351.78" style="font-family:'Helvetica';font-size:79.94px;fill:#000000" text-anchor="middle">0</text>
	<line x1="1588.83" y1="2235.86" x2="1588.83" y2="2275.96" style="stroke:#000000;stroke-width:5.76"/>
	<text x="1588.83" y="2351.78" style="font-family:'Helvetica';font-size:79.94px;fill:#000000" text-anchor="middle">20</text>
	<line x1="2075.41" y1="2235.86" x2="2075.41" y2="2275.96" style="stroke:#000000;stroke-width:5.76"/>
	<text x="2075.41" y="2351.78" style="font-family:'Helvetica';font-size:79.94px;fill:#000000" text-anchor="middle">40</text>
	<line x1="2562.00" y1="2235.86" x2="2562.00" y2="2275.96" style="stroke:#000000;stroke-width:5.76"/>
	<text x="2562.00" y="2351.78" style="font-family:'Helvetica';font-size:79.94px;fill:#000000" text-anchor="middle">60</text>
	<line x1="3048.58" y1="2235.86" x2="3048.58" y2="2275.96" style="stroke:#000000;stroke-width:5.76"/>
	<text x="3048.58" y="2351.78" style="font-family:'Helvetica';font-size:79.94px;fill:#000000" text-anchor="middle">80</text>
	<line x1="3535.17" y1="2235.86" x2="3535.17" y2="2275.96" style="stroke:#000000;stroke-width:5.76"/>
	<text x="3535.17" y="2351.78" style="font-family:'Helvetica';font-size:79.94px;fill:#000000" text-anchor="middle">100</text>
	<text x="2440.35" y="2441.87" style="font-family:'Helvetica';font-size:79.94px;fill:#000000" text-anchor="middle">Days since 1 Mar 2020</text>
	<rect x="1126.37" y="269.91" width="2628.08" height="326.46" style="fill:#FFFFFF"/>
	<rect x="1129.25" y="272.79" width="2622.32" height="320.70" style="fill:none;stroke:#EAF2F3;stroke-width:5.76"/>
	<line x1="1169.56" y1="363.09" x2="1543.90" y2="363.09" style="stroke:#1A476F;stroke-width:8.64"/>
	<line x1="2650.35" y1="363.09" x2="3024.70" y2="363.09" style="stroke:#90353B;stroke-width:8.64"/>
	<line x1="1169.56" y1="503.06" x2="1543.90" y2="503.06" style="stroke:#55752F;stroke-width:8.64"/>
	<text x="1603.92" y="384.13" style="font-family:'Helvetica';font-size:60.02px;fill:#000000">Non-current exposure to NSAIDs</text>
	<text x="3084.72" y="384.13" style="font-family:'Helvetica';font-size:60.02px;fill:#000000">Cox-2 specific NSAIDs</text>
	<text x="1603.92" y="524.10" style="font-family:'Helvetica';font-size:60.02px;fill:#000000">Other specific NSAIDs</text>
	<text x="1056.21" y="187.99" style="font-family:'Helvetica';font-size:99.99px;fill:#1E2D53">Time to death, Rheumatoid_arthritis_&amp;_osteoarthritis population</text>
</svg>
