<?xml version="1.0" encoding="UTF-8" standalone="no"?>
<!-- This is a Stata 16.1 generated SVG file (http://www.stata.com) -->

<svg version="1.1" width="5.50in" height="4.00in" viewBox="0 0 3960 2880" xmlns="http://www.w3.org/2000/svg" xmlns:xlink="http://www.w3.org/1999/xlink">
	<desc>Stata Graph - Graph</desc>
	<rect x="0" y="0" width="3960" height="2880" style="fill:#EAF2F3;stroke:none"/>
	<rect x="0.00" y="0.00" width="3959.88" height="2880.00" style="fill:#FFFFFF"/>
	<rect x="2.88" y="2.88" width="3954.12" height="2874.24" style="fill:none;stroke:#EAF2F3;stroke-width:5.76"/>
	<rect x="1038.88" y="630.90" width="2802.94" height="1531.70" style="fill:#FFFFFF"/>
	<rect x="1041.76" y="633.78" width="2797.18" height="1525.94" style="fill:none;stroke:#FFFFFF;stroke-width:5.76"/>
	<line x1="1038.88" y1="2099.24" x2="3841.82" y2="2099.24" style="stroke:#EAF2F3;stroke-width:8.64"/>
	<line x1="1038.88" y1="1748.02" x2="3841.82" y2="1748.02" style="stroke:#EAF2F3;stroke-width:8.64"/>
	<line x1="1038.88" y1="1396.69" x2="3841.82" y2="1396.69" style="stroke:#EAF2F3;stroke-width:8.64"/>
	<line x1="1038.88" y1="1045.47" x2="3841.82" y2="1045.47" style="stroke:#EAF2F3;stroke-width:8.64"/>
	<path d=" M1102.24 2099.24 L1102.24 2099.24 L1102.24 2099.24 L1102.24 2099.24 L1102.24 2099.24 L1102.24 2099.24 L1102.24 2099.24 L1126.62 2099.24 L1126.62 2098.87 L1150.88 2098.87 L1150.88 2098.87 L1175.25 2098.87 L1175.25 2098.87 L1199.51 2098.87 L1199.51 2098.87 L1223.89 2098.87 L1223.89 2098.87 L1248.27 2098.87 L1248.27 2098.87 L1272.52 2098.87 L1272.52 2098.87 L1296.90 2098.87 L1296.90 2098.87 L1321.15 2098.87 L1321.15 2098.87 L1345.53 2098.87 L1345.53 2098.87 L1369.79 2098.87 L1369.79 2098.87 L1394.17 2098.87 L1394.17 2098.87 L1418.55 2098.87 L1418.55 2098.87 L1442.80 2098.87 L1442.80 2098.87 L1467.18 2098.87 L1467.18 2098.37 L1491.43 2098.37 L1491.43 2097.88 L1515.81 2097.88 L1515.81 2097.01 L1540.19 2097.01 L1540.19 2097.01 L1564.45 2097.01 L1564.45 2096.51 L1588.83 2096.51 L1588.83 2094.16 L1613.08 2094.16 L1613.08 2091.94 L1637.46 2091.94 L1637.46 2089.58 L1661.84 2089.58 L1661.84 2084.02 L1686.09 2084.02 L1686.09 2079.44 L1710.47 2079.44 L1710.47 2072.01 L1734.73 2072.01 L1734.73 2063.72 L1759.11 2063.72 L1759.11 2056.29 L1783.48 2056.29 L1783.48 2046.64 L1807.74 2046.64 L1807.74 2032.29 L1832.12 2032.29 L1832.12 2018.92 L1856.37 2018.92 L1856.37 2000.36 L1880.75 2000.36 L1880.75 1985.14 L1905.13 1985.14 L1905.13 1958.78 L1929.39 1958.78 L1929.39 1932.42 L1953.77 1932.42 L1953.77 1906.92 L1978.02 1906.92 L1978.02 1888.36 L2002.40 1888.36 L2002.40 1860.64 L2026.78 1860.64 L2026.78 1827.23 L2051.03 1827.23 L2051.03 1804.08 L2075.41 1804.08 L2075.41 1772.03 L2099.67 1772.03 L2099.67 1746.17 L2124.05 1746.17 L2124.05 1717.83 L2148.30 1717.83 L2148.30 1695.55 L2172.68 1695.55 L2172.68 1670.06 L2197.06 1670.06 L2197.06 1647.78 L2221.31 1647.78 L2221.31 1625.01 L2245.69 1625.01 L2245.69 1597.17 L2269.95 1597.17 L2269.95 1573.04 L2294.32 1573.04 L2294.32 1547.42 L2318.70 1547.42 L2318.70 1523.29 L2342.96 1523.29 L2342.96 1503.24 L2367.34 1503.24 L2367.34 1479.60 L2391.59 1479.60 L2391.59 1459.06 L2415.97 1459.06 L2415.97 1443.34 L2440.35 1443.34 L2440.35 1426.02 L2464.61 1426.02 L2464.61 1405.10 L2488.98 1405.10 L2488.98 1387.40 L2513.24 1387.40 L2513.24 1365.50 L2537.62 1365.50 L2537.62 1347.31 L2562.00 1347.31 L2562.00 1331.96 L2586.25 1331.96 L2586.25 1313.28 L2610.63 1313.28 L2610.63 1296.94 L2634.89 1296.94 L2634.89 1276.89 L2659.26 1276.89 L2659.26 1262.04 L2683.64 1262.04 L2683.64 1249.42 L2707.90 1249.42 L2707.90 1236.30 L2732.28 1236.30 L2732.28 1226.03 L2756.53 1226.03 L2756.53 1214.40 L2780.91 1214.40 L2780.91 1199.79 L2805.16 1199.79 L2805.16 1191.87 L2829.54 1191.87 L2829.54 1179.25 L2853.92 1179.25 L2853.92 1171.83 L2878.18 1171.83 L2878.18 1159.57 L2902.56 1159.57 L2902.56 1152.15 L2926.81 1152.15 L2926.81 1142.25 L2951.19 1142.25 L2951.19 1131.48 L2975.57 1131.48 L2975.57 1123.56 L2999.82 1123.56 L2999.82 1111.80 L3024.20 1111.80 L3024.20 1103.88 L3048.46 1103.88 L3048.46 1094.48 L3072.84 1094.48 L3072.84 1085.07 L3097.22 1085.07 L3097.22 1078.14 L3121.47 1078.14 L3121.47 1067.75 L3145.85 1067.75 L3145.85 1061.19 L3170.10 1061.19 L3170.10 1050.42 L3194.48 1050.42 L3194.48 1039.53 L3218.86 1039.53 L3218.86 1033.96 L3243.12 1033.96 L3243.12 1026.91 L3267.49 1026.91 L3267.49 1022.21 L3291.75 1022.21 L3291.75 1018.87 L3316.13 1018.87 L3316.13 1015.15 L3340.51 1015.15 L3340.51 1009.96 L3364.76 1009.96 L3364.76 1007.60 L3389.14 1007.60 L3389.14 1001.91 L3413.40 1001.91 L3413.40 996.34 L3437.78 996.34 L3437.78 992.51 L3462.15 992.51 L3462.15 989.29 L3486.41 989.29 L3486.41 984.46 L3510.79 984.46 L3510.79 981.24 L3535.04 981.24 L3535.04 977.41 L3559.42 977.41 L3559.42 974.19 L3583.68 974.19 L3583.68 969.86 L3608.05 969.86 L3608.05 968.00 L3632.43 968.00 L3632.43 965.65 L3656.69 965.65 L3656.69 963.30" stroke-linejoin="round" style="fill:none;stroke:#1A476F;stroke-width:8.64"/>
	<path d=" M1102.24 2099.24 L1102.24 2099.24 L1102.24 2099.24 L1102.24 2099.24 L1102.24 2099.24 L1102.24 2099.24 L1102.24 2099.24 L1126.62 2099.24 L1126.62 2099.24 L1150.88 2099.24 L1150.88 2099.24 L1223.89 2099.24 L1223.89 2099.24 L1321.15 2099.24 L1321.15 2099.24 L1369.79 2099.24 L1369.79 2099.24 L1394.17 2099.24 L1394.17 2099.24 L1418.55 2099.24 L1418.55 2099.24 L1442.80 2099.24 L1442.80 2099.24 L1467.18 2099.24 L1467.18 2099.24 L1491.43 2099.24 L1491.43 2099.24 L1515.81 2099.24 L1515.81 2099.24 L1540.19 2099.24 L1540.19 2099.24 L1564.45 2099.24 L1564.45 2099.24 L1613.08 2099.24 L1613.08 2099.24 L1661.84 2099.24 L1661.84 2079.81 L1710.47 2079.81 L1710.47 2079.81 L1734.73 2079.81 L1734.73 2079.81 L1783.48 2079.81 L1783.48 2079.81 L1807.74 2079.81 L1807.74 2060.38 L1832.12 2060.38 L1832.12 2060.38 L1856.37 2060.38 L1856.37 2040.95 L1880.75 2040.95 L1880.75 2040.95 L1905.13 2040.95 L1905.13 2021.40 L1929.39 2021.40 L1929.39 2021.40 L1953.77 2021.40 L1953.77 2001.97 L1978.02 2001.97 L1978.02 2001.97 L2002.40 2001.97 L2002.40 1962.98 L2026.78 1962.98 L2026.78 1943.55 L2051.03 1943.55 L2051.03 1943.55 L2075.41 1943.55 L2075.41 1904.57 L2099.67 1904.57 L2099.67 1885.14 L2124.05 1885.14 L2124.05 1865.71 L2148.30 1865.71 L2148.30 1846.16 L2172.68 1846.16 L2172.68 1846.16 L2197.06 1846.16 L2197.06 1846.16 L2221.31 1846.16 L2221.31 1846.16 L2245.69 1846.16 L2245.69 1826.73 L2294.32 1826.73 L2294.32 1807.30 L2342.96 1807.30 L2342.96 1807.30 L2391.59 1807.30 L2391.59 1787.75 L2440.35 1787.75 L2440.35 1787.75 L2464.61 1787.75 L2464.61 1787.75 L2488.98 1787.75 L2488.98 1768.32 L2513.24 1768.32 L2513.24 1768.32 L2537.62 1768.32 L2537.62 1768.32 L2562.00 1768.32 L2562.00 1748.77 L2610.63 1748.77 L2610.63 1748.77 L2634.89 1748.77 L2634.89 1748.77 L2683.64 1748.77 L2683.64 1690.35 L2707.90 1690.35 L2707.90 1690.35 L2732.28 1690.35 L2732.28 1690.35 L2756.53 1690.35 L2756.53 1690.35 L2780.91 1690.35 L2780.91 1670.80 L2829.54 1670.80 L2829.54 1670.80 L2853.92 1670.80 L2853.92 1651.37 L2878.18 1651.37 L2878.18 1651.37 L2926.81 1651.37 L2926.81 1651.37 L2975.57 1651.37 L2975.57 1631.82 L3072.84 1631.82 L3072.84 1631.82 L3121.47 1631.82 L3121.47 1631.82 L3170.10 1631.82 L3170.10 1631.82 L3194.48 1631.82 L3194.48 1612.39 L3218.86 1612.39 L3218.86 1612.39 L3267.49 1612.39 L3267.49 1612.39 L3316.13 1612.39 L3316.13 1612.39 L3364.76 1612.39 L3364.76 1612.39 L3389.14 1612.39 L3389.14 1612.39 L3437.78 1612.39 L3437.78 1612.39 L3462.15 1612.39 L3462.15 1612.39 L3559.42 1612.39 L3559.42 1612.39 L3608.05 1612.39 L3608.05 1592.84 L3632.43 1592.84 L3632.43 1592.84 L3656.69 1592.84 L3656.69 1573.41" stroke-linejoin="round" style="fill:none;stroke:#90353B;stroke-width:8.64"/>
	<path d=" M1102.24 2099.24 L1102.24 2099.24 L1102.24 2099.24 L1102.24 2099.24 L1102.24 2099.24 L1102.24 2099.24 L1102.24 2099.24 L1126.62 2099.24 L1126.62 2099.24 L1150.88 2099.24 L1150.88 2099.24 L1175.25 2099.24 L1175.25 2099.24 L1199.51 2099.24 L1199.51 2099.24 L1223.89 2099.24 L1223.89 2099.24 L1248.27 2099.24 L1248.27 2099.24 L1296.90 2099.24 L1296.90 2099.24 L1321.15 2099.24 L1321.15 2099.24 L1345.53 2099.24 L1345.53 2099.24 L1369.79 2099.24 L1369.79 2099.24 L1394.17 2099.24 L1394.17 2099.24 L1418.55 2099.24 L1418.55 2099.24 L1491.43 2099.24 L1491.43 2099.24 L1540.19 2099.24 L1540.19 2099.24 L1564.45 2099.24 L1564.45 2099.24 L1588.83 2099.24 L1588.83 2099.24 L1613.08 2099.24 L1613.08 2090.82 L1637.46 2090.82 L1637.46 2082.28 L1661.84 2082.28 L1661.84 2082.28 L1686.09 2082.28 L1686.09 2073.74 L1710.47 2073.74 L1710.47 2073.74 L1734.73 2073.74 L1734.73 2073.74 L1783.48 2073.74 L1783.48 2073.74 L1807.74 2073.74 L1807.74 2056.67 L1832.12 2056.67 L1832.12 2056.67 L1856.37 2056.67 L1856.37 2056.67 L1880.75 2056.67 L1880.75 2048.13 L1905.13 2048.13 L1905.13 2048.13 L1929.39 2048.13 L1929.39 2048.13 L1953.77 2048.13 L1953.77 2039.59 L1978.02 2039.59 L1978.02 2031.05 L2002.40 2031.05 L2002.40 2022.51 L2026.78 2022.51 L2026.78 2013.97 L2051.03 2013.97 L2051.03 1988.48 L2075.41 1988.48 L2075.41 1962.86 L2099.67 1962.86 L2099.67 1954.32 L2124.05 1954.32 L2124.05 1945.78 L2148.30 1945.78 L2148.30 1937.24 L2172.68 1937.24 L2172.68 1928.70 L2197.06 1928.70 L2197.06 1928.70 L2221.31 1928.70 L2221.31 1920.17 L2269.95 1920.17 L2269.95 1911.63 L2294.32 1911.63 L2294.32 1894.55 L2318.70 1894.55 L2318.70 1860.52 L2342.96 1860.52 L2342.96 1843.44 L2367.34 1843.44 L2367.34 1843.44 L2391.59 1843.44 L2391.59 1843.44 L2415.97 1843.44 L2415.97 1834.90 L2440.35 1834.90 L2440.35 1826.36 L2464.61 1826.36 L2464.61 1817.82 L2488.98 1817.82 L2488.98 1817.82 L2513.24 1817.82 L2513.24 1809.28 L2537.62 1809.28 L2537.62 1809.28 L2562.00 1809.28 L2562.00 1809.28 L2610.63 1809.28 L2610.63 1809.28 L2634.89 1809.28 L2634.89 1800.74 L2659.26 1800.74 L2659.26 1792.20 L2683.64 1792.20 L2683.64 1783.66 L2707.90 1783.66 L2707.90 1783.66 L2732.28 1783.66 L2732.28 1775.13 L2780.91 1775.13 L2780.91 1766.59 L2829.54 1766.59 L2829.54 1766.59 L2853.92 1766.59 L2853.92 1766.59 L2878.18 1766.59 L2878.18 1766.59 L2902.56 1766.59 L2902.56 1758.05 L2926.81 1758.05 L2926.81 1758.05 L2951.19 1758.05 L2951.19 1758.05 L2975.57 1758.05 L2975.57 1758.05 L2999.82 1758.05 L2999.82 1749.51 L3024.20 1749.51 L3024.20 1749.51 L3048.46 1749.51 L3048.46 1740.97 L3072.84 1740.97 L3072.84 1740.97 L3121.47 1740.97 L3121.47 1740.97 L3145.85 1740.97 L3145.85 1740.97 L3170.10 1740.97 L3170.10 1732.43 L3194.48 1732.43 L3194.48 1732.43 L3218.86 1732.43 L3218.86 1732.43 L3243.12 1732.43 L3243.12 1732.43 L3267.49 1732.43 L3267.49 1732.43 L3316.13 1732.43 L3316.13 1732.43 L3340.51 1732.43 L3340.51 1732.43 L3364.76 1732.43 L3364.76 1732.43 L3389.14 1732.43 L3389.14 1723.89 L3437.78 1723.89 L3437.78 1723.89 L3462.15 1723.89 L3462.15 1715.35 L3486.41 1715.35 L3486.41 1715.35 L3510.79 1715.35 L3510.79 1715.35 L3535.04 1715.35 L3535.04 1715.35 L3559.42 1715.35 L3559.42 1715.35 L3583.68 1715.35 L3583.68 1715.35 L3656.69 1715.35 L3656.69 1715.35" stroke-linejoin="round" style="fill:none;stroke:#55752F;stroke-width:8.64"/>
	<path d=" M1102.24 2099.24 L1102.24 2099.24 L1102.24 2099.24 L1102.24 2099.24 L1102.24 2099.24 L1102.24 2099.24 L1102.24 2099.24 L1126.62 2099.24 L1126.62 2099.24 L1150.88 2099.24 L1150.88 2099.24 L1199.51 2099.24 L1199.51 2099.24 L1223.89 2099.24 L1223.89 2099.24 L1248.27 2099.24 L1248.27 2099.24 L1272.52 2099.24 L1272.52 2099.24 L1296.90 2099.24 L1296.90 2099.24 L1321.15 2099.24 L1321.15 2099.24 L1345.53 2099.24 L1345.53 2099.24 L1369.79 2099.24 L1369.79 2099.24 L1418.55 2099.24 L1418.55 2099.24 L1442.80 2099.24 L1442.80 2099.24 L1467.18 2099.24 L1467.18 2099.24 L1491.43 2099.24 L1491.43 2099.24 L1515.81 2099.24 L1515.81 2099.24 L1540.19 2099.24 L1540.19 2099.24 L1564.45 2099.24 L1564.45 2099.24 L1588.83 2099.24 L1588.83 2099.24 L1613.08 2099.24 L1613.08 2099.24 L1637.46 2099.24 L1637.46 2099.24 L1661.84 2099.24 L1661.84 2099.24 L1686.09 2099.24 L1686.09 2099.24 L1710.47 2099.24 L1710.47 2099.24 L1734.73 2099.24 L1734.73 2099.24 L1759.11 2099.24 L1759.11 2099.24 L1807.74 2099.24 L1807.74 2099.24 L1832.12 2099.24 L1832.12 2086.99 L1856.37 2086.99 L1856.37 2049.98 L1880.75 2049.98 L1880.75 2049.98 L1905.13 2049.98 L1905.13 2012.98 L1929.39 2012.98 L1929.39 1988.35 L1953.77 1988.35 L1953.77 1975.98 L1978.02 1975.98 L1978.02 1963.73 L2002.40 1963.73 L2002.40 1939.10 L2026.78 1939.10 L2026.78 1926.72 L2051.03 1926.72 L2051.03 1877.35 L2099.67 1877.35 L2099.67 1877.35 L2124.05 1877.35 L2124.05 1828.09 L2148.30 1828.09 L2148.30 1828.09 L2172.68 1828.09 L2172.68 1828.09 L2197.06 1828.09 L2197.06 1803.47 L2221.31 1803.47 L2221.31 1803.47 L2245.69 1803.47 L2245.69 1791.09 L2269.95 1791.09 L2269.95 1778.71 L2294.32 1778.71 L2294.32 1766.46 L2318.70 1766.46 L2318.70 1766.46 L2342.96 1766.46 L2342.96 1754.09 L2367.34 1754.09 L2367.34 1754.09 L2391.59 1754.09 L2391.59 1741.71 L2415.97 1741.71 L2415.97 1729.46 L2440.35 1729.46 L2440.35 1729.46 L2464.61 1729.46 L2464.61 1704.71 L2488.98 1704.71 L2488.98 1655.33 L2513.24 1655.33 L2513.24 1630.70 L2537.62 1630.70 L2537.62 1606.08 L2562.00 1606.08 L2562.00 1606.08 L2610.63 1606.08 L2610.63 1606.08 L2634.89 1606.08 L2634.89 1606.08 L2659.26 1606.08 L2659.26 1593.70 L2683.64 1593.70 L2683.64 1593.70 L2707.90 1593.70 L2707.90 1593.70 L2732.28 1593.70 L2732.28 1593.70 L2756.53 1593.70 L2756.53 1593.70 L2780.91 1593.70 L2780.91 1593.70 L2805.16 1593.70 L2805.16 1593.70 L2829.54 1593.70 L2829.54 1593.70 L2853.92 1593.70 L2853.92 1568.95 L2878.18 1568.95 L2878.18 1556.70 L2951.19 1556.70 L2951.19 1544.32 L2999.82 1544.32 L2999.82 1531.95 L3024.20 1531.95 L3024.20 1531.95 L3048.46 1531.95 L3048.46 1519.57 L3072.84 1519.57 L3072.84 1519.57 L3097.22 1519.57 L3097.22 1519.57 L3121.47 1519.57 L3121.47 1519.57 L3145.85 1519.57 L3145.85 1519.57 L3194.48 1519.57 L3194.48 1519.57 L3218.86 1519.57 L3218.86 1519.57 L3243.12 1519.57 L3243.12 1519.57 L3291.75 1519.57 L3291.75 1519.57 L3316.13 1519.57 L3316.13 1519.57 L3340.51 1519.57 L3340.51 1507.32 L3364.76 1507.32 L3364.76 1507.32 L3389.14 1507.32 L3389.14 1494.95 L3437.78 1494.95 L3437.78 1482.57 L3462.15 1482.57 L3462.15 1482.57 L3486.41 1482.57 L3486.41 1482.57 L3510.79 1482.57 L3510.79 1482.57 L3583.68 1482.57 L3583.68 1482.57 L3608.05 1482.57 L3608.05 1470.20 L3632.43 1470.20 L3632.43 1470.20 L3656.69 1470.20 L3656.69 1470.20" stroke-linejoin="round" style="fill:none;stroke:#E37E00;stroke-width:8.64"/>
	<line x1="1038.88" y1="2162.60" x2="1038.88" y2="630.90" style="stroke:#000000;stroke-width:5.76"/>
	<line x1="1038.88" y1="2099.24" x2="998.91" y2="2099.24" style="stroke:#000000;stroke-width:5.76"/>
	<text x="978.99" y="2127.25" style="font-family:'Helvetica';font-size:79.94px;fill:#000000" text-anchor="end">0.0000</text>
	<line x1="1038.88" y1="1748.02" x2="998.91" y2="1748.02" style="stroke:#000000;stroke-width:5.76"/>
	<text x="978.99" y="1776.04" style="font-family:'Helvetica';font-size:79.94px;fill:#000000" text-anchor="end">0.0005</text>
	<line x1="1038.88" y1="1396.69" x2="998.91" y2="1396.69" style="stroke:#000000;stroke-width:5.76"/>
	<text x="978.99" y="1424.70" style="font-family:'Helvetica';font-size:79.94px;fill:#000000" text-anchor="end">0.0010</text>
	<line x1="1038.88" y1="1045.47" x2="998.91" y2="1045.47" style="stroke:#000000;stroke-width:5.76"/>
	<text x="978.99" y="1073.48" style="font-family:'Helvetica';font-size:79.94px;fill:#000000" text-anchor="end">0.0015</text>
	<line x1="1038.88" y1="694.26" x2="998.91" y2="694.26" style="stroke:#000000;stroke-width:5.76"/>
	<text x="978.99" y="722.27" style="font-family:'Helvetica';font-size:79.94px;fill:#000000" text-anchor="end">0.0020</text>
	<text x="1102.24" y="2747.83" style="font-family:'Helvetica';font-size:60.02px;fill:#000000" text-anchor="middle">57075</text>
	<text x="1588.83" y="2747.83" style="font-family:'Helvetica';font-size:60.02px;fill:#000000" text-anchor="middle">57034</text>
	<text x="2075.41" y="2747.83" style="font-family:'Helvetica';font-size:60.02px;fill:#000000" text-anchor="middle">56959</text>
	<text x="2562.00" y="2747.83" style="font-family:'Helvetica';font-size:60.02px;fill:#000000" text-anchor="middle">56890</text>
	<text x="3048.58" y="2747.83" style="font-family:'Helvetica';font-size:60.02px;fill:#000000" text-anchor="middle">56859</text>
	<text x="3535.17" y="2747.83" style="font-family:'Helvetica';font-size:60.02px;fill:#000000" text-anchor="middle">56819</text>
	<text x="968.47" y="2747.83" style="font-family:'Helvetica';font-size:60.02px;fill:#000000" text-anchor="end">Other NSAIDs</text>
	<text x="1102.24" y="2674.44" style="font-family:'Helvetica';font-size:60.02px;fill:#000000" text-anchor="middle">82438</text>
	<text x="1588.83" y="2674.44" style="font-family:'Helvetica';font-size:60.02px;fill:#000000" text-anchor="middle">82395</text>
	<text x="2075.41" y="2674.44" style="font-family:'Helvetica';font-size:60.02px;fill:#000000" text-anchor="middle">82346</text>
	<text x="2562.00" y="2674.44" style="font-family:'Helvetica';font-size:60.02px;fill:#000000" text-anchor="middle">82299</text>
	<text x="3048.58" y="2674.44" style="font-family:'Helvetica';font-size:60.02px;fill:#000000" text-anchor="middle">82264</text>
	<text x="3535.17" y="2674.44" style="font-family:'Helvetica';font-size:60.02px;fill:#000000" text-anchor="middle">82228</text>
	<text x="968.47" y="2674.44" style="font-family:'Helvetica';font-size:60.02px;fill:#000000" text-anchor="end">Naproxen high dose</text>
	<text x="1102.24" y="2601.18" style="font-family:'Helvetica';font-size:60.02px;fill:#000000" text-anchor="middle">36118</text>
	<text x="1588.83" y="2601.18" style="font-family:'Helvetica';font-size:60.02px;fill:#000000" text-anchor="middle">36101</text>
	<text x="2075.41" y="2601.18" style="font-family:'Helvetica';font-size:60.02px;fill:#000000" text-anchor="middle">36071</text>
	<text x="2562.00" y="2601.18" style="font-family:'Helvetica';font-size:60.02px;fill:#000000" text-anchor="middle">36037</text>
	<text x="3048.58" y="2601.18" style="font-family:'Helvetica';font-size:60.02px;fill:#000000" text-anchor="middle">36011</text>
	<text x="3535.17" y="2601.18" style="font-family:'Helvetica';font-size:60.02px;fill:#000000" text-anchor="middle">35997</text>
	<text x="968.47" y="2601.18" style="font-family:'Helvetica';font-size:60.02px;fill:#000000" text-anchor="end">Current exposure to NSAIDs</text>
	<text x="1102.24" y="2527.80" style="font-family:'Helvetica';font-size:60.02px;fill:#000000" text-anchor="middle">1535421</text>
	<text x="1588.83" y="2527.80" style="font-family:'Helvetica';font-size:60.02px;fill:#000000" text-anchor="middle">1522867</text>
	<text x="2075.41" y="2527.80" style="font-family:'Helvetica';font-size:60.02px;fill:#000000" text-anchor="middle">1514566</text>
	<text x="2562.00" y="2527.80" style="font-family:'Helvetica';font-size:60.02px;fill:#000000" text-anchor="middle">1505264</text>
	<text x="3048.58" y="2527.80" style="font-family:'Helvetica';font-size:60.02px;fill:#000000" text-anchor="middle">1495945</text>
	<text x="3535.17" y="2527.80" style="font-family:'Helvetica';font-size:60.02px;fill:#000000" text-anchor="middle">1486965</text>
	<text x="968.47" y="2527.80" style="font-family:'Helvetica';font-size:60.02px;fill:#000000" text-anchor="end">Non-current exposure to NSAIDs</text>
	<text x="968.47" y="2454.53" style="font-family:'Helvetica';font-size:60.02px;fill:#000000" text-anchor="end">Number at risk</text>
	<line x1="1038.88" y1="2162.60" x2="3841.82" y2="2162.60" style="stroke:#000000;stroke-width:5.76"/>
	<line x1="1102.24" y1="2162.60" x2="1102.24" y2="2202.57" style="stroke:#000000;stroke-width:5.76"/>
	<text x="1102.24" y="2278.52" style="font-family:'Helvetica';font-size:79.94px;fill:#000000" text-anchor="middle">0</text>
	<line x1="1588.83" y1="2162.60" x2="1588.83" y2="2202.57" style="stroke:#000000;stroke-width:5.76"/>
	<text x="1588.83" y="2278.52" style="font-family:'Helvetica';font-size:79.94px;fill:#000000" text-anchor="middle">20</text>
	<line x1="2075.41" y1="2162.60" x2="2075.41" y2="2202.57" style="stroke:#000000;stroke-width:5.76"/>
	<text x="2075.41" y="2278.52" style="font-family:'Helvetica';font-size:79.94px;fill:#000000" text-anchor="middle">40</text>
	<line x1="2562.00" y1="2162.60" x2="2562.00" y2="2202.57" style="stroke:#000000;stroke-width:5.76"/>
	<text x="2562.00" y="2278.52" style="font-family:'Helvetica';font-size:79.94px;fill:#000000" text-anchor="middle">60</text>
	<line x1="3048.58" y1="2162.60" x2="3048.58" y2="2202.57" style="stroke:#000000;stroke-width:5.76"/>
	<text x="3048.58" y="2278.52" style="font-family:'Helvetica';font-size:79.94px;fill:#000000" text-anchor="middle">80</text>
	<line x1="3535.17" y1="2162.60" x2="3535.17" y2="2202.57" style="stroke:#000000;stroke-width:5.76"/>
	<text x="3535.17" y="2278.52" style="font-family:'Helvetica';font-size:79.94px;fill:#000000" text-anchor="middle">100</text>
	<text x="2440.35" y="2368.49" style="font-family:'Helvetica';font-size:79.94px;fill:#000000" text-anchor="middle">Days since 1 Mar 2020</text>
	<rect x="1174.39" y="269.91" width="2531.93" height="326.46" style="fill:#FFFFFF"/>
	<rect x="1177.27" y="272.79" width="2526.17" height="320.70" style="fill:none;stroke:#EAF2F3;stroke-width:5.76"/>
	<line x1="1217.58" y1="363.09" x2="1592.04" y2="363.09" style="stroke:#1A476F;stroke-width:8.64"/>
	<line x1="2698.49" y1="363.09" x2="3072.84" y2="363.09" style="stroke:#90353B;stroke-width:8.64"/>
	<line x1="1217.58" y1="503.06" x2="1592.04" y2="503.06" style="stroke:#55752F;stroke-width:8.64"/>
	<line x1="2698.49" y1="503.06" x2="3072.84" y2="503.06" style="stroke:#E37E00;stroke-width:8.64"/>
	<text x="1652.06" y="384.13" style="font-family:'Helvetica';font-size:60.02px;fill:#000000">Non-current exposure to NSAIDs</text>
	<text x="3132.86" y="384.13" style="font-family:'Helvetica';font-size:60.02px;fill:#000000">Naproxen low dose</text>
	<text x="1652.06" y="524.10" style="font-family:'Helvetica';font-size:60.02px;fill:#000000">Naproxen high dose</text>
	<text x="3132.86" y="524.10" style="font-family:'Helvetica';font-size:60.02px;fill:#000000">Other NSAIDs</text>
	<text x="1056.21" y="187.99" style="font-family:'Helvetica';font-size:99.99px;fill:#1E2D53">Time to death, Rheumatoid_arthritis_&amp;_osteoarthritis population</text>
</svg>
