<?xml version="1.0" encoding="UTF-8" standalone="no"?>
<!-- This is a Stata 16.1 generated SVG file (http://www.stata.com) -->

<svg version="1.1" width="5.50in" height="4.00in" viewBox="0 0 3960 2880" xmlns="http://www.w3.org/2000/svg" xmlns:xlink="http://www.w3.org/1999/xlink">
	<desc>Stata Graph - Graph</desc>
	<rect x="0" y="0" width="3960" height="2880" style="fill:#EAF2F3;stroke:none"/>
	<rect x="0.00" y="0.00" width="3959.88" height="2880.00" style="fill:#EAF2F3"/>
	<rect x="2.88" y="2.88" width="3954.12" height="2874.24" style="fill:none;stroke:#EAF2F3;stroke-width:5.76"/>
	<rect x="524.08" y="100.86" width="3334.94" height="2388.33" style="fill:#FFFFFF"/>
	<rect x="526.96" y="103.74" width="3329.18" height="2382.57" style="fill:none;stroke:#FFFFFF;stroke-width:5.76"/>
	<line x1="524.08" y1="2425.82" x2="3859.02" y2="2425.82" style="stroke:#EAF2F3;stroke-width:8.64"/>
	<line x1="524.08" y1="1294.96" x2="3859.02" y2="1294.96" style="stroke:#EAF2F3;stroke-width:8.64"/>
	<defs>
		<path id="path_lycbGrfW" d="M618.01 2425.82 L618.01 2425.82 L648.57 2425.82 L679.14 2425.82 L709.71 2425.82 L740.27 2425.82 L770.84 2425.82 L801.40 2425.82 L831.85 2425.82 L862.41 2425.82 L892.98 2425.82 L923.55 2425.82 L954.11 2425.82 L984.68 2425.70 L1015.25 2425.70 L1045.81 2425.58 L1076.38 2425.33 L1106.94 2424.96 L1137.51 2424.46 L1167.95 2423.60 L1198.52 2422.48 L1229.09 2421.00 L1259.65 2418.89 L1290.22 2416.17 L1320.78 2412.58 L1351.35 2408.13 L1381.92 2402.56 L1412.48 2396.00 L1443.05 2388.08 L1473.62 2378.92 L1504.06 2368.53 L1534.62 2356.77 L1565.19 2343.65 L1595.76 2329.42 L1626.32 2314.20 L1656.89 2297.86 L1687.45 2280.78 L1718.02 2262.96 L1748.59 2244.52 L1779.15 2225.84 L1809.72 2207.03 L1840.16 2188.09 L1870.73 2169.16 L1901.30 2150.47 L1931.86 2132.03 L1962.43 2113.84 L1992.99 2096.02 L2023.56 2078.69 L2054.13 2061.74 L2084.69 2045.28 L2115.26 2029.44 L2145.70 2014.09 L2176.27 1999.24 L2206.83 1985.01 L2237.40 1971.28 L2267.97 1958.16 L2298.53 1945.41 L2329.10 1933.28 L2359.66 1921.53 L2390.23 1910.26 L2420.80 1899.50 L2451.36 1889.23 L2481.81 1879.33 L2512.37 1869.80 L2542.94 1860.76 L2573.51 1852.10 L2604.07 1843.81 L2634.64 1835.89 L2665.20 1828.34 L2695.77 1821.16 L2726.34 1814.23 L2756.90 1807.55 L2787.47 1801.24 L2817.91 1795.30 L2848.48 1789.48 L2879.04 1784.04 L2909.61 1778.71 L2940.18 1773.76 L2970.74 1768.94 L3001.31 1764.36 L3031.88 1759.90 L3062.44 1755.70 L3093.01 1751.61 L3123.57 1747.78 L3154.02 1744.06 L3184.58 1740.47 L3215.15 1737.01 L3245.72 1733.67 L3276.28 1730.57 L3306.85 1727.48 L3337.41 1724.51 L3367.98 1721.66 L3398.55 1718.82 L3429.11 1716.22 L3459.68 1713.62 L3490.12 1711.02 L3520.69 1708.55 L3551.25 1706.19 L3581.82 1703.84 L3612.39 1701.49 L3642.95 1699.26 L3673.52 1697.04 L3704.09 1694.93 L3734.65 1692.71 L3765.22 1690.60 L3795.66 1688.50 L3795.66 1557.32 L3765.22 1559.79 L3734.65 1562.27 L3704.09 1564.74 L3673.52 1567.34 L3642.95 1569.82 L3612.39 1572.42 L3581.82 1575.14 L3551.25 1577.74 L3520.69 1580.46 L3490.12 1583.31 L3459.68 1586.15 L3429.11 1589.12 L3398.55 1592.09 L3367.98 1595.19 L3337.41 1598.40 L3306.85 1601.75 L3276.28 1605.21 L3245.72 1608.68 L3215.15 1612.39 L3184.58 1616.23 L3154.02 1620.19 L3123.57 1624.39 L3093.01 1628.72 L3062.44 1633.18 L3031.88 1638.01 L3001.31 1642.96 L2970.74 1648.03 L2940.18 1653.48 L2909.61 1659.17 L2879.04 1665.11 L2848.48 1671.30 L2817.91 1677.85 L2787.47 1684.66 L2756.90 1691.84 L2726.34 1699.39 L2695.77 1707.31 L2665.20 1715.60 L2634.64 1724.26 L2604.07 1733.30 L2573.51 1742.83 L2542.94 1752.73 L2512.37 1763.12 L2481.81 1773.89 L2451.36 1785.15 L2420.80 1797.03 L2390.23 1809.28 L2359.66 1822.03 L2329.10 1835.27 L2298.53 1849.01 L2267.97 1863.24 L2237.40 1878.09 L2206.83 1893.43 L2176.27 1909.40 L2145.70 1925.86 L2115.26 1943.06 L2084.69 1960.76 L2054.13 1979.20 L2023.56 1998.25 L1992.99 2017.93 L1962.43 2038.35 L1931.86 2059.14 L1901.30 2080.55 L1870.73 2102.45 L1840.16 2124.61 L1809.72 2147.13 L1779.15 2169.65 L1748.59 2191.93 L1718.02 2213.96 L1687.45 2235.24 L1656.89 2255.66 L1626.32 2275.09 L1595.76 2293.41 L1565.19 2310.48 L1534.62 2326.20 L1504.06 2340.56 L1473.62 2353.55 L1443.05 2365.18 L1412.48 2375.46 L1381.92 2384.49 L1351.35 2392.41 L1320.78 2399.09 L1290.22 2404.79 L1259.65 2409.49 L1229.09 2413.32 L1198.52 2416.42 L1167.95 2418.89 L1137.51 2420.87 L1106.94 2422.36 L1076.38 2423.47 L1045.81 2424.21 L1015.25 2424.83 L984.68 2425.20 L954.11 2425.45 L923.55 2425.58 L892.98 2425.70 L862.41 2425.82 L831.85 2425.82 L801.40 2425.82 L770.84 2425.82 L740.27 2425.82 L709.71 2425.82 L679.14 2425.82 L648.57 2425.82 L618.01 2425.82 L618.01 2425.82 Z" stroke-linejoin="round"/>
	</defs>
	<defs>
		<clipPath id="clipPath_FgccHdjq">
			<use xlink:href="#path_lycbGrfW"/>
		</clipPath>
	</defs>
	<use xlink:href="#path_lycbGrfW" style="stroke:none;fill:#FF3333;fill-opacity:0.25"/>
	<use xlink:href="#path_lycbGrfW" style="fill:none;stroke:#FF0000;stroke-opacity:0.25;stroke-width:17.28" clip-path="url(#clipPath_FgccHdjq)"/>
	<defs>
		<path id="path_IpqHSUom" d="M618.01 2425.82 L618.01 2425.82 L648.57 2425.82 L679.14 2425.82 L709.71 2425.82 L740.27 2425.82 L770.84 2425.82 L801.40 2425.82 L831.85 2425.82 L862.41 2425.82 L892.98 2425.82 L923.55 2425.82 L954.11 2425.82 L984.68 2425.82 L1015.25 2425.70 L1045.81 2425.58 L1076.38 2425.33 L1106.94 2425.08 L1137.51 2424.59 L1167.95 2423.84 L1198.52 2422.85 L1229.09 2421.37 L1259.65 2419.51 L1290.22 2417.04 L1320.78 2413.82 L1351.35 2409.86 L1381.92 2404.91 L1412.48 2398.97 L1443.05 2391.91 L1473.62 2383.87 L1504.06 2374.59 L1534.62 2364.19 L1565.19 2352.81 L1595.76 2340.31 L1626.32 2326.82 L1656.89 2312.59 L1687.45 2297.61 L1718.02 2282.02 L1748.59 2266.06 L1779.15 2249.72 L1809.72 2233.26 L1840.16 2216.80 L1870.73 2200.34 L1901.30 2184.13 L1931.86 2168.04 L1962.43 2152.33 L1992.99 2136.98 L2023.56 2121.88 L2054.13 2107.28 L2084.69 2093.17 L2115.26 2079.44 L2145.70 2066.32 L2176.27 2053.57 L2206.83 2041.20 L2237.40 2029.44 L2267.97 2018.05 L2298.53 2007.16 L2329.10 1996.64 L2359.66 1986.62 L2390.23 1976.84 L2420.80 1967.56 L2451.36 1958.65 L2481.81 1950.11 L2512.37 1941.95 L2542.94 1934.15 L2573.51 1926.60 L2604.07 1919.55 L2634.64 1912.62 L2665.20 1906.06 L2695.77 1899.87 L2726.34 1893.93 L2756.90 1888.24 L2787.47 1882.79 L2817.91 1877.59 L2848.48 1872.64 L2879.04 1867.82 L2909.61 1863.36 L2940.18 1859.03 L2970.74 1854.82 L3001.31 1850.86 L3031.88 1847.03 L3062.44 1843.44 L3093.01 1839.97 L3123.57 1836.63 L3154.02 1833.41 L3184.58 1830.32 L3215.15 1827.47 L3245.72 1824.63 L3276.28 1821.90 L3306.85 1819.18 L3337.41 1816.71 L3367.98 1814.23 L3398.55 1811.88 L3429.11 1809.53 L3459.68 1807.30 L3490.12 1805.07 L3520.69 1802.97 L3551.25 1800.87 L3581.82 1798.89 L3612.39 1796.91 L3642.95 1794.93 L3673.52 1793.07 L3704.09 1791.09 L3734.65 1789.23 L3765.22 1787.38 L3795.66 1785.64 L3795.66 1572.42 L3765.22 1574.89 L3734.65 1577.37 L3704.09 1579.72 L3673.52 1582.32 L3642.95 1584.79 L3612.39 1587.39 L3581.82 1589.99 L3551.25 1592.59 L3520.69 1595.31 L3490.12 1598.03 L3459.68 1600.88 L3429.11 1603.85 L3398.55 1606.82 L3367.98 1609.91 L3337.41 1613.13 L3306.85 1616.35 L3276.28 1619.81 L3245.72 1623.28 L3215.15 1626.99 L3184.58 1630.70 L3154.02 1634.66 L3123.57 1638.87 L3093.01 1643.20 L3062.44 1647.66 L3031.88 1652.36 L3001.31 1657.19 L2970.74 1662.39 L2940.18 1667.71 L2909.61 1673.40 L2879.04 1679.22 L2848.48 1685.40 L2817.91 1691.96 L2787.47 1698.65 L2756.90 1705.82 L2726.34 1713.25 L2695.77 1721.05 L2665.20 1729.21 L2634.64 1737.75 L2604.07 1746.66 L2573.51 1756.07 L2542.94 1765.84 L2512.37 1776.12 L2481.81 1786.88 L2451.36 1798.02 L2420.80 1809.65 L2390.23 1821.78 L2359.66 1834.40 L2329.10 1847.52 L2298.53 1861.13 L2267.97 1875.37 L2237.40 1889.97 L2206.83 1905.19 L2176.27 1921.03 L2145.70 1937.37 L2115.26 1954.44 L2084.69 1972.02 L2054.13 1990.33 L2023.56 2009.14 L1992.99 2028.70 L1962.43 2048.75 L1931.86 2069.29 L1901.30 2090.33 L1870.73 2111.86 L1840.16 2133.64 L1809.72 2155.67 L1779.15 2177.70 L1748.59 2199.48 L1718.02 2221.01 L1687.45 2241.80 L1656.89 2261.73 L1626.32 2280.78 L1595.76 2298.60 L1565.19 2315.19 L1534.62 2330.53 L1504.06 2344.39 L1473.62 2357.02 L1443.05 2368.28 L1412.48 2378.18 L1381.92 2386.84 L1351.35 2394.27 L1320.78 2400.70 L1290.22 2406.02 L1259.65 2410.48 L1229.09 2414.19 L1198.52 2417.04 L1167.95 2419.39 L1137.51 2421.24 L1106.94 2422.61 L1076.38 2423.60 L1045.81 2424.34 L1015.25 2424.83 L984.68 2425.20 L954.11 2425.45 L923.55 2425.58 L892.98 2425.70 L862.41 2425.82 L831.85 2425.82 L801.40 2425.82 L770.84 2425.82 L740.27 2425.82 L709.71 2425.82 L679.14 2425.82 L648.57 2425.82 L618.01 2425.82 L618.01 2425.82 Z" stroke-linejoin="round"/>
	</defs>
	<defs>
		<clipPath id="clipPath_jGyUjMtz">
			<use xlink:href="#path_IpqHSUom"/>
		</clipPath>
	</defs>
	<use xlink:href="#path_IpqHSUom" style="stroke:none;fill:#3333FF;fill-opacity:0.25"/>
	<use xlink:href="#path_IpqHSUom" style="fill:none;stroke:#0000FF;stroke-opacity:0.25;stroke-width:17.28" clip-path="url(#clipPath_jGyUjMtz)"/>
	<path d=" M587.44 2425.95 L618.01 2425.95 L648.57 2425.95 L679.02 2425.95 L709.58 2425.95 L740.15 2425.95 L770.72 2425.95 L801.28 2425.95 L831.85 2425.95 L862.41 2425.95 L892.98 2425.82 L923.55 2425.82 L954.11 2425.82 L984.68 2425.70 L1015.12 2425.45 L1045.69 2425.20 L1076.25 2424.83 L1106.82 2424.09 L1137.39 2423.22 L1167.95 2421.99 L1198.52 2420.38 L1229.09 2418.15 L1259.65 2415.18 L1290.22 2411.59 L1320.66 2407.01 L1351.23 2401.57 L1381.79 2394.88 L1412.36 2387.09 L1442.92 2378.05 L1473.49 2367.66 L1504.06 2356.03 L1534.62 2342.91 L1565.19 2328.55 L1595.76 2312.96 L1626.32 2296.13 L1656.77 2278.31 L1687.33 2259.62 L1717.90 2240.07 L1748.46 2220.02 L1779.03 2199.60 L1809.60 2178.93 L1840.16 2158.27 L1870.73 2137.85 L1901.30 2117.55 L1931.86 2097.63 L1962.43 2078.20 L1992.87 2059.14 L2023.44 2040.58 L2054.00 2022.63 L2084.57 2005.18 L2115.14 1988.48 L2145.70 1972.14 L2176.27 1956.55 L2206.83 1941.45 L2237.40 1926.97 L2267.97 1912.99 L2298.53 1899.50 L2328.97 1886.50 L2359.54 1874.13 L2390.11 1862.12 L2420.67 1850.62 L2451.24 1839.60 L2481.81 1828.96 L2512.37 1818.81 L2542.94 1809.16 L2573.51 1799.88 L2604.07 1791.09 L2634.64 1782.55 L2665.08 1774.51 L2695.65 1766.71 L2726.21 1759.28 L2756.78 1752.35 L2787.34 1745.55 L2817.91 1739.11 L2848.48 1733.05 L2879.04 1727.11 L2909.61 1721.54 L2940.18 1716.22 L2970.62 1711.14 L3001.18 1706.19 L3031.75 1701.49 L3062.32 1697.04 L3092.88 1692.83 L3123.45 1688.75 L3154.02 1684.79 L3184.58 1680.95 L3215.15 1677.36 L3245.72 1673.89 L3276.28 1670.55 L3306.72 1667.21 L3337.29 1664.12 L3367.86 1661.15 L3398.42 1658.18 L3428.99 1655.33 L3459.55 1652.61 L3490.12 1649.89 L3520.69 1647.29 L3551.25 1644.69 L3581.82 1642.21 L3612.39 1639.74 L3642.83 1637.26 L3673.39 1634.91 L3703.96 1632.56 L3734.53 1630.21 L3765.09 1627.98 L3795.66 1625.63" stroke-linejoin="round" style="fill:none;stroke:#FF0000;stroke-width:8.64"/>
	<path d=" M587.44 2425.95 L618.01 2425.95 L648.57 2425.95 L679.02 2425.95 L709.58 2425.95 L740.15 2425.95 L770.72 2425.95 L801.28 2425.95 L831.85 2425.95 L862.41 2425.95 L892.98 2425.82 L923.55 2425.82 L954.11 2425.82 L984.68 2425.70 L1015.12 2425.45 L1045.69 2425.20 L1076.25 2424.83 L1106.82 2424.34 L1137.39 2423.47 L1167.95 2422.36 L1198.52 2420.75 L1229.09 2418.77 L1259.65 2416.05 L1290.22 2412.71 L1320.66 2408.50 L1351.23 2403.42 L1381.79 2397.36 L1412.36 2390.06 L1442.92 2381.77 L1473.49 2372.11 L1504.06 2361.35 L1534.62 2349.22 L1565.19 2335.98 L1595.76 2321.62 L1626.32 2306.03 L1656.77 2289.57 L1687.33 2272.24 L1717.90 2254.30 L1748.46 2235.74 L1779.03 2216.80 L1809.60 2197.74 L1840.16 2178.69 L1870.73 2159.88 L1901.30 2141.19 L1931.86 2122.75 L1962.43 2104.68 L1992.87 2087.11 L2023.44 2070.03 L2054.00 2053.45 L2084.57 2037.36 L2115.14 2021.77 L2145.70 2006.79 L2176.27 1992.31 L2206.83 1978.45 L2237.40 1964.96 L2267.97 1952.09 L2298.53 1939.72 L2328.97 1927.71 L2359.54 1916.20 L2390.11 1905.19 L2420.67 1894.55 L2451.24 1884.28 L2481.81 1874.50 L2512.37 1865.22 L2542.94 1856.31 L2573.51 1847.65 L2604.07 1839.48 L2634.64 1831.68 L2665.08 1824.13 L2695.65 1817.08 L2726.21 1810.27 L2756.78 1803.71 L2787.34 1797.52 L2817.91 1791.58 L2848.48 1785.89 L2879.04 1780.45 L2909.61 1775.25 L2940.18 1770.42 L2970.62 1765.60 L3001.18 1761.14 L3031.75 1756.81 L3062.32 1752.73 L3092.88 1748.77 L3123.45 1744.93 L3154.02 1741.34 L3184.58 1737.88 L3215.15 1734.53 L3245.72 1731.19 L3276.28 1728.10 L3306.72 1725.13 L3337.29 1722.28 L3367.86 1719.44 L3398.42 1716.71 L3428.99 1714.11 L3459.55 1711.52 L3490.12 1709.04 L3520.69 1706.69 L3551.25 1704.34 L3581.82 1701.99 L3612.39 1699.64 L3642.83 1697.41 L3673.39 1695.30 L3703.96 1693.08 L3734.53 1690.97 L3765.09 1688.87 L3795.66 1686.77" stroke-linejoin="round" style="fill:none;stroke:#0000FF;stroke-width:8.64"/>
	<line x1="524.08" y1="2489.19" x2="524.08" y2="100.86" style="stroke:#000000;stroke-width:5.76"/>
	<line x1="524.08" y1="2425.82" x2="484.11" y2="2425.82" style="stroke:#000000;stroke-width:5.76"/>
	<text x="464.06" y="2460.85" style="font-family:'Helvetica';font-size:99.99px;fill:#000000" text-anchor="end">0.00</text>
	<line x1="524.08" y1="1294.96" x2="484.11" y2="1294.96" style="stroke:#000000;stroke-width:5.76"/>
	<text x="464.06" y="1329.99" style="font-family:'Helvetica';font-size:99.99px;fill:#000000" text-anchor="end">0.05</text>
	<line x1="524.08" y1="164.22" x2="484.11" y2="164.22" style="stroke:#000000;stroke-width:5.76"/>
	<text x="464.06" y="199.25" style="font-family:'Helvetica';font-size:99.99px;fill:#000000" text-anchor="end">0.10</text>
	<text x="190.71" y="1294.96" style="font-family:'Helvetica';font-size:99.99px;fill:#000000" transform="rotate(-90 190.71,1294.96)" text-anchor="middle">Cumulative mortality (%)</text>
	<line x1="524.08" y1="2489.19" x2="3859.02" y2="2489.19" style="stroke:#000000;stroke-width:5.76"/>
	<line x1="587.44" y1="2489.19" x2="587.44" y2="2529.16" style="stroke:#000000;stroke-width:5.76"/>
	<text x="587.44" y="2619.14" style="font-family:'Helvetica';font-size:99.99px;fill:#000000" text-anchor="middle">0</text>
	<line x1="1198.52" y1="2489.19" x2="1198.52" y2="2529.16" style="stroke:#000000;stroke-width:5.76"/>
	<text x="1198.52" y="2619.14" style="font-family:'Helvetica';font-size:99.99px;fill:#000000" text-anchor="middle">20</text>
	<line x1="1809.72" y1="2489.19" x2="1809.72" y2="2529.16" style="stroke:#000000;stroke-width:5.76"/>
	<text x="1809.72" y="2619.14" style="font-family:'Helvetica';font-size:99.99px;fill:#000000" text-anchor="middle">40</text>
	<line x1="2420.80" y1="2489.19" x2="2420.80" y2="2529.16" style="stroke:#000000;stroke-width:5.76"/>
	<text x="2420.80" y="2619.14" style="font-family:'Helvetica';font-size:99.99px;fill:#000000" text-anchor="middle">60</text>
	<line x1="3031.88" y1="2489.19" x2="3031.88" y2="2529.16" style="stroke:#000000;stroke-width:5.76"/>
	<text x="3031.88" y="2619.14" style="font-family:'Helvetica';font-size:99.99px;fill:#000000" text-anchor="middle">80</text>
	<line x1="3642.95" y1="2489.19" x2="3642.95" y2="2529.16" style="stroke:#000000;stroke-width:5.76"/>
	<text x="3642.95" y="2619.14" style="font-family:'Helvetica';font-size:99.99px;fill:#000000" text-anchor="middle">100</text>
	<text x="2191.61" y="2729.16" style="font-family:'Helvetica';font-size:99.99px;fill:#000000" text-anchor="middle">Days from 1 March 2020</text>
	<rect x="2218.84" y="135.39" width="1605.66" height="326.34" style="fill:#FFFFFF"/>
	<rect x="2221.72" y="138.27" width="1599.90" height="320.58" style="fill:none;stroke:#000000;stroke-width:5.76"/>
	<rect x="2262.03" y="178.58" width="374.34" height="99.99" style="fill:#FF3333;fill-opacity:0.25"/>
	<rect x="2266.35" y="182.90" width="365.70" height="91.35" style="fill:none;stroke:#FF0000;stroke-opacity:0.25;stroke-width:8.64"/>
	<rect x="2262.03" y="318.54" width="374.34" height="99.99" style="fill:#3333FF;fill-opacity:0.25"/>
	<rect x="2266.35" y="322.86" width="365.70" height="91.35" style="fill:none;stroke:#0000FF;stroke-opacity:0.25;stroke-width:8.64"/>
	<text x="2696.39" y="263.60" style="font-family:'Helvetica';font-size:99.99px;fill:#000000">Non-current NSAID use</text>
	<text x="2696.39" y="403.57" style="font-family:'Helvetica';font-size:99.99px;fill:#000000">Current NSAID use</text>
</svg>
