<?xml version="1.0" encoding="UTF-8" standalone="no"?>
<!-- This is a Stata 16.1 generated SVG file (http://www.stata.com) -->

<svg version="1.1" width="5.50in" height="4.00in" viewBox="0 0 3960 2880" xmlns="http://www.w3.org/2000/svg" xmlns:xlink="http://www.w3.org/1999/xlink">
	<desc>Stata Graph - Graph</desc>
	<rect x="0" y="0" width="3960" height="2880" style="fill:#EAF2F3;stroke:none"/>
	<rect x="0.00" y="0.00" width="3959.88" height="2880.00" style="fill:#EAF2F3"/>
	<rect x="2.88" y="2.88" width="3954.12" height="2874.24" style="fill:none;stroke:#EAF2F3;stroke-width:5.76"/>
	<rect x="559.10" y="100.86" width="3299.92" height="2388.33" style="fill:#FFFFFF"/>
	<rect x="561.98" y="103.74" width="3294.16" height="2382.57" style="fill:none;stroke:#FFFFFF;stroke-width:5.76"/>
	<line x1="559.10" y1="2425.82" x2="3859.02" y2="2425.82" style="stroke:#EAF2F3;stroke-width:8.64"/>
	<line x1="559.10" y1="1671.91" x2="3859.02" y2="1671.91" style="stroke:#EAF2F3;stroke-width:8.64"/>
	<line x1="559.10" y1="918.01" x2="3859.02" y2="918.01" style="stroke:#EAF2F3;stroke-width:8.64"/>
	<line x1="559.10" y1="164.22" x2="3859.02" y2="164.22" style="stroke:#EAF2F3;stroke-width:8.64"/>
	<defs>
		<path id="path_jegfymbr" d="M622.46 918.01 L622.46 918.01 L652.66 918.01 L682.85 918.01 L713.17 918.01 L743.37 918.01 L773.56 918.01 L803.76 918.01 L834.08 918.01 L864.27 918.13 L894.47 918.13 L924.66 918.13 L954.86 918.13 L985.17 918.25 L1015.37 918.50 L1045.56 918.75 L1075.76 919.24 L1105.95 919.99 L1136.27 920.98 L1166.47 922.46 L1196.66 924.44 L1226.86 927.16 L1257.18 930.75 L1287.37 935.33 L1317.57 941.15 L1347.76 948.45 L1377.96 957.24 L1408.28 967.88 L1438.47 980.25 L1468.66 994.73 L1498.86 1011.32 L1529.06 1030.00 L1559.37 1050.92 L1589.57 1073.81 L1619.76 1098.69 L1649.96 1125.54 L1680.28 1154.00 L1710.47 1183.95 L1740.67 1215.02 L1770.86 1247.07 L1801.06 1279.74 L1831.38 1312.66 L1861.57 1345.45 L1891.77 1378.12 L1921.96 1410.42 L1952.16 1442.23 L1982.47 1473.29 L2012.67 1503.61 L2042.87 1533.06 L2073.06 1561.77 L2103.38 1589.49 L2133.57 1616.35 L2163.77 1642.21 L2193.96 1667.09 L2224.16 1691.10 L2254.48 1714.24 L2284.67 1736.51 L2314.87 1757.92 L2345.06 1778.59 L2375.26 1798.39 L2405.58 1817.45 L2435.77 1835.76 L2465.97 1853.34 L2496.16 1870.17 L2526.48 1886.26 L2556.68 1901.73 L2586.87 1916.45 L2617.07 1930.56 L2647.26 1944.05 L2677.58 1957.04 L2707.77 1969.30 L2737.97 1981.05 L2768.16 1992.31 L2798.36 2002.96 L2828.68 2013.23 L2858.87 2023.00 L2889.07 2032.29 L2919.26 2041.20 L2949.46 2049.74 L2979.78 2057.78 L3009.97 2065.58 L3040.17 2073.00 L3070.36 2080.06 L3100.68 2086.86 L3130.88 2093.42 L3161.07 2099.73 L3191.26 2105.67 L3221.46 2111.49 L3251.78 2117.06 L3281.97 2122.38 L3312.17 2127.58 L3342.36 2132.53 L3372.56 2137.35 L3402.88 2142.06 L3433.07 2146.51 L3463.27 2150.97 L3493.46 2155.17 L3523.78 2159.38 L3553.98 2163.47 L3584.17 2167.43 L3614.37 2171.39 L3644.56 2175.22 L3674.88 2178.93 L3705.07 2182.77 L3735.27 2186.36 L3765.47 2190.07 L3795.66 2193.66 L3795.66 456.40 L3765.47 457.64 L3735.27 459.00 L3705.07 460.36 L3674.88 461.73 L3644.56 463.09 L3614.37 464.45 L3584.17 465.81 L3553.98 467.29 L3523.78 468.78 L3493.46 470.26 L3463.27 471.87 L3433.07 473.48 L3402.88 475.09 L3372.56 476.82 L3342.36 478.56 L3312.17 480.29 L3281.97 482.15 L3251.78 484.13 L3221.46 486.11 L3191.26 488.21 L3161.07 490.44 L3130.88 492.66 L3100.68 495.02 L3070.36 497.49 L3040.17 500.09 L3009.97 502.69 L2979.78 505.53 L2949.46 508.50 L2919.26 511.60 L2889.07 514.82 L2858.87 518.16 L2828.68 521.75 L2798.36 525.34 L2768.16 529.30 L2737.97 533.38 L2707.77 537.59 L2677.58 542.04 L2647.26 546.74 L2617.07 551.57 L2586.87 556.64 L2556.68 561.97 L2526.48 567.66 L2496.16 573.48 L2465.97 579.54 L2435.77 585.85 L2405.58 592.53 L2375.26 599.46 L2345.06 606.64 L2314.87 614.07 L2284.67 621.74 L2254.48 629.91 L2224.16 638.20 L2193.96 646.86 L2163.77 655.90 L2133.57 665.30 L2103.38 674.95 L2073.06 684.98 L2042.87 695.37 L2012.67 706.02 L1982.47 717.03 L1952.16 728.29 L1921.96 739.80 L1891.77 751.43 L1861.57 763.19 L1831.38 775.19 L1801.06 787.07 L1770.86 798.83 L1740.67 810.46 L1710.47 821.73 L1680.28 832.49 L1649.96 842.89 L1619.76 852.54 L1589.57 861.57 L1559.37 869.87 L1529.06 877.41 L1498.86 884.10 L1468.66 890.16 L1438.47 895.36 L1408.28 899.81 L1377.96 903.65 L1347.76 906.87 L1317.57 909.59 L1287.37 911.69 L1257.18 913.30 L1226.86 914.66 L1196.66 915.65 L1166.47 916.40 L1136.27 916.89 L1105.95 917.26 L1075.76 917.63 L1045.56 917.76 L1015.37 917.88 L985.17 918.01 L954.86 918.01 L924.66 918.01 L894.47 918.01 L864.27 918.01 L834.08 918.01 L803.76 918.01 L773.56 918.01 L743.37 918.01 L713.17 918.01 L682.85 918.01 L652.66 918.01 L622.46 918.01 L622.46 918.01 Z" stroke-linejoin="round"/>
	</defs>
	<defs>
		<clipPath id="clipPath_iFoLvDFn">
			<use xlink:href="#path_jegfymbr"/>
		</clipPath>
	</defs>
	<use xlink:href="#path_jegfymbr" style="stroke:none;fill:#FF3333;fill-opacity:0.25"/>
	<use xlink:href="#path_jegfymbr" style="fill:none;stroke:#FF0000;stroke-opacity:0.25;stroke-width:17.28" clip-path="url(#clipPath_iFoLvDFn)"/>
	<path d=" M622.46 918.13 L652.66 918.13 L682.85 918.13 L713.05 918.13 L743.24 918.13 L773.56 918.13 L803.76 918.13 L833.95 918.13 L864.15 918.13 L894.34 918.13 L924.66 918.13 L954.86 918.13 L985.05 918.13 L1015.25 918.25 L1045.56 918.38 L1075.76 918.50 L1105.95 918.75 L1136.15 919.00 L1166.34 919.49 L1196.66 920.11 L1226.86 920.98 L1257.05 922.09 L1287.25 923.58 L1317.44 925.43 L1347.76 927.78 L1377.96 930.51 L1408.15 933.85 L1438.35 937.93 L1468.66 942.51 L1498.86 947.83 L1529.06 953.77 L1559.25 960.45 L1589.44 967.76 L1619.76 975.68 L1649.96 984.21 L1680.15 993.37 L1710.35 1002.90 L1740.54 1012.80 L1770.86 1023.07 L1801.06 1033.47 L1831.25 1043.99 L1861.45 1054.38 L1891.77 1064.90 L1921.96 1075.17 L1952.16 1085.32 L1982.35 1095.22 L2012.55 1104.87 L2042.87 1114.28 L2073.06 1123.44 L2103.26 1132.35 L2133.45 1140.89 L2163.64 1149.05 L2193.96 1157.10 L2224.16 1164.77 L2254.35 1172.07 L2284.55 1179.25 L2314.87 1186.06 L2345.06 1192.62 L2375.26 1198.93 L2405.45 1205.12 L2435.65 1210.93 L2465.97 1216.50 L2496.16 1221.82 L2526.36 1227.02 L2556.55 1231.97 L2586.75 1236.67 L2617.07 1241.13 L2647.26 1245.46 L2677.45 1249.54 L2707.65 1253.50 L2737.97 1257.22 L2768.16 1260.80 L2798.36 1264.27 L2828.55 1267.49 L2858.75 1270.58 L2889.07 1273.55 L2919.26 1276.40 L2949.46 1279.12 L2979.65 1281.72 L3009.85 1284.19 L3040.17 1286.55 L3070.36 1288.90 L3100.56 1291.00 L3130.75 1293.10 L3160.95 1295.08 L3191.26 1297.06 L3221.46 1298.92 L3251.66 1300.65 L3281.85 1302.39 L3312.17 1303.99 L3342.36 1305.60 L3372.56 1307.09 L3402.75 1308.57 L3432.95 1310.06 L3463.27 1311.42 L3493.46 1312.78 L3523.66 1314.14 L3553.85 1315.50 L3584.05 1316.74 L3614.37 1317.98 L3644.56 1319.22 L3674.76 1320.45 L3704.95 1321.57 L3735.27 1322.81 L3765.47 1323.92 L3795.66 1325.03" stroke-linejoin="round" style="fill:none;stroke:#FF0000;stroke-width:8.64"/>
	<line x1="559.10" y1="2489.19" x2="559.10" y2="100.86" style="stroke:#000000;stroke-width:5.76"/>
	<line x1="559.10" y1="2425.82" x2="519.13" y2="2425.82" style="stroke:#000000;stroke-width:5.76"/>
	<text x="499.08" y="2460.85" style="font-family:'Helvetica';font-size:99.99px;fill:#000000" text-anchor="end">-0.01</text>
	<line x1="559.10" y1="1671.91" x2="519.13" y2="1671.91" style="stroke:#000000;stroke-width:5.76"/>
	<text x="499.08" y="1706.94" style="font-family:'Helvetica';font-size:99.99px;fill:#000000" text-anchor="end">-0.01</text>
	<line x1="559.10" y1="918.01" x2="519.13" y2="918.01" style="stroke:#000000;stroke-width:5.76"/>
	<text x="499.08" y="953.03" style="font-family:'Helvetica';font-size:99.99px;fill:#000000" text-anchor="end">0.00</text>
	<line x1="559.10" y1="164.22" x2="519.13" y2="164.22" style="stroke:#000000;stroke-width:5.76"/>
	<text x="499.08" y="199.25" style="font-family:'Helvetica';font-size:99.99px;fill:#000000" text-anchor="end">0.01</text>
	<text x="190.71" y="1294.96" style="font-family:'Helvetica';font-size:99.99px;fill:#000000" transform="rotate(-90 190.71,1294.96)" text-anchor="middle">Difference in curves (%)</text>
	<line x1="559.10" y1="2489.19" x2="3859.02" y2="2489.19" style="stroke:#000000;stroke-width:5.76"/>
	<line x1="622.46" y1="2489.19" x2="622.46" y2="2529.16" style="stroke:#000000;stroke-width:5.76"/>
	<text x="622.46" y="2619.14" style="font-family:'Helvetica';font-size:99.99px;fill:#000000" text-anchor="middle">0</text>
	<line x1="1226.86" y1="2489.19" x2="1226.86" y2="2529.16" style="stroke:#000000;stroke-width:5.76"/>
	<text x="1226.86" y="2619.14" style="font-family:'Helvetica';font-size:99.99px;fill:#000000" text-anchor="middle">20</text>
	<line x1="1831.38" y1="2489.19" x2="1831.38" y2="2529.16" style="stroke:#000000;stroke-width:5.76"/>
	<text x="1831.38" y="2619.14" style="font-family:'Helvetica';font-size:99.99px;fill:#000000" text-anchor="middle">40</text>
	<line x1="2435.77" y1="2489.19" x2="2435.77" y2="2529.16" style="stroke:#000000;stroke-width:5.76"/>
	<text x="2435.77" y="2619.14" style="font-family:'Helvetica';font-size:99.99px;fill:#000000" text-anchor="middle">60</text>
	<line x1="3040.17" y1="2489.19" x2="3040.17" y2="2529.16" style="stroke:#000000;stroke-width:5.76"/>
	<text x="3040.17" y="2619.14" style="font-family:'Helvetica';font-size:99.99px;fill:#000000" text-anchor="middle">80</text>
	<line x1="3644.56" y1="2489.19" x2="3644.56" y2="2529.16" style="stroke:#000000;stroke-width:5.76"/>
	<text x="3644.56" y="2619.14" style="font-family:'Helvetica';font-size:99.99px;fill:#000000" text-anchor="middle">100</text>
	<text x="2209.06" y="2729.16" style="font-family:'Helvetica';font-size:99.99px;fill:#000000" text-anchor="middle">Days from 1 March 2020</text>
</svg>
