<?xml version="1.0" encoding="UTF-8" standalone="no"?>
<!-- This is a Stata 16.1 generated SVG file (http://www.stata.com) -->

<svg version="1.1" width="5.50in" height="4.00in" viewBox="0 0 3960 2880" xmlns="http://www.w3.org/2000/svg" xmlns:xlink="http://www.w3.org/1999/xlink">
	<desc>Stata Graph - Graph</desc>
	<rect x="0" y="0" width="3960" height="2880" style="fill:#EAF2F3;stroke:none"/>
	<rect x="0.00" y="0.00" width="3959.88" height="2880.00" style="fill:#FFFFFF"/>
	<rect x="2.88" y="2.88" width="3954.12" height="2874.24" style="fill:none;stroke:#EAF2F3;stroke-width:5.76"/>
	<rect x="1092.46" y="630.90" width="2748.36" height="1531.70" style="fill:#FFFFFF"/>
	<rect x="1095.34" y="633.78" width="2742.60" height="1525.94" style="fill:none;stroke:#FFFFFF;stroke-width:5.76"/>
	<line x1="1092.46" y1="2099.24" x2="3840.83" y2="2099.24" style="stroke:#EAF2F3;stroke-width:8.64"/>
	<line x1="1092.46" y1="1396.69" x2="3840.83" y2="1396.69" style="stroke:#EAF2F3;stroke-width:8.64"/>
	<line x1="1092.46" y1="694.26" x2="3840.83" y2="694.26" style="stroke:#EAF2F3;stroke-width:8.64"/>
	<path d=" M1155.83 2099.24 L1155.83 2099.24 L1155.83 2099.24 L1155.83 2099.24 L1155.83 2099.24 L1155.83 2099.24 L1155.83 2099.24 L1179.59 2099.24 L1179.59 2099.24 L1203.47 2099.24 L1203.47 2099.24 L1227.23 2099.24 L1227.23 2099.24 L1251.11 2099.24 L1251.11 2099.24 L1275.00 2099.24 L1275.00 2099.24 L1298.76 2099.24 L1298.76 2099.24 L1322.64 2099.24 L1322.64 2099.24 L1346.40 2099.24 L1346.40 2099.24 L1370.28 2099.24 L1370.28 2099.24 L1394.04 2099.24 L1394.04 2099.24 L1417.93 2099.24 L1417.93 2099.24 L1441.81 2099.24 L1441.81 2099.24 L1465.57 2099.24 L1465.57 2099.24 L1489.45 2099.24 L1489.45 2099.24 L1513.21 2099.24 L1513.21 2098.49 L1537.10 2098.49 L1537.10 2097.13 L1560.98 2097.13 L1560.98 2097.13 L1584.74 2097.13 L1584.74 2096.39 L1608.63 2096.39 L1608.63 2096.39 L1632.39 2096.39 L1632.39 2095.65 L1656.27 2095.65 L1656.27 2094.16 L1680.15 2094.16 L1680.15 2091.19 L1703.91 2091.19 L1703.91 2088.97 L1727.80 2088.97 L1727.80 2083.77 L1751.56 2083.77 L1751.56 2080.06 L1775.44 2080.06 L1775.44 2075.60 L1799.20 2075.60 L1799.20 2071.89 L1823.09 2071.89 L1823.09 2065.95 L1846.97 2065.95 L1846.97 2060.75 L1870.73 2060.75 L1870.73 2053.94 L1894.61 2053.94 L1894.61 2049.49 L1918.37 2049.49 L1918.37 2044.29 L1942.26 2044.29 L1942.26 2035.38 L1966.14 2035.38 L1966.14 2024.98 L1989.90 2024.98 L1989.90 2014.47 L2013.78 2014.47 L2013.78 2008.53 L2037.54 2008.53 L2037.54 1995.90 L2061.43 1995.90 L2061.43 1980.93 L2085.31 1980.93 L2085.31 1965.21 L2109.07 1965.21 L2109.07 1953.33 L2132.95 1953.33 L2132.95 1943.55 L2156.72 1943.55 L2156.72 1935.39 L2180.60 1935.39 L2180.60 1923.38 L2204.36 1923.38 L2204.36 1915.96 L2228.24 1915.96 L2228.24 1902.47 L2252.13 1902.47 L2252.13 1894.18 L2275.89 1894.18 L2275.89 1877.72 L2299.77 1877.72 L2299.77 1870.29 L2323.53 1870.29 L2323.53 1860.52 L2347.41 1860.52 L2347.41 1850.00 L2371.30 1850.00 L2371.30 1837.25 L2395.06 1837.25 L2395.06 1828.96 L2418.94 1828.96 L2418.94 1817.70 L2442.70 1817.70 L2442.70 1810.27 L2466.59 1810.27 L2466.59 1802.72 L2490.34 1802.72 L2490.34 1792.95 L2514.23 1792.95 L2514.23 1786.88 L2538.11 1786.88 L2538.11 1778.59 L2561.87 1778.59 L2561.87 1771.04 L2585.76 1771.04 L2585.76 1765.10 L2609.52 1765.10 L2609.52 1759.78 L2633.40 1759.78 L2633.40 1755.32 L2657.28 1755.32 L2657.28 1748.52 L2681.04 1748.52 L2681.04 1743.20 L2704.93 1743.20 L2704.93 1739.36 L2728.69 1739.36 L2728.69 1733.42 L2752.57 1733.42 L2752.57 1727.36 L2776.45 1727.36 L2776.45 1723.52 L2800.22 1723.52 L2800.22 1719.81 L2824.10 1719.81 L2824.10 1717.46 L2847.86 1717.46 L2847.86 1717.46 L2871.74 1717.46 L2871.74 1709.16 L2895.50 1709.16 L2895.50 1704.59 L2919.39 1704.59 L2919.39 1702.36 L2943.27 1702.36 L2943.27 1700.75 L2967.03 1700.75 L2967.03 1697.04 L2990.91 1697.04 L2990.91 1693.94 L3014.67 1693.94 L3014.67 1691.72 L3038.56 1691.72 L3038.56 1688.62 L3062.44 1688.62 L3062.44 1687.14 L3086.20 1687.14 L3086.20 1683.30 L3110.09 1683.30 L3110.09 1679.46 L3133.84 1679.46 L3133.84 1678.72 L3157.73 1678.72 L3157.73 1676.49 L3181.61 1676.49 L3181.61 1674.14 L3205.37 1674.14 L3205.37 1671.17 L3229.26 1671.17 L3229.26 1668.08 L3253.02 1668.08 L3253.02 1664.24 L3276.90 1664.24 L3276.90 1663.50 L3300.66 1663.50 L3300.66 1661.89 L3324.54 1661.89 L3324.54 1660.41 L3348.43 1660.41 L3348.43 1656.57 L3372.19 1656.57 L3372.19 1655.83 L3396.07 1655.83 L3396.07 1654.34 L3419.83 1654.34 L3419.83 1651.99 L3443.72 1651.99 L3443.72 1650.51 L3467.60 1650.51 L3467.60 1649.76 L3491.36 1649.76 L3491.36 1648.15 L3515.24 1648.15 L3515.24 1648.15 L3539.00 1648.15 L3539.00 1647.41 L3562.89 1647.41 L3562.89 1645.06 L3586.77 1645.06 L3586.77 1644.32 L3610.53 1644.32 L3610.53 1641.22 L3634.41 1641.22 L3634.41 1641.22 L3658.17 1641.22 L3658.17 1640.48" stroke-linejoin="round" style="fill:none;stroke:#1A476F;stroke-width:8.64"/>
	<path d=" M1155.83 2099.24 L1155.83 2099.24 L1155.83 2099.24 L1155.83 2099.24 L1155.83 2099.24 L1155.83 2099.24 L1155.83 2099.24 L1179.59 2099.24 L1179.59 2099.24 L1203.47 2099.24 L1203.47 2099.24 L1227.23 2099.24 L1227.23 2099.24 L1251.11 2099.24 L1251.11 2099.24 L1275.00 2099.24 L1275.00 2099.24 L1298.76 2099.24 L1298.76 2099.24 L1322.64 2099.24 L1322.64 2099.24 L1346.40 2099.24 L1346.40 2099.24 L1370.28 2099.24 L1370.28 2099.24 L1394.04 2099.24 L1394.04 2099.24 L1417.93 2099.24 L1417.93 2099.24 L1441.81 2099.24 L1441.81 2099.24 L1465.57 2099.24 L1465.57 2099.24 L1489.45 2099.24 L1489.45 2099.24 L1513.21 2099.24 L1513.21 2099.24 L1537.10 2099.24 L1537.10 2099.24 L1560.98 2099.24 L1560.98 2099.24 L1584.74 2099.24 L1584.74 2099.24 L1608.63 2099.24 L1608.63 2099.24 L1656.27 2099.24 L1656.27 2099.24 L1680.15 2099.24 L1680.15 2099.24 L1703.91 2099.24 L1703.91 2086.49 L1727.80 2086.49 L1727.80 2086.49 L1751.56 2086.49 L1751.56 2086.49 L1775.44 2086.49 L1775.44 2073.62 L1799.20 2073.62 L1799.20 2073.62 L1823.09 2073.62 L1823.09 2073.62 L1846.97 2073.62 L1846.97 2060.75 L1870.73 2060.75 L1870.73 2060.75 L1894.61 2060.75 L1894.61 2047.88 L1918.37 2047.88 L1918.37 2047.88 L1942.26 2047.88 L1942.26 2022.14 L1966.14 2022.14 L1966.14 2022.14 L1989.90 2022.14 L1989.90 2009.39 L2013.78 2009.39 L2013.78 2009.39 L2037.54 2009.39 L2037.54 1983.65 L2061.43 1983.65 L2061.43 1957.91 L2085.31 1957.91 L2085.31 1957.91 L2109.07 1957.91 L2109.07 1932.29 L2132.95 1932.29 L2132.95 1906.55 L2156.72 1906.55 L2156.72 1893.68 L2180.60 1893.68 L2180.60 1867.94 L2204.36 1867.94 L2204.36 1867.94 L2228.24 1867.94 L2228.24 1867.94 L2252.13 1867.94 L2252.13 1842.32 L2275.89 1842.32 L2275.89 1816.58 L2299.77 1816.58 L2299.77 1790.84 L2323.53 1790.84 L2323.53 1777.97 L2347.41 1777.97 L2347.41 1777.97 L2371.30 1777.97 L2371.30 1777.97 L2395.06 1777.97 L2395.06 1765.10 L2418.94 1765.10 L2418.94 1739.48 L2442.70 1739.48 L2442.70 1726.61 L2466.59 1726.61 L2466.59 1726.61 L2490.34 1726.61 L2490.34 1726.61 L2514.23 1726.61 L2514.23 1713.74 L2538.11 1713.74 L2538.11 1700.87 L2561.87 1700.87 L2561.87 1700.87 L2585.76 1700.87 L2585.76 1688.00 L2609.52 1688.00 L2609.52 1675.13 L2633.40 1675.13 L2633.40 1675.13 L2657.28 1675.13 L2657.28 1675.13 L2681.04 1675.13 L2681.04 1662.26 L2704.93 1662.26 L2704.93 1623.65 L2728.69 1623.65 L2728.69 1610.90 L2752.57 1610.90 L2752.57 1610.90 L2776.45 1610.90 L2776.45 1610.90 L2800.22 1610.90 L2800.22 1598.03 L2824.10 1598.03 L2824.10 1598.03 L2847.86 1598.03 L2847.86 1598.03 L2871.74 1598.03 L2871.74 1585.16 L2895.50 1585.16 L2895.50 1585.16 L2919.39 1585.16 L2919.39 1585.16 L2943.27 1585.16 L2943.27 1585.16 L2990.91 1585.16 L2990.91 1572.29 L3014.67 1572.29 L3014.67 1572.29 L3038.56 1572.29 L3038.56 1572.29 L3086.20 1572.29 L3086.20 1559.42 L3133.84 1559.42 L3133.84 1559.42 L3157.73 1559.42 L3157.73 1559.42 L3181.61 1559.42 L3181.61 1546.55 L3205.37 1546.55 L3205.37 1533.68 L3229.26 1533.68 L3229.26 1533.68 L3276.90 1533.68 L3276.90 1533.68 L3324.54 1533.68 L3324.54 1533.68 L3348.43 1533.68 L3348.43 1533.68 L3372.19 1533.68 L3372.19 1533.68 L3396.07 1533.68 L3396.07 1533.68 L3419.83 1533.68 L3419.83 1533.68 L3443.72 1533.68 L3443.72 1533.68 L3467.60 1533.68 L3467.60 1520.81 L3491.36 1520.81 L3491.36 1520.81 L3562.89 1520.81 L3562.89 1520.81 L3586.77 1520.81 L3586.77 1520.81 L3610.53 1520.81 L3610.53 1507.94 L3634.41 1507.94 L3634.41 1507.94 L3658.17 1507.94 L3658.17 1495.07" stroke-linejoin="round" style="fill:none;stroke:#90353B;stroke-width:8.64"/>
	<path d=" M1155.83 2099.24 L1155.83 2099.24 L1155.83 2099.24 L1155.83 2099.24 L1155.83 2099.24 L1155.83 2099.24 L1155.83 2099.24 L1179.59 2099.24 L1179.59 2099.24 L1203.47 2099.24 L1203.47 2099.24 L1227.23 2099.24 L1227.23 2099.24 L1251.11 2099.24 L1251.11 2099.24 L1275.00 2099.24 L1275.00 2099.24 L1298.76 2099.24 L1298.76 2099.24 L1346.40 2099.24 L1346.40 2099.24 L1370.28 2099.24 L1370.28 2099.24 L1394.04 2099.24 L1394.04 2099.24 L1417.93 2099.24 L1417.93 2099.24 L1441.81 2099.24 L1441.81 2099.24 L1465.57 2099.24 L1465.57 2099.24 L1489.45 2099.24 L1489.45 2099.24 L1513.21 2099.24 L1513.21 2099.24 L1537.10 2099.24 L1537.10 2099.24 L1560.98 2099.24 L1560.98 2099.24 L1584.74 2099.24 L1584.74 2099.24 L1608.63 2099.24 L1608.63 2099.24 L1632.39 2099.24 L1632.39 2099.24 L1656.27 2099.24 L1656.27 2094.53 L1680.15 2094.53 L1680.15 2089.71 L1703.91 2089.71 L1703.91 2084.88 L1727.80 2084.88 L1727.80 2080.06 L1751.56 2080.06 L1751.56 2080.06 L1775.44 2080.06 L1775.44 2075.23 L1799.20 2075.23 L1799.20 2075.23 L1823.09 2075.23 L1823.09 2070.40 L1846.97 2070.40 L1846.97 2060.75 L1870.73 2060.75 L1870.73 2051.10 L1894.61 2051.10 L1894.61 2046.39 L1918.37 2046.39 L1918.37 2041.57 L1942.26 2041.57 L1942.26 2031.91 L1966.14 2031.91 L1966.14 2027.09 L1989.90 2027.09 L1989.90 2012.61 L2013.78 2012.61 L2013.78 2002.96 L2037.54 2002.96 L2037.54 1993.43 L2061.43 1993.43 L2061.43 1974.12 L2085.31 1974.12 L2085.31 1940.46 L2109.07 1940.46 L2109.07 1925.98 L2132.95 1925.98 L2132.95 1916.33 L2156.72 1916.33 L2156.72 1906.68 L2180.60 1906.68 L2180.60 1897.02 L2204.36 1897.02 L2204.36 1877.84 L2228.24 1877.84 L2228.24 1877.84 L2252.13 1877.84 L2252.13 1868.19 L2275.89 1868.19 L2275.89 1868.19 L2299.77 1868.19 L2299.77 1863.36 L2323.53 1863.36 L2323.53 1853.71 L2347.41 1853.71 L2347.41 1829.70 L2371.30 1829.70 L2371.30 1820.05 L2395.06 1820.05 L2395.06 1815.22 L2418.94 1815.22 L2418.94 1805.57 L2442.70 1805.57 L2442.70 1800.74 L2466.59 1800.74 L2466.59 1795.92 L2490.34 1795.92 L2490.34 1791.09 L2514.23 1791.09 L2514.23 1771.91 L2538.11 1771.91 L2538.11 1767.08 L2561.87 1767.08 L2561.87 1767.08 L2585.76 1767.08 L2585.76 1762.26 L2609.52 1762.26 L2609.52 1757.43 L2633.40 1757.43 L2633.40 1752.60 L2657.28 1752.60 L2657.28 1747.78 L2681.04 1747.78 L2681.04 1742.95 L2704.93 1742.95 L2704.93 1738.12 L2728.69 1738.12 L2728.69 1738.12 L2752.57 1738.12 L2752.57 1733.30 L2776.45 1733.30 L2776.45 1733.30 L2800.22 1733.30 L2800.22 1728.47 L2824.10 1728.47 L2824.10 1728.47 L2847.86 1728.47 L2847.86 1728.47 L2871.74 1728.47 L2871.74 1728.47 L2895.50 1728.47 L2895.50 1728.47 L2919.39 1728.47 L2919.39 1723.64 L2943.27 1723.64 L2943.27 1723.64 L2967.03 1723.64 L2967.03 1723.64 L2990.91 1723.64 L2990.91 1723.64 L3014.67 1723.64 L3014.67 1718.82 L3038.56 1718.82 L3038.56 1718.82 L3062.44 1718.82 L3062.44 1713.99 L3086.20 1713.99 L3086.20 1713.99 L3133.84 1713.99 L3133.84 1713.99 L3157.73 1713.99 L3157.73 1713.99 L3181.61 1713.99 L3181.61 1704.46 L3205.37 1704.46 L3205.37 1704.46 L3229.26 1704.46 L3229.26 1704.46 L3253.02 1704.46 L3253.02 1704.46 L3276.90 1704.46 L3276.90 1694.81 L3300.66 1694.81 L3300.66 1689.98 L3324.54 1689.98 L3324.54 1689.98 L3348.43 1689.98 L3348.43 1689.98 L3372.19 1689.98 L3372.19 1689.98 L3396.07 1689.98 L3396.07 1685.16 L3419.83 1685.16 L3419.83 1685.16 L3443.72 1685.16 L3443.72 1685.16 L3467.60 1685.16 L3467.60 1680.33 L3491.36 1680.33 L3491.36 1680.33 L3515.24 1680.33 L3515.24 1680.33 L3539.00 1680.33 L3539.00 1680.33 L3562.89 1680.33 L3562.89 1680.33 L3586.77 1680.33 L3586.77 1680.33 L3610.53 1680.33 L3610.53 1675.50 L3634.41 1675.50 L3634.41 1675.50 L3658.17 1675.50 L3658.17 1675.50" stroke-linejoin="round" style="fill:none;stroke:#55752F;stroke-width:8.64"/>
	<path d=" M1155.83 2099.24 L1155.83 2099.24 L1155.83 2099.24 L1155.83 2099.24 L1155.83 2099.24 L1155.83 2099.24 L1155.83 2099.24 L1179.59 2099.24 L1179.59 2099.24 L1203.47 2099.24 L1203.47 2099.24 L1227.23 2099.24 L1227.23 2099.24 L1251.11 2099.24 L1251.11 2099.24 L1275.00 2099.24 L1275.00 2099.24 L1298.76 2099.24 L1298.76 2099.24 L1322.64 2099.24 L1322.64 2099.24 L1346.40 2099.24 L1346.40 2099.24 L1370.28 2099.24 L1370.28 2099.24 L1394.04 2099.24 L1394.04 2099.24 L1417.93 2099.24 L1417.93 2099.24 L1441.81 2099.24 L1441.81 2099.24 L1465.57 2099.24 L1465.57 2099.24 L1489.45 2099.24 L1489.45 2099.24 L1513.21 2099.24 L1513.21 2099.24 L1537.10 2099.24 L1537.10 2099.24 L1560.98 2099.24 L1560.98 2099.24 L1584.74 2099.24 L1584.74 2099.24 L1608.63 2099.24 L1608.63 2099.24 L1632.39 2099.24 L1632.39 2099.24 L1656.27 2099.24 L1656.27 2099.24 L1680.15 2099.24 L1680.15 2099.24 L1703.91 2099.24 L1703.91 2099.24 L1727.80 2099.24 L1727.80 2099.24 L1751.56 2099.24 L1751.56 2088.84 L1775.44 2088.84 L1775.44 2078.32 L1799.20 2078.32 L1799.20 2078.32 L1823.09 2078.32 L1823.09 2067.80 L1846.97 2067.80 L1846.97 2036.37 L1870.73 2036.37 L1870.73 2025.85 L1894.61 2025.85 L1894.61 1962.98 L1918.37 1962.98 L1918.37 1952.46 L1942.26 1952.46 L1942.26 1921.03 L1966.14 1921.03 L1966.14 1900.12 L1989.90 1900.12 L1989.90 1889.60 L2013.78 1889.60 L2013.78 1879.08 L2037.54 1879.08 L2037.54 1858.16 L2061.43 1858.16 L2061.43 1837.13 L2085.31 1837.13 L2085.31 1784.78 L2109.07 1784.78 L2109.07 1774.26 L2132.95 1774.26 L2132.95 1753.22 L2156.72 1753.22 L2156.72 1711.27 L2180.60 1711.27 L2180.60 1690.35 L2204.36 1690.35 L2204.36 1679.83 L2228.24 1679.83 L2228.24 1648.40 L2252.13 1648.40 L2252.13 1637.88 L2275.89 1637.88 L2275.89 1627.36 L2299.77 1627.36 L2299.77 1616.84 L2323.53 1616.84 L2323.53 1606.45 L2347.41 1606.45 L2347.41 1606.45 L2371.30 1606.45 L2371.30 1574.89 L2395.06 1574.89 L2395.06 1574.89 L2418.94 1574.89 L2418.94 1564.37 L2442.70 1564.37 L2442.70 1543.46 L2466.59 1543.46 L2466.59 1522.42 L2490.34 1522.42 L2490.34 1501.51 L2514.23 1501.51 L2514.23 1459.43 L2538.11 1459.43 L2538.11 1428.00 L2561.87 1428.00 L2561.87 1406.96 L2585.76 1406.96 L2585.76 1396.56 L2609.52 1396.56 L2609.52 1386.04 L2633.40 1386.04 L2633.40 1386.04 L2657.28 1386.04 L2657.28 1386.04 L2681.04 1386.04 L2681.04 1375.52 L2704.93 1375.52 L2704.93 1375.52 L2728.69 1375.52 L2728.69 1375.52 L2752.57 1375.52 L2752.57 1375.52 L2776.45 1375.52 L2776.45 1375.52 L2800.22 1375.52 L2800.22 1365.01 L2824.10 1365.01 L2824.10 1365.01 L2847.86 1365.01 L2847.86 1365.01 L2871.74 1365.01 L2871.74 1344.09 L2895.50 1344.09 L2895.50 1333.57 L2943.27 1333.57 L2943.27 1333.57 L2967.03 1333.57 L2967.03 1323.05 L2990.91 1323.05 L2990.91 1323.05 L3014.67 1323.05 L3014.67 1312.53 L3038.56 1312.53 L3038.56 1302.01 L3062.44 1302.01 L3062.44 1291.50 L3086.20 1291.50 L3086.20 1280.98 L3110.09 1280.98 L3110.09 1280.98 L3133.84 1280.98 L3133.84 1280.98 L3157.73 1280.98 L3157.73 1280.98 L3181.61 1280.98 L3181.61 1280.98 L3205.37 1280.98 L3205.37 1270.58 L3229.26 1270.58 L3229.26 1270.58 L3253.02 1270.58 L3253.02 1270.58 L3276.90 1270.58 L3276.90 1270.58 L3300.66 1270.58 L3300.66 1270.58 L3324.54 1270.58 L3324.54 1270.58 L3348.43 1270.58 L3348.43 1260.06 L3372.19 1260.06 L3372.19 1260.06 L3396.07 1260.06 L3396.07 1249.54 L3419.83 1249.54 L3419.83 1249.54 L3443.72 1249.54 L3443.72 1239.02 L3467.60 1239.02 L3467.60 1239.02 L3491.36 1239.02 L3491.36 1239.02 L3515.24 1239.02 L3515.24 1239.02 L3539.00 1239.02 L3539.00 1239.02 L3562.89 1239.02 L3562.89 1239.02 L3586.77 1239.02 L3586.77 1239.02 L3610.53 1239.02 L3610.53 1228.50 L3634.41 1228.50 L3634.41 1228.50 L3658.17 1228.50 L3658.17 1228.50" stroke-linejoin="round" style="fill:none;stroke:#E37E00;stroke-width:8.64"/>
	<line x1="1092.46" y1="2162.60" x2="1092.46" y2="630.90" style="stroke:#000000;stroke-width:5.76"/>
	<line x1="1092.46" y1="2099.24" x2="1052.49" y2="2099.24" style="stroke:#000000;stroke-width:5.76"/>
	<text x="1032.45" y="2127.25" style="font-family:'Helvetica';font-size:79.94px;fill:#000000" text-anchor="end">0.0000</text>
	<line x1="1092.46" y1="1396.69" x2="1052.49" y2="1396.69" style="stroke:#000000;stroke-width:5.76"/>
	<text x="1032.45" y="1424.70" style="font-family:'Helvetica';font-size:79.94px;fill:#000000" text-anchor="end">0.0005</text>
	<line x1="1092.46" y1="694.26" x2="1052.49" y2="694.26" style="stroke:#000000;stroke-width:5.76"/>
	<text x="1032.45" y="722.27" style="font-family:'Helvetica';font-size:79.94px;fill:#000000" text-anchor="end">0.0010</text>
	<text x="1155.83" y="2747.83" style="font-family:'Helvetica';font-size:60.02px;fill:#000000" text-anchor="middle">134169</text>
	<text x="1632.51" y="2747.83" style="font-family:'Helvetica';font-size:60.02px;fill:#000000" text-anchor="middle">134072</text>
	<text x="2109.20" y="2747.83" style="font-family:'Helvetica';font-size:60.02px;fill:#000000" text-anchor="middle">133924</text>
	<text x="2585.76" y="2747.83" style="font-family:'Helvetica';font-size:60.02px;fill:#000000" text-anchor="middle">133802</text>
	<text x="3062.44" y="2747.83" style="font-family:'Helvetica';font-size:60.02px;fill:#000000" text-anchor="middle">133737</text>
	<text x="3539.13" y="2747.83" style="font-family:'Helvetica';font-size:60.02px;fill:#000000" text-anchor="middle">133650</text>
	<text x="1024.77" y="2747.83" style="font-family:'Helvetica';font-size:60.02px;fill:#000000" text-anchor="end">Other NSAIDs</text>
	<text x="1155.83" y="2674.44" style="font-family:'Helvetica';font-size:60.02px;fill:#000000" text-anchor="middle">291943</text>
	<text x="1632.51" y="2674.44" style="font-family:'Helvetica';font-size:60.02px;fill:#000000" text-anchor="middle">291862</text>
	<text x="2109.20" y="2674.44" style="font-family:'Helvetica';font-size:60.02px;fill:#000000" text-anchor="middle">291744</text>
	<text x="2585.76" y="2674.44" style="font-family:'Helvetica';font-size:60.02px;fill:#000000" text-anchor="middle">291634</text>
	<text x="3062.44" y="2674.44" style="font-family:'Helvetica';font-size:60.02px;fill:#000000" text-anchor="middle">291563</text>
	<text x="3539.13" y="2674.44" style="font-family:'Helvetica';font-size:60.02px;fill:#000000" text-anchor="middle">291481</text>
	<text x="1024.77" y="2674.44" style="font-family:'Helvetica';font-size:60.02px;fill:#000000" text-anchor="end">Naproxen high dose</text>
	<text x="1155.83" y="2601.18" style="font-family:'Helvetica';font-size:60.02px;fill:#000000" text-anchor="middle">109407</text>
	<text x="1632.51" y="2601.18" style="font-family:'Helvetica';font-size:60.02px;fill:#000000" text-anchor="middle">109364</text>
	<text x="2109.20" y="2601.18" style="font-family:'Helvetica';font-size:60.02px;fill:#000000" text-anchor="middle">109309</text>
	<text x="2585.76" y="2601.18" style="font-family:'Helvetica';font-size:60.02px;fill:#000000" text-anchor="middle">109245</text>
	<text x="3062.44" y="2601.18" style="font-family:'Helvetica';font-size:60.02px;fill:#000000" text-anchor="middle">109199</text>
	<text x="3539.13" y="2601.18" style="font-family:'Helvetica';font-size:60.02px;fill:#000000" text-anchor="middle">109170</text>
	<text x="1024.77" y="2601.18" style="font-family:'Helvetica';font-size:60.02px;fill:#000000" text-anchor="end">Current exposure to NSAIDs</text>
	<text x="1155.83" y="2527.80" style="font-family:'Helvetica';font-size:60.02px;fill:#000000" text-anchor="middle">1924095</text>
	<text x="1632.51" y="2527.80" style="font-family:'Helvetica';font-size:60.02px;fill:#000000" text-anchor="middle">1896129</text>
	<text x="2109.20" y="2527.80" style="font-family:'Helvetica';font-size:60.02px;fill:#000000" text-anchor="middle">1880304</text>
	<text x="2585.76" y="2527.80" style="font-family:'Helvetica';font-size:60.02px;fill:#000000" text-anchor="middle">1863680</text>
	<text x="3062.44" y="2527.80" style="font-family:'Helvetica';font-size:60.02px;fill:#000000" text-anchor="middle">1845915</text>
	<text x="3539.13" y="2527.80" style="font-family:'Helvetica';font-size:60.02px;fill:#000000" text-anchor="middle">1828962</text>
	<text x="1024.77" y="2527.80" style="font-family:'Helvetica';font-size:60.02px;fill:#000000" text-anchor="end">Non-current exposure to NSAIDs</text>
	<text x="1024.77" y="2454.53" style="font-family:'Helvetica';font-size:60.02px;fill:#000000" text-anchor="end">Number at risk</text>
	<line x1="1092.46" y1="2162.60" x2="3840.83" y2="2162.60" style="stroke:#000000;stroke-width:5.76"/>
	<line x1="1155.83" y1="2162.60" x2="1155.83" y2="2202.57" style="stroke:#000000;stroke-width:5.76"/>
	<text x="1155.83" y="2278.52" style="font-family:'Helvetica';font-size:79.94px;fill:#000000" text-anchor="middle">0</text>
	<line x1="1632.51" y1="2162.60" x2="1632.51" y2="2202.57" style="stroke:#000000;stroke-width:5.76"/>
	<text x="1632.51" y="2278.52" style="font-family:'Helvetica';font-size:79.94px;fill:#000000" text-anchor="middle">20</text>
	<line x1="2109.20" y1="2162.60" x2="2109.20" y2="2202.57" style="stroke:#000000;stroke-width:5.76"/>
	<text x="2109.20" y="2278.52" style="font-family:'Helvetica';font-size:79.94px;fill:#000000" text-anchor="middle">40</text>
	<line x1="2585.76" y1="2162.60" x2="2585.76" y2="2202.57" style="stroke:#000000;stroke-width:5.76"/>
	<text x="2585.76" y="2278.52" style="font-family:'Helvetica';font-size:79.94px;fill:#000000" text-anchor="middle">60</text>
	<line x1="3062.44" y1="2162.60" x2="3062.44" y2="2202.57" style="stroke:#000000;stroke-width:5.76"/>
	<text x="3062.44" y="2278.52" style="font-family:'Helvetica';font-size:79.94px;fill:#000000" text-anchor="middle">80</text>
	<line x1="3539.13" y1="2162.60" x2="3539.13" y2="2202.57" style="stroke:#000000;stroke-width:5.76"/>
	<text x="3539.13" y="2278.52" style="font-family:'Helvetica';font-size:79.94px;fill:#000000" text-anchor="middle">100</text>
	<text x="2466.59" y="2368.49" style="font-family:'Helvetica';font-size:79.94px;fill:#000000" text-anchor="middle">Days since 1 Mar 2020</text>
	<rect x="1200.75" y="269.91" width="2531.80" height="326.46" style="fill:#FFFFFF"/>
	<rect x="1203.63" y="272.79" width="2526.04" height="320.70" style="fill:none;stroke:#EAF2F3;stroke-width:5.76"/>
	<line x1="1243.93" y1="363.09" x2="1618.28" y2="363.09" style="stroke:#1A476F;stroke-width:8.64"/>
	<line x1="2724.73" y1="363.09" x2="3099.20" y2="363.09" style="stroke:#90353B;stroke-width:8.64"/>
	<line x1="1243.93" y1="503.06" x2="1618.28" y2="503.06" style="stroke:#55752F;stroke-width:8.64"/>
	<line x1="2724.73" y1="503.06" x2="3099.20" y2="503.06" style="stroke:#E37E00;stroke-width:8.64"/>
	<text x="1678.30" y="384.13" style="font-family:'Helvetica';font-size:60.02px;fill:#000000">Non-current exposure to NSAIDs</text>
	<text x="3159.09" y="384.13" style="font-family:'Helvetica';font-size:60.02px;fill:#000000">Naproxen low dose</text>
	<text x="1678.30" y="524.10" style="font-family:'Helvetica';font-size:60.02px;fill:#000000">Naproxen high dose</text>
	<text x="3159.09" y="524.10" style="font-family:'Helvetica';font-size:60.02px;fill:#000000">Other NSAIDs</text>
	<text x="1746.24" y="187.99" style="font-family:'Helvetica';font-size:99.99px;fill:#1E2D53">Time to death, nsaid population</text>
</svg>
