<?xml version="1.0" encoding="UTF-8" standalone="no"?>
<!-- This is a Stata 16.1 generated SVG file (http://www.stata.com) -->

<svg version="1.1" width="5.50in" height="4.00in" viewBox="0 0 3960 2880" xmlns="http://www.w3.org/2000/svg" xmlns:xlink="http://www.w3.org/1999/xlink">
	<desc>Stata Graph - Graph</desc>
	<rect x="0" y="0" width="3960" height="2880" style="fill:#EAF2F3;stroke:none"/>
	<rect x="0.00" y="0.00" width="3959.88" height="2880.00" style="fill:#FFFFFF"/>
	<rect x="2.88" y="2.88" width="3954.12" height="2874.24" style="fill:none;stroke:#EAF2F3;stroke-width:5.76"/>
	<rect x="1092.46" y="630.90" width="2748.36" height="1604.96" style="fill:#FFFFFF"/>
	<rect x="1095.34" y="633.78" width="2742.60" height="1599.20" style="fill:none;stroke:#FFFFFF;stroke-width:5.76"/>
	<line x1="1092.46" y1="2172.62" x2="3840.83" y2="2172.62" style="stroke:#EAF2F3;stroke-width:8.64"/>
	<line x1="1092.46" y1="1433.44" x2="3840.83" y2="1433.44" style="stroke:#EAF2F3;stroke-width:8.64"/>
	<line x1="1092.46" y1="694.26" x2="3840.83" y2="694.26" style="stroke:#EAF2F3;stroke-width:8.64"/>
	<path d=" M1155.83 2172.62 L1155.83 2172.62 L1155.83 2172.62 L1155.83 2172.62 L1155.83 2172.62 L1179.59 2172.62 L1179.59 2172.62 L1203.47 2172.62 L1203.47 2172.62 L1227.23 2172.62 L1227.23 2172.62 L1251.11 2172.62 L1251.11 2172.62 L1275.00 2172.62 L1275.00 2172.62 L1298.76 2172.62 L1298.76 2172.62 L1322.64 2172.62 L1322.64 2172.62 L1346.40 2172.62 L1346.40 2172.62 L1370.28 2172.62 L1370.28 2172.62 L1394.04 2172.62 L1394.04 2172.62 L1417.93 2172.62 L1417.93 2172.62 L1441.81 2172.62 L1441.81 2172.62 L1465.57 2172.62 L1465.57 2172.62 L1489.45 2172.62 L1489.45 2172.62 L1513.21 2172.62 L1513.21 2171.88 L1537.10 2171.88 L1537.10 2170.27 L1560.98 2170.27 L1560.98 2170.27 L1584.74 2170.27 L1584.74 2169.53 L1608.63 2169.53 L1608.63 2169.53 L1632.39 2169.53 L1632.39 2168.79 L1656.27 2168.79 L1656.27 2167.18 L1680.15 2167.18 L1680.15 2164.08 L1703.91 2164.08 L1703.91 2161.73 L1727.80 2161.73 L1727.80 2156.29 L1751.56 2156.29 L1751.56 2152.33 L1775.44 2152.33 L1775.44 2147.62 L1799.20 2147.62 L1799.20 2143.79 L1823.09 2143.79 L1823.09 2137.48 L1846.97 2137.48 L1846.97 2132.03 L1870.73 2132.03 L1870.73 2124.98 L1894.61 2124.98 L1894.61 2120.28 L1918.37 2120.28 L1918.37 2114.83 L1942.26 2114.83 L1942.26 2105.42 L1966.14 2105.42 L1966.14 2094.41 L1989.90 2094.41 L1989.90 2083.40 L2013.78 2083.40 L2013.78 2077.08 L2037.54 2077.08 L2037.54 2063.84 L2061.43 2063.84 L2061.43 2048.13 L2085.31 2048.13 L2085.31 2031.54 L2109.07 2031.54 L2109.07 2019.04 L2132.95 2019.04 L2132.95 2008.77 L2156.72 2008.77 L2156.72 2000.11 L2180.60 2000.11 L2180.60 1987.61 L2204.36 1987.61 L2204.36 1979.69 L2228.24 1979.69 L2228.24 1965.58 L2252.13 1965.58 L2252.13 1956.92 L2275.89 1956.92 L2275.89 1939.47 L2299.77 1939.47 L2299.77 1931.67 L2323.53 1931.67 L2323.53 1921.40 L2347.41 1921.40 L2347.41 1910.39 L2371.30 1910.39 L2371.30 1896.90 L2395.06 1896.90 L2395.06 1888.24 L2418.94 1888.24 L2418.94 1876.36 L2442.70 1876.36 L2442.70 1868.44 L2466.59 1868.44 L2466.59 1860.52 L2490.34 1860.52 L2490.34 1850.24 L2514.23 1850.24 L2514.23 1843.93 L2538.11 1843.93 L2538.11 1835.27 L2561.87 1835.27 L2561.87 1827.35 L2585.76 1827.35 L2585.76 1820.91 L2609.52 1820.91 L2609.52 1815.35 L2633.40 1815.35 L2633.40 1810.64 L2657.28 1810.64 L2657.28 1803.47 L2681.04 1803.47 L2681.04 1797.90 L2704.93 1797.90 L2704.93 1793.94 L2728.69 1793.94 L2728.69 1787.62 L2752.57 1787.62 L2752.57 1781.19 L2776.45 1781.19 L2776.45 1777.23 L2800.22 1777.23 L2800.22 1773.27 L2824.10 1773.27 L2824.10 1770.92 L2847.86 1770.92 L2847.86 1770.92 L2871.74 1770.92 L2871.74 1762.13 L2895.50 1762.13 L2895.50 1757.30 L2919.39 1757.30 L2919.39 1754.95 L2943.27 1754.95 L2943.27 1753.34 L2967.03 1753.34 L2967.03 1749.38 L2990.91 1749.38 L2990.91 1746.17 L3014.67 1746.17 L3014.67 1743.69 L3038.56 1743.69 L3038.56 1740.60 L3062.44 1740.60 L3062.44 1738.99 L3086.20 1738.99 L3086.20 1734.91 L3110.09 1734.91 L3110.09 1730.95 L3133.84 1730.95 L3133.84 1730.08 L3157.73 1730.08 L3157.73 1727.73 L3181.61 1727.73 L3181.61 1725.25 L3205.37 1725.25 L3205.37 1722.16 L3229.26 1722.16 L3229.26 1718.94 L3253.02 1718.94 L3253.02 1714.86 L3276.90 1714.86 L3276.90 1714.11 L3300.66 1714.11 L3300.66 1712.51 L3324.54 1712.51 L3324.54 1710.90 L3348.43 1710.90 L3348.43 1706.81 L3372.19 1706.81 L3372.19 1706.07 L3396.07 1706.07 L3396.07 1704.46 L3419.83 1704.46 L3419.83 1701.99 L3443.72 1701.99 L3443.72 1700.38 L3467.60 1700.38 L3467.60 1699.51 L3491.36 1699.51 L3491.36 1697.90 L3515.24 1697.90 L3515.24 1697.90 L3539.00 1697.90 L3539.00 1697.16 L3562.89 1697.16 L3562.89 1694.69 L3586.77 1694.69 L3586.77 1693.94 L3610.53 1693.94 L3610.53 1690.73 L3634.41 1690.73 L3634.41 1690.73 L3658.17 1690.73 L3658.17 1689.86" stroke-linejoin="round" style="fill:none;stroke:#1A476F;stroke-width:8.64"/>
	<path d=" M1155.83 2172.62 L1155.83 2172.62 L1155.83 2172.62 L1155.83 2172.62 L1155.83 2172.62 L1203.47 2172.62 L1203.47 2172.62 L1227.23 2172.62 L1227.23 2172.62 L1251.11 2172.62 L1251.11 2172.62 L1275.00 2172.62 L1275.00 2172.62 L1298.76 2172.62 L1298.76 2172.62 L1322.64 2172.62 L1322.64 2172.62 L1346.40 2172.62 L1346.40 2172.62 L1370.28 2172.62 L1370.28 2172.62 L1394.04 2172.62 L1394.04 2172.62 L1417.93 2172.62 L1417.93 2172.62 L1441.81 2172.62 L1441.81 2172.62 L1465.57 2172.62 L1465.57 2172.62 L1489.45 2172.62 L1489.45 2172.62 L1513.21 2172.62 L1513.21 2172.62 L1537.10 2172.62 L1537.10 2172.62 L1560.98 2172.62 L1560.98 2172.62 L1584.74 2172.62 L1584.74 2172.62 L1608.63 2172.62 L1608.63 2172.62 L1632.39 2172.62 L1632.39 2172.62 L1656.27 2172.62 L1656.27 2172.62 L1680.15 2172.62 L1680.15 2172.62 L1703.91 2172.62 L1703.91 2172.62 L1727.80 2172.62 L1727.80 2172.62 L1751.56 2172.62 L1751.56 2143.42 L1775.44 2143.42 L1775.44 2143.42 L1799.20 2143.42 L1799.20 2143.42 L1823.09 2143.42 L1823.09 2114.09 L1846.97 2114.09 L1846.97 2055.55 L1870.73 2055.55 L1870.73 2026.35 L1894.61 2026.35 L1894.61 1909.15 L1918.37 1909.15 L1918.37 1879.94 L1942.26 1879.94 L1942.26 1879.94 L1966.14 1879.94 L1966.14 1850.62 L1989.90 1850.62 L1989.90 1821.41 L2013.78 1821.41 L2013.78 1792.08 L2037.54 1792.08 L2037.54 1762.75 L2061.43 1762.75 L2061.43 1704.21 L2085.31 1704.21 L2085.31 1645.68 L2109.07 1645.68 L2109.07 1616.35 L2132.95 1616.35 L2132.95 1587.02 L2156.72 1587.02 L2156.72 1557.81 L2180.60 1557.81 L2180.60 1528.48 L2204.36 1528.48 L2204.36 1499.15 L2228.24 1499.15 L2228.24 1469.82 L2252.13 1469.82 L2252.13 1469.82 L2275.89 1469.82 L2275.89 1469.82 L2299.77 1469.82 L2299.77 1469.82 L2323.53 1469.82 L2323.53 1440.62 L2347.41 1440.62 L2347.41 1440.62 L2371.30 1440.62 L2371.30 1381.96 L2395.06 1381.96 L2395.06 1381.96 L2418.94 1381.96 L2418.94 1352.63 L2442.70 1352.63 L2442.70 1352.63 L2466.59 1352.63 L2466.59 1352.63 L2490.34 1352.63 L2490.34 1352.63 L2514.23 1352.63 L2514.23 1293.97 L2538.11 1293.97 L2538.11 1235.43 L2561.87 1235.43 L2561.87 1206.11 L2585.76 1206.11 L2585.76 1206.11 L2609.52 1206.11 L2609.52 1147.45 L2633.40 1147.45 L2633.40 1147.45 L2657.28 1147.45 L2657.28 1147.45 L2681.04 1147.45 L2681.04 1118.12 L2704.93 1118.12 L2704.93 1118.12 L2728.69 1118.12 L2728.69 1118.12 L2752.57 1118.12 L2752.57 1118.12 L2800.22 1118.12 L2800.22 1088.79 L2824.10 1088.79 L2824.10 1088.79 L2871.74 1088.79 L2871.74 1030.13 L2895.50 1030.13 L2895.50 1000.80 L2943.27 1000.80 L2943.27 1000.80 L2967.03 1000.80 L2967.03 1000.80 L2990.91 1000.80 L2990.91 1000.80 L3014.67 1000.80 L3014.67 971.47 L3038.56 971.47 L3038.56 942.14 L3062.44 942.14 L3062.44 912.81 L3086.20 912.81 L3086.20 883.48 L3110.09 883.48 L3110.09 883.48 L3133.84 883.48 L3133.84 883.48 L3157.73 883.48 L3157.73 883.48 L3181.61 883.48 L3181.61 883.48 L3205.37 883.48 L3205.37 883.48 L3229.26 883.48 L3229.26 883.48 L3253.02 883.48 L3253.02 883.48 L3276.90 883.48 L3276.90 883.48 L3300.66 883.48 L3300.66 883.48 L3348.43 883.48 L3348.43 883.48 L3372.19 883.48 L3372.19 883.48 L3396.07 883.48 L3396.07 854.15 L3443.72 854.15 L3443.72 824.70 L3467.60 824.70 L3467.60 824.70 L3491.36 824.70 L3491.36 824.70 L3515.24 824.70 L3515.24 824.70 L3539.00 824.70 L3539.00 824.70 L3562.89 824.70 L3562.89 824.70 L3586.77 824.70 L3586.77 824.70 L3610.53 824.70 L3610.53 824.70 L3634.41 824.70 L3634.41 824.70 L3658.17 824.70 L3658.17 824.70" stroke-linejoin="round" style="fill:none;stroke:#90353B;stroke-width:8.64"/>
	<path d=" M1155.83 2172.62 L1155.83 2172.62 L1155.83 2172.62 L1155.83 2172.62 L1155.83 2172.62 L1179.59 2172.62 L1179.59 2172.62 L1203.47 2172.62 L1203.47 2172.62 L1227.23 2172.62 L1227.23 2172.62 L1251.11 2172.62 L1251.11 2172.62 L1275.00 2172.62 L1275.00 2172.62 L1298.76 2172.62 L1298.76 2172.62 L1322.64 2172.62 L1322.64 2172.62 L1346.40 2172.62 L1346.40 2172.62 L1370.28 2172.62 L1370.28 2172.62 L1394.04 2172.62 L1394.04 2172.62 L1417.93 2172.62 L1417.93 2172.62 L1441.81 2172.62 L1441.81 2172.62 L1465.57 2172.62 L1465.57 2172.62 L1489.45 2172.62 L1489.45 2172.62 L1513.21 2172.62 L1513.21 2172.62 L1537.10 2172.62 L1537.10 2172.62 L1560.98 2172.62 L1560.98 2172.62 L1584.74 2172.62 L1584.74 2172.62 L1608.63 2172.62 L1608.63 2172.62 L1632.39 2172.62 L1632.39 2172.62 L1656.27 2172.62 L1656.27 2169.53 L1680.15 2169.53 L1680.15 2166.56 L1703.91 2166.56 L1703.91 2160.37 L1727.80 2160.37 L1727.80 2157.40 L1751.56 2157.40 L1751.56 2157.40 L1775.44 2157.40 L1775.44 2148.24 L1799.20 2148.24 L1799.20 2148.24 L1823.09 2148.24 L1823.09 2145.15 L1846.97 2145.15 L1846.97 2133.02 L1870.73 2133.02 L1870.73 2126.83 L1894.61 2126.83 L1894.61 2114.71 L1918.37 2114.71 L1918.37 2111.61 L1942.26 2111.61 L1942.26 2090.33 L1966.14 2090.33 L1966.14 2084.14 L1989.90 2084.14 L1989.90 2072.01 L2013.78 2072.01 L2013.78 2065.82 L2037.54 2065.82 L2037.54 2050.60 L2061.43 2050.60 L2061.43 2032.29 L2085.31 2032.29 L2085.31 2001.84 L2109.07 2001.84 L2109.07 1986.50 L2132.95 1986.50 L2132.95 1971.28 L2156.72 1971.28 L2156.72 1952.96 L2180.60 1952.96 L2180.60 1937.74 L2204.36 1937.74 L2204.36 1925.49 L2228.24 1925.49 L2228.24 1919.42 L2252.13 1919.42 L2252.13 1904.20 L2275.89 1904.20 L2275.89 1895.04 L2299.77 1895.04 L2299.77 1882.79 L2323.53 1882.79 L2323.53 1873.63 L2347.41 1873.63 L2347.41 1858.41 L2371.30 1858.41 L2371.30 1849.25 L2395.06 1849.25 L2395.06 1843.19 L2418.94 1843.19 L2418.94 1830.94 L2442.70 1830.94 L2442.70 1818.69 L2466.59 1818.69 L2466.59 1809.53 L2490.34 1809.53 L2490.34 1800.37 L2514.23 1800.37 L2514.23 1779.09 L2538.11 1779.09 L2538.11 1769.93 L2561.87 1769.93 L2561.87 1766.83 L2585.76 1766.83 L2585.76 1757.68 L2609.52 1757.68 L2609.52 1754.71 L2633.40 1754.71 L2633.40 1751.61 L2657.28 1751.61 L2657.28 1748.52 L2681.04 1748.52 L2681.04 1742.45 L2704.93 1742.45 L2704.93 1730.20 L2728.69 1730.20 L2728.69 1727.23 L2752.57 1727.23 L2752.57 1724.14 L2776.45 1724.14 L2776.45 1724.14 L2800.22 1724.14 L2800.22 1718.07 L2824.10 1718.07 L2824.10 1718.07 L2847.86 1718.07 L2847.86 1718.07 L2871.74 1718.07 L2871.74 1714.98 L2895.50 1714.98 L2895.50 1714.98 L2919.39 1714.98 L2919.39 1711.89 L2943.27 1711.89 L2943.27 1711.89 L2967.03 1711.89 L2967.03 1708.92 L2990.91 1708.92 L2990.91 1705.82 L3014.67 1705.82 L3014.67 1702.73 L3038.56 1702.73 L3038.56 1702.73 L3062.44 1702.73 L3062.44 1699.76 L3086.20 1699.76 L3086.20 1696.67 L3110.09 1696.67 L3110.09 1696.67 L3133.84 1696.67 L3133.84 1696.67 L3157.73 1696.67 L3157.73 1696.67 L3181.61 1696.67 L3181.61 1687.51 L3205.37 1687.51 L3205.37 1681.44 L3229.26 1681.44 L3229.26 1681.44 L3253.02 1681.44 L3253.02 1681.44 L3276.90 1681.44 L3276.90 1675.26 L3300.66 1675.26 L3300.66 1672.29 L3324.54 1672.29 L3324.54 1672.29 L3348.43 1672.29 L3348.43 1669.19 L3372.19 1669.19 L3372.19 1669.19 L3396.07 1669.19 L3396.07 1666.10 L3419.83 1666.10 L3419.83 1666.10 L3443.72 1666.10 L3443.72 1666.10 L3467.60 1666.10 L3467.60 1660.03 L3491.36 1660.03 L3491.36 1660.03 L3515.24 1660.03 L3515.24 1660.03 L3539.00 1660.03 L3539.00 1660.03 L3562.89 1660.03 L3562.89 1660.03 L3586.77 1660.03 L3586.77 1660.03 L3610.53 1660.03 L3610.53 1650.88 L3634.41 1650.88 L3634.41 1650.88 L3658.17 1650.88 L3658.17 1647.78" stroke-linejoin="round" style="fill:none;stroke:#55752F;stroke-width:8.64"/>
	<line x1="1092.46" y1="2235.86" x2="1092.46" y2="630.90" style="stroke:#000000;stroke-width:5.76"/>
	<line x1="1092.46" y1="2172.62" x2="1052.49" y2="2172.62" style="stroke:#000000;stroke-width:5.76"/>
	<text x="1032.45" y="2200.63" style="font-family:'Helvetica';font-size:79.94px;fill:#000000" text-anchor="end">0.0000</text>
	<line x1="1092.46" y1="1433.44" x2="1052.49" y2="1433.44" style="stroke:#000000;stroke-width:5.76"/>
	<text x="1032.45" y="1461.45" style="font-family:'Helvetica';font-size:79.94px;fill:#000000" text-anchor="end">0.0005</text>
	<line x1="1092.46" y1="694.26" x2="1052.49" y2="694.26" style="stroke:#000000;stroke-width:5.76"/>
	<text x="1032.45" y="722.27" style="font-family:'Helvetica';font-size:79.94px;fill:#000000" text-anchor="end">0.0010</text>
	<text x="1155.83" y="2747.83" style="font-family:'Helvetica';font-size:60.02px;fill:#000000" text-anchor="middle">484916</text>
	<text x="1632.51" y="2747.83" style="font-family:'Helvetica';font-size:60.02px;fill:#000000" text-anchor="middle">484759</text>
	<text x="2109.20" y="2747.83" style="font-family:'Helvetica';font-size:60.02px;fill:#000000" text-anchor="middle">484522</text>
	<text x="2585.76" y="2747.83" style="font-family:'Helvetica';font-size:60.02px;fill:#000000" text-anchor="middle">484290</text>
	<text x="3062.44" y="2747.83" style="font-family:'Helvetica';font-size:60.02px;fill:#000000" text-anchor="middle">484153</text>
	<text x="3539.13" y="2747.83" style="font-family:'Helvetica';font-size:60.02px;fill:#000000" text-anchor="middle">484003</text>
	<text x="1024.77" y="2747.83" style="font-family:'Helvetica';font-size:60.02px;fill:#000000" text-anchor="end">Other NSAIDs</text>
	<text x="1155.83" y="2674.44" style="font-family:'Helvetica';font-size:60.02px;fill:#000000" text-anchor="middle">50603</text>
	<text x="1632.51" y="2674.44" style="font-family:'Helvetica';font-size:60.02px;fill:#000000" text-anchor="middle">50539</text>
	<text x="2109.20" y="2674.44" style="font-family:'Helvetica';font-size:60.02px;fill:#000000" text-anchor="middle">50455</text>
	<text x="2585.76" y="2674.44" style="font-family:'Helvetica';font-size:60.02px;fill:#000000" text-anchor="middle">50391</text>
	<text x="3062.44" y="2674.44" style="font-family:'Helvetica';font-size:60.02px;fill:#000000" text-anchor="middle">50346</text>
	<text x="3539.13" y="2674.44" style="font-family:'Helvetica';font-size:60.02px;fill:#000000" text-anchor="middle">50298</text>
	<text x="1024.77" y="2674.44" style="font-family:'Helvetica';font-size:60.02px;fill:#000000" text-anchor="end">Ibuprofen</text>
	<text x="1155.83" y="2601.18" style="font-family:'Helvetica';font-size:60.02px;fill:#000000" text-anchor="middle">1924095</text>
	<text x="1632.51" y="2601.18" style="font-family:'Helvetica';font-size:60.02px;fill:#000000" text-anchor="middle">1896129</text>
	<text x="2109.20" y="2601.18" style="font-family:'Helvetica';font-size:60.02px;fill:#000000" text-anchor="middle">1880304</text>
	<text x="2585.76" y="2601.18" style="font-family:'Helvetica';font-size:60.02px;fill:#000000" text-anchor="middle">1863680</text>
	<text x="3062.44" y="2601.18" style="font-family:'Helvetica';font-size:60.02px;fill:#000000" text-anchor="middle">1845915</text>
	<text x="3539.13" y="2601.18" style="font-family:'Helvetica';font-size:60.02px;fill:#000000" text-anchor="middle">1828962</text>
	<text x="1024.77" y="2601.18" style="font-family:'Helvetica';font-size:60.02px;fill:#000000" text-anchor="end">Non-current exposure to NSAIDs</text>
	<text x="1024.77" y="2527.80" style="font-family:'Helvetica';font-size:60.02px;fill:#000000" text-anchor="end">Number at risk</text>
	<line x1="1092.46" y1="2235.86" x2="3840.83" y2="2235.86" style="stroke:#000000;stroke-width:5.76"/>
	<line x1="1155.83" y1="2235.86" x2="1155.83" y2="2275.96" style="stroke:#000000;stroke-width:5.76"/>
	<text x="1155.83" y="2351.78" style="font-family:'Helvetica';font-size:79.94px;fill:#000000" text-anchor="middle">0</text>
	<line x1="1632.51" y1="2235.86" x2="1632.51" y2="2275.96" style="stroke:#000000;stroke-width:5.76"/>
	<text x="1632.51" y="2351.78" style="font-family:'Helvetica';font-size:79.94px;fill:#000000" text-anchor="middle">20</text>
	<line x1="2109.20" y1="2235.86" x2="2109.20" y2="2275.96" style="stroke:#000000;stroke-width:5.76"/>
	<text x="2109.20" y="2351.78" style="font-family:'Helvetica';font-size:79.94px;fill:#000000" text-anchor="middle">40</text>
	<line x1="2585.76" y1="2235.86" x2="2585.76" y2="2275.96" style="stroke:#000000;stroke-width:5.76"/>
	<text x="2585.76" y="2351.78" style="font-family:'Helvetica';font-size:79.94px;fill:#000000" text-anchor="middle">60</text>
	<line x1="3062.44" y1="2235.86" x2="3062.44" y2="2275.96" style="stroke:#000000;stroke-width:5.76"/>
	<text x="3062.44" y="2351.78" style="font-family:'Helvetica';font-size:79.94px;fill:#000000" text-anchor="middle">80</text>
	<line x1="3539.13" y1="2235.86" x2="3539.13" y2="2275.96" style="stroke:#000000;stroke-width:5.76"/>
	<text x="3539.13" y="2351.78" style="font-family:'Helvetica';font-size:79.94px;fill:#000000" text-anchor="middle">100</text>
	<text x="2466.59" y="2441.87" style="font-family:'Helvetica';font-size:79.94px;fill:#000000" text-anchor="middle">Days since 1 Mar 2020</text>
	<rect x="1335.51" y="269.91" width="2262.27" height="326.46" style="fill:#FFFFFF"/>
	<rect x="1338.39" y="272.79" width="2256.51" height="320.70" style="fill:none;stroke:#EAF2F3;stroke-width:5.76"/>
	<line x1="1378.70" y1="363.09" x2="1753.04" y2="363.09" style="stroke:#1A476F;stroke-width:8.64"/>
	<line x1="2859.49" y1="363.09" x2="3233.84" y2="363.09" style="stroke:#90353B;stroke-width:8.64"/>
	<line x1="1378.70" y1="503.06" x2="1753.04" y2="503.06" style="stroke:#55752F;stroke-width:8.64"/>
	<text x="1813.06" y="384.13" style="font-family:'Helvetica';font-size:60.02px;fill:#000000">Non-current exposure to NSAIDs</text>
	<text x="3293.85" y="384.13" style="font-family:'Helvetica';font-size:60.02px;fill:#000000">Ibuprofen</text>
	<text x="1813.06" y="524.10" style="font-family:'Helvetica';font-size:60.02px;fill:#000000">Other NSAIDs</text>
	<text x="1746.24" y="187.99" style="font-family:'Helvetica';font-size:99.99px;fill:#1E2D53">Time to death, nsaid population</text>
</svg>
