<?xml version="1.0" encoding="UTF-8" standalone="no"?>
<!-- This is a Stata 16.1 generated SVG file (http://www.stata.com) -->

<svg version="1.1" width="5.50in" height="4.00in" viewBox="0 0 3960 2880" xmlns="http://www.w3.org/2000/svg" xmlns:xlink="http://www.w3.org/1999/xlink">
	<desc>Stata Graph - Graph</desc>
	<rect x="0" y="0" width="3960" height="2880" style="fill:#EAF2F3;stroke:none"/>
	<rect x="0.00" y="0.00" width="3959.88" height="2880.00" style="fill:#FFFFFF"/>
	<rect x="2.88" y="2.88" width="3954.12" height="2874.24" style="fill:none;stroke:#EAF2F3;stroke-width:5.76"/>
	<rect x="1064.74" y="490.93" width="2776.58" height="1818.32" style="fill:#FFFFFF"/>
	<rect x="1067.62" y="493.81" width="2770.82" height="1812.56" style="fill:none;stroke:#FFFFFF;stroke-width:5.76"/>
	<line x1="1064.74" y1="2245.89" x2="3841.32" y2="2245.89" style="stroke:#EAF2F3;stroke-width:8.64"/>
	<line x1="1064.74" y1="1400.03" x2="3841.32" y2="1400.03" style="stroke:#EAF2F3;stroke-width:8.64"/>
	<line x1="1064.74" y1="554.29" x2="3841.32" y2="554.29" style="stroke:#EAF2F3;stroke-width:8.64"/>
	<path d=" M1127.98 2246.01 L1127.98 2246.01 L1127.98 2246.01 L1152.11 2246.01 L1152.11 2246.01 L1176.24 2246.01 L1176.24 2246.01 L1200.25 2246.01 L1200.25 2246.01 L1224.38 2246.01 L1224.38 2246.01 L1248.51 2246.01 L1248.51 2246.01 L1272.52 2246.01 L1272.52 2246.01 L1296.65 2246.01 L1296.65 2246.01 L1320.78 2246.01 L1320.78 2246.01 L1344.79 2246.01 L1344.79 2246.01 L1368.92 2246.01 L1368.92 2246.01 L1393.05 2246.01 L1393.05 2246.01 L1417.06 2246.01 L1417.06 2246.01 L1441.19 2246.01 L1441.19 2246.01 L1465.32 2246.01 L1465.32 2246.01 L1489.33 2246.01 L1489.33 2245.02 L1513.46 2245.02 L1513.46 2243.29 L1537.59 2243.29 L1537.59 2243.29 L1561.60 2243.29 L1561.60 2242.42 L1585.73 2242.42 L1585.73 2242.42 L1609.86 2242.42 L1609.86 2241.55 L1633.87 2241.55 L1633.87 2239.70 L1658.00 2239.70 L1658.00 2236.11 L1682.13 2236.11 L1682.13 2233.51 L1706.14 2233.51 L1706.14 2227.20 L1730.27 2227.20 L1730.27 2222.74 L1754.40 2222.74 L1754.40 2217.42 L1778.41 2217.42 L1778.41 2212.97 L1802.54 2212.97 L1802.54 2205.79 L1826.67 2205.79 L1826.67 2199.48 L1850.68 2199.48 L1850.68 2191.43 L1874.81 2191.43 L1874.81 2185.99 L1898.94 2185.99 L1898.94 2179.80 L1922.95 2179.80 L1922.95 2169.03 L1947.08 2169.03 L1947.08 2156.41 L1971.21 2156.41 L1971.21 2143.91 L1995.22 2143.91 L1995.22 2136.73 L2019.35 2136.73 L2019.35 2121.39 L2043.48 2121.39 L2043.48 2103.44 L2067.49 2103.44 L2067.49 2084.63 L2091.62 2084.63 L2091.62 2070.15 L2115.75 2070.15 L2115.75 2058.52 L2139.76 2058.52 L2139.76 2048.62 L2163.89 2048.62 L2163.89 2034.14 L2188.02 2034.14 L2188.02 2025.23 L2212.03 2025.23 L2212.03 2009.02 L2236.16 2009.02 L2236.16 1999.00 L2260.29 1999.00 L2260.29 1979.20 L2284.30 1979.20 L2284.30 1970.16 L2308.43 1970.16 L2308.43 1958.40 L2332.56 1958.40 L2332.56 1945.78 L2356.57 1945.78 L2356.57 1930.44 L2380.70 1930.44 L2380.70 1920.54 L2404.83 1920.54 L2404.83 1906.92 L2428.84 1906.92 L2428.84 1897.89 L2452.97 1897.89 L2452.97 1888.86 L2477.10 1888.86 L2477.10 1877.10 L2501.11 1877.10 L2501.11 1869.80 L2525.24 1869.80 L2525.24 1859.90 L2549.37 1859.90 L2549.37 1850.86 L2573.38 1850.86 L2573.38 1843.56 L2597.51 1843.56 L2597.51 1837.25 L2621.64 1837.25 L2621.64 1831.68 L2645.65 1831.68 L2645.65 1823.51 L2669.78 1823.51 L2669.78 1817.20 L2693.91 1817.20 L2693.91 1812.62 L2717.92 1812.62 L2717.92 1805.32 L2742.05 1805.32 L2742.05 1798.14 L2766.18 1798.14 L2766.18 1793.56 L2790.19 1793.56 L2790.19 1788.99 L2814.32 1788.99 L2814.32 1786.26 L2838.45 1786.26 L2838.45 1786.26 L2862.46 1786.26 L2862.46 1776.24 L2886.59 1776.24 L2886.59 1770.67 L2910.72 1770.67 L2910.72 1767.95 L2934.73 1767.95 L2934.73 1766.22 L2958.86 1766.22 L2958.86 1761.64 L2982.99 1761.64 L2982.99 1757.92 L3007.00 1757.92 L3007.00 1755.20 L3031.13 1755.20 L3031.13 1751.49 L3055.14 1751.49 L3055.14 1749.63 L3079.27 1749.63 L3079.27 1745.05 L3103.40 1745.05 L3103.40 1740.47 L3127.41 1740.47 L3127.41 1739.61 L3151.54 1739.61 L3151.54 1736.89 L3175.67 1736.89 L3175.67 1734.04 L3199.68 1734.04 L3199.68 1730.45 L3223.81 1730.45 L3223.81 1726.74 L3247.94 1726.74 L3247.94 1722.16 L3271.95 1722.16 L3271.95 1721.17 L3296.08 1721.17 L3296.08 1719.44 L3320.21 1719.44 L3320.21 1717.58 L3344.22 1717.58 L3344.22 1713.00 L3368.35 1713.00 L3368.35 1712.01 L3392.48 1712.01 L3392.48 1710.15 L3416.49 1710.15 L3416.49 1707.43 L3440.62 1707.43 L3440.62 1705.58 L3464.75 1705.58 L3464.75 1704.59 L3488.76 1704.59 L3488.76 1702.73 L3512.89 1702.73 L3512.89 1702.73 L3537.02 1702.73 L3537.02 1701.86 L3561.03 1701.86 L3561.03 1699.14 L3585.16 1699.14 L3585.16 1698.15 L3609.29 1698.15 L3609.29 1694.44 L3633.30 1694.44 L3633.30 1694.44 L3657.43 1694.44 L3657.43 1693.57" stroke-linejoin="round" style="fill:none;stroke:#1A476F;stroke-width:8.64"/>
	<path d=" M1127.98 2246.01 L1127.98 2246.01 L1127.98 2246.01 L1152.11 2246.01 L1152.11 2246.01 L1176.24 2246.01 L1176.24 2246.01 L1200.25 2246.01 L1200.25 2246.01 L1224.38 2246.01 L1224.38 2246.01 L1248.51 2246.01 L1248.51 2246.01 L1272.52 2246.01 L1272.52 2246.01 L1296.65 2246.01 L1296.65 2246.01 L1320.78 2246.01 L1320.78 2246.01 L1344.79 2246.01 L1344.79 2246.01 L1368.92 2246.01 L1368.92 2246.01 L1393.05 2246.01 L1393.05 2246.01 L1417.06 2246.01 L1417.06 2246.01 L1441.19 2246.01 L1441.19 2246.01 L1465.32 2246.01 L1465.32 2246.01 L1489.33 2246.01 L1489.33 2246.01 L1513.46 2246.01 L1513.46 2246.01 L1537.59 2246.01 L1537.59 2246.01 L1561.60 2246.01 L1561.60 2246.01 L1585.73 2246.01 L1585.73 2246.01 L1609.86 2246.01 L1609.86 2246.01 L1633.87 2246.01 L1633.87 2242.79 L1658.00 2242.79 L1658.00 2239.57 L1682.13 2239.57 L1682.13 2233.26 L1706.14 2233.26 L1706.14 2230.17 L1730.27 2230.17 L1730.27 2226.95 L1754.40 2226.95 L1754.40 2217.55 L1778.41 2217.55 L1778.41 2217.55 L1802.54 2217.55 L1802.54 2211.23 L1826.67 2211.23 L1826.67 2192.18 L1850.68 2192.18 L1850.68 2182.77 L1874.81 2182.77 L1874.81 2157.40 L1898.94 2157.40 L1898.94 2151.09 L1922.95 2151.09 L1922.95 2129.06 L1947.08 2129.06 L1947.08 2119.53 L1971.21 2119.53 L1971.21 2103.69 L1995.22 2103.69 L1995.22 2094.29 L2019.35 2094.29 L2019.35 2075.23 L2043.48 2075.23 L2043.48 2049.98 L2067.49 2049.98 L2067.49 2011.99 L2091.62 2011.99 L2091.62 1993.06 L2115.75 1993.06 L2115.75 1974.12 L2139.76 1974.12 L2139.76 1951.97 L2163.89 1951.97 L2163.89 1933.04 L2188.02 1933.04 L2188.02 1917.19 L2212.03 1917.19 L2212.03 1907.67 L2236.16 1907.67 L2236.16 1891.83 L2260.29 1891.83 L2260.29 1882.42 L2284.30 1882.42 L2284.30 1869.80 L2308.43 1869.80 L2308.43 1857.05 L2332.56 1857.05 L2332.56 1841.33 L2356.57 1841.33 L2356.57 1825.49 L2380.70 1825.49 L2380.70 1819.18 L2404.83 1819.18 L2404.83 1803.34 L2428.84 1803.34 L2428.84 1790.72 L2452.97 1790.72 L2452.97 1781.19 L2477.10 1781.19 L2477.10 1771.66 L2501.11 1771.66 L2501.11 1743.20 L2525.24 1743.20 L2525.24 1727.48 L2549.37 1727.48 L2549.37 1721.17 L2573.38 1721.17 L2573.38 1711.64 L2597.51 1711.64 L2597.51 1702.11 L2621.64 1702.11 L2621.64 1699.02 L2645.65 1699.02 L2645.65 1695.80 L2669.78 1695.80 L2669.78 1686.27 L2693.91 1686.27 L2693.91 1673.65 L2717.92 1673.65 L2717.92 1670.55 L2742.05 1670.55 L2742.05 1667.34 L2766.18 1667.34 L2766.18 1667.34 L2790.19 1667.34 L2790.19 1657.81 L2814.32 1657.81 L2814.32 1657.81 L2838.45 1657.81 L2838.45 1657.81 L2862.46 1657.81 L2862.46 1648.40 L2886.59 1648.40 L2886.59 1645.18 L2910.72 1645.18 L2910.72 1642.09 L2934.73 1642.09 L2934.73 1642.09 L2958.86 1642.09 L2958.86 1638.87 L2982.99 1638.87 L2982.99 1635.65 L3007.00 1635.65 L3007.00 1629.34 L3031.13 1629.34 L3031.13 1626.25 L3055.14 1626.25 L3055.14 1619.94 L3079.27 1619.94 L3079.27 1613.50 L3103.40 1613.50 L3103.40 1613.50 L3127.41 1613.50 L3127.41 1613.50 L3151.54 1613.50 L3151.54 1613.50 L3175.67 1613.50 L3175.67 1604.10 L3199.68 1604.10 L3199.68 1597.79 L3223.81 1597.79 L3223.81 1597.79 L3247.94 1597.79 L3247.94 1597.79 L3271.95 1597.79 L3271.95 1591.35 L3296.08 1591.35 L3296.08 1588.26 L3320.21 1588.26 L3320.21 1588.26 L3344.22 1588.26 L3344.22 1585.04 L3368.35 1585.04 L3368.35 1585.04 L3392.48 1585.04 L3392.48 1578.73 L3416.49 1578.73 L3416.49 1578.73 L3440.62 1578.73 L3440.62 1575.63 L3464.75 1575.63 L3464.75 1569.20 L3488.76 1569.20 L3488.76 1569.20 L3512.89 1569.20 L3512.89 1569.20 L3537.02 1569.20 L3537.02 1569.20 L3561.03 1569.20 L3561.03 1569.20 L3585.16 1569.20 L3585.16 1569.20 L3609.29 1569.20 L3609.29 1559.79 L3633.30 1559.79 L3633.30 1559.79 L3657.43 1559.79 L3657.43 1556.58" stroke-linejoin="round" style="fill:none;stroke:#90353B;stroke-width:8.64"/>
	<line x1="1064.74" y1="2309.25" x2="1064.74" y2="490.93" style="stroke:#000000;stroke-width:5.76"/>
	<line x1="1064.74" y1="2245.89" x2="1024.77" y2="2245.89" style="stroke:#000000;stroke-width:5.76"/>
	<text x="1004.73" y="2273.90" style="font-family:'Helvetica';font-size:79.94px;fill:#000000" text-anchor="end">0.0000</text>
	<line x1="1064.74" y1="1400.03" x2="1024.77" y2="1400.03" style="stroke:#000000;stroke-width:5.76"/>
	<text x="1004.73" y="1428.04" style="font-family:'Helvetica';font-size:79.94px;fill:#000000" text-anchor="end">0.0005</text>
	<line x1="1064.74" y1="554.29" x2="1024.77" y2="554.29" style="stroke:#000000;stroke-width:5.76"/>
	<text x="1004.73" y="582.31" style="font-family:'Helvetica';font-size:79.94px;fill:#000000" text-anchor="end">0.0010</text>
	<text x="1128.11" y="2747.83" style="font-family:'Helvetica';font-size:60.02px;fill:#000000" text-anchor="middle">535519</text>
	<text x="1609.86" y="2747.83" style="font-family:'Helvetica';font-size:60.02px;fill:#000000" text-anchor="middle">535298</text>
	<text x="2091.62" y="2747.83" style="font-family:'Helvetica';font-size:60.02px;fill:#000000" text-anchor="middle">534977</text>
	<text x="2573.51" y="2747.83" style="font-family:'Helvetica';font-size:60.02px;fill:#000000" text-anchor="middle">534681</text>
	<text x="3055.26" y="2747.83" style="font-family:'Helvetica';font-size:60.02px;fill:#000000" text-anchor="middle">534499</text>
	<text x="3537.02" y="2747.83" style="font-family:'Helvetica';font-size:60.02px;fill:#000000" text-anchor="middle">534301</text>
	<text x="995.57" y="2747.83" style="font-family:'Helvetica';font-size:60.02px;fill:#000000" text-anchor="end">Current exposure to NSAIDs</text>
	<text x="1128.11" y="2674.44" style="font-family:'Helvetica';font-size:60.02px;fill:#000000" text-anchor="middle">1924095</text>
	<text x="1609.86" y="2674.44" style="font-family:'Helvetica';font-size:60.02px;fill:#000000" text-anchor="middle">1896129</text>
	<text x="2091.62" y="2674.44" style="font-family:'Helvetica';font-size:60.02px;fill:#000000" text-anchor="middle">1880304</text>
	<text x="2573.51" y="2674.44" style="font-family:'Helvetica';font-size:60.02px;fill:#000000" text-anchor="middle">1863680</text>
	<text x="3055.26" y="2674.44" style="font-family:'Helvetica';font-size:60.02px;fill:#000000" text-anchor="middle">1845915</text>
	<text x="3537.02" y="2674.44" style="font-family:'Helvetica';font-size:60.02px;fill:#000000" text-anchor="middle">1828962</text>
	<text x="995.57" y="2674.44" style="font-family:'Helvetica';font-size:60.02px;fill:#000000" text-anchor="end">Non-current exposure to NSAIDs</text>
	<text x="995.57" y="2601.18" style="font-family:'Helvetica';font-size:60.02px;fill:#000000" text-anchor="end">Number at risk</text>
	<line x1="1064.74" y1="2309.25" x2="3841.32" y2="2309.25" style="stroke:#000000;stroke-width:5.76"/>
	<line x1="1128.11" y1="2309.25" x2="1128.11" y2="2349.22" style="stroke:#000000;stroke-width:5.76"/>
	<text x="1128.11" y="2425.17" style="font-family:'Helvetica';font-size:79.94px;fill:#000000" text-anchor="middle">0</text>
	<line x1="1609.86" y1="2309.25" x2="1609.86" y2="2349.22" style="stroke:#000000;stroke-width:5.76"/>
	<text x="1609.86" y="2425.17" style="font-family:'Helvetica';font-size:79.94px;fill:#000000" text-anchor="middle">20</text>
	<line x1="2091.62" y1="2309.25" x2="2091.62" y2="2349.22" style="stroke:#000000;stroke-width:5.76"/>
	<text x="2091.62" y="2425.17" style="font-family:'Helvetica';font-size:79.94px;fill:#000000" text-anchor="middle">40</text>
	<line x1="2573.51" y1="2309.25" x2="2573.51" y2="2349.22" style="stroke:#000000;stroke-width:5.76"/>
	<text x="2573.51" y="2425.17" style="font-family:'Helvetica';font-size:79.94px;fill:#000000" text-anchor="middle">60</text>
	<line x1="3055.26" y1="2309.25" x2="3055.26" y2="2349.22" style="stroke:#000000;stroke-width:5.76"/>
	<text x="3055.26" y="2425.17" style="font-family:'Helvetica';font-size:79.94px;fill:#000000" text-anchor="middle">80</text>
	<line x1="3537.02" y1="2309.25" x2="3537.02" y2="2349.22" style="stroke:#000000;stroke-width:5.76"/>
	<text x="3537.02" y="2425.17" style="font-family:'Helvetica';font-size:79.94px;fill:#000000" text-anchor="middle">100</text>
	<text x="2452.97" y="2515.14" style="font-family:'Helvetica';font-size:79.94px;fill:#000000" text-anchor="middle">Days since 1 Mar 2020</text>
	<rect x="1099.27" y="269.91" width="2707.53" height="186.37" style="fill:#FFFFFF"/>
	<rect x="1102.15" y="272.79" width="2701.77" height="180.61" style="fill:none;stroke:#EAF2F3;stroke-width:5.76"/>
	<line x1="1142.46" y1="363.09" x2="1505.79" y2="363.09" style="stroke:#90353B;stroke-width:8.64"/>
	<line x1="2462.38" y1="363.09" x2="2825.71" y2="363.09" style="stroke:#1A476F;stroke-width:8.64"/>
	<text x="1564.08" y="384.13" style="font-family:'Helvetica';font-size:60.02px;fill:#000000">Current exposure to NSAIDs</text>
	<text x="2883.87" y="384.13" style="font-family:'Helvetica';font-size:60.02px;fill:#000000">Non-current exposure to NSAIDs</text>
	<text x="1732.62" y="187.99" style="font-family:'Helvetica';font-size:99.99px;fill:#1E2D53">Time to death, nsaid population</text>
</svg>
