<?xml version="1.0" encoding="UTF-8" standalone="no"?>
<!-- This is a Stata 16.1 generated SVG file (http://www.stata.com) -->

<svg version="1.1" width="5.50in" height="4.00in" viewBox="0 0 3960 2880" xmlns="http://www.w3.org/2000/svg" xmlns:xlink="http://www.w3.org/1999/xlink">
	<desc>Stata Graph - Graph</desc>
	<rect x="0" y="0" width="3960" height="2880" style="fill:#EAF2F3;stroke:none"/>
	<rect x="0.00" y="0.00" width="3959.88" height="2880.00" style="fill:#FFFFFF"/>
	<rect x="2.88" y="2.88" width="3954.12" height="2874.24" style="fill:none;stroke:#EAF2F3;stroke-width:5.76"/>
	<rect x="1092.46" y="630.90" width="2748.36" height="1604.96" style="fill:#FFFFFF"/>
	<rect x="1095.34" y="633.78" width="2742.60" height="1599.20" style="fill:none;stroke:#FFFFFF;stroke-width:5.76"/>
	<line x1="1092.46" y1="2172.62" x2="3840.83" y2="2172.62" style="stroke:#EAF2F3;stroke-width:8.64"/>
	<line x1="1092.46" y1="1433.44" x2="3840.83" y2="1433.44" style="stroke:#EAF2F3;stroke-width:8.64"/>
	<line x1="1092.46" y1="694.26" x2="3840.83" y2="694.26" style="stroke:#EAF2F3;stroke-width:8.64"/>
	<path d=" M1155.83 2172.62 L1155.83 2172.62 L1155.83 2172.62 L1155.83 2172.62 L1155.83 2172.62 L1179.59 2172.62 L1179.59 2172.62 L1203.47 2172.62 L1203.47 2172.62 L1227.23 2172.62 L1227.23 2172.62 L1251.11 2172.62 L1251.11 2172.62 L1275.00 2172.62 L1275.00 2172.62 L1298.76 2172.62 L1298.76 2172.62 L1322.64 2172.62 L1322.64 2172.62 L1346.40 2172.62 L1346.40 2172.62 L1370.28 2172.62 L1370.28 2172.62 L1394.04 2172.62 L1394.04 2172.62 L1417.93 2172.62 L1417.93 2172.62 L1441.81 2172.62 L1441.81 2172.62 L1465.57 2172.62 L1465.57 2172.62 L1489.45 2172.62 L1489.45 2172.62 L1513.21 2172.62 L1513.21 2171.88 L1537.10 2171.88 L1537.10 2170.27 L1560.98 2170.27 L1560.98 2170.27 L1584.74 2170.27 L1584.74 2169.53 L1608.63 2169.53 L1608.63 2169.53 L1632.39 2169.53 L1632.39 2168.79 L1656.27 2168.79 L1656.27 2167.18 L1680.15 2167.18 L1680.15 2164.08 L1703.91 2164.08 L1703.91 2161.73 L1727.80 2161.73 L1727.80 2156.29 L1751.56 2156.29 L1751.56 2152.33 L1775.44 2152.33 L1775.44 2147.62 L1799.20 2147.62 L1799.20 2143.79 L1823.09 2143.79 L1823.09 2137.48 L1846.97 2137.48 L1846.97 2132.03 L1870.73 2132.03 L1870.73 2124.98 L1894.61 2124.98 L1894.61 2120.28 L1918.37 2120.28 L1918.37 2114.83 L1942.26 2114.83 L1942.26 2105.42 L1966.14 2105.42 L1966.14 2094.41 L1989.90 2094.41 L1989.90 2083.40 L2013.78 2083.40 L2013.78 2077.08 L2037.54 2077.08 L2037.54 2063.84 L2061.43 2063.84 L2061.43 2048.13 L2085.31 2048.13 L2085.31 2031.54 L2109.07 2031.54 L2109.07 2019.04 L2132.95 2019.04 L2132.95 2008.77 L2156.72 2008.77 L2156.72 2000.11 L2180.60 2000.11 L2180.60 1987.61 L2204.36 1987.61 L2204.36 1979.69 L2228.24 1979.69 L2228.24 1965.58 L2252.13 1965.58 L2252.13 1956.92 L2275.89 1956.92 L2275.89 1939.47 L2299.77 1939.47 L2299.77 1931.67 L2323.53 1931.67 L2323.53 1921.40 L2347.41 1921.40 L2347.41 1910.39 L2371.30 1910.39 L2371.30 1896.90 L2395.06 1896.90 L2395.06 1888.24 L2418.94 1888.24 L2418.94 1876.36 L2442.70 1876.36 L2442.70 1868.44 L2466.59 1868.44 L2466.59 1860.52 L2490.34 1860.52 L2490.34 1850.24 L2514.23 1850.24 L2514.23 1843.93 L2538.11 1843.93 L2538.11 1835.27 L2561.87 1835.27 L2561.87 1827.35 L2585.76 1827.35 L2585.76 1820.91 L2609.52 1820.91 L2609.52 1815.35 L2633.40 1815.35 L2633.40 1810.64 L2657.28 1810.64 L2657.28 1803.47 L2681.04 1803.47 L2681.04 1797.90 L2704.93 1797.90 L2704.93 1793.94 L2728.69 1793.94 L2728.69 1787.62 L2752.57 1787.62 L2752.57 1781.19 L2776.45 1781.19 L2776.45 1777.23 L2800.22 1777.23 L2800.22 1773.27 L2824.10 1773.27 L2824.10 1770.92 L2847.86 1770.92 L2847.86 1770.92 L2871.74 1770.92 L2871.74 1762.13 L2895.50 1762.13 L2895.50 1757.30 L2919.39 1757.30 L2919.39 1754.95 L2943.27 1754.95 L2943.27 1753.34 L2967.03 1753.34 L2967.03 1749.38 L2990.91 1749.38 L2990.91 1746.17 L3014.67 1746.17 L3014.67 1743.69 L3038.56 1743.69 L3038.56 1740.60 L3062.44 1740.60 L3062.44 1738.99 L3086.20 1738.99 L3086.20 1734.91 L3110.09 1734.91 L3110.09 1730.95 L3133.84 1730.95 L3133.84 1730.08 L3157.73 1730.08 L3157.73 1727.73 L3181.61 1727.73 L3181.61 1725.25 L3205.37 1725.25 L3205.37 1722.16 L3229.26 1722.16 L3229.26 1718.94 L3253.02 1718.94 L3253.02 1714.86 L3276.90 1714.86 L3276.90 1714.11 L3300.66 1714.11 L3300.66 1712.51 L3324.54 1712.51 L3324.54 1710.90 L3348.43 1710.90 L3348.43 1706.81 L3372.19 1706.81 L3372.19 1706.07 L3396.07 1706.07 L3396.07 1704.46 L3419.83 1704.46 L3419.83 1701.99 L3443.72 1701.99 L3443.72 1700.38 L3467.60 1700.38 L3467.60 1699.51 L3491.36 1699.51 L3491.36 1697.90 L3515.24 1697.90 L3515.24 1697.90 L3539.00 1697.90 L3539.00 1697.16 L3562.89 1697.16 L3562.89 1694.69 L3586.77 1694.69 L3586.77 1693.94 L3610.53 1693.94 L3610.53 1690.73 L3634.41 1690.73 L3634.41 1690.73 L3658.17 1690.73 L3658.17 1689.86" stroke-linejoin="round" style="fill:none;stroke:#1A476F;stroke-width:8.64"/>
	<path d=" M1155.83 2172.62 L1155.83 2172.62 L1155.83 2172.62 L1155.83 2172.62 L1155.83 2172.62 L1251.11 2172.62 L1251.11 2172.62 L1346.40 2172.62 L1346.40 2172.62 L1370.28 2172.62 L1370.28 2172.62 L1441.81 2172.62 L1441.81 2172.62 L1465.57 2172.62 L1465.57 2172.62 L1513.21 2172.62 L1513.21 2172.62 L1537.10 2172.62 L1537.10 2172.62 L1560.98 2172.62 L1560.98 2172.62 L1632.39 2172.62 L1632.39 2172.62 L1656.27 2172.62 L1656.27 2172.62 L1680.15 2172.62 L1680.15 2172.62 L1703.91 2172.62 L1703.91 2172.62 L1727.80 2172.62 L1727.80 2172.62 L1751.56 2172.62 L1751.56 2172.62 L1799.20 2172.62 L1799.20 2172.62 L1870.73 2172.62 L1870.73 2172.62 L1894.61 2172.62 L1894.61 2172.62 L1918.37 2172.62 L1918.37 2172.62 L1942.26 2172.62 L1942.26 2112.85 L1966.14 2112.85 L1966.14 2112.85 L1989.90 2112.85 L1989.90 2112.85 L2061.43 2112.85 L2061.43 2112.85 L2085.31 2112.85 L2085.31 2112.85 L2109.07 2112.85 L2109.07 2112.85 L2132.95 2112.85 L2132.95 2052.95 L2204.36 2052.95 L2204.36 2052.95 L2299.77 2052.95 L2299.77 1993.18 L2371.30 1993.18 L2371.30 1993.18 L2395.06 1993.18 L2395.06 1993.18 L2418.94 1993.18 L2418.94 1993.18 L2466.59 1993.18 L2466.59 1933.28 L2490.34 1933.28 L2490.34 1873.51 L2514.23 1873.51 L2514.23 1873.51 L2561.87 1873.51 L2561.87 1813.61 L2585.76 1813.61 L2585.76 1753.72 L2633.40 1753.72 L2633.40 1753.72 L2704.93 1753.72 L2704.93 1753.72 L2728.69 1753.72 L2728.69 1753.72 L2776.45 1753.72 L2776.45 1753.72 L2847.86 1753.72 L2847.86 1753.72 L2967.03 1753.72 L2967.03 1693.94 L2990.91 1693.94 L2990.91 1693.94 L3014.67 1693.94 L3014.67 1693.94 L3110.09 1693.94 L3110.09 1693.94 L3133.84 1693.94 L3133.84 1693.94 L3157.73 1693.94 L3157.73 1693.94 L3229.26 1693.94 L3229.26 1693.94 L3253.02 1693.94 L3253.02 1693.94 L3300.66 1693.94 L3300.66 1693.94 L3419.83 1693.94 L3419.83 1693.94 L3443.72 1693.94 L3443.72 1693.94 L3467.60 1693.94 L3467.60 1693.94 L3515.24 1693.94 L3515.24 1693.94 L3610.53 1693.94 L3610.53 1634.05 L3658.17 1634.05 L3658.17 1634.05" stroke-linejoin="round" style="fill:none;stroke:#90353B;stroke-width:8.64"/>
	<path d=" M1155.83 2172.62 L1155.83 2172.62 L1155.83 2172.62 L1155.83 2172.62 L1155.83 2172.62 L1179.59 2172.62 L1179.59 2172.62 L1203.47 2172.62 L1203.47 2172.62 L1227.23 2172.62 L1227.23 2172.62 L1251.11 2172.62 L1251.11 2172.62 L1275.00 2172.62 L1275.00 2172.62 L1298.76 2172.62 L1298.76 2172.62 L1322.64 2172.62 L1322.64 2172.62 L1346.40 2172.62 L1346.40 2172.62 L1370.28 2172.62 L1370.28 2172.62 L1394.04 2172.62 L1394.04 2172.62 L1417.93 2172.62 L1417.93 2172.62 L1441.81 2172.62 L1441.81 2172.62 L1465.57 2172.62 L1465.57 2172.62 L1489.45 2172.62 L1489.45 2172.62 L1513.21 2172.62 L1513.21 2172.62 L1537.10 2172.62 L1537.10 2172.62 L1560.98 2172.62 L1560.98 2172.62 L1584.74 2172.62 L1584.74 2172.62 L1608.63 2172.62 L1608.63 2172.62 L1632.39 2172.62 L1632.39 2172.62 L1656.27 2172.62 L1656.27 2169.78 L1680.15 2169.78 L1680.15 2166.81 L1703.91 2166.81 L1703.91 2160.99 L1727.80 2160.99 L1727.80 2158.14 L1751.56 2158.14 L1751.56 2155.30 L1775.44 2155.30 L1775.44 2146.51 L1799.20 2146.51 L1799.20 2146.51 L1823.09 2146.51 L1823.09 2140.82 L1846.97 2140.82 L1846.97 2123.37 L1870.73 2123.37 L1870.73 2114.71 L1894.61 2114.71 L1894.61 2091.56 L1918.37 2091.56 L1918.37 2085.75 L1942.26 2085.75 L1942.26 2068.42 L1966.14 2068.42 L1966.14 2059.64 L1989.90 2059.64 L1989.90 2045.16 L2013.78 2045.16 L2013.78 2036.49 L2037.54 2036.49 L2037.54 2019.17 L2061.43 2019.17 L2061.43 1995.90 L2085.31 1995.90 L2085.31 1961.25 L2109.07 1961.25 L2109.07 1943.80 L2132.95 1943.80 L2132.95 1929.32 L2156.72 1929.32 L2156.72 1909.03 L2180.60 1909.03 L2180.60 1891.70 L2204.36 1891.70 L2204.36 1877.22 L2228.24 1877.22 L2228.24 1868.44 L2252.13 1868.44 L2252.13 1853.96 L2275.89 1853.96 L2275.89 1845.29 L2299.77 1845.29 L2299.77 1836.63 L2323.53 1836.63 L2323.53 1825.00 L2347.41 1825.00 L2347.41 1810.52 L2371.30 1810.52 L2371.30 1796.04 L2395.06 1796.04 L2395.06 1790.22 L2418.94 1790.22 L2418.94 1775.74 L2442.70 1775.74 L2442.70 1764.24 L2466.59 1764.24 L2466.59 1758.42 L2490.34 1758.42 L2490.34 1752.60 L2514.23 1752.60 L2514.23 1726.49 L2538.11 1726.49 L2538.11 1712.01 L2561.87 1712.01 L2561.87 1709.16 L2585.76 1709.16 L2585.76 1703.35 L2609.52 1703.35 L2609.52 1694.69 L2633.40 1694.69 L2633.40 1691.72 L2657.28 1691.72 L2657.28 1688.87 L2681.04 1688.87 L2681.04 1680.21 L2704.93 1680.21 L2704.93 1668.57 L2728.69 1668.57 L2728.69 1665.60 L2752.57 1665.60 L2752.57 1662.76 L2776.45 1662.76 L2776.45 1662.76 L2800.22 1662.76 L2800.22 1654.09 L2824.10 1654.09 L2824.10 1654.09 L2847.86 1654.09 L2847.86 1654.09 L2871.74 1654.09 L2871.74 1645.43 L2895.50 1645.43 L2895.50 1642.46 L2919.39 1642.46 L2919.39 1639.61 L2943.27 1639.61 L2943.27 1639.61 L2967.03 1639.61 L2967.03 1639.61 L2990.91 1639.61 L2990.91 1636.64 L3014.67 1636.64 L3014.67 1630.83 L3038.56 1630.83 L3038.56 1627.98 L3062.44 1627.98 L3062.44 1622.17 L3086.20 1622.17 L3086.20 1616.35 L3110.09 1616.35 L3110.09 1616.35 L3133.84 1616.35 L3133.84 1616.35 L3157.73 1616.35 L3157.73 1616.35 L3181.61 1616.35 L3181.61 1607.69 L3205.37 1607.69 L3205.37 1601.87 L3229.26 1601.87 L3229.26 1601.87 L3253.02 1601.87 L3253.02 1601.87 L3276.90 1601.87 L3276.90 1596.05 L3300.66 1596.05 L3300.66 1593.21 L3324.54 1593.21 L3324.54 1593.21 L3348.43 1593.21 L3348.43 1590.36 L3372.19 1590.36 L3372.19 1590.36 L3396.07 1590.36 L3396.07 1584.54 L3419.83 1584.54 L3419.83 1584.54 L3443.72 1584.54 L3443.72 1581.57 L3467.60 1581.57 L3467.60 1575.76 L3491.36 1575.76 L3491.36 1575.76 L3515.24 1575.76 L3515.24 1575.76 L3539.00 1575.76 L3539.00 1575.76 L3562.89 1575.76 L3562.89 1575.76 L3586.77 1575.76 L3586.77 1575.76 L3610.53 1575.76 L3610.53 1569.94 L3634.41 1569.94 L3634.41 1569.94 L3658.17 1569.94 L3658.17 1567.10" stroke-linejoin="round" style="fill:none;stroke:#55752F;stroke-width:8.64"/>
	<line x1="1092.46" y1="2235.86" x2="1092.46" y2="630.90" style="stroke:#000000;stroke-width:5.76"/>
	<line x1="1092.46" y1="2172.62" x2="1052.49" y2="2172.62" style="stroke:#000000;stroke-width:5.76"/>
	<text x="1032.45" y="2200.63" style="font-family:'Helvetica';font-size:79.94px;fill:#000000" text-anchor="end">0.0000</text>
	<line x1="1092.46" y1="1433.44" x2="1052.49" y2="1433.44" style="stroke:#000000;stroke-width:5.76"/>
	<text x="1032.45" y="1461.45" style="font-family:'Helvetica';font-size:79.94px;fill:#000000" text-anchor="end">0.0005</text>
	<line x1="1092.46" y1="694.26" x2="1052.49" y2="694.26" style="stroke:#000000;stroke-width:5.76"/>
	<text x="1032.45" y="722.27" style="font-family:'Helvetica';font-size:79.94px;fill:#000000" text-anchor="end">0.0010</text>
	<text x="1155.83" y="2747.83" style="font-family:'Helvetica';font-size:60.02px;fill:#000000" text-anchor="middle">510768</text>
	<text x="1632.51" y="2747.83" style="font-family:'Helvetica';font-size:60.02px;fill:#000000" text-anchor="middle">510559</text>
	<text x="2109.20" y="2747.83" style="font-family:'Helvetica';font-size:60.02px;fill:#000000" text-anchor="middle">510266</text>
	<text x="2585.76" y="2747.83" style="font-family:'Helvetica';font-size:60.02px;fill:#000000" text-anchor="middle">509989</text>
	<text x="3062.44" y="2747.83" style="font-family:'Helvetica';font-size:60.02px;fill:#000000" text-anchor="middle">509819</text>
	<text x="3539.13" y="2747.83" style="font-family:'Helvetica';font-size:60.02px;fill:#000000" text-anchor="middle">509633</text>
	<text x="1024.77" y="2747.83" style="font-family:'Helvetica';font-size:60.02px;fill:#000000" text-anchor="end">Other specific NSAIDs</text>
	<text x="1155.83" y="2674.44" style="font-family:'Helvetica';font-size:60.02px;fill:#000000" text-anchor="middle">24751</text>
	<text x="1632.51" y="2674.44" style="font-family:'Helvetica';font-size:60.02px;fill:#000000" text-anchor="middle">24739</text>
	<text x="2109.20" y="2674.44" style="font-family:'Helvetica';font-size:60.02px;fill:#000000" text-anchor="middle">24711</text>
	<text x="2585.76" y="2674.44" style="font-family:'Helvetica';font-size:60.02px;fill:#000000" text-anchor="middle">24692</text>
	<text x="3062.44" y="2674.44" style="font-family:'Helvetica';font-size:60.02px;fill:#000000" text-anchor="middle">24680</text>
	<text x="3539.13" y="2674.44" style="font-family:'Helvetica';font-size:60.02px;fill:#000000" text-anchor="middle">24668</text>
	<text x="1024.77" y="2674.44" style="font-family:'Helvetica';font-size:60.02px;fill:#000000" text-anchor="end">Cox-2 specific NSAIDs</text>
	<text x="1155.83" y="2601.18" style="font-family:'Helvetica';font-size:60.02px;fill:#000000" text-anchor="middle">1924095</text>
	<text x="1632.51" y="2601.18" style="font-family:'Helvetica';font-size:60.02px;fill:#000000" text-anchor="middle">1896129</text>
	<text x="2109.20" y="2601.18" style="font-family:'Helvetica';font-size:60.02px;fill:#000000" text-anchor="middle">1880304</text>
	<text x="2585.76" y="2601.18" style="font-family:'Helvetica';font-size:60.02px;fill:#000000" text-anchor="middle">1863680</text>
	<text x="3062.44" y="2601.18" style="font-family:'Helvetica';font-size:60.02px;fill:#000000" text-anchor="middle">1845915</text>
	<text x="3539.13" y="2601.18" style="font-family:'Helvetica';font-size:60.02px;fill:#000000" text-anchor="middle">1828962</text>
	<text x="1024.77" y="2601.18" style="font-family:'Helvetica';font-size:60.02px;fill:#000000" text-anchor="end">Non-current exposure to NSAIDs</text>
	<text x="1024.77" y="2527.80" style="font-family:'Helvetica';font-size:60.02px;fill:#000000" text-anchor="end">Number at risk</text>
	<line x1="1092.46" y1="2235.86" x2="3840.83" y2="2235.86" style="stroke:#000000;stroke-width:5.76"/>
	<line x1="1155.83" y1="2235.86" x2="1155.83" y2="2275.96" style="stroke:#000000;stroke-width:5.76"/>
	<text x="1155.83" y="2351.78" style="font-family:'Helvetica';font-size:79.94px;fill:#000000" text-anchor="middle">0</text>
	<line x1="1632.51" y1="2235.86" x2="1632.51" y2="2275.96" style="stroke:#000000;stroke-width:5.76"/>
	<text x="1632.51" y="2351.78" style="font-family:'Helvetica';font-size:79.94px;fill:#000000" text-anchor="middle">20</text>
	<line x1="2109.20" y1="2235.86" x2="2109.20" y2="2275.96" style="stroke:#000000;stroke-width:5.76"/>
	<text x="2109.20" y="2351.78" style="font-family:'Helvetica';font-size:79.94px;fill:#000000" text-anchor="middle">40</text>
	<line x1="2585.76" y1="2235.86" x2="2585.76" y2="2275.96" style="stroke:#000000;stroke-width:5.76"/>
	<text x="2585.76" y="2351.78" style="font-family:'Helvetica';font-size:79.94px;fill:#000000" text-anchor="middle">60</text>
	<line x1="3062.44" y1="2235.86" x2="3062.44" y2="2275.96" style="stroke:#000000;stroke-width:5.76"/>
	<text x="3062.44" y="2351.78" style="font-family:'Helvetica';font-size:79.94px;fill:#000000" text-anchor="middle">80</text>
	<line x1="3539.13" y1="2235.86" x2="3539.13" y2="2275.96" style="stroke:#000000;stroke-width:5.76"/>
	<text x="3539.13" y="2351.78" style="font-family:'Helvetica';font-size:79.94px;fill:#000000" text-anchor="middle">100</text>
	<text x="2466.59" y="2441.87" style="font-family:'Helvetica';font-size:79.94px;fill:#000000" text-anchor="middle">Days since 1 Mar 2020</text>
	<rect x="1152.61" y="269.91" width="2628.08" height="326.46" style="fill:#FFFFFF"/>
	<rect x="1155.49" y="272.79" width="2622.32" height="320.70" style="fill:none;stroke:#EAF2F3;stroke-width:5.76"/>
	<line x1="1195.80" y1="363.09" x2="1570.14" y2="363.09" style="stroke:#1A476F;stroke-width:8.64"/>
	<line x1="2676.59" y1="363.09" x2="3051.06" y2="363.09" style="stroke:#90353B;stroke-width:8.64"/>
	<line x1="1195.80" y1="503.06" x2="1570.14" y2="503.06" style="stroke:#55752F;stroke-width:8.64"/>
	<text x="1630.16" y="384.13" style="font-family:'Helvetica';font-size:60.02px;fill:#000000">Non-current exposure to NSAIDs</text>
	<text x="3110.95" y="384.13" style="font-family:'Helvetica';font-size:60.02px;fill:#000000">Cox-2 specific NSAIDs</text>
	<text x="1630.16" y="524.10" style="font-family:'Helvetica';font-size:60.02px;fill:#000000">Other specific NSAIDs</text>
	<text x="1746.24" y="187.99" style="font-family:'Helvetica';font-size:99.99px;fill:#1E2D53">Time to death, nsaid population</text>
</svg>
