<?xml version="1.0" encoding="UTF-8" standalone="no"?>
<!-- This is a Stata 16.1 generated SVG file (http://www.stata.com) -->

<svg version="1.1" width="5.50in" height="4.00in" viewBox="0 0 3960 2880" xmlns="http://www.w3.org/2000/svg" xmlns:xlink="http://www.w3.org/1999/xlink">
	<desc>Stata Graph - Graph</desc>
	<rect x="0" y="0" width="3960" height="2880" style="fill:#EAF2F3;stroke:none"/>
	<rect x="0.00" y="0.00" width="3959.88" height="2880.00" style="fill:#FFFFFF"/>
	<rect x="2.88" y="2.88" width="3954.12" height="2874.24" style="fill:none;stroke:#EAF2F3;stroke-width:5.76"/>
	<rect x="1064.74" y="490.93" width="2776.58" height="1818.32" style="fill:#FFFFFF"/>
	<rect x="1067.62" y="493.81" width="2770.82" height="1812.56" style="fill:none;stroke:#FFFFFF;stroke-width:5.76"/>
	<line x1="1064.74" y1="2245.89" x2="3841.32" y2="2245.89" style="stroke:#EAF2F3;stroke-width:8.64"/>
	<line x1="1064.74" y1="1907.54" x2="3841.32" y2="1907.54" style="stroke:#EAF2F3;stroke-width:8.64"/>
	<line x1="1064.74" y1="1569.20" x2="3841.32" y2="1569.20" style="stroke:#EAF2F3;stroke-width:8.64"/>
	<line x1="1064.74" y1="1230.86" x2="3841.32" y2="1230.86" style="stroke:#EAF2F3;stroke-width:8.64"/>
	<line x1="1064.74" y1="892.51" x2="3841.32" y2="892.51" style="stroke:#EAF2F3;stroke-width:8.64"/>
	<path d=" M1127.98 2246.01 L1127.98 2246.01 L1127.98 2246.01 L1152.11 2246.01 L1152.11 2246.01 L1176.24 2246.01 L1176.24 2246.01 L1200.25 2246.01 L1200.25 2246.01 L1224.38 2246.01 L1224.38 2246.01 L1248.51 2246.01 L1248.51 2246.01 L1272.52 2246.01 L1272.52 2246.01 L1296.65 2246.01 L1296.65 2246.01 L1320.78 2246.01 L1320.78 2246.01 L1344.79 2246.01 L1344.79 2246.01 L1368.92 2246.01 L1368.92 2246.01 L1393.05 2246.01 L1393.05 2246.01 L1417.06 2246.01 L1417.06 2246.01 L1441.19 2246.01 L1441.19 2246.01 L1465.32 2246.01 L1465.32 2246.01 L1489.33 2246.01 L1489.33 2245.76 L1513.46 2245.76 L1513.46 2245.39 L1537.59 2245.39 L1537.59 2245.39 L1561.60 2245.39 L1561.60 2245.27 L1585.73 2245.27 L1585.73 2245.27 L1609.86 2245.27 L1609.86 2245.02 L1633.87 2245.02 L1633.87 2244.65 L1658.00 2244.65 L1658.00 2244.03 L1682.13 2244.03 L1682.13 2243.41 L1706.14 2243.41 L1706.14 2242.17 L1730.27 2242.17 L1730.27 2241.31 L1754.40 2241.31 L1754.40 2240.19 L1778.41 2240.19 L1778.41 2239.33 L1802.54 2239.33 L1802.54 2237.96 L1826.67 2237.96 L1826.67 2236.60 L1850.68 2236.60 L1850.68 2234.99 L1874.81 2234.99 L1874.81 2234.00 L1898.94 2234.00 L1898.94 2232.77 L1922.95 2232.77 L1922.95 2230.54 L1947.08 2230.54 L1947.08 2228.06 L1971.21 2228.06 L1971.21 2225.59 L1995.22 2225.59 L1995.22 2224.10 L2019.35 2224.10 L2019.35 2221.01 L2043.48 2221.01 L2043.48 2217.42 L2067.49 2217.42 L2067.49 2213.71 L2091.62 2213.71 L2091.62 2210.74 L2115.75 2210.74 L2115.75 2208.51 L2139.76 2208.51 L2139.76 2206.53 L2163.89 2206.53 L2163.89 2203.56 L2188.02 2203.56 L2188.02 2201.83 L2212.03 2201.83 L2212.03 2198.61 L2236.16 2198.61 L2236.16 2196.63 L2260.29 2196.63 L2260.29 2192.55 L2284.30 2192.55 L2284.30 2190.81 L2308.43 2190.81 L2308.43 2188.46 L2332.56 2188.46 L2332.56 2185.99 L2356.57 2185.99 L2356.57 2182.89 L2380.70 2182.89 L2380.70 2180.91 L2404.83 2180.91 L2404.83 2178.19 L2428.84 2178.19 L2428.84 2176.34 L2452.97 2176.34 L2452.97 2174.48 L2477.10 2174.48 L2477.10 2172.13 L2501.11 2172.13 L2501.11 2170.77 L2525.24 2170.77 L2525.24 2168.79 L2549.37 2168.79 L2549.37 2166.93 L2573.38 2166.93 L2573.38 2165.45 L2597.51 2165.45 L2597.51 2164.21 L2621.64 2164.21 L2621.64 2163.09 L2645.65 2163.09 L2645.65 2161.49 L2669.78 2161.49 L2669.78 2160.25 L2693.91 2160.25 L2693.91 2159.26 L2717.92 2159.26 L2717.92 2157.90 L2742.05 2157.90 L2742.05 2156.41 L2766.18 2156.41 L2766.18 2155.42 L2790.19 2155.42 L2790.19 2154.55 L2814.32 2154.55 L2814.32 2154.06 L2838.45 2154.06 L2838.45 2154.06 L2862.46 2154.06 L2862.46 2151.96 L2886.59 2151.96 L2886.59 2150.97 L2910.72 2150.97 L2910.72 2150.35 L2934.73 2150.35 L2934.73 2149.98 L2958.86 2149.98 L2958.86 2149.11 L2982.99 2149.11 L2982.99 2148.37 L3007.00 2148.37 L3007.00 2147.75 L3031.13 2147.75 L3031.13 2147.13 L3055.14 2147.13 L3055.14 2146.76 L3079.27 2146.76 L3079.27 2145.77 L3103.40 2145.77 L3103.40 2144.90 L3127.41 2144.90 L3127.41 2144.65 L3151.54 2144.65 L3151.54 2144.16 L3175.67 2144.16 L3175.67 2143.54 L3199.68 2143.54 L3199.68 2142.80 L3223.81 2142.80 L3223.81 2142.06 L3247.94 2142.06 L3247.94 2141.19 L3271.95 2141.19 L3271.95 2141.07 L3296.08 2141.07 L3296.08 2140.69 L3320.21 2140.69 L3320.21 2140.32 L3344.22 2140.32 L3344.22 2139.33 L3368.35 2139.33 L3368.35 2139.21 L3392.48 2139.21 L3392.48 2138.84 L3416.49 2138.84 L3416.49 2138.22 L3440.62 2138.22 L3440.62 2137.85 L3464.75 2137.85 L3464.75 2137.72 L3488.76 2137.72 L3488.76 2137.35 L3512.89 2137.35 L3512.89 2137.35 L3537.02 2137.35 L3537.02 2137.11 L3561.03 2137.11 L3561.03 2136.61 L3585.16 2136.61 L3585.16 2136.36 L3609.29 2136.36 L3609.29 2135.62 L3633.30 2135.62 L3633.30 2135.62 L3657.43 2135.62 L3657.43 2135.50" stroke-linejoin="round" style="fill:none;stroke:#1A476F;stroke-width:8.64"/>
	<path d=" M1127.98 2246.01 L1127.98 2246.01 L1127.98 2246.01 L1152.11 2246.01 L1152.11 2246.01 L1176.24 2246.01 L1176.24 2246.01 L1200.25 2246.01 L1200.25 2246.01 L1224.38 2246.01 L1224.38 2246.01 L1248.51 2246.01 L1248.51 2246.01 L1272.52 2246.01 L1272.52 2246.01 L1296.65 2246.01 L1296.65 2246.01 L1320.78 2246.01 L1320.78 2246.01 L1344.79 2246.01 L1344.79 2246.01 L1368.92 2246.01 L1368.92 2246.01 L1393.05 2246.01 L1393.05 2246.01 L1417.06 2246.01 L1417.06 2246.01 L1441.19 2246.01 L1441.19 2246.01 L1465.32 2246.01 L1465.32 2246.01 L1489.33 2246.01 L1489.33 2246.01 L1513.46 2246.01 L1513.46 2246.01 L1537.59 2246.01 L1537.59 2246.01 L1561.60 2246.01 L1561.60 2246.01 L1585.73 2246.01 L1585.73 2246.01 L1609.86 2246.01 L1609.86 2246.01 L1633.87 2246.01 L1633.87 2245.27 L1658.00 2245.27 L1658.00 2244.65 L1682.13 2244.65 L1682.13 2243.41 L1706.14 2243.41 L1706.14 2242.79 L1730.27 2242.79 L1730.27 2242.17 L1754.40 2242.17 L1754.40 2240.19 L1778.41 2240.19 L1778.41 2240.19 L1802.54 2240.19 L1802.54 2238.95 L1826.67 2238.95 L1826.67 2235.12 L1850.68 2235.12 L1850.68 2233.14 L1874.81 2233.14 L1874.81 2228.06 L1898.94 2228.06 L1898.94 2226.83 L1922.95 2226.83 L1922.95 2222.37 L1947.08 2222.37 L1947.08 2220.39 L1971.21 2220.39 L1971.21 2217.17 L1995.22 2217.17 L1995.22 2215.32 L2019.35 2215.32 L2019.35 2211.48 L2043.48 2211.48 L2043.48 2206.41 L2067.49 2206.41 L2067.49 2199.35 L2091.62 2199.35 L2091.62 2195.52 L2115.75 2195.52 L2115.75 2191.68 L2139.76 2191.68 L2139.76 2187.23 L2163.89 2187.23 L2163.89 2184.01 L2188.02 2184.01 L2188.02 2180.79 L2212.03 2180.79 L2212.03 2178.93 L2236.16 2178.93 L2236.16 2175.72 L2260.29 2175.72 L2260.29 2173.86 L2284.30 2173.86 L2284.30 2171.26 L2308.43 2171.26 L2308.43 2168.66 L2332.56 2168.66 L2332.56 2165.57 L2356.57 2165.57 L2356.57 2162.35 L2380.70 2162.35 L2380.70 2160.99 L2404.83 2160.99 L2404.83 2157.90 L2428.84 2157.90 L2428.84 2155.92 L2452.97 2155.92 L2452.97 2154.06 L2477.10 2154.06 L2477.10 2152.08 L2501.11 2152.08 L2501.11 2146.39 L2525.24 2146.39 L2525.24 2143.17 L2549.37 2143.17 L2549.37 2141.93 L2573.38 2141.93 L2573.38 2139.95 L2597.51 2139.95 L2597.51 2138.10 L2621.64 2138.10 L2621.64 2137.48 L2645.65 2137.48 L2645.65 2136.73 L2669.78 2136.73 L2669.78 2134.88 L2693.91 2134.88 L2693.91 2132.28 L2717.92 2132.28 L2717.92 2131.66 L2742.05 2131.66 L2742.05 2131.04 L2766.18 2131.04 L2766.18 2131.04 L2790.19 2131.04 L2790.19 2129.06 L2814.32 2129.06 L2814.32 2129.06 L2838.45 2129.06 L2838.45 2129.06 L2862.46 2129.06 L2862.46 2127.21 L2886.59 2127.21 L2886.59 2126.59 L2910.72 2126.59 L2910.72 2125.97 L2934.73 2125.97 L2934.73 2125.97 L2958.86 2125.97 L2958.86 2125.23 L2982.99 2125.23 L2982.99 2124.61 L3007.00 2124.61 L3007.00 2123.37 L3031.13 2123.37 L3031.13 2122.75 L3055.14 2122.75 L3055.14 2121.39 L3079.27 2121.39 L3079.27 2120.15 L3103.40 2120.15 L3103.40 2120.15 L3127.41 2120.15 L3127.41 2120.15 L3151.54 2120.15 L3151.54 2120.15 L3175.67 2120.15 L3175.67 2118.29 L3199.68 2118.29 L3199.68 2116.93 L3223.81 2116.93 L3223.81 2116.93 L3247.94 2116.93 L3247.94 2116.93 L3271.95 2116.93 L3271.95 2115.70 L3296.08 2115.70 L3296.08 2115.08 L3320.21 2115.08 L3320.21 2115.08 L3344.22 2115.08 L3344.22 2114.46 L3368.35 2114.46 L3368.35 2114.46 L3392.48 2114.46 L3392.48 2113.10 L3416.49 2113.10 L3416.49 2113.10 L3440.62 2113.10 L3440.62 2112.48 L3464.75 2112.48 L3464.75 2111.24 L3488.76 2111.24 L3488.76 2111.24 L3512.89 2111.24 L3512.89 2111.24 L3537.02 2111.24 L3537.02 2111.24 L3561.03 2111.24 L3561.03 2111.24 L3585.16 2111.24 L3585.16 2111.24 L3609.29 2111.24 L3609.29 2109.26 L3633.30 2109.26 L3633.30 2109.26 L3657.43 2109.26 L3657.43 2108.64" stroke-linejoin="round" style="fill:none;stroke:#90353B;stroke-width:8.64"/>
	<line x1="1064.74" y1="2309.25" x2="1064.74" y2="490.93" style="stroke:#000000;stroke-width:5.76"/>
	<line x1="1064.74" y1="2245.89" x2="1024.77" y2="2245.89" style="stroke:#000000;stroke-width:5.76"/>
	<text x="1004.73" y="2273.90" style="font-family:'Helvetica';font-size:79.94px;fill:#000000" text-anchor="end">0.000</text>
	<line x1="1064.74" y1="1907.54" x2="1024.77" y2="1907.54" style="stroke:#000000;stroke-width:5.76"/>
	<text x="1004.73" y="1935.55" style="font-family:'Helvetica';font-size:79.94px;fill:#000000" text-anchor="end">0.001</text>
	<line x1="1064.74" y1="1569.20" x2="1024.77" y2="1569.20" style="stroke:#000000;stroke-width:5.76"/>
	<text x="1004.73" y="1597.21" style="font-family:'Helvetica';font-size:79.94px;fill:#000000" text-anchor="end">0.002</text>
	<line x1="1064.74" y1="1230.86" x2="1024.77" y2="1230.86" style="stroke:#000000;stroke-width:5.76"/>
	<text x="1004.73" y="1258.87" style="font-family:'Helvetica';font-size:79.94px;fill:#000000" text-anchor="end">0.003</text>
	<line x1="1064.74" y1="892.51" x2="1024.77" y2="892.51" style="stroke:#000000;stroke-width:5.76"/>
	<text x="1004.73" y="920.52" style="font-family:'Helvetica';font-size:79.94px;fill:#000000" text-anchor="end">0.004</text>
	<line x1="1064.74" y1="554.29" x2="1024.77" y2="554.29" style="stroke:#000000;stroke-width:5.76"/>
	<text x="1004.73" y="582.31" style="font-family:'Helvetica';font-size:79.94px;fill:#000000" text-anchor="end">0.005</text>
	<text x="1128.11" y="2747.83" style="font-family:'Helvetica';font-size:60.02px;fill:#000000" text-anchor="middle">530392</text>
	<text x="1609.86" y="2747.83" style="font-family:'Helvetica';font-size:60.02px;fill:#000000" text-anchor="middle">530172</text>
	<text x="2091.62" y="2747.83" style="font-family:'Helvetica';font-size:60.02px;fill:#000000" text-anchor="middle">529852</text>
	<text x="2573.51" y="2747.83" style="font-family:'Helvetica';font-size:60.02px;fill:#000000" text-anchor="middle">529560</text>
	<text x="3055.26" y="2747.83" style="font-family:'Helvetica';font-size:60.02px;fill:#000000" text-anchor="middle">529379</text>
	<text x="3537.02" y="2747.83" style="font-family:'Helvetica';font-size:60.02px;fill:#000000" text-anchor="middle">529183</text>
	<text x="995.57" y="2747.83" style="font-family:'Helvetica';font-size:60.02px;fill:#000000" text-anchor="end">Current exposure to NSAIDs</text>
	<text x="1128.11" y="2674.44" style="font-family:'Helvetica';font-size:60.02px;fill:#000000" text-anchor="middle">1924095</text>
	<text x="1609.86" y="2674.44" style="font-family:'Helvetica';font-size:60.02px;fill:#000000" text-anchor="middle">1896129</text>
	<text x="2091.62" y="2674.44" style="font-family:'Helvetica';font-size:60.02px;fill:#000000" text-anchor="middle">1880304</text>
	<text x="2573.51" y="2674.44" style="font-family:'Helvetica';font-size:60.02px;fill:#000000" text-anchor="middle">1863680</text>
	<text x="3055.26" y="2674.44" style="font-family:'Helvetica';font-size:60.02px;fill:#000000" text-anchor="middle">1845915</text>
	<text x="3537.02" y="2674.44" style="font-family:'Helvetica';font-size:60.02px;fill:#000000" text-anchor="middle">1828962</text>
	<text x="995.57" y="2674.44" style="font-family:'Helvetica';font-size:60.02px;fill:#000000" text-anchor="end">Non-current exposure to NSAIDs</text>
	<text x="995.57" y="2601.18" style="font-family:'Helvetica';font-size:60.02px;fill:#000000" text-anchor="end">Number at risk</text>
	<line x1="1064.74" y1="2309.25" x2="3841.32" y2="2309.25" style="stroke:#000000;stroke-width:5.76"/>
	<line x1="1128.11" y1="2309.25" x2="1128.11" y2="2349.22" style="stroke:#000000;stroke-width:5.76"/>
	<text x="1128.11" y="2425.17" style="font-family:'Helvetica';font-size:79.94px;fill:#000000" text-anchor="middle">0</text>
	<line x1="1609.86" y1="2309.25" x2="1609.86" y2="2349.22" style="stroke:#000000;stroke-width:5.76"/>
	<text x="1609.86" y="2425.17" style="font-family:'Helvetica';font-size:79.94px;fill:#000000" text-anchor="middle">20</text>
	<line x1="2091.62" y1="2309.25" x2="2091.62" y2="2349.22" style="stroke:#000000;stroke-width:5.76"/>
	<text x="2091.62" y="2425.17" style="font-family:'Helvetica';font-size:79.94px;fill:#000000" text-anchor="middle">40</text>
	<line x1="2573.51" y1="2309.25" x2="2573.51" y2="2349.22" style="stroke:#000000;stroke-width:5.76"/>
	<text x="2573.51" y="2425.17" style="font-family:'Helvetica';font-size:79.94px;fill:#000000" text-anchor="middle">60</text>
	<line x1="3055.26" y1="2309.25" x2="3055.26" y2="2349.22" style="stroke:#000000;stroke-width:5.76"/>
	<text x="3055.26" y="2425.17" style="font-family:'Helvetica';font-size:79.94px;fill:#000000" text-anchor="middle">80</text>
	<line x1="3537.02" y1="2309.25" x2="3537.02" y2="2349.22" style="stroke:#000000;stroke-width:5.76"/>
	<text x="3537.02" y="2425.17" style="font-family:'Helvetica';font-size:79.94px;fill:#000000" text-anchor="middle">100</text>
	<text x="2452.97" y="2515.14" style="font-family:'Helvetica';font-size:79.94px;fill:#000000" text-anchor="middle">Days since 1 Mar 2020</text>
	<rect x="1099.27" y="269.91" width="2707.53" height="186.37" style="fill:#FFFFFF"/>
	<rect x="1102.15" y="272.79" width="2701.77" height="180.61" style="fill:none;stroke:#EAF2F3;stroke-width:5.76"/>
	<line x1="1142.46" y1="363.09" x2="1505.79" y2="363.09" style="stroke:#90353B;stroke-width:8.64"/>
	<line x1="2462.38" y1="363.09" x2="2825.71" y2="363.09" style="stroke:#1A476F;stroke-width:8.64"/>
	<text x="1564.08" y="384.13" style="font-family:'Helvetica';font-size:60.02px;fill:#000000">Current exposure to NSAIDs</text>
	<text x="2883.87" y="384.13" style="font-family:'Helvetica';font-size:60.02px;fill:#000000">Non-current exposure to NSAIDs</text>
	<text x="1732.62" y="187.99" style="font-family:'Helvetica';font-size:99.99px;fill:#1E2D53">Time to death, nsaid population</text>
</svg>
