<?xml version="1.0" encoding="UTF-8" standalone="no"?>
<!-- This is a Stata 16.1 generated SVG file (http://www.stata.com) -->

<svg version="1.1" width="5.50in" height="4.00in" viewBox="0 0 3960 2880" xmlns="http://www.w3.org/2000/svg" xmlns:xlink="http://www.w3.org/1999/xlink">
	<desc>Stata Graph - Graph</desc>
	<rect x="0" y="0" width="3960" height="2880" style="fill:#EAF2F3;stroke:none"/>
	<rect x="0.00" y="0.00" width="3959.88" height="2880.00" style="fill:#EAF2F3"/>
	<rect x="2.88" y="2.88" width="3954.12" height="2874.24" style="fill:none;stroke:#EAF2F3;stroke-width:5.76"/>
	<rect x="524.08" y="100.86" width="3334.94" height="2388.33" style="fill:#FFFFFF"/>
	<rect x="526.96" y="103.74" width="3329.18" height="2382.57" style="fill:none;stroke:#FFFFFF;stroke-width:5.76"/>
	<line x1="524.08" y1="2425.82" x2="3859.02" y2="2425.82" style="stroke:#EAF2F3;stroke-width:8.64"/>
	<line x1="524.08" y1="1860.39" x2="3859.02" y2="1860.39" style="stroke:#EAF2F3;stroke-width:8.64"/>
	<line x1="524.08" y1="1294.96" x2="3859.02" y2="1294.96" style="stroke:#EAF2F3;stroke-width:8.64"/>
	<line x1="524.08" y1="729.53" x2="3859.02" y2="729.53" style="stroke:#EAF2F3;stroke-width:8.64"/>
	<defs>
		<path id="path_TFSVsHQk" d="M740.27 2425.82 L740.27 2425.82 L770.84 2425.82 L801.40 2425.82 L831.85 2425.82 L862.41 2425.82 L892.98 2425.82 L923.55 2425.70 L954.11 2425.70 L984.68 2425.45 L1015.25 2425.08 L1045.81 2424.59 L1076.38 2423.72 L1106.94 2422.36 L1137.51 2420.50 L1167.95 2418.03 L1198.52 2414.69 L1229.09 2410.35 L1259.65 2404.91 L1290.22 2398.10 L1320.78 2389.81 L1351.35 2380.03 L1381.92 2368.40 L1412.48 2354.91 L1443.05 2339.44 L1473.62 2322.12 L1504.06 2302.69 L1534.62 2281.16 L1565.19 2257.64 L1595.76 2232.02 L1626.32 2204.55 L1656.89 2175.35 L1687.45 2144.28 L1718.02 2111.61 L1748.59 2077.58 L1779.15 2042.19 L1809.72 2005.68 L1840.16 1968.31 L1870.73 1930.07 L1901.30 1891.33 L1931.86 1852.22 L1962.43 1812.87 L1992.99 1773.52 L2023.56 1734.29 L2054.13 1695.30 L2084.69 1656.94 L2115.26 1619.07 L2145.70 1582.07 L2176.27 1545.93 L2206.83 1510.54 L2237.40 1476.14 L2267.97 1442.85 L2298.53 1410.42 L2329.10 1379.11 L2359.66 1348.79 L2390.23 1319.59 L2420.80 1291.37 L2451.36 1264.15 L2481.81 1238.03 L2512.37 1213.04 L2542.94 1188.90 L2573.51 1165.76 L2604.07 1143.61 L2634.64 1122.32 L2665.20 1101.90 L2695.77 1082.48 L2726.34 1063.79 L2756.90 1045.97 L2787.47 1029.01 L2817.91 1012.68 L2848.48 997.08 L2879.04 982.23 L2909.61 968.00 L2940.18 954.39 L2970.74 941.40 L3001.31 928.90 L3031.88 917.02 L3062.44 905.63 L3093.01 894.74 L3123.57 884.35 L3154.02 874.32 L3184.58 864.67 L3215.15 855.39 L3245.72 846.60 L3276.28 838.06 L3306.85 829.77 L3337.41 821.85 L3367.98 814.18 L3398.55 806.75 L3429.11 799.57 L3459.68 792.64 L3490.12 785.84 L3520.69 779.28 L3551.25 772.84 L3581.82 766.53 L3612.39 760.47 L3642.95 754.40 L3673.52 748.46 L3704.09 742.65 L3734.65 736.83 L3765.22 731.14 L3795.66 725.57 L3795.66 585.73 L3765.22 591.79 L3734.65 597.98 L3704.09 604.17 L3673.52 610.35 L3642.95 616.79 L3612.39 623.22 L3581.82 629.66 L3551.25 636.34 L3520.69 643.15 L3490.12 650.20 L3459.68 657.26 L3429.11 664.68 L3398.55 672.23 L3367.98 680.03 L3337.41 688.07 L3306.85 696.36 L3276.28 704.90 L3245.72 713.81 L3215.15 723.09 L3184.58 732.75 L3154.02 742.89 L3123.57 753.29 L3093.01 764.30 L3062.44 775.69 L3031.88 787.57 L3001.31 800.07 L2970.74 813.06 L2940.18 826.80 L2909.61 841.03 L2879.04 856.01 L2848.48 871.72 L2817.91 888.06 L2787.47 905.26 L2756.90 923.33 L2726.34 942.14 L2695.77 961.94 L2665.20 982.61 L2634.64 1004.14 L2604.07 1026.79 L2573.51 1050.30 L2542.94 1074.93 L2512.37 1100.67 L2481.81 1127.40 L2451.36 1155.37 L2420.80 1184.32 L2390.23 1214.40 L2359.66 1245.71 L2329.10 1278.01 L2298.53 1311.54 L2267.97 1346.07 L2237.40 1381.84 L2206.83 1418.47 L2176.27 1456.21 L2145.70 1494.82 L2115.26 1534.42 L2084.69 1574.77 L2054.13 1615.73 L2023.56 1657.06 L1992.99 1698.89 L1962.43 1740.85 L1931.86 1782.80 L1901.30 1824.50 L1870.73 1865.84 L1840.16 1906.55 L1809.72 1946.65 L1779.15 1985.75 L1748.59 2023.75 L1718.02 2060.63 L1687.45 2096.02 L1656.89 2129.80 L1626.32 2161.98 L1595.76 2192.42 L1565.19 2220.89 L1534.62 2247.37 L1504.06 2271.87 L1473.62 2294.27 L1443.05 2314.57 L1412.48 2332.88 L1381.92 2349.10 L1351.35 2363.45 L1320.78 2375.70 L1290.22 2386.35 L1259.65 2395.26 L1229.09 2402.56 L1198.52 2408.62 L1167.95 2413.32 L1137.51 2417.04 L1106.94 2419.88 L1076.38 2421.86 L1045.81 2423.35 L1015.25 2424.34 L984.68 2424.96 L954.11 2425.33 L923.55 2425.58 L892.98 2425.70 L862.41 2425.82 L831.85 2425.82 L801.40 2425.82 L770.84 2425.82 L740.27 2425.82 L740.27 2425.82 Z" stroke-linejoin="round"/>
	</defs>
	<defs>
		<clipPath id="clipPath_dJckMZBT">
			<use xlink:href="#path_TFSVsHQk"/>
		</clipPath>
	</defs>
	<use xlink:href="#path_TFSVsHQk" style="stroke:none;fill:#3333FF;fill-opacity:0.25"/>
	<use xlink:href="#path_TFSVsHQk" style="fill:none;stroke:#0000FF;stroke-opacity:0.25;stroke-width:17.28" clip-path="url(#clipPath_dJckMZBT)"/>
	<defs>
		<path id="path_axuGmtUp" d="M740.27 2425.82 L740.27 2425.82 L770.84 2425.82 L801.40 2425.82 L831.85 2425.82 L862.41 2425.82 L892.98 2425.82 L923.55 2425.82 L954.11 2425.70 L984.68 2425.58 L1015.25 2425.33 L1045.81 2424.96 L1076.38 2424.34 L1106.94 2423.35 L1137.51 2422.11 L1167.95 2420.38 L1198.52 2418.03 L1229.09 2415.06 L1259.65 2411.22 L1290.22 2406.52 L1320.78 2400.83 L1351.35 2394.14 L1381.92 2386.22 L1412.48 2377.19 L1443.05 2366.79 L1473.62 2355.16 L1504.06 2342.17 L1534.62 2327.81 L1565.19 2312.22 L1595.76 2295.39 L1626.32 2277.32 L1656.89 2258.14 L1687.45 2237.84 L1718.02 2216.43 L1748.59 2194.28 L1779.15 2171.26 L1809.72 2147.50 L1840.16 2123.25 L1870.73 2098.49 L1901.30 2073.37 L1931.86 2048.00 L1962.43 2022.51 L1992.99 1997.02 L2023.56 1971.65 L2054.13 1946.40 L2084.69 1921.53 L2115.26 1897.02 L2145.70 1873.01 L2176.27 1849.50 L2206.83 1826.61 L2237.40 1804.33 L2267.97 1782.80 L2298.53 1761.76 L2329.10 1741.46 L2359.66 1721.79 L2390.23 1702.85 L2420.80 1684.54 L2451.36 1666.96 L2481.81 1650.01 L2512.37 1633.67 L2542.94 1618.08 L2573.51 1603.11 L2604.07 1588.75 L2634.64 1575.02 L2665.20 1561.77 L2695.77 1549.27 L2726.34 1537.15 L2756.90 1525.64 L2787.47 1514.62 L2817.91 1504.10 L2848.48 1494.08 L2879.04 1484.43 L2909.61 1475.27 L2940.18 1466.48 L2970.74 1458.07 L3001.31 1450.15 L3031.88 1442.48 L3062.44 1435.17 L3093.01 1428.12 L3123.57 1421.31 L3154.02 1414.88 L3184.58 1408.69 L3215.15 1402.75 L3245.72 1397.06 L3276.28 1391.61 L3306.85 1386.29 L3337.41 1381.22 L3367.98 1376.27 L3398.55 1371.44 L3429.11 1366.86 L3459.68 1362.28 L3490.12 1357.95 L3520.69 1353.74 L3551.25 1349.54 L3581.82 1345.45 L3612.39 1341.49 L3642.95 1337.53 L3673.52 1333.70 L3704.09 1329.86 L3734.65 1326.15 L3765.22 1322.43 L3795.66 1318.72 L3795.66 830.76 L3765.22 835.96 L3734.65 841.28 L3704.09 846.72 L3673.52 852.17 L3642.95 857.74 L3612.39 863.31 L3581.82 869.00 L3551.25 874.82 L3520.69 880.76 L3490.12 886.94 L3459.68 893.13 L3429.11 899.57 L3398.55 906.25 L3367.98 913.06 L3337.41 920.11 L3306.85 927.41 L3276.28 934.96 L3245.72 942.88 L3215.15 951.05 L3184.58 959.46 L3154.02 968.25 L3123.57 977.53 L3093.01 987.06 L3062.44 997.08 L3031.88 1007.60 L3001.31 1018.62 L2970.74 1030.00 L2940.18 1042.01 L2909.61 1054.51 L2879.04 1067.62 L2848.48 1081.36 L2817.91 1095.84 L2787.47 1110.81 L2756.90 1126.66 L2726.34 1143.11 L2695.77 1160.32 L2665.20 1178.38 L2634.64 1197.32 L2604.07 1217.00 L2573.51 1237.66 L2542.94 1259.07 L2512.37 1281.47 L2481.81 1304.86 L2451.36 1329.12 L2420.80 1354.36 L2390.23 1380.60 L2359.66 1407.82 L2329.10 1436.04 L2298.53 1465.25 L2267.97 1495.32 L2237.40 1526.50 L2206.83 1558.43 L2176.27 1591.23 L2145.70 1625.01 L2115.26 1659.42 L2084.69 1694.56 L2054.13 1730.20 L2023.56 1766.34 L1992.99 1802.72 L1962.43 1839.23 L1931.86 1875.74 L1901.30 1912.12 L1870.73 1948.13 L1840.16 1983.53 L1809.72 2018.30 L1779.15 2052.33 L1748.59 2085.25 L1718.02 2117.18 L1687.45 2147.75 L1656.89 2176.83 L1626.32 2204.55 L1595.76 2230.54 L1565.19 2254.92 L1534.62 2277.44 L1504.06 2298.23 L1473.62 2317.17 L1443.05 2334.25 L1412.48 2349.59 L1381.92 2363.20 L1351.35 2374.96 L1320.78 2385.23 L1290.22 2393.89 L1259.65 2401.20 L1229.09 2407.14 L1198.52 2412.09 L1167.95 2415.92 L1137.51 2418.89 L1106.94 2421.12 L1076.38 2422.73 L1045.81 2423.84 L1015.25 2424.71 L984.68 2425.20 L954.11 2425.45 L923.55 2425.70 L892.98 2425.82 L862.41 2425.82 L831.85 2425.82 L801.40 2425.82 L770.84 2425.82 L740.27 2425.82 L740.27 2425.82 Z" stroke-linejoin="round"/>
	</defs>
	<defs>
		<clipPath id="clipPath_sKWLgUtP">
			<use xlink:href="#path_axuGmtUp"/>
		</clipPath>
	</defs>
	<use xlink:href="#path_axuGmtUp" style="stroke:none;fill:#FF3333;fill-opacity:0.25"/>
	<use xlink:href="#path_axuGmtUp" style="fill:none;stroke:#FF0000;stroke-opacity:0.25;stroke-width:17.28" clip-path="url(#clipPath_sKWLgUtP)"/>
	<path d=" M587.44 2425.95 L618.01 2425.95 L648.57 2425.95 L679.02 2425.95 L709.58 2425.95 L740.15 2425.95 L770.72 2425.95 L801.28 2425.95 L831.85 2425.95 L862.41 2425.82 L892.98 2425.82 L923.55 2425.82 L954.11 2425.58 L984.68 2425.33 L1015.12 2424.83 L1045.69 2424.09 L1076.25 2422.98 L1106.82 2421.37 L1137.39 2419.14 L1167.95 2416.05 L1198.52 2412.09 L1229.09 2407.01 L1259.65 2400.58 L1290.22 2392.78 L1320.66 2383.50 L1351.23 2372.36 L1381.79 2359.49 L1412.36 2344.76 L1442.92 2327.93 L1473.49 2309.12 L1504.06 2288.21 L1534.62 2265.19 L1565.19 2240.19 L1595.76 2213.21 L1626.32 2184.26 L1656.77 2153.56 L1687.33 2121.14 L1717.90 2087.11 L1748.46 2051.72 L1779.03 2014.96 L1809.60 1977.22 L1840.16 1938.48 L1870.73 1899.00 L1901.30 1858.91 L1931.86 1818.56 L1962.43 1777.85 L1992.87 1737.26 L2023.44 1696.79 L2054.00 1656.57 L2084.57 1616.97 L2115.14 1577.86 L2145.70 1539.62 L2176.27 1502.25 L2206.83 1465.74 L2237.40 1430.22 L2267.97 1395.70 L2298.53 1362.16 L2328.97 1329.74 L2359.54 1298.43 L2390.11 1268.23 L2420.67 1239.15 L2451.24 1211.06 L2481.81 1184.08 L2512.37 1158.09 L2542.94 1133.21 L2573.51 1109.33 L2604.07 1086.44 L2634.64 1064.53 L2665.08 1043.62 L2695.65 1023.57 L2726.21 1004.39 L2756.78 986.07 L2787.34 968.50 L2817.91 951.79 L2848.48 935.83 L2879.04 920.48 L2909.61 905.88 L2940.18 891.89 L2970.62 878.65 L3001.18 865.91 L3031.75 853.65 L3062.32 842.02 L3092.88 830.88 L3123.45 820.24 L3154.02 809.97 L3184.58 800.19 L3215.15 790.66 L3245.72 781.63 L3276.28 772.84 L3306.72 764.43 L3337.29 756.38 L3367.86 748.46 L3398.42 740.91 L3428.99 733.49 L3459.55 726.44 L3490.12 719.38 L3520.69 712.70 L3551.25 706.02 L3581.82 699.58 L3612.39 693.27 L3642.83 686.96 L3673.39 680.89 L3703.96 674.83 L3734.53 668.77 L3765.09 662.95 L3795.66 657.01" stroke-linejoin="round" style="fill:none;stroke:#0000FF;stroke-width:8.64"/>
	<path d=" M587.44 2425.95 L618.01 2425.95 L648.57 2425.95 L679.02 2425.95 L709.58 2425.95 L740.15 2425.95 L770.72 2425.95 L801.28 2425.95 L831.85 2425.95 L862.41 2425.95 L892.98 2425.82 L923.55 2425.82 L954.11 2425.70 L984.68 2425.45 L1015.12 2425.08 L1045.69 2424.59 L1076.25 2423.72 L1106.82 2422.48 L1137.39 2420.75 L1167.95 2418.52 L1198.52 2415.55 L1229.09 2411.72 L1259.65 2406.89 L1290.22 2401.07 L1320.66 2394.02 L1351.23 2385.73 L1381.79 2376.07 L1412.36 2364.94 L1442.92 2352.44 L1473.49 2338.21 L1504.06 2322.61 L1534.62 2305.29 L1565.19 2286.60 L1595.76 2266.30 L1626.32 2244.65 L1656.77 2221.51 L1687.33 2197.25 L1717.90 2171.63 L1748.46 2145.03 L1779.03 2117.55 L1809.60 2089.09 L1840.16 2060.01 L1870.73 2030.43 L1901.30 2000.36 L1931.86 1970.04 L1962.43 1939.47 L1992.87 1909.03 L2023.44 1878.58 L2054.00 1848.39 L2084.57 1818.56 L2115.14 1789.23 L2145.70 1760.52 L2176.27 1732.43 L2206.83 1704.96 L2237.40 1678.23 L2267.97 1652.36 L2298.53 1627.24 L2328.97 1602.86 L2359.54 1579.35 L2390.11 1556.58 L2420.67 1534.67 L2451.24 1513.63 L2481.81 1493.34 L2512.37 1473.78 L2542.94 1455.10 L2573.51 1437.15 L2604.07 1419.95 L2634.64 1403.49 L2665.08 1387.78 L2695.65 1372.68 L2726.21 1358.20 L2756.78 1344.46 L2787.34 1331.22 L2817.91 1318.72 L2848.48 1306.72 L2879.04 1295.21 L2909.61 1284.19 L2940.18 1273.67 L2970.62 1263.65 L3001.18 1254.12 L3031.75 1244.96 L3062.32 1236.18 L3092.88 1227.76 L3123.45 1219.72 L3154.02 1212.05 L3184.58 1204.62 L3215.15 1197.57 L3245.72 1190.76 L3276.28 1184.20 L3306.72 1177.77 L3337.29 1171.70 L3367.86 1165.76 L3398.42 1160.07 L3428.99 1154.50 L3459.55 1149.18 L3490.12 1143.98 L3520.69 1138.91 L3551.25 1133.83 L3581.82 1129.01 L3612.39 1124.18 L3642.83 1119.60 L3673.39 1114.90 L3703.96 1110.44 L3734.53 1105.86 L3765.09 1101.41 L3795.66 1097.08" stroke-linejoin="round" style="fill:none;stroke:#FF0000;stroke-width:8.64"/>
	<line x1="524.08" y1="2489.19" x2="524.08" y2="100.86" style="stroke:#000000;stroke-width:5.76"/>
	<line x1="524.08" y1="2425.82" x2="484.11" y2="2425.82" style="stroke:#000000;stroke-width:5.76"/>
	<text x="464.06" y="2460.85" style="font-family:'Helvetica';font-size:99.99px;fill:#000000" text-anchor="end">0.00</text>
	<line x1="524.08" y1="1860.39" x2="484.11" y2="1860.39" style="stroke:#000000;stroke-width:5.76"/>
	<text x="464.06" y="1895.42" style="font-family:'Helvetica';font-size:99.99px;fill:#000000" text-anchor="end">0.05</text>
	<line x1="524.08" y1="1294.96" x2="484.11" y2="1294.96" style="stroke:#000000;stroke-width:5.76"/>
	<text x="464.06" y="1329.99" style="font-family:'Helvetica';font-size:99.99px;fill:#000000" text-anchor="end">0.10</text>
	<line x1="524.08" y1="729.53" x2="484.11" y2="729.53" style="stroke:#000000;stroke-width:5.76"/>
	<text x="464.06" y="764.56" style="font-family:'Helvetica';font-size:99.99px;fill:#000000" text-anchor="end">0.15</text>
	<line x1="524.08" y1="164.22" x2="484.11" y2="164.22" style="stroke:#000000;stroke-width:5.76"/>
	<text x="464.06" y="199.25" style="font-family:'Helvetica';font-size:99.99px;fill:#000000" text-anchor="end">0.20</text>
	<text x="190.71" y="1294.96" style="font-family:'Helvetica';font-size:99.99px;fill:#000000" transform="rotate(-90 190.71,1294.96)" text-anchor="middle">Cumulative mortality (%)</text>
	<line x1="524.08" y1="2489.19" x2="3859.02" y2="2489.19" style="stroke:#000000;stroke-width:5.76"/>
	<line x1="587.44" y1="2489.19" x2="587.44" y2="2529.16" style="stroke:#000000;stroke-width:5.76"/>
	<text x="587.44" y="2619.14" style="font-family:'Helvetica';font-size:99.99px;fill:#000000" text-anchor="middle">0</text>
	<line x1="1198.52" y1="2489.19" x2="1198.52" y2="2529.16" style="stroke:#000000;stroke-width:5.76"/>
	<text x="1198.52" y="2619.14" style="font-family:'Helvetica';font-size:99.99px;fill:#000000" text-anchor="middle">20</text>
	<line x1="1809.72" y1="2489.19" x2="1809.72" y2="2529.16" style="stroke:#000000;stroke-width:5.76"/>
	<text x="1809.72" y="2619.14" style="font-family:'Helvetica';font-size:99.99px;fill:#000000" text-anchor="middle">40</text>
	<line x1="2420.80" y1="2489.19" x2="2420.80" y2="2529.16" style="stroke:#000000;stroke-width:5.76"/>
	<text x="2420.80" y="2619.14" style="font-family:'Helvetica';font-size:99.99px;fill:#000000" text-anchor="middle">60</text>
	<line x1="3031.88" y1="2489.19" x2="3031.88" y2="2529.16" style="stroke:#000000;stroke-width:5.76"/>
	<text x="3031.88" y="2619.14" style="font-family:'Helvetica';font-size:99.99px;fill:#000000" text-anchor="middle">80</text>
	<line x1="3642.95" y1="2489.19" x2="3642.95" y2="2529.16" style="stroke:#000000;stroke-width:5.76"/>
	<text x="3642.95" y="2619.14" style="font-family:'Helvetica';font-size:99.99px;fill:#000000" text-anchor="middle">100</text>
	<text x="2191.61" y="2729.16" style="font-family:'Helvetica';font-size:99.99px;fill:#000000" text-anchor="middle">Days from 1 March 2020</text>
	<rect x="2218.84" y="135.39" width="1605.66" height="326.34" style="fill:#FFFFFF"/>
	<rect x="2221.72" y="138.27" width="1599.90" height="320.58" style="fill:none;stroke:#000000;stroke-width:5.76"/>
	<rect x="2262.03" y="178.58" width="374.34" height="99.99" style="fill:#3333FF;fill-opacity:0.25"/>
	<rect x="2266.35" y="182.90" width="365.70" height="91.35" style="fill:none;stroke:#0000FF;stroke-opacity:0.25;stroke-width:8.64"/>
	<rect x="2262.03" y="318.54" width="374.34" height="99.99" style="fill:#FF3333;fill-opacity:0.25"/>
	<rect x="2266.35" y="322.86" width="365.70" height="91.35" style="fill:none;stroke:#FF0000;stroke-opacity:0.25;stroke-width:8.64"/>
	<text x="2696.39" y="263.60" style="font-family:'Helvetica';font-size:99.99px;fill:#000000">Non-current NSAID use</text>
	<text x="2696.39" y="403.57" style="font-family:'Helvetica';font-size:99.99px;fill:#000000">Current NSAID use</text>
</svg>
