<?xml version="1.0" encoding="UTF-8" standalone="no"?>
<!-- This is a Stata 16.1 generated SVG file (http://www.stata.com) -->

<svg version="1.1" width="5.50in" height="4.00in" viewBox="0 0 3960 2880" xmlns="http://www.w3.org/2000/svg" xmlns:xlink="http://www.w3.org/1999/xlink">
	<desc>Stata Graph - Graph</desc>
	<rect x="0" y="0" width="3960" height="2880" style="fill:#EAF2F3;stroke:none"/>
	<rect x="0.00" y="0.00" width="3959.88" height="2880.00" style="fill:#EAF2F3"/>
	<rect x="2.88" y="2.88" width="3954.12" height="2874.24" style="fill:none;stroke:#EAF2F3;stroke-width:5.76"/>
	<rect x="559.10" y="100.86" width="3299.92" height="2388.33" style="fill:#FFFFFF"/>
	<rect x="561.98" y="103.74" width="3294.16" height="2382.57" style="fill:none;stroke:#FFFFFF;stroke-width:5.76"/>
	<line x1="559.10" y1="2375.46" x2="3859.02" y2="2375.46" style="stroke:#EAF2F3;stroke-width:8.64"/>
	<line x1="559.10" y1="1638.38" x2="3859.02" y2="1638.38" style="stroke:#EAF2F3;stroke-width:8.64"/>
	<line x1="559.10" y1="901.30" x2="3859.02" y2="901.30" style="stroke:#EAF2F3;stroke-width:8.64"/>
	<line x1="559.10" y1="164.22" x2="3859.02" y2="164.22" style="stroke:#EAF2F3;stroke-width:8.64"/>
	<defs>
		<path id="path_EhKPZrhB" d="M622.46 164.22 L622.46 164.22 L652.66 164.22 L682.85 164.22 L713.17 164.22 L743.37 164.22 L773.56 164.22 L803.76 164.22 L834.08 164.22 L864.27 164.22 L894.47 164.22 L924.66 164.22 L954.86 164.35 L985.17 164.59 L1015.37 164.96 L1045.56 165.58 L1075.76 166.57 L1105.95 168.06 L1136.27 170.29 L1166.47 173.26 L1196.66 177.22 L1226.86 182.41 L1257.18 188.97 L1287.37 197.26 L1317.57 207.29 L1347.76 219.42 L1377.96 233.65 L1408.28 250.23 L1438.47 269.29 L1468.66 290.82 L1498.86 315.08 L1529.06 341.93 L1559.37 371.39 L1589.57 403.44 L1619.76 438.09 L1649.96 475.09 L1680.28 514.44 L1710.47 556.03 L1740.67 599.59 L1770.86 644.88 L1801.06 691.91 L1831.38 740.30 L1861.57 789.80 L1891.77 840.41 L1921.96 891.65 L1952.16 943.25 L1982.47 995.23 L2012.67 1047.21 L2042.87 1099.06 L2073.06 1150.42 L2103.38 1201.03 L2133.57 1251.03 L2163.77 1299.91 L2193.96 1347.68 L2224.16 1394.33 L2254.48 1439.75 L2284.67 1483.81 L2314.87 1526.63 L2345.06 1567.96 L2375.26 1607.93 L2405.58 1646.55 L2435.77 1683.80 L2465.97 1719.56 L2496.16 1754.09 L2526.48 1787.13 L2556.68 1818.93 L2586.87 1849.38 L2617.07 1878.58 L2647.26 1906.43 L2677.58 1933.28 L2707.77 1958.78 L2737.97 1983.28 L2768.16 2006.67 L2798.36 2028.94 L2828.68 2050.35 L2858.87 2070.77 L2889.07 2090.20 L2919.26 2108.77 L2949.46 2126.59 L2979.78 2143.54 L3009.97 2159.75 L3040.17 2175.35 L3070.36 2190.20 L3100.68 2204.43 L3130.88 2218.04 L3161.07 2231.03 L3191.26 2243.53 L3221.46 2255.66 L3251.78 2267.17 L3281.97 2278.31 L3312.17 2288.95 L3342.36 2299.35 L3372.56 2309.37 L3402.88 2319.02 L3433.07 2328.43 L3463.27 2337.46 L3493.46 2346.37 L3523.78 2355.04 L3553.98 2363.45 L3584.17 2371.74 L3614.37 2379.79 L3644.56 2387.71 L3674.88 2395.50 L3705.07 2403.18 L3735.27 2410.85 L3765.47 2418.40 L3795.66 2425.82 L3795.66 770.24 L3765.47 768.26 L3735.27 766.28 L3705.07 764.18 L3674.88 762.20 L3644.56 760.10 L3614.37 757.99 L3584.17 755.76 L3553.98 753.54 L3523.78 751.31 L3493.46 748.96 L3463.27 746.61 L3433.07 744.13 L3402.88 741.66 L3372.56 739.06 L3342.36 736.34 L3312.17 733.61 L3281.97 730.77 L3251.78 727.80 L3221.46 724.70 L3191.26 721.49 L3161.07 718.02 L3130.88 714.55 L3100.68 710.97 L3070.36 707.13 L3040.17 703.05 L3009.97 698.96 L2979.78 694.63 L2949.46 690.05 L2919.26 685.23 L2889.07 680.28 L2858.87 675.08 L2828.68 669.51 L2798.36 663.82 L2768.16 657.88 L2737.97 651.56 L2707.77 645.01 L2677.58 638.20 L2647.26 631.02 L2617.07 623.47 L2586.87 615.68 L2556.68 607.51 L2526.48 598.97 L2496.16 590.06 L2465.97 580.90 L2435.77 571.25 L2405.58 561.22 L2375.26 550.95 L2345.06 540.19 L2314.87 529.05 L2284.67 517.54 L2254.48 505.78 L2224.16 493.53 L2193.96 481.03 L2163.77 468.16 L2133.57 455.04 L2103.38 441.68 L2073.06 428.06 L2042.87 414.20 L2012.67 400.34 L1982.47 386.36 L1952.16 372.38 L1921.96 358.51 L1891.77 344.65 L1861.57 331.04 L1831.38 317.68 L1801.06 304.68 L1770.86 292.06 L1740.67 279.81 L1710.47 268.05 L1680.28 256.91 L1649.96 246.27 L1619.76 236.37 L1589.57 227.09 L1559.37 218.43 L1529.06 210.63 L1498.86 203.45 L1468.66 196.89 L1438.47 191.20 L1408.28 186.13 L1377.96 181.79 L1347.76 178.08 L1317.57 174.86 L1287.37 172.27 L1257.18 170.16 L1226.86 168.55 L1196.66 167.19 L1166.47 166.20 L1136.27 165.46 L1105.95 164.96 L1075.76 164.72 L1045.56 164.47 L1015.37 164.35 L985.17 164.22 L954.86 164.22 L924.66 164.22 L894.47 164.22 L864.27 164.22 L834.08 164.22 L803.76 164.22 L773.56 164.22 L743.37 164.22 L713.17 164.22 L682.85 164.22 L652.66 164.22 L622.46 164.22 L622.46 164.22 Z" stroke-linejoin="round"/>
	</defs>
	<defs>
		<clipPath id="clipPath_EIgfbMFe">
			<use xlink:href="#path_EhKPZrhB"/>
		</clipPath>
	</defs>
	<use xlink:href="#path_EhKPZrhB" style="stroke:none;fill:#FF3333;fill-opacity:0.25"/>
	<use xlink:href="#path_EhKPZrhB" style="fill:none;stroke:#FF0000;stroke-opacity:0.25;stroke-width:17.28" clip-path="url(#clipPath_EIgfbMFe)"/>
	<path d=" M622.46 164.22 L652.66 164.22 L682.85 164.22 L713.05 164.22 L743.24 164.22 L773.56 164.22 L803.76 164.22 L833.95 164.22 L864.15 164.22 L894.34 164.22 L924.66 164.22 L954.86 164.35 L985.05 164.47 L1015.25 164.72 L1045.56 165.09 L1075.76 165.71 L1105.95 166.57 L1136.15 167.93 L1166.34 169.79 L1196.66 172.27 L1226.86 175.48 L1257.05 179.69 L1287.25 184.76 L1317.44 191.20 L1347.76 198.75 L1377.96 207.78 L1408.15 218.30 L1438.35 230.31 L1468.66 243.92 L1498.86 259.26 L1529.06 276.34 L1559.25 295.03 L1589.44 315.32 L1619.76 337.23 L1649.96 360.74 L1680.15 385.74 L1710.35 412.10 L1740.54 439.70 L1770.86 468.53 L1801.06 498.36 L1831.25 529.05 L1861.45 560.48 L1891.77 592.53 L1921.96 625.08 L1952.16 657.88 L1982.35 690.92 L2012.55 723.84 L2042.87 756.63 L2073.06 789.30 L2103.26 821.48 L2133.45 853.16 L2163.64 884.10 L2193.96 914.42 L2224.16 943.99 L2254.35 972.83 L2284.55 1000.80 L2314.87 1027.90 L2345.06 1054.14 L2375.26 1079.50 L2405.45 1104.01 L2435.65 1127.52 L2465.97 1150.29 L2496.16 1172.07 L2526.36 1193.11 L2556.55 1213.28 L2586.75 1232.59 L2617.07 1251.03 L2647.26 1268.72 L2677.45 1285.80 L2707.65 1302.01 L2737.97 1317.48 L2768.16 1332.33 L2798.36 1346.44 L2828.55 1360.06 L2858.75 1372.93 L2889.07 1385.30 L2919.26 1397.06 L2949.46 1408.32 L2979.65 1419.09 L3009.85 1429.48 L3040.17 1439.26 L3070.36 1448.66 L3100.56 1457.70 L3130.75 1466.36 L3160.95 1474.65 L3191.26 1482.57 L3221.46 1490.24 L3251.66 1497.55 L3281.85 1504.60 L3312.17 1511.41 L3342.36 1517.96 L3372.56 1524.28 L3402.75 1530.46 L3432.95 1536.40 L3463.27 1542.10 L3493.46 1547.79 L3523.66 1553.23 L3553.85 1558.56 L3584.05 1563.75 L3614.37 1568.95 L3644.56 1573.90 L3674.76 1578.85 L3704.95 1583.80 L3735.27 1588.63 L3765.47 1593.33 L3795.66 1598.16" stroke-linejoin="round" style="fill:none;stroke:#FF0000;stroke-width:8.64"/>
	<line x1="559.10" y1="2489.19" x2="559.10" y2="100.86" style="stroke:#000000;stroke-width:5.76"/>
	<line x1="559.10" y1="2375.46" x2="519.13" y2="2375.46" style="stroke:#000000;stroke-width:5.76"/>
	<text x="499.08" y="2410.48" style="font-family:'Helvetica';font-size:99.99px;fill:#000000" text-anchor="end">-0.06</text>
	<line x1="559.10" y1="1638.38" x2="519.13" y2="1638.38" style="stroke:#000000;stroke-width:5.76"/>
	<text x="499.08" y="1673.41" style="font-family:'Helvetica';font-size:99.99px;fill:#000000" text-anchor="end">-0.04</text>
	<line x1="559.10" y1="901.30" x2="519.13" y2="901.30" style="stroke:#000000;stroke-width:5.76"/>
	<text x="499.08" y="936.33" style="font-family:'Helvetica';font-size:99.99px;fill:#000000" text-anchor="end">-0.02</text>
	<line x1="559.10" y1="164.22" x2="519.13" y2="164.22" style="stroke:#000000;stroke-width:5.76"/>
	<text x="499.08" y="199.25" style="font-family:'Helvetica';font-size:99.99px;fill:#000000" text-anchor="end">0.00</text>
	<text x="190.71" y="1294.96" style="font-family:'Helvetica';font-size:99.99px;fill:#000000" transform="rotate(-90 190.71,1294.96)" text-anchor="middle">Difference in curves (%)</text>
	<line x1="559.10" y1="2489.19" x2="3859.02" y2="2489.19" style="stroke:#000000;stroke-width:5.76"/>
	<line x1="622.46" y1="2489.19" x2="622.46" y2="2529.16" style="stroke:#000000;stroke-width:5.76"/>
	<text x="622.46" y="2619.14" style="font-family:'Helvetica';font-size:99.99px;fill:#000000" text-anchor="middle">0</text>
	<line x1="1226.86" y1="2489.19" x2="1226.86" y2="2529.16" style="stroke:#000000;stroke-width:5.76"/>
	<text x="1226.86" y="2619.14" style="font-family:'Helvetica';font-size:99.99px;fill:#000000" text-anchor="middle">20</text>
	<line x1="1831.38" y1="2489.19" x2="1831.38" y2="2529.16" style="stroke:#000000;stroke-width:5.76"/>
	<text x="1831.38" y="2619.14" style="font-family:'Helvetica';font-size:99.99px;fill:#000000" text-anchor="middle">40</text>
	<line x1="2435.77" y1="2489.19" x2="2435.77" y2="2529.16" style="stroke:#000000;stroke-width:5.76"/>
	<text x="2435.77" y="2619.14" style="font-family:'Helvetica';font-size:99.99px;fill:#000000" text-anchor="middle">60</text>
	<line x1="3040.17" y1="2489.19" x2="3040.17" y2="2529.16" style="stroke:#000000;stroke-width:5.76"/>
	<text x="3040.17" y="2619.14" style="font-family:'Helvetica';font-size:99.99px;fill:#000000" text-anchor="middle">80</text>
	<line x1="3644.56" y1="2489.19" x2="3644.56" y2="2529.16" style="stroke:#000000;stroke-width:5.76"/>
	<text x="3644.56" y="2619.14" style="font-family:'Helvetica';font-size:99.99px;fill:#000000" text-anchor="middle">100</text>
	<text x="2209.06" y="2729.16" style="font-family:'Helvetica';font-size:99.99px;fill:#000000" text-anchor="middle">Days from 1 March 2020</text>
</svg>
