<?xml version="1.0" encoding="UTF-8" standalone="no"?>
<!-- This is a Stata 16.1 generated SVG file (http://www.stata.com) -->

<svg version="1.1" width="5.50in" height="4.00in" viewBox="0 0 3960 2880" xmlns="http://www.w3.org/2000/svg" xmlns:xlink="http://www.w3.org/1999/xlink">
	<desc>Stata Graph - Graph</desc>
	<rect x="0" y="0" width="3960" height="2880" style="fill:#EAF2F3;stroke:none"/>
	<rect x="0.00" y="0.00" width="3959.88" height="2880.00" style="fill:#FFFFFF"/>
	<rect x="2.88" y="2.88" width="3954.12" height="2874.24" style="fill:none;stroke:#EAF2F3;stroke-width:5.76"/>
	<rect x="1038.88" y="630.90" width="2802.94" height="1604.96" style="fill:#FFFFFF"/>
	<rect x="1041.76" y="633.78" width="2797.18" height="1599.20" style="fill:none;stroke:#FFFFFF;stroke-width:5.76"/>
	<line x1="1038.88" y1="2172.62" x2="3841.82" y2="2172.62" style="stroke:#EAF2F3;stroke-width:8.64"/>
	<line x1="1038.88" y1="1802.97" x2="3841.82" y2="1802.97" style="stroke:#EAF2F3;stroke-width:8.64"/>
	<line x1="1038.88" y1="1433.44" x2="3841.82" y2="1433.44" style="stroke:#EAF2F3;stroke-width:8.64"/>
	<line x1="1038.88" y1="1063.79" x2="3841.82" y2="1063.79" style="stroke:#EAF2F3;stroke-width:8.64"/>
	<path d=" M1102.24 2172.62 L1102.24 2172.62 L1102.24 2172.62 L1102.24 2172.62 L1102.24 2172.62 L1126.62 2172.62 L1126.62 2172.13 L1150.88 2172.13 L1150.88 2172.13 L1175.25 2172.13 L1175.25 2172.13 L1199.51 2172.13 L1199.51 2172.13 L1223.89 2172.13 L1223.89 2172.13 L1248.27 2172.13 L1248.27 2172.13 L1272.52 2172.13 L1272.52 2172.13 L1296.90 2172.13 L1296.90 2172.13 L1321.15 2172.13 L1321.15 2172.13 L1345.53 2172.13 L1345.53 2172.13 L1369.79 2172.13 L1369.79 2172.13 L1394.17 2172.13 L1394.17 2172.13 L1418.55 2172.13 L1418.55 2172.13 L1442.80 2172.13 L1442.80 2172.13 L1467.18 2172.13 L1467.18 2171.63 L1491.43 2171.63 L1491.43 2171.14 L1515.81 2171.14 L1515.81 2170.15 L1540.19 2170.15 L1540.19 2170.15 L1564.45 2170.15 L1564.45 2169.65 L1588.83 2169.65 L1588.83 2167.30 L1613.08 2167.30 L1613.08 2165.32 L1637.46 2165.32 L1637.46 2162.97 L1661.84 2162.97 L1661.84 2157.03 L1686.09 2157.03 L1686.09 2152.20 L1710.47 2152.20 L1710.47 2144.41 L1734.73 2144.41 L1734.73 2135.62 L1759.11 2135.62 L1759.11 2127.82 L1783.48 2127.82 L1783.48 2117.68 L1807.74 2117.68 L1807.74 2102.58 L1832.12 2102.58 L1832.12 2088.47 L1856.37 2088.47 L1856.37 2069.41 L1880.75 2069.41 L1880.75 2053.32 L1905.13 2053.32 L1905.13 2024.98 L1929.39 2024.98 L1929.39 1997.26 L1953.77 1997.26 L1953.77 1970.41 L1978.02 1970.41 L1978.02 1950.86 L2002.40 1950.86 L2002.40 1921.16 L2026.78 1921.16 L2026.78 1886.01 L2051.03 1886.01 L2051.03 1861.51 L2075.41 1861.51 L2075.41 1826.85 L2099.67 1826.85 L2099.67 1799.50 L2124.05 1799.50 L2124.05 1768.20 L2148.30 1768.20 L2148.30 1744.31 L2172.68 1744.31 L2172.68 1717.95 L2197.06 1717.95 L2197.06 1695.43 L2221.31 1695.43 L2221.31 1671.42 L2245.69 1671.42 L2245.69 1642.09 L2269.95 1642.09 L2269.95 1616.60 L2294.32 1616.60 L2294.32 1590.24 L2318.70 1590.24 L2318.70 1565.24 L2342.96 1565.24 L2342.96 1544.20 L2367.34 1544.20 L2367.34 1518.71 L2391.59 1518.71 L2391.59 1496.56 L2415.97 1496.56 L2415.97 1479.48 L2440.35 1479.48 L2440.35 1461.29 L2464.61 1461.29 L2464.61 1439.26 L2488.98 1439.26 L2488.98 1420.57 L2513.24 1420.57 L2513.24 1397.55 L2537.62 1397.55 L2537.62 1378.87 L2562.00 1378.87 L2562.00 1362.65 L2586.25 1362.65 L2586.25 1342.98 L2610.63 1342.98 L2610.63 1325.78 L2634.89 1325.78 L2634.89 1304.61 L2659.26 1304.61 L2659.26 1288.40 L2683.64 1288.40 L2683.64 1275.65 L2707.90 1275.65 L2707.90 1261.30 L2732.28 1261.30 L2732.28 1250.04 L2756.53 1250.04 L2756.53 1238.16 L2780.91 1238.16 L2780.91 1222.94 L2805.16 1222.94 L2805.16 1214.52 L2829.54 1214.52 L2829.54 1201.28 L2853.92 1201.28 L2853.92 1193.36 L2878.18 1193.36 L2878.18 1180.61 L2902.56 1180.61 L2902.56 1172.69 L2926.81 1172.69 L2926.81 1162.30 L2951.19 1162.30 L2951.19 1150.91 L2975.57 1150.91 L2975.57 1141.63 L2999.82 1141.63 L2999.82 1129.25 L3024.20 1129.25 L3024.20 1120.34 L3048.46 1120.34 L3048.46 1110.44 L3072.84 1110.44 L3072.84 1100.54 L3097.22 1100.54 L3097.22 1093.12 L3121.47 1093.12 L3121.47 1082.23 L3145.85 1082.23 L3145.85 1075.30 L3170.10 1075.30 L3170.10 1063.91 L3194.48 1063.91 L3194.48 1052.53 L3218.86 1052.53 L3218.86 1046.59 L3243.12 1046.59 L3243.12 1039.16 L3267.49 1039.16 L3267.49 1034.21 L3291.75 1034.21 L3291.75 1030.75 L3316.13 1030.75 L3316.13 1026.79 L3340.51 1026.79 L3340.51 1021.34 L3364.76 1021.34 L3364.76 1018.37 L3389.14 1018.37 L3389.14 1012.43 L3413.40 1012.43 L3413.40 1006.49 L3437.78 1006.49 L3437.78 1002.53 L3462.15 1002.53 L3462.15 999.06 L3486.41 999.06 L3486.41 994.11 L3510.79 994.11 L3510.79 990.15 L3535.04 990.15 L3535.04 986.07 L3559.42 986.07 L3559.42 983.10 L3583.68 983.10 L3583.68 978.15 L3608.05 978.15 L3608.05 976.17 L3632.43 976.17 L3632.43 973.70 L3656.69 973.70 L3656.69 971.22" stroke-linejoin="round" style="fill:none;stroke:#1A476F;stroke-width:8.64"/>
	<path d=" M1102.24 2172.62 L1102.24 2172.62 L1102.24 2172.62 L1102.24 2172.62 L1102.24 2172.62 L1150.88 2172.62 L1150.88 2172.62 L1223.89 2172.62 L1223.89 2172.62 L1248.27 2172.62 L1248.27 2172.62 L1272.52 2172.62 L1272.52 2172.62 L1296.90 2172.62 L1296.90 2172.62 L1321.15 2172.62 L1321.15 2172.62 L1345.53 2172.62 L1345.53 2172.62 L1369.79 2172.62 L1369.79 2172.62 L1418.55 2172.62 L1418.55 2172.62 L1442.80 2172.62 L1442.80 2172.62 L1467.18 2172.62 L1467.18 2172.62 L1491.43 2172.62 L1491.43 2172.62 L1515.81 2172.62 L1515.81 2172.62 L1540.19 2172.62 L1540.19 2172.62 L1564.45 2172.62 L1564.45 2172.62 L1588.83 2172.62 L1588.83 2172.62 L1613.08 2172.62 L1613.08 2172.62 L1637.46 2172.62 L1637.46 2172.62 L1661.84 2172.62 L1661.84 2172.62 L1686.09 2172.62 L1686.09 2172.62 L1710.47 2172.62 L1710.47 2172.62 L1734.73 2172.62 L1734.73 2172.62 L1759.11 2172.62 L1759.11 2172.62 L1807.74 2172.62 L1807.74 2172.62 L1832.12 2172.62 L1832.12 2138.71 L1856.37 2138.71 L1856.37 2071.02 L1905.13 2071.02 L1905.13 2071.02 L1929.39 2071.02 L1929.39 2037.11 L1953.77 2037.11 L1953.77 2003.33 L1978.02 2003.33 L1978.02 1969.42 L2002.40 1969.42 L2002.40 1935.51 L2026.78 1935.51 L2026.78 1901.73 L2099.67 1901.73 L2099.67 1901.73 L2124.05 1901.73 L2124.05 1867.82 L2172.68 1867.82 L2172.68 1867.82 L2197.06 1867.82 L2197.06 1867.82 L2221.31 1867.82 L2221.31 1867.82 L2269.95 1867.82 L2269.95 1867.82 L2294.32 1867.82 L2294.32 1833.91 L2318.70 1833.91 L2318.70 1833.91 L2342.96 1833.91 L2342.96 1800.00 L2391.59 1800.00 L2391.59 1766.09 L2440.35 1766.09 L2440.35 1766.09 L2464.61 1766.09 L2464.61 1766.09 L2488.98 1766.09 L2488.98 1698.27 L2513.24 1698.27 L2513.24 1664.37 L2537.62 1664.37 L2537.62 1630.46 L2562.00 1630.46 L2562.00 1630.46 L2586.25 1630.46 L2586.25 1630.46 L2610.63 1630.46 L2610.63 1630.46 L2634.89 1630.46 L2634.89 1630.46 L2659.26 1630.46 L2659.26 1596.55 L2683.64 1596.55 L2683.64 1596.55 L2732.28 1596.55 L2732.28 1596.55 L2780.91 1596.55 L2780.91 1596.55 L2853.92 1596.55 L2853.92 1528.73 L2878.18 1528.73 L2878.18 1494.82 L2999.82 1494.82 L2999.82 1460.79 L3048.46 1460.79 L3048.46 1426.88 L3072.84 1426.88 L3072.84 1426.88 L3097.22 1426.88 L3097.22 1426.88 L3121.47 1426.88 L3121.47 1426.88 L3145.85 1426.88 L3145.85 1426.88 L3194.48 1426.88 L3194.48 1426.88 L3218.86 1426.88 L3218.86 1426.88 L3291.75 1426.88 L3291.75 1426.88 L3340.51 1426.88 L3340.51 1426.88 L3364.76 1426.88 L3364.76 1426.88 L3389.14 1426.88 L3389.14 1392.97 L3437.78 1392.97 L3437.78 1358.94 L3462.15 1358.94 L3462.15 1358.94 L3510.79 1358.94 L3510.79 1358.94 L3583.68 1358.94 L3583.68 1358.94 L3608.05 1358.94 L3608.05 1358.94 L3632.43 1358.94 L3632.43 1358.94 L3656.69 1358.94 L3656.69 1358.94" stroke-linejoin="round" style="fill:none;stroke:#90353B;stroke-width:8.64"/>
	<path d=" M1102.24 2172.62 L1102.24 2172.62 L1102.24 2172.62 L1102.24 2172.62 L1102.24 2172.62 L1126.62 2172.62 L1126.62 2172.62 L1150.88 2172.62 L1150.88 2172.62 L1175.25 2172.62 L1175.25 2172.62 L1199.51 2172.62 L1199.51 2172.62 L1223.89 2172.62 L1223.89 2172.62 L1248.27 2172.62 L1248.27 2172.62 L1272.52 2172.62 L1272.52 2172.62 L1296.90 2172.62 L1296.90 2172.62 L1321.15 2172.62 L1321.15 2172.62 L1345.53 2172.62 L1345.53 2172.62 L1369.79 2172.62 L1369.79 2172.62 L1394.17 2172.62 L1394.17 2172.62 L1418.55 2172.62 L1418.55 2172.62 L1442.80 2172.62 L1442.80 2172.62 L1467.18 2172.62 L1467.18 2172.62 L1491.43 2172.62 L1491.43 2172.62 L1515.81 2172.62 L1515.81 2172.62 L1540.19 2172.62 L1540.19 2172.62 L1564.45 2172.62 L1564.45 2172.62 L1588.83 2172.62 L1588.83 2172.62 L1613.08 2172.62 L1613.08 2167.80 L1637.46 2167.80 L1637.46 2162.97 L1661.84 2162.97 L1661.84 2158.14 L1686.09 2158.14 L1686.09 2153.32 L1710.47 2153.32 L1710.47 2153.32 L1734.73 2153.32 L1734.73 2153.32 L1759.11 2153.32 L1759.11 2153.32 L1783.48 2153.32 L1783.48 2153.32 L1807.74 2153.32 L1807.74 2138.96 L1832.12 2138.96 L1832.12 2138.96 L1856.37 2138.96 L1856.37 2129.31 L1880.75 2129.31 L1880.75 2124.48 L1905.13 2124.48 L1905.13 2105.18 L1929.39 2105.18 L1929.39 2100.35 L1953.77 2100.35 L1953.77 2090.82 L1978.02 2090.82 L1978.02 2086.00 L2002.40 2086.00 L2002.40 2066.69 L2026.78 2066.69 L2026.78 2057.04 L2051.03 2057.04 L2051.03 2028.20 L2075.41 2028.20 L2075.41 1999.24 L2099.67 1999.24 L2099.67 1989.59 L2124.05 1989.59 L2124.05 1965.58 L2148.30 1965.58 L2148.30 1951.10 L2172.68 1951.10 L2172.68 1946.28 L2197.06 1946.28 L2197.06 1936.62 L2221.31 1936.62 L2221.31 1931.80 L2245.69 1931.80 L2245.69 1922.15 L2269.95 1922.15 L2269.95 1912.49 L2294.32 1912.49 L2294.32 1898.14 L2318.70 1898.14 L2318.70 1878.83 L2342.96 1878.83 L2342.96 1869.18 L2367.34 1869.18 L2367.34 1869.18 L2391.59 1869.18 L2391.59 1864.35 L2415.97 1864.35 L2415.97 1854.70 L2440.35 1854.70 L2440.35 1849.87 L2464.61 1849.87 L2464.61 1835.39 L2488.98 1835.39 L2488.98 1821.04 L2513.24 1821.04 L2513.24 1811.39 L2537.62 1811.39 L2537.62 1806.56 L2562.00 1806.56 L2562.00 1801.73 L2610.63 1801.73 L2610.63 1801.73 L2634.89 1801.73 L2634.89 1796.91 L2659.26 1796.91 L2659.26 1792.08 L2683.64 1792.08 L2683.64 1772.77 L2707.90 1772.77 L2707.90 1772.77 L2732.28 1772.77 L2732.28 1767.95 L2756.53 1767.95 L2756.53 1767.95 L2780.91 1767.95 L2780.91 1758.29 L2805.16 1758.29 L2805.16 1758.29 L2829.54 1758.29 L2829.54 1758.29 L2853.92 1758.29 L2853.92 1753.47 L2878.18 1753.47 L2878.18 1753.47 L2902.56 1753.47 L2902.56 1748.64 L2926.81 1748.64 L2926.81 1748.64 L2951.19 1748.64 L2951.19 1743.82 L2975.57 1743.82 L2975.57 1738.99 L2999.82 1738.99 L2999.82 1734.29 L3024.20 1734.29 L3024.20 1734.29 L3048.46 1734.29 L3048.46 1729.46 L3072.84 1729.46 L3072.84 1729.46 L3097.22 1729.46 L3097.22 1729.46 L3121.47 1729.46 L3121.47 1729.46 L3145.85 1729.46 L3145.85 1729.46 L3170.10 1729.46 L3170.10 1724.63 L3194.48 1724.63 L3194.48 1719.81 L3218.86 1719.81 L3218.86 1719.81 L3243.12 1719.81 L3243.12 1719.81 L3267.49 1719.81 L3267.49 1719.81 L3316.13 1719.81 L3316.13 1719.81 L3340.51 1719.81 L3340.51 1714.98 L3364.76 1714.98 L3364.76 1714.98 L3389.14 1714.98 L3389.14 1710.15 L3437.78 1710.15 L3437.78 1710.15 L3462.15 1710.15 L3462.15 1710.15 L3486.41 1710.15 L3486.41 1710.15 L3510.79 1710.15 L3510.79 1710.15 L3535.04 1710.15 L3535.04 1710.15 L3559.42 1710.15 L3559.42 1710.15 L3583.68 1710.15 L3583.68 1710.15 L3608.05 1710.15 L3608.05 1700.50 L3632.43 1700.50 L3632.43 1700.50 L3656.69 1700.50 L3656.69 1695.68" stroke-linejoin="round" style="fill:none;stroke:#55752F;stroke-width:8.64"/>
	<line x1="1038.88" y1="2235.86" x2="1038.88" y2="630.90" style="stroke:#000000;stroke-width:5.76"/>
	<line x1="1038.88" y1="2172.62" x2="998.91" y2="2172.62" style="stroke:#000000;stroke-width:5.76"/>
	<text x="978.99" y="2200.63" style="font-family:'Helvetica';font-size:79.94px;fill:#000000" text-anchor="end">0.0000</text>
	<line x1="1038.88" y1="1802.97" x2="998.91" y2="1802.97" style="stroke:#000000;stroke-width:5.76"/>
	<text x="978.99" y="1830.98" style="font-family:'Helvetica';font-size:79.94px;fill:#000000" text-anchor="end">0.0005</text>
	<line x1="1038.88" y1="1433.44" x2="998.91" y2="1433.44" style="stroke:#000000;stroke-width:5.76"/>
	<text x="978.99" y="1461.45" style="font-family:'Helvetica';font-size:79.94px;fill:#000000" text-anchor="end">0.0010</text>
	<line x1="1038.88" y1="1063.79" x2="998.91" y2="1063.79" style="stroke:#000000;stroke-width:5.76"/>
	<text x="978.99" y="1091.80" style="font-family:'Helvetica';font-size:79.94px;fill:#000000" text-anchor="end">0.0015</text>
	<line x1="1038.88" y1="694.26" x2="998.91" y2="694.26" style="stroke:#000000;stroke-width:5.76"/>
	<text x="978.99" y="722.27" style="font-family:'Helvetica';font-size:79.94px;fill:#000000" text-anchor="end">0.0020</text>
	<text x="1102.24" y="2747.83" style="font-family:'Helvetica';font-size:60.02px;fill:#000000" text-anchor="middle">153618</text>
	<text x="1588.83" y="2747.83" style="font-family:'Helvetica';font-size:60.02px;fill:#000000" text-anchor="middle">153542</text>
	<text x="2075.41" y="2747.83" style="font-family:'Helvetica';font-size:60.02px;fill:#000000" text-anchor="middle">153424</text>
	<text x="2562.00" y="2747.83" style="font-family:'Helvetica';font-size:60.02px;fill:#000000" text-anchor="middle">153300</text>
	<text x="3048.58" y="2747.83" style="font-family:'Helvetica';font-size:60.02px;fill:#000000" text-anchor="middle">153223</text>
	<text x="3535.17" y="2747.83" style="font-family:'Helvetica';font-size:60.02px;fill:#000000" text-anchor="middle">153158</text>
	<text x="968.47" y="2747.83" style="font-family:'Helvetica';font-size:60.02px;fill:#000000" text-anchor="end">Other NSAIDs</text>
	<text x="1102.24" y="2674.44" style="font-family:'Helvetica';font-size:60.02px;fill:#000000" text-anchor="middle">21877</text>
	<text x="1588.83" y="2674.44" style="font-family:'Helvetica';font-size:60.02px;fill:#000000" text-anchor="middle">21848</text>
	<text x="2075.41" y="2674.44" style="font-family:'Helvetica';font-size:60.02px;fill:#000000" text-anchor="middle">21812</text>
	<text x="2562.00" y="2674.44" style="font-family:'Helvetica';font-size:60.02px;fill:#000000" text-anchor="middle">21781</text>
	<text x="3048.58" y="2674.44" style="font-family:'Helvetica';font-size:60.02px;fill:#000000" text-anchor="middle">21761</text>
	<text x="3535.17" y="2674.44" style="font-family:'Helvetica';font-size:60.02px;fill:#000000" text-anchor="middle">21734</text>
	<text x="968.47" y="2674.44" style="font-family:'Helvetica';font-size:60.02px;fill:#000000" text-anchor="end">Ibuprofen</text>
	<text x="1102.24" y="2601.18" style="font-family:'Helvetica';font-size:60.02px;fill:#000000" text-anchor="middle">1533286</text>
	<text x="1588.83" y="2601.18" style="font-family:'Helvetica';font-size:60.02px;fill:#000000" text-anchor="middle">1520744</text>
	<text x="2075.41" y="2601.18" style="font-family:'Helvetica';font-size:60.02px;fill:#000000" text-anchor="middle">1512444</text>
	<text x="2562.00" y="2601.18" style="font-family:'Helvetica';font-size:60.02px;fill:#000000" text-anchor="middle">1503127</text>
	<text x="3048.58" y="2601.18" style="font-family:'Helvetica';font-size:60.02px;fill:#000000" text-anchor="middle">1493798</text>
	<text x="3535.17" y="2601.18" style="font-family:'Helvetica';font-size:60.02px;fill:#000000" text-anchor="middle">1484805</text>
	<text x="968.47" y="2601.18" style="font-family:'Helvetica';font-size:60.02px;fill:#000000" text-anchor="end">Non-current exposure to NSAIDs</text>
	<text x="968.47" y="2527.80" style="font-family:'Helvetica';font-size:60.02px;fill:#000000" text-anchor="end">Number at risk</text>
	<line x1="1038.88" y1="2235.86" x2="3841.82" y2="2235.86" style="stroke:#000000;stroke-width:5.76"/>
	<line x1="1102.24" y1="2235.86" x2="1102.24" y2="2275.96" style="stroke:#000000;stroke-width:5.76"/>
	<text x="1102.24" y="2351.78" style="font-family:'Helvetica';font-size:79.94px;fill:#000000" text-anchor="middle">0</text>
	<line x1="1588.83" y1="2235.86" x2="1588.83" y2="2275.96" style="stroke:#000000;stroke-width:5.76"/>
	<text x="1588.83" y="2351.78" style="font-family:'Helvetica';font-size:79.94px;fill:#000000" text-anchor="middle">20</text>
	<line x1="2075.41" y1="2235.86" x2="2075.41" y2="2275.96" style="stroke:#000000;stroke-width:5.76"/>
	<text x="2075.41" y="2351.78" style="font-family:'Helvetica';font-size:79.94px;fill:#000000" text-anchor="middle">40</text>
	<line x1="2562.00" y1="2235.86" x2="2562.00" y2="2275.96" style="stroke:#000000;stroke-width:5.76"/>
	<text x="2562.00" y="2351.78" style="font-family:'Helvetica';font-size:79.94px;fill:#000000" text-anchor="middle">60</text>
	<line x1="3048.58" y1="2235.86" x2="3048.58" y2="2275.96" style="stroke:#000000;stroke-width:5.76"/>
	<text x="3048.58" y="2351.78" style="font-family:'Helvetica';font-size:79.94px;fill:#000000" text-anchor="middle">80</text>
	<line x1="3535.17" y1="2235.86" x2="3535.17" y2="2275.96" style="stroke:#000000;stroke-width:5.76"/>
	<text x="3535.17" y="2351.78" style="font-family:'Helvetica';font-size:79.94px;fill:#000000" text-anchor="middle">100</text>
	<text x="2440.35" y="2441.87" style="font-family:'Helvetica';font-size:79.94px;fill:#000000" text-anchor="middle">Days since 1 Mar 2020</text>
	<rect x="1309.15" y="269.91" width="2262.40" height="326.46" style="fill:#FFFFFF"/>
	<rect x="1312.03" y="272.79" width="2256.64" height="320.70" style="fill:none;stroke:#EAF2F3;stroke-width:5.76"/>
	<line x1="1352.34" y1="363.09" x2="1726.81" y2="363.09" style="stroke:#1A476F;stroke-width:8.64"/>
	<line x1="2833.26" y1="363.09" x2="3207.60" y2="363.09" style="stroke:#90353B;stroke-width:8.64"/>
	<line x1="1352.34" y1="503.06" x2="1726.81" y2="503.06" style="stroke:#55752F;stroke-width:8.64"/>
	<text x="1786.83" y="384.13" style="font-family:'Helvetica';font-size:60.02px;fill:#000000">Non-current exposure to NSAIDs</text>
	<text x="3267.62" y="384.13" style="font-family:'Helvetica';font-size:60.02px;fill:#000000">Ibuprofen</text>
	<text x="1786.83" y="524.10" style="font-family:'Helvetica';font-size:60.02px;fill:#000000">Other NSAIDs</text>
	<text x="1056.21" y="187.99" style="font-family:'Helvetica';font-size:99.99px;fill:#1E2D53">Time to death, Rheumatoid_arthritis_&amp;_osteoarthritis population</text>
</svg>
