<?xml version="1.0" encoding="UTF-8" standalone="no"?>
<!-- This is a Stata 16.1 generated SVG file (http://www.stata.com) -->

<svg version="1.1" width="5.50in" height="4.00in" viewBox="0 0 3960 2880" xmlns="http://www.w3.org/2000/svg" xmlns:xlink="http://www.w3.org/1999/xlink">
	<desc>Stata Graph - Graph</desc>
	<rect x="0" y="0" width="3960" height="2880" style="fill:#EAF2F3;stroke:none"/>
	<rect x="0.00" y="0.00" width="3959.88" height="2880.00" style="fill:#FFFFFF"/>
	<rect x="2.88" y="2.88" width="3954.12" height="2874.24" style="fill:none;stroke:#EAF2F3;stroke-width:5.76"/>
	<rect x="1038.88" y="630.90" width="2802.94" height="1531.70" style="fill:#FFFFFF"/>
	<rect x="1041.76" y="633.78" width="2797.18" height="1525.94" style="fill:none;stroke:#FFFFFF;stroke-width:5.76"/>
	<line x1="1038.88" y1="2099.24" x2="3841.82" y2="2099.24" style="stroke:#EAF2F3;stroke-width:8.64"/>
	<line x1="1038.88" y1="1748.02" x2="3841.82" y2="1748.02" style="stroke:#EAF2F3;stroke-width:8.64"/>
	<line x1="1038.88" y1="1396.69" x2="3841.82" y2="1396.69" style="stroke:#EAF2F3;stroke-width:8.64"/>
	<line x1="1038.88" y1="1045.47" x2="3841.82" y2="1045.47" style="stroke:#EAF2F3;stroke-width:8.64"/>
	<path d=" M1102.24 2099.24 L1102.24 2099.24 L1102.24 2099.24 L1102.24 2099.24 L1102.24 2099.24 L1102.24 2099.24 L1102.24 2099.24 L1126.62 2099.24 L1126.62 2098.87 L1150.88 2098.87 L1150.88 2098.87 L1175.25 2098.87 L1175.25 2098.87 L1199.51 2098.87 L1199.51 2098.87 L1223.89 2098.87 L1223.89 2098.87 L1248.27 2098.87 L1248.27 2098.87 L1272.52 2098.87 L1272.52 2098.87 L1296.90 2098.87 L1296.90 2098.87 L1321.15 2098.87 L1321.15 2098.87 L1345.53 2098.87 L1345.53 2098.87 L1369.79 2098.87 L1369.79 2098.87 L1394.17 2098.87 L1394.17 2098.87 L1418.55 2098.87 L1418.55 2098.87 L1442.80 2098.87 L1442.80 2098.87 L1467.18 2098.87 L1467.18 2098.37 L1491.43 2098.37 L1491.43 2097.88 L1515.81 2097.88 L1515.81 2097.01 L1540.19 2097.01 L1540.19 2097.01 L1564.45 2097.01 L1564.45 2096.51 L1588.83 2096.51 L1588.83 2094.16 L1613.08 2094.16 L1613.08 2092.43 L1637.46 2092.43 L1637.46 2090.08 L1661.84 2090.08 L1661.84 2084.51 L1686.09 2084.51 L1686.09 2079.93 L1710.47 2079.93 L1710.47 2072.51 L1734.73 2072.51 L1734.73 2064.21 L1759.11 2064.21 L1759.11 2056.79 L1783.48 2056.79 L1783.48 2047.01 L1807.74 2047.01 L1807.74 2032.66 L1832.12 2032.66 L1832.12 2019.29 L1856.37 2019.29 L1856.37 2001.22 L1880.75 2001.22 L1880.75 1985.88 L1905.13 1985.88 L1905.13 1959.02 L1929.39 1959.02 L1929.39 1932.66 L1953.77 1932.66 L1953.77 1907.05 L1978.02 1907.05 L1978.02 1888.61 L2002.40 1888.61 L2002.40 1860.27 L2026.78 1860.27 L2026.78 1826.85 L2051.03 1826.85 L2051.03 1803.59 L2075.41 1803.59 L2075.41 1770.67 L2099.67 1770.67 L2099.67 1744.68 L2124.05 1744.68 L2124.05 1714.98 L2148.30 1714.98 L2148.30 1692.21 L2172.68 1692.21 L2172.68 1667.09 L2197.06 1667.09 L2197.06 1645.68 L2221.31 1645.68 L2221.31 1622.91 L2245.69 1622.91 L2245.69 1595.06 L2269.95 1595.06 L2269.95 1570.81 L2294.32 1570.81 L2294.32 1545.69 L2318.70 1545.69 L2318.70 1522.05 L2342.96 1522.05 L2342.96 1502.00 L2367.34 1502.00 L2367.34 1477.74 L2391.59 1477.74 L2391.59 1456.83 L2415.97 1456.83 L2415.97 1440.50 L2440.35 1440.50 L2440.35 1423.29 L2464.61 1423.29 L2464.61 1402.26 L2488.98 1402.26 L2488.98 1384.56 L2513.24 1384.56 L2513.24 1362.65 L2537.62 1362.65 L2537.62 1344.83 L2562.00 1344.83 L2562.00 1329.49 L2586.25 1329.49 L2586.25 1310.80 L2610.63 1310.80 L2610.63 1294.47 L2634.89 1294.47 L2634.89 1274.42 L2659.26 1274.42 L2659.26 1258.95 L2683.64 1258.95 L2683.64 1246.82 L2707.90 1246.82 L2707.90 1233.21 L2732.28 1233.21 L2732.28 1222.44 L2756.53 1222.44 L2756.53 1211.18 L2780.91 1211.18 L2780.91 1196.70 L2805.16 1196.70 L2805.16 1188.78 L2829.54 1188.78 L2829.54 1176.16 L2853.92 1176.16 L2853.92 1168.61 L2878.18 1168.61 L2878.18 1156.48 L2902.56 1156.48 L2902.56 1148.93 L2926.81 1148.93 L2926.81 1139.15 L2951.19 1139.15 L2951.19 1128.26 L2975.57 1128.26 L2975.57 1119.35 L2999.82 1119.35 L2999.82 1107.72 L3024.20 1107.72 L3024.20 1099.18 L3048.46 1099.18 L3048.46 1089.78 L3072.84 1089.78 L3072.84 1080.37 L3097.22 1080.37 L3097.22 1073.32 L3121.47 1073.32 L3121.47 1063.05 L3145.85 1063.05 L3145.85 1056.49 L3170.10 1056.49 L3170.10 1045.60 L3194.48 1045.60 L3194.48 1034.83 L3218.86 1034.83 L3218.86 1029.14 L3243.12 1029.14 L3243.12 1022.08 L3267.49 1022.08 L3267.49 1017.38 L3291.75 1017.38 L3291.75 1014.16 L3316.13 1014.16 L3316.13 1010.33 L3340.51 1010.33 L3340.51 1005.13 L3364.76 1005.13 L3364.76 1002.28 L3389.14 1002.28 L3389.14 996.71 L3413.40 996.71 L3413.40 991.02 L3437.78 991.02 L3437.78 987.18 L3462.15 987.18 L3462.15 983.97 L3486.41 983.97 L3486.41 979.26 L3510.79 979.26 L3510.79 975.43 L3535.04 975.43 L3535.04 971.59 L3559.42 971.59 L3559.42 968.87 L3583.68 968.87 L3583.68 964.04 L3608.05 964.04 L3608.05 962.19 L3632.43 962.19 L3632.43 959.83 L3656.69 959.83 L3656.69 957.48" stroke-linejoin="round" style="fill:none;stroke:#1A476F;stroke-width:8.64"/>
	<path d=" M1102.24 2099.24 L1102.24 2099.24 L1102.24 2099.24 L1102.24 2099.24 L1102.24 2099.24 L1102.24 2099.24 L1102.24 2099.24 L1126.62 2099.24 L1126.62 2099.24 L1150.88 2099.24 L1150.88 2099.24 L1223.89 2099.24 L1223.89 2099.24 L1321.15 2099.24 L1321.15 2099.24 L1369.79 2099.24 L1369.79 2099.24 L1394.17 2099.24 L1394.17 2099.24 L1418.55 2099.24 L1418.55 2099.24 L1442.80 2099.24 L1442.80 2099.24 L1467.18 2099.24 L1467.18 2099.24 L1491.43 2099.24 L1491.43 2099.24 L1515.81 2099.24 L1515.81 2099.24 L1540.19 2099.24 L1540.19 2099.24 L1564.45 2099.24 L1564.45 2099.24 L1613.08 2099.24 L1613.08 2099.24 L1661.84 2099.24 L1661.84 2079.81 L1710.47 2079.81 L1710.47 2079.81 L1734.73 2079.81 L1734.73 2079.81 L1783.48 2079.81 L1783.48 2079.81 L1807.74 2079.81 L1807.74 2060.38 L1832.12 2060.38 L1832.12 2060.38 L1856.37 2060.38 L1856.37 2040.95 L1905.13 2040.95 L1905.13 2021.52 L1929.39 2021.52 L1929.39 2021.52 L1953.77 2021.52 L1953.77 2001.97 L1978.02 2001.97 L1978.02 2001.97 L2002.40 2001.97 L2002.40 1963.11 L2026.78 1963.11 L2026.78 1943.68 L2051.03 1943.68 L2051.03 1943.68 L2075.41 1943.68 L2075.41 1885.27 L2099.67 1885.27 L2099.67 1865.84 L2124.05 1865.84 L2124.05 1846.28 L2148.30 1846.28 L2148.30 1807.43 L2172.68 1807.43 L2172.68 1807.43 L2197.06 1807.43 L2197.06 1807.43 L2221.31 1807.43 L2221.31 1807.43 L2245.69 1807.43 L2245.69 1787.87 L2294.32 1787.87 L2294.32 1768.44 L2342.96 1768.44 L2342.96 1768.44 L2391.59 1768.44 L2391.59 1749.01 L2440.35 1749.01 L2440.35 1749.01 L2464.61 1749.01 L2464.61 1749.01 L2488.98 1749.01 L2488.98 1729.46 L2513.24 1729.46 L2513.24 1729.46 L2537.62 1729.46 L2537.62 1729.46 L2562.00 1729.46 L2562.00 1710.03 L2610.63 1710.03 L2610.63 1710.03 L2634.89 1710.03 L2634.89 1710.03 L2683.64 1710.03 L2683.64 1651.62 L2707.90 1651.62 L2707.90 1651.62 L2732.28 1651.62 L2732.28 1651.62 L2756.53 1651.62 L2756.53 1651.62 L2780.91 1651.62 L2780.91 1632.07 L2829.54 1632.07 L2829.54 1632.07 L2853.92 1632.07 L2853.92 1612.64 L2878.18 1612.64 L2878.18 1612.64 L2926.81 1612.64 L2926.81 1612.64 L2975.57 1612.64 L2975.57 1593.08 L3072.84 1593.08 L3072.84 1593.08 L3121.47 1593.08 L3121.47 1593.08 L3170.10 1593.08 L3170.10 1593.08 L3194.48 1593.08 L3194.48 1573.65 L3218.86 1573.65 L3218.86 1573.65 L3267.49 1573.65 L3267.49 1573.65 L3316.13 1573.65 L3316.13 1573.65 L3364.76 1573.65 L3364.76 1573.65 L3389.14 1573.65 L3389.14 1573.65 L3437.78 1573.65 L3437.78 1573.65 L3462.15 1573.65 L3462.15 1573.65 L3559.42 1573.65 L3559.42 1573.65 L3608.05 1573.65 L3608.05 1554.10 L3632.43 1554.10 L3632.43 1554.10 L3656.69 1554.10 L3656.69 1534.67" stroke-linejoin="round" style="fill:none;stroke:#90353B;stroke-width:8.64"/>
	<path d=" M1102.24 2099.24 L1102.24 2099.24 L1102.24 2099.24 L1102.24 2099.24 L1102.24 2099.24 L1102.24 2099.24 L1102.24 2099.24 L1126.62 2099.24 L1126.62 2099.24 L1150.88 2099.24 L1150.88 2099.24 L1175.25 2099.24 L1175.25 2099.24 L1199.51 2099.24 L1199.51 2099.24 L1223.89 2099.24 L1223.89 2099.24 L1248.27 2099.24 L1248.27 2099.24 L1296.90 2099.24 L1296.90 2099.24 L1321.15 2099.24 L1321.15 2099.24 L1345.53 2099.24 L1345.53 2099.24 L1369.79 2099.24 L1369.79 2099.24 L1394.17 2099.24 L1394.17 2099.24 L1418.55 2099.24 L1418.55 2099.24 L1491.43 2099.24 L1491.43 2099.24 L1540.19 2099.24 L1540.19 2099.24 L1564.45 2099.24 L1564.45 2099.24 L1588.83 2099.24 L1588.83 2099.24 L1613.08 2099.24 L1613.08 2090.70 L1637.46 2090.70 L1637.46 2082.16 L1661.84 2082.16 L1661.84 2082.16 L1686.09 2082.16 L1686.09 2073.62 L1710.47 2073.62 L1710.47 2073.62 L1734.73 2073.62 L1734.73 2073.62 L1759.11 2073.62 L1759.11 2073.62 L1783.48 2073.62 L1783.48 2073.62 L1807.74 2073.62 L1807.74 2056.54 L1832.12 2056.54 L1832.12 2056.54 L1856.37 2056.54 L1856.37 2056.54 L1880.75 2056.54 L1880.75 2048.00 L1905.13 2048.00 L1905.13 2048.00 L1929.39 2048.00 L1929.39 2048.00 L1953.77 2048.00 L1953.77 2039.46 L1978.02 2039.46 L1978.02 2030.92 L2002.40 2030.92 L2002.40 2022.39 L2026.78 2022.39 L2026.78 2013.85 L2051.03 2013.85 L2051.03 1988.23 L2075.41 1988.23 L2075.41 1962.61 L2099.67 1962.61 L2099.67 1954.07 L2124.05 1954.07 L2124.05 1945.53 L2148.30 1945.53 L2148.30 1937.00 L2172.68 1937.00 L2172.68 1928.46 L2197.06 1928.46 L2197.06 1928.46 L2221.31 1928.46 L2221.31 1919.92 L2269.95 1919.92 L2269.95 1911.38 L2294.32 1911.38 L2294.32 1894.30 L2318.70 1894.30 L2318.70 1860.02 L2342.96 1860.02 L2342.96 1842.94 L2367.34 1842.94 L2367.34 1842.94 L2391.59 1842.94 L2391.59 1842.94 L2415.97 1842.94 L2415.97 1834.40 L2440.35 1834.40 L2440.35 1825.86 L2464.61 1825.86 L2464.61 1817.33 L2488.98 1817.33 L2488.98 1817.33 L2513.24 1817.33 L2513.24 1808.79 L2537.62 1808.79 L2537.62 1808.79 L2562.00 1808.79 L2562.00 1808.79 L2610.63 1808.79 L2610.63 1808.79 L2634.89 1808.79 L2634.89 1800.25 L2659.26 1800.25 L2659.26 1791.71 L2683.64 1791.71 L2683.64 1783.17 L2707.90 1783.17 L2707.90 1783.17 L2732.28 1783.17 L2732.28 1774.63 L2756.53 1774.63 L2756.53 1774.63 L2780.91 1774.63 L2780.91 1766.09 L2829.54 1766.09 L2829.54 1766.09 L2853.92 1766.09 L2853.92 1766.09 L2878.18 1766.09 L2878.18 1766.09 L2902.56 1766.09 L2902.56 1757.55 L2926.81 1757.55 L2926.81 1757.55 L2951.19 1757.55 L2951.19 1757.55 L2975.57 1757.55 L2975.57 1757.55 L2999.82 1757.55 L2999.82 1749.01 L3024.20 1749.01 L3024.20 1749.01 L3048.46 1749.01 L3048.46 1740.35 L3072.84 1740.35 L3072.84 1740.35 L3121.47 1740.35 L3121.47 1740.35 L3145.85 1740.35 L3145.85 1740.35 L3170.10 1740.35 L3170.10 1731.81 L3194.48 1731.81 L3194.48 1731.81 L3218.86 1731.81 L3218.86 1731.81 L3243.12 1731.81 L3243.12 1731.81 L3267.49 1731.81 L3267.49 1731.81 L3316.13 1731.81 L3316.13 1731.81 L3340.51 1731.81 L3340.51 1731.81 L3364.76 1731.81 L3364.76 1731.81 L3389.14 1731.81 L3389.14 1723.27 L3437.78 1723.27 L3437.78 1723.27 L3462.15 1723.27 L3462.15 1723.27 L3486.41 1723.27 L3486.41 1723.27 L3510.79 1723.27 L3510.79 1723.27 L3535.04 1723.27 L3535.04 1723.27 L3559.42 1723.27 L3559.42 1723.27 L3583.68 1723.27 L3583.68 1723.27 L3656.69 1723.27 L3656.69 1723.27" stroke-linejoin="round" style="fill:none;stroke:#55752F;stroke-width:8.64"/>
	<path d=" M1102.24 2099.24 L1102.24 2099.24 L1102.24 2099.24 L1102.24 2099.24 L1102.24 2099.24 L1102.24 2099.24 L1102.24 2099.24 L1126.62 2099.24 L1126.62 2099.24 L1150.88 2099.24 L1150.88 2099.24 L1199.51 2099.24 L1199.51 2099.24 L1223.89 2099.24 L1223.89 2099.24 L1248.27 2099.24 L1248.27 2099.24 L1272.52 2099.24 L1272.52 2099.24 L1296.90 2099.24 L1296.90 2099.24 L1321.15 2099.24 L1321.15 2099.24 L1345.53 2099.24 L1345.53 2099.24 L1369.79 2099.24 L1369.79 2099.24 L1418.55 2099.24 L1418.55 2099.24 L1442.80 2099.24 L1442.80 2099.24 L1467.18 2099.24 L1467.18 2099.24 L1491.43 2099.24 L1491.43 2099.24 L1515.81 2099.24 L1515.81 2099.24 L1540.19 2099.24 L1540.19 2099.24 L1564.45 2099.24 L1564.45 2099.24 L1588.83 2099.24 L1588.83 2099.24 L1613.08 2099.24 L1613.08 2099.24 L1637.46 2099.24 L1637.46 2099.24 L1661.84 2099.24 L1661.84 2099.24 L1686.09 2099.24 L1686.09 2099.24 L1710.47 2099.24 L1710.47 2099.24 L1734.73 2099.24 L1734.73 2099.24 L1759.11 2099.24 L1759.11 2099.24 L1807.74 2099.24 L1807.74 2099.24 L1832.12 2099.24 L1832.12 2086.99 L1856.37 2086.99 L1856.37 2049.98 L1880.75 2049.98 L1880.75 2049.98 L1905.13 2049.98 L1905.13 2012.98 L1929.39 2012.98 L1929.39 1988.35 L1953.77 1988.35 L1953.77 1975.98 L1978.02 1975.98 L1978.02 1963.60 L2002.40 1963.60 L2002.40 1938.98 L2026.78 1938.98 L2026.78 1926.60 L2051.03 1926.60 L2051.03 1889.60 L2099.67 1889.60 L2099.67 1889.60 L2124.05 1889.60 L2124.05 1840.34 L2148.30 1840.34 L2148.30 1840.34 L2172.68 1840.34 L2172.68 1840.34 L2197.06 1840.34 L2197.06 1815.59 L2221.31 1815.59 L2221.31 1815.59 L2245.69 1815.59 L2245.69 1803.34 L2269.95 1803.34 L2269.95 1790.97 L2294.32 1790.97 L2294.32 1778.59 L2318.70 1778.59 L2318.70 1778.59 L2342.96 1778.59 L2342.96 1766.34 L2367.34 1766.34 L2367.34 1766.34 L2391.59 1766.34 L2391.59 1753.96 L2415.97 1753.96 L2415.97 1741.59 L2440.35 1741.59 L2440.35 1741.59 L2464.61 1741.59 L2464.61 1716.96 L2488.98 1716.96 L2488.98 1667.58 L2513.24 1667.58 L2513.24 1642.83 L2537.62 1642.83 L2537.62 1618.21 L2562.00 1618.21 L2562.00 1618.21 L2586.25 1618.21 L2586.25 1618.21 L2610.63 1618.21 L2610.63 1618.21 L2634.89 1618.21 L2634.89 1618.21 L2659.26 1618.21 L2659.26 1605.83 L2683.64 1605.83 L2683.64 1605.83 L2707.90 1605.83 L2707.90 1605.83 L2732.28 1605.83 L2732.28 1605.83 L2756.53 1605.83 L2756.53 1605.83 L2780.91 1605.83 L2780.91 1605.83 L2805.16 1605.83 L2805.16 1605.83 L2829.54 1605.83 L2829.54 1605.83 L2853.92 1605.83 L2853.92 1581.20 L2878.18 1581.20 L2878.18 1568.83 L2951.19 1568.83 L2951.19 1556.45 L2999.82 1556.45 L2999.82 1544.08 L3024.20 1544.08 L3024.20 1544.08 L3048.46 1544.08 L3048.46 1531.70 L3072.84 1531.70 L3072.84 1531.70 L3097.22 1531.70 L3097.22 1531.70 L3121.47 1531.70 L3121.47 1531.70 L3145.85 1531.70 L3145.85 1531.70 L3194.48 1531.70 L3194.48 1531.70 L3218.86 1531.70 L3218.86 1531.70 L3243.12 1531.70 L3243.12 1531.70 L3291.75 1531.70 L3291.75 1531.70 L3316.13 1531.70 L3316.13 1531.70 L3340.51 1531.70 L3340.51 1519.45 L3364.76 1519.45 L3364.76 1519.45 L3389.14 1519.45 L3389.14 1507.07 L3437.78 1507.07 L3437.78 1494.70 L3462.15 1494.70 L3462.15 1494.70 L3486.41 1494.70 L3486.41 1494.70 L3510.79 1494.70 L3510.79 1494.70 L3583.68 1494.70 L3583.68 1494.70 L3608.05 1494.70 L3608.05 1482.32 L3632.43 1482.32 L3632.43 1482.32 L3656.69 1482.32 L3656.69 1482.32" stroke-linejoin="round" style="fill:none;stroke:#E37E00;stroke-width:8.64"/>
	<line x1="1038.88" y1="2162.60" x2="1038.88" y2="630.90" style="stroke:#000000;stroke-width:5.76"/>
	<line x1="1038.88" y1="2099.24" x2="998.91" y2="2099.24" style="stroke:#000000;stroke-width:5.76"/>
	<text x="978.99" y="2127.25" style="font-family:'Helvetica';font-size:79.94px;fill:#000000" text-anchor="end">0.0000</text>
	<line x1="1038.88" y1="1748.02" x2="998.91" y2="1748.02" style="stroke:#000000;stroke-width:5.76"/>
	<text x="978.99" y="1776.04" style="font-family:'Helvetica';font-size:79.94px;fill:#000000" text-anchor="end">0.0005</text>
	<line x1="1038.88" y1="1396.69" x2="998.91" y2="1396.69" style="stroke:#000000;stroke-width:5.76"/>
	<text x="978.99" y="1424.70" style="font-family:'Helvetica';font-size:79.94px;fill:#000000" text-anchor="end">0.0010</text>
	<line x1="1038.88" y1="1045.47" x2="998.91" y2="1045.47" style="stroke:#000000;stroke-width:5.76"/>
	<text x="978.99" y="1073.48" style="font-family:'Helvetica';font-size:79.94px;fill:#000000" text-anchor="end">0.0015</text>
	<line x1="1038.88" y1="694.26" x2="998.91" y2="694.26" style="stroke:#000000;stroke-width:5.76"/>
	<text x="978.99" y="722.27" style="font-family:'Helvetica';font-size:79.94px;fill:#000000" text-anchor="end">0.0020</text>
	<text x="1102.24" y="2747.83" style="font-family:'Helvetica';font-size:60.02px;fill:#000000" text-anchor="middle">57058</text>
	<text x="1588.83" y="2747.83" style="font-family:'Helvetica';font-size:60.02px;fill:#000000" text-anchor="middle">57015</text>
	<text x="2075.41" y="2747.83" style="font-family:'Helvetica';font-size:60.02px;fill:#000000" text-anchor="middle">56940</text>
	<text x="2562.00" y="2747.83" style="font-family:'Helvetica';font-size:60.02px;fill:#000000" text-anchor="middle">56870</text>
	<text x="3048.58" y="2747.83" style="font-family:'Helvetica';font-size:60.02px;fill:#000000" text-anchor="middle">56836</text>
	<text x="3535.17" y="2747.83" style="font-family:'Helvetica';font-size:60.02px;fill:#000000" text-anchor="middle">56796</text>
	<text x="968.47" y="2747.83" style="font-family:'Helvetica';font-size:60.02px;fill:#000000" text-anchor="end">Other NSAIDs</text>
	<text x="1102.24" y="2674.44" style="font-family:'Helvetica';font-size:60.02px;fill:#000000" text-anchor="middle">82305</text>
	<text x="1588.83" y="2674.44" style="font-family:'Helvetica';font-size:60.02px;fill:#000000" text-anchor="middle">82260</text>
	<text x="2075.41" y="2674.44" style="font-family:'Helvetica';font-size:60.02px;fill:#000000" text-anchor="middle">82210</text>
	<text x="2562.00" y="2674.44" style="font-family:'Helvetica';font-size:60.02px;fill:#000000" text-anchor="middle">82161</text>
	<text x="3048.58" y="2674.44" style="font-family:'Helvetica';font-size:60.02px;fill:#000000" text-anchor="middle">82124</text>
	<text x="3535.17" y="2674.44" style="font-family:'Helvetica';font-size:60.02px;fill:#000000" text-anchor="middle">82087</text>
	<text x="968.47" y="2674.44" style="font-family:'Helvetica';font-size:60.02px;fill:#000000" text-anchor="end">Naproxen high dose</text>
	<text x="1102.24" y="2601.18" style="font-family:'Helvetica';font-size:60.02px;fill:#000000" text-anchor="middle">36132</text>
	<text x="1588.83" y="2601.18" style="font-family:'Helvetica';font-size:60.02px;fill:#000000" text-anchor="middle">36115</text>
	<text x="2075.41" y="2601.18" style="font-family:'Helvetica';font-size:60.02px;fill:#000000" text-anchor="middle">36086</text>
	<text x="2562.00" y="2601.18" style="font-family:'Helvetica';font-size:60.02px;fill:#000000" text-anchor="middle">36050</text>
	<text x="3048.58" y="2601.18" style="font-family:'Helvetica';font-size:60.02px;fill:#000000" text-anchor="middle">36024</text>
	<text x="3535.17" y="2601.18" style="font-family:'Helvetica';font-size:60.02px;fill:#000000" text-anchor="middle">36009</text>
	<text x="968.47" y="2601.18" style="font-family:'Helvetica';font-size:60.02px;fill:#000000" text-anchor="end">Naproxen low dose</text>
	<text x="1102.24" y="2527.80" style="font-family:'Helvetica';font-size:60.02px;fill:#000000" text-anchor="middle">1533286</text>
	<text x="1588.83" y="2527.80" style="font-family:'Helvetica';font-size:60.02px;fill:#000000" text-anchor="middle">1520744</text>
	<text x="2075.41" y="2527.80" style="font-family:'Helvetica';font-size:60.02px;fill:#000000" text-anchor="middle">1512444</text>
	<text x="2562.00" y="2527.80" style="font-family:'Helvetica';font-size:60.02px;fill:#000000" text-anchor="middle">1503127</text>
	<text x="3048.58" y="2527.80" style="font-family:'Helvetica';font-size:60.02px;fill:#000000" text-anchor="middle">1493798</text>
	<text x="3535.17" y="2527.80" style="font-family:'Helvetica';font-size:60.02px;fill:#000000" text-anchor="middle">1484805</text>
	<text x="968.47" y="2527.80" style="font-family:'Helvetica';font-size:60.02px;fill:#000000" text-anchor="end">Non-current exposure to NSAIDs</text>
	<text x="968.47" y="2454.53" style="font-family:'Helvetica';font-size:60.02px;fill:#000000" text-anchor="end">Number at risk</text>
	<line x1="1038.88" y1="2162.60" x2="3841.82" y2="2162.60" style="stroke:#000000;stroke-width:5.76"/>
	<line x1="1102.24" y1="2162.60" x2="1102.24" y2="2202.57" style="stroke:#000000;stroke-width:5.76"/>
	<text x="1102.24" y="2278.52" style="font-family:'Helvetica';font-size:79.94px;fill:#000000" text-anchor="middle">0</text>
	<line x1="1588.83" y1="2162.60" x2="1588.83" y2="2202.57" style="stroke:#000000;stroke-width:5.76"/>
	<text x="1588.83" y="2278.52" style="font-family:'Helvetica';font-size:79.94px;fill:#000000" text-anchor="middle">20</text>
	<line x1="2075.41" y1="2162.60" x2="2075.41" y2="2202.57" style="stroke:#000000;stroke-width:5.76"/>
	<text x="2075.41" y="2278.52" style="font-family:'Helvetica';font-size:79.94px;fill:#000000" text-anchor="middle">40</text>
	<line x1="2562.00" y1="2162.60" x2="2562.00" y2="2202.57" style="stroke:#000000;stroke-width:5.76"/>
	<text x="2562.00" y="2278.52" style="font-family:'Helvetica';font-size:79.94px;fill:#000000" text-anchor="middle">60</text>
	<line x1="3048.58" y1="2162.60" x2="3048.58" y2="2202.57" style="stroke:#000000;stroke-width:5.76"/>
	<text x="3048.58" y="2278.52" style="font-family:'Helvetica';font-size:79.94px;fill:#000000" text-anchor="middle">80</text>
	<line x1="3535.17" y1="2162.60" x2="3535.17" y2="2202.57" style="stroke:#000000;stroke-width:5.76"/>
	<text x="3535.17" y="2278.52" style="font-family:'Helvetica';font-size:79.94px;fill:#000000" text-anchor="middle">100</text>
	<text x="2440.35" y="2368.49" style="font-family:'Helvetica';font-size:79.94px;fill:#000000" text-anchor="middle">Days since 1 Mar 2020</text>
	<rect x="1174.39" y="269.91" width="2531.93" height="326.46" style="fill:#FFFFFF"/>
	<rect x="1177.27" y="272.79" width="2526.17" height="320.70" style="fill:none;stroke:#EAF2F3;stroke-width:5.76"/>
	<line x1="1217.58" y1="363.09" x2="1592.04" y2="363.09" style="stroke:#1A476F;stroke-width:8.64"/>
	<line x1="2698.49" y1="363.09" x2="3072.84" y2="363.09" style="stroke:#90353B;stroke-width:8.64"/>
	<line x1="1217.58" y1="503.06" x2="1592.04" y2="503.06" style="stroke:#55752F;stroke-width:8.64"/>
	<line x1="2698.49" y1="503.06" x2="3072.84" y2="503.06" style="stroke:#E37E00;stroke-width:8.64"/>
	<text x="1652.06" y="384.13" style="font-family:'Helvetica';font-size:60.02px;fill:#000000">Non-current exposure to NSAIDs</text>
	<text x="3132.86" y="384.13" style="font-family:'Helvetica';font-size:60.02px;fill:#000000">Naproxen low dose</text>
	<text x="1652.06" y="524.10" style="font-family:'Helvetica';font-size:60.02px;fill:#000000">Naproxen high dose</text>
	<text x="3132.86" y="524.10" style="font-family:'Helvetica';font-size:60.02px;fill:#000000">Other NSAIDs</text>
	<text x="1056.21" y="187.99" style="font-family:'Helvetica';font-size:99.99px;fill:#1E2D53">Time to death, Rheumatoid_arthritis_&amp;_osteoarthritis population</text>
</svg>
