<?xml version="1.0" encoding="UTF-8" standalone="no"?>
<!-- This is a Stata 16.1 generated SVG file (http://www.stata.com) -->

<svg version="1.1" width="5.50in" height="4.00in" viewBox="0 0 3960 2880" xmlns="http://www.w3.org/2000/svg" xmlns:xlink="http://www.w3.org/1999/xlink">
	<desc>Stata Graph - Graph</desc>
	<rect x="0" y="0" width="3960" height="2880" style="fill:#EAF2F3;stroke:none"/>
	<rect x="0.00" y="0.00" width="3959.88" height="2880.00" style="fill:#FFFFFF"/>
	<rect x="2.88" y="2.88" width="3954.12" height="2874.24" style="fill:none;stroke:#EAF2F3;stroke-width:5.76"/>
	<rect x="1038.88" y="630.90" width="2802.94" height="1604.96" style="fill:#FFFFFF"/>
	<rect x="1041.76" y="633.78" width="2797.18" height="1599.20" style="fill:none;stroke:#FFFFFF;stroke-width:5.76"/>
	<line x1="1038.88" y1="2172.62" x2="3841.82" y2="2172.62" style="stroke:#EAF2F3;stroke-width:8.64"/>
	<line x1="1038.88" y1="1802.97" x2="3841.82" y2="1802.97" style="stroke:#EAF2F3;stroke-width:8.64"/>
	<line x1="1038.88" y1="1433.44" x2="3841.82" y2="1433.44" style="stroke:#EAF2F3;stroke-width:8.64"/>
	<line x1="1038.88" y1="1063.79" x2="3841.82" y2="1063.79" style="stroke:#EAF2F3;stroke-width:8.64"/>
	<path d=" M1102.24 2172.62 L1102.24 2172.62 L1102.24 2172.62 L1102.24 2172.62 L1102.24 2172.62 L1126.62 2172.62 L1126.62 2172.13 L1150.88 2172.13 L1150.88 2172.13 L1175.25 2172.13 L1175.25 2172.13 L1199.51 2172.13 L1199.51 2172.13 L1223.89 2172.13 L1223.89 2172.13 L1248.27 2172.13 L1248.27 2172.13 L1272.52 2172.13 L1272.52 2172.13 L1296.90 2172.13 L1296.90 2172.13 L1321.15 2172.13 L1321.15 2172.13 L1345.53 2172.13 L1345.53 2172.13 L1369.79 2172.13 L1369.79 2172.13 L1394.17 2172.13 L1394.17 2172.13 L1418.55 2172.13 L1418.55 2172.13 L1442.80 2172.13 L1442.80 2172.13 L1467.18 2172.13 L1467.18 2171.63 L1491.43 2171.63 L1491.43 2171.14 L1515.81 2171.14 L1515.81 2170.15 L1540.19 2170.15 L1540.19 2170.15 L1564.45 2170.15 L1564.45 2169.65 L1588.83 2169.65 L1588.83 2167.30 L1613.08 2167.30 L1613.08 2165.32 L1637.46 2165.32 L1637.46 2162.97 L1661.84 2162.97 L1661.84 2157.03 L1686.09 2157.03 L1686.09 2152.20 L1710.47 2152.20 L1710.47 2144.41 L1734.73 2144.41 L1734.73 2135.62 L1759.11 2135.62 L1759.11 2127.82 L1783.48 2127.82 L1783.48 2117.68 L1807.74 2117.68 L1807.74 2102.58 L1832.12 2102.58 L1832.12 2088.47 L1856.37 2088.47 L1856.37 2069.41 L1880.75 2069.41 L1880.75 2053.32 L1905.13 2053.32 L1905.13 2024.98 L1929.39 2024.98 L1929.39 1997.26 L1953.77 1997.26 L1953.77 1970.41 L1978.02 1970.41 L1978.02 1950.86 L2002.40 1950.86 L2002.40 1921.16 L2026.78 1921.16 L2026.78 1886.01 L2051.03 1886.01 L2051.03 1861.51 L2075.41 1861.51 L2075.41 1826.85 L2099.67 1826.85 L2099.67 1799.50 L2124.05 1799.50 L2124.05 1768.20 L2148.30 1768.20 L2148.30 1744.31 L2172.68 1744.31 L2172.68 1717.95 L2197.06 1717.95 L2197.06 1695.43 L2221.31 1695.43 L2221.31 1671.42 L2245.69 1671.42 L2245.69 1642.09 L2269.95 1642.09 L2269.95 1616.60 L2294.32 1616.60 L2294.32 1590.24 L2318.70 1590.24 L2318.70 1565.24 L2342.96 1565.24 L2342.96 1544.20 L2367.34 1544.20 L2367.34 1518.71 L2391.59 1518.71 L2391.59 1496.56 L2415.97 1496.56 L2415.97 1479.48 L2440.35 1479.48 L2440.35 1461.29 L2464.61 1461.29 L2464.61 1439.26 L2488.98 1439.26 L2488.98 1420.57 L2513.24 1420.57 L2513.24 1397.55 L2537.62 1397.55 L2537.62 1378.87 L2562.00 1378.87 L2562.00 1362.65 L2586.25 1362.65 L2586.25 1342.98 L2610.63 1342.98 L2610.63 1325.78 L2634.89 1325.78 L2634.89 1304.61 L2659.26 1304.61 L2659.26 1288.40 L2683.64 1288.40 L2683.64 1275.65 L2707.90 1275.65 L2707.90 1261.30 L2732.28 1261.30 L2732.28 1250.04 L2756.53 1250.04 L2756.53 1238.16 L2780.91 1238.16 L2780.91 1222.94 L2805.16 1222.94 L2805.16 1214.52 L2829.54 1214.52 L2829.54 1201.28 L2853.92 1201.28 L2853.92 1193.36 L2878.18 1193.36 L2878.18 1180.61 L2902.56 1180.61 L2902.56 1172.69 L2926.81 1172.69 L2926.81 1162.30 L2951.19 1162.30 L2951.19 1150.91 L2975.57 1150.91 L2975.57 1141.63 L2999.82 1141.63 L2999.82 1129.25 L3024.20 1129.25 L3024.20 1120.34 L3048.46 1120.34 L3048.46 1110.44 L3072.84 1110.44 L3072.84 1100.54 L3097.22 1100.54 L3097.22 1093.12 L3121.47 1093.12 L3121.47 1082.23 L3145.85 1082.23 L3145.85 1075.30 L3170.10 1075.30 L3170.10 1063.91 L3194.48 1063.91 L3194.48 1052.53 L3218.86 1052.53 L3218.86 1046.59 L3243.12 1046.59 L3243.12 1039.16 L3267.49 1039.16 L3267.49 1034.21 L3291.75 1034.21 L3291.75 1030.75 L3316.13 1030.75 L3316.13 1026.79 L3340.51 1026.79 L3340.51 1021.34 L3364.76 1021.34 L3364.76 1018.37 L3389.14 1018.37 L3389.14 1012.43 L3413.40 1012.43 L3413.40 1006.49 L3437.78 1006.49 L3437.78 1002.53 L3462.15 1002.53 L3462.15 999.06 L3486.41 999.06 L3486.41 994.11 L3510.79 994.11 L3510.79 990.15 L3535.04 990.15 L3535.04 986.07 L3559.42 986.07 L3559.42 983.10 L3583.68 983.10 L3583.68 978.15 L3608.05 978.15 L3608.05 976.17 L3632.43 976.17 L3632.43 973.70 L3656.69 973.70 L3656.69 971.22" stroke-linejoin="round" style="fill:none;stroke:#1A476F;stroke-width:8.64"/>
	<path d=" M1102.24 2172.62 L1102.24 2172.62 L1102.24 2172.62 L1102.24 2172.62 L1102.24 2172.62 L1199.51 2172.62 L1199.51 2172.62 L1491.43 2172.62 L1491.43 2172.62 L1515.81 2172.62 L1515.81 2172.62 L1588.83 2172.62 L1588.83 2172.62 L1637.46 2172.62 L1637.46 2172.62 L1661.84 2172.62 L1661.84 2172.62 L1686.09 2172.62 L1686.09 2172.62 L1832.12 2172.62 L1832.12 2172.62 L1856.37 2172.62 L1856.37 2172.62 L1905.13 2172.62 L1905.13 2113.72 L1953.77 2113.72 L1953.77 2113.72 L2026.78 2113.72 L2026.78 2113.72 L2269.95 2113.72 L2269.95 2054.81 L2342.96 2054.81 L2342.96 2054.81 L2391.59 2054.81 L2391.59 2054.81 L2440.35 2054.81 L2440.35 2054.81 L2464.61 2054.81 L2464.61 1995.78 L2488.98 1995.78 L2488.98 1995.78 L2537.62 1995.78 L2537.62 1936.87 L2562.00 1936.87 L2562.00 1936.87 L2683.64 1936.87 L2683.64 1936.87 L2707.90 1936.87 L2707.90 1936.87 L2756.53 1936.87 L2756.53 1936.87 L2805.16 1936.87 L2805.16 1936.87 L2829.54 1936.87 L2829.54 1936.87 L2951.19 1936.87 L2951.19 1877.84 L2999.82 1877.84 L2999.82 1877.84 L3121.47 1877.84 L3121.47 1877.84 L3145.85 1877.84 L3145.85 1877.84 L3218.86 1877.84 L3218.86 1877.84 L3243.12 1877.84 L3243.12 1877.84 L3510.79 1877.84 L3510.79 1877.84 L3608.05 1877.84 L3608.05 1818.93 L3656.69 1818.93 L3656.69 1818.93" stroke-linejoin="round" style="fill:none;stroke:#90353B;stroke-width:8.64"/>
	<path d=" M1102.24 2172.62 L1102.24 2172.62 L1102.24 2172.62 L1102.24 2172.62 L1102.24 2172.62 L1126.62 2172.62 L1126.62 2172.62 L1150.88 2172.62 L1150.88 2172.62 L1175.25 2172.62 L1175.25 2172.62 L1199.51 2172.62 L1199.51 2172.62 L1223.89 2172.62 L1223.89 2172.62 L1248.27 2172.62 L1248.27 2172.62 L1272.52 2172.62 L1272.52 2172.62 L1296.90 2172.62 L1296.90 2172.62 L1321.15 2172.62 L1321.15 2172.62 L1345.53 2172.62 L1345.53 2172.62 L1369.79 2172.62 L1369.79 2172.62 L1394.17 2172.62 L1394.17 2172.62 L1418.55 2172.62 L1418.55 2172.62 L1442.80 2172.62 L1442.80 2172.62 L1467.18 2172.62 L1467.18 2172.62 L1491.43 2172.62 L1491.43 2172.62 L1515.81 2172.62 L1515.81 2172.62 L1540.19 2172.62 L1540.19 2172.62 L1564.45 2172.62 L1564.45 2172.62 L1588.83 2172.62 L1588.83 2172.62 L1613.08 2172.62 L1613.08 2168.04 L1637.46 2168.04 L1637.46 2163.59 L1661.84 2163.59 L1661.84 2159.01 L1686.09 2159.01 L1686.09 2154.43 L1710.47 2154.43 L1710.47 2154.43 L1734.73 2154.43 L1734.73 2154.43 L1759.11 2154.43 L1759.11 2154.43 L1783.48 2154.43 L1783.48 2154.43 L1807.74 2154.43 L1807.74 2140.82 L1832.12 2140.82 L1832.12 2136.36 L1856.37 2136.36 L1856.37 2118.17 L1880.75 2118.17 L1880.75 2113.59 L1905.13 2113.59 L1905.13 2099.98 L1929.39 2099.98 L1929.39 2090.95 L1953.77 2090.95 L1953.77 2077.21 L1978.02 2077.21 L1978.02 2068.17 L2002.40 2068.17 L2002.40 2045.53 L2026.78 2045.53 L2026.78 2031.79 L2051.03 2031.79 L2051.03 2004.57 L2075.41 2004.57 L2075.41 1977.34 L2099.67 1977.34 L2099.67 1968.31 L2124.05 1968.31 L2124.05 1940.96 L2148.30 1940.96 L2148.30 1927.34 L2172.68 1927.34 L2172.68 1922.89 L2197.06 1922.89 L2197.06 1913.73 L2221.31 1913.73 L2221.31 1909.15 L2245.69 1909.15 L2245.69 1900.12 L2269.95 1900.12 L2269.95 1895.54 L2294.32 1895.54 L2294.32 1877.35 L2318.70 1877.35 L2318.70 1859.28 L2342.96 1859.28 L2342.96 1845.54 L2367.34 1845.54 L2367.34 1845.54 L2391.59 1845.54 L2391.59 1836.51 L2415.97 1836.51 L2415.97 1827.47 L2440.35 1827.47 L2440.35 1822.89 L2464.61 1822.89 L2464.61 1813.74 L2488.98 1813.74 L2488.98 1791.09 L2513.24 1791.09 L2513.24 1777.48 L2537.62 1777.48 L2537.62 1772.90 L2562.00 1772.90 L2562.00 1768.32 L2586.25 1768.32 L2586.25 1768.32 L2610.63 1768.32 L2610.63 1768.32 L2634.89 1768.32 L2634.89 1763.74 L2659.26 1763.74 L2659.26 1754.71 L2683.64 1754.71 L2683.64 1736.51 L2707.90 1736.51 L2707.90 1736.51 L2732.28 1736.51 L2732.28 1731.94 L2756.53 1731.94 L2756.53 1731.94 L2780.91 1731.94 L2780.91 1722.90 L2805.16 1722.90 L2805.16 1722.90 L2829.54 1722.90 L2829.54 1722.90 L2853.92 1722.90 L2853.92 1709.29 L2878.18 1709.29 L2878.18 1704.71 L2902.56 1704.71 L2902.56 1700.13 L2926.81 1700.13 L2926.81 1700.13 L2951.19 1700.13 L2951.19 1700.13 L2975.57 1700.13 L2975.57 1695.55 L2999.82 1695.55 L2999.82 1686.52 L3024.20 1686.52 L3024.20 1686.52 L3048.46 1686.52 L3048.46 1677.36 L3072.84 1677.36 L3072.84 1677.36 L3097.22 1677.36 L3097.22 1677.36 L3121.47 1677.36 L3121.47 1677.36 L3145.85 1677.36 L3145.85 1677.36 L3170.10 1677.36 L3170.10 1672.90 L3194.48 1672.90 L3194.48 1668.33 L3218.86 1668.33 L3218.86 1668.33 L3243.12 1668.33 L3243.12 1668.33 L3267.49 1668.33 L3267.49 1668.33 L3291.75 1668.33 L3291.75 1668.33 L3316.13 1668.33 L3316.13 1668.33 L3340.51 1668.33 L3340.51 1663.75 L3364.76 1663.75 L3364.76 1663.75 L3389.14 1663.75 L3389.14 1654.71 L3437.78 1654.71 L3437.78 1650.13 L3462.15 1650.13 L3462.15 1650.13 L3486.41 1650.13 L3486.41 1650.13 L3510.79 1650.13 L3510.79 1650.13 L3535.04 1650.13 L3535.04 1650.13 L3559.42 1650.13 L3559.42 1650.13 L3583.68 1650.13 L3583.68 1650.13 L3608.05 1650.13 L3608.05 1645.56 L3632.43 1645.56 L3632.43 1645.56 L3656.69 1645.56 L3656.69 1640.98" stroke-linejoin="round" style="fill:none;stroke:#55752F;stroke-width:8.64"/>
	<line x1="1038.88" y1="2235.86" x2="1038.88" y2="630.90" style="stroke:#000000;stroke-width:5.76"/>
	<line x1="1038.88" y1="2172.62" x2="998.91" y2="2172.62" style="stroke:#000000;stroke-width:5.76"/>
	<text x="978.99" y="2200.63" style="font-family:'Helvetica';font-size:79.94px;fill:#000000" text-anchor="end">0.0000</text>
	<line x1="1038.88" y1="1802.97" x2="998.91" y2="1802.97" style="stroke:#000000;stroke-width:5.76"/>
	<text x="978.99" y="1830.98" style="font-family:'Helvetica';font-size:79.94px;fill:#000000" text-anchor="end">0.0005</text>
	<line x1="1038.88" y1="1433.44" x2="998.91" y2="1433.44" style="stroke:#000000;stroke-width:5.76"/>
	<text x="978.99" y="1461.45" style="font-family:'Helvetica';font-size:79.94px;fill:#000000" text-anchor="end">0.0010</text>
	<line x1="1038.88" y1="1063.79" x2="998.91" y2="1063.79" style="stroke:#000000;stroke-width:5.76"/>
	<text x="978.99" y="1091.80" style="font-family:'Helvetica';font-size:79.94px;fill:#000000" text-anchor="end">0.0015</text>
	<line x1="1038.88" y1="694.26" x2="998.91" y2="694.26" style="stroke:#000000;stroke-width:5.76"/>
	<text x="978.99" y="722.27" style="font-family:'Helvetica';font-size:79.94px;fill:#000000" text-anchor="end">0.0020</text>
	<text x="1102.24" y="2747.83" style="font-family:'Helvetica';font-size:60.02px;fill:#000000" text-anchor="middle">162936</text>
	<text x="1832.12" y="2747.83" style="font-family:'Helvetica';font-size:60.02px;fill:#000000" text-anchor="middle">162779</text>
	<text x="2562.00" y="2747.83" style="font-family:'Helvetica';font-size:60.02px;fill:#000000" text-anchor="middle">162548</text>
	<text x="3291.87" y="2747.83" style="font-family:'Helvetica';font-size:60.02px;fill:#000000" text-anchor="middle">162413</text>
	<text x="968.47" y="2747.83" style="font-family:'Helvetica';font-size:60.02px;fill:#000000" text-anchor="end">Other specific NSAIDs</text>
	<text x="1102.24" y="2674.44" style="font-family:'Helvetica';font-size:60.02px;fill:#000000" text-anchor="middle">12559</text>
	<text x="1832.12" y="2674.44" style="font-family:'Helvetica';font-size:60.02px;fill:#000000" text-anchor="middle">12550</text>
	<text x="2562.00" y="2674.44" style="font-family:'Helvetica';font-size:60.02px;fill:#000000" text-anchor="middle">12533</text>
	<text x="3291.87" y="2674.44" style="font-family:'Helvetica';font-size:60.02px;fill:#000000" text-anchor="middle">12520</text>
	<text x="968.47" y="2674.44" style="font-family:'Helvetica';font-size:60.02px;fill:#000000" text-anchor="end">Cox-2 specific NSAIDs</text>
	<text x="1102.24" y="2601.18" style="font-family:'Helvetica';font-size:60.02px;fill:#000000" text-anchor="middle">1533286</text>
	<text x="1832.12" y="2601.18" style="font-family:'Helvetica';font-size:60.02px;fill:#000000" text-anchor="middle">1517055</text>
	<text x="2562.00" y="2601.18" style="font-family:'Helvetica';font-size:60.02px;fill:#000000" text-anchor="middle">1503127</text>
	<text x="3291.87" y="2601.18" style="font-family:'Helvetica';font-size:60.02px;fill:#000000" text-anchor="middle">1489073</text>
	<text x="968.47" y="2601.18" style="font-family:'Helvetica';font-size:60.02px;fill:#000000" text-anchor="end">Non-current exposure to NSAIDs</text>
	<text x="968.47" y="2527.80" style="font-family:'Helvetica';font-size:60.02px;fill:#000000" text-anchor="end">Number at risk</text>
	<line x1="1038.88" y1="2235.86" x2="3841.82" y2="2235.86" style="stroke:#000000;stroke-width:5.76"/>
	<line x1="1102.24" y1="2235.86" x2="1102.24" y2="2275.96" style="stroke:#000000;stroke-width:5.76"/>
	<text x="1102.24" y="2351.78" style="font-family:'Helvetica';font-size:79.94px;fill:#000000" text-anchor="middle">0</text>
	<line x1="1832.12" y1="2235.86" x2="1832.12" y2="2275.96" style="stroke:#000000;stroke-width:5.76"/>
	<text x="1832.12" y="2351.78" style="font-family:'Helvetica';font-size:79.94px;fill:#000000" text-anchor="middle">30</text>
	<line x1="2562.00" y1="2235.86" x2="2562.00" y2="2275.96" style="stroke:#000000;stroke-width:5.76"/>
	<text x="2562.00" y="2351.78" style="font-family:'Helvetica';font-size:79.94px;fill:#000000" text-anchor="middle">60</text>
	<line x1="3291.87" y1="2235.86" x2="3291.87" y2="2275.96" style="stroke:#000000;stroke-width:5.76"/>
	<text x="3291.87" y="2351.78" style="font-family:'Helvetica';font-size:79.94px;fill:#000000" text-anchor="middle">90</text>
	<line x1="4021.75" y1="2235.86" x2="4021.75" y2="2275.96" style="stroke:#000000;stroke-width:5.76"/>
	<text x="4021.75" y="2351.78" style="font-family:'Helvetica';font-size:79.94px;fill:#000000" text-anchor="middle">120</text>
	<text x="2440.35" y="2441.87" style="font-family:'Helvetica';font-size:79.94px;fill:#000000" text-anchor="middle">Days since 1 Mar 2020</text>
	<rect x="1126.37" y="269.91" width="2628.08" height="326.46" style="fill:#FFFFFF"/>
	<rect x="1129.25" y="272.79" width="2622.32" height="320.70" style="fill:none;stroke:#EAF2F3;stroke-width:5.76"/>
	<line x1="1169.56" y1="363.09" x2="1543.90" y2="363.09" style="stroke:#1A476F;stroke-width:8.64"/>
	<line x1="2650.35" y1="363.09" x2="3024.70" y2="363.09" style="stroke:#90353B;stroke-width:8.64"/>
	<line x1="1169.56" y1="503.06" x2="1543.90" y2="503.06" style="stroke:#55752F;stroke-width:8.64"/>
	<text x="1603.92" y="384.13" style="font-family:'Helvetica';font-size:60.02px;fill:#000000">Non-current exposure to NSAIDs</text>
	<text x="3084.72" y="384.13" style="font-family:'Helvetica';font-size:60.02px;fill:#000000">Cox-2 specific NSAIDs</text>
	<text x="1603.92" y="524.10" style="font-family:'Helvetica';font-size:60.02px;fill:#000000">Other specific NSAIDs</text>
	<text x="1056.21" y="187.99" style="font-family:'Helvetica';font-size:99.99px;fill:#1E2D53">Time to death, Rheumatoid_arthritis_&amp;_osteoarthritis population</text>
</svg>
