<?xml version="1.0" encoding="UTF-8" standalone="no"?>
<!-- This is a Stata 16.1 generated SVG file (http://www.stata.com) -->

<svg version="1.1" width="5.50in" height="4.00in" viewBox="0 0 3960 2880" xmlns="http://www.w3.org/2000/svg" xmlns:xlink="http://www.w3.org/1999/xlink">
	<desc>Stata Graph - Graph</desc>
	<rect x="0" y="0" width="3960" height="2880" style="fill:#EAF2F3;stroke:none"/>
	<rect x="0.00" y="0.00" width="3959.88" height="2880.00" style="fill:#FFFFFF"/>
	<rect x="2.88" y="2.88" width="3954.12" height="2874.24" style="fill:none;stroke:#EAF2F3;stroke-width:5.76"/>
	<rect x="1038.88" y="490.93" width="2802.94" height="1818.32" style="fill:#FFFFFF"/>
	<rect x="1041.76" y="493.81" width="2797.18" height="1812.56" style="fill:none;stroke:#FFFFFF;stroke-width:5.76"/>
	<line x1="1038.88" y1="2245.89" x2="3841.82" y2="2245.89" style="stroke:#EAF2F3;stroke-width:8.64"/>
	<line x1="1038.88" y1="1823.02" x2="3841.82" y2="1823.02" style="stroke:#EAF2F3;stroke-width:8.64"/>
	<line x1="1038.88" y1="1400.03" x2="3841.82" y2="1400.03" style="stroke:#EAF2F3;stroke-width:8.64"/>
	<line x1="1038.88" y1="977.16" x2="3841.82" y2="977.16" style="stroke:#EAF2F3;stroke-width:8.64"/>
	<path d=" M1102.24 2246.01 L1102.24 2246.01 L1102.24 2246.01 L1126.62 2246.01 L1126.62 2245.39 L1150.88 2245.39 L1150.88 2245.39 L1175.25 2245.39 L1175.25 2245.39 L1199.51 2245.39 L1199.51 2245.39 L1223.89 2245.39 L1223.89 2245.39 L1248.27 2245.39 L1248.27 2245.39 L1272.52 2245.39 L1272.52 2245.39 L1296.90 2245.39 L1296.90 2245.39 L1321.15 2245.39 L1321.15 2245.39 L1345.53 2245.39 L1345.53 2245.39 L1369.79 2245.39 L1369.79 2245.39 L1394.17 2245.39 L1394.17 2245.39 L1418.55 2245.39 L1418.55 2245.39 L1442.80 2245.39 L1442.80 2245.39 L1467.18 2245.39 L1467.18 2244.90 L1491.43 2244.90 L1491.43 2244.28 L1515.81 2244.28 L1515.81 2243.16 L1540.19 2243.16 L1540.19 2243.16 L1564.45 2243.16 L1564.45 2242.67 L1588.83 2242.67 L1588.83 2239.82 L1613.08 2239.82 L1613.08 2237.59 L1637.46 2237.59 L1637.46 2234.87 L1661.84 2234.87 L1661.84 2228.19 L1686.09 2228.19 L1686.09 2222.62 L1710.47 2222.62 L1710.47 2213.71 L1734.73 2213.71 L1734.73 2203.69 L1759.11 2203.69 L1759.11 2194.77 L1783.48 2194.77 L1783.48 2183.02 L1807.74 2183.02 L1807.74 2165.82 L1832.12 2165.82 L1832.12 2149.60 L1856.37 2149.60 L1856.37 2127.82 L1880.75 2127.82 L1880.75 2109.38 L1905.13 2109.38 L1905.13 2077.08 L1929.39 2077.08 L1929.39 2045.28 L1953.77 2045.28 L1953.77 2014.59 L1978.02 2014.59 L1978.02 1992.19 L2002.40 1992.19 L2002.40 1958.16 L2026.78 1958.16 L2026.78 1917.94 L2051.03 1917.94 L2051.03 1889.97 L2075.41 1889.97 L2075.41 1850.24 L2099.67 1850.24 L2099.67 1818.93 L2124.05 1818.93 L2124.05 1783.17 L2148.30 1783.17 L2148.30 1755.82 L2172.68 1755.82 L2172.68 1725.62 L2197.06 1725.62 L2197.06 1699.88 L2221.31 1699.88 L2221.31 1672.41 L2245.69 1672.41 L2245.69 1638.87 L2269.95 1638.87 L2269.95 1609.67 L2294.32 1609.67 L2294.32 1579.47 L2318.70 1579.47 L2318.70 1550.88 L2342.96 1550.88 L2342.96 1526.75 L2367.34 1526.75 L2367.34 1497.67 L2391.59 1497.67 L2391.59 1472.42 L2415.97 1472.42 L2415.97 1452.75 L2440.35 1452.75 L2440.35 1431.96 L2464.61 1431.96 L2464.61 1406.71 L2488.98 1406.71 L2488.98 1385.42 L2513.24 1385.42 L2513.24 1358.94 L2537.62 1358.94 L2537.62 1337.66 L2562.00 1337.66 L2562.00 1319.09 L2586.25 1319.09 L2586.25 1296.57 L2610.63 1296.57 L2610.63 1276.89 L2634.89 1276.89 L2634.89 1252.76 L2659.26 1252.76 L2659.26 1234.20 L2683.64 1234.20 L2683.64 1219.47 L2707.90 1219.47 L2707.90 1203.14 L2732.28 1203.14 L2732.28 1190.26 L2756.53 1190.26 L2756.53 1176.65 L2780.91 1176.65 L2780.91 1159.20 L2805.16 1159.20 L2805.16 1149.67 L2829.54 1149.67 L2829.54 1134.45 L2853.92 1134.45 L2853.92 1125.42 L2878.18 1125.42 L2878.18 1110.69 L2902.56 1110.69 L2902.56 1101.66 L2926.81 1101.66 L2926.81 1089.90 L2951.19 1089.90 L2951.19 1076.91 L2975.57 1076.91 L2975.57 1066.14 L2999.82 1066.14 L2999.82 1052.03 L3024.20 1052.03 L3024.20 1041.88 L3048.46 1041.88 L3048.46 1030.50 L3072.84 1030.50 L3072.84 1019.24 L3097.22 1019.24 L3097.22 1010.70 L3121.47 1010.70 L3121.47 998.32 L3145.85 998.32 L3145.85 990.28 L3170.10 990.28 L3170.10 977.28 L3194.48 977.28 L3194.48 964.29 L3218.86 964.29 L3218.86 957.48 L3243.12 957.48 L3243.12 948.94 L3267.49 948.94 L3267.49 943.38 L3291.75 943.38 L3291.75 939.42 L3316.13 939.42 L3316.13 934.84 L3340.51 934.84 L3340.51 928.53 L3364.76 928.53 L3364.76 925.18 L3389.14 925.18 L3389.14 918.38 L3413.40 918.38 L3413.40 911.57 L3437.78 911.57 L3437.78 906.99 L3462.15 906.99 L3462.15 903.03 L3486.41 903.03 L3486.41 897.34 L3510.79 897.34 L3510.79 892.76 L3535.04 892.76 L3535.04 888.18 L3559.42 888.18 L3559.42 884.84 L3583.68 884.84 L3583.68 879.15 L3608.05 879.15 L3608.05 876.92 L3632.43 876.92 L3632.43 873.95 L3656.69 873.95 L3656.69 871.10" stroke-linejoin="round" style="fill:none;stroke:#1A476F;stroke-width:8.64"/>
	<path d=" M1102.24 2246.01 L1102.24 2246.01 L1102.24 2246.01 L1126.62 2246.01 L1126.62 2246.01 L1150.88 2246.01 L1150.88 2246.01 L1175.25 2246.01 L1175.25 2246.01 L1199.51 2246.01 L1199.51 2246.01 L1223.89 2246.01 L1223.89 2246.01 L1248.27 2246.01 L1248.27 2246.01 L1272.52 2246.01 L1272.52 2246.01 L1296.90 2246.01 L1296.90 2246.01 L1321.15 2246.01 L1321.15 2246.01 L1345.53 2246.01 L1345.53 2246.01 L1369.79 2246.01 L1369.79 2246.01 L1394.17 2246.01 L1394.17 2246.01 L1418.55 2246.01 L1418.55 2246.01 L1442.80 2246.01 L1442.80 2246.01 L1467.18 2246.01 L1467.18 2246.01 L1491.43 2246.01 L1491.43 2246.01 L1515.81 2246.01 L1515.81 2246.01 L1540.19 2246.01 L1540.19 2246.01 L1564.45 2246.01 L1564.45 2246.01 L1588.83 2246.01 L1588.83 2246.01 L1613.08 2246.01 L1613.08 2241.18 L1637.46 2241.18 L1637.46 2236.36 L1661.84 2236.36 L1661.84 2231.53 L1686.09 2231.53 L1686.09 2226.70 L1710.47 2226.70 L1710.47 2226.70 L1734.73 2226.70 L1734.73 2226.70 L1759.11 2226.70 L1759.11 2226.70 L1783.48 2226.70 L1783.48 2226.70 L1807.74 2226.70 L1807.74 2212.22 L1832.12 2212.22 L1832.12 2207.40 L1856.37 2207.40 L1856.37 2188.09 L1880.75 2188.09 L1880.75 2183.27 L1905.13 2183.27 L1905.13 2163.96 L1929.39 2163.96 L1929.39 2154.31 L1953.77 2154.31 L1953.77 2139.83 L1978.02 2139.83 L1978.02 2130.18 L2002.40 2130.18 L2002.40 2106.04 L2026.78 2106.04 L2026.78 2091.56 L2051.03 2091.56 L2051.03 2062.61 L2075.41 2062.61 L2075.41 2033.65 L2099.67 2033.65 L2099.67 2023.99 L2124.05 2023.99 L2124.05 1995.04 L2148.30 1995.04 L2148.30 1980.56 L2172.68 1980.56 L2172.68 1975.73 L2197.06 1975.73 L2197.06 1966.08 L2221.31 1966.08 L2221.31 1961.25 L2245.69 1961.25 L2245.69 1951.60 L2269.95 1951.60 L2269.95 1941.95 L2294.32 1941.95 L2294.32 1922.64 L2318.70 1922.64 L2318.70 1903.33 L2342.96 1903.33 L2342.96 1888.86 L2367.34 1888.86 L2367.34 1888.86 L2391.59 1888.86 L2391.59 1879.20 L2415.97 1879.20 L2415.97 1869.55 L2440.35 1869.55 L2440.35 1864.72 L2464.61 1864.72 L2464.61 1850.24 L2488.98 1850.24 L2488.98 1826.11 L2513.24 1826.11 L2513.24 1811.63 L2537.62 1811.63 L2537.62 1801.98 L2562.00 1801.98 L2562.00 1797.15 L2586.25 1797.15 L2586.25 1797.15 L2610.63 1797.15 L2610.63 1797.15 L2634.89 1797.15 L2634.89 1792.33 L2659.26 1792.33 L2659.26 1782.67 L2683.64 1782.67 L2683.64 1763.37 L2707.90 1763.37 L2707.90 1763.37 L2732.28 1763.37 L2732.28 1758.54 L2756.53 1758.54 L2756.53 1758.54 L2780.91 1758.54 L2780.91 1748.89 L2805.16 1748.89 L2805.16 1748.89 L2829.54 1748.89 L2829.54 1748.89 L2853.92 1748.89 L2853.92 1734.41 L2878.18 1734.41 L2878.18 1729.58 L2902.56 1729.58 L2902.56 1724.63 L2926.81 1724.63 L2926.81 1724.63 L2951.19 1724.63 L2951.19 1719.81 L2975.57 1719.81 L2975.57 1714.98 L2999.82 1714.98 L2999.82 1705.33 L3024.20 1705.33 L3024.20 1705.33 L3048.46 1705.33 L3048.46 1695.68 L3072.84 1695.68 L3072.84 1695.68 L3097.22 1695.68 L3097.22 1695.68 L3121.47 1695.68 L3121.47 1695.68 L3145.85 1695.68 L3145.85 1695.68 L3170.10 1695.68 L3170.10 1690.85 L3194.48 1690.85 L3194.48 1686.02 L3218.86 1686.02 L3218.86 1686.02 L3243.12 1686.02 L3243.12 1686.02 L3267.49 1686.02 L3267.49 1686.02 L3291.75 1686.02 L3291.75 1686.02 L3316.13 1686.02 L3316.13 1686.02 L3340.51 1686.02 L3340.51 1681.20 L3364.76 1681.20 L3364.76 1681.20 L3389.14 1681.20 L3389.14 1671.54 L3437.78 1671.54 L3437.78 1666.72 L3462.15 1666.72 L3462.15 1666.72 L3486.41 1666.72 L3486.41 1666.72 L3510.79 1666.72 L3510.79 1666.72 L3535.04 1666.72 L3535.04 1666.72 L3559.42 1666.72 L3559.42 1666.72 L3583.68 1666.72 L3583.68 1666.72 L3608.05 1666.72 L3608.05 1657.06 L3632.43 1657.06 L3632.43 1657.06 L3656.69 1657.06 L3656.69 1652.24" stroke-linejoin="round" style="fill:none;stroke:#90353B;stroke-width:8.64"/>
	<line x1="1038.88" y1="2309.25" x2="1038.88" y2="490.93" style="stroke:#000000;stroke-width:5.76"/>
	<line x1="1038.88" y1="2245.89" x2="998.91" y2="2245.89" style="stroke:#000000;stroke-width:5.76"/>
	<text x="978.99" y="2273.90" style="font-family:'Helvetica';font-size:79.94px;fill:#000000" text-anchor="end">0.0000</text>
	<line x1="1038.88" y1="1823.02" x2="998.91" y2="1823.02" style="stroke:#000000;stroke-width:5.76"/>
	<text x="978.99" y="1851.03" style="font-family:'Helvetica';font-size:79.94px;fill:#000000" text-anchor="end">0.0005</text>
	<line x1="1038.88" y1="1400.03" x2="998.91" y2="1400.03" style="stroke:#000000;stroke-width:5.76"/>
	<text x="978.99" y="1428.04" style="font-family:'Helvetica';font-size:79.94px;fill:#000000" text-anchor="end">0.0010</text>
	<line x1="1038.88" y1="977.16" x2="998.91" y2="977.16" style="stroke:#000000;stroke-width:5.76"/>
	<text x="978.99" y="1005.17" style="font-family:'Helvetica';font-size:79.94px;fill:#000000" text-anchor="end">0.0015</text>
	<line x1="1038.88" y1="554.29" x2="998.91" y2="554.29" style="stroke:#000000;stroke-width:5.76"/>
	<text x="978.99" y="582.31" style="font-family:'Helvetica';font-size:79.94px;fill:#000000" text-anchor="end">0.0020</text>
	<text x="1102.24" y="2747.83" style="font-family:'Helvetica';font-size:60.02px;fill:#000000" text-anchor="middle">175495</text>
	<text x="1588.83" y="2747.83" style="font-family:'Helvetica';font-size:60.02px;fill:#000000" text-anchor="middle">175390</text>
	<text x="2075.41" y="2747.83" style="font-family:'Helvetica';font-size:60.02px;fill:#000000" text-anchor="middle">175236</text>
	<text x="2562.00" y="2747.83" style="font-family:'Helvetica';font-size:60.02px;fill:#000000" text-anchor="middle">175081</text>
	<text x="3048.58" y="2747.83" style="font-family:'Helvetica';font-size:60.02px;fill:#000000" text-anchor="middle">174984</text>
	<text x="3535.17" y="2747.83" style="font-family:'Helvetica';font-size:60.02px;fill:#000000" text-anchor="middle">174892</text>
	<text x="968.47" y="2747.83" style="font-family:'Helvetica';font-size:60.02px;fill:#000000" text-anchor="end">Current exposure to NSAIDs</text>
	<text x="1102.24" y="2674.44" style="font-family:'Helvetica';font-size:60.02px;fill:#000000" text-anchor="middle">1533286</text>
	<text x="1588.83" y="2674.44" style="font-family:'Helvetica';font-size:60.02px;fill:#000000" text-anchor="middle">1520744</text>
	<text x="2075.41" y="2674.44" style="font-family:'Helvetica';font-size:60.02px;fill:#000000" text-anchor="middle">1512444</text>
	<text x="2562.00" y="2674.44" style="font-family:'Helvetica';font-size:60.02px;fill:#000000" text-anchor="middle">1503127</text>
	<text x="3048.58" y="2674.44" style="font-family:'Helvetica';font-size:60.02px;fill:#000000" text-anchor="middle">1493798</text>
	<text x="3535.17" y="2674.44" style="font-family:'Helvetica';font-size:60.02px;fill:#000000" text-anchor="middle">1484805</text>
	<text x="968.47" y="2674.44" style="font-family:'Helvetica';font-size:60.02px;fill:#000000" text-anchor="end">Non-current exposure to NSAIDs</text>
	<text x="968.47" y="2601.18" style="font-family:'Helvetica';font-size:60.02px;fill:#000000" text-anchor="end">Number at risk</text>
	<line x1="1038.88" y1="2309.25" x2="3841.82" y2="2309.25" style="stroke:#000000;stroke-width:5.76"/>
	<line x1="1102.24" y1="2309.25" x2="1102.24" y2="2349.22" style="stroke:#000000;stroke-width:5.76"/>
	<text x="1102.24" y="2425.17" style="font-family:'Helvetica';font-size:79.94px;fill:#000000" text-anchor="middle">0</text>
	<line x1="1588.83" y1="2309.25" x2="1588.83" y2="2349.22" style="stroke:#000000;stroke-width:5.76"/>
	<text x="1588.83" y="2425.17" style="font-family:'Helvetica';font-size:79.94px;fill:#000000" text-anchor="middle">20</text>
	<line x1="2075.41" y1="2309.25" x2="2075.41" y2="2349.22" style="stroke:#000000;stroke-width:5.76"/>
	<text x="2075.41" y="2425.17" style="font-family:'Helvetica';font-size:79.94px;fill:#000000" text-anchor="middle">40</text>
	<line x1="2562.00" y1="2309.25" x2="2562.00" y2="2349.22" style="stroke:#000000;stroke-width:5.76"/>
	<text x="2562.00" y="2425.17" style="font-family:'Helvetica';font-size:79.94px;fill:#000000" text-anchor="middle">60</text>
	<line x1="3048.58" y1="2309.25" x2="3048.58" y2="2349.22" style="stroke:#000000;stroke-width:5.76"/>
	<text x="3048.58" y="2425.17" style="font-family:'Helvetica';font-size:79.94px;fill:#000000" text-anchor="middle">80</text>
	<line x1="3535.17" y1="2309.25" x2="3535.17" y2="2349.22" style="stroke:#000000;stroke-width:5.76"/>
	<text x="3535.17" y="2425.17" style="font-family:'Helvetica';font-size:79.94px;fill:#000000" text-anchor="middle">100</text>
	<text x="2440.35" y="2515.14" style="font-family:'Helvetica';font-size:79.94px;fill:#000000" text-anchor="middle">Days since 1 Mar 2020</text>
	<rect x="1073.53" y="269.91" width="2733.64" height="186.37" style="fill:#FFFFFF"/>
	<rect x="1076.41" y="272.79" width="2727.88" height="180.61" style="fill:none;stroke:#EAF2F3;stroke-width:5.76"/>
	<line x1="1116.72" y1="363.09" x2="1483.64" y2="363.09" style="stroke:#90353B;stroke-width:8.64"/>
	<line x1="2449.76" y1="363.09" x2="2816.80" y2="363.09" style="stroke:#1A476F;stroke-width:8.64"/>
	<text x="1542.42" y="384.13" style="font-family:'Helvetica';font-size:60.02px;fill:#000000">Current exposure to NSAIDs</text>
	<text x="2875.58" y="384.13" style="font-family:'Helvetica';font-size:60.02px;fill:#000000">Non-current exposure to NSAIDs</text>
	<text x="1056.21" y="187.99" style="font-family:'Helvetica';font-size:99.99px;fill:#1E2D53">Time to death, Rheumatoid_arthritis_&amp;_osteoarthritis population</text>
</svg>
