<?xml version="1.0" encoding="UTF-8" standalone="no"?>
<!-- This is a Stata 16.1 generated SVG file (http://www.stata.com) -->

<svg version="1.1" width="5.50in" height="4.00in" viewBox="0 0 3960 2880" xmlns="http://www.w3.org/2000/svg" xmlns:xlink="http://www.w3.org/1999/xlink">
	<desc>Stata Graph - Graph</desc>
	<rect x="0" y="0" width="3960" height="2880" style="fill:#FFFFFF;stroke:none"/>
	<rect x="0.00" y="0.00" width="3959.88" height="2880.00" style="fill:#FFFFFF"/>
	<rect x="2.88" y="2.88" width="3954.12" height="2874.24" style="fill:none;stroke:#FFFFFF;stroke-width:5.76"/>
	<rect x="353.59" y="238.26" width="3502.55" height="2173.55" style="fill:none;stroke:#000000;stroke-width:5.76"/>
	<circle cx="414.07" cy="298.74" r="14.97" style="fill:none;stroke:#606060;stroke-width:8.64"/>
	<circle cx="559.47" cy="2318.40" r="14.97" style="fill:none;stroke:#606060;stroke-width:8.64"/>
	<circle cx="559.47" cy="2318.40" r="14.97" style="fill:none;stroke:#606060;stroke-width:8.64"/>
	<circle cx="741.26" cy="304.06" r="14.97" style="fill:none;stroke:#606060;stroke-width:8.64"/>
	<circle cx="777.64" cy="2321.75" r="14.97" style="fill:none;stroke:#606060;stroke-width:8.64"/>
	<circle cx="777.64" cy="304.19" r="14.97" style="fill:none;stroke:#606060;stroke-width:8.64"/>
	<circle cx="814.03" cy="304.93" r="14.97" style="fill:none;stroke:#606060;stroke-width:8.64"/>
	<circle cx="814.03" cy="304.93" r="14.97" style="fill:none;stroke:#606060;stroke-width:8.64"/>
	<circle cx="850.41" cy="305.67" r="14.97" style="fill:none;stroke:#606060;stroke-width:8.64"/>
	<circle cx="850.41" cy="2323.23" r="14.97" style="fill:none;stroke:#606060;stroke-width:8.64"/>
	<circle cx="850.41" cy="2323.23" r="14.97" style="fill:none;stroke:#606060;stroke-width:8.64"/>
	<circle cx="850.41" cy="2323.23" r="14.97" style="fill:none;stroke:#606060;stroke-width:8.64"/>
	<circle cx="886.79" cy="306.17" r="14.97" style="fill:none;stroke:#606060;stroke-width:8.64"/>
	<circle cx="886.79" cy="2323.73" r="14.97" style="fill:none;stroke:#606060;stroke-width:8.64"/>
	<circle cx="923.05" cy="306.66" r="14.97" style="fill:none;stroke:#606060;stroke-width:8.64"/>
	<circle cx="923.05" cy="2324.22" r="14.97" style="fill:none;stroke:#606060;stroke-width:8.64"/>
	<circle cx="923.05" cy="306.66" r="14.97" style="fill:none;stroke:#606060;stroke-width:8.64"/>
	<circle cx="923.05" cy="2324.22" r="14.97" style="fill:none;stroke:#606060;stroke-width:8.64"/>
	<circle cx="923.05" cy="306.66" r="14.97" style="fill:none;stroke:#606060;stroke-width:8.64"/>
	<circle cx="959.43" cy="2324.59" r="14.97" style="fill:none;stroke:#606060;stroke-width:8.64"/>
	<circle cx="995.82" cy="2324.72" r="14.97" style="fill:none;stroke:#606060;stroke-width:8.64"/>
	<circle cx="995.82" cy="307.03" r="14.97" style="fill:none;stroke:#606060;stroke-width:8.64"/>
	<circle cx="995.82" cy="2324.72" r="14.97" style="fill:none;stroke:#606060;stroke-width:8.64"/>
	<circle cx="995.82" cy="307.03" r="14.97" style="fill:none;stroke:#606060;stroke-width:8.64"/>
	<circle cx="995.82" cy="2324.72" r="14.97" style="fill:none;stroke:#606060;stroke-width:8.64"/>
	<circle cx="1032.20" cy="307.03" r="14.97" style="fill:none;stroke:#606060;stroke-width:8.64"/>
	<circle cx="1032.20" cy="307.03" r="14.97" style="fill:none;stroke:#606060;stroke-width:8.64"/>
	<circle cx="1032.20" cy="2324.72" r="14.97" style="fill:none;stroke:#606060;stroke-width:8.64"/>
	<circle cx="1032.20" cy="307.03" r="14.97" style="fill:none;stroke:#606060;stroke-width:8.64"/>
	<circle cx="1032.20" cy="307.03" r="14.97" style="fill:none;stroke:#606060;stroke-width:8.64"/>
	<circle cx="1032.20" cy="307.03" r="14.97" style="fill:none;stroke:#606060;stroke-width:8.64"/>
	<circle cx="1032.20" cy="307.03" r="14.97" style="fill:none;stroke:#606060;stroke-width:8.64"/>
	<circle cx="1068.58" cy="307.65" r="14.97" style="fill:none;stroke:#606060;stroke-width:8.64"/>
	<circle cx="1068.58" cy="307.65" r="14.97" style="fill:none;stroke:#606060;stroke-width:8.64"/>
	<circle cx="1068.58" cy="307.65" r="14.97" style="fill:none;stroke:#606060;stroke-width:8.64"/>
	<circle cx="1104.96" cy="308.27" r="14.97" style="fill:none;stroke:#606060;stroke-width:8.64"/>
	<circle cx="1104.96" cy="308.27" r="14.97" style="fill:none;stroke:#606060;stroke-width:8.64"/>
	<circle cx="1104.96" cy="308.27" r="14.97" style="fill:none;stroke:#606060;stroke-width:8.64"/>
	<circle cx="1104.96" cy="308.27" r="14.97" style="fill:none;stroke:#606060;stroke-width:8.64"/>
	<circle cx="1104.96" cy="308.27" r="14.97" style="fill:none;stroke:#606060;stroke-width:8.64"/>
	<circle cx="1104.96" cy="308.27" r="14.97" style="fill:none;stroke:#606060;stroke-width:8.64"/>
	<circle cx="1104.96" cy="2325.83" r="14.97" style="fill:none;stroke:#606060;stroke-width:8.64"/>
	<circle cx="1104.96" cy="2325.83" r="14.97" style="fill:none;stroke:#606060;stroke-width:8.64"/>
	<circle cx="1104.96" cy="308.27" r="14.97" style="fill:none;stroke:#606060;stroke-width:8.64"/>
	<circle cx="1104.96" cy="308.27" r="14.97" style="fill:none;stroke:#606060;stroke-width:8.64"/>
	<circle cx="1141.22" cy="2326.20" r="14.97" style="fill:none;stroke:#606060;stroke-width:8.64"/>
	<circle cx="1141.22" cy="2326.20" r="14.97" style="fill:none;stroke:#606060;stroke-width:8.64"/>
	<circle cx="1141.22" cy="308.64" r="14.97" style="fill:none;stroke:#606060;stroke-width:8.64"/>
	<circle cx="1141.22" cy="308.64" r="14.97" style="fill:none;stroke:#606060;stroke-width:8.64"/>
	<circle cx="1177.61" cy="309.14" r="14.97" style="fill:none;stroke:#606060;stroke-width:8.64"/>
	<circle cx="1177.61" cy="309.14" r="14.97" style="fill:none;stroke:#606060;stroke-width:8.64"/>
	<circle cx="1177.61" cy="309.14" r="14.97" style="fill:none;stroke:#606060;stroke-width:8.64"/>
	<circle cx="1177.61" cy="2326.70" r="14.97" style="fill:none;stroke:#606060;stroke-width:8.64"/>
	<circle cx="1177.61" cy="309.14" r="14.97" style="fill:none;stroke:#606060;stroke-width:8.64"/>
	<circle cx="1177.61" cy="309.14" r="14.97" style="fill:none;stroke:#606060;stroke-width:8.64"/>
	<circle cx="1177.61" cy="309.14" r="14.97" style="fill:none;stroke:#606060;stroke-width:8.64"/>
	<circle cx="1177.61" cy="309.14" r="14.97" style="fill:none;stroke:#606060;stroke-width:8.64"/>
	<circle cx="1213.99" cy="309.51" r="14.97" style="fill:none;stroke:#606060;stroke-width:8.64"/>
	<circle cx="1213.99" cy="309.51" r="14.97" style="fill:none;stroke:#606060;stroke-width:8.64"/>
	<circle cx="1213.99" cy="2327.07" r="14.97" style="fill:none;stroke:#606060;stroke-width:8.64"/>
	<circle cx="1213.99" cy="309.51" r="14.97" style="fill:none;stroke:#606060;stroke-width:8.64"/>
	<circle cx="1213.99" cy="2327.07" r="14.97" style="fill:none;stroke:#606060;stroke-width:8.64"/>
	<circle cx="1213.99" cy="2327.07" r="14.97" style="fill:none;stroke:#606060;stroke-width:8.64"/>
	<circle cx="1250.37" cy="2327.07" r="14.97" style="fill:none;stroke:#606060;stroke-width:8.64"/>
	<circle cx="1250.37" cy="309.51" r="14.97" style="fill:none;stroke:#606060;stroke-width:8.64"/>
	<circle cx="1250.37" cy="309.51" r="14.97" style="fill:none;stroke:#606060;stroke-width:8.64"/>
	<circle cx="1250.37" cy="2327.07" r="14.97" style="fill:none;stroke:#606060;stroke-width:8.64"/>
	<circle cx="1250.37" cy="309.51" r="14.97" style="fill:none;stroke:#606060;stroke-width:8.64"/>
	<circle cx="1250.37" cy="309.51" r="14.97" style="fill:none;stroke:#606060;stroke-width:8.64"/>
	<circle cx="1250.37" cy="2327.07" r="14.97" style="fill:none;stroke:#606060;stroke-width:8.64"/>
	<circle cx="1250.37" cy="309.51" r="14.97" style="fill:none;stroke:#606060;stroke-width:8.64"/>
	<circle cx="1286.75" cy="309.51" r="14.97" style="fill:none;stroke:#606060;stroke-width:8.64"/>
	<circle cx="1286.75" cy="309.51" r="14.97" style="fill:none;stroke:#606060;stroke-width:8.64"/>
	<circle cx="1286.75" cy="309.51" r="14.97" style="fill:none;stroke:#606060;stroke-width:8.64"/>
	<circle cx="1323.13" cy="2327.81" r="14.97" style="fill:none;stroke:#606060;stroke-width:8.64"/>
	<circle cx="1323.13" cy="310.13" r="14.97" style="fill:none;stroke:#606060;stroke-width:8.64"/>
	<circle cx="1323.13" cy="2327.81" r="14.97" style="fill:none;stroke:#606060;stroke-width:8.64"/>
	<circle cx="1323.13" cy="2327.81" r="14.97" style="fill:none;stroke:#606060;stroke-width:8.64"/>
	<circle cx="1323.13" cy="2327.81" r="14.97" style="fill:none;stroke:#606060;stroke-width:8.64"/>
	<circle cx="1323.13" cy="310.13" r="14.97" style="fill:none;stroke:#606060;stroke-width:8.64"/>
	<circle cx="1323.13" cy="2327.81" r="14.97" style="fill:none;stroke:#606060;stroke-width:8.64"/>
	<circle cx="1323.13" cy="310.13" r="14.97" style="fill:none;stroke:#606060;stroke-width:8.64"/>
	<circle cx="1323.13" cy="310.13" r="14.97" style="fill:none;stroke:#606060;stroke-width:8.64"/>
	<circle cx="1323.13" cy="310.13" r="14.97" style="fill:none;stroke:#606060;stroke-width:8.64"/>
	<circle cx="1323.13" cy="310.13" r="14.97" style="fill:none;stroke:#606060;stroke-width:8.64"/>
	<circle cx="1323.13" cy="2327.81" r="14.97" style="fill:none;stroke:#606060;stroke-width:8.64"/>
	<circle cx="1359.39" cy="310.75" r="14.97" style="fill:none;stroke:#606060;stroke-width:8.64"/>
	<circle cx="1359.39" cy="310.75" r="14.97" style="fill:none;stroke:#606060;stroke-width:8.64"/>
	<circle cx="1359.39" cy="310.75" r="14.97" style="fill:none;stroke:#606060;stroke-width:8.64"/>
	<circle cx="1359.39" cy="2328.31" r="14.97" style="fill:none;stroke:#606060;stroke-width:8.64"/>
	<circle cx="1359.39" cy="310.75" r="14.97" style="fill:none;stroke:#606060;stroke-width:8.64"/>
	<circle cx="1359.39" cy="2328.31" r="14.97" style="fill:none;stroke:#606060;stroke-width:8.64"/>
	<circle cx="1359.39" cy="310.75" r="14.97" style="fill:none;stroke:#606060;stroke-width:8.64"/>
	<circle cx="1359.39" cy="310.75" r="14.97" style="fill:none;stroke:#606060;stroke-width:8.64"/>
	<circle cx="1359.39" cy="310.75" r="14.97" style="fill:none;stroke:#606060;stroke-width:8.64"/>
	<circle cx="1359.39" cy="310.75" r="14.97" style="fill:none;stroke:#606060;stroke-width:8.64"/>
	<circle cx="1395.78" cy="311.12" r="14.97" style="fill:none;stroke:#606060;stroke-width:8.64"/>
	<circle cx="1395.78" cy="311.12" r="14.97" style="fill:none;stroke:#606060;stroke-width:8.64"/>
	<circle cx="1395.78" cy="2328.68" r="14.97" style="fill:none;stroke:#606060;stroke-width:8.64"/>
	<circle cx="1395.78" cy="311.12" r="14.97" style="fill:none;stroke:#606060;stroke-width:8.64"/>
	<circle cx="1395.78" cy="2328.68" r="14.97" style="fill:none;stroke:#606060;stroke-width:8.64"/>
	<circle cx="1395.78" cy="311.12" r="14.97" style="fill:none;stroke:#606060;stroke-width:8.64"/>
	<circle cx="1395.78" cy="311.12" r="14.97" style="fill:none;stroke:#606060;stroke-width:8.64"/>
	<circle cx="1395.78" cy="311.12" r="14.97" style="fill:none;stroke:#606060;stroke-width:8.64"/>
	<circle cx="1395.78" cy="311.12" r="14.97" style="fill:none;stroke:#606060;stroke-width:8.64"/>
	<circle cx="1395.78" cy="2328.68" r="14.97" style="fill:none;stroke:#606060;stroke-width:8.64"/>
	<circle cx="1395.78" cy="311.12" r="14.97" style="fill:none;stroke:#606060;stroke-width:8.64"/>
	<circle cx="1395.78" cy="311.12" r="14.97" style="fill:none;stroke:#606060;stroke-width:8.64"/>
	<circle cx="1395.78" cy="2328.68" r="14.97" style="fill:none;stroke:#606060;stroke-width:8.64"/>
	<circle cx="1395.78" cy="311.12" r="14.97" style="fill:none;stroke:#606060;stroke-width:8.64"/>
	<circle cx="1395.78" cy="311.12" r="14.97" style="fill:none;stroke:#606060;stroke-width:8.64"/>
	<circle cx="1432.16" cy="311.49" r="14.97" style="fill:none;stroke:#606060;stroke-width:8.64"/>
	<circle cx="1432.16" cy="2329.17" r="14.97" style="fill:none;stroke:#606060;stroke-width:8.64"/>
	<circle cx="1432.16" cy="2329.17" r="14.97" style="fill:none;stroke:#606060;stroke-width:8.64"/>
	<circle cx="1432.16" cy="311.49" r="14.97" style="fill:none;stroke:#606060;stroke-width:8.64"/>
	<circle cx="1432.16" cy="311.49" r="14.97" style="fill:none;stroke:#606060;stroke-width:8.64"/>
	<circle cx="1432.16" cy="311.49" r="14.97" style="fill:none;stroke:#606060;stroke-width:8.64"/>
	<circle cx="1432.16" cy="311.49" r="14.97" style="fill:none;stroke:#606060;stroke-width:8.64"/>
	<circle cx="1432.16" cy="2329.17" r="14.97" style="fill:none;stroke:#606060;stroke-width:8.64"/>
	<circle cx="1432.16" cy="311.49" r="14.97" style="fill:none;stroke:#606060;stroke-width:8.64"/>
	<circle cx="1432.16" cy="2329.17" r="14.97" style="fill:none;stroke:#606060;stroke-width:8.64"/>
	<circle cx="1432.16" cy="311.49" r="14.97" style="fill:none;stroke:#606060;stroke-width:8.64"/>
	<circle cx="1468.54" cy="2329.42" r="14.97" style="fill:none;stroke:#606060;stroke-width:8.64"/>
	<circle cx="1468.54" cy="2329.42" r="14.97" style="fill:none;stroke:#606060;stroke-width:8.64"/>
	<circle cx="1468.54" cy="311.74" r="14.97" style="fill:none;stroke:#606060;stroke-width:8.64"/>
	<circle cx="1468.54" cy="311.74" r="14.97" style="fill:none;stroke:#606060;stroke-width:8.64"/>
	<circle cx="1468.54" cy="311.74" r="14.97" style="fill:none;stroke:#606060;stroke-width:8.64"/>
	<circle cx="1468.54" cy="311.74" r="14.97" style="fill:none;stroke:#606060;stroke-width:8.64"/>
	<circle cx="1468.54" cy="311.74" r="14.97" style="fill:none;stroke:#606060;stroke-width:8.64"/>
	<circle cx="1468.54" cy="2329.42" r="14.97" style="fill:none;stroke:#606060;stroke-width:8.64"/>
	<circle cx="1468.54" cy="311.74" r="14.97" style="fill:none;stroke:#606060;stroke-width:8.64"/>
	<circle cx="1504.92" cy="311.74" r="14.97" style="fill:none;stroke:#606060;stroke-width:8.64"/>
	<circle cx="1504.92" cy="311.74" r="14.97" style="fill:none;stroke:#606060;stroke-width:8.64"/>
	<circle cx="1504.92" cy="311.74" r="14.97" style="fill:none;stroke:#606060;stroke-width:8.64"/>
	<circle cx="1504.92" cy="311.74" r="14.97" style="fill:none;stroke:#606060;stroke-width:8.64"/>
	<circle cx="1504.92" cy="311.74" r="14.97" style="fill:none;stroke:#606060;stroke-width:8.64"/>
	<circle cx="1504.92" cy="311.74" r="14.97" style="fill:none;stroke:#606060;stroke-width:8.64"/>
	<circle cx="1504.92" cy="311.74" r="14.97" style="fill:none;stroke:#606060;stroke-width:8.64"/>
	<circle cx="1541.18" cy="311.74" r="14.97" style="fill:none;stroke:#606060;stroke-width:8.64"/>
	<circle cx="1541.18" cy="311.74" r="14.97" style="fill:none;stroke:#606060;stroke-width:8.64"/>
	<circle cx="1541.18" cy="2329.42" r="14.97" style="fill:none;stroke:#606060;stroke-width:8.64"/>
	<circle cx="1541.18" cy="2329.42" r="14.97" style="fill:none;stroke:#606060;stroke-width:8.64"/>
	<circle cx="1541.18" cy="311.74" r="14.97" style="fill:none;stroke:#606060;stroke-width:8.64"/>
	<circle cx="1541.18" cy="2329.42" r="14.97" style="fill:none;stroke:#606060;stroke-width:8.64"/>
	<circle cx="1541.18" cy="311.74" r="14.97" style="fill:none;stroke:#606060;stroke-width:8.64"/>
	<circle cx="1541.18" cy="311.74" r="14.97" style="fill:none;stroke:#606060;stroke-width:8.64"/>
	<circle cx="1541.18" cy="311.74" r="14.97" style="fill:none;stroke:#606060;stroke-width:8.64"/>
	<circle cx="1541.18" cy="311.74" r="14.97" style="fill:none;stroke:#606060;stroke-width:8.64"/>
	<circle cx="1577.57" cy="312.11" r="14.97" style="fill:none;stroke:#606060;stroke-width:8.64"/>
	<circle cx="1577.57" cy="312.11" r="14.97" style="fill:none;stroke:#606060;stroke-width:8.64"/>
	<circle cx="1577.57" cy="2329.67" r="14.97" style="fill:none;stroke:#606060;stroke-width:8.64"/>
	<circle cx="1577.57" cy="312.11" r="14.97" style="fill:none;stroke:#606060;stroke-width:8.64"/>
	<circle cx="1577.57" cy="312.11" r="14.97" style="fill:none;stroke:#606060;stroke-width:8.64"/>
	<circle cx="1577.57" cy="2329.67" r="14.97" style="fill:none;stroke:#606060;stroke-width:8.64"/>
	<circle cx="1577.57" cy="312.11" r="14.97" style="fill:none;stroke:#606060;stroke-width:8.64"/>
	<circle cx="1613.95" cy="2330.16" r="14.97" style="fill:none;stroke:#606060;stroke-width:8.64"/>
	<circle cx="1613.95" cy="312.60" r="14.97" style="fill:none;stroke:#606060;stroke-width:8.64"/>
	<circle cx="1613.95" cy="2330.16" r="14.97" style="fill:none;stroke:#606060;stroke-width:8.64"/>
	<circle cx="1613.95" cy="312.60" r="14.97" style="fill:none;stroke:#606060;stroke-width:8.64"/>
	<circle cx="1613.95" cy="2330.16" r="14.97" style="fill:none;stroke:#606060;stroke-width:8.64"/>
	<circle cx="1613.95" cy="312.60" r="14.97" style="fill:none;stroke:#606060;stroke-width:8.64"/>
	<circle cx="1650.33" cy="2330.66" r="14.97" style="fill:none;stroke:#606060;stroke-width:8.64"/>
	<circle cx="1650.33" cy="2330.66" r="14.97" style="fill:none;stroke:#606060;stroke-width:8.64"/>
	<circle cx="1650.33" cy="2330.66" r="14.97" style="fill:none;stroke:#606060;stroke-width:8.64"/>
	<circle cx="1650.33" cy="2330.66" r="14.97" style="fill:none;stroke:#606060;stroke-width:8.64"/>
	<circle cx="1650.33" cy="313.10" r="14.97" style="fill:none;stroke:#606060;stroke-width:8.64"/>
	<circle cx="1650.33" cy="313.10" r="14.97" style="fill:none;stroke:#606060;stroke-width:8.64"/>
	<circle cx="1650.33" cy="313.10" r="14.97" style="fill:none;stroke:#606060;stroke-width:8.64"/>
	<circle cx="1650.33" cy="2330.66" r="14.97" style="fill:none;stroke:#606060;stroke-width:8.64"/>
	<circle cx="1650.33" cy="313.10" r="14.97" style="fill:none;stroke:#606060;stroke-width:8.64"/>
	<circle cx="1650.33" cy="313.10" r="14.97" style="fill:none;stroke:#606060;stroke-width:8.64"/>
	<circle cx="1686.71" cy="2331.15" r="14.97" style="fill:none;stroke:#606060;stroke-width:8.64"/>
	<circle cx="1686.71" cy="2331.15" r="14.97" style="fill:none;stroke:#606060;stroke-width:8.64"/>
	<circle cx="1686.71" cy="313.59" r="14.97" style="fill:none;stroke:#606060;stroke-width:8.64"/>
	<circle cx="1686.71" cy="2331.15" r="14.97" style="fill:none;stroke:#606060;stroke-width:8.64"/>
	<circle cx="1686.71" cy="2331.15" r="14.97" style="fill:none;stroke:#606060;stroke-width:8.64"/>
	<circle cx="1686.71" cy="313.59" r="14.97" style="fill:none;stroke:#606060;stroke-width:8.64"/>
	<circle cx="1686.71" cy="313.59" r="14.97" style="fill:none;stroke:#606060;stroke-width:8.64"/>
	<circle cx="1686.71" cy="2331.15" r="14.97" style="fill:none;stroke:#606060;stroke-width:8.64"/>
	<circle cx="1723.10" cy="2331.65" r="14.97" style="fill:none;stroke:#606060;stroke-width:8.64"/>
	<circle cx="1723.10" cy="313.96" r="14.97" style="fill:none;stroke:#606060;stroke-width:8.64"/>
	<circle cx="1723.10" cy="2331.65" r="14.97" style="fill:none;stroke:#606060;stroke-width:8.64"/>
	<circle cx="1723.10" cy="313.96" r="14.97" style="fill:none;stroke:#606060;stroke-width:8.64"/>
	<circle cx="1723.10" cy="313.96" r="14.97" style="fill:none;stroke:#606060;stroke-width:8.64"/>
	<circle cx="1723.10" cy="313.96" r="14.97" style="fill:none;stroke:#606060;stroke-width:8.64"/>
	<circle cx="1723.10" cy="313.96" r="14.97" style="fill:none;stroke:#606060;stroke-width:8.64"/>
	<circle cx="1759.35" cy="313.96" r="14.97" style="fill:none;stroke:#606060;stroke-width:8.64"/>
	<circle cx="1759.35" cy="313.96" r="14.97" style="fill:none;stroke:#606060;stroke-width:8.64"/>
	<circle cx="1759.35" cy="313.96" r="14.97" style="fill:none;stroke:#606060;stroke-width:8.64"/>
	<circle cx="1759.35" cy="2331.65" r="14.97" style="fill:none;stroke:#606060;stroke-width:8.64"/>
	<circle cx="1759.35" cy="313.96" r="14.97" style="fill:none;stroke:#606060;stroke-width:8.64"/>
	<circle cx="1759.35" cy="2331.65" r="14.97" style="fill:none;stroke:#606060;stroke-width:8.64"/>
	<circle cx="1759.35" cy="2331.65" r="14.97" style="fill:none;stroke:#606060;stroke-width:8.64"/>
	<circle cx="1759.35" cy="2331.65" r="14.97" style="fill:none;stroke:#606060;stroke-width:8.64"/>
	<circle cx="1795.74" cy="314.09" r="14.97" style="fill:none;stroke:#606060;stroke-width:8.64"/>
	<circle cx="1795.74" cy="2331.65" r="14.97" style="fill:none;stroke:#606060;stroke-width:8.64"/>
	<circle cx="1795.74" cy="2331.65" r="14.97" style="fill:none;stroke:#606060;stroke-width:8.64"/>
	<circle cx="1795.74" cy="314.09" r="14.97" style="fill:none;stroke:#606060;stroke-width:8.64"/>
	<circle cx="1795.74" cy="314.09" r="14.97" style="fill:none;stroke:#606060;stroke-width:8.64"/>
	<circle cx="1795.74" cy="2331.65" r="14.97" style="fill:none;stroke:#606060;stroke-width:8.64"/>
	<circle cx="1795.74" cy="314.09" r="14.97" style="fill:none;stroke:#606060;stroke-width:8.64"/>
	<circle cx="1795.74" cy="314.09" r="14.97" style="fill:none;stroke:#606060;stroke-width:8.64"/>
	<circle cx="1832.12" cy="314.83" r="14.97" style="fill:none;stroke:#606060;stroke-width:8.64"/>
	<circle cx="1832.12" cy="2332.39" r="14.97" style="fill:none;stroke:#606060;stroke-width:8.64"/>
	<circle cx="1832.12" cy="2332.39" r="14.97" style="fill:none;stroke:#606060;stroke-width:8.64"/>
	<circle cx="1832.12" cy="2332.39" r="14.97" style="fill:none;stroke:#606060;stroke-width:8.64"/>
	<circle cx="1832.12" cy="314.83" r="14.97" style="fill:none;stroke:#606060;stroke-width:8.64"/>
	<circle cx="1832.12" cy="2332.39" r="14.97" style="fill:none;stroke:#606060;stroke-width:8.64"/>
	<circle cx="1832.12" cy="2332.39" r="14.97" style="fill:none;stroke:#606060;stroke-width:8.64"/>
	<circle cx="1832.12" cy="314.83" r="14.97" style="fill:none;stroke:#606060;stroke-width:8.64"/>
	<circle cx="1832.12" cy="314.83" r="14.97" style="fill:none;stroke:#606060;stroke-width:8.64"/>
	<circle cx="1832.12" cy="2332.39" r="14.97" style="fill:none;stroke:#606060;stroke-width:8.64"/>
	<circle cx="1832.12" cy="2332.39" r="14.97" style="fill:none;stroke:#606060;stroke-width:8.64"/>
	<circle cx="1832.12" cy="314.83" r="14.97" style="fill:none;stroke:#606060;stroke-width:8.64"/>
	<circle cx="1868.50" cy="2332.88" r="14.97" style="fill:none;stroke:#606060;stroke-width:8.64"/>
	<circle cx="1868.50" cy="2332.88" r="14.97" style="fill:none;stroke:#606060;stroke-width:8.64"/>
	<circle cx="1868.50" cy="315.32" r="14.97" style="fill:none;stroke:#606060;stroke-width:8.64"/>
	<circle cx="1868.50" cy="2332.88" r="14.97" style="fill:none;stroke:#606060;stroke-width:8.64"/>
	<circle cx="1868.50" cy="315.32" r="14.97" style="fill:none;stroke:#606060;stroke-width:8.64"/>
	<circle cx="1904.88" cy="315.82" r="14.97" style="fill:none;stroke:#606060;stroke-width:8.64"/>
	<circle cx="1904.88" cy="2333.38" r="14.97" style="fill:none;stroke:#606060;stroke-width:8.64"/>
	<circle cx="1904.88" cy="315.82" r="14.97" style="fill:none;stroke:#606060;stroke-width:8.64"/>
	<circle cx="1904.88" cy="315.82" r="14.97" style="fill:none;stroke:#606060;stroke-width:8.64"/>
	<circle cx="1904.88" cy="2333.38" r="14.97" style="fill:none;stroke:#606060;stroke-width:8.64"/>
	<circle cx="1904.88" cy="315.82" r="14.97" style="fill:none;stroke:#606060;stroke-width:8.64"/>
	<circle cx="1904.88" cy="315.82" r="14.97" style="fill:none;stroke:#606060;stroke-width:8.64"/>
	<circle cx="1904.88" cy="2333.38" r="14.97" style="fill:none;stroke:#606060;stroke-width:8.64"/>
	<circle cx="1941.27" cy="2333.87" r="14.97" style="fill:none;stroke:#606060;stroke-width:8.64"/>
	<circle cx="1941.27" cy="316.31" r="14.97" style="fill:none;stroke:#606060;stroke-width:8.64"/>
	<circle cx="1941.27" cy="316.31" r="14.97" style="fill:none;stroke:#606060;stroke-width:8.64"/>
	<circle cx="1941.27" cy="316.31" r="14.97" style="fill:none;stroke:#606060;stroke-width:8.64"/>
	<circle cx="1941.27" cy="316.31" r="14.97" style="fill:none;stroke:#606060;stroke-width:8.64"/>
	<circle cx="1977.53" cy="316.81" r="14.97" style="fill:none;stroke:#606060;stroke-width:8.64"/>
	<circle cx="1977.53" cy="316.81" r="14.97" style="fill:none;stroke:#606060;stroke-width:8.64"/>
	<circle cx="1977.53" cy="2334.37" r="14.97" style="fill:none;stroke:#606060;stroke-width:8.64"/>
	<circle cx="1977.53" cy="316.81" r="14.97" style="fill:none;stroke:#606060;stroke-width:8.64"/>
	<circle cx="2013.91" cy="316.81" r="14.97" style="fill:none;stroke:#606060;stroke-width:8.64"/>
	<circle cx="2013.91" cy="316.81" r="14.97" style="fill:none;stroke:#606060;stroke-width:8.64"/>
	<circle cx="2013.91" cy="2334.37" r="14.97" style="fill:none;stroke:#606060;stroke-width:8.64"/>
	<circle cx="2013.91" cy="2334.37" r="14.97" style="fill:none;stroke:#606060;stroke-width:8.64"/>
	<circle cx="2013.91" cy="316.81" r="14.97" style="fill:none;stroke:#606060;stroke-width:8.64"/>
	<circle cx="2013.91" cy="2334.37" r="14.97" style="fill:none;stroke:#606060;stroke-width:8.64"/>
	<circle cx="2050.29" cy="316.81" r="14.97" style="fill:none;stroke:#606060;stroke-width:8.64"/>
	<circle cx="2050.29" cy="2334.37" r="14.97" style="fill:none;stroke:#606060;stroke-width:8.64"/>
	<circle cx="2050.29" cy="316.81" r="14.97" style="fill:none;stroke:#606060;stroke-width:8.64"/>
	<circle cx="2050.29" cy="2334.37" r="14.97" style="fill:none;stroke:#606060;stroke-width:8.64"/>
	<circle cx="2050.29" cy="316.81" r="14.97" style="fill:none;stroke:#606060;stroke-width:8.64"/>
	<circle cx="2050.29" cy="316.81" r="14.97" style="fill:none;stroke:#606060;stroke-width:8.64"/>
	<circle cx="2050.29" cy="316.81" r="14.97" style="fill:none;stroke:#606060;stroke-width:8.64"/>
	<circle cx="2050.29" cy="316.81" r="14.97" style="fill:none;stroke:#606060;stroke-width:8.64"/>
	<circle cx="2050.29" cy="2334.37" r="14.97" style="fill:none;stroke:#606060;stroke-width:8.64"/>
	<circle cx="2050.29" cy="2334.37" r="14.97" style="fill:none;stroke:#606060;stroke-width:8.64"/>
	<circle cx="2050.29" cy="316.81" r="14.97" style="fill:none;stroke:#606060;stroke-width:8.64"/>
	<circle cx="2050.29" cy="316.81" r="14.97" style="fill:none;stroke:#606060;stroke-width:8.64"/>
	<circle cx="2050.29" cy="316.81" r="14.97" style="fill:none;stroke:#606060;stroke-width:8.64"/>
	<circle cx="2086.67" cy="317.55" r="14.97" style="fill:none;stroke:#606060;stroke-width:8.64"/>
	<circle cx="2086.67" cy="317.55" r="14.97" style="fill:none;stroke:#606060;stroke-width:8.64"/>
	<circle cx="2086.67" cy="317.55" r="14.97" style="fill:none;stroke:#606060;stroke-width:8.64"/>
	<circle cx="2086.67" cy="2335.11" r="14.97" style="fill:none;stroke:#606060;stroke-width:8.64"/>
	<circle cx="2086.67" cy="317.55" r="14.97" style="fill:none;stroke:#606060;stroke-width:8.64"/>
	<circle cx="2086.67" cy="2335.11" r="14.97" style="fill:none;stroke:#606060;stroke-width:8.64"/>
	<circle cx="2086.67" cy="317.55" r="14.97" style="fill:none;stroke:#606060;stroke-width:8.64"/>
	<circle cx="2086.67" cy="2335.11" r="14.97" style="fill:none;stroke:#606060;stroke-width:8.64"/>
	<circle cx="2123.05" cy="2335.73" r="14.97" style="fill:none;stroke:#606060;stroke-width:8.64"/>
	<circle cx="2123.05" cy="318.05" r="14.97" style="fill:none;stroke:#606060;stroke-width:8.64"/>
	<circle cx="2123.05" cy="318.05" r="14.97" style="fill:none;stroke:#606060;stroke-width:8.64"/>
	<circle cx="2159.44" cy="2336.23" r="14.97" style="fill:none;stroke:#606060;stroke-width:8.64"/>
	<circle cx="2159.44" cy="2336.23" r="14.97" style="fill:none;stroke:#606060;stroke-width:8.64"/>
	<circle cx="2159.44" cy="318.54" r="14.97" style="fill:none;stroke:#606060;stroke-width:8.64"/>
	<circle cx="2159.44" cy="2336.23" r="14.97" style="fill:none;stroke:#606060;stroke-width:8.64"/>
	<circle cx="2159.44" cy="318.54" r="14.97" style="fill:none;stroke:#606060;stroke-width:8.64"/>
	<circle cx="2159.44" cy="318.54" r="14.97" style="fill:none;stroke:#606060;stroke-width:8.64"/>
	<circle cx="2159.44" cy="2336.23" r="14.97" style="fill:none;stroke:#606060;stroke-width:8.64"/>
	<circle cx="2195.70" cy="2336.72" r="14.97" style="fill:none;stroke:#606060;stroke-width:8.64"/>
	<circle cx="2195.70" cy="319.16" r="14.97" style="fill:none;stroke:#606060;stroke-width:8.64"/>
	<circle cx="2195.70" cy="2336.72" r="14.97" style="fill:none;stroke:#606060;stroke-width:8.64"/>
	<circle cx="2195.70" cy="2336.72" r="14.97" style="fill:none;stroke:#606060;stroke-width:8.64"/>
	<circle cx="2195.70" cy="2336.72" r="14.97" style="fill:none;stroke:#606060;stroke-width:8.64"/>
	<circle cx="2195.70" cy="319.16" r="14.97" style="fill:none;stroke:#606060;stroke-width:8.64"/>
	<circle cx="2195.70" cy="319.16" r="14.97" style="fill:none;stroke:#606060;stroke-width:8.64"/>
	<circle cx="2232.08" cy="2337.22" r="14.97" style="fill:none;stroke:#606060;stroke-width:8.64"/>
	<circle cx="2232.08" cy="319.66" r="14.97" style="fill:none;stroke:#606060;stroke-width:8.64"/>
	<circle cx="2268.46" cy="2337.22" r="14.97" style="fill:none;stroke:#606060;stroke-width:8.64"/>
	<circle cx="2268.46" cy="2337.22" r="14.97" style="fill:none;stroke:#606060;stroke-width:8.64"/>
	<circle cx="2268.46" cy="2337.22" r="14.97" style="fill:none;stroke:#606060;stroke-width:8.64"/>
	<circle cx="2268.46" cy="319.66" r="14.97" style="fill:none;stroke:#606060;stroke-width:8.64"/>
	<circle cx="2304.84" cy="319.66" r="14.97" style="fill:none;stroke:#606060;stroke-width:8.64"/>
	<circle cx="2304.84" cy="2337.22" r="14.97" style="fill:none;stroke:#606060;stroke-width:8.64"/>
	<circle cx="2304.84" cy="2337.22" r="14.97" style="fill:none;stroke:#606060;stroke-width:8.64"/>
	<circle cx="2304.84" cy="2337.22" r="14.97" style="fill:none;stroke:#606060;stroke-width:8.64"/>
	<circle cx="2304.84" cy="319.66" r="14.97" style="fill:none;stroke:#606060;stroke-width:8.64"/>
	<circle cx="2304.84" cy="319.66" r="14.97" style="fill:none;stroke:#606060;stroke-width:8.64"/>
	<circle cx="2304.84" cy="2337.22" r="14.97" style="fill:none;stroke:#606060;stroke-width:8.64"/>
	<circle cx="2341.23" cy="320.40" r="14.97" style="fill:none;stroke:#606060;stroke-width:8.64"/>
	<circle cx="2341.23" cy="2337.96" r="14.97" style="fill:none;stroke:#606060;stroke-width:8.64"/>
	<circle cx="2341.23" cy="320.40" r="14.97" style="fill:none;stroke:#606060;stroke-width:8.64"/>
	<circle cx="2341.23" cy="320.40" r="14.97" style="fill:none;stroke:#606060;stroke-width:8.64"/>
	<circle cx="2341.23" cy="320.40" r="14.97" style="fill:none;stroke:#606060;stroke-width:8.64"/>
	<circle cx="2341.23" cy="2337.96" r="14.97" style="fill:none;stroke:#606060;stroke-width:8.64"/>
	<circle cx="2377.61" cy="2338.58" r="14.97" style="fill:none;stroke:#606060;stroke-width:8.64"/>
	<circle cx="2377.61" cy="320.89" r="14.97" style="fill:none;stroke:#606060;stroke-width:8.64"/>
	<circle cx="2377.61" cy="2338.58" r="14.97" style="fill:none;stroke:#606060;stroke-width:8.64"/>
	<circle cx="2413.87" cy="321.39" r="14.97" style="fill:none;stroke:#606060;stroke-width:8.64"/>
	<circle cx="2450.25" cy="2339.44" r="14.97" style="fill:none;stroke:#606060;stroke-width:8.64"/>
	<circle cx="2450.25" cy="2339.44" r="14.97" style="fill:none;stroke:#606060;stroke-width:8.64"/>
	<circle cx="2486.63" cy="322.01" r="14.97" style="fill:none;stroke:#606060;stroke-width:8.64"/>
	<circle cx="2486.63" cy="322.01" r="14.97" style="fill:none;stroke:#606060;stroke-width:8.64"/>
	<circle cx="2486.63" cy="322.01" r="14.97" style="fill:none;stroke:#606060;stroke-width:8.64"/>
	<circle cx="2595.78" cy="322.75" r="14.97" style="fill:none;stroke:#606060;stroke-width:8.64"/>
	<circle cx="2595.78" cy="322.75" r="14.97" style="fill:none;stroke:#606060;stroke-width:8.64"/>
	<circle cx="2595.78" cy="2340.43" r="14.97" style="fill:none;stroke:#606060;stroke-width:8.64"/>
	<circle cx="2595.78" cy="2340.43" r="14.97" style="fill:none;stroke:#606060;stroke-width:8.64"/>
	<circle cx="2595.78" cy="2340.43" r="14.97" style="fill:none;stroke:#606060;stroke-width:8.64"/>
	<circle cx="2595.78" cy="2340.43" r="14.97" style="fill:none;stroke:#606060;stroke-width:8.64"/>
	<circle cx="2595.78" cy="322.75" r="14.97" style="fill:none;stroke:#606060;stroke-width:8.64"/>
	<circle cx="2595.78" cy="2340.43" r="14.97" style="fill:none;stroke:#606060;stroke-width:8.64"/>
	<circle cx="2632.04" cy="2340.93" r="14.97" style="fill:none;stroke:#606060;stroke-width:8.64"/>
	<circle cx="2632.04" cy="2340.93" r="14.97" style="fill:none;stroke:#606060;stroke-width:8.64"/>
	<circle cx="2632.04" cy="323.37" r="14.97" style="fill:none;stroke:#606060;stroke-width:8.64"/>
	<circle cx="2668.42" cy="323.86" r="14.97" style="fill:none;stroke:#606060;stroke-width:8.64"/>
	<circle cx="2668.42" cy="2341.42" r="14.97" style="fill:none;stroke:#606060;stroke-width:8.64"/>
	<circle cx="2704.80" cy="2341.92" r="14.97" style="fill:none;stroke:#606060;stroke-width:8.64"/>
	<circle cx="2741.19" cy="324.85" r="14.97" style="fill:none;stroke:#606060;stroke-width:8.64"/>
	<circle cx="2777.57" cy="2342.41" r="14.97" style="fill:none;stroke:#606060;stroke-width:8.64"/>
	<circle cx="2777.57" cy="324.85" r="14.97" style="fill:none;stroke:#606060;stroke-width:8.64"/>
	<circle cx="2813.95" cy="324.85" r="14.97" style="fill:none;stroke:#606060;stroke-width:8.64"/>
	<circle cx="2813.95" cy="324.85" r="14.97" style="fill:none;stroke:#606060;stroke-width:8.64"/>
	<circle cx="2850.21" cy="2343.03" r="14.97" style="fill:none;stroke:#606060;stroke-width:8.64"/>
	<circle cx="2850.21" cy="2343.03" r="14.97" style="fill:none;stroke:#606060;stroke-width:8.64"/>
	<circle cx="2850.21" cy="325.47" r="14.97" style="fill:none;stroke:#606060;stroke-width:8.64"/>
	<circle cx="2886.59" cy="325.97" r="14.97" style="fill:none;stroke:#606060;stroke-width:8.64"/>
	<circle cx="2886.59" cy="325.97" r="14.97" style="fill:none;stroke:#606060;stroke-width:8.64"/>
	<circle cx="2922.97" cy="326.59" r="14.97" style="fill:none;stroke:#606060;stroke-width:8.64"/>
	<circle cx="2922.97" cy="326.59" r="14.97" style="fill:none;stroke:#606060;stroke-width:8.64"/>
	<circle cx="2959.36" cy="2344.52" r="14.97" style="fill:none;stroke:#606060;stroke-width:8.64"/>
	<circle cx="2959.36" cy="2344.52" r="14.97" style="fill:none;stroke:#606060;stroke-width:8.64"/>
	<circle cx="2959.36" cy="2344.52" r="14.97" style="fill:none;stroke:#606060;stroke-width:8.64"/>
	<circle cx="2959.36" cy="2344.52" r="14.97" style="fill:none;stroke:#606060;stroke-width:8.64"/>
	<circle cx="3068.38" cy="327.45" r="14.97" style="fill:none;stroke:#606060;stroke-width:8.64"/>
	<circle cx="3068.38" cy="327.45" r="14.97" style="fill:none;stroke:#606060;stroke-width:8.64"/>
	<circle cx="3068.38" cy="327.45" r="14.97" style="fill:none;stroke:#606060;stroke-width:8.64"/>
	<circle cx="3104.76" cy="327.45" r="14.97" style="fill:none;stroke:#606060;stroke-width:8.64"/>
	<circle cx="3104.76" cy="327.45" r="14.97" style="fill:none;stroke:#606060;stroke-width:8.64"/>
	<circle cx="3104.76" cy="2345.01" r="14.97" style="fill:none;stroke:#606060;stroke-width:8.64"/>
	<circle cx="3177.53" cy="2346.25" r="14.97" style="fill:none;stroke:#606060;stroke-width:8.64"/>
	<circle cx="3177.53" cy="2346.25" r="14.97" style="fill:none;stroke:#606060;stroke-width:8.64"/>
	<circle cx="3213.91" cy="2346.74" r="14.97" style="fill:none;stroke:#606060;stroke-width:8.64"/>
	<circle cx="3213.91" cy="329.06" r="14.97" style="fill:none;stroke:#606060;stroke-width:8.64"/>
	<circle cx="3213.91" cy="329.06" r="14.97" style="fill:none;stroke:#606060;stroke-width:8.64"/>
	<circle cx="3250.29" cy="329.56" r="14.97" style="fill:none;stroke:#606060;stroke-width:8.64"/>
	<circle cx="3322.93" cy="329.56" r="14.97" style="fill:none;stroke:#606060;stroke-width:8.64"/>
	<circle cx="3395.70" cy="2348.35" r="14.97" style="fill:none;stroke:#606060;stroke-width:8.64"/>
	<circle cx="3395.70" cy="330.79" r="14.97" style="fill:none;stroke:#606060;stroke-width:8.64"/>
	<circle cx="3395.70" cy="330.79" r="14.97" style="fill:none;stroke:#606060;stroke-width:8.64"/>
	<circle cx="3468.47" cy="331.66" r="14.97" style="fill:none;stroke:#606060;stroke-width:8.64"/>
	<circle cx="3504.72" cy="332.16" r="14.97" style="fill:none;stroke:#606060;stroke-width:8.64"/>
	<circle cx="3650.25" cy="2350.95" r="14.97" style="fill:none;stroke:#606060;stroke-width:8.64"/>
	<circle cx="3686.64" cy="2351.45" r="14.97" style="fill:none;stroke:#606060;stroke-width:8.64"/>
	<circle cx="3722.89" cy="334.26" r="14.97" style="fill:none;stroke:#606060;stroke-width:8.64"/>
	<circle cx="3722.89" cy="334.26" r="14.97" style="fill:none;stroke:#606060;stroke-width:8.64"/>
	<circle cx="3722.89" cy="334.26" r="14.97" style="fill:none;stroke:#606060;stroke-width:8.64"/>
	<circle cx="3795.66" cy="334.75" r="14.97" style="fill:none;stroke:#606060;stroke-width:8.64"/>
	<path d=" M414.07 963.30 L559.47 958.84 L559.47 954.39 L741.26 950.06 L777.64 945.85 L777.64 941.64 L814.03 950.80 L814.03 946.59 L850.41 942.39 L850.41 951.42 L850.41 947.34 L850.41 956.12 L886.79 952.04 L886.79 960.83 L923.05 956.74 L923.05 965.28 L923.05 961.20 L923.05 969.74 L923.05 978.03 L959.43 986.32 L995.82 994.49 L995.82 990.40 L995.82 986.32 L995.82 982.23 L995.82 990.28 L1032.20 986.32 L1032.20 982.36 L1032.20 990.15 L1032.20 997.95 L1032.20 993.99 L1032.20 1001.66 L1032.20 1009.21 L1068.58 1005.25 L1068.58 1001.42 L1068.58 1008.84 L1104.96 1016.14 L1104.96 1012.31 L1104.96 1019.48 L1104.96 1015.65 L1104.96 1011.81 L1104.96 1008.10 L1104.96 1004.39 L1104.96 1000.67 L1104.96 996.96 L1104.96 993.37 L1141.22 1000.43 L1141.22 996.84 L1141.22 1003.77 L1141.22 1010.70 L1177.61 1017.50 L1177.61 1013.92 L1177.61 1020.60 L1177.61 1027.28 L1177.61 1023.69 L1177.61 1020.10 L1177.61 1026.66 L1177.61 1023.07 L1213.99 1019.61 L1213.99 1016.14 L1213.99 1022.58 L1213.99 1029.01 L1213.99 1035.32 L1213.99 1031.86 L1250.37 1038.05 L1250.37 1044.24 L1250.37 1040.77 L1250.37 1037.30 L1250.37 1043.49 L1250.37 1049.56 L1250.37 1046.09 L1250.37 1052.03 L1286.75 1057.97 L1286.75 1054.51 L1286.75 1060.45 L1323.13 1056.98 L1323.13 1053.64 L1323.13 1059.46 L1323.13 1056.12 L1323.13 1052.77 L1323.13 1058.47 L1323.13 1055.25 L1323.13 1051.91 L1323.13 1057.60 L1323.13 1063.17 L1323.13 1059.95 L1323.13 1056.61 L1359.39 1053.52 L1359.39 1050.30 L1359.39 1047.08 L1359.39 1043.99 L1359.39 1049.56 L1359.39 1046.34 L1359.39 1043.37 L1359.39 1040.28 L1359.39 1045.72 L1359.39 1051.04 L1395.78 1047.95 L1395.78 1053.27 L1395.78 1050.30 L1395.78 1055.50 L1395.78 1052.53 L1395.78 1057.72 L1395.78 1054.75 L1395.78 1051.78 L1395.78 1048.81 L1395.78 1045.84 L1395.78 1051.04 L1395.78 1056.12 L1395.78 1053.15 L1395.78 1050.30 L1395.78 1047.45 L1432.16 1044.61 L1432.16 1041.76 L1432.16 1038.91 L1432.16 1043.99 L1432.16 1041.14 L1432.16 1046.09 L1432.16 1043.37 L1432.16 1048.20 L1432.16 1053.15 L1432.16 1050.30 L1432.16 1047.58 L1468.54 1052.40 L1468.54 1057.23 L1468.54 1054.51 L1468.54 1059.21 L1468.54 1056.49 L1468.54 1053.76 L1468.54 1058.47 L1468.54 1063.17 L1468.54 1060.45 L1504.92 1065.03 L1504.92 1069.60 L1504.92 1074.18 L1504.92 1071.46 L1504.92 1068.74 L1504.92 1073.32 L1504.92 1070.59 L1541.18 1075.05 L1541.18 1079.50 L1541.18 1083.96 L1541.18 1081.24 L1541.18 1078.64 L1541.18 1082.97 L1541.18 1087.30 L1541.18 1094.36 L1541.18 1087.55 L1541.18 1080.62 L1577.57 1087.55 L1577.57 1080.74 L1577.57 1087.67 L1577.57 1087.80 L1577.57 1087.80 L1577.57 1087.92 L1577.57 1087.92 L1613.95 1087.92 L1613.95 1081.11 L1613.95 1088.04 L1613.95 1081.11 L1613.95 1088.17 L1613.95 1088.29 L1650.33 1088.29 L1650.33 1081.36 L1650.33 1081.36 L1650.33 1074.55 L1650.33 1067.62 L1650.33 1074.55 L1650.33 1074.68 L1650.33 1081.73 L1650.33 1081.73 L1650.33 1081.86 L1686.71 1088.79 L1686.71 1088.91 L1686.71 1095.96 L1686.71 1095.96 L1686.71 1096.09 L1686.71 1103.14 L1686.71 1110.07 L1686.71 1110.20 L1723.10 1117.25 L1723.10 1117.25 L1723.10 1117.37 L1723.10 1117.37 L1723.10 1124.43 L1723.10 1131.48 L1723.10 1131.48 L1759.35 1124.68 L1759.35 1117.74 L1759.35 1117.74 L1759.35 1117.87 L1759.35 1117.87 L1759.35 1117.99 L1759.35 1125.05 L1759.35 1132.10 L1795.74 1132.10 L1795.74 1132.22 L1795.74 1132.22 L1795.74 1125.29 L1795.74 1125.42 L1795.74 1132.47 L1795.74 1139.53 L1795.74 1146.58 L1832.12 1153.63 L1832.12 1153.63 L1832.12 1146.70 L1832.12 1146.83 L1832.12 1139.90 L1832.12 1139.90 L1832.12 1133.09 L1832.12 1133.09 L1832.12 1133.21 L1832.12 1126.28 L1832.12 1133.34 L1832.12 1140.39 L1868.50 1133.59 L1868.50 1133.59 L1868.50 1133.71 L1868.50 1133.83 L1868.50 1136.68 L1904.88 1132.47 L1904.88 1135.32 L1904.88 1131.23 L1904.88 1127.03 L1904.88 1122.70 L1904.88 1125.67 L1904.88 1121.33 L1904.88 1124.18 L1941.27 1127.15 L1941.27 1130.12 L1941.27 1133.09 L1941.27 1128.76 L1941.27 1131.73 L1977.53 1134.70 L1977.53 1137.67 L1977.53 1133.34 L1977.53 1136.43 L2013.91 1131.98 L2013.91 1135.07 L2013.91 1138.04 L2013.91 1141.13 L2013.91 1144.35 L2013.91 1147.45 L2050.29 1150.66 L2050.29 1146.08 L2050.29 1149.30 L2050.29 1144.85 L2050.29 1148.06 L2050.29 1151.28 L2050.29 1154.50 L2050.29 1157.84 L2050.29 1153.26 L2050.29 1156.48 L2050.29 1159.82 L2050.29 1155.24 L2050.29 1158.58 L2086.67 1161.93 L2086.67 1165.39 L2086.67 1160.69 L2086.67 1155.98 L2086.67 1159.33 L2086.67 1162.79 L2086.67 1166.26 L2086.67 1169.85 L2123.05 1165.02 L2123.05 1168.61 L2123.05 1163.78 L2159.44 1167.25 L2159.44 1162.42 L2159.44 1157.47 L2159.44 1161.06 L2159.44 1164.65 L2159.44 1168.36 L2159.44 1171.95 L2195.70 1175.66 L2195.70 1170.71 L2195.70 1174.42 L2195.70 1178.14 L2195.70 1181.97 L2195.70 1185.81 L2195.70 1189.65 L2232.08 1193.48 L2232.08 1197.44 L2268.46 1201.40 L2268.46 1205.36 L2268.46 1209.45 L2268.46 1204.37 L2304.84 1199.17 L2304.84 1203.26 L2304.84 1198.06 L2304.84 1202.15 L2304.84 1206.35 L2304.84 1210.44 L2304.84 1214.64 L2341.23 1218.85 L2341.23 1223.18 L2341.23 1217.99 L2341.23 1222.19 L2341.23 1226.65 L2341.23 1221.33 L2377.61 1225.66 L2377.61 1220.34 L2377.61 1224.79 L2413.87 1219.35 L2450.25 1223.80 L2450.25 1218.36 L2486.63 1222.81 L2486.63 1217.24 L2486.63 1211.67 L2595.78 1206.11 L2595.78 1200.29 L2595.78 1204.87 L2595.78 1209.45 L2595.78 1214.03 L2595.78 1208.33 L2595.78 1212.91 L2595.78 1217.61 L2632.04 1211.80 L2632.04 1205.86 L2632.04 1210.56 L2668.42 1204.62 L2668.42 1198.56 L2704.80 1203.38 L2741.19 1208.21 L2777.57 1202.02 L2777.57 1195.83 L2813.95 1200.66 L2813.95 1194.47 L2850.21 1199.30 L2850.21 1204.37 L2850.21 1209.32 L2886.59 1214.40 L2886.59 1219.59 L2922.97 1224.79 L2922.97 1230.11 L2959.36 1223.68 L2959.36 1229.00 L2959.36 1222.44 L2959.36 1215.88 L3068.38 1209.32 L3068.38 1214.64 L3068.38 1207.96 L3104.76 1201.16 L3104.76 1206.48 L3104.76 1212.05 L3177.53 1205.12 L3177.53 1210.56 L3213.91 1216.25 L3213.91 1221.95 L3213.91 1214.89 L3250.29 1207.71 L3322.93 1200.54 L3395.70 1206.23 L3395.70 1198.93 L3395.70 1191.50 L3468.47 1197.32 L3504.72 1203.14 L3650.25 1195.59 L3686.64 1188.04 L3722.89 1193.85 L3722.89 1186.18 L3722.89 1178.26 L3795.66 1184.20" stroke-linejoin="round" style="fill:none;stroke:#000000;stroke-width:8.64"/>
	<line x1="350.71" y1="2414.69" x2="350.71" y2="235.38" style="stroke:#000000;stroke-width:5.76"/>
	<line x1="350.71" y1="2279.42" x2="310.74" y2="2279.42" style="stroke:#000000;stroke-width:5.76"/>
	<text x="266.64" y="2279.42" style="font-family:'Helvetica';font-size:79.94px;fill:#000000" transform="rotate(-90 266.64,2279.42)" text-anchor="middle">-2</text>
	<line x1="350.71" y1="1798.39" x2="310.74" y2="1798.39" style="stroke:#000000;stroke-width:5.76"/>
	<text x="266.64" y="1798.39" style="font-family:'Helvetica';font-size:79.94px;fill:#000000" transform="rotate(-90 266.64,1798.39)" text-anchor="middle">-1</text>
	<line x1="350.71" y1="1317.48" x2="310.74" y2="1317.48" style="stroke:#000000;stroke-width:5.76"/>
	<text x="266.64" y="1317.48" style="font-family:'Helvetica';font-size:79.94px;fill:#000000" transform="rotate(-90 266.64,1317.48)" text-anchor="middle">0</text>
	<line x1="350.71" y1="836.58" x2="310.74" y2="836.58" style="stroke:#000000;stroke-width:5.76"/>
	<text x="266.64" y="836.58" style="font-family:'Helvetica';font-size:79.94px;fill:#000000" transform="rotate(-90 266.64,836.58)" text-anchor="middle">1</text>
	<line x1="350.71" y1="355.54" x2="310.74" y2="355.54" style="stroke:#000000;stroke-width:5.76"/>
	<text x="266.64" y="355.54" style="font-family:'Helvetica';font-size:79.94px;fill:#000000" transform="rotate(-90 266.64,355.54)" text-anchor="middle">2</text>
	<text x="176.68" y="1325.03" style="font-family:'Helvetica';font-size:79.94px;fill:#000000" transform="rotate(-90 176.68,1325.03)" text-anchor="middle">Scaled Schoenfeld Residuals</text>
	<line x1="350.71" y1="2414.69" x2="3859.02" y2="2414.69" style="stroke:#000000;stroke-width:5.76"/>
	<line x1="705.00" y1="2414.69" x2="705.00" y2="2454.66" style="stroke:#000000;stroke-width:5.76"/>
	<text x="705.00" y="2530.61" style="font-family:'Helvetica';font-size:79.94px;fill:#000000" text-anchor="middle">20</text>
	<line x1="1432.16" y1="2414.69" x2="1432.16" y2="2454.66" style="stroke:#000000;stroke-width:5.76"/>
	<text x="1432.16" y="2530.61" style="font-family:'Helvetica';font-size:79.94px;fill:#000000" text-anchor="middle">40</text>
	<line x1="2159.44" y1="2414.69" x2="2159.44" y2="2454.66" style="stroke:#000000;stroke-width:5.76"/>
	<text x="2159.44" y="2530.61" style="font-family:'Helvetica';font-size:79.94px;fill:#000000" text-anchor="middle">60</text>
	<line x1="2886.72" y1="2414.69" x2="2886.72" y2="2454.66" style="stroke:#000000;stroke-width:5.76"/>
	<text x="2886.72" y="2530.61" style="font-family:'Helvetica';font-size:79.94px;fill:#000000" text-anchor="middle">80</text>
	<line x1="3613.87" y1="2414.69" x2="3613.87" y2="2454.66" style="stroke:#000000;stroke-width:5.76"/>
	<text x="3613.87" y="2530.61" style="font-family:'Helvetica';font-size:79.94px;fill:#000000" text-anchor="middle">100</text>
	<text x="2104.86" y="2620.57" style="font-family:'Helvetica';font-size:79.94px;fill:#000000" text-anchor="middle">Time</text>
	<text x="368.03" y="2737.89" style="font-family:'Helvetica';font-size:79.94px;fill:#000000">bandwidth = .8</text>
	<text x="368.03" y="187.99" style="font-family:'Helvetica';font-size:99.99px;fill:#000000">Schoenfeld residuals against time, univariable</text>
</svg>
