<?xml version="1.0" encoding="UTF-8" standalone="no"?>
<!-- This is a Stata 16.1 generated SVG file (http://www.stata.com) -->

<svg version="1.1" width="5.50in" height="4.00in" viewBox="0 0 3960 2880" xmlns="http://www.w3.org/2000/svg" xmlns:xlink="http://www.w3.org/1999/xlink">
	<desc>Stata Graph - Graph</desc>
	<rect x="0" y="0" width="3960" height="2880" style="fill:#FFFFFF;stroke:none"/>
	<rect x="0.00" y="0.00" width="3959.88" height="2880.00" style="fill:#FFFFFF"/>
	<rect x="2.88" y="2.88" width="3954.12" height="2874.24" style="fill:none;stroke:#FFFFFF;stroke-width:5.76"/>
	<rect x="353.59" y="238.26" width="3502.55" height="2173.55" style="fill:none;stroke:#000000;stroke-width:5.76"/>
	<circle cx="414.07" cy="1107.97" r="14.97" style="fill:none;stroke:#606060;stroke-width:8.64"/>
	<circle cx="559.47" cy="2200.84" r="14.97" style="fill:none;stroke:#606060;stroke-width:8.64"/>
	<circle cx="559.47" cy="1446.93" r="14.97" style="fill:none;stroke:#606060;stroke-width:8.64"/>
	<circle cx="741.26" cy="592.53" r="14.97" style="fill:none;stroke:#606060;stroke-width:8.64"/>
	<circle cx="777.64" cy="1681.94" r="14.97" style="fill:none;stroke:#606060;stroke-width:8.64"/>
	<circle cx="777.64" cy="583.50" r="14.97" style="fill:none;stroke:#606060;stroke-width:8.64"/>
	<circle cx="814.03" cy="1112.30" r="14.97" style="fill:none;stroke:#606060;stroke-width:8.64"/>
	<circle cx="814.03" cy="1021.46" r="14.97" style="fill:none;stroke:#606060;stroke-width:8.64"/>
	<circle cx="850.41" cy="437.59" r="14.97" style="fill:none;stroke:#606060;stroke-width:8.64"/>
	<circle cx="850.41" cy="1660.41" r="14.97" style="fill:none;stroke:#606060;stroke-width:8.64"/>
	<circle cx="850.41" cy="2321.62" r="14.97" style="fill:none;stroke:#606060;stroke-width:8.64"/>
	<circle cx="850.41" cy="2099.86" r="14.97" style="fill:none;stroke:#606060;stroke-width:8.64"/>
	<circle cx="886.79" cy="1096.71" r="14.97" style="fill:none;stroke:#606060;stroke-width:8.64"/>
	<circle cx="886.79" cy="1486.41" r="14.97" style="fill:none;stroke:#606060;stroke-width:8.64"/>
	<circle cx="923.05" cy="1001.79" r="14.97" style="fill:none;stroke:#606060;stroke-width:8.64"/>
	<circle cx="923.05" cy="2074.86" r="14.97" style="fill:none;stroke:#606060;stroke-width:8.64"/>
	<circle cx="923.05" cy="917.63" r="14.97" style="fill:none;stroke:#606060;stroke-width:8.64"/>
	<circle cx="923.05" cy="1587.89" r="14.97" style="fill:none;stroke:#606060;stroke-width:8.64"/>
	<circle cx="923.05" cy="1063.29" r="14.97" style="fill:none;stroke:#606060;stroke-width:8.64"/>
	<circle cx="959.43" cy="1589.99" r="14.97" style="fill:none;stroke:#606060;stroke-width:8.64"/>
	<circle cx="995.82" cy="1594.69" r="14.97" style="fill:none;stroke:#606060;stroke-width:8.64"/>
	<circle cx="995.82" cy="942.01" r="14.97" style="fill:none;stroke:#606060;stroke-width:8.64"/>
	<circle cx="995.82" cy="1663.75" r="14.97" style="fill:none;stroke:#606060;stroke-width:8.64"/>
	<circle cx="995.82" cy="1080.62" r="14.97" style="fill:none;stroke:#606060;stroke-width:8.64"/>
	<circle cx="995.82" cy="1653.48" r="14.97" style="fill:none;stroke:#606060;stroke-width:8.64"/>
	<circle cx="1032.20" cy="1074.18" r="14.97" style="fill:none;stroke:#606060;stroke-width:8.64"/>
	<circle cx="1032.20" cy="1057.85" r="14.97" style="fill:none;stroke:#606060;stroke-width:8.64"/>
	<circle cx="1032.20" cy="2152.20" r="14.97" style="fill:none;stroke:#606060;stroke-width:8.64"/>
	<circle cx="1032.20" cy="973.94" r="14.97" style="fill:none;stroke:#606060;stroke-width:8.64"/>
	<circle cx="1032.20" cy="1002.90" r="14.97" style="fill:none;stroke:#606060;stroke-width:8.64"/>
	<circle cx="1032.20" cy="966.77" r="14.97" style="fill:none;stroke:#606060;stroke-width:8.64"/>
	<circle cx="1032.20" cy="1061.19" r="14.97" style="fill:none;stroke:#606060;stroke-width:8.64"/>
	<circle cx="1068.58" cy="1088.66" r="14.97" style="fill:none;stroke:#606060;stroke-width:8.64"/>
	<circle cx="1068.58" cy="1099.92" r="14.97" style="fill:none;stroke:#606060;stroke-width:8.64"/>
	<circle cx="1068.58" cy="1063.05" r="14.97" style="fill:none;stroke:#606060;stroke-width:8.64"/>
	<circle cx="1104.96" cy="798.83" r="14.97" style="fill:none;stroke:#606060;stroke-width:8.64"/>
	<circle cx="1104.96" cy="1063.17" r="14.97" style="fill:none;stroke:#606060;stroke-width:8.64"/>
	<circle cx="1104.96" cy="1074.93" r="14.97" style="fill:none;stroke:#606060;stroke-width:8.64"/>
	<circle cx="1104.96" cy="976.42" r="14.97" style="fill:none;stroke:#606060;stroke-width:8.64"/>
	<circle cx="1104.96" cy="1062.67" r="14.97" style="fill:none;stroke:#606060;stroke-width:8.64"/>
	<circle cx="1104.96" cy="1049.19" r="14.97" style="fill:none;stroke:#606060;stroke-width:8.64"/>
	<circle cx="1104.96" cy="1522.30" r="14.97" style="fill:none;stroke:#606060;stroke-width:8.64"/>
	<circle cx="1104.96" cy="1587.14" r="14.97" style="fill:none;stroke:#606060;stroke-width:8.64"/>
	<circle cx="1104.96" cy="1006.12" r="14.97" style="fill:none;stroke:#606060;stroke-width:8.64"/>
	<circle cx="1104.96" cy="1083.96" r="14.97" style="fill:none;stroke:#606060;stroke-width:8.64"/>
	<circle cx="1141.22" cy="1636.77" r="14.97" style="fill:none;stroke:#606060;stroke-width:8.64"/>
	<circle cx="1141.22" cy="2064.21" r="14.97" style="fill:none;stroke:#606060;stroke-width:8.64"/>
	<circle cx="1141.22" cy="406.78" r="14.97" style="fill:none;stroke:#606060;stroke-width:8.64"/>
	<circle cx="1141.22" cy="1082.23" r="14.97" style="fill:none;stroke:#606060;stroke-width:8.64"/>
	<circle cx="1177.61" cy="1123.93" r="14.97" style="fill:none;stroke:#606060;stroke-width:8.64"/>
	<circle cx="1177.61" cy="1010.33" r="14.97" style="fill:none;stroke:#606060;stroke-width:8.64"/>
	<circle cx="1177.61" cy="1113.54" r="14.97" style="fill:none;stroke:#606060;stroke-width:8.64"/>
	<circle cx="1177.61" cy="1661.77" r="14.97" style="fill:none;stroke:#606060;stroke-width:8.64"/>
	<circle cx="1177.61" cy="1041.27" r="14.97" style="fill:none;stroke:#606060;stroke-width:8.64"/>
	<circle cx="1177.61" cy="506.28" r="14.97" style="fill:none;stroke:#606060;stroke-width:8.64"/>
	<circle cx="1177.61" cy="1027.53" r="14.97" style="fill:none;stroke:#606060;stroke-width:8.64"/>
	<circle cx="1177.61" cy="1037.06" r="14.97" style="fill:none;stroke:#606060;stroke-width:8.64"/>
	<circle cx="1213.99" cy="408.64" r="14.97" style="fill:none;stroke:#606060;stroke-width:8.64"/>
	<circle cx="1213.99" cy="509.87" r="14.97" style="fill:none;stroke:#606060;stroke-width:8.64"/>
	<circle cx="1213.99" cy="2211.48" r="14.97" style="fill:none;stroke:#606060;stroke-width:8.64"/>
	<circle cx="1213.99" cy="1037.68" r="14.97" style="fill:none;stroke:#606060;stroke-width:8.64"/>
	<circle cx="1213.99" cy="2212.35" r="14.97" style="fill:none;stroke:#606060;stroke-width:8.64"/>
	<circle cx="1213.99" cy="1530.71" r="14.97" style="fill:none;stroke:#606060;stroke-width:8.64"/>
	<circle cx="1250.37" cy="2126.22" r="14.97" style="fill:none;stroke:#606060;stroke-width:8.64"/>
	<circle cx="1250.37" cy="453.06" r="14.97" style="fill:none;stroke:#606060;stroke-width:8.64"/>
	<circle cx="1250.37" cy="1114.77" r="14.97" style="fill:none;stroke:#606060;stroke-width:8.64"/>
	<circle cx="1250.37" cy="2173.86" r="14.97" style="fill:none;stroke:#606060;stroke-width:8.64"/>
	<circle cx="1250.37" cy="461.97" r="14.97" style="fill:none;stroke:#606060;stroke-width:8.64"/>
	<circle cx="1250.37" cy="1061.19" r="14.97" style="fill:none;stroke:#606060;stroke-width:8.64"/>
	<circle cx="1250.37" cy="1661.77" r="14.97" style="fill:none;stroke:#606060;stroke-width:8.64"/>
	<circle cx="1250.37" cy="499.35" r="14.97" style="fill:none;stroke:#606060;stroke-width:8.64"/>
	<circle cx="1286.75" cy="1007.85" r="14.97" style="fill:none;stroke:#606060;stroke-width:8.64"/>
	<circle cx="1286.75" cy="444.65" r="14.97" style="fill:none;stroke:#606060;stroke-width:8.64"/>
	<circle cx="1286.75" cy="1050.18" r="14.97" style="fill:none;stroke:#606060;stroke-width:8.64"/>
	<circle cx="1323.13" cy="1503.98" r="14.97" style="fill:none;stroke:#606060;stroke-width:8.64"/>
	<circle cx="1323.13" cy="996.59" r="14.97" style="fill:none;stroke:#606060;stroke-width:8.64"/>
	<circle cx="1323.13" cy="2100.72" r="14.97" style="fill:none;stroke:#606060;stroke-width:8.64"/>
	<circle cx="1323.13" cy="1567.47" r="14.97" style="fill:none;stroke:#606060;stroke-width:8.64"/>
	<circle cx="1323.13" cy="2229.43" r="14.97" style="fill:none;stroke:#606060;stroke-width:8.64"/>
	<circle cx="1323.13" cy="1090.52" r="14.97" style="fill:none;stroke:#606060;stroke-width:8.64"/>
	<circle cx="1323.13" cy="2351.45" r="14.97" style="fill:none;stroke:#606060;stroke-width:8.64"/>
	<circle cx="1323.13" cy="664.93" r="14.97" style="fill:none;stroke:#606060;stroke-width:8.64"/>
	<circle cx="1323.13" cy="1038.91" r="14.97" style="fill:none;stroke:#606060;stroke-width:8.64"/>
	<circle cx="1323.13" cy="964.41" r="14.97" style="fill:none;stroke:#606060;stroke-width:8.64"/>
	<circle cx="1323.13" cy="1052.90" r="14.97" style="fill:none;stroke:#606060;stroke-width:8.64"/>
	<circle cx="1323.13" cy="1659.91" r="14.97" style="fill:none;stroke:#606060;stroke-width:8.64"/>
	<circle cx="1359.39" cy="518.16" r="14.97" style="fill:none;stroke:#606060;stroke-width:8.64"/>
	<circle cx="1359.39" cy="1137.55" r="14.97" style="fill:none;stroke:#606060;stroke-width:8.64"/>
	<circle cx="1359.39" cy="462.84" r="14.97" style="fill:none;stroke:#606060;stroke-width:8.64"/>
	<circle cx="1359.39" cy="2134.14" r="14.97" style="fill:none;stroke:#606060;stroke-width:8.64"/>
	<circle cx="1359.39" cy="1183.83" r="14.97" style="fill:none;stroke:#606060;stroke-width:8.64"/>
	<circle cx="1359.39" cy="1659.79" r="14.97" style="fill:none;stroke:#606060;stroke-width:8.64"/>
	<circle cx="1359.39" cy="1079.75" r="14.97" style="fill:none;stroke:#606060;stroke-width:8.64"/>
	<circle cx="1359.39" cy="1085.45" r="14.97" style="fill:none;stroke:#606060;stroke-width:8.64"/>
	<circle cx="1359.39" cy="551.32" r="14.97" style="fill:none;stroke:#606060;stroke-width:8.64"/>
	<circle cx="1359.39" cy="997.21" r="14.97" style="fill:none;stroke:#606060;stroke-width:8.64"/>
	<circle cx="1395.78" cy="1055.37" r="14.97" style="fill:none;stroke:#606060;stroke-width:8.64"/>
	<circle cx="1395.78" cy="1006.37" r="14.97" style="fill:none;stroke:#606060;stroke-width:8.64"/>
	<circle cx="1395.78" cy="2066.19" r="14.97" style="fill:none;stroke:#606060;stroke-width:8.64"/>
	<circle cx="1395.78" cy="1068.24" r="14.97" style="fill:none;stroke:#606060;stroke-width:8.64"/>
	<circle cx="1395.78" cy="2205.29" r="14.97" style="fill:none;stroke:#606060;stroke-width:8.64"/>
	<circle cx="1395.78" cy="1001.05" r="14.97" style="fill:none;stroke:#606060;stroke-width:8.64"/>
	<circle cx="1395.78" cy="1036.31" r="14.97" style="fill:none;stroke:#606060;stroke-width:8.64"/>
	<circle cx="1395.78" cy="1147.32" r="14.97" style="fill:none;stroke:#606060;stroke-width:8.64"/>
	<circle cx="1395.78" cy="1093.24" r="14.97" style="fill:none;stroke:#606060;stroke-width:8.64"/>
	<circle cx="1395.78" cy="1637.14" r="14.97" style="fill:none;stroke:#606060;stroke-width:8.64"/>
	<circle cx="1395.78" cy="1105.25" r="14.97" style="fill:none;stroke:#606060;stroke-width:8.64"/>
	<circle cx="1395.78" cy="1087.18" r="14.97" style="fill:none;stroke:#606060;stroke-width:8.64"/>
	<circle cx="1395.78" cy="1683.30" r="14.97" style="fill:none;stroke:#606060;stroke-width:8.64"/>
	<circle cx="1395.78" cy="1101.04" r="14.97" style="fill:none;stroke:#606060;stroke-width:8.64"/>
	<circle cx="1395.78" cy="1112.92" r="14.97" style="fill:none;stroke:#606060;stroke-width:8.64"/>
	<circle cx="1432.16" cy="1047.95" r="14.97" style="fill:none;stroke:#606060;stroke-width:8.64"/>
	<circle cx="1432.16" cy="1556.82" r="14.97" style="fill:none;stroke:#606060;stroke-width:8.64"/>
	<circle cx="1432.16" cy="1630.46" r="14.97" style="fill:none;stroke:#606060;stroke-width:8.64"/>
	<circle cx="1432.16" cy="1106.73" r="14.97" style="fill:none;stroke:#606060;stroke-width:8.64"/>
	<circle cx="1432.16" cy="1110.94" r="14.97" style="fill:none;stroke:#606060;stroke-width:8.64"/>
	<circle cx="1432.16" cy="988.30" r="14.97" style="fill:none;stroke:#606060;stroke-width:8.64"/>
	<circle cx="1432.16" cy="989.91" r="14.97" style="fill:none;stroke:#606060;stroke-width:8.64"/>
	<circle cx="1432.16" cy="1619.81" r="14.97" style="fill:none;stroke:#606060;stroke-width:8.64"/>
	<circle cx="1432.16" cy="1085.32" r="14.97" style="fill:none;stroke:#606060;stroke-width:8.64"/>
	<circle cx="1432.16" cy="2089.09" r="14.97" style="fill:none;stroke:#606060;stroke-width:8.64"/>
	<circle cx="1432.16" cy="537.46" r="14.97" style="fill:none;stroke:#606060;stroke-width:8.64"/>
	<circle cx="1468.54" cy="2160.12" r="14.97" style="fill:none;stroke:#606060;stroke-width:8.64"/>
	<circle cx="1468.54" cy="1520.44" r="14.97" style="fill:none;stroke:#606060;stroke-width:8.64"/>
	<circle cx="1468.54" cy="1036.44" r="14.97" style="fill:none;stroke:#606060;stroke-width:8.64"/>
	<circle cx="1468.54" cy="946.22" r="14.97" style="fill:none;stroke:#606060;stroke-width:8.64"/>
	<circle cx="1468.54" cy="493.53" r="14.97" style="fill:none;stroke:#606060;stroke-width:8.64"/>
	<circle cx="1468.54" cy="390.07" r="14.97" style="fill:none;stroke:#606060;stroke-width:8.64"/>
	<circle cx="1468.54" cy="1027.28" r="14.97" style="fill:none;stroke:#606060;stroke-width:8.64"/>
	<circle cx="1468.54" cy="1528.86" r="14.97" style="fill:none;stroke:#606060;stroke-width:8.64"/>
	<circle cx="1468.54" cy="1036.93" r="14.97" style="fill:none;stroke:#606060;stroke-width:8.64"/>
	<circle cx="1504.92" cy="905.75" r="14.97" style="fill:none;stroke:#606060;stroke-width:8.64"/>
	<circle cx="1504.92" cy="460.61" r="14.97" style="fill:none;stroke:#606060;stroke-width:8.64"/>
	<circle cx="1504.92" cy="1138.66" r="14.97" style="fill:none;stroke:#606060;stroke-width:8.64"/>
	<circle cx="1504.92" cy="977.28" r="14.97" style="fill:none;stroke:#606060;stroke-width:8.64"/>
	<circle cx="1504.92" cy="472.24" r="14.97" style="fill:none;stroke:#606060;stroke-width:8.64"/>
	<circle cx="1504.92" cy="1114.77" r="14.97" style="fill:none;stroke:#606060;stroke-width:8.64"/>
	<circle cx="1504.92" cy="1081.24" r="14.97" style="fill:none;stroke:#606060;stroke-width:8.64"/>
	<circle cx="1541.18" cy="558.13" r="14.97" style="fill:none;stroke:#606060;stroke-width:8.64"/>
	<circle cx="1541.18" cy="1082.10" r="14.97" style="fill:none;stroke:#606060;stroke-width:8.64"/>
	<circle cx="1541.18" cy="1663.75" r="14.97" style="fill:none;stroke:#606060;stroke-width:8.64"/>
	<circle cx="1541.18" cy="1504.72" r="14.97" style="fill:none;stroke:#606060;stroke-width:8.64"/>
	<circle cx="1541.18" cy="1068.12" r="14.97" style="fill:none;stroke:#606060;stroke-width:8.64"/>
	<circle cx="1541.18" cy="1595.56" r="14.97" style="fill:none;stroke:#606060;stroke-width:8.64"/>
	<circle cx="1541.18" cy="538.82" r="14.97" style="fill:none;stroke:#606060;stroke-width:8.64"/>
	<circle cx="1541.18" cy="501.95" r="14.97" style="fill:none;stroke:#606060;stroke-width:8.64"/>
	<circle cx="1541.18" cy="547.86" r="14.97" style="fill:none;stroke:#606060;stroke-width:8.64"/>
	<circle cx="1541.18" cy="573.35" r="14.97" style="fill:none;stroke:#606060;stroke-width:8.64"/>
	<circle cx="1577.57" cy="1030.62" r="14.97" style="fill:none;stroke:#606060;stroke-width:8.64"/>
	<circle cx="1577.57" cy="1073.07" r="14.97" style="fill:none;stroke:#606060;stroke-width:8.64"/>
	<circle cx="1577.57" cy="2140.94" r="14.97" style="fill:none;stroke:#606060;stroke-width:8.64"/>
	<circle cx="1577.57" cy="967.26" r="14.97" style="fill:none;stroke:#606060;stroke-width:8.64"/>
	<circle cx="1577.57" cy="1078.89" r="14.97" style="fill:none;stroke:#606060;stroke-width:8.64"/>
	<circle cx="1577.57" cy="2189.70" r="14.97" style="fill:none;stroke:#606060;stroke-width:8.64"/>
	<circle cx="1577.57" cy="1004.14" r="14.97" style="fill:none;stroke:#606060;stroke-width:8.64"/>
	<circle cx="1613.95" cy="1637.02" r="14.97" style="fill:none;stroke:#606060;stroke-width:8.64"/>
	<circle cx="1613.95" cy="960.45" r="14.97" style="fill:none;stroke:#606060;stroke-width:8.64"/>
	<circle cx="1613.95" cy="1649.64" r="14.97" style="fill:none;stroke:#606060;stroke-width:8.64"/>
	<circle cx="1613.95" cy="1050.05" r="14.97" style="fill:none;stroke:#606060;stroke-width:8.64"/>
	<circle cx="1613.95" cy="1607.19" r="14.97" style="fill:none;stroke:#606060;stroke-width:8.64"/>
	<circle cx="1613.95" cy="995.23" r="14.97" style="fill:none;stroke:#606060;stroke-width:8.64"/>
	<circle cx="1650.33" cy="1546.68" r="14.97" style="fill:none;stroke:#606060;stroke-width:8.64"/>
	<circle cx="1650.33" cy="1548.41" r="14.97" style="fill:none;stroke:#606060;stroke-width:8.64"/>
	<circle cx="1650.33" cy="1651.62" r="14.97" style="fill:none;stroke:#606060;stroke-width:8.64"/>
	<circle cx="1650.33" cy="2035.50" r="14.97" style="fill:none;stroke:#606060;stroke-width:8.64"/>
	<circle cx="1650.33" cy="971.59" r="14.97" style="fill:none;stroke:#606060;stroke-width:8.64"/>
	<circle cx="1650.33" cy="978.03" r="14.97" style="fill:none;stroke:#606060;stroke-width:8.64"/>
	<circle cx="1650.33" cy="1092.25" r="14.97" style="fill:none;stroke:#606060;stroke-width:8.64"/>
	<circle cx="1650.33" cy="1417.11" r="14.97" style="fill:none;stroke:#606060;stroke-width:8.64"/>
	<circle cx="1650.33" cy="515.56" r="14.97" style="fill:none;stroke:#606060;stroke-width:8.64"/>
	<circle cx="1650.33" cy="1090.52" r="14.97" style="fill:none;stroke:#606060;stroke-width:8.64"/>
	<circle cx="1686.71" cy="2157.03" r="14.97" style="fill:none;stroke:#606060;stroke-width:8.64"/>
	<circle cx="1686.71" cy="1638.38" r="14.97" style="fill:none;stroke:#606060;stroke-width:8.64"/>
	<circle cx="1686.71" cy="533.38" r="14.97" style="fill:none;stroke:#606060;stroke-width:8.64"/>
	<circle cx="1686.71" cy="2157.77" r="14.97" style="fill:none;stroke:#606060;stroke-width:8.64"/>
	<circle cx="1686.71" cy="1605.34" r="14.97" style="fill:none;stroke:#606060;stroke-width:8.64"/>
	<circle cx="1686.71" cy="1034.95" r="14.97" style="fill:none;stroke:#606060;stroke-width:8.64"/>
	<circle cx="1686.71" cy="1089.03" r="14.97" style="fill:none;stroke:#606060;stroke-width:8.64"/>
	<circle cx="1686.71" cy="2092.93" r="14.97" style="fill:none;stroke:#606060;stroke-width:8.64"/>
	<circle cx="1723.10" cy="1375.65" r="14.97" style="fill:none;stroke:#606060;stroke-width:8.64"/>
	<circle cx="1723.10" cy="1020.60" r="14.97" style="fill:none;stroke:#606060;stroke-width:8.64"/>
	<circle cx="1723.10" cy="1607.32" r="14.97" style="fill:none;stroke:#606060;stroke-width:8.64"/>
	<circle cx="1723.10" cy="655.40" r="14.97" style="fill:none;stroke:#606060;stroke-width:8.64"/>
	<circle cx="1723.10" cy="1004.26" r="14.97" style="fill:none;stroke:#606060;stroke-width:8.64"/>
	<circle cx="1723.10" cy="1019.11" r="14.97" style="fill:none;stroke:#606060;stroke-width:8.64"/>
	<circle cx="1723.10" cy="1090.40" r="14.97" style="fill:none;stroke:#606060;stroke-width:8.64"/>
	<circle cx="1759.35" cy="1049.19" r="14.97" style="fill:none;stroke:#606060;stroke-width:8.64"/>
	<circle cx="1759.35" cy="960.45" r="14.97" style="fill:none;stroke:#606060;stroke-width:8.64"/>
	<circle cx="1759.35" cy="1033.72" r="14.97" style="fill:none;stroke:#606060;stroke-width:8.64"/>
	<circle cx="1759.35" cy="2170.02" r="14.97" style="fill:none;stroke:#606060;stroke-width:8.64"/>
	<circle cx="1759.35" cy="1018.49" r="14.97" style="fill:none;stroke:#606060;stroke-width:8.64"/>
	<circle cx="1759.35" cy="1735.03" r="14.97" style="fill:none;stroke:#606060;stroke-width:8.64"/>
	<circle cx="1759.35" cy="2144.53" r="14.97" style="fill:none;stroke:#606060;stroke-width:8.64"/>
	<circle cx="1759.35" cy="2148.86" r="14.97" style="fill:none;stroke:#606060;stroke-width:8.64"/>
	<circle cx="1795.74" cy="1157.10" r="14.97" style="fill:none;stroke:#606060;stroke-width:8.64"/>
	<circle cx="1795.74" cy="1608.68" r="14.97" style="fill:none;stroke:#606060;stroke-width:8.64"/>
	<circle cx="1795.74" cy="1666.22" r="14.97" style="fill:none;stroke:#606060;stroke-width:8.64"/>
	<circle cx="1795.74" cy="1141.13" r="14.97" style="fill:none;stroke:#606060;stroke-width:8.64"/>
	<circle cx="1795.74" cy="967.88" r="14.97" style="fill:none;stroke:#606060;stroke-width:8.64"/>
	<circle cx="1795.74" cy="2094.66" r="14.97" style="fill:none;stroke:#606060;stroke-width:8.64"/>
	<circle cx="1795.74" cy="1036.56" r="14.97" style="fill:none;stroke:#606060;stroke-width:8.64"/>
	<circle cx="1795.74" cy="972.83" r="14.97" style="fill:none;stroke:#606060;stroke-width:8.64"/>
	<circle cx="1832.12" cy="1101.66" r="14.97" style="fill:none;stroke:#606060;stroke-width:8.64"/>
	<circle cx="1832.12" cy="2156.41" r="14.97" style="fill:none;stroke:#606060;stroke-width:8.64"/>
	<circle cx="1832.12" cy="1676.12" r="14.97" style="fill:none;stroke:#606060;stroke-width:8.64"/>
	<circle cx="1832.12" cy="2175.47" r="14.97" style="fill:none;stroke:#606060;stroke-width:8.64"/>
	<circle cx="1832.12" cy="1044.73" r="14.97" style="fill:none;stroke:#606060;stroke-width:8.64"/>
	<circle cx="1832.12" cy="2168.54" r="14.97" style="fill:none;stroke:#606060;stroke-width:8.64"/>
	<circle cx="1832.12" cy="2183.39" r="14.97" style="fill:none;stroke:#606060;stroke-width:8.64"/>
	<circle cx="1832.12" cy="525.83" r="14.97" style="fill:none;stroke:#606060;stroke-width:8.64"/>
	<circle cx="1832.12" cy="977.53" r="14.97" style="fill:none;stroke:#606060;stroke-width:8.64"/>
	<circle cx="1832.12" cy="2141.44" r="14.97" style="fill:none;stroke:#606060;stroke-width:8.64"/>
	<circle cx="1832.12" cy="2042.06" r="14.97" style="fill:none;stroke:#606060;stroke-width:8.64"/>
	<circle cx="1832.12" cy="614.19" r="14.97" style="fill:none;stroke:#606060;stroke-width:8.64"/>
	<circle cx="1868.50" cy="1596.55" r="14.97" style="fill:none;stroke:#606060;stroke-width:8.64"/>
	<circle cx="1868.50" cy="1546.92" r="14.97" style="fill:none;stroke:#606060;stroke-width:8.64"/>
	<circle cx="1868.50" cy="479.42" r="14.97" style="fill:none;stroke:#606060;stroke-width:8.64"/>
	<circle cx="1868.50" cy="1638.38" r="14.97" style="fill:none;stroke:#606060;stroke-width:8.64"/>
	<circle cx="1868.50" cy="1034.95" r="14.97" style="fill:none;stroke:#606060;stroke-width:8.64"/>
	<circle cx="1904.88" cy="1074.18" r="14.97" style="fill:none;stroke:#606060;stroke-width:8.64"/>
	<circle cx="1904.88" cy="1590.73" r="14.97" style="fill:none;stroke:#606060;stroke-width:8.64"/>
	<circle cx="1904.88" cy="1050.92" r="14.97" style="fill:none;stroke:#606060;stroke-width:8.64"/>
	<circle cx="1904.88" cy="1079.63" r="14.97" style="fill:none;stroke:#606060;stroke-width:8.64"/>
	<circle cx="1904.88" cy="2030.06" r="14.97" style="fill:none;stroke:#606060;stroke-width:8.64"/>
	<circle cx="1904.88" cy="1131.48" r="14.97" style="fill:none;stroke:#606060;stroke-width:8.64"/>
	<circle cx="1904.88" cy="1040.40" r="14.97" style="fill:none;stroke:#606060;stroke-width:8.64"/>
	<circle cx="1904.88" cy="1757.80" r="14.97" style="fill:none;stroke:#606060;stroke-width:8.64"/>
	<circle cx="1941.27" cy="1641.35" r="14.97" style="fill:none;stroke:#606060;stroke-width:8.64"/>
	<circle cx="1941.27" cy="986.32" r="14.97" style="fill:none;stroke:#606060;stroke-width:8.64"/>
	<circle cx="1941.27" cy="1077.03" r="14.97" style="fill:none;stroke:#606060;stroke-width:8.64"/>
	<circle cx="1941.27" cy="475.21" r="14.97" style="fill:none;stroke:#606060;stroke-width:8.64"/>
	<circle cx="1941.27" cy="1082.72" r="14.97" style="fill:none;stroke:#606060;stroke-width:8.64"/>
	<circle cx="1977.53" cy="397.00" r="14.97" style="fill:none;stroke:#606060;stroke-width:8.64"/>
	<circle cx="1977.53" cy="1080.99" r="14.97" style="fill:none;stroke:#606060;stroke-width:8.64"/>
	<circle cx="1977.53" cy="1555.21" r="14.97" style="fill:none;stroke:#606060;stroke-width:8.64"/>
	<circle cx="1977.53" cy="1107.60" r="14.97" style="fill:none;stroke:#606060;stroke-width:8.64"/>
	<circle cx="2013.91" cy="1102.52" r="14.97" style="fill:none;stroke:#606060;stroke-width:8.64"/>
	<circle cx="2013.91" cy="1138.41" r="14.97" style="fill:none;stroke:#606060;stroke-width:8.64"/>
	<circle cx="2013.91" cy="1650.26" r="14.97" style="fill:none;stroke:#606060;stroke-width:8.64"/>
	<circle cx="2013.91" cy="1700.50" r="14.97" style="fill:none;stroke:#606060;stroke-width:8.64"/>
	<circle cx="2013.91" cy="447.00" r="14.97" style="fill:none;stroke:#606060;stroke-width:8.64"/>
	<circle cx="2013.91" cy="2166.56" r="14.97" style="fill:none;stroke:#606060;stroke-width:8.64"/>
	<circle cx="2050.29" cy="1064.53" r="14.97" style="fill:none;stroke:#606060;stroke-width:8.64"/>
	<circle cx="2050.29" cy="1603.23" r="14.97" style="fill:none;stroke:#606060;stroke-width:8.64"/>
	<circle cx="2050.29" cy="509.25" r="14.97" style="fill:none;stroke:#606060;stroke-width:8.64"/>
	<circle cx="2050.29" cy="1621.67" r="14.97" style="fill:none;stroke:#606060;stroke-width:8.64"/>
	<circle cx="2050.29" cy="1144.23" r="14.97" style="fill:none;stroke:#606060;stroke-width:8.64"/>
	<circle cx="2050.29" cy="1084.08" r="14.97" style="fill:none;stroke:#606060;stroke-width:8.64"/>
	<circle cx="2050.29" cy="1033.22" r="14.97" style="fill:none;stroke:#606060;stroke-width:8.64"/>
	<circle cx="2050.29" cy="1047.45" r="14.97" style="fill:none;stroke:#606060;stroke-width:8.64"/>
	<circle cx="2050.29" cy="1665.97" r="14.97" style="fill:none;stroke:#606060;stroke-width:8.64"/>
	<circle cx="2050.29" cy="1674.51" r="14.97" style="fill:none;stroke:#606060;stroke-width:8.64"/>
	<circle cx="2050.29" cy="1056.24" r="14.97" style="fill:none;stroke:#606060;stroke-width:8.64"/>
	<circle cx="2050.29" cy="1045.97" r="14.97" style="fill:none;stroke:#606060;stroke-width:8.64"/>
	<circle cx="2050.29" cy="1022.58" r="14.97" style="fill:none;stroke:#606060;stroke-width:8.64"/>
	<circle cx="2086.67" cy="964.66" r="14.97" style="fill:none;stroke:#606060;stroke-width:8.64"/>
	<circle cx="2086.67" cy="1044.61" r="14.97" style="fill:none;stroke:#606060;stroke-width:8.64"/>
	<circle cx="2086.67" cy="951.05" r="14.97" style="fill:none;stroke:#606060;stroke-width:8.64"/>
	<circle cx="2086.67" cy="2102.08" r="14.97" style="fill:none;stroke:#606060;stroke-width:8.64"/>
	<circle cx="2086.67" cy="998.82" r="14.97" style="fill:none;stroke:#606060;stroke-width:8.64"/>
	<circle cx="2086.67" cy="1562.15" r="14.97" style="fill:none;stroke:#606060;stroke-width:8.64"/>
	<circle cx="2086.67" cy="978.89" r="14.97" style="fill:none;stroke:#606060;stroke-width:8.64"/>
	<circle cx="2086.67" cy="2180.54" r="14.97" style="fill:none;stroke:#606060;stroke-width:8.64"/>
	<circle cx="2123.05" cy="2143.79" r="14.97" style="fill:none;stroke:#606060;stroke-width:8.64"/>
	<circle cx="2123.05" cy="1145.96" r="14.97" style="fill:none;stroke:#606060;stroke-width:8.64"/>
	<circle cx="2123.05" cy="484.25" r="14.97" style="fill:none;stroke:#606060;stroke-width:8.64"/>
	<circle cx="2159.44" cy="1480.96" r="14.97" style="fill:none;stroke:#606060;stroke-width:8.64"/>
	<circle cx="2159.44" cy="2134.38" r="14.97" style="fill:none;stroke:#606060;stroke-width:8.64"/>
	<circle cx="2159.44" cy="1050.42" r="14.97" style="fill:none;stroke:#606060;stroke-width:8.64"/>
	<circle cx="2159.44" cy="2157.40" r="14.97" style="fill:none;stroke:#606060;stroke-width:8.64"/>
	<circle cx="2159.44" cy="1097.94" r="14.97" style="fill:none;stroke:#606060;stroke-width:8.64"/>
	<circle cx="2159.44" cy="528.06" r="14.97" style="fill:none;stroke:#606060;stroke-width:8.64"/>
	<circle cx="2159.44" cy="1628.35" r="14.97" style="fill:none;stroke:#606060;stroke-width:8.64"/>
	<circle cx="2195.70" cy="2061.00" r="14.97" style="fill:none;stroke:#606060;stroke-width:8.64"/>
	<circle cx="2195.70" cy="998.45" r="14.97" style="fill:none;stroke:#606060;stroke-width:8.64"/>
	<circle cx="2195.70" cy="1613.13" r="14.97" style="fill:none;stroke:#606060;stroke-width:8.64"/>
	<circle cx="2195.70" cy="1575.88" r="14.97" style="fill:none;stroke:#606060;stroke-width:8.64"/>
	<circle cx="2195.70" cy="1625.01" r="14.97" style="fill:none;stroke:#606060;stroke-width:8.64"/>
	<circle cx="2195.70" cy="1011.19" r="14.97" style="fill:none;stroke:#606060;stroke-width:8.64"/>
	<circle cx="2195.70" cy="1053.89" r="14.97" style="fill:none;stroke:#606060;stroke-width:8.64"/>
	<circle cx="2232.08" cy="1556.45" r="14.97" style="fill:none;stroke:#606060;stroke-width:8.64"/>
	<circle cx="2232.08" cy="1081.73" r="14.97" style="fill:none;stroke:#606060;stroke-width:8.64"/>
	<circle cx="2268.46" cy="1675.26" r="14.97" style="fill:none;stroke:#606060;stroke-width:8.64"/>
	<circle cx="2268.46" cy="2194.53" r="14.97" style="fill:none;stroke:#606060;stroke-width:8.64"/>
	<circle cx="2268.46" cy="1479.97" r="14.97" style="fill:none;stroke:#606060;stroke-width:8.64"/>
	<circle cx="2268.46" cy="1035.70" r="14.97" style="fill:none;stroke:#606060;stroke-width:8.64"/>
	<circle cx="2304.84" cy="978.52" r="14.97" style="fill:none;stroke:#606060;stroke-width:8.64"/>
	<circle cx="2304.84" cy="1779.33" r="14.97" style="fill:none;stroke:#606060;stroke-width:8.64"/>
	<circle cx="2304.84" cy="1506.95" r="14.97" style="fill:none;stroke:#606060;stroke-width:8.64"/>
	<circle cx="2304.84" cy="1563.88" r="14.97" style="fill:none;stroke:#606060;stroke-width:8.64"/>
	<circle cx="2304.84" cy="935.33" r="14.97" style="fill:none;stroke:#606060;stroke-width:8.64"/>
	<circle cx="2304.84" cy="1152.15" r="14.97" style="fill:none;stroke:#606060;stroke-width:8.64"/>
	<circle cx="2304.84" cy="1653.60" r="14.97" style="fill:none;stroke:#606060;stroke-width:8.64"/>
	<circle cx="2341.23" cy="978.77" r="14.97" style="fill:none;stroke:#606060;stroke-width:8.64"/>
	<circle cx="2341.23" cy="2167.80" r="14.97" style="fill:none;stroke:#606060;stroke-width:8.64"/>
	<circle cx="2341.23" cy="1017.88" r="14.97" style="fill:none;stroke:#606060;stroke-width:8.64"/>
	<circle cx="2341.23" cy="1036.93" r="14.97" style="fill:none;stroke:#606060;stroke-width:8.64"/>
	<circle cx="2341.23" cy="1042.01" r="14.97" style="fill:none;stroke:#606060;stroke-width:8.64"/>
	<circle cx="2341.23" cy="1574.27" r="14.97" style="fill:none;stroke:#606060;stroke-width:8.64"/>
	<circle cx="2377.61" cy="2093.54" r="14.97" style="fill:none;stroke:#606060;stroke-width:8.64"/>
	<circle cx="2377.61" cy="1041.14" r="14.97" style="fill:none;stroke:#606060;stroke-width:8.64"/>
	<circle cx="2377.61" cy="1614.12" r="14.97" style="fill:none;stroke:#606060;stroke-width:8.64"/>
	<circle cx="2413.87" cy="1137.30" r="14.97" style="fill:none;stroke:#606060;stroke-width:8.64"/>
	<circle cx="2450.25" cy="2090.82" r="14.97" style="fill:none;stroke:#606060;stroke-width:8.64"/>
	<circle cx="2450.25" cy="2122.38" r="14.97" style="fill:none;stroke:#606060;stroke-width:8.64"/>
	<circle cx="2486.63" cy="1066.63" r="14.97" style="fill:none;stroke:#606060;stroke-width:8.64"/>
	<circle cx="2486.63" cy="1105.74" r="14.97" style="fill:none;stroke:#606060;stroke-width:8.64"/>
	<circle cx="2486.63" cy="1078.39" r="14.97" style="fill:none;stroke:#606060;stroke-width:8.64"/>
	<circle cx="2595.78" cy="1183.83" r="14.97" style="fill:none;stroke:#606060;stroke-width:8.64"/>
	<circle cx="2595.78" cy="1073.19" r="14.97" style="fill:none;stroke:#606060;stroke-width:8.64"/>
	<circle cx="2595.78" cy="2153.81" r="14.97" style="fill:none;stroke:#606060;stroke-width:8.64"/>
	<circle cx="2595.78" cy="1686.64" r="14.97" style="fill:none;stroke:#606060;stroke-width:8.64"/>
	<circle cx="2595.78" cy="2159.75" r="14.97" style="fill:none;stroke:#606060;stroke-width:8.64"/>
	<circle cx="2595.78" cy="2148.61" r="14.97" style="fill:none;stroke:#606060;stroke-width:8.64"/>
	<circle cx="2595.78" cy="1057.60" r="14.97" style="fill:none;stroke:#606060;stroke-width:8.64"/>
	<circle cx="2595.78" cy="2163.47" r="14.97" style="fill:none;stroke:#606060;stroke-width:8.64"/>
	<circle cx="2632.04" cy="2045.65" r="14.97" style="fill:none;stroke:#606060;stroke-width:8.64"/>
	<circle cx="2632.04" cy="2133.89" r="14.97" style="fill:none;stroke:#606060;stroke-width:8.64"/>
	<circle cx="2632.04" cy="998.69" r="14.97" style="fill:none;stroke:#606060;stroke-width:8.64"/>
	<circle cx="2668.42" cy="1119.35" r="14.97" style="fill:none;stroke:#606060;stroke-width:8.64"/>
	<circle cx="2668.42" cy="1647.78" r="14.97" style="fill:none;stroke:#606060;stroke-width:8.64"/>
	<circle cx="2704.80" cy="1604.47" r="14.97" style="fill:none;stroke:#606060;stroke-width:8.64"/>
	<circle cx="2741.19" cy="944.49" r="14.97" style="fill:none;stroke:#606060;stroke-width:8.64"/>
	<circle cx="2777.57" cy="2135.25" r="14.97" style="fill:none;stroke:#606060;stroke-width:8.64"/>
	<circle cx="2777.57" cy="1153.01" r="14.97" style="fill:none;stroke:#606060;stroke-width:8.64"/>
	<circle cx="2813.95" cy="928.77" r="14.97" style="fill:none;stroke:#606060;stroke-width:8.64"/>
	<circle cx="2813.95" cy="994.61" r="14.97" style="fill:none;stroke:#606060;stroke-width:8.64"/>
	<circle cx="2850.21" cy="1655.95" r="14.97" style="fill:none;stroke:#606060;stroke-width:8.64"/>
	<circle cx="2850.21" cy="1724.63" r="14.97" style="fill:none;stroke:#606060;stroke-width:8.64"/>
	<circle cx="2850.21" cy="990.53" r="14.97" style="fill:none;stroke:#606060;stroke-width:8.64"/>
	<circle cx="2886.59" cy="1083.96" r="14.97" style="fill:none;stroke:#606060;stroke-width:8.64"/>
	<circle cx="2886.59" cy="1050.30" r="14.97" style="fill:none;stroke:#606060;stroke-width:8.64"/>
	<circle cx="2922.97" cy="1053.76" r="14.97" style="fill:none;stroke:#606060;stroke-width:8.64"/>
	<circle cx="2922.97" cy="1089.03" r="14.97" style="fill:none;stroke:#606060;stroke-width:8.64"/>
	<circle cx="2959.36" cy="2251.45" r="14.97" style="fill:none;stroke:#606060;stroke-width:8.64"/>
	<circle cx="2959.36" cy="1652.11" r="14.97" style="fill:none;stroke:#606060;stroke-width:8.64"/>
	<circle cx="2959.36" cy="1588.50" r="14.97" style="fill:none;stroke:#606060;stroke-width:8.64"/>
	<circle cx="2959.36" cy="1653.35" r="14.97" style="fill:none;stroke:#606060;stroke-width:8.64"/>
	<circle cx="3068.38" cy="1016.51" r="14.97" style="fill:none;stroke:#606060;stroke-width:8.64"/>
	<circle cx="3068.38" cy="615.43" r="14.97" style="fill:none;stroke:#606060;stroke-width:8.64"/>
	<circle cx="3068.38" cy="1080.99" r="14.97" style="fill:none;stroke:#606060;stroke-width:8.64"/>
	<circle cx="3104.76" cy="433.88" r="14.97" style="fill:none;stroke:#606060;stroke-width:8.64"/>
	<circle cx="3104.76" cy="1002.78" r="14.97" style="fill:none;stroke:#606060;stroke-width:8.64"/>
	<circle cx="3104.76" cy="1723.52" r="14.97" style="fill:none;stroke:#606060;stroke-width:8.64"/>
	<circle cx="3177.53" cy="1886.50" r="14.97" style="fill:none;stroke:#606060;stroke-width:8.64"/>
	<circle cx="3177.53" cy="2127.21" r="14.97" style="fill:none;stroke:#606060;stroke-width:8.64"/>
	<circle cx="3213.91" cy="2118.42" r="14.97" style="fill:none;stroke:#606060;stroke-width:8.64"/>
	<circle cx="3213.91" cy="1044.11" r="14.97" style="fill:none;stroke:#606060;stroke-width:8.64"/>
	<circle cx="3213.91" cy="1051.78" r="14.97" style="fill:none;stroke:#606060;stroke-width:8.64"/>
	<circle cx="3250.29" cy="1085.57" r="14.97" style="fill:none;stroke:#606060;stroke-width:8.64"/>
	<circle cx="3322.93" cy="1177.77" r="14.97" style="fill:none;stroke:#606060;stroke-width:8.64"/>
	<circle cx="3395.70" cy="1548.04" r="14.97" style="fill:none;stroke:#606060;stroke-width:8.64"/>
	<circle cx="3395.70" cy="985.70" r="14.97" style="fill:none;stroke:#606060;stroke-width:8.64"/>
	<circle cx="3395.70" cy="1021.09" r="14.97" style="fill:none;stroke:#606060;stroke-width:8.64"/>
	<circle cx="3468.47" cy="1021.09" r="14.97" style="fill:none;stroke:#606060;stroke-width:8.64"/>
	<circle cx="3504.72" cy="575.95" r="14.97" style="fill:none;stroke:#606060;stroke-width:8.64"/>
	<circle cx="3650.25" cy="1535.79" r="14.97" style="fill:none;stroke:#606060;stroke-width:8.64"/>
	<circle cx="3686.64" cy="1740.85" r="14.97" style="fill:none;stroke:#606060;stroke-width:8.64"/>
	<circle cx="3722.89" cy="1025.92" r="14.97" style="fill:none;stroke:#606060;stroke-width:8.64"/>
	<circle cx="3722.89" cy="923.70" r="14.97" style="fill:none;stroke:#606060;stroke-width:8.64"/>
	<circle cx="3722.89" cy="1148.68" r="14.97" style="fill:none;stroke:#606060;stroke-width:8.64"/>
	<circle cx="3795.66" cy="997.46" r="14.97" style="fill:none;stroke:#606060;stroke-width:8.64"/>
	<path d=" M414.07 1213.53 L559.47 1208.70 L559.47 1204.13 L741.26 1199.92 L777.64 1198.80 L777.64 1197.94 L814.03 1204.25 L814.03 1202.64 L850.41 1201.77 L850.41 1208.21 L850.41 1206.97 L850.41 1209.69 L886.79 1208.09 L886.79 1210.93 L923.05 1209.82 L923.05 1212.42 L923.05 1211.06 L923.05 1213.04 L923.05 1215.14 L959.43 1217.74 L995.82 1222.81 L995.82 1221.20 L995.82 1219.84 L995.82 1218.98 L995.82 1220.21 L1032.20 1216.01 L1032.20 1215.26 L1032.20 1220.83 L1032.20 1223.18 L1032.20 1219.22 L1032.20 1224.67 L1032.20 1226.77 L1068.58 1225.66 L1068.58 1224.92 L1068.58 1229.74 L1104.96 1230.61 L1104.96 1229.37 L1104.96 1231.47 L1104.96 1228.38 L1104.96 1227.14 L1104.96 1226.03 L1104.96 1225.29 L1104.96 1224.30 L1104.96 1222.94 L1104.96 1221.95 L1141.22 1226.90 L1141.22 1225.78 L1141.22 1228.50 L1141.22 1233.21 L1177.61 1237.91 L1177.61 1237.54 L1177.61 1239.39 L1177.61 1241.62 L1177.61 1241.13 L1177.61 1239.77 L1177.61 1243.97 L1177.61 1242.98 L1213.99 1241.62 L1213.99 1240.88 L1213.99 1245.46 L1213.99 1247.56 L1213.99 1252.02 L1213.99 1251.03 L1250.37 1255.48 L1250.37 1259.81 L1250.37 1256.35 L1250.37 1255.11 L1250.37 1259.20 L1250.37 1262.91 L1250.37 1259.94 L1250.37 1261.42 L1286.75 1262.78 L1286.75 1259.20 L1286.75 1260.93 L1323.13 1259.81 L1323.13 1259.07 L1323.13 1260.56 L1323.13 1259.57 L1323.13 1258.82 L1323.13 1262.17 L1323.13 1261.67 L1323.13 1260.68 L1323.13 1262.78 L1323.13 1264.52 L1323.13 1263.28 L1323.13 1262.54 L1359.39 1259.07 L1359.39 1258.33 L1359.39 1254.62 L1359.39 1253.87 L1359.39 1255.11 L1359.39 1254.49 L1359.39 1253.87 L1359.39 1253.38 L1359.39 1255.11 L1359.39 1256.97 L1395.78 1253.50 L1395.78 1257.34 L1395.78 1256.60 L1395.78 1257.96 L1395.78 1254.86 L1395.78 1256.35 L1395.78 1255.98 L1395.78 1255.24 L1395.78 1254.37 L1395.78 1253.50 L1395.78 1255.11 L1395.78 1256.84 L1395.78 1256.10 L1395.78 1255.24 L1395.78 1254.25 L1432.16 1253.13 L1432.16 1252.39 L1432.16 1251.15 L1432.16 1254.49 L1432.16 1253.50 L1432.16 1254.62 L1432.16 1253.63 L1432.16 1257.09 L1432.16 1260.56 L1432.16 1260.06 L1432.16 1257.22 L1468.54 1257.96 L1468.54 1261.30 L1468.54 1260.43 L1468.54 1263.77 L1468.54 1263.16 L1468.54 1260.43 L1468.54 1261.79 L1468.54 1264.76 L1468.54 1263.77 L1504.92 1265.01 L1504.92 1266.13 L1504.92 1267.49 L1504.92 1266.50 L1504.92 1265.75 L1504.92 1266.87 L1504.92 1266.13 L1541.18 1267.61 L1541.18 1270.83 L1541.18 1271.57 L1541.18 1270.83 L1541.18 1269.71 L1541.18 1271.57 L1541.18 1272.31 L1541.18 1273.92 L1541.18 1269.59 L1541.18 1268.48 L1577.57 1272.19 L1577.57 1269.71 L1577.57 1275.28 L1577.57 1274.91 L1577.57 1275.04 L1577.57 1277.02 L1577.57 1276.77 L1613.95 1276.03 L1613.95 1272.31 L1613.95 1274.05 L1613.95 1272.93 L1613.95 1276.64 L1613.95 1276.89 L1650.33 1277.39 L1650.33 1275.65 L1650.33 1275.78 L1650.33 1274.29 L1650.33 1272.56 L1650.33 1276.77 L1650.33 1276.77 L1650.33 1280.48 L1650.33 1282.21 L1650.33 1282.21 L1686.71 1286.05 L1686.71 1285.68 L1686.71 1289.64 L1686.71 1289.64 L1686.71 1290.13 L1686.71 1292.24 L1686.71 1293.97 L1686.71 1293.48 L1723.10 1297.19 L1723.10 1298.43 L1723.10 1297.93 L1723.10 1297.68 L1723.10 1300.03 L1723.10 1302.26 L1723.10 1302.01 L1759.35 1300.53 L1759.35 1298.67 L1759.35 1298.92 L1759.35 1298.92 L1759.35 1301.02 L1759.35 1299.54 L1759.35 1303.62 L1759.35 1305.60 L1795.74 1305.23 L1795.74 1303.87 L1795.74 1303.75 L1795.74 1299.54 L1795.74 1299.42 L1795.74 1303.62 L1795.74 1306.59 L1795.74 1310.43 L1832.12 1316.25 L1832.12 1318.10 L1832.12 1314.14 L1832.12 1314.27 L1832.12 1310.68 L1832.12 1310.80 L1832.12 1306.84 L1832.12 1308.82 L1832.12 1308.45 L1832.12 1302.88 L1832.12 1306.59 L1832.12 1308.94 L1868.50 1306.84 L1868.50 1308.33 L1868.50 1308.70 L1868.50 1310.68 L1868.50 1311.54 L1904.88 1310.92 L1904.88 1312.04 L1904.88 1309.19 L1904.88 1308.33 L1904.88 1305.11 L1904.88 1305.85 L1904.88 1302.14 L1904.88 1304.37 L1941.27 1305.36 L1941.27 1306.59 L1941.27 1307.46 L1941.27 1306.22 L1941.27 1309.07 L1977.53 1309.69 L1977.53 1312.78 L1977.53 1309.81 L1977.53 1310.31 L2013.91 1308.94 L2013.91 1309.81 L2013.91 1310.68 L2013.91 1313.52 L2013.91 1314.64 L2013.91 1315.63 L2050.29 1316.86 L2050.29 1314.02 L2050.29 1314.88 L2050.29 1311.54 L2050.29 1312.66 L2050.29 1313.77 L2050.29 1314.39 L2050.29 1315.26 L2050.29 1314.02 L2050.29 1314.88 L2050.29 1315.75 L2050.29 1314.27 L2050.29 1315.13 L2086.67 1315.87 L2086.67 1316.99 L2086.67 1316.00 L2086.67 1314.76 L2086.67 1315.63 L2086.67 1316.49 L2086.67 1317.73 L2086.67 1319.09 L2123.05 1317.85 L2123.05 1318.84 L2123.05 1315.63 L2159.44 1318.84 L2159.44 1315.38 L2159.44 1314.51 L2159.44 1315.63 L2159.44 1317.24 L2159.44 1320.70 L2159.44 1324.79 L2195.70 1326.02 L2195.70 1325.16 L2195.70 1326.39 L2195.70 1328.25 L2195.70 1331.96 L2195.70 1332.83 L2195.70 1334.44 L2232.08 1338.27 L2232.08 1339.26 L2268.46 1340.38 L2268.46 1343.84 L2268.46 1345.08 L2268.46 1343.60 L2304.84 1342.85 L2304.84 1344.09 L2304.84 1342.98 L2304.84 1346.69 L2304.84 1350.65 L2304.84 1354.36 L2304.84 1357.95 L2341.23 1359.56 L2341.23 1360.92 L2341.23 1357.21 L2341.23 1359.06 L2341.23 1360.43 L2341.23 1356.34 L2377.61 1358.07 L2377.61 1356.71 L2377.61 1358.69 L2413.87 1357.21 L2450.25 1358.69 L2450.25 1357.58 L2486.63 1359.31 L2486.63 1358.45 L2486.63 1357.46 L2595.78 1355.97 L2595.78 1352.51 L2595.78 1354.49 L2595.78 1356.34 L2595.78 1357.70 L2595.78 1357.46 L2595.78 1361.79 L2595.78 1363.27 L2632.04 1359.06 L2632.04 1357.58 L2632.04 1361.91 L2668.42 1357.70 L2668.42 1356.34 L2704.80 1358.07 L2741.19 1359.56 L2777.57 1355.60 L2777.57 1355.48 L2813.95 1357.33 L2813.95 1355.97 L2850.21 1359.81 L2850.21 1361.79 L2850.21 1363.77 L2886.59 1365.38 L2886.59 1367.11 L2922.97 1369.46 L2922.97 1371.44 L2959.36 1366.74 L2959.36 1368.84 L2959.36 1366.61 L2959.36 1362.04 L3068.38 1357.33 L3068.38 1358.57 L3068.38 1357.08 L3104.76 1355.23 L3104.76 1356.47 L3104.76 1358.82 L3177.53 1354.36 L3177.53 1356.34 L3213.91 1358.69 L3213.91 1360.30 L3213.91 1355.23 L3250.29 1353.25 L3322.93 1347.93 L3395.70 1349.91 L3395.70 1344.59 L3395.70 1339.14 L3468.47 1344.46 L3504.72 1346.94 L3650.25 1341.62 L3686.64 1336.91 L3722.89 1341.74 L3722.89 1340.01 L3722.89 1338.65 L3795.66 1344.59" stroke-linejoin="round" style="fill:none;stroke:#000000;stroke-width:8.64"/>
	<line x1="350.71" y1="2414.69" x2="350.71" y2="235.38" style="stroke:#000000;stroke-width:5.76"/>
	<line x1="350.71" y1="2329.30" x2="310.74" y2="2329.30" style="stroke:#000000;stroke-width:5.76"/>
	<text x="266.64" y="2329.30" style="font-family:'Helvetica';font-size:79.94px;fill:#000000" transform="rotate(-90 266.64,2329.30)" text-anchor="middle">-5</text>
	<line x1="350.71" y1="1314.02" x2="310.74" y2="1314.02" style="stroke:#000000;stroke-width:5.76"/>
	<text x="266.64" y="1314.02" style="font-family:'Helvetica';font-size:79.94px;fill:#000000" transform="rotate(-90 266.64,1314.02)" text-anchor="middle">0</text>
	<line x1="350.71" y1="298.74" x2="310.74" y2="298.74" style="stroke:#000000;stroke-width:5.76"/>
	<text x="266.64" y="298.74" style="font-family:'Helvetica';font-size:79.94px;fill:#000000" transform="rotate(-90 266.64,298.74)" text-anchor="middle">5</text>
	<text x="176.68" y="1325.03" style="font-family:'Helvetica';font-size:79.94px;fill:#000000" transform="rotate(-90 176.68,1325.03)" text-anchor="middle">Scaled Schoenfeld Residuals</text>
	<line x1="350.71" y1="2414.69" x2="3859.02" y2="2414.69" style="stroke:#000000;stroke-width:5.76"/>
	<line x1="705.00" y1="2414.69" x2="705.00" y2="2454.66" style="stroke:#000000;stroke-width:5.76"/>
	<text x="705.00" y="2530.61" style="font-family:'Helvetica';font-size:79.94px;fill:#000000" text-anchor="middle">20</text>
	<line x1="1432.16" y1="2414.69" x2="1432.16" y2="2454.66" style="stroke:#000000;stroke-width:5.76"/>
	<text x="1432.16" y="2530.61" style="font-family:'Helvetica';font-size:79.94px;fill:#000000" text-anchor="middle">40</text>
	<line x1="2159.44" y1="2414.69" x2="2159.44" y2="2454.66" style="stroke:#000000;stroke-width:5.76"/>
	<text x="2159.44" y="2530.61" style="font-family:'Helvetica';font-size:79.94px;fill:#000000" text-anchor="middle">60</text>
	<line x1="2886.72" y1="2414.69" x2="2886.72" y2="2454.66" style="stroke:#000000;stroke-width:5.76"/>
	<text x="2886.72" y="2530.61" style="font-family:'Helvetica';font-size:79.94px;fill:#000000" text-anchor="middle">80</text>
	<line x1="3613.87" y1="2414.69" x2="3613.87" y2="2454.66" style="stroke:#000000;stroke-width:5.76"/>
	<text x="3613.87" y="2530.61" style="font-family:'Helvetica';font-size:79.94px;fill:#000000" text-anchor="middle">100</text>
	<text x="2104.86" y="2620.57" style="font-family:'Helvetica';font-size:79.94px;fill:#000000" text-anchor="middle">Time</text>
	<text x="368.03" y="2737.89" style="font-family:'Helvetica';font-size:79.94px;fill:#000000">bandwidth = .8</text>
	<text x="368.03" y="187.99" style="font-family:'Helvetica';font-size:99.99px;fill:#000000">Schoenfeld residuals against time, fully adjusted</text>
</svg>
