<?xml version="1.0" encoding="UTF-8" standalone="no"?>
<!-- This is a Stata 16.1 generated SVG file (http://www.stata.com) -->

<svg version="1.1" width="5.50in" height="4.00in" viewBox="0 0 3960 2880" xmlns="http://www.w3.org/2000/svg" xmlns:xlink="http://www.w3.org/1999/xlink">
	<desc>Stata Graph - Graph</desc>
	<rect x="0" y="0" width="3960" height="2880" style="fill:#FFFFFF;stroke:none"/>
	<rect x="0.00" y="0.00" width="3959.88" height="2880.00" style="fill:#FFFFFF"/>
	<rect x="2.88" y="2.88" width="3954.12" height="2874.24" style="fill:none;stroke:#FFFFFF;stroke-width:5.76"/>
	<rect x="353.59" y="238.26" width="3502.55" height="2173.55" style="fill:none;stroke:#000000;stroke-width:5.76"/>
	<circle cx="414.07" cy="298.74" r="14.97" style="fill:none;stroke:#606060;stroke-width:8.64"/>
	<circle cx="559.47" cy="2086.49" r="14.97" style="fill:none;stroke:#606060;stroke-width:8.64"/>
	<circle cx="559.47" cy="2303.31" r="14.97" style="fill:none;stroke:#606060;stroke-width:8.64"/>
	<circle cx="741.26" cy="528.92" r="14.97" style="fill:none;stroke:#606060;stroke-width:8.64"/>
	<circle cx="777.64" cy="2062.61" r="14.97" style="fill:none;stroke:#606060;stroke-width:8.64"/>
	<circle cx="777.64" cy="521.62" r="14.97" style="fill:none;stroke:#606060;stroke-width:8.64"/>
	<circle cx="814.03" cy="593.28" r="14.97" style="fill:none;stroke:#606060;stroke-width:8.64"/>
	<circle cx="814.03" cy="529.79" r="14.97" style="fill:none;stroke:#606060;stroke-width:8.64"/>
	<circle cx="850.41" cy="493.78" r="14.97" style="fill:none;stroke:#606060;stroke-width:8.64"/>
	<circle cx="850.41" cy="2304.79" r="14.97" style="fill:none;stroke:#606060;stroke-width:8.64"/>
	<circle cx="850.41" cy="2277.81" r="14.97" style="fill:none;stroke:#606060;stroke-width:8.64"/>
	<circle cx="850.41" cy="2260.49" r="14.97" style="fill:none;stroke:#606060;stroke-width:8.64"/>
	<circle cx="886.79" cy="496.87" r="14.97" style="fill:none;stroke:#606060;stroke-width:8.64"/>
	<circle cx="886.79" cy="2269.15" r="14.97" style="fill:none;stroke:#606060;stroke-width:8.64"/>
	<circle cx="923.05" cy="561.47" r="14.97" style="fill:none;stroke:#606060;stroke-width:8.64"/>
	<circle cx="923.05" cy="2255.79" r="14.97" style="fill:none;stroke:#606060;stroke-width:8.64"/>
	<circle cx="923.05" cy="558.38" r="14.97" style="fill:none;stroke:#606060;stroke-width:8.64"/>
	<circle cx="923.05" cy="2300.21" r="14.97" style="fill:none;stroke:#606060;stroke-width:8.64"/>
	<circle cx="923.05" cy="470.88" r="14.97" style="fill:none;stroke:#606060;stroke-width:8.64"/>
	<circle cx="959.43" cy="2271.25" r="14.97" style="fill:none;stroke:#606060;stroke-width:8.64"/>
	<circle cx="995.82" cy="2306.03" r="14.97" style="fill:none;stroke:#606060;stroke-width:8.64"/>
	<circle cx="995.82" cy="581.40" r="14.97" style="fill:none;stroke:#606060;stroke-width:8.64"/>
	<circle cx="995.82" cy="2066.32" r="14.97" style="fill:none;stroke:#606060;stroke-width:8.64"/>
	<circle cx="995.82" cy="331.78" r="14.97" style="fill:none;stroke:#606060;stroke-width:8.64"/>
	<circle cx="995.82" cy="2205.91" r="14.97" style="fill:none;stroke:#606060;stroke-width:8.64"/>
	<circle cx="1032.20" cy="598.72" r="14.97" style="fill:none;stroke:#606060;stroke-width:8.64"/>
	<circle cx="1032.20" cy="545.01" r="14.97" style="fill:none;stroke:#606060;stroke-width:8.64"/>
	<circle cx="1032.20" cy="2243.66" r="14.97" style="fill:none;stroke:#606060;stroke-width:8.64"/>
	<circle cx="1032.20" cy="559.00" r="14.97" style="fill:none;stroke:#606060;stroke-width:8.64"/>
	<circle cx="1032.20" cy="490.81" r="14.97" style="fill:none;stroke:#606060;stroke-width:8.64"/>
	<circle cx="1032.20" cy="550.46" r="14.97" style="fill:none;stroke:#606060;stroke-width:8.64"/>
	<circle cx="1032.20" cy="572.24" r="14.97" style="fill:none;stroke:#606060;stroke-width:8.64"/>
	<circle cx="1068.58" cy="525.58" r="14.97" style="fill:none;stroke:#606060;stroke-width:8.64"/>
	<circle cx="1068.58" cy="559.61" r="14.97" style="fill:none;stroke:#606060;stroke-width:8.64"/>
	<circle cx="1068.58" cy="576.07" r="14.97" style="fill:none;stroke:#606060;stroke-width:8.64"/>
	<circle cx="1104.96" cy="505.78" r="14.97" style="fill:none;stroke:#606060;stroke-width:8.64"/>
	<circle cx="1104.96" cy="573.72" r="14.97" style="fill:none;stroke:#606060;stroke-width:8.64"/>
	<circle cx="1104.96" cy="514.94" r="14.97" style="fill:none;stroke:#606060;stroke-width:8.64"/>
	<circle cx="1104.96" cy="487.47" r="14.97" style="fill:none;stroke:#606060;stroke-width:8.64"/>
	<circle cx="1104.96" cy="556.03" r="14.97" style="fill:none;stroke:#606060;stroke-width:8.64"/>
	<circle cx="1104.96" cy="542.54" r="14.97" style="fill:none;stroke:#606060;stroke-width:8.64"/>
	<circle cx="1104.96" cy="2308.26" r="14.97" style="fill:none;stroke:#606060;stroke-width:8.64"/>
	<circle cx="1104.96" cy="2302.07" r="14.97" style="fill:none;stroke:#606060;stroke-width:8.64"/>
	<circle cx="1104.96" cy="524.22" r="14.97" style="fill:none;stroke:#606060;stroke-width:8.64"/>
	<circle cx="1104.96" cy="454.18" r="14.97" style="fill:none;stroke:#606060;stroke-width:8.64"/>
	<circle cx="1141.22" cy="2268.28" r="14.97" style="fill:none;stroke:#606060;stroke-width:8.64"/>
	<circle cx="1141.22" cy="2337.71" r="14.97" style="fill:none;stroke:#606060;stroke-width:8.64"/>
	<circle cx="1141.22" cy="478.56" r="14.97" style="fill:none;stroke:#606060;stroke-width:8.64"/>
	<circle cx="1141.22" cy="563.70" r="14.97" style="fill:none;stroke:#606060;stroke-width:8.64"/>
	<circle cx="1177.61" cy="577.19" r="14.97" style="fill:none;stroke:#606060;stroke-width:8.64"/>
	<circle cx="1177.61" cy="506.65" r="14.97" style="fill:none;stroke:#606060;stroke-width:8.64"/>
	<circle cx="1177.61" cy="560.98" r="14.97" style="fill:none;stroke:#606060;stroke-width:8.64"/>
	<circle cx="1177.61" cy="2308.38" r="14.97" style="fill:none;stroke:#606060;stroke-width:8.64"/>
	<circle cx="1177.61" cy="502.07" r="14.97" style="fill:none;stroke:#606060;stroke-width:8.64"/>
	<circle cx="1177.61" cy="492.79" r="14.97" style="fill:none;stroke:#606060;stroke-width:8.64"/>
	<circle cx="1177.61" cy="556.89" r="14.97" style="fill:none;stroke:#606060;stroke-width:8.64"/>
	<circle cx="1177.61" cy="553.43" r="14.97" style="fill:none;stroke:#606060;stroke-width:8.64"/>
	<circle cx="1213.99" cy="470.26" r="14.97" style="fill:none;stroke:#606060;stroke-width:8.64"/>
	<circle cx="1213.99" cy="534.62" r="14.97" style="fill:none;stroke:#606060;stroke-width:8.64"/>
	<circle cx="1213.99" cy="2299.72" r="14.97" style="fill:none;stroke:#606060;stroke-width:8.64"/>
	<circle cx="1213.99" cy="528.80" r="14.97" style="fill:none;stroke:#606060;stroke-width:8.64"/>
	<circle cx="1213.99" cy="2310.73" r="14.97" style="fill:none;stroke:#606060;stroke-width:8.64"/>
	<circle cx="1213.99" cy="2232.27" r="14.97" style="fill:none;stroke:#606060;stroke-width:8.64"/>
	<circle cx="1250.37" cy="2249.72" r="14.97" style="fill:none;stroke:#606060;stroke-width:8.64"/>
	<circle cx="1250.37" cy="547.36" r="14.97" style="fill:none;stroke:#606060;stroke-width:8.64"/>
	<circle cx="1250.37" cy="561.97" r="14.97" style="fill:none;stroke:#606060;stroke-width:8.64"/>
	<circle cx="1250.37" cy="2312.09" r="14.97" style="fill:none;stroke:#606060;stroke-width:8.64"/>
	<circle cx="1250.37" cy="551.94" r="14.97" style="fill:none;stroke:#606060;stroke-width:8.64"/>
	<circle cx="1250.37" cy="595.26" r="14.97" style="fill:none;stroke:#606060;stroke-width:8.64"/>
	<circle cx="1250.37" cy="2301.82" r="14.97" style="fill:none;stroke:#606060;stroke-width:8.64"/>
	<circle cx="1250.37" cy="567.29" r="14.97" style="fill:none;stroke:#606060;stroke-width:8.64"/>
	<circle cx="1286.75" cy="604.04" r="14.97" style="fill:none;stroke:#606060;stroke-width:8.64"/>
	<circle cx="1286.75" cy="565.31" r="14.97" style="fill:none;stroke:#606060;stroke-width:8.64"/>
	<circle cx="1286.75" cy="577.56" r="14.97" style="fill:none;stroke:#606060;stroke-width:8.64"/>
	<circle cx="1323.13" cy="2256.03" r="14.97" style="fill:none;stroke:#606060;stroke-width:8.64"/>
	<circle cx="1323.13" cy="575.33" r="14.97" style="fill:none;stroke:#606060;stroke-width:8.64"/>
	<circle cx="1323.13" cy="2277.94" r="14.97" style="fill:none;stroke:#606060;stroke-width:8.64"/>
	<circle cx="1323.13" cy="2300.46" r="14.97" style="fill:none;stroke:#606060;stroke-width:8.64"/>
	<circle cx="1323.13" cy="2074.49" r="14.97" style="fill:none;stroke:#606060;stroke-width:8.64"/>
	<circle cx="1323.13" cy="592.53" r="14.97" style="fill:none;stroke:#606060;stroke-width:8.64"/>
	<circle cx="1323.13" cy="2250.46" r="14.97" style="fill:none;stroke:#606060;stroke-width:8.64"/>
	<circle cx="1323.13" cy="565.93" r="14.97" style="fill:none;stroke:#606060;stroke-width:8.64"/>
	<circle cx="1323.13" cy="354.55" r="14.97" style="fill:none;stroke:#606060;stroke-width:8.64"/>
	<circle cx="1323.13" cy="488.33" r="14.97" style="fill:none;stroke:#606060;stroke-width:8.64"/>
	<circle cx="1323.13" cy="588.70" r="14.97" style="fill:none;stroke:#606060;stroke-width:8.64"/>
	<circle cx="1323.13" cy="2194.16" r="14.97" style="fill:none;stroke:#606060;stroke-width:8.64"/>
	<circle cx="1359.39" cy="539.32" r="14.97" style="fill:none;stroke:#606060;stroke-width:8.64"/>
	<circle cx="1359.39" cy="579.42" r="14.97" style="fill:none;stroke:#606060;stroke-width:8.64"/>
	<circle cx="1359.39" cy="526.70" r="14.97" style="fill:none;stroke:#606060;stroke-width:8.64"/>
	<circle cx="1359.39" cy="2313.83" r="14.97" style="fill:none;stroke:#606060;stroke-width:8.64"/>
	<circle cx="1359.39" cy="549.59" r="14.97" style="fill:none;stroke:#606060;stroke-width:8.64"/>
	<circle cx="1359.39" cy="2224.10" r="14.97" style="fill:none;stroke:#606060;stroke-width:8.64"/>
	<circle cx="1359.39" cy="539.32" r="14.97" style="fill:none;stroke:#606060;stroke-width:8.64"/>
	<circle cx="1359.39" cy="577.56" r="14.97" style="fill:none;stroke:#606060;stroke-width:8.64"/>
	<circle cx="1359.39" cy="305.67" r="14.97" style="fill:none;stroke:#606060;stroke-width:8.64"/>
	<circle cx="1359.39" cy="549.59" r="14.97" style="fill:none;stroke:#606060;stroke-width:8.64"/>
	<circle cx="1395.78" cy="604.91" r="14.97" style="fill:none;stroke:#606060;stroke-width:8.64"/>
	<circle cx="1395.78" cy="576.57" r="14.97" style="fill:none;stroke:#606060;stroke-width:8.64"/>
	<circle cx="1395.78" cy="2229.43" r="14.97" style="fill:none;stroke:#606060;stroke-width:8.64"/>
	<circle cx="1395.78" cy="550.09" r="14.97" style="fill:none;stroke:#606060;stroke-width:8.64"/>
	<circle cx="1395.78" cy="2087.48" r="14.97" style="fill:none;stroke:#606060;stroke-width:8.64"/>
	<circle cx="1395.78" cy="599.96" r="14.97" style="fill:none;stroke:#606060;stroke-width:8.64"/>
	<circle cx="1395.78" cy="401.58" r="14.97" style="fill:none;stroke:#606060;stroke-width:8.64"/>
	<circle cx="1395.78" cy="517.91" r="14.97" style="fill:none;stroke:#606060;stroke-width:8.64"/>
	<circle cx="1395.78" cy="559.00" r="14.97" style="fill:none;stroke:#606060;stroke-width:8.64"/>
	<circle cx="1395.78" cy="2320.01" r="14.97" style="fill:none;stroke:#606060;stroke-width:8.64"/>
	<circle cx="1395.78" cy="578.43" r="14.97" style="fill:none;stroke:#606060;stroke-width:8.64"/>
	<circle cx="1395.78" cy="569.02" r="14.97" style="fill:none;stroke:#606060;stroke-width:8.64"/>
	<circle cx="1395.78" cy="2263.46" r="14.97" style="fill:none;stroke:#606060;stroke-width:8.64"/>
	<circle cx="1395.78" cy="578.43" r="14.97" style="fill:none;stroke:#606060;stroke-width:8.64"/>
	<circle cx="1395.78" cy="579.54" r="14.97" style="fill:none;stroke:#606060;stroke-width:8.64"/>
	<circle cx="1432.16" cy="563.20" r="14.97" style="fill:none;stroke:#606060;stroke-width:8.64"/>
	<circle cx="1432.16" cy="2206.78" r="14.97" style="fill:none;stroke:#606060;stroke-width:8.64"/>
	<circle cx="1432.16" cy="2302.32" r="14.97" style="fill:none;stroke:#606060;stroke-width:8.64"/>
	<circle cx="1432.16" cy="602.93" r="14.97" style="fill:none;stroke:#606060;stroke-width:8.64"/>
	<circle cx="1432.16" cy="576.45" r="14.97" style="fill:none;stroke:#606060;stroke-width:8.64"/>
	<circle cx="1432.16" cy="567.41" r="14.97" style="fill:none;stroke:#606060;stroke-width:8.64"/>
	<circle cx="1432.16" cy="554.05" r="14.97" style="fill:none;stroke:#606060;stroke-width:8.64"/>
	<circle cx="1432.16" cy="2310.86" r="14.97" style="fill:none;stroke:#606060;stroke-width:8.64"/>
	<circle cx="1432.16" cy="603.30" r="14.97" style="fill:none;stroke:#606060;stroke-width:8.64"/>
	<circle cx="1432.16" cy="2243.66" r="14.97" style="fill:none;stroke:#606060;stroke-width:8.64"/>
	<circle cx="1432.16" cy="570.88" r="14.97" style="fill:none;stroke:#606060;stroke-width:8.64"/>
	<circle cx="1468.54" cy="2274.84" r="14.97" style="fill:none;stroke:#606060;stroke-width:8.64"/>
	<circle cx="1468.54" cy="2210.62" r="14.97" style="fill:none;stroke:#606060;stroke-width:8.64"/>
	<circle cx="1468.54" cy="594.14" r="14.97" style="fill:none;stroke:#606060;stroke-width:8.64"/>
	<circle cx="1468.54" cy="513.95" r="14.97" style="fill:none;stroke:#606060;stroke-width:8.64"/>
	<circle cx="1468.54" cy="606.77" r="14.97" style="fill:none;stroke:#606060;stroke-width:8.64"/>
	<circle cx="1468.54" cy="500.21" r="14.97" style="fill:none;stroke:#606060;stroke-width:8.64"/>
	<circle cx="1468.54" cy="584.24" r="14.97" style="fill:none;stroke:#606060;stroke-width:8.64"/>
	<circle cx="1468.54" cy="2207.03" r="14.97" style="fill:none;stroke:#606060;stroke-width:8.64"/>
	<circle cx="1468.54" cy="579.04" r="14.97" style="fill:none;stroke:#606060;stroke-width:8.64"/>
	<circle cx="1504.92" cy="558.87" r="14.97" style="fill:none;stroke:#606060;stroke-width:8.64"/>
	<circle cx="1504.92" cy="472.62" r="14.97" style="fill:none;stroke:#606060;stroke-width:8.64"/>
	<circle cx="1504.92" cy="549.71" r="14.97" style="fill:none;stroke:#606060;stroke-width:8.64"/>
	<circle cx="1504.92" cy="500.21" r="14.97" style="fill:none;stroke:#606060;stroke-width:8.64"/>
	<circle cx="1504.92" cy="580.53" r="14.97" style="fill:none;stroke:#606060;stroke-width:8.64"/>
	<circle cx="1504.92" cy="344.53" r="14.97" style="fill:none;stroke:#606060;stroke-width:8.64"/>
	<circle cx="1504.92" cy="531.40" r="14.97" style="fill:none;stroke:#606060;stroke-width:8.64"/>
	<circle cx="1541.18" cy="557.63" r="14.97" style="fill:none;stroke:#606060;stroke-width:8.64"/>
	<circle cx="1541.18" cy="574.09" r="14.97" style="fill:none;stroke:#606060;stroke-width:8.64"/>
	<circle cx="1541.18" cy="2292.17" r="14.97" style="fill:none;stroke:#606060;stroke-width:8.64"/>
	<circle cx="1541.18" cy="2271.38" r="14.97" style="fill:none;stroke:#606060;stroke-width:8.64"/>
	<circle cx="1541.18" cy="431.28" r="14.97" style="fill:none;stroke:#606060;stroke-width:8.64"/>
	<circle cx="1541.18" cy="2201.46" r="14.97" style="fill:none;stroke:#606060;stroke-width:8.64"/>
	<circle cx="1541.18" cy="517.17" r="14.97" style="fill:none;stroke:#606060;stroke-width:8.64"/>
	<circle cx="1541.18" cy="576.20" r="14.97" style="fill:none;stroke:#606060;stroke-width:8.64"/>
	<circle cx="1541.18" cy="573.85" r="14.97" style="fill:none;stroke:#606060;stroke-width:8.64"/>
	<circle cx="1541.18" cy="579.04" r="14.97" style="fill:none;stroke:#606060;stroke-width:8.64"/>
	<circle cx="1577.57" cy="586.47" r="14.97" style="fill:none;stroke:#606060;stroke-width:8.64"/>
	<circle cx="1577.57" cy="390.94" r="14.97" style="fill:none;stroke:#606060;stroke-width:8.64"/>
	<circle cx="1577.57" cy="2221.13" r="14.97" style="fill:none;stroke:#606060;stroke-width:8.64"/>
	<circle cx="1577.57" cy="590.55" r="14.97" style="fill:none;stroke:#606060;stroke-width:8.64"/>
	<circle cx="1577.57" cy="550.95" r="14.97" style="fill:none;stroke:#606060;stroke-width:8.64"/>
	<circle cx="1577.57" cy="2196.14" r="14.97" style="fill:none;stroke:#606060;stroke-width:8.64"/>
	<circle cx="1577.57" cy="550.95" r="14.97" style="fill:none;stroke:#606060;stroke-width:8.64"/>
	<circle cx="1613.95" cy="2315.81" r="14.97" style="fill:none;stroke:#606060;stroke-width:8.64"/>
	<circle cx="1613.95" cy="523.97" r="14.97" style="fill:none;stroke:#606060;stroke-width:8.64"/>
	<circle cx="1613.95" cy="2311.97" r="14.97" style="fill:none;stroke:#606060;stroke-width:8.64"/>
	<circle cx="1613.95" cy="598.47" r="14.97" style="fill:none;stroke:#606060;stroke-width:8.64"/>
	<circle cx="1613.95" cy="2286.11" r="14.97" style="fill:none;stroke:#606060;stroke-width:8.64"/>
	<circle cx="1613.95" cy="486.11" r="14.97" style="fill:none;stroke:#606060;stroke-width:8.64"/>
	<circle cx="1650.33" cy="2267.05" r="14.97" style="fill:none;stroke:#606060;stroke-width:8.64"/>
	<circle cx="1650.33" cy="2268.04" r="14.97" style="fill:none;stroke:#606060;stroke-width:8.64"/>
	<circle cx="1650.33" cy="2312.96" r="14.97" style="fill:none;stroke:#606060;stroke-width:8.64"/>
	<circle cx="1650.33" cy="2341.30" r="14.97" style="fill:none;stroke:#606060;stroke-width:8.64"/>
	<circle cx="1650.33" cy="483.01" r="14.97" style="fill:none;stroke:#606060;stroke-width:8.64"/>
	<circle cx="1650.33" cy="550.95" r="14.97" style="fill:none;stroke:#606060;stroke-width:8.64"/>
	<circle cx="1650.33" cy="570.88" r="14.97" style="fill:none;stroke:#606060;stroke-width:8.64"/>
	<circle cx="1650.33" cy="2234.87" r="14.97" style="fill:none;stroke:#606060;stroke-width:8.64"/>
	<circle cx="1650.33" cy="578.18" r="14.97" style="fill:none;stroke:#606060;stroke-width:8.64"/>
	<circle cx="1650.33" cy="558.87" r="14.97" style="fill:none;stroke:#606060;stroke-width:8.64"/>
	<circle cx="1686.71" cy="2253.56" r="14.97" style="fill:none;stroke:#606060;stroke-width:8.64"/>
	<circle cx="1686.71" cy="2314.69" r="14.97" style="fill:none;stroke:#606060;stroke-width:8.64"/>
	<circle cx="1686.71" cy="560.48" r="14.97" style="fill:none;stroke:#606060;stroke-width:8.64"/>
	<circle cx="1686.71" cy="2236.23" r="14.97" style="fill:none;stroke:#606060;stroke-width:8.64"/>
	<circle cx="1686.71" cy="2285.86" r="14.97" style="fill:none;stroke:#606060;stroke-width:8.64"/>
	<circle cx="1686.71" cy="571.25" r="14.97" style="fill:none;stroke:#606060;stroke-width:8.64"/>
	<circle cx="1686.71" cy="608.00" r="14.97" style="fill:none;stroke:#606060;stroke-width:8.64"/>
	<circle cx="1686.71" cy="2322.24" r="14.97" style="fill:none;stroke:#606060;stroke-width:8.64"/>
	<circle cx="1723.10" cy="2258.76" r="14.97" style="fill:none;stroke:#606060;stroke-width:8.64"/>
	<circle cx="1723.10" cy="569.76" r="14.97" style="fill:none;stroke:#606060;stroke-width:8.64"/>
	<circle cx="1723.10" cy="2316.55" r="14.97" style="fill:none;stroke:#606060;stroke-width:8.64"/>
	<circle cx="1723.10" cy="575.95" r="14.97" style="fill:none;stroke:#606060;stroke-width:8.64"/>
	<circle cx="1723.10" cy="569.02" r="14.97" style="fill:none;stroke:#606060;stroke-width:8.64"/>
	<circle cx="1723.10" cy="542.66" r="14.97" style="fill:none;stroke:#606060;stroke-width:8.64"/>
	<circle cx="1723.10" cy="573.23" r="14.97" style="fill:none;stroke:#606060;stroke-width:8.64"/>
	<circle cx="1759.35" cy="483.88" r="14.97" style="fill:none;stroke:#606060;stroke-width:8.64"/>
	<circle cx="1759.35" cy="573.23" r="14.97" style="fill:none;stroke:#606060;stroke-width:8.64"/>
	<circle cx="1759.35" cy="525.34" r="14.97" style="fill:none;stroke:#606060;stroke-width:8.64"/>
	<circle cx="1759.35" cy="2272.49" r="14.97" style="fill:none;stroke:#606060;stroke-width:8.64"/>
	<circle cx="1759.35" cy="488.46" r="14.97" style="fill:none;stroke:#606060;stroke-width:8.64"/>
	<circle cx="1759.35" cy="2281.77" r="14.97" style="fill:none;stroke:#606060;stroke-width:8.64"/>
	<circle cx="1759.35" cy="2322.74" r="14.97" style="fill:none;stroke:#606060;stroke-width:8.64"/>
	<circle cx="1759.35" cy="2306.28" r="14.97" style="fill:none;stroke:#606060;stroke-width:8.64"/>
	<circle cx="1795.74" cy="582.26" r="14.97" style="fill:none;stroke:#606060;stroke-width:8.64"/>
	<circle cx="1795.74" cy="2291.80" r="14.97" style="fill:none;stroke:#606060;stroke-width:8.64"/>
	<circle cx="1795.74" cy="2320.76" r="14.97" style="fill:none;stroke:#606060;stroke-width:8.64"/>
	<circle cx="1795.74" cy="478.31" r="14.97" style="fill:none;stroke:#606060;stroke-width:8.64"/>
	<circle cx="1795.74" cy="543.65" r="14.97" style="fill:none;stroke:#606060;stroke-width:8.64"/>
	<circle cx="1795.74" cy="2267.91" r="14.97" style="fill:none;stroke:#606060;stroke-width:8.64"/>
	<circle cx="1795.74" cy="542.41" r="14.97" style="fill:none;stroke:#606060;stroke-width:8.64"/>
	<circle cx="1795.74" cy="565.56" r="14.97" style="fill:none;stroke:#606060;stroke-width:8.64"/>
	<circle cx="1832.12" cy="600.45" r="14.97" style="fill:none;stroke:#606060;stroke-width:8.64"/>
	<circle cx="1832.12" cy="2293.53" r="14.97" style="fill:none;stroke:#606060;stroke-width:8.64"/>
	<circle cx="1832.12" cy="2213.59" r="14.97" style="fill:none;stroke:#606060;stroke-width:8.64"/>
	<circle cx="1832.12" cy="2340.56" r="14.97" style="fill:none;stroke:#606060;stroke-width:8.64"/>
	<circle cx="1832.12" cy="552.56" r="14.97" style="fill:none;stroke:#606060;stroke-width:8.64"/>
	<circle cx="1832.12" cy="2291.67" r="14.97" style="fill:none;stroke:#606060;stroke-width:8.64"/>
	<circle cx="1832.12" cy="2328.18" r="14.97" style="fill:none;stroke:#606060;stroke-width:8.64"/>
	<circle cx="1832.12" cy="434.13" r="14.97" style="fill:none;stroke:#606060;stroke-width:8.64"/>
	<circle cx="1832.12" cy="493.90" r="14.97" style="fill:none;stroke:#606060;stroke-width:8.64"/>
	<circle cx="1832.12" cy="2254.92" r="14.97" style="fill:none;stroke:#606060;stroke-width:8.64"/>
	<circle cx="1832.12" cy="2337.83" r="14.97" style="fill:none;stroke:#606060;stroke-width:8.64"/>
	<circle cx="1832.12" cy="608.50" r="14.97" style="fill:none;stroke:#606060;stroke-width:8.64"/>
	<circle cx="1868.50" cy="2343.03" r="14.97" style="fill:none;stroke:#606060;stroke-width:8.64"/>
	<circle cx="1868.50" cy="2238.09" r="14.97" style="fill:none;stroke:#606060;stroke-width:8.64"/>
	<circle cx="1868.50" cy="582.01" r="14.97" style="fill:none;stroke:#606060;stroke-width:8.64"/>
	<circle cx="1868.50" cy="2297.49" r="14.97" style="fill:none;stroke:#606060;stroke-width:8.64"/>
	<circle cx="1868.50" cy="418.41" r="14.97" style="fill:none;stroke:#606060;stroke-width:8.64"/>
	<circle cx="1904.88" cy="582.51" r="14.97" style="fill:none;stroke:#606060;stroke-width:8.64"/>
	<circle cx="1904.88" cy="2343.53" r="14.97" style="fill:none;stroke:#606060;stroke-width:8.64"/>
	<circle cx="1904.88" cy="563.45" r="14.97" style="fill:none;stroke:#606060;stroke-width:8.64"/>
	<circle cx="1904.88" cy="504.05" r="14.97" style="fill:none;stroke:#606060;stroke-width:8.64"/>
	<circle cx="1904.88" cy="2247.74" r="14.97" style="fill:none;stroke:#606060;stroke-width:8.64"/>
	<circle cx="1904.88" cy="583.00" r="14.97" style="fill:none;stroke:#606060;stroke-width:8.64"/>
	<circle cx="1904.88" cy="563.45" r="14.97" style="fill:none;stroke:#606060;stroke-width:8.64"/>
	<circle cx="1904.88" cy="2309.49" r="14.97" style="fill:none;stroke:#606060;stroke-width:8.64"/>
	<circle cx="1941.27" cy="2248.11" r="14.97" style="fill:none;stroke:#606060;stroke-width:8.64"/>
	<circle cx="1941.27" cy="481.53" r="14.97" style="fill:none;stroke:#606060;stroke-width:8.64"/>
	<circle cx="1941.27" cy="568.03" r="14.97" style="fill:none;stroke:#606060;stroke-width:8.64"/>
	<circle cx="1941.27" cy="527.44" r="14.97" style="fill:none;stroke:#606060;stroke-width:8.64"/>
	<circle cx="1941.27" cy="571.87" r="14.97" style="fill:none;stroke:#606060;stroke-width:8.64"/>
	<circle cx="1977.53" cy="554.42" r="14.97" style="fill:none;stroke:#606060;stroke-width:8.64"/>
	<circle cx="1977.53" cy="527.93" r="14.97" style="fill:none;stroke:#606060;stroke-width:8.64"/>
	<circle cx="1977.53" cy="2257.77" r="14.97" style="fill:none;stroke:#606060;stroke-width:8.64"/>
	<circle cx="1977.53" cy="611.72" r="14.97" style="fill:none;stroke:#606060;stroke-width:8.64"/>
	<circle cx="2013.91" cy="578.92" r="14.97" style="fill:none;stroke:#606060;stroke-width:8.64"/>
	<circle cx="2013.91" cy="549.84" r="14.97" style="fill:none;stroke:#606060;stroke-width:8.64"/>
	<circle cx="2013.91" cy="2319.77" r="14.97" style="fill:none;stroke:#606060;stroke-width:8.64"/>
	<circle cx="2013.91" cy="2215.44" r="14.97" style="fill:none;stroke:#606060;stroke-width:8.64"/>
	<circle cx="2013.91" cy="522.24" r="14.97" style="fill:none;stroke:#606060;stroke-width:8.64"/>
	<circle cx="2013.91" cy="2333.38" r="14.97" style="fill:none;stroke:#606060;stroke-width:8.64"/>
	<circle cx="2050.29" cy="311.74" r="14.97" style="fill:none;stroke:#606060;stroke-width:8.64"/>
	<circle cx="2050.29" cy="2339.69" r="14.97" style="fill:none;stroke:#606060;stroke-width:8.64"/>
	<circle cx="2050.29" cy="568.53" r="14.97" style="fill:none;stroke:#606060;stroke-width:8.64"/>
	<circle cx="2050.29" cy="2239.45" r="14.97" style="fill:none;stroke:#606060;stroke-width:8.64"/>
	<circle cx="2050.29" cy="548.97" r="14.97" style="fill:none;stroke:#606060;stroke-width:8.64"/>
	<circle cx="2050.29" cy="598.97" r="14.97" style="fill:none;stroke:#606060;stroke-width:8.64"/>
	<circle cx="2050.29" cy="582.14" r="14.97" style="fill:none;stroke:#606060;stroke-width:8.64"/>
	<circle cx="2050.29" cy="560.11" r="14.97" style="fill:none;stroke:#606060;stroke-width:8.64"/>
	<circle cx="2050.29" cy="2342.78" r="14.97" style="fill:none;stroke:#606060;stroke-width:8.64"/>
	<circle cx="2050.29" cy="2309.00" r="14.97" style="fill:none;stroke:#606060;stroke-width:8.64"/>
	<circle cx="2050.29" cy="380.54" r="14.97" style="fill:none;stroke:#606060;stroke-width:8.64"/>
	<circle cx="2050.29" cy="602.43" r="14.97" style="fill:none;stroke:#606060;stroke-width:8.64"/>
	<circle cx="2050.29" cy="549.96" r="14.97" style="fill:none;stroke:#606060;stroke-width:8.64"/>
	<circle cx="2086.67" cy="573.60" r="14.97" style="fill:none;stroke:#606060;stroke-width:8.64"/>
	<circle cx="2086.67" cy="576.57" r="14.97" style="fill:none;stroke:#606060;stroke-width:8.64"/>
	<circle cx="2086.67" cy="524.10" r="14.97" style="fill:none;stroke:#606060;stroke-width:8.64"/>
	<circle cx="2086.67" cy="2257.52" r="14.97" style="fill:none;stroke:#606060;stroke-width:8.64"/>
	<circle cx="2086.67" cy="519.52" r="14.97" style="fill:none;stroke:#606060;stroke-width:8.64"/>
	<circle cx="2086.67" cy="2243.78" r="14.97" style="fill:none;stroke:#606060;stroke-width:8.64"/>
	<circle cx="2086.67" cy="500.09" r="14.97" style="fill:none;stroke:#606060;stroke-width:8.64"/>
	<circle cx="2086.67" cy="2334.12" r="14.97" style="fill:none;stroke:#606060;stroke-width:8.64"/>
	<circle cx="2123.05" cy="2253.43" r="14.97" style="fill:none;stroke:#606060;stroke-width:8.64"/>
	<circle cx="2123.05" cy="342.67" r="14.97" style="fill:none;stroke:#606060;stroke-width:8.64"/>
	<circle cx="2123.05" cy="611.72" r="14.97" style="fill:none;stroke:#606060;stroke-width:8.64"/>
	<circle cx="2159.44" cy="2281.53" r="14.97" style="fill:none;stroke:#606060;stroke-width:8.64"/>
	<circle cx="2159.44" cy="2295.26" r="14.97" style="fill:none;stroke:#606060;stroke-width:8.64"/>
	<circle cx="2159.44" cy="574.09" r="14.97" style="fill:none;stroke:#606060;stroke-width:8.64"/>
	<circle cx="2159.44" cy="2281.40" r="14.97" style="fill:none;stroke:#606060;stroke-width:8.64"/>
	<circle cx="2159.44" cy="585.60" r="14.97" style="fill:none;stroke:#606060;stroke-width:8.64"/>
	<circle cx="2159.44" cy="536.10" r="14.97" style="fill:none;stroke:#606060;stroke-width:8.64"/>
	<circle cx="2159.44" cy="2305.29" r="14.97" style="fill:none;stroke:#606060;stroke-width:8.64"/>
	<circle cx="2195.70" cy="2236.97" r="14.97" style="fill:none;stroke:#606060;stroke-width:8.64"/>
	<circle cx="2195.70" cy="610.11" r="14.97" style="fill:none;stroke:#606060;stroke-width:8.64"/>
	<circle cx="2195.70" cy="2292.17" r="14.97" style="fill:none;stroke:#606060;stroke-width:8.64"/>
	<circle cx="2195.70" cy="2321.62" r="14.97" style="fill:none;stroke:#606060;stroke-width:8.64"/>
	<circle cx="2195.70" cy="2236.97" r="14.97" style="fill:none;stroke:#606060;stroke-width:8.64"/>
	<circle cx="2195.70" cy="525.46" r="14.97" style="fill:none;stroke:#606060;stroke-width:8.64"/>
	<circle cx="2195.70" cy="584.24" r="14.97" style="fill:none;stroke:#606060;stroke-width:8.64"/>
	<circle cx="2232.08" cy="2236.48" r="14.97" style="fill:none;stroke:#606060;stroke-width:8.64"/>
	<circle cx="2232.08" cy="337.23" r="14.97" style="fill:none;stroke:#606060;stroke-width:8.64"/>
	<circle cx="2268.46" cy="2130.55" r="14.97" style="fill:none;stroke:#606060;stroke-width:8.64"/>
	<circle cx="2268.46" cy="2336.10" r="14.97" style="fill:none;stroke:#606060;stroke-width:8.64"/>
	<circle cx="2268.46" cy="2291.67" r="14.97" style="fill:none;stroke:#606060;stroke-width:8.64"/>
	<circle cx="2268.46" cy="506.65" r="14.97" style="fill:none;stroke:#606060;stroke-width:8.64"/>
	<circle cx="2304.84" cy="489.20" r="14.97" style="fill:none;stroke:#606060;stroke-width:8.64"/>
	<circle cx="2304.84" cy="2288.09" r="14.97" style="fill:none;stroke:#606060;stroke-width:8.64"/>
	<circle cx="2304.84" cy="2269.77" r="14.97" style="fill:none;stroke:#606060;stroke-width:8.64"/>
	<circle cx="2304.84" cy="2232.89" r="14.97" style="fill:none;stroke:#606060;stroke-width:8.64"/>
	<circle cx="2304.84" cy="520.39" r="14.97" style="fill:none;stroke:#606060;stroke-width:8.64"/>
	<circle cx="2304.84" cy="571.25" r="14.97" style="fill:none;stroke:#606060;stroke-width:8.64"/>
	<circle cx="2304.84" cy="2229.80" r="14.97" style="fill:none;stroke:#606060;stroke-width:8.64"/>
	<circle cx="2341.23" cy="534.99" r="14.97" style="fill:none;stroke:#606060;stroke-width:8.64"/>
	<circle cx="2341.23" cy="2326.94" r="14.97" style="fill:none;stroke:#606060;stroke-width:8.64"/>
	<circle cx="2341.23" cy="615.18" r="14.97" style="fill:none;stroke:#606060;stroke-width:8.64"/>
	<circle cx="2341.23" cy="516.55" r="14.97" style="fill:none;stroke:#606060;stroke-width:8.64"/>
	<circle cx="2341.23" cy="499.22" r="14.97" style="fill:none;stroke:#606060;stroke-width:8.64"/>
	<circle cx="2341.23" cy="2278.68" r="14.97" style="fill:none;stroke:#606060;stroke-width:8.64"/>
	<circle cx="2377.61" cy="2320.51" r="14.97" style="fill:none;stroke:#606060;stroke-width:8.64"/>
	<circle cx="2377.61" cy="587.34" r="14.97" style="fill:none;stroke:#606060;stroke-width:8.64"/>
	<circle cx="2377.61" cy="2350.21" r="14.97" style="fill:none;stroke:#606060;stroke-width:8.64"/>
	<circle cx="2413.87" cy="615.92" r="14.97" style="fill:none;stroke:#606060;stroke-width:8.64"/>
	<circle cx="2450.25" cy="2267.29" r="14.97" style="fill:none;stroke:#606060;stroke-width:8.64"/>
	<circle cx="2450.25" cy="2318.28" r="14.97" style="fill:none;stroke:#606060;stroke-width:8.64"/>
	<circle cx="2486.63" cy="612.95" r="14.97" style="fill:none;stroke:#606060;stroke-width:8.64"/>
	<circle cx="2486.63" cy="616.54" r="14.97" style="fill:none;stroke:#606060;stroke-width:8.64"/>
	<circle cx="2486.63" cy="594.02" r="14.97" style="fill:none;stroke:#606060;stroke-width:8.64"/>
	<circle cx="2595.78" cy="617.28" r="14.97" style="fill:none;stroke:#606060;stroke-width:8.64"/>
	<circle cx="2595.78" cy="538.21" r="14.97" style="fill:none;stroke:#606060;stroke-width:8.64"/>
	<circle cx="2595.78" cy="2351.45" r="14.97" style="fill:none;stroke:#606060;stroke-width:8.64"/>
	<circle cx="2595.78" cy="2294.64" r="14.97" style="fill:none;stroke:#606060;stroke-width:8.64"/>
	<circle cx="2595.78" cy="2325.21" r="14.97" style="fill:none;stroke:#606060;stroke-width:8.64"/>
	<circle cx="2595.78" cy="2317.66" r="14.97" style="fill:none;stroke:#606060;stroke-width:8.64"/>
	<circle cx="2595.78" cy="578.05" r="14.97" style="fill:none;stroke:#606060;stroke-width:8.64"/>
	<circle cx="2595.78" cy="2303.80" r="14.97" style="fill:none;stroke:#606060;stroke-width:8.64"/>
	<circle cx="2632.04" cy="2295.26" r="14.97" style="fill:none;stroke:#606060;stroke-width:8.64"/>
	<circle cx="2632.04" cy="2309.00" r="14.97" style="fill:none;stroke:#606060;stroke-width:8.64"/>
	<circle cx="2632.04" cy="579.17" r="14.97" style="fill:none;stroke:#606060;stroke-width:8.64"/>
	<circle cx="2668.42" cy="571.12" r="14.97" style="fill:none;stroke:#606060;stroke-width:8.64"/>
	<circle cx="2668.42" cy="2300.21" r="14.97" style="fill:none;stroke:#606060;stroke-width:8.64"/>
	<circle cx="2704.80" cy="2305.29" r="14.97" style="fill:none;stroke:#606060;stroke-width:8.64"/>
	<circle cx="2741.19" cy="455.41" r="14.97" style="fill:none;stroke:#606060;stroke-width:8.64"/>
	<circle cx="2777.57" cy="2314.44" r="14.97" style="fill:none;stroke:#606060;stroke-width:8.64"/>
	<circle cx="2777.57" cy="619.39" r="14.97" style="fill:none;stroke:#606060;stroke-width:8.64"/>
	<circle cx="2813.95" cy="483.88" r="14.97" style="fill:none;stroke:#606060;stroke-width:8.64"/>
	<circle cx="2813.95" cy="567.66" r="14.97" style="fill:none;stroke:#606060;stroke-width:8.64"/>
	<circle cx="2850.21" cy="2329.30" r="14.97" style="fill:none;stroke:#606060;stroke-width:8.64"/>
	<circle cx="2850.21" cy="2347.98" r="14.97" style="fill:none;stroke:#606060;stroke-width:8.64"/>
	<circle cx="2850.21" cy="567.29" r="14.97" style="fill:none;stroke:#606060;stroke-width:8.64"/>
	<circle cx="2886.59" cy="568.65" r="14.97" style="fill:none;stroke:#606060;stroke-width:8.64"/>
	<circle cx="2886.59" cy="531.03" r="14.97" style="fill:none;stroke:#606060;stroke-width:8.64"/>
	<circle cx="2922.97" cy="614.31" r="14.97" style="fill:none;stroke:#606060;stroke-width:8.64"/>
	<circle cx="2922.97" cy="593.77" r="14.97" style="fill:none;stroke:#606060;stroke-width:8.64"/>
	<circle cx="2959.36" cy="2335.11" r="14.97" style="fill:none;stroke:#606060;stroke-width:8.64"/>
	<circle cx="2959.36" cy="2325.95" r="14.97" style="fill:none;stroke:#606060;stroke-width:8.64"/>
	<circle cx="2959.36" cy="2295.02" r="14.97" style="fill:none;stroke:#606060;stroke-width:8.64"/>
	<circle cx="2959.36" cy="2322.74" r="14.97" style="fill:none;stroke:#606060;stroke-width:8.64"/>
	<circle cx="3068.38" cy="443.41" r="14.97" style="fill:none;stroke:#606060;stroke-width:8.64"/>
	<circle cx="3068.38" cy="551.69" r="14.97" style="fill:none;stroke:#606060;stroke-width:8.64"/>
	<circle cx="3068.38" cy="610.97" r="14.97" style="fill:none;stroke:#606060;stroke-width:8.64"/>
	<circle cx="3104.76" cy="564.44" r="14.97" style="fill:none;stroke:#606060;stroke-width:8.64"/>
	<circle cx="3104.76" cy="574.34" r="14.97" style="fill:none;stroke:#606060;stroke-width:8.64"/>
	<circle cx="3104.76" cy="2056.79" r="14.97" style="fill:none;stroke:#606060;stroke-width:8.64"/>
	<circle cx="3177.53" cy="2190.81" r="14.97" style="fill:none;stroke:#606060;stroke-width:8.64"/>
	<circle cx="3177.53" cy="2291.92" r="14.97" style="fill:none;stroke:#606060;stroke-width:8.64"/>
	<circle cx="3213.91" cy="2323.73" r="14.97" style="fill:none;stroke:#606060;stroke-width:8.64"/>
	<circle cx="3213.91" cy="619.76" r="14.97" style="fill:none;stroke:#606060;stroke-width:8.64"/>
	<circle cx="3213.91" cy="519.27" r="14.97" style="fill:none;stroke:#606060;stroke-width:8.64"/>
	<circle cx="3250.29" cy="607.38" r="14.97" style="fill:none;stroke:#606060;stroke-width:8.64"/>
	<circle cx="3322.93" cy="614.69" r="14.97" style="fill:none;stroke:#606060;stroke-width:8.64"/>
	<circle cx="3395.70" cy="2225.34" r="14.97" style="fill:none;stroke:#606060;stroke-width:8.64"/>
	<circle cx="3395.70" cy="581.77" r="14.97" style="fill:none;stroke:#606060;stroke-width:8.64"/>
	<circle cx="3395.70" cy="572.61" r="14.97" style="fill:none;stroke:#606060;stroke-width:8.64"/>
	<circle cx="3468.47" cy="537.83" r="14.97" style="fill:none;stroke:#606060;stroke-width:8.64"/>
	<circle cx="3504.72" cy="563.82" r="14.97" style="fill:none;stroke:#606060;stroke-width:8.64"/>
	<circle cx="3650.25" cy="2250.84" r="14.97" style="fill:none;stroke:#606060;stroke-width:8.64"/>
	<circle cx="3686.64" cy="2313.33" r="14.97" style="fill:none;stroke:#606060;stroke-width:8.64"/>
	<circle cx="3722.89" cy="512.59" r="14.97" style="fill:none;stroke:#606060;stroke-width:8.64"/>
	<circle cx="3722.89" cy="544.76" r="14.97" style="fill:none;stroke:#606060;stroke-width:8.64"/>
	<circle cx="3722.89" cy="423.73" r="14.97" style="fill:none;stroke:#606060;stroke-width:8.64"/>
	<circle cx="3795.66" cy="508.38" r="14.97" style="fill:none;stroke:#606060;stroke-width:8.64"/>
	<path d=" M414.07 1091.26 L559.47 1087.80 L559.47 1084.33 L741.26 1080.87 L777.64 1077.52 L777.64 1072.95 L814.03 1080.62 L814.03 1077.40 L850.41 1073.94 L850.41 1081.24 L850.41 1077.77 L850.41 1085.69 L886.79 1082.10 L886.79 1089.90 L923.05 1086.81 L923.05 1094.36 L923.05 1090.52 L923.05 1097.82 L923.05 1105.00 L959.43 1112.30 L995.82 1119.85 L995.82 1116.01 L995.82 1112.55 L995.82 1109.33 L995.82 1116.01 L1032.20 1112.92 L1032.20 1109.58 L1032.20 1116.26 L1032.20 1123.19 L1032.20 1119.97 L1032.20 1126.28 L1032.20 1132.97 L1068.58 1129.75 L1068.58 1126.78 L1068.58 1133.46 L1104.96 1139.77 L1104.96 1136.56 L1104.96 1143.11 L1104.96 1140.02 L1104.96 1136.93 L1104.96 1133.71 L1104.96 1130.62 L1104.96 1127.15 L1104.96 1124.30 L1104.96 1121.09 L1141.22 1127.15 L1141.22 1123.81 L1141.22 1129.87 L1141.22 1136.06 L1177.61 1142.00 L1177.61 1139.15 L1177.61 1145.09 L1177.61 1151.03 L1177.61 1147.69 L1177.61 1144.60 L1177.61 1150.17 L1177.61 1147.20 L1213.99 1144.35 L1213.99 1141.63 L1213.99 1147.32 L1213.99 1152.52 L1213.99 1158.21 L1213.99 1155.37 L1250.37 1160.81 L1250.37 1166.38 L1250.37 1162.92 L1250.37 1159.70 L1250.37 1164.90 L1250.37 1170.34 L1250.37 1167.74 L1250.37 1173.19 L1286.75 1178.14 L1286.75 1175.41 L1286.75 1180.61 L1323.13 1177.02 L1323.13 1174.42 L1323.13 1179.62 L1323.13 1176.90 L1323.13 1173.93 L1323.13 1178.63 L1323.13 1176.03 L1323.13 1173.31 L1323.13 1178.26 L1323.13 1182.96 L1323.13 1179.99 L1323.13 1177.27 L1359.39 1174.42 L1359.39 1171.83 L1359.39 1169.23 L1359.39 1166.50 L1359.39 1171.08 L1359.39 1168.73 L1359.39 1166.26 L1359.39 1163.66 L1359.39 1168.48 L1359.39 1172.82 L1395.78 1170.22 L1395.78 1174.92 L1395.78 1171.45 L1395.78 1176.16 L1395.78 1173.68 L1395.78 1178.01 L1395.78 1175.54 L1395.78 1173.19 L1395.78 1170.84 L1395.78 1168.36 L1395.78 1173.06 L1395.78 1177.52 L1395.78 1174.42 L1395.78 1172.20 L1395.78 1169.72 L1432.16 1167.37 L1432.16 1165.14 L1432.16 1162.67 L1432.16 1166.88 L1432.16 1164.40 L1432.16 1168.48 L1432.16 1165.89 L1432.16 1170.34 L1432.16 1174.42 L1432.16 1171.33 L1432.16 1169.23 L1468.54 1173.43 L1468.54 1177.64 L1468.54 1175.29 L1468.54 1179.50 L1468.54 1177.27 L1468.54 1174.92 L1468.54 1179.00 L1468.54 1182.84 L1468.54 1180.86 L1504.92 1184.82 L1504.92 1188.90 L1504.92 1192.74 L1504.92 1190.26 L1504.92 1188.16 L1504.92 1191.87 L1504.92 1188.90 L1541.18 1192.12 L1541.18 1196.20 L1541.18 1200.04 L1541.18 1197.69 L1541.18 1195.21 L1541.18 1198.93 L1541.18 1202.64 L1541.18 1209.32 L1541.18 1203.88 L1541.18 1197.94 L1577.57 1203.88 L1577.57 1198.56 L1577.57 1204.74 L1577.57 1204.87 L1577.57 1204.87 L1577.57 1204.87 L1577.57 1204.74 L1613.95 1204.87 L1613.95 1199.05 L1613.95 1205.49 L1613.95 1199.79 L1613.95 1205.73 L1613.95 1205.86 L1650.33 1206.11 L1650.33 1200.29 L1650.33 1200.66 L1650.33 1194.97 L1650.33 1188.90 L1650.33 1194.97 L1650.33 1195.83 L1650.33 1202.64 L1650.33 1203.01 L1650.33 1203.01 L1686.71 1209.08 L1686.71 1209.20 L1686.71 1215.26 L1686.71 1215.63 L1686.71 1215.63 L1686.71 1221.70 L1686.71 1227.89 L1686.71 1227.51 L1723.10 1233.45 L1723.10 1233.83 L1723.10 1233.58 L1723.10 1233.70 L1723.10 1240.14 L1723.10 1246.33 L1723.10 1246.45 L1759.35 1240.39 L1759.35 1234.20 L1759.35 1234.57 L1759.35 1235.06 L1759.35 1235.31 L1759.35 1235.19 L1759.35 1241.50 L1759.35 1247.56 L1795.74 1247.19 L1795.74 1247.32 L1795.74 1247.44 L1795.74 1241.50 L1795.74 1241.75 L1795.74 1247.07 L1795.74 1252.76 L1795.74 1258.82 L1832.12 1265.14 L1832.12 1265.51 L1832.12 1259.32 L1832.12 1259.57 L1832.12 1253.75 L1832.12 1253.75 L1832.12 1247.93 L1832.12 1248.06 L1832.12 1247.93 L1832.12 1241.87 L1832.12 1247.81 L1832.12 1253.75 L1868.50 1247.56 L1868.50 1247.44 L1868.50 1246.82 L1868.50 1246.57 L1868.50 1248.92 L1904.88 1245.46 L1904.88 1247.81 L1904.88 1244.22 L1904.88 1240.39 L1904.88 1237.54 L1904.88 1239.77 L1904.88 1236.18 L1904.88 1238.53 L1941.27 1241.75 L1941.27 1244.47 L1941.27 1246.82 L1941.27 1243.36 L1941.27 1245.95 L1977.53 1248.43 L1977.53 1251.03 L1977.53 1247.07 L1977.53 1249.67 L2013.91 1246.08 L2013.91 1248.68 L2013.91 1251.28 L2013.91 1254.74 L2013.91 1257.46 L2013.91 1259.81 L2050.29 1262.41 L2050.29 1258.82 L2050.29 1261.55 L2050.29 1258.33 L2050.29 1260.80 L2050.29 1264.15 L2050.29 1267.12 L2050.29 1269.84 L2050.29 1265.75 L2050.29 1268.48 L2050.29 1271.20 L2050.29 1267.24 L2050.29 1269.96 L2086.67 1272.68 L2086.67 1275.53 L2086.67 1271.82 L2086.67 1267.73 L2086.67 1270.33 L2086.67 1273.18 L2086.67 1276.03 L2086.67 1279.00 L2123.05 1274.79 L2123.05 1277.51 L2123.05 1273.55 L2159.44 1276.52 L2159.44 1272.31 L2159.44 1268.35 L2159.44 1271.20 L2159.44 1274.42 L2159.44 1277.26 L2159.44 1280.61 L2195.70 1283.58 L2195.70 1279.61 L2195.70 1282.59 L2195.70 1285.80 L2195.70 1289.27 L2195.70 1292.61 L2195.70 1296.07 L2232.08 1299.17 L2232.08 1303.50 L2268.46 1306.84 L2268.46 1310.31 L2268.46 1313.52 L2268.46 1309.19 L2304.84 1304.74 L2304.84 1308.82 L2304.84 1304.61 L2304.84 1308.33 L2304.84 1311.67 L2304.84 1315.13 L2304.84 1318.60 L2341.23 1321.94 L2341.23 1326.39 L2341.23 1322.19 L2341.23 1325.65 L2341.23 1329.36 L2341.23 1325.16 L2377.61 1328.87 L2377.61 1324.17 L2377.61 1328.00 L2413.87 1323.18 L2450.25 1326.77 L2450.25 1322.06 L2486.63 1326.15 L2486.63 1321.44 L2486.63 1316.74 L2595.78 1311.67 L2595.78 1306.47 L2595.78 1310.68 L2595.78 1314.51 L2595.78 1318.35 L2595.78 1313.65 L2595.78 1317.48 L2595.78 1321.44 L2632.04 1316.49 L2632.04 1311.30 L2632.04 1315.26 L2668.42 1310.31 L2668.42 1305.11 L2704.80 1309.07 L2741.19 1312.90 L2777.57 1307.34 L2777.57 1302.14 L2813.95 1306.10 L2813.95 1300.53 L2850.21 1304.61 L2850.21 1308.70 L2850.21 1313.03 L2886.59 1317.24 L2886.59 1322.06 L2922.97 1326.27 L2922.97 1330.97 L2959.36 1325.53 L2959.36 1330.35 L2959.36 1324.79 L2959.36 1318.84 L3068.38 1313.03 L3068.38 1317.36 L3068.38 1311.54 L3104.76 1305.36 L3104.76 1310.43 L3104.76 1315.13 L3177.53 1309.19 L3177.53 1314.02 L3213.91 1318.72 L3213.91 1323.18 L3213.91 1317.11 L3250.29 1311.30 L3322.93 1304.74 L3395.70 1309.56 L3395.70 1303.25 L3395.70 1296.57 L3468.47 1302.26 L3504.72 1307.58 L3650.25 1301.27 L3686.64 1294.34 L3722.89 1298.92 L3722.89 1291.87 L3722.89 1285.31 L3795.66 1290.13" stroke-linejoin="round" style="fill:none;stroke:#000000;stroke-width:8.64"/>
	<line x1="350.71" y1="2414.69" x2="350.71" y2="235.38" style="stroke:#000000;stroke-width:5.76"/>
	<line x1="350.71" y1="2157.52" x2="310.74" y2="2157.52" style="stroke:#000000;stroke-width:5.76"/>
	<text x="266.64" y="2157.52" style="font-family:'Helvetica';font-size:79.94px;fill:#000000" transform="rotate(-90 266.64,2157.52)" text-anchor="middle">-2</text>
	<line x1="350.71" y1="1334.44" x2="310.74" y2="1334.44" style="stroke:#000000;stroke-width:5.76"/>
	<text x="266.64" y="1334.44" style="font-family:'Helvetica';font-size:79.94px;fill:#000000" transform="rotate(-90 266.64,1334.44)" text-anchor="middle">0</text>
	<line x1="350.71" y1="511.35" x2="310.74" y2="511.35" style="stroke:#000000;stroke-width:5.76"/>
	<text x="266.64" y="511.35" style="font-family:'Helvetica';font-size:79.94px;fill:#000000" transform="rotate(-90 266.64,511.35)" text-anchor="middle">2</text>
	<text x="176.68" y="1325.03" style="font-family:'Helvetica';font-size:79.94px;fill:#000000" transform="rotate(-90 176.68,1325.03)" text-anchor="middle">Scaled Schoenfeld Residuals</text>
	<line x1="350.71" y1="2414.69" x2="3859.02" y2="2414.69" style="stroke:#000000;stroke-width:5.76"/>
	<line x1="705.00" y1="2414.69" x2="705.00" y2="2454.66" style="stroke:#000000;stroke-width:5.76"/>
	<text x="705.00" y="2530.61" style="font-family:'Helvetica';font-size:79.94px;fill:#000000" text-anchor="middle">20</text>
	<line x1="1432.16" y1="2414.69" x2="1432.16" y2="2454.66" style="stroke:#000000;stroke-width:5.76"/>
	<text x="1432.16" y="2530.61" style="font-family:'Helvetica';font-size:79.94px;fill:#000000" text-anchor="middle">40</text>
	<line x1="2159.44" y1="2414.69" x2="2159.44" y2="2454.66" style="stroke:#000000;stroke-width:5.76"/>
	<text x="2159.44" y="2530.61" style="font-family:'Helvetica';font-size:79.94px;fill:#000000" text-anchor="middle">60</text>
	<line x1="2886.72" y1="2414.69" x2="2886.72" y2="2454.66" style="stroke:#000000;stroke-width:5.76"/>
	<text x="2886.72" y="2530.61" style="font-family:'Helvetica';font-size:79.94px;fill:#000000" text-anchor="middle">80</text>
	<line x1="3613.87" y1="2414.69" x2="3613.87" y2="2454.66" style="stroke:#000000;stroke-width:5.76"/>
	<text x="3613.87" y="2530.61" style="font-family:'Helvetica';font-size:79.94px;fill:#000000" text-anchor="middle">100</text>
	<text x="2104.86" y="2620.57" style="font-family:'Helvetica';font-size:79.94px;fill:#000000" text-anchor="middle">Time</text>
	<text x="368.03" y="2737.89" style="font-family:'Helvetica';font-size:79.94px;fill:#000000">bandwidth = .8</text>
	<text x="368.03" y="187.99" style="font-family:'Helvetica';font-size:99.99px;fill:#000000">Schoenfeld residuals against time, age and sex adjusted</text>
</svg>
